<svg width="1080" height="1080" viewBox="0 0 1080 1080" fill="none" xmlns="http://www.w3.org/2000/svg">
<path d="M453.362 601.618C453.281 601.699 453.12 601.798 453.134 601.858C453.172 602.03 453.281 602.186 453.362 602.348C453.443 602.267 453.604 602.168 453.59 602.108C453.552 601.936 453.443 601.78 453.362 601.618ZM474.532 301.585C474.451 301.667 474.291 301.765 474.304 301.826C474.342 301.997 474.451 302.153 474.532 302.316C474.613 302.234 474.774 302.136 474.76 302.076C474.722 301.904 474.613 301.748 474.532 301.585ZM454.391 171.192C454.308 171.099 454.239 171.021 454.17 170.942C454.093 171.091 453.991 171.232 453.952 171.39C453.938 171.448 454.076 171.542 454.145 171.62C454.228 171.476 454.311 171.331 454.391 171.192ZM465.965 612.692C466.385 612.23 465.853 612.038 465.65 611.877C465.439 611.71 465.081 611.411 464.771 611.783C464.344 612.298 464.704 612.651 465.113 612.872C465.369 613.011 465.783 613.215 465.965 612.692ZM473.763 298.561C473.496 299.088 473.304 299.289 473.321 299.469C473.376 300.066 473.292 301.188 474.214 300.684C474.967 300.271 474.407 299.295 473.763 298.561ZM454.165 165.918C451.925 168.594 451.925 168.594 454.384 170.268C453.77 168.892 454.09 167.793 454.165 165.918ZM396.952 264.689C398.402 263.46 399.74 262.08 400.214 260.131C398.196 260.956 397.587 262.804 396.952 264.689ZM496.561 305.004C494.114 301.035 492.45 297.829 493.775 293.968C494.147 292.883 493.447 292.398 492.452 292.358C489.914 292.257 487.374 292.114 484.836 292.141C481.677 292.175 478.543 292.399 477.492 296.266C477.432 296.486 477.222 296.663 477.094 296.867C475.602 299.235 475.679 300.072 478.036 301.606C483.484 305.152 489.593 304.978 496.561 305.004ZM469.35 163.031C465.153 162.244 461.499 164.094 457.716 165.128C455.79 165.655 455.195 167.864 456.435 169.416C457.099 170.248 458.041 170.878 458.918 171.514C463.909 175.131 469.856 175.84 475.66 176.982C476.317 177.111 477.196 176.913 477.047 176.334C476.645 174.775 477.968 173.953 478.262 172.719C478.993 169.65 478.041 166.901 476.446 164.431C475.331 162.704 473.194 163.245 471.449 163.045C470.732 162.962 469.997 163.031 469.35 163.031ZM432.853 286.777C433.042 286.606 433.56 286.345 433.721 285.941C434.004 285.23 433.964 284.444 432.857 284.556C428.64 284.98 422.87 290.43 422.578 294.616C422.357 297.795 423.609 299.892 426.944 300.021C428.75 300.091 430.567 299.927 432.378 299.834C437.24 299.584 441.726 297.602 446.462 296.787C447.476 296.612 447.686 296.076 447.591 295.357C447.256 292.836 446.799 290.311 445.463 288.105C444.325 286.227 442.679 285.142 440.314 285.563C437.77 286.015 435.214 286.396 432.853 286.777ZM688.957 476.457C691.658 474.086 693.21 471.335 693.837 467.075C694.937 459.608 696.408 452.241 699.822 445.449C701.965 441.187 701.123 436.949 700.368 432.643C700.261 432.036 700.149 431.344 699.525 431.125C696.312 429.999 693.933 427.313 690.269 426.171C690.87 431.087 690.747 435.758 690.262 440.429C689.886 444.047 689.416 447.658 689.602 451.323C689.73 453.851 690.571 456.21 690.98 458.636C691.39 461.071 689.521 463.456 689.63 466.077C689.73 468.507 689.622 470.923 689 473.311C688.745 474.295 688.544 475.377 688.957 476.457ZM402.496 487.235C402.734 484.754 401.924 482.568 401.815 480.328C401.631 476.569 401.413 473.072 399.001 469.548C396.106 465.318 394.598 460.124 393.116 455.105C392.967 454.601 392.653 453.973 393.54 453.351C395.692 458.06 397.825 462.727 399.957 467.394C398.858 459.921 398.881 452.396 397.505 444.681C395.216 446.742 393.505 448.754 391.211 450.1C388.913 451.447 386.495 452.465 383.915 453.044C386.534 464.571 395.839 483.43 400.918 487.605C401.431 486.088 401.431 486.088 402.496 487.235ZM396.538 390.151C393.776 394.591 391.077 398.163 388.016 401.441C386.028 403.57 384.074 405.789 381.142 406.673C379.493 407.171 379.362 408.31 379.48 409.789C379.896 415.018 380.564 420.177 382.665 425.057C382.993 425.82 383.611 426.608 383.307 427.601C381.567 426.726 381.5 424.532 379.661 423.407C379.723 424.391 379.743 424.99 379.8 425.585C380.465 432.482 382.299 439.214 382.685 446.153C382.724 446.861 382.918 447.599 383.206 448.249C383.766 449.509 384.655 450.034 386.112 449.497C389.229 448.347 391.888 446.443 394.604 444.613C395.336 444.12 395.269 443.394 395.467 442.72C395.642 442.126 395.869 441.508 395.203 441.119C394.768 440.865 394.274 441.014 393.834 441.287C391.962 442.451 390.068 443.527 387.744 442.578C387.717 442.567 387.646 442.666 387.596 442.713C387.684 442.786 387.772 442.858 387.973 443.023C390.977 441.365 394.703 440.453 395.46 435.963C394.075 436.401 393.381 437.571 392.118 437.646C393.037 436.171 394.055 434.739 394.857 433.193C395.63 431.702 396.415 430.188 396.272 428.376C395.637 420.36 396.074 412.329 395.953 404.305C395.939 403.421 396.448 402.376 395.406 401.56C393.993 403.002 392.872 404.71 390.846 406.13C393.941 401.208 397.342 396.786 396.538 390.151ZM431.057 305.332C433.713 307.2 436.748 305.793 439.656 306.161C438.037 305.235 436.419 304.308 434.8 303.382C435.197 300.924 435.178 300.892 433.082 300.985C432.607 301.006 432.064 300.946 431.672 301.151C430.382 301.825 427.999 300.668 427.764 302.572C427.567 304.167 429.741 304.614 431.057 305.332ZM469.231 618.311C466.955 616.493 464.606 614.739 462.701 612.524C461.848 611.532 460.262 610.621 461.549 608.83C462.011 608.186 461.296 607.755 460.877 607.407C459.01 605.853 457.11 604.341 455.225 602.809C454.722 602.401 454.163 602.166 453.598 602.587C452.999 603.034 453.231 603.631 453.441 604.217C453.889 605.472 454.275 606.751 454.734 608.002C457.669 616.002 459.617 624.24 460.793 632.673C461.009 634.226 461.43 635.755 461.823 637.277C462.762 640.915 463.536 644.569 464.141 648.291C465.19 654.741 467.868 660.675 470.857 666.488C471.824 663.354 472.241 660.251 473.249 657.283C474.996 652.138 481.222 648.494 486.437 649.614C486.887 649.428 486.259 650.296 486.35 649.818C486.357 649.776 486.214 649.652 486.188 649.665C483.794 650.814 481.212 651.603 479.092 653.276C478.612 653.655 477.623 653.86 478.227 654.868L478.176 654.923C477.779 654.359 477.402 654.634 477.041 654.96C475.457 656.391 474.658 658.219 474.281 660.335C478.776 662.696 483.036 665.374 487.219 668.176C487.007 668.375 486.795 668.574 486.584 668.773C482.311 666.489 478.473 663.393 473.78 661.609C473.582 662.461 473.448 663.039 473.313 663.618C472.98 663.897 472.883 664.225 473.104 664.62C473.142 664.924 473.181 665.229 473.219 665.533C473.034 666.167 472.681 666.77 472.859 667.472C472.859 668.831 472.858 670.189 472.858 671.548C473.586 672.789 473.686 674.34 474.762 675.41C474.957 675.718 474.986 676.212 475.546 676.114L475.452 676.199C476.206 678.74 477.772 680.577 480.057 681.942C484.91 684.842 489.699 687.849 494.515 690.812C494.316 690.998 494.118 691.184 493.919 691.37C489.666 689.415 485.958 686.457 481.616 684.678C481.34 684.714 480.904 684.645 480.811 684.792C480.548 685.208 480.844 685.572 481.151 685.88C481.543 687.105 482.419 687.795 483.515 688.456C487.222 690.69 490.842 693.067 494.393 695.608C490.852 694.638 488.001 692.169 484.351 691.039C484.968 692.002 485.43 693.131 486.239 693.889C487.461 695.033 488.266 696.158 488.688 697.903C489.269 700.307 489.726 700.285 492.364 699.571C492.828 699.446 493.315 699.41 493.792 699.333C494.35 699.554 495.211 699.21 495.368 700.179C495.368 700.179 495.331 700.188 495.332 700.188C494.207 699.968 493.255 700.567 492.312 700.964C491.445 701.329 491.435 701.964 492.448 702.328C492.679 702.442 492.91 702.556 493.142 702.671C494.243 703.485 495.324 704.339 496.726 704.595C499.43 705.851 501.555 708.083 504.408 709.072C500.415 706.869 495.967 705.656 491.942 703.19C491.267 704.668 491.797 705.677 492.494 706.658C492.548 707.766 492.295 708.976 493.497 709.706C493.823 710.152 494.172 710.171 494.543 709.763L494.469 709.91C493.821 711.603 495.704 712.094 496.079 713.301C496.404 714.251 496.999 714.986 497.845 715.52C498.375 715.977 498.484 717.377 499.682 716.341L499.592 716.474C498.579 717.444 499.58 718.079 500.134 718.418C501.625 719.333 503.011 720.467 505.404 721.166C504.365 720.322 503.927 719.778 503.058 719.902C502.491 719.43 501.798 718.907 501.219 719.639C500.81 720.157 501.337 720.718 501.845 721.079C504.291 724.967 506.448 729.079 509.235 732.704C519.489 746.041 526.138 761.152 531.599 776.888C531.253 776.832 530.906 776.775 530.56 776.719C528.417 771.842 526.213 766.99 524.145 762.081C520.068 752.397 513.825 744.018 508.23 735.237C503.147 727.258 497.909 719.392 492.365 711.729C491.201 710.119 490.495 708.316 490.158 706.399C489.539 702.87 487.977 699.754 486.159 696.739C480.967 688.127 475.758 679.525 470.556 670.919C470.368 669.89 469.864 669.021 469.191 668.239C465.421 660.988 462.337 653.533 461.532 645.269C461.085 640.677 459.424 636.8 454.169 635.807C453.208 635.626 452.624 634.251 450.593 635.116C453.767 635.061 456.232 634.747 458.755 636.188C458.899 633.487 458.504 631.199 457.993 629.007C456.754 623.689 455.879 618.289 454.323 613.039C453.651 610.775 452.808 608.786 450.482 607.787C449.502 607.367 449.118 606.095 447.926 605.956L447.875 605.89C448.897 607.104 450.525 607.083 451.785 607.813C452.975 606.161 451.49 604.854 451.116 603.466C449.878 598.871 447.974 594.668 444.663 591.017C441.912 587.985 440.165 584.124 437.681 580.813C435.587 578.021 432.898 575.995 430.049 574.143C427.955 572.781 425.538 572.974 423.441 573.919C421.303 574.883 419.719 578.894 420.303 581.199C421.047 584.134 421.885 587.056 422.88 589.914C425.073 596.21 427.412 602.454 429.651 608.733C432.053 615.47 431.756 622.599 432.559 629.563C433.295 635.95 433.859 642.353 434.253 648.779C434.694 655.96 436.652 662.885 438.929 669.687C440.193 673.465 441.711 677.156 443.18 681.061C441.343 681.946 440.69 680.509 440.176 679.253C438.709 675.663 437.262 672.058 436.001 668.392C435.056 665.646 434.234 662.83 433.688 659.982C433.205 657.46 432.692 655.281 429.204 655.411C431.937 654.565 432.067 652.914 431.959 650.592C431.716 645.376 431.122 640.188 430.954 634.962C430.814 630.577 430.079 626.181 428.768 621.937C428.743 621.855 428.482 621.819 428.482 621.76C428.46 618.722 428.466 618.602 425.656 618.493C423.699 618.417 422.024 617.434 420.18 617.048C421.766 617.808 421.766 617.799 424.216 617.655C425.769 617.563 427.325 617.5 429.078 617.414C427.735 611.707 426.084 606.298 424.131 600.968C422.087 595.392 419.768 589.921 417.995 584.24C416.354 578.982 417.931 574.992 422.292 571.899C423.212 571.02 424.475 570.251 423.323 568.704C423.132 568.16 421.861 568.258 422.517 567.175C423.365 565.775 422.098 564.491 422.122 563.102C422.134 562.392 421.397 562.288 420.772 562.297C419.863 562.31 419.185 561.888 418.671 561.143C419.286 560.395 419.899 561.262 420.516 561.177C421.451 561.672 421.821 561.48 421.458 560.4C421.003 557.484 419.679 554.862 418.485 552.231C416.322 547.463 414.302 542.671 413.244 537.513C412.978 536.214 412.438 534.971 412.015 533.704C411.647 532.604 410.851 532.655 409.957 532.944C409.212 533.185 408.747 533.758 408.346 534.357C405.838 538.099 404.028 541.723 404.379 546.752C404.996 555.594 406.427 564.4 406.375 573.26C406.298 586.517 407.063 599.75 407.047 613.006C407.032 624.311 408.447 635.556 409.529 646.812C410.393 655.793 412.826 664.493 413.809 673.431C414.432 679.089 416.387 684.59 415.818 690.387C418.02 699.441 418.952 708.821 423.121 717.368C424.871 720.958 426.227 724.749 427.63 728.498C430.613 736.468 433.926 744.308 438.116 751.704C443.419 761.063 446.784 771.196 450.625 781.151C454.082 790.109 457.11 799.194 458.97 808.63C459.232 809.962 459.875 810.345 461.164 810.477C462.81 810.646 464.421 811.163 466.65 811.666C466.492 811.676 465.817 812.352 465.953 811.886C465.974 811.815 465.869 811.63 465.833 811.633C464.627 811.722 463.413 811.978 462.221 811.895C460.426 811.771 459.853 812.694 459.757 814.384C460.565 815.277 461.808 813.819 462.629 814.745C462.609 814.957 462.672 815.274 462.557 815.364C461.411 816.262 460.272 817.178 459.061 817.985C454.338 821.135 451.793 825.816 450.399 831.061C448.722 837.369 445.81 843.003 442.505 848.575C430.104 869.474 416.774 889.791 404.043 910.482C403.598 911.205 403.104 911.899 402.633 912.606C402.066 912.578 401.82 912.213 401.699 911.716C409.883 898.356 417.881 884.877 426.312 871.674C432.532 861.933 438.054 851.817 443.628 841.718C445.221 838.833 446.213 835.699 446.999 832.507C448.388 826.867 450.477 821.656 455.241 817.892C456.882 816.596 457.005 814.201 458.533 812.736C458.959 812.327 458.325 811.92 458.197 811.505C457.34 808.723 456.396 805.958 455.718 803.131C452.96 791.62 447.893 780.941 443.84 769.898C441.025 762.23 437.001 755.155 433.033 748.051C428.995 740.821 426.051 733.098 423.013 725.421C422.388 723.841 421.88 722.199 421.107 720.694C417.231 713.154 415.238 705.037 413.616 696.797C413.244 694.912 412.927 693.01 412.008 690.902C406.578 694.924 400.593 697.663 395.172 701.328C381.022 710.894 365.78 718.29 349.984 724.705C336.077 730.353 321.702 734.134 306.934 736.501C302.025 737.287 297.028 737.517 292.074 738.034C279.377 739.36 266.675 740.474 253.886 740.514C247.19 740.535 240.556 739.988 234 739.258C240.067 737.46 246.452 737.231 252.783 736.934C261.894 736.505 270.986 735.84 280.07 735.097C298.466 733.594 316.803 731.682 334.45 725.757C344.93 722.238 355.007 717.728 365.073 713.224C380.497 706.322 394.968 697.611 409.538 689.108C413.047 687.06 413.048 686.942 411.974 683.048C410.61 678.101 410.514 672.949 409.402 667.964C407.122 657.738 405.981 647.32 405.029 636.932C404.11 626.908 403.323 616.811 403.964 606.707C404.396 599.897 404.178 593.097 403.997 586.288C403.897 582.534 403.778 578.775 403.999 575.009C404.235 570.995 403.765 566.981 403.145 563.024C402.767 560.606 402.514 558.211 402.541 555.774C402.581 552.129 402.509 548.521 401.927 544.878C401.046 539.358 404.516 535.542 407.895 531.827C408.605 531.046 409.759 531.457 410.865 530.929C409.416 525.741 408.038 520.489 406.477 515.293C404.583 508.991 403.263 502.58 402.547 496.049C402.234 493.202 401.586 490.782 399.066 488.838C396.168 486.603 394.391 483.258 392.472 480.171C388.746 474.177 385.843 467.742 383.054 461.278C380.878 456.237 379.629 450.899 379.07 445.429C378.44 439.262 377.266 433.165 376.886 426.961C376.662 423.292 376.731 419.649 377.218 416.043C377.618 413.081 377.382 410.204 376.802 407.35C376.045 403.625 375.722 399.877 375.95 396.107C376.259 390.995 376.178 385.896 375.88 380.792C375.546 375.079 375.568 369.373 375.862 363.652C376.507 351.135 376.087 338.601 376.251 326.075C376.411 313.946 378.046 302.072 382.331 290.696C384.905 283.861 388.509 277.515 392.678 271.492C393.853 269.794 395.501 268.236 394.894 265.691C394.715 264.94 395.563 263.92 395.997 263.053C403.479 248.127 413.284 234.975 425.805 223.876C429.361 220.723 433.054 217.778 437.025 215.159C448.092 207.86 459.864 201.874 471.873 196.324C473.343 196.767 471.983 197.325 471.933 197.829C460.011 204.078 448.087 210.294 437.103 218.183C424.829 227 414.641 237.806 405.763 249.934C404.393 251.806 402.7 253.515 402.233 255.93C400.985 256.975 400.538 258.365 400.688 260.098C401.495 259.114 402.303 258.131 403.11 257.147C403.451 256.884 403.791 256.621 404.132 256.357C404.346 256.575 404.56 256.792 404.774 257.009C400.31 263.648 396.026 270.396 391.854 277.226C386.013 286.791 382.585 297.169 380.61 308.109C380.303 308.404 380.228 308.73 380.48 309.098C380.447 309.413 380.413 309.727 380.379 310.041C379.824 310.985 380.649 311.722 380.757 312.566C379.578 314.913 379.451 317.486 379.342 320.014C379.042 326.936 378.733 333.863 378.693 340.79C378.582 359.878 378.613 378.967 378.572 398.056C378.566 400.857 378.553 403.654 379.231 406.395C379.597 407.873 380.462 408.242 381.429 407.063C387.012 400.26 393.614 394.185 397 385.779C397.872 383.615 398.084 381.304 398.299 379.003C398.928 378.907 399.23 379.39 399.607 379.74C399.595 380.439 399.583 381.139 399.57 381.838C399.097 382.35 399.025 382.926 399.301 383.555C397.622 396.13 397.622 408.788 397.75 421.425C397.815 427.83 398.717 434.225 399.44 440.613C399.872 444.432 399.995 448.327 400.333 452.188C400.841 458.006 401.574 463.774 402.65 469.517C403.902 476.203 404.261 483.022 405.573 489.712C409.474 509.621 414.074 529.358 420.316 548.669C422.364 555.006 425.105 561.118 427.483 567.351C428.026 568.773 428.92 569.802 430.107 570.732C433.555 573.435 436.685 576.49 439.759 579.613C443.108 583.015 445.796 586.799 448.035 591.049C450.076 594.923 453.377 597.99 456.704 600.815C464.947 607.816 473.397 614.559 482.166 620.91C487.67 624.897 492.967 629.159 498.587 633.008C509.306 640.348 521.12 644.728 533.882 646.646C538.247 647.302 542.68 646.596 546.941 645.834C557.8 643.894 568.302 640.762 578.555 636.484C590.504 631.497 601.609 625.112 612.281 617.959C617.911 614.185 622.917 609.485 628.244 605.254C633.679 600.936 638.388 595.819 643.676 591.34C644.687 590.484 645.626 589.482 646.382 588.396C658.434 571.09 668.93 552.977 675.195 532.673C677.095 526.516 678.595 520.279 679.513 513.894C680.534 506.803 682.549 499.874 683.191 492.725C683.712 486.92 685.269 481.294 685.625 475.433C685.925 470.496 686.435 465.523 687.135 460.595C687.305 459.4 687.383 458.148 687.228 456.958C686.275 449.658 687.216 442.398 687.53 435.119C687.771 429.517 686.788 423.974 686.315 418.408C685.378 407.388 684.052 396.416 682.381 385.483C681.2 377.753 681.505 369.974 681.872 362.205C681.932 360.938 681.808 359.521 683.422 358.154C683.714 361.453 684.155 364.341 684.173 367.233C684.194 370.402 685.186 373.167 686.723 375.842C688.727 379.33 691.074 382.573 693.548 385.734C694.878 387.435 696.372 389.053 696.769 391.345C693.373 389.76 690.889 387.148 688.57 384.347C687.791 383.406 688.255 382.34 688.177 381.368C688.057 379.89 686.498 378.527 685.551 377.116C685.287 376.782 685.022 376.448 684.758 376.114C684.13 376.655 684.526 377.262 684.644 377.851C684.797 384.616 687.121 390.548 691.485 395.698C691.087 395.708 690.69 395.718 690.292 395.728C689.271 394.562 688.249 393.395 687.01 391.981C686.498 392.936 686.633 393.766 686.789 394.488C688.379 401.862 688.441 409.406 689.235 416.866C689.669 420.947 690.75 424.124 695.014 425.515C696.371 425.958 697.569 426.876 698.856 427.545C699.419 427.838 700.026 427.924 700.472 427.33C701.05 426.558 700.262 426.287 699.865 425.976C698.135 424.621 696.598 423.096 695.417 421.231C695.404 420.881 695.39 420.53 695.377 420.18C697.128 421.622 698.834 423.124 700.646 424.484C701.856 425.392 702.042 424.577 701.904 423.522C702.11 422.975 702.316 422.428 702.522 421.881C703.401 417.405 702.835 412.895 702.342 408.481C701.846 404.038 702.426 399.773 703.022 395.462C704.036 388.13 706.108 381.007 707.443 373.738C708.276 369.198 708.715 364.628 708.296 359.997C701.427 360.797 694.737 360.079 688.035 358.929C688.682 361.954 692.643 366.497 696.676 368.936L696.77 368.837C697.176 370.322 698.411 370.849 699.669 371.348L699.717 371.425C699.781 372.17 700.907 372.189 700.838 373.21C699.213 372.817 698.057 371.762 696.833 370.855C692.599 367.719 688.758 364.16 686.035 359.61C684.946 357.79 683.535 356.783 681.586 356.219C676.929 354.872 672.279 353.543 667.545 352.446C656.445 349.874 645.409 347.009 634.629 343.281C628.982 341.328 623.147 340.196 617.316 339.115C608.826 337.54 600.471 335.426 592.327 332.658C581.464 328.966 570.118 327.61 559.029 325.038C547.303 322.318 535.17 322.347 523.48 319.434C520.798 318.766 517.936 318.769 515.149 318.586C509.692 318.227 504.231 317.875 498.766 317.67C493.87 317.485 489.209 316.123 484.493 315.054C481.093 314.283 478.797 311.64 476.869 309.096C474.548 306.033 472.317 305.449 468.685 306.595C461.003 309.017 452.918 309.292 444.956 310.136C441.795 310.472 438.652 309.888 435.518 309.48C434.215 308.495 432.7 308.834 431.246 308.796C431.246 308.796 431.124 308.761 431.125 308.761C430.758 308.234 430.242 308.082 429.631 308.171C427.041 307.331 425.342 305.125 422.813 303.685C418.686 307.773 414.661 312.042 409.828 315.384C409.477 315.402 409.126 315.42 408.775 315.437C412.695 311.557 416.571 307.632 420.563 303.826C421.661 302.779 421.762 301.921 420.91 300.799C420.69 299.589 421.124 298.252 420.209 297.176C419.865 292.291 421.936 288.517 425.745 285.684C429.492 282.899 433.958 281.67 438.349 280.374C448.515 277.374 458.705 274.458 468.886 271.508C469.742 271.295 470.636 271.16 471.319 270.372C469.936 270.018 468.708 270.09 467.572 270.863C457.376 272.04 447.179 273.215 436.929 273.823C434.759 273.952 432.568 273.969 430.399 273.84C423.607 273.436 419.646 269.436 419.089 262.567C419.061 262.227 418.932 261.894 418.76 261.185C414.165 264.663 410.397 268.721 406.336 272.443C405.884 272.394 405.432 272.345 404.981 272.295C408.925 268.202 413.038 264.283 417.238 260.454C418.024 259.738 419.073 259.238 419.404 258.096C419.641 257.725 419.915 257.331 419.443 256.966C418.958 256.59 418.671 257.077 418.329 257.294C415.275 259.641 412.222 261.988 409.168 264.335L408.025 264.307C410.342 262.342 412.619 260.329 414.985 258.426C418.2 255.837 421.367 253.229 424.333 250.324C428.261 246.476 433.053 243.943 438.314 242.087C445.038 239.714 451.663 237.067 458.448 234.832C475.008 229.377 491.515 223.756 508.034 218.175C510.112 217.473 512.23 217.033 514.385 216.651C521.942 215.311 529.544 215.135 537.199 215.253C545.962 215.389 554.627 216.493 563.323 217.332C564.833 217.478 566.37 217.353 567.934 217.353C567.338 216.628 566.497 216.488 565.708 216.2C559.107 213.787 552.406 211.746 545.539 210.2C536.772 208.226 528.591 204.359 519.916 202.045C515.349 200.827 510.768 199.684 506.174 198.575C497.912 196.579 490.029 193.424 482.182 190.219C478.145 188.57 474.205 186.704 470.052 185.32C466.366 184.092 462.904 182.336 459.572 180.308C455.224 177.661 452.694 173.508 450.341 169.256C449.164 167.129 450.391 164.408 452.944 162.755C455.768 160.927 459.008 160.373 462.262 159.916C466.139 159.373 470.023 159.485 473.901 159.884C481.148 160.63 488.435 160.882 495.673 161.802C504.136 162.878 512.219 165.474 520.45 167.508C527.863 169.339 535.031 172.07 542.545 173.47C553.504 175.513 564.425 177.727 575.353 179.918C585.927 182.038 596.327 184.977 607.01 186.551C608.202 186.727 609.399 186.87 610.568 187.025C610.947 185.76 609.982 185.364 609.436 184.835C603.644 179.23 598.477 173.066 594.264 166.234C588.912 157.553 584.132 148.528 580.575 138.927C579.686 136.529 579.383 133.982 579.232 131.421C579.067 128.634 578.864 125.848 578.575 123.072C578.327 120.701 578.636 118.494 579.843 116.401C581.76 113.076 585.153 112.056 588.522 113.933C590.764 115.182 592.768 116.724 594.393 118.763C599.389 125.035 604.425 131.275 609.467 137.51C612.299 141.011 615.328 144.341 618.634 147.399C625.064 153.347 630.564 160.215 637.144 166.014C641.796 170.115 646.091 174.608 650.7 178.737C654.206 181.879 658.291 184.396 661.799 187.587C669.168 194.289 677.527 199.824 684.408 207.115C690.832 213.922 697.57 220.43 704.039 227.195C708.355 231.709 713.252 235.482 718.312 239.066C731.203 248.196 744.674 256.39 758.432 264.15C769.641 270.473 781.346 275.816 792.676 281.876C806.637 289.343 821.527 294.478 836.184 300.221C835.736 301.272 834.77 300.556 834.095 300.833C825.523 297.823 816.94 294.843 808.385 291.785C806.22 291.011 804.061 290.144 802.039 289.06C790.597 282.925 778.644 277.796 767.25 271.591C753.823 264.279 740.524 256.723 727.917 248.015C721.319 243.459 714.591 239.094 708.28 234.131C706.458 232.698 704.687 231.231 703.156 229.485C694.808 219.967 685.482 211.402 676.665 202.34C675.904 201.558 675.146 200.722 674.24 200.136C668.168 196.211 663.366 190.806 657.876 186.205C657.039 185.503 656.22 184.768 655.321 184.152C646.464 178.082 639.092 170.249 630.811 163.494C629.502 162.425 628.462 161.033 627.243 159.846C626.332 158.959 625.861 156.997 623.904 158.329C623.818 158.388 623.529 158.151 623.334 158.051C624.316 156.34 621.913 156.305 621.892 155.195C621.852 153.128 620.51 151.907 619.211 150.641C613.547 145.123 608.201 139.298 603.048 133.316C599.328 128.998 596.044 124.304 592.561 119.781C591.524 118.434 590.512 117.072 588.954 116.238C585.299 114.281 582.479 115.493 581.523 119.468C581.438 119.822 581.34 120.186 581.34 120.546C581.337 127.112 581.251 133.675 583.884 139.914C589.917 154.208 597.675 167.465 607.554 179.446C608.935 181.121 610.59 182.57 612.118 184.123C612.634 184.811 612.745 185.789 613.623 186.216L613.626 186.221C614.262 187.334 615.327 187.626 616.496 187.718C618.895 188.121 621.24 188.281 623.1 186.252L623.159 186.233C621.691 188.151 621.67 188.264 623.508 188.605C625.125 188.905 626.768 189.027 628.236 189.86C628.125 190.622 627.576 190.701 626.957 190.689C625.436 190.658 623.915 190.634 622.394 190.608L622.35 190.605C619.748 189.724 617.064 189.733 614.368 189.873L614.322 189.871C611.465 189.069 608.541 189.054 605.609 189.144L605.56 189.14C603.967 188.33 602.26 188.277 600.529 188.387L600.464 188.378C599.367 187.55 598.112 187.56 596.833 187.69C586.069 185.299 575.255 183.13 564.464 180.873C557.357 179.386 550.166 178.161 542.98 177.013C539.87 176.516 539.21 177.019 538.503 180.204C538.266 181.271 538.097 182.355 537.925 183.435C537.754 184.514 537.617 185.599 537.422 186.996C536.308 183.231 537.275 179.934 538.374 176.394C534.65 175.297 531.104 174.175 527.516 173.211C520.729 171.386 513.939 169.563 507.103 167.935C505.166 167.474 503.165 165.814 501.045 167.562C500.581 166.379 499.499 166.164 498.452 166.017C494.608 165.476 490.761 164.941 486.904 164.498C484.155 164.183 481.389 164.02 478.559 163.783C478.302 165.315 479.349 166.188 479.655 167.298C481.359 173.476 479.832 177.528 472.366 177.519C467.17 177.513 462.438 175.527 457.942 172.982C457.104 172.507 456.2 170.974 455.182 172.099C454.219 173.165 455.7 174.009 456.292 174.777C459.3 178.685 463.507 180.954 468.042 182.395C478.448 185.702 488.242 190.58 498.609 193.982C502.999 195.422 507.469 196.431 511.954 197.456C520.942 199.51 529.66 202.436 538.347 205.504C545.773 208.126 553.638 209.237 561.109 211.753C561.661 211.939 562.346 212.019 562.894 211.869C563.997 211.568 564.41 211.594 564.613 212.981C564.681 213.447 566.576 214.058 567.898 213.373C569.472 212.557 571.175 211.992 572.415 211.485C571.539 212.181 570.31 213.158 568.984 214.212C571.168 216.053 573.05 215.805 575.149 214.223C578.312 211.839 581.509 209.481 583.399 208.616C581.806 210.506 578.597 213.438 574.595 216.21C576.5 216.998 577.782 217.463 579.229 216.828C580.212 217.14 581.175 218.058 582.206 216.928C582.729 216.751 583.488 217.095 583.708 216.248L583.79 216.35C587.172 216.097 590.088 214.451 593.139 213.215C594.342 212.728 595.524 212.188 596.715 211.672C597.121 211.827 597.5 212.007 597.539 212.519C589.959 217.275 581.533 219.213 572.76 220.151C571.258 220.311 570.691 218.978 569.244 218.98C557.593 218.993 546.009 217.399 534.334 217.564C526.302 217.678 518.279 217.947 510.554 220.12C502.878 222.28 495.368 225.051 487.846 227.727C475.879 231.985 463.975 236.417 451.745 239.898C446.153 241.49 441.014 244.298 435.507 246.132C432.317 247.677 429.162 249.273 426.704 251.928C423.187 255.366 421.87 259.435 423.167 264.253C423.524 265.3 422.905 266.743 424.413 267.322C427.441 271.451 431.991 270.98 436.286 271.193C437.608 271.259 438.944 270.96 440.276 270.935C450.834 270.736 461.274 269.157 471.774 268.284C473.936 268.105 476.127 268.258 478.84 268.258C476.667 265.883 473.132 266.148 472.52 263.459C471.712 262.929 472.67 262.723 472.277 263.01C472.268 263.017 472.367 263.247 472.458 263.304C474.604 264.642 476.909 265.64 479.225 266.645C481.051 267.436 482.722 267.447 484.458 266.587C485.097 266.661 485.663 266.598 485.845 265.831C488.32 265.79 490.615 264.931 492.828 264.005C497.08 262.225 501.427 260.738 505.794 259.291C506.349 259.107 507.007 259.115 507.382 258.227C506.425 256.896 504.163 257.431 503.406 255.776C503.474 255.487 503.699 255.351 503.898 255.55C506.67 258.33 509.638 258.253 513.345 257.225C518.94 255.672 524.757 255.641 530.657 255.951C539.609 256.422 548.618 256.933 557.59 255.799C563.125 255.1 568.732 255.08 574.237 254.079C574.407 254.049 574.624 254.278 575.066 254.524C574.071 256.082 572.334 256.117 570.988 256.231C564.943 256.746 558.931 257.557 552.875 258.007C546.799 258.458 540.744 258.441 534.675 258.454C532.613 258.459 530.576 258.369 528.51 258.099C524.508 257.576 520.48 258.027 516.583 259C508.824 260.938 501.179 263.24 493.705 266.142C489.426 267.804 484.96 268.998 480.548 270.301C471.031 273.113 461.494 275.859 451.966 278.634C447.199 280.023 442.417 281.361 437.685 282.859C436.798 283.139 435.442 283.04 435.078 284.583C436.408 285.241 437.645 284.656 438.864 284.426C444.716 283.318 447.737 285.261 448.569 291.19C449.367 296.885 450.118 295.775 444.614 298.245C443.081 298.932 441.361 299.189 439.763 299.746C438.287 300.261 436.653 300.239 435.205 301.139C435.955 303.62 438.209 304.346 440.186 305.388C440.902 306.037 441.654 306.595 442.71 306.372C442.692 306.875 442.873 307.232 443.41 307.329C445.238 307.687 447.006 307.587 448.661 306.633C449.362 306.638 450.062 306.643 450.763 306.647C452.074 306.785 453.402 307 454.46 305.893C455.417 305.899 456.375 305.905 457.333 305.911C459.588 306.159 461.806 306.028 463.962 305.265C464.175 305.215 464.39 305.189 464.609 305.186C465.89 305.197 467.169 305.193 468.333 304.537C468.56 304.486 468.79 304.463 469.022 304.467C469.49 304.483 469.973 304.583 470.422 304.499C472.157 304.177 472.174 304.05 470.86 302.349C469.12 298.582 470.796 295.777 473.498 293.35C477.354 289.888 481.971 288.803 487.033 289.291C491.137 289.688 495.232 290.318 499.344 290.449C504.111 290.6 508.761 291.416 513.397 292.328C519.016 293.432 524.712 293.733 530.389 294.106C535.252 294.426 540.038 293.247 544.84 292.561C557.604 290.738 570.419 289.893 583.311 290.604C585.598 290.73 587.802 291.273 589.911 292.182C590.391 292.104 589.674 292.879 589.87 292.433C589.874 292.426 589.693 292.287 589.61 292.298C584.295 292.971 578.983 291.987 573.657 292.329C566.401 292.796 559.153 293.297 551.909 293.961C544.9 294.604 537.979 296.263 530.936 296.184C523.902 296.105 516.901 295.231 509.953 294.026C505.763 293.299 501.53 292.955 497.273 292.827C495.709 292.779 495.161 293.384 494.895 294.808C494.388 297.521 495.37 299.8 496.633 302.073C498.309 305.089 497.833 306.055 494.505 306.073C490.746 306.094 486.974 306.235 483.234 305.588C481.166 305.231 479.254 304.552 477.487 303.419C476.754 302.95 475.93 302.46 475.547 303.829C475.761 303.58 475.954 303.299 475.611 303.045C475.506 302.967 475.098 303.072 475.092 303.123C475.05 303.495 475.293 303.685 475.631 303.772C475.475 305.164 476.466 305.956 477.228 306.887C480.976 311.461 486.117 313.434 491.667 314.615C494.16 315.146 496.681 315.475 499.245 315.501C507.386 315.583 515.502 316.151 523.604 316.917C527.109 317.249 530.502 318.211 533.929 318.98C537.136 319.699 540.415 319.84 543.679 320.107C553.722 320.929 563.457 323.569 573.371 325.153C582.965 326.687 592.273 329.349 601.557 332.11C604.732 333.054 607.826 333.742 611.066 332.347C612.035 331.93 613.194 331.954 614.082 331.807C613.033 332.483 611.829 333.258 610.183 334.318C614.804 335.271 618.738 336.968 623.074 336.458C623.424 336.976 623.798 337.458 624.529 337.369C637.918 341.099 651.117 345.511 664.701 348.537C667.533 349.168 670.367 349.793 673.207 350.39C673.649 350.482 674.206 350.744 674.569 350.285C677.378 346.726 681.698 345.183 685.071 342.381C685.494 342.503 685.817 342.723 685.878 343.201C682.607 345.901 679.219 348.428 675.394 350.344C679.043 353.053 681.015 353.186 684.268 350.803C690.637 346.137 696.323 340.7 701.389 335.632C698.227 342.212 691.855 346.694 685.956 351.632C683.86 353.387 683.895 353.551 686.242 354.728C689.014 356.117 692.034 356.508 695.033 356.847C697.921 357.173 700.854 356.877 703.759 357.31C704.804 357.466 705.897 357.043 706.923 356.61C709.369 355.577 709.37 355.625 711.534 356.645C713.644 357.64 715.457 359.048 717.233 360.533C720.872 363.576 724.684 366.367 728.893 368.602C730.495 369.452 732.06 370.42 733.498 371.522C745.06 380.388 757.227 388.407 769.011 396.963C784.738 408.381 800.727 419.446 815.117 432.598C818.702 435.875 822.548 438.866 826.255 442.01C829.128 444.447 831.981 446.907 834.467 449.754C834.103 449.751 833.74 449.747 833.376 449.744C825.649 445.078 818.605 439.474 811.727 433.68C800.655 424.352 789.366 415.342 777.368 407.202C767.013 400.177 756.949 392.724 746.734 385.491C741.479 381.771 736.003 378.378 730.999 374.287C727.713 371.6 723.525 370.238 720.253 367.453C718.497 365.958 716.635 364.585 714.823 363.156C713.811 362.358 712.872 361.434 711.074 360.865C711.074 363.732 711.194 366.235 711.05 368.722C710.716 374.479 708.705 379.868 707.235 385.378C705.315 392.576 704.469 399.873 704.811 407.361C705.076 413.15 706.538 418.954 704.976 424.77C704.82 425.351 705.055 426.209 704.718 426.542C702.064 429.162 703.74 431.918 704.374 434.616C705.259 438.379 705.097 442.029 703.94 445.747C702.571 450.146 700.071 454.134 699.354 458.764C698.927 461.522 699.152 464.332 698.394 467.073C697.312 470.985 695.491 474.529 693.387 477.942C692.829 478.846 692.013 479.869 691.084 480.215C688.437 481.201 688.328 483.187 687.932 485.586C685.599 499.727 683.216 513.859 679.362 527.705C676.031 539.671 671.914 551.38 666.469 562.487C659.911 575.862 651.426 588.061 640.444 598.292C638.555 600.053 638.156 601.734 638.552 604.045C639.62 610.28 640.2 616.571 640.771 622.871C641.141 626.963 641.897 631.106 643.148 635.012C645.662 642.864 648.384 650.662 652.636 657.827C655.272 662.271 658.458 666.225 662.318 669.615C667.895 674.514 673.768 679.038 680.042 683.021C681.684 684.063 683.387 685.012 684.99 686.109C695.916 693.587 708.018 698.566 720.552 702.49C736.1 707.359 752.134 710.033 768.225 712.377C777.455 713.722 786.665 712.971 795.871 712.239C806.671 711.38 817.465 710.909 828.302 711.506C832.751 711.751 837.226 711.546 841.726 711.546C841.686 710.797 840.913 710.893 840.505 711.075C834.572 713.737 828.171 713.783 821.926 713.901C811.207 714.103 800.579 715.272 789.92 716.106C781.015 716.803 772.174 716.369 763.361 715.204C753.253 713.869 743.214 712.084 733.305 709.672C720.088 706.453 707.156 702.369 694.863 696.448C694.098 696.079 693.332 695.692 692.626 695.224C683.618 689.254 674.056 684.173 665.364 677.677C654.761 669.754 647.726 659.431 643.287 647.124C641.02 640.837 638.663 634.611 638.02 627.857C637.789 625.43 637.594 623.019 637.61 620.592C637.649 614.782 637.083 609.039 636.099 603.193C634.762 603.593 633.95 604.349 633.262 605.122C627.45 611.652 620.209 616.385 613.014 621.137C603.578 627.369 593.648 632.717 583.16 637.003C580.02 638.287 576.946 639.738 573.873 641.179C571.78 642.159 569.639 642.983 567.415 643.603C558.064 646.213 548.657 648.524 538.879 648.762C535.712 648.839 532.599 648.311 529.464 647.911C518.153 646.465 508.004 642.161 498.455 636.073C492.812 632.476 487.144 628.959 482.076 624.552C481.104 623.707 480.149 622.672 478.693 622.595L478.581 622.69C477.219 620.678 476.597 620.414 475.228 621.266C476.427 618.994 474.159 618.865 473.157 618.047C471.639 616.808 471.364 618.801 470.476 619.232L470.438 619.206C470.204 618.681 469.848 618.32 469.231 618.311Z" fill="#937B34"/>
<path d="M480.852 402.166C491.33 404.903 499.666 410.751 505.952 419.559C502.248 417.118 499.688 413.206 495.356 410.835C494.933 412.782 495.294 414.525 494.157 415.888C493.659 416.485 494.452 416.894 494.846 417.321C496.029 418.603 497.338 417.62 498.998 417.543C498.189 418.877 498.004 419.94 499.276 421.144C501.018 422.792 502.357 424.865 503.868 426.756C503.665 426.892 503.476 427.045 503.301 427.214C503.062 427.186 502.824 427.181 502.584 427.199C502.066 426.857 501.573 425.858 500.98 427.105C500.485 428.143 500.565 429.556 498.61 430.094C498.797 427.388 499.616 424.441 497.857 422.411C496.264 420.573 494.21 418.906 491.461 417.964C491.052 421.556 491.911 425.445 488.199 427.84C487.705 425.993 488.734 424.595 488.963 423.063C489.664 418.378 488.731 415.313 484.015 413.525C477.312 410.983 470.445 409.891 463.318 410.444C460.705 410.647 460.697 410.727 460.569 413.223C460.482 414.922 460.442 416.623 460.331 418.32C460.183 420.601 460.918 422.627 462.051 424.54C462.961 426.076 464.17 426.997 466.103 427.186C473.224 427.881 480.301 429.127 487.503 428.6C488.465 428.53 489.371 428.669 490.039 429.93C486.505 430.878 483.114 431.165 479.614 430.623C478.445 430.442 476.967 429.487 476.159 431.273C476.034 431.55 476.114 431.712 475.78 431.467C472.284 428.893 467.985 429.747 464.108 428.779C459.869 427.721 455.617 426.765 451.54 425.156C450.31 424.67 449.162 424.141 448.231 422.527C452.62 422.895 456.021 425.394 460.42 425.71C457.841 420.856 458.231 416.19 460.165 411.274C456.117 410.617 452.24 411.687 447.969 411.316C449.097 409.505 451.412 410.888 452.11 408.708C452.441 407.675 454.711 410.072 456.298 408.534C453.947 406.626 451.591 404.629 450.231 401.287C456.533 400.044 462.605 398.44 468.987 399.497C466.98 400.876 464.431 399.37 462.422 400.734C459.203 401.058 455.91 400.936 452.434 402.315C454.554 404.924 456.876 406.682 459.919 407.432C460.25 407.513 460.914 407.498 460.93 407.423C461.349 405.457 462.51 406.557 463.376 406.859C464.282 407.176 465.428 408.002 466.046 407.217C466.806 406.252 467.036 405.918 467.873 407.036C468.427 407.776 469.359 407.725 470.228 407.61C471.327 407.465 471.186 406.313 471.874 405.057C472.023 407.42 472.882 408.325 474.678 408.301C477.176 408.268 476.132 405.511 477.559 404.683C478.349 406.018 477.402 407.246 477.278 408.504C479.396 409.807 481.517 410.134 483.962 408.211C483.838 409.467 482.936 410.277 483.699 410.742C484.929 411.491 486.26 412.289 487.639 412.516C488.857 412.717 490.137 411.894 490.286 414.129C490.339 414.923 491.919 415.004 492.781 414.266C493.51 413.641 494.09 412.846 494.799 412.194C495.641 411.42 495.521 410.712 494.687 410.124C493.202 409.077 491.717 408.01 490.135 407.125C486.948 405.344 483.445 404.281 480.085 402.894C480.34 402.652 480.596 402.409 480.852 402.166Z" fill="#937B34"/>
<path d="M609.178 407.086C608.942 406.359 608.687 405.797 608.592 405.209C608.511 404.709 608.292 404.097 608.914 403.716C609.037 403.813 609.148 403.873 609.223 403.964C609.981 404.887 609.607 406.703 610.952 406.957C612.08 407.17 613.702 407.158 613.773 405.136C613.786 404.791 614.289 404.897 614.496 405.276C615.66 407.393 616.869 406.857 618.091 405.33C618.337 405.023 618.62 404.911 619.037 405.007C621.597 405.601 621.589 405.547 622.503 405.344C622.867 405.263 623.577 404.702 623.639 405.426C623.784 407.13 624.731 406.262 625.383 406.048C627.817 405.251 629.664 403.644 631.24 401.917C630.972 401.102 630.475 401.057 629.999 400.98C626.039 400.339 622.053 399.956 618.041 400.064C609.579 400.29 602 403.335 594.866 407.612C592.472 409.047 592.533 409.609 594.497 411.748C596.002 413.389 596.681 413.309 597.575 411.172C597.815 410.598 597.894 410.366 598.425 410.697C598.99 411.05 599.634 411.199 600.131 410.819C601.38 409.865 603.567 410.063 603.818 407.871C605.615 408.293 607.37 408.382 609.178 407.086ZM598.887 424.344C595.956 422.265 596.567 419.079 596.42 416.133C590.942 417.626 589.553 419.803 589.696 426.569C587.803 426.495 588.265 424.601 587.258 423.43C586.073 424.515 584.885 425.602 583.484 426.885C583.135 425.632 583.83 425.065 584.302 424.482C585.984 422.41 587.535 420.186 589.476 418.386C590.781 417.176 589.845 416.422 589.376 415.229C590.196 415.413 590.769 415.625 591.352 415.657C593.354 415.769 594.119 414.897 593.35 413.058C592.825 411.802 593.535 410.688 593.227 409.077C589.112 411.14 586.658 414.857 583.324 417.609C588.816 405.36 615.013 394.06 633.646 400.946C632.542 403.097 630.888 404.71 629.014 406.092C628.606 406.393 628.156 406.511 628.308 407.096C628.448 407.638 628.944 407.915 629.408 407.803C630.319 407.584 631.192 407.204 632.08 406.891C632.027 407.88 632.43 408.531 633.46 408.653C634.136 408.733 634.819 408.748 635.517 408.794C635.488 410.137 634.669 410.012 633.763 409.95C630.877 409.755 627.986 409.628 624.81 409.459C626.033 413.76 626.9 417.766 624.978 421.745C624.741 421.968 624.466 422.227 624.715 422.55C624.947 422.852 625.3 422.725 625.607 422.595C628.832 422.133 631.7 420.411 635.106 419.636C634.841 421.56 633.522 421.823 632.394 422.269C626.607 424.556 620.585 425.844 614.413 426.517C613.051 426.665 611.375 426.12 610.602 427.914C610.459 428.246 610.417 428.305 610.26 428.176C607.199 425.662 603.627 428.335 600.404 427.222C599.553 426.927 598.493 427.268 597.646 426.362C598.323 425.31 599.344 425.502 600.208 425.542C606.669 425.839 613.021 424.711 619.409 424.087C622.004 423.834 624.148 421.141 624.398 417.72C624.574 415.314 624.265 412.872 624.155 410.446C624.105 409.365 623.389 409.071 622.435 409.001C615.051 408.459 607.904 409.319 601.215 412.696C599.062 413.784 597.973 416.589 598.437 419.619C598.657 421.054 599.076 422.457 599.405 423.875C599.221 424.018 599.048 424.175 598.887 424.344Z" fill="#937B34"/>
<path d="M290.895 950.592C285.056 933.329 280.312 915.777 277.037 897.842C276.79 896.492 276.276 895.324 275.697 894.114C272.609 887.666 268.165 882.024 264.841 875.72C263.768 873.685 262.738 871.627 261.689 869.579L261.79 868.372C266.439 874.884 270.312 881.929 275.512 888.493C275.512 885.702 275.641 883.233 275.488 880.782C275.033 873.506 274.309 866.259 272.693 859.125C272.073 856.391 271.183 853.761 270.172 851.156C269.511 849.449 269.261 847.757 271.54 845.833C271.018 848.507 271.874 850.187 272.706 851.897C275.404 857.442 276.251 863.463 277.114 869.471C278.134 876.574 278.099 883.772 278.916 890.89C280.458 904.309 283.767 917.378 287.015 930.453C288.682 937.165 290.4 943.863 292.094 950.567C291.695 950.575 291.295 950.584 290.895 950.592Z" fill="#937B34"/>
<path d="M534.127 852.838C529.68 862.415 525.138 871.945 519.315 880.79C517.105 884.149 515.38 887.765 513.608 891.348C511.342 895.929 508.646 900.242 506.021 904.613C497.906 918.134 489.294 931.362 481.91 945.317C480.777 947.46 479.653 949.629 477.839 951.319C477.509 951.296 477.179 951.274 476.848 951.252C476.409 950.094 477.364 949.501 477.906 948.785C480.08 945.911 481.632 942.675 483.365 939.545C483.713 938.916 483.935 938.226 483.697 937.482L483.657 937.499C484.282 937.359 484.728 937.011 485.049 936.442C489.344 928.843 493.652 921.252 497.942 913.651C498.115 913.345 498.147 912.961 498.245 912.613C498.393 912.445 498.429 912.256 498.351 912.045C500.489 909.263 502.175 906.209 503.751 903.089C504.091 903.05 504.168 902.819 504.16 902.527C506.418 899.811 508.133 896.74 509.764 893.638C513.375 886.774 517.263 880.078 521.258 873.429C524.56 867.936 527.373 862.15 530.437 856.512C531.535 854.493 532.733 852.528 533.886 850.539C533.966 851.305 534.047 852.072 534.127 852.838Z" fill="#937B34"/>
<path d="M711.284 741.592C700.229 744.805 688.978 747.146 677.611 748.891C671.748 749.791 665.845 750.558 659.884 750.541C653.566 750.522 647.298 751.203 641.014 751.751C637.038 752.097 632.984 752.178 629.013 751.827C621.732 751.184 616.767 745.232 616.74 737.54C618.452 738.071 618.087 739.724 618.496 740.828C619.939 744.724 621.923 748.069 626.075 749.574C626.403 749.692 626.789 749.649 627.149 749.681C627.602 749.841 628.111 749.944 628.394 749.49C628.578 749.196 628.305 748.869 627.99 748.685C626.888 747.013 625.786 745.34 624.685 743.667C624.758 743.618 624.831 743.569 624.905 743.52C626.207 745.14 627.473 746.79 628.823 748.369C629.821 749.536 631.153 750.082 632.704 750.063C636.717 750.013 640.727 749.948 644.725 749.521C648.465 749.122 652.208 748.512 655.956 748.469C669.736 748.309 683.256 746.161 696.732 743.551C701.368 742.654 706.025 741.864 710.672 741.024C710.876 741.214 711.08 741.403 711.284 741.592Z" fill="#937B34"/>
<path d="M526.911 749.698C520.735 741.433 515.066 732.873 511.354 723.16C510.84 721.816 510.505 720.379 509.587 719.211C509.587 719.21 509.564 719.18 509.564 719.18C508.855 712.915 508.14 706.65 507.439 700.385C507.196 698.212 506.889 696.041 506.773 693.86C506.188 682.826 503.253 672.346 499.353 662.092C498.15 658.929 495.675 656.706 493.439 654.309C492.515 653.319 491.163 652.551 491.233 650.298C494.997 653.717 498.584 656.697 500.338 660.989C504.159 670.34 507.02 679.986 507.844 690.132C508.582 699.224 509.631 708.299 511.496 717.212C512.916 724.002 516.061 730.243 519.621 736.212C521.488 739.342 523.441 742.419 525.304 745.551C526.098 746.887 527.098 748.146 527.253 749.784L527.107 749.642L526.911 749.698Z" fill="#937B34"/>
<path d="M496.912 558.712C499.641 557.702 502.381 556.695 505.256 556.216C513.573 554.831 521.007 550.696 529.101 548.63C531.329 548.061 533.532 547.395 535.763 546.84C537.634 546.375 539.318 546.515 541.329 547.098C545.235 548.232 549.468 548.088 553.514 548.912C554.251 549.062 555.181 548.611 555.939 548.26C560.691 546.059 565.54 546.63 570.136 548.339C575.266 550.247 580.546 551.49 585.781 552.96C588.395 553.694 591.057 554.41 592.672 555.747C585.379 554.639 577.638 552.423 569.968 549.856C565.465 548.349 560.821 547.369 556.142 549.536C555.413 549.873 554.458 549.905 553.634 549.82C548.838 549.325 543.923 549.661 539.318 547.76C538.153 547.28 536.93 547.661 535.764 548.04C531.966 549.273 528.05 550.227 524.39 551.783C516.981 554.935 509.171 556.62 501.442 558.631C500.623 558.844 499.805 559.066 498.987 559.284C498.314 559.026 497.44 559.496 496.912 558.712Z" fill="#937B34"/>
<path d="M523.043 577.164C523.864 577.048 523.679 576.369 523.791 575.846C524.047 574.651 523.966 573.29 525.337 572.63L525.388 572.573C525.029 575.541 524.491 578.485 525.161 581.505C525.42 582.671 525.819 583.524 526.937 583.945C529.507 584.912 532.041 586.008 534.671 586.771C536.733 587.37 535.873 585.718 535.871 584.802C536.203 584.827 536.534 584.851 536.866 584.876C536.868 586.21 537.173 586.989 538.865 587.033C543.208 587.145 547.489 586.728 551.78 586.181C552.938 586.033 553.465 585.511 553.74 584.464C554.014 583.421 554.388 582.405 554.719 581.378C554.875 582.036 555.03 582.695 555.186 583.354C555.066 584.378 554.039 585.934 556.435 585.483C556.554 585.461 556.676 585.451 556.796 585.433C562.991 584.48 562.991 584.48 565.39 577.366C565.334 578.907 565.506 580.46 564.838 582.213C567.332 582.47 568.968 580.186 571.173 580.803L571.113 580.878C565.168 585.338 558.243 587.052 551.042 587.583C545.623 587.981 540.211 588.781 534.713 588.098C532.214 587.787 530.073 586.757 527.884 585.842C519.609 582.383 511.313 578.942 503.865 573.802C501.561 572.212 498.869 571.35 496.283 570.314C495.635 570.054 494.559 570.031 494.805 569.141C495.121 567.998 496.249 568.463 496.965 568.75C499.889 569.92 502.797 571.141 505.394 572.974C510.17 576.345 515.318 579.045 520.664 581.38C521.614 581.795 522.61 582.104 524.079 582.643C523.355 580.567 524.364 578.728 523.023 577.185L523.043 577.164Z" fill="#937B34"/>
<path d="M534.768 760.156C537.51 762.1 539.126 764.97 540.627 767.808C546.45 778.812 549.716 790.434 549.227 803.048C548.766 814.97 545.983 826.295 541.44 837.252C541.257 837.693 541.027 838.117 540.791 838.533C540.751 838.604 540.573 838.598 540.324 838.661C540.361 835.547 541.606 832.774 542.581 829.974C545.522 821.527 546.588 812.766 547.385 803.925C548.564 790.832 544.232 779.084 538.767 767.602C537.625 765.204 536.165 762.957 534.851 760.641C534.986 760.452 534.958 760.29 534.768 760.156Z" fill="#937B34"/>
<path d="M515.851 565.047C516.116 564.804 516.49 564.299 516.631 564.357C521.074 566.192 525.783 565.512 530.379 565.857C530.532 566.031 530.68 566.351 530.838 566.357C535.241 566.507 539.641 566.884 544.05 566.54C544.562 566.5 544.928 566.234 545.106 565.738C551.785 565.738 558.466 565.621 565.14 565.781C569.209 565.879 573.089 564.896 576.966 564.056C578.568 563.709 580.216 563.237 581.832 563.039C584.853 562.667 587.8 562.153 590.642 561.033C591.343 560.757 592.148 560.746 593.596 560.491C590.415 562.258 587.691 563.168 584.856 563.854C576.687 565.833 568.415 566.771 560.006 566.793C553.935 566.809 547.861 567.361 541.796 567.259C529.067 567.046 516.322 567.114 503.622 566.002C502.798 565.93 501.908 566.06 501.154 565.523C503.19 564.402 511.008 564.124 515.137 565.018C511.694 565.099 508.252 565.18 504.809 565.261C508.053 566.1 511.312 565.881 514.558 565.961C515.192 565.977 515.751 565.819 515.851 565.047Z" fill="#937B34"/>
<path d="M470.476 619.232C471.364 618.802 471.639 616.808 473.158 618.048C474.16 618.865 476.427 618.994 475.229 621.266C475.967 621.878 476.677 622.53 477.453 623.088C477.916 623.42 478.335 623.195 478.582 622.691C478.582 622.691 478.694 622.596 478.693 622.596C477.52 623.737 478.792 624.21 479.366 624.725C481.575 626.71 483.852 628.619 486.104 630.556C485.904 630.773 485.703 630.989 485.503 631.206C485.057 631.014 484.611 630.822 483.757 630.453C484.33 632.229 485.78 632.604 486.766 633.385C487.9 634.281 489.131 635.055 490.311 635.876C490.848 635.321 489.897 635.046 490.197 634.597C490.619 633.966 491.061 634.41 491.401 634.651C494.176 636.619 496.91 638.643 499.698 640.59C501.174 641.621 502.733 642.531 504.043 643.971C501.507 643.075 498.731 642.577 496.477 641.214C487.639 635.867 479.226 629.865 470.846 623.829C469.684 622.992 468.503 622.108 468.117 620.376C470.522 622.024 472.926 623.671 475.332 625.318C476.341 625.854 477.069 627.238 478.715 626.524C478.06 625.366 477.282 624.708 476.19 624.429C474.736 622.2 472.008 621.374 470.476 619.232Z" fill="#937B34"/>
<path d="M401.699 911.717C401.82 912.213 402.066 912.579 402.633 912.607C395.766 924.301 388.566 935.789 380.83 946.928C377.245 952.091 373.839 957.394 369.746 962.192C369.747 962.192 369.793 962.237 369.793 962.237C371.3 958.781 373.498 955.729 375.568 952.621C384.149 939.74 392.644 926.809 400.395 913.404C400.748 912.794 401.261 912.277 401.699 911.717Z" fill="#937B34"/>
<path d="M564.554 516.77C566.419 517.039 567.944 516.6 569.403 516.017C570.123 515.729 571.17 515.413 570.998 514.33C570.824 513.23 569.88 512.863 568.872 512.691C567.023 512.374 565.625 513.493 564.142 514.244C563.261 514.691 561.632 514.877 561.981 516.212C562.338 517.58 563.853 516.539 564.554 516.77ZM543.658 525.618C543.804 524.536 544.435 524.34 545.002 524.381C548.806 524.652 551.54 522.592 553.804 520.009C557.193 516.143 561.554 513.861 566.019 511.633C567.438 510.925 568.851 510.905 570.263 511.28C571.637 511.645 572.569 512.597 572.749 514.101C572.915 515.489 572.21 516.396 571.088 517.083C569.024 518.347 566.788 518.701 564.436 518.292C563.858 518.191 562.953 517.939 562.833 517.556C561.757 514.135 560.101 516.305 558.94 517.252C556.116 519.555 553.393 521.978 550.377 524.041C548.333 525.439 546.162 526.091 543.658 525.618Z" fill="#937B34"/>
<path d="M396.256 351.149C403.725 344.282 411.164 337.387 418.114 329.982C422.251 325.575 426.201 321.021 429.658 316.054C429.657 316.055 429.652 315.871 429.652 315.871C429.912 315.494 430.171 315.117 430.431 314.739L430.428 314.815C431.519 315.347 430.855 315.995 430.487 316.534C428.984 318.735 427.6 321.043 425.884 323.068C417.242 333.266 407.876 342.751 397.536 351.248C397.11 351.215 396.683 351.182 396.256 351.149Z" fill="#937B34"/>
<path d="M571.112 656.752C564.042 660.242 556.726 663.105 549.181 665.396C544.739 666.745 540.237 667.514 535.57 667.376C531.877 667.266 528.177 667.354 524.48 667.354C524.479 667.115 524.478 666.876 524.477 666.637C526.801 666.637 529.131 666.534 531.449 666.655C539.471 667.074 547.106 665.396 554.545 662.568C559.403 660.72 564.266 658.884 569.112 657.002C569.792 656.738 570.383 656.255 571.137 656.733C571.137 656.734 571.112 656.752 571.112 656.752Z" fill="#937B34"/>
<path d="M499.746 208.92C508.45 207.341 517.188 206.195 526.071 206.583C527.902 206.663 529.675 206.952 531.432 207.405C532.572 207.699 533.667 208.108 534.59 209.631C523.617 206.871 513.111 208.057 502.607 209.584C501.704 209.144 500.481 210.086 499.746 208.92Z" fill="#937B34"/>
<path d="M474.469 377.357C466.311 370.421 457.018 365.367 447.283 361.167C449.05 361.818 451.026 361.651 452.793 362.385C456.154 363.781 459.431 365.34 462.55 367.21C467.444 370.145 472.11 373.396 476.19 377.424C475.616 377.401 475.043 377.379 474.469 377.357Z" fill="#937B34"/>
<path d="M395.922 362.132C395.941 362.012 395.916 361.849 395.985 361.779C403.138 354.537 409.72 346.798 415.989 338.786C416.039 338.722 416.207 338.748 416.594 338.694C416.845 340.163 415.798 341.055 415.121 342.022C409.96 349.403 403.879 355.969 397.249 362.041C396.807 362.071 396.364 362.102 395.922 362.132Z" fill="#937B34"/>
<path d="M466.324 376.523C457.652 371.406 448.555 367.349 438.32 364.862C445.728 363.671 461.98 370.477 466.324 376.523Z" fill="#937B34"/>
<path d="M478.299 367.423C484.975 370.741 498.635 381.307 499.953 384.172C497.372 383.337 481.143 370.784 478.299 367.423Z" fill="#937B34"/>
<path d="M536.027 520.394C530.779 517.636 526.162 513.177 519.037 515.593C520.954 517.975 523.452 517.258 525.672 518.133C523.302 518.839 521.205 518.859 519.194 517.809C517.414 516.88 517.294 515.739 518.753 514.444C520.094 513.255 521.791 512.596 523.446 512.924C528.485 513.924 533.163 515.714 536.027 520.394Z" fill="#937B34"/>
<path d="M485.398 379.555C477.674 373.653 469.934 367.775 462.672 362.762C464.918 362.724 467.321 364.567 469.761 366.273C475.521 370.299 481.308 374.294 486.563 378.988C486.424 379.689 485.838 379.471 485.398 379.555Z" fill="#937B34"/>
<path d="M558.951 411.777C556.147 422.973 554.174 434.29 552.43 445.653C552.423 445.702 552.621 445.783 553.112 446.102C553.595 441.955 552.568 437.978 553.237 434.074C553.891 430.249 554.394 426.392 555.204 422.601C556.003 418.86 556.292 414.889 558.951 411.777Z" fill="#937B34"/>
<path d="M487.383 368.49C495.622 371.664 507.271 381.526 508.644 386.491L487.383 368.49Z" fill="#937B34"/>
<path d="M633.249 365.724C623.86 369.539 615.893 375.583 607.908 381.61C615.074 374.125 623.192 368.077 633.309 365.049C633.236 365.269 633.216 365.494 633.249 365.724Z" fill="#937B34"/>
<path d="M533.227 558.47C535.361 557.847 537.501 557.739 539.675 558.294C540.368 558.47 541.108 558.601 541.814 558.558C550.675 558.018 559.465 559.687 568.317 559.375C568.764 559.359 569.215 559.482 570.43 559.638C568.064 560.53 566.401 560.659 564.591 560.494C556.619 559.766 548.612 559.733 540.616 559.634C539.246 559.617 538.078 558.956 536.758 559.063C535.581 558.865 534.404 558.668 533.227 558.47Z" fill="#937B34"/>
<path d="M523.38 560.211C515.158 561.989 506.974 563.223 497.932 563.589C500.216 561.332 502.512 562.28 504.454 561.887C506.582 561.456 508.799 561.492 510.963 561.215C513.004 560.954 515.016 560.416 517.061 560.249C519.155 560.078 521.273 560.211 523.38 560.211Z" fill="#937B34"/>
<path d="M472.504 423.871C473.589 423.132 474.61 423.395 475.535 423.175C478.171 422.548 478.941 421.749 478.79 419.668C478.622 417.332 477.278 415.79 475.008 415.535C473.831 415.402 472.626 415.512 471.32 415.512C473.017 413.145 475.988 412.827 478.512 414.593C480.951 416.301 482.051 420.385 480.685 422.66C479.186 425.155 475.957 425.705 472.504 423.871Z" fill="#937B34"/>
<path d="M619.398 367.958C612.324 372.899 605.495 378.172 598.5 383.236C604.313 376.753 611.489 371.989 618.68 367.245C619.003 367.399 619.351 367.527 619.398 367.958Z" fill="#937B34"/>
<path d="M476.02 629.7C479.603 632.313 483.195 634.914 486.762 637.548C487.697 638.237 488.663 638.829 488.159 640.421C487.788 641.591 489.437 641.985 490.036 643.465C487.156 641.919 484.939 640.15 482.795 638.347C481.448 637.214 481.816 634.906 479.831 633.897C478.18 633.058 476.671 631.766 476.02 629.7Z" fill="#937B34"/>
<path d="M606.955 371.546C601.226 376.569 594.939 380.865 588.832 385.782C588.187 384.31 589.127 383.775 589.78 383.244C595.331 378.731 601.023 374.406 607.066 370.567C607.029 370.896 606.992 371.221 606.955 371.546Z" fill="#937B34"/>
<path d="M523.136 802.325C515.834 801.028 511.767 801.252 502.692 803.458C502.11 802.272 503.232 802.348 503.759 802.12C508.824 799.927 514.117 799.713 519.488 800.474C521.889 800.814 524.267 801.312 526.654 801.738C525.658 802.989 524.262 801.851 523.136 802.325Z" fill="#937B34"/>
<path d="M499.745 208.92C500.48 210.086 501.703 209.144 502.606 209.584C495.782 211.157 488.819 212.062 482.055 213.93C478.452 214.925 474.878 215.996 471.381 217.31C480.465 213.266 489.872 210.309 499.745 208.92Z" fill="#937B34"/>
<path d="M577.697 576.068C582.353 571.181 587.38 566.701 592.646 562.486C593.175 562.062 593.773 562.177 594.709 562.702C589.274 567.275 584.256 572.093 578.46 575.995C578.205 576.019 577.951 576.044 577.697 576.068Z" fill="#937B34"/>
<path d="M513.607 384.663C510.638 382 507.667 379.338 504.699 376.672C501.822 374.087 498.714 371.751 496.238 368.805C500.869 370.673 510.931 379.582 513.607 384.663Z" fill="#937B34"/>
<path d="M613.943 420.774C610.451 422.702 607.823 422.394 606.277 420.309C604.932 418.494 605.398 415.323 607.3 413.348C609.27 411.302 612.129 411.214 614.753 413.241C613.868 414.05 612.947 413.295 612.125 413.364C610.456 413.504 609.073 413.991 608.263 415.579C607.012 418.033 607.844 419.878 610.528 420.433C611.456 420.624 612.422 420.629 613.943 420.774Z" fill="#937B34"/>
<path d="M424.413 267.322C422.905 266.743 423.524 265.3 423.168 264.254C424.943 264.627 426.715 264.58 428.532 264.506C433.566 264.301 438.029 262.217 442.634 260.571C442.7 261.158 443.023 261.497 443.61 261.578C440.665 262.67 437.744 263.832 434.768 264.834C432.125 265.725 429.388 266.171 426.574 266.086C425.655 266.059 424.531 265.863 424.413 267.322Z" fill="#937B34"/>
<path d="M459.286 303.529C459.359 303.45 459.437 303.367 459.515 303.285C459.43 303.209 459.345 303.134 459.26 303.058C459.18 303.176 459.1 303.294 459.019 303.412C459.103 303.449 459.187 303.486 459.286 303.529ZM460.93 304.029C460.845 303.935 460.766 303.847 460.686 303.759C460.6 303.841 460.515 303.923 460.429 304.005C460.557 304.088 460.685 304.17 460.813 304.252C460.856 304.17 460.899 304.088 460.93 304.029ZM463.961 305.266C461.805 306.028 459.587 306.16 457.332 305.912C457.773 305.731 458.399 305.675 458.619 305.347C459.183 304.51 458.236 304.381 457.808 304.171C456.139 303.351 454.153 303.089 452.543 301.097C454.524 301.029 455.522 302.204 456.776 302.615C457.351 302.803 458.313 303.163 458.396 302.698C459.009 299.267 460.622 302.024 461.544 302.263C463.846 302.86 465.764 304.655 468.332 304.537C467.168 305.194 465.889 305.198 464.608 305.186C464.372 304.531 463.759 304.366 463.204 304.176C462.784 304.033 462.1 303.752 462.004 304.408C461.872 305.313 462.752 305.015 463.248 305.138C463.482 305.196 463.723 305.224 463.961 305.266Z" fill="#937B34"/>
<path d="M513.347 265.572C513.821 271.311 514.264 276.655 515.946 281.994C513.139 280.369 511.788 271.634 513.347 265.572Z" fill="#937B34"/>
<path d="M597.506 373.078C594.543 375.372 591.548 377.627 588.625 379.972C585.901 382.158 583.441 384.633 581.016 387.566C582.14 383.288 589.802 376.366 597.54 372.382C597.475 372.611 597.464 372.843 597.506 373.078Z" fill="#937B34"/>
<path d="M443.609 261.578C443.022 261.497 442.699 261.158 442.633 260.571C442.925 259.545 443.468 258.518 443.463 257.493C443.446 254.001 444.053 250.182 439.836 248.325C439.904 247.213 440.787 247.571 441.407 247.454C444.812 249.482 446.278 253.272 445.267 257.633C445.025 258.676 444.559 259.668 444.196 260.683C443.856 260.863 443.607 261.101 443.645 261.527L443.609 261.578Z" fill="#937B34"/>
<path d="M483.697 937.483C481.482 934.111 480.365 930.233 478.693 926.611C477.677 924.407 476.681 922.192 475.721 919.962C475.464 919.363 474.869 918.694 475.731 918.008C476.724 918.189 476.91 919.103 477.262 919.816C479.684 924.719 481.647 929.81 483.41 934.982C483.694 935.815 483.705 936.648 483.657 937.5L483.697 937.483Z" fill="#937B34"/>
<path d="M486.328 924.285C483.648 918.474 480.969 912.663 477.998 906.22C481.046 908.109 484.911 916.753 486.328 924.285Z" fill="#937B34"/>
<path d="M476.848 951.252C477.178 951.274 477.509 951.296 477.839 951.318C477.58 952.062 476.689 951.592 476.35 952.065C476.036 952.505 476.019 953.748 475.434 952.182C474.805 950.494 474.502 948.386 473.304 947.269C470.475 944.631 471.884 940.653 469.802 937.888C469.568 937.577 469.665 936.913 470.28 936.773C470.844 936.644 471.184 937.022 471.364 937.494C472.776 941.203 474.022 944.961 475 948.816C475.236 949.745 474.863 951.505 476.848 951.252Z" fill="#937B34"/>
<path d="M640.495 368.59C634.292 370.227 628.547 372.962 622.902 375.934C622.31 375.947 621.717 375.96 621.125 375.974C626.639 371.619 633.142 369.567 639.831 367.95C640.052 368.164 640.274 368.377 640.495 368.59Z" fill="#937B34"/>
<path d="M429.653 315.87C429.653 315.87 429.657 316.054 429.658 316.054C428.145 315.37 427.495 316.654 426.66 317.419C424.89 319.041 423.171 320.718 421.427 322.376C420.416 321.414 421.395 320.994 421.762 320.58C424.557 317.424 427.423 314.33 430.217 311.173C430.789 310.527 431.906 310.015 431.246 308.796C432.701 308.835 434.216 308.495 435.519 309.48C434.124 309.411 432.667 309.08 432.258 311.13C431.987 312.486 429.589 312.852 430.428 314.815L430.432 314.739C429.522 314.669 429.265 315.047 429.653 315.87Z" fill="#937B34"/>
<path d="M484.131 899.147C487.337 905.336 490.008 910.868 492.113 917.358C488.845 913.14 484.122 902.678 484.131 899.147Z" fill="#937B34"/>
<path d="M474.761 675.41C473.685 674.34 473.585 672.789 472.857 671.548C478.371 674.798 483.648 678.401 489.073 682.168C487.318 682.608 486.33 681.553 485.257 680.912C482.768 679.426 480.378 677.775 477.893 676.282C477.18 675.854 476.3 674.898 475.452 676.2C475.452 676.199 475.545 676.114 475.546 676.115C476.062 675.875 476.227 675.516 475.788 675.089C475.298 674.612 474.999 674.965 474.761 675.41Z" fill="#937B34"/>
<path d="M577.223 559.482C581.764 557.682 589.343 556.74 593.971 557.465C588.65 558.791 583.253 559.593 577.223 559.482Z" fill="#937B34"/>
<path d="M576.227 385.426C580.311 379.432 585.93 375.117 591.836 371.11C587.194 376.48 581.311 380.535 576.227 385.426Z" fill="#937B34"/>
<path d="M612.568 279.434C609.748 276.689 609.321 273.073 610.195 264.799C610.868 268.949 611.662 273.846 612.568 279.434Z" fill="#937B34"/>
<path d="M472.859 667.472C472.681 666.77 473.033 666.168 473.219 665.534C478.462 669.131 483.704 672.728 489.108 676.436C487.767 677.177 487.218 676.221 486.59 675.846C482.644 673.498 478.777 671.023 475.1 668.264C474.436 667.766 473.843 667.065 472.859 667.472Z" fill="#937B34"/>
<path d="M515.742 222.078C516.794 222.668 517.054 223.736 517.361 224.772C518.505 228.636 518.976 232.578 518.544 236.591C518.438 237.577 518.45 238.733 517 239.696C516.544 236.439 517.486 233.521 517.032 230.642C516.582 227.78 516.187 224.909 515.767 222.042L515.742 222.078Z" fill="#937B34"/>
<path d="M512.049 370.966C516.317 374.689 518.793 379.512 520.851 384.599C517.107 380.566 514.567 375.764 512.049 370.966Z" fill="#937B34"/>
<path d="M721.906 267.179C726.659 270.492 731.412 273.804 736.203 277.144C732.494 276.404 724.433 271.021 721.906 267.179Z" fill="#937B34"/>
<path d="M699.26 350.819C702.783 347.572 706.307 344.324 709.375 341.497C707.303 345.396 703.795 348.696 699.749 351.439C699.586 351.233 699.423 351.026 699.26 350.819Z" fill="#937B34"/>
<path d="M510.725 519.818C508.15 514.605 509.041 508.701 513.338 506.004C511.184 510.763 509.583 515.154 511.887 519.797C511.499 519.804 511.112 519.811 510.725 519.818Z" fill="#937B34"/>
<path d="M638.504 742.676C634.259 738.906 630.978 734.354 628.371 729.252C632.016 733.545 635.661 737.838 639.306 742.13C639.038 742.312 638.771 742.494 638.504 742.676Z" fill="#937B34"/>
<path d="M609.265 242.301C607.124 238.909 606.809 235.139 606.991 231.268C607.007 230.911 607.023 230.536 607.14 230.204C607.4 229.465 607.867 228.936 608.748 229.164C609.517 229.362 609.524 229.964 609.386 230.59C608.572 234.282 609.293 238.036 608.948 241.748C608.93 241.939 609.177 242.153 609.301 242.357L609.265 242.301Z" fill="#937B34"/>
<path d="M451.755 374.008C447.48 372.791 443.205 371.574 438.584 370.258C443.671 369.779 447.904 371.154 451.96 373.213C451.891 373.478 451.823 373.743 451.755 374.008Z" fill="#937B34"/>
<path d="M472.757 924.07C475.336 929.177 477.143 934.571 478.068 940.297C475.983 935.054 473.898 929.811 471.812 924.569C472.127 924.402 472.442 924.236 472.757 924.07Z" fill="#937B34"/>
<path d="M616.483 297.054V309.009C614.684 304.248 615.443 299.643 616.483 297.054Z" fill="#937B34"/>
<path d="M441.408 247.454C440.788 247.571 439.904 247.213 439.836 248.326C436.095 248.177 432.654 249.195 429.415 251.002C428.567 251.475 427.736 251.997 426.703 251.929C429.162 249.274 432.317 247.677 435.506 246.133C436.147 247.271 437.206 246.549 438.066 246.691C439.198 246.878 440.478 246.378 441.408 247.454Z" fill="#937B34"/>
<path d="M480.85 402.166C480.594 402.409 480.338 402.652 480.083 402.895C474.28 401.476 468.439 400.378 462.42 400.734C464.429 399.37 466.978 400.876 468.985 399.497C473.063 399.839 477.125 400.252 480.85 402.166Z" fill="#937B34"/>
<path d="M542.788 811.868C539.627 809.62 535.902 809.079 532.232 808.349C531.273 808.158 530.051 808.522 529.336 807.304C533.897 805.91 540.192 808.1 542.779 811.864L542.788 811.868Z" fill="#937B34"/>
<path d="M469.747 248.759C467.397 244.852 467.165 241.248 467.977 237.507C468.124 236.828 468.505 236.006 469.469 236.461C470.071 236.746 470.289 237.535 469.891 237.998C468.318 239.828 469.168 241.923 469.155 243.896C469.145 245.306 469.483 246.719 469.747 248.759Z" fill="#937B34"/>
<path d="M420.209 297.177C421.125 298.253 420.69 299.59 420.91 300.8C419.456 301.116 418.917 302.491 417.984 303.39C415.611 305.676 412.992 307.622 410.151 309.356C410.145 309.353 410.059 309.311 409.973 309.269C410.083 309.217 410.219 309.191 410.299 309.11C413.503 305.845 416.735 302.607 419.86 299.269C420.262 298.839 420.106 297.887 420.209 297.177Z" fill="#937B34"/>
<path d="M380.758 312.566C380.65 311.722 379.825 310.985 380.38 310.041C381.63 310.131 381.883 308.991 382.45 308.296C385.04 305.119 387.559 301.884 390.807 299.253C387.457 303.691 384.108 308.128 380.758 312.566Z" fill="#937B34"/>
<path d="M399.607 379.74C399.23 379.39 398.927 378.907 398.299 379.004C398.382 373.575 399.482 368.308 400.995 362.412C400.526 368.642 400.561 374.228 399.607 379.74Z" fill="#937B34"/>
<path d="M442.71 306.372C441.654 306.595 440.902 306.037 440.186 305.388C441.108 304.673 439.999 303.526 440.86 302.642C443.432 303.958 446.047 305.296 448.661 306.633C447.006 307.588 445.238 307.687 443.409 307.329C443.58 306.715 443.669 306.161 442.71 306.372Z" fill="#937B34"/>
<path d="M556.057 299.492C558.15 303.229 558.297 307.135 556.464 310.682C556.464 308.579 556.513 306.877 556.451 305.179C556.386 303.424 556.213 301.672 556.057 299.492Z" fill="#937B34"/>
<path d="M643.797 372.766C639.948 373.851 636.065 374.945 631.961 376.102C634.226 373.528 639.911 372.011 643.797 372.766Z" fill="#937B34"/>
<path d="M571.619 522.76C573.585 520.43 576.307 520.345 577.804 518.435C579.256 516.583 580.521 514.74 580.259 512.3C581.656 514.057 581.092 515.844 579.984 517.502C578.134 520.269 575.734 522.265 571.619 522.76Z" fill="#937B34"/>
<path d="M512.875 775.715C507.642 774.97 503.487 772.967 498.174 773.098C501.167 771.588 507.203 772.801 512.875 775.715Z" fill="#937B34"/>
<path d="M482.143 218.645C486.485 216.183 490.944 214.129 496.072 214.386C491.429 215.806 486.786 217.225 482.143 218.645Z" fill="#937B34"/>
<path d="M513.043 224.515C514.637 228.91 515.431 232.771 515.689 236.746C515.722 237.25 515.428 237.656 514.591 237.781C513.866 233.62 512.957 229.488 513.043 224.515Z" fill="#937B34"/>
<path d="M632.185 746.312C629.588 745.303 627.671 742.61 624.873 736.3C627.74 739.836 630.279 742.849 632.185 746.312Z" fill="#937B34"/>
<path d="M497.505 911.875C494.737 908.285 492.698 904.338 491.676 899.895C493.861 903.778 496.757 907.318 497.466 911.916C497.466 911.915 497.505 911.875 497.505 911.875Z" fill="#937B34"/>
<path d="M699.717 371.426L699.67 371.349C699.831 369.201 698.824 368.329 696.77 368.838L696.676 368.937C698.281 368.176 696.151 367.037 697.224 365.91C699.786 367.921 702.384 369.961 705.139 372.124C703.043 372.963 701.653 370.051 699.717 371.426Z" fill="#937B34"/>
<path d="M446.391 414.884C446.29 416.329 445.326 416.431 444.205 416.288C441.853 415.986 439.33 414.195 437.771 411.719C437.345 411.483 438.331 411.408 437.903 411.64C437.899 411.642 437.951 411.826 438.013 411.862C439.467 412.697 440.865 413.672 442.403 414.305C443.623 414.806 444.882 415.955 446.369 414.849L446.391 414.884Z" fill="#937B34"/>
<path d="M556.356 669.824C552.001 670.057 548.124 672.146 543.244 673.222C547.582 670.044 551.84 669.434 556.356 669.824Z" fill="#937B34"/>
<path d="M497.846 715.52C496.999 714.986 496.405 714.251 496.08 713.302C500.066 714.245 503.398 716.603 507.02 718.333C507.819 718.715 508.445 719.73 509.565 719.18C509.566 719.18 509.589 719.21 509.589 719.211C507.835 719.802 506.478 718.767 504.963 718.191C503.213 717.524 501.855 715.532 499.593 716.475C499.593 716.475 499.683 716.341 499.682 716.341C499.448 715.222 498.794 715.043 497.846 715.52Z" fill="#937B34"/>
<path d="M555.185 583.353C555.029 582.694 554.873 582.036 554.717 581.377C554.583 580.582 555.08 580.014 555.567 579.155C555.711 580.053 555.823 580.754 555.913 581.319C556.282 581.726 556.395 581.681 556.495 581.347C557.002 579.648 557.533 577.956 558.284 575.519C558.949 578.445 558.451 580.473 557.898 582.499C557.436 584.191 556.35 583.895 555.185 583.353Z" fill="#937B34"/>
<path d="M523.137 802.325C524.263 801.851 525.659 802.989 526.655 801.738C529.931 802.197 532.95 803.39 536.404 805.117C531.6 804.106 527.368 803.215 523.137 802.325Z" fill="#937B34"/>
<path d="M722.325 316.638C722.269 313.38 723.074 310.3 724.345 307.308C724.901 310.626 723.633 313.657 722.796 316.755C722.678 316.568 722.521 316.529 722.325 316.638Z" fill="#937B34"/>
<path d="M520.532 265.876C521.611 268.593 522.583 271.284 522.366 274.34C520.816 272.68 520.472 271.147 520.532 265.876Z" fill="#937B34"/>
<path d="M478.226 654.868C482.589 657.005 486.48 659.838 490.17 662.969L490.203 662.948C485.87 660.76 481.654 658.397 478.176 654.926C478.176 654.924 478.226 654.868 478.226 654.868Z" fill="#937B34"/>
<path d="M834.096 300.833C834.771 300.556 835.737 301.273 836.185 300.221C839.414 301.115 842.283 302.873 845.325 304.278C841.526 303.329 837.707 302.443 834.096 300.833Z" fill="#937B34"/>
<path d="M485.845 265.831C485.663 266.598 485.098 266.661 484.458 266.587C483.896 264.867 482.088 265.299 480.932 264.588C479.242 263.549 477.15 263.068 476.51 260.682C479.349 262.937 483.004 263.611 485.845 265.831Z" fill="#937B34"/>
<path d="M290.895 950.592C291.295 950.584 291.695 950.575 292.094 950.567C293.153 954.117 294.212 957.666 295.271 961.216C293.17 957.912 291.747 954.364 290.895 950.592Z" fill="#937B34"/>
<path d="M575.647 376.788C573.946 379.778 572.271 382.785 569.973 385.4C570.946 381.922 573.002 379.036 575.016 376.128C575.226 376.348 575.437 376.568 575.647 376.788Z" fill="#937B34"/>
<path d="M404.98 272.296C405.432 272.345 405.883 272.394 406.335 272.444C403.715 275.786 400.34 278.371 397.219 281.714C398.461 278.869 401.335 275.443 404.98 272.296Z" fill="#937B34"/>
<path d="M465.32 288.751C464.125 285.938 464.068 282.954 464.868 279.827C465.351 282.713 465.835 285.599 466.319 288.485L465.32 288.751Z" fill="#937B34"/>
<path d="M408.025 264.307L409.168 264.336C406.026 267.256 402.884 270.177 399.742 273.098C402.19 269.853 404.601 266.589 408.025 264.307Z" fill="#937B34"/>
<path d="M553.37 301.057C554.562 303.215 554.844 305.354 555.123 307.486C555.18 307.927 555.123 308.499 554.486 308.595C553.865 308.688 553.627 308.19 553.55 307.741C553.185 305.615 553.072 303.474 553.37 301.057Z" fill="#937B34"/>
<path d="M692.927 400.212C694.44 401.535 695.952 402.857 697.688 404.375C695.663 403.829 694.275 402.822 692.997 401.674C691.701 400.509 690.211 399.48 689.451 397.596C691.091 397.814 691.548 399.139 692.474 399.876C692.433 400.248 692.64 400.284 692.927 400.212Z" fill="#937B34"/>
<path d="M731.234 268.322C734.612 268.972 737.621 270.437 740.439 272.335C737.374 270.97 733.683 271.127 731.234 268.322Z" fill="#937B34"/>
<path d="M571.111 656.752C571.111 656.752 571.136 656.734 571.136 656.733C571.156 656.216 571.337 655.822 571.864 655.62C572.315 655.447 572.726 655.143 573.187 655.03C575.763 654.397 578.049 653.013 580.556 652.199C577.285 653.47 574.57 655.887 571.111 656.752Z" fill="#937B34"/>
<path d="M648.075 739.486C644.606 736.776 641.505 733.682 638.213 730.082C640.895 731.352 644.953 735.238 648.075 739.486Z" fill="#937B34"/>
<path d="M711.284 741.592C711.08 741.403 710.876 741.214 710.672 741.024C713.16 739.645 716.039 739.879 718.674 739.095C719.706 738.788 720.801 738.691 722.522 738.379C718.389 739.7 714.939 740.997 711.284 741.592Z" fill="#937B34"/>
<path d="M526.733 275.091C524.732 271.909 524.819 269.076 524.533 266.341C526.146 268.729 527.105 271.288 526.733 275.091Z" fill="#937B34"/>
<path d="M492.448 702.328C491.435 701.964 491.445 701.329 492.312 700.964C493.255 700.567 494.207 699.969 495.332 700.188C495.123 700.582 494.724 701.104 495.314 701.351C496.037 701.653 496.866 701.704 497.603 701.855C497.966 703.059 494.972 703.014 496.726 704.595C495.324 704.339 494.244 703.486 493.142 702.671C493.329 702.31 493.617 701.876 493.003 701.703C492.609 701.592 492.535 702.026 492.448 702.328Z" fill="#937B34"/>
<path d="M470.86 302.349C472.174 304.05 472.157 304.177 470.422 304.5C469.973 304.583 469.49 304.483 469.022 304.467C469.88 303.414 469.198 303.016 468.276 302.74C466.594 302.238 464.739 302.11 463.256 300.379C465.195 299.918 466.37 301.064 467.611 301.71C468.678 302.266 469.57 303.141 470.86 302.349Z" fill="#937B34"/>
<path d="M582.206 216.929C581.175 218.059 580.212 217.141 579.23 216.829C581.495 214.875 583.811 212.997 586.614 211.839L586.566 211.791C586.014 212.98 585.038 213.806 584.134 214.704C583.695 215.14 582.955 215.608 583.791 216.351C583.79 216.351 583.708 216.249 583.708 216.249C582.755 215.475 582.423 216.076 582.206 216.929Z" fill="#937B34"/>
<path d="M461.46 283.943C463.158 286.532 463.221 288.731 463.843 290.733C463.97 291.142 463.96 291.74 463.304 291.837C462.699 291.926 462.478 291.439 462.307 290.991C461.534 288.972 461.414 286.895 461.46 283.943Z" fill="#937B34"/>
<path d="M471.934 197.83C471.984 197.325 473.344 196.768 471.873 196.325C474.064 194.835 476.504 193.994 479.145 193.577C476.847 195.205 474.592 196.853 471.934 197.83Z" fill="#937B34"/>
<path d="M391.555 375.786C393.376 373.078 395.004 370.209 397.677 368.212C396.731 371.651 393.847 373.471 391.555 375.786Z" fill="#937B34"/>
<path d="M493.497 709.707C492.295 708.976 492.547 707.767 492.494 706.658C495.091 707.729 497.432 709.222 500.03 710.855C497.704 711.553 496.508 708.707 494.469 709.911C494.468 709.911 494.543 709.763 494.543 709.763C494.58 709.479 494.719 709.149 494.273 709.058C493.752 708.951 493.539 709.231 493.497 709.707Z" fill="#937B34"/>
<path d="M469.191 668.239C469.864 669.021 470.368 669.89 470.557 670.919C467.795 669.773 464.968 668.755 462.332 666.936C464.884 666.754 466.865 668.365 469.191 668.239Z" fill="#937B34"/>
<path d="M486.584 668.774C486.795 668.575 487.007 668.376 487.219 668.177C489.646 669.241 491.57 671.068 493.688 672.631C490.972 672.015 488.705 670.536 486.584 668.774Z" fill="#937B34"/>
<path d="M396.256 351.149C396.683 351.182 397.11 351.215 397.536 351.248C395.062 354.027 391.726 355.654 388.773 357.792L388.807 357.821C391.086 355.369 393.506 353.074 396.256 351.149Z" fill="#937B34"/>
<path d="M716.644 341.384C715.89 342.742 715.212 344.151 714.354 345.44C713.806 346.262 713.151 347.947 712.14 347.219C710.901 346.327 712.502 345.419 713.114 344.686C714.118 343.485 715.258 342.399 716.34 341.264C716.441 341.304 716.543 341.344 716.644 341.384Z" fill="#937B34"/>
<path d="M496.872 170.578C497.217 173.115 497.934 175.595 497.139 178.104C495.901 175.622 495.645 173.101 496.872 170.578Z" fill="#937B34"/>
<path d="M637.344 413.586C640.122 413.356 642.153 411.465 644.68 410.205C642.509 413.536 640.68 414.394 637.344 413.586Z" fill="#937B34"/>
<path d="M530.561 776.72C530.908 776.776 531.254 776.832 531.601 776.889C532.979 779.33 533.558 782.052 534.344 784.71C533.058 782.053 531.398 779.582 530.561 776.72Z" fill="#937B34"/>
<path d="M539.101 574.786C539.512 577.219 540.08 579.64 538.985 581.981C538.006 579.555 538.238 577.151 539.101 574.786Z" fill="#937B34"/>
<path d="M616.497 187.719C615.328 187.627 614.263 187.335 613.627 186.222C614.717 186.73 615.436 186.029 616.215 185.457C617.961 184.173 619.665 182.824 621.633 181.875L621.639 181.866C620.021 183.901 617.553 185.19 616.497 187.719Z" fill="#937B34"/>
<path d="M471.917 420.698C471.06 420.617 470.031 419.547 470.215 419.51C472.444 419.073 469.513 418.088 470.463 417.674C470.997 417.442 471.553 417.054 472.088 417.072C473.248 417.111 474.168 417.666 474.211 418.989C474.245 420.008 473.252 420.704 471.917 420.698Z" fill="#937B34"/>
<path d="M622.395 190.608C623.916 190.635 625.437 190.658 626.958 190.689C627.577 190.702 628.126 190.622 628.237 189.86C629.729 189.723 630.895 190.573 632.172 191.247C628.851 191.843 625.629 191.108 622.395 190.608Z" fill="#937B34"/>
<path d="M457.225 431.042C460.047 430.734 462.318 430.712 464.442 431.848C462.122 432.262 459.831 432.445 457.225 431.042Z" fill="#937B34"/>
<path d="M446.369 414.849C446.4 412.904 443.806 413.342 443.545 411.441C445.743 412.148 447.903 412.843 450.095 413.548C449.274 415.641 447.213 413.295 446.389 414.88C446.391 414.884 446.369 414.849 446.369 414.849Z" fill="#937B34"/>
<path d="M499.523 764.672C502.319 764.137 504.665 765.323 507.037 766.412C504.459 766.13 501.801 766.229 499.523 764.672Z" fill="#937B34"/>
<path d="M504.16 902.527C504.168 902.819 504.091 903.05 503.751 903.089C501.706 901.321 500.652 899.061 500.102 895.983C501.945 896.974 501.873 898.555 502.488 899.706C503.004 900.671 502.666 902.141 504.16 902.527Z" fill="#937B34"/>
<path d="M454.46 305.894C453.402 307.001 452.075 306.786 450.763 306.648C451.653 304.807 448.891 305.159 449.067 303.473C451.052 303.94 452.772 304.876 454.46 305.894Z" fill="#937B34"/>
<path d="M517.676 273.176C515.845 271.313 516.512 268.959 516.594 266.697C517.243 268.779 518.049 270.824 517.676 273.176Z" fill="#937B34"/>
<path d="M475.005 244.688C473.3 241.987 472.832 239.913 474.057 237.614C475.095 239.612 474.958 241.766 475.005 244.688Z" fill="#937B34"/>
<path d="M545.108 565.739C544.93 566.235 544.563 566.501 544.052 566.541C539.643 566.884 535.243 566.507 530.84 566.357C530.681 566.352 530.534 566.032 530.381 565.858C535.29 565.818 540.199 565.779 545.108 565.739Z" fill="#937B34"/>
<path d="M517.066 298.554C518.454 300.769 517.899 303.129 517.701 305.464C517.073 303.2 516.14 300.98 517.066 298.554Z" fill="#937B34"/>
<path d="M438.984 417.663C440.614 417.733 442.404 417.052 444.141 418.771C441.883 419.51 440.482 418.36 438.984 417.663Z" fill="#937B34"/>
<path d="M613.622 186.217C612.744 185.79 612.633 184.811 612.117 184.124C614.071 183.254 615.591 181.612 617.772 180.909C616.809 182.274 615.624 183.242 614.368 184.106C613.557 184.665 613.248 185.292 613.622 186.217Z" fill="#937B34"/>
<path d="M534.619 574.896V582.215C532.782 580.471 532.743 579.199 534.619 574.896Z" fill="#937B34"/>
<path d="M431.486 375.12C433.3 374.698 435.148 374.37 436.955 375.267C435.147 376.283 433.328 375.57 431.486 375.12Z" fill="#937B34"/>
<path d="M495.368 700.18C495.211 699.211 494.35 699.554 493.791 699.333C496.239 698.271 498.721 698.262 501.249 698.944C499.216 699.121 497.336 699.884 495.368 700.18Z" fill="#937B34"/>
<path d="M396.192 363.049C394.207 365.031 391.969 366.674 389.508 368.016L389.547 368.053C391.089 366.079 392.754 364.233 394.905 362.892C395.26 362.866 395.615 362.841 395.97 362.815L396.192 363.049Z" fill="#937B34"/>
<path d="M614.137 414.88C614.546 415.317 615.709 414.811 615.207 416.311C614.622 418.062 614.834 418.361 613.961 418.327C612.885 418.286 611.982 417.816 611.971 416.691C611.958 415.372 612.943 414.908 614.137 414.88Z" fill="#937B34"/>
<path d="M489.615 257.729C491.475 258.672 493.335 259.615 495.195 260.558C493.039 260.194 490.594 260.523 489.615 257.729Z" fill="#937B34"/>
<path d="M496.912 558.712C497.44 559.496 498.315 559.026 498.988 559.284C496.702 560.386 494.161 560.53 491.188 561.575C493.353 560.116 495.022 559.185 496.912 558.712Z" fill="#937B34"/>
<path d="M685.878 343.202C685.817 342.724 685.494 342.503 685.07 342.382C686.525 340.787 688.501 339.961 690.297 338.839C688.9 340.387 687.911 342.323 685.878 343.202Z" fill="#937B34"/>
<path d="M536.867 584.875C536.535 584.85 536.204 584.826 535.872 584.801C534.914 582.152 535.325 579.493 535.917 576.81C536.306 579.496 537.036 582.127 536.867 584.875Z" fill="#937B34"/>
<path d="M620.652 428.199C622.815 427.805 624.931 427.025 627.373 427.369C625.188 429.1 622.935 428.769 620.652 428.199Z" fill="#937B34"/>
<path d="M523.023 577.184C521.199 574.786 520.929 572.332 523.042 569.111C523.042 572.249 523.042 574.706 523.043 577.163L523.023 577.184Z" fill="#937B34"/>
<path d="M597.539 212.52C597.5 212.008 597.121 211.827 596.715 211.672C598.783 210.206 601.131 209.271 603.381 208.149L603.382 208.144C601.469 209.649 599.942 211.669 597.539 212.52Z" fill="#937B34"/>
<path d="M495.958 255.696C497.442 256.642 498.925 257.588 500.409 258.534C498.302 258.641 496.565 258.082 495.445 256.367C495.616 256.143 495.787 255.92 495.958 255.696Z" fill="#937B34"/>
<path d="M639.096 416.329C640.779 414.924 642.536 415.556 644.171 415.385C641.577 416.7 641.577 416.7 639.096 416.329Z" fill="#937B34"/>
<path d="M408.775 315.438C409.126 315.42 409.478 315.403 409.829 315.385C407.784 317.595 405.13 318.962 402.646 320.564L402.685 320.6C404.543 318.676 406.514 316.886 408.775 315.438Z" fill="#937B34"/>
<path d="M547.114 544.028C548.3 543.786 549.471 543.869 550.979 544.241C547.596 545.738 544.494 546.086 541.295 544.706C543.23 544.436 545.343 545.703 547.114 544.028Z" fill="#937B34"/>
<path d="M495.332 692.164C498.189 691.88 499.63 694.416 501.807 695.485C499.635 694.413 497.248 693.765 495.358 692.137L495.332 692.164Z" fill="#937B34"/>
<path d="M484.648 260.04C486.226 260.86 487.803 261.681 489.338 262.479C486.884 262.69 486.184 262.414 484.648 260.04Z" fill="#937B34"/>
<path d="M534.128 852.838C534.048 852.072 533.967 851.305 533.887 850.539C534.416 848.862 535.445 847.542 536.768 846.397C536.363 848.772 535.44 850.887 534.128 852.838Z" fill="#937B34"/>
<path d="M577.696 576.068C577.95 576.044 578.204 576.019 578.459 575.995C576.296 578.053 573.723 579.494 571.113 580.878L571.173 580.803C573.16 578.967 575.378 577.448 577.696 576.068Z" fill="#937B34"/>
<path d="M548.943 186.23C548.14 184.342 548.71 182.767 549.814 180.904C550.113 183.053 549.671 184.674 548.943 186.23Z" fill="#937B34"/>
<path d="M533.228 558.47C534.405 558.668 535.582 558.865 536.759 559.063C534.153 559.204 531.547 559.345 528.941 559.486C528.92 559.235 528.898 558.985 528.877 558.734C530.27 558.275 531.779 558.57 533.228 558.47Z" fill="#937B34"/>
<path d="M692.929 400.212C692.642 400.284 692.435 400.248 692.476 399.876C693.201 399.019 692.65 398.419 692.073 397.808C691.447 397.144 690.617 396.651 690.293 395.728C690.691 395.718 691.088 395.708 691.486 395.698C692.502 396.827 693.518 397.957 694.466 399.009C694.39 400.17 693.052 399.311 692.929 400.212Z" fill="#937B34"/>
<path d="M515.853 565.047C515.753 565.819 515.194 565.977 514.56 565.961C511.314 565.881 508.055 566.1 504.811 565.261C508.254 565.18 511.696 565.099 515.139 565.018C515.378 565.007 515.616 565.017 515.853 565.047Z" fill="#937B34"/>
<path d="M609.968 197.23C609.697 198.268 609.406 199.301 609.164 200.345C609.012 200.998 609.142 202.059 608.106 201.715C607.364 201.468 607.479 200.438 607.773 199.801C608.252 198.763 608.583 197.515 609.998 197.269L609.968 197.23Z" fill="#937B34"/>
<path d="M485.398 379.556C485.838 379.472 486.424 379.69 486.563 378.989C488.404 380.438 488.404 380.438 489.625 382.823C487.64 382.009 486.46 380.866 485.398 379.556Z" fill="#937B34"/>
<path d="M653.605 379.354C655.107 378.752 656.537 379.389 658.207 379.11C655.422 380.858 655.422 380.858 653.605 379.354Z" fill="#937B34"/>
<path d="M722.325 316.638C722.521 316.529 722.678 316.568 722.796 316.755C722.686 318.588 721.635 320.092 721.031 321.759C721.372 320.026 721.073 318.138 722.325 316.638Z" fill="#937B34"/>
<path d="M474.471 377.357C475.045 377.379 475.618 377.401 476.192 377.424C477.47 378.088 478.373 379.09 479.516 381.046C477.005 380.007 475.707 378.727 474.471 377.357Z" fill="#937B34"/>
<path d="M513.206 301.846C513.834 303.714 513.279 305.062 513.373 306.886C511.903 305.08 512.054 303.736 513.206 301.846Z" fill="#937B34"/>
<path d="M501.449 769.889C503.661 769.126 504.916 770.32 506.328 770.814C504.686 771.336 503.348 770.515 501.449 769.889Z" fill="#937B34"/>
<path d="M427.879 377.999C426.3 379.387 424.864 378.7 422.795 377.781C424.924 377.651 426.408 377.357 427.879 377.999Z" fill="#937B34"/>
<path d="M702.521 421.881C702.315 422.428 702.109 422.975 701.903 423.522C700.032 422.428 698.641 420.933 697.564 418.577C699.768 419.433 700.581 421.496 702.521 421.881Z" fill="#937B34"/>
<path d="M638.866 410.667C637.427 411.952 635.876 413.09 633.574 412.342C635.479 411.027 635.479 411.027 638.866 410.667Z" fill="#937B34"/>
<path d="M624.529 337.37C623.798 337.459 623.424 336.977 623.074 336.458C624.306 335.371 625.857 335.057 627.725 333.987C626.903 336.078 625.074 336.043 624.529 337.37Z" fill="#937B34"/>
<path d="M534.768 760.156C534.958 760.29 534.986 760.452 534.851 760.641C533.219 759.271 532.273 757.389 531.132 755.652L531.094 755.691C532.739 756.833 534.376 757.982 534.768 760.156Z" fill="#937B34"/>
<path d="M261.79 868.372L261.689 869.579C260.376 868.281 260.099 866.526 259.627 864.835C260.795 865.748 261.539 866.907 261.79 868.372Z" fill="#937B34"/>
<path d="M562.728 418.094C562.574 417.347 562.497 417.114 562.482 416.878C562.395 415.528 562.507 414.226 563.616 413.264C563.741 413.155 564.208 413.19 564.274 413.301C565.113 414.726 563.637 415.616 563.412 416.808C563.352 417.124 563.105 417.403 562.728 418.094Z" fill="#937B34"/>
<path d="M833.375 449.744C833.739 449.747 834.102 449.75 834.466 449.754C835.998 450.032 836.215 451.973 837.228 452.198C836.305 451.375 834.439 451.236 833.375 449.744Z" fill="#937B34"/>
<path d="M452.664 428.653C451.129 428.91 450.257 428.455 449.305 427.491C450.66 427.312 451.542 427.741 452.664 428.653Z" fill="#937B34"/>
<path d="M543.686 304.699C543.71 303.236 543.262 301.721 543.702 300.168C544.465 301.892 544.465 301.892 543.686 304.699Z" fill="#937B34"/>
<path d="M650.613 377.131C648.964 377.532 647.314 377.844 645.656 377.226C647.302 376.429 648.957 376.747 650.613 377.131Z" fill="#937B34"/>
<path d="M469.4 282.4C469.781 283.751 470.686 284.864 470.353 286.289C469.378 284.634 469.378 284.634 469.4 282.4Z" fill="#937B34"/>
<path d="M504.213 427.045C505.399 427.639 505.789 428.758 506.449 430.209C504.595 430.109 503.819 429.227 503.299 427.974C503.819 427.876 504.104 427.548 504.213 427.045Z" fill="#937B34"/>
<path d="M538.514 815.142C539.687 815.396 540.64 816.011 541.758 817.335C540.247 816.761 539.1 816.583 538.263 815.695C538.072 815.492 538.211 815.253 538.514 815.142Z" fill="#937B34"/>
<path d="M605.609 189.144C608.541 189.055 611.464 189.069 614.321 189.871C611.367 190.229 608.497 189.584 605.609 189.144Z" fill="#937B34"/>
<path d="M619.398 367.958C619.351 367.527 619.003 367.399 618.68 367.245C619.62 366.273 620.722 365.677 622.652 365.676C621.513 366.871 620.611 367.608 619.398 367.958Z" fill="#937B34"/>
<path d="M547.852 541.09C546.901 542.045 546.116 542.582 545.117 542.468C544.733 542.424 544.491 542.214 544.445 541.822C544.393 541.37 544.744 541.132 545.061 541.112C545.988 541.051 546.921 541.09 547.852 541.09Z" fill="#937B34"/>
<path d="M423.323 568.704C424.475 570.252 423.212 571.02 422.292 571.899C422.609 570.293 421.2 570.414 420.369 569.967C421.076 568.912 422.736 570.066 423.323 568.704Z" fill="#937B34"/>
<path d="M614.367 189.874C617.063 189.734 619.747 189.725 622.349 190.605C619.644 190.847 617.02 190.201 614.367 189.874Z" fill="#937B34"/>
<path d="M509.51 234.302C508.057 232.698 508.574 231.497 508.84 230.308C509.138 231.482 509.905 232.566 509.51 234.302Z" fill="#937B34"/>
<path d="M640.494 368.59C640.273 368.377 640.051 368.164 639.83 367.95C641.162 366.729 642.667 367.392 644.197 367.801C642.963 368.064 641.728 368.327 640.494 368.59Z" fill="#937B34"/>
<path d="M633.25 365.724C633.217 365.494 633.237 365.269 633.31 365.049C634.196 363.698 635.784 364.767 636.81 363.877C635.787 364.887 634.557 365.387 633.25 365.724Z" fill="#937B34"/>
<path d="M695.377 420.18C695.39 420.53 695.404 420.881 695.417 421.231C693.945 420.137 693.373 418.416 692.438 416.948L692.41 416.983C693.566 417.894 694.793 418.739 695.377 420.18Z" fill="#937B34"/>
<path d="M510.727 519.818C511.114 519.811 511.501 519.804 511.889 519.797C512.539 520.431 513.19 521.065 514.323 522.169C512.363 521.747 511.311 521.153 510.727 519.818Z" fill="#937B34"/>
<path d="M547.114 544.028C545.343 545.703 543.23 544.436 541.295 544.706C540.331 543.923 541.261 543.692 541.706 543.701C543.51 543.738 545.312 543.907 547.114 544.028Z" fill="#937B34"/>
<path d="M621.125 375.973C621.717 375.96 622.31 375.946 622.902 375.933C621.73 376.761 620.559 377.589 619.078 378.636C619.214 376.974 620.027 376.361 621.125 375.973Z" fill="#937B34"/>
<path d="M541.705 185.068C540.768 183.91 540.962 183.124 541.798 182.098C542.481 183.218 542.046 184.049 541.705 185.068Z" fill="#937B34"/>
<path d="M404.775 257.01C404.561 256.793 404.347 256.575 404.133 256.358C404.743 255.004 405.981 254.243 407.146 253.367C406.589 254.725 405.849 255.968 404.775 257.01Z" fill="#937B34"/>
<path d="M597.505 373.078C597.463 372.843 597.474 372.611 597.539 372.382C598.133 371.18 599.408 371.141 600.419 370.626C599.594 371.645 598.803 372.672 597.505 373.078Z" fill="#937B34"/>
<path d="M526.912 749.698L527.108 749.642L527.254 749.784C528.849 750.481 528.663 752.344 529.648 753.44L529.68 753.405C528.796 752.14 527.367 751.283 526.912 749.698Z" fill="#937B34"/>
<path d="M582.937 373.876C581.725 375.086 580.908 376.696 579.279 377.482L579.321 377.526C579.965 375.74 581.24 374.593 582.98 373.918L582.937 373.876Z" fill="#937B34"/>
<path d="M447.487 686.07C447.522 686.583 447.235 686.808 446.842 686.771C446.349 686.725 445.919 686.446 445.767 685.953C445.665 685.623 445.801 685.121 446.147 685.136C446.741 685.162 447.295 685.451 447.487 686.07Z" fill="#937B34"/>
<path d="M516.684 383.401C516.526 383.525 516.323 383.785 516.215 383.75C515.602 383.551 515.308 383.028 515.202 382.441C515.141 382.105 515.238 381.643 515.762 381.973C516.269 382.292 516.672 382.734 516.684 383.401Z" fill="#937B34"/>
<path d="M467.572 270.864C468.708 270.091 469.937 270.019 471.32 270.373C470.636 271.16 469.742 271.295 468.886 271.509C468.657 270.868 467.981 271.138 467.572 270.864Z" fill="#937B34"/>
<path d="M574.783 383.052C575.081 383.358 574.957 383.702 574.812 384.002C574.609 384.422 574.34 384.835 573.826 384.887C573.728 384.897 573.486 384.562 573.501 384.403C573.558 383.786 573.984 383.386 574.473 383.06C574.546 383.011 574.679 383.053 574.783 383.052Z" fill="#937B34"/>
<path d="M575.647 376.788C575.437 376.568 575.226 376.348 575.016 376.128C575.323 375.188 575.898 374.47 576.904 373.91C577.303 375.304 576.387 376.01 575.647 376.788Z" fill="#937B34"/>
<path d="M546.518 180.635C547.216 180.919 547.089 181.523 547.028 182.066C546.996 182.351 546.891 182.823 546.456 182.422C546.032 182.03 545.735 181.507 545.947 180.896C545.995 180.762 546.315 180.722 546.518 180.635Z" fill="#937B34"/>
<path d="M486.915 631.198C487.975 631.76 488.945 632.424 489.735 633.795C487.903 634.014 487.249 632.641 486.303 631.829C486.507 631.619 486.711 631.408 486.915 631.198Z" fill="#937B34"/>
<path d="M631.564 425.489C632.456 424.699 633.095 423.998 634.424 424.572C633.595 425.096 632.982 425.617 631.564 425.489Z" fill="#937B34"/>
<path d="M600.529 188.387C602.26 188.278 603.967 188.331 605.561 189.14C603.806 189.402 602.181 188.808 600.529 188.387Z" fill="#937B34"/>
<path d="M527.476 563.864C527.323 564.435 527.091 564.882 526.549 564.763C526.323 564.713 526.023 564.258 526.04 564.007C526.073 563.531 526.443 563.128 526.953 563.197C527.168 563.226 527.329 563.664 527.476 563.864Z" fill="#937B34"/>
<path d="M606.955 371.546C606.992 371.221 607.029 370.896 607.066 370.567C607.486 369.994 607.965 369.514 609.129 369.411C608.556 370.504 607.875 371.125 606.955 371.546Z" fill="#937B34"/>
<path d="M596.834 187.69C598.112 187.561 599.368 187.55 600.465 188.378C599.179 188.549 598.019 188.052 596.834 187.69Z" fill="#937B34"/>
<path d="M389.508 368.016C389.311 368.148 389.112 368.278 388.918 368.414C388.724 368.551 388.536 368.695 388.344 368.836C388.235 368.358 388.701 368.48 388.896 368.331C389.078 368.193 389.327 368.142 389.547 368.053L389.508 368.016Z" fill="#937B34"/>
<path d="M402.647 320.564C402.446 320.696 402.241 320.823 402.044 320.962C401.848 321.1 401.66 321.251 401.469 321.397C401.395 320.939 401.853 321.077 402.038 320.909C402.207 320.755 402.465 320.699 402.685 320.6L402.647 320.564Z" fill="#937B34"/>
<path d="M368.326 964.418C368.728 963.632 369.061 962.8 369.794 962.237C369.793 962.237 369.747 962.192 369.747 962.192C369.47 963.061 368.909 963.74 368.287 964.378L368.326 964.418Z" fill="#937B34"/>
<path d="M368.286 964.378C367.809 965.117 367.331 965.857 366.854 966.596L366.879 966.622C367.362 965.888 367.844 965.154 368.326 964.419C368.325 964.418 368.286 964.378 368.286 964.378Z" fill="#937B34"/>
<path d="M388.773 357.792C388.515 357.949 388.256 358.106 387.998 358.263C388.267 358.115 388.537 357.968 388.807 357.821L388.773 357.792Z" fill="#937B34"/>
<path d="M582.981 373.918C583.136 373.615 583.291 373.313 583.446 373.01C583.597 373.487 583.052 373.554 582.938 373.875C582.938 373.876 582.981 373.918 582.981 373.918Z" fill="#937B34"/>
<path d="M493.92 691.37C494.119 691.184 494.317 690.998 494.516 690.812C495.377 690.907 494.599 691.991 495.332 692.164L495.358 692.137C495.153 691.366 494.237 691.93 493.92 691.37Z" fill="#937B34"/>
<path d="M395.922 362.132C396.364 362.102 396.807 362.071 397.249 362.041C397.035 362.523 396.706 362.883 396.191 363.05C396.191 363.05 395.969 362.816 395.97 362.816C396.096 362.588 396.109 362.353 396.012 362.112L395.922 362.132Z" fill="#937B34"/>
<path d="M397.7 274.992L397.454 274.882L397.426 274.983L397.7 274.992Z" fill="#937B34"/>
<path d="M525.337 572.63C525.457 572.49 525.683 572.344 525.676 572.21C525.662 571.935 525.427 571.85 525.322 572.04C525.252 572.167 525.358 572.391 525.386 572.572C525.388 572.573 525.337 572.63 525.337 572.63Z" fill="#937B34"/>
<path d="M490.17 662.969L490.597 663.17C490.571 663.117 490.558 663.034 490.517 663.017C490.42 662.977 490.309 662.968 490.204 662.947C490.203 662.948 490.17 662.969 490.17 662.969Z" fill="#937B34"/>
<path d="M692.437 416.948C692.359 416.795 692.281 416.643 692.203 416.49C692.272 416.654 692.341 416.818 692.41 416.982C692.41 416.983 692.437 416.948 692.437 416.948Z" fill="#937B34"/>
<path d="M529.648 753.44C529.878 753.938 530.108 754.436 530.338 754.934L530.375 754.897C530.143 754.4 529.912 753.903 529.68 753.405C529.68 753.404 529.648 753.44 529.648 753.44Z" fill="#937B34"/>
<path d="M609.3 242.357C609.118 242.572 609.132 242.779 609.367 242.942C609.396 242.962 609.57 242.858 609.596 242.783C609.68 242.537 609.553 242.371 609.264 242.302C609.264 242.301 609.3 242.357 609.3 242.357Z" fill="#937B34"/>
<path d="M515.768 222.042L515.549 221.581C515.614 221.746 515.679 221.911 515.743 222.077C515.743 222.078 515.768 222.042 515.768 222.042Z" fill="#937B34"/>
<path d="M469.232 618.311C469.849 618.32 470.204 618.682 470.439 619.206C469.816 619.204 469.528 618.753 469.232 618.311Z" fill="#937B34"/>
<path d="M399.302 383.556C399.026 382.926 399.098 382.351 399.571 381.839C399.786 382.459 399.749 383.04 399.302 383.556Z" fill="#937B34"/>
<path d="M610 197.269C610.077 197.088 610.154 196.908 610.232 196.727C610.144 196.894 610.056 197.061 609.969 197.23C609.97 197.23 610 197.269 610 197.269Z" fill="#937B34"/>
<path d="M429.631 308.171C430.242 308.082 430.758 308.235 431.125 308.762C430.49 308.911 430.072 308.511 429.631 308.171Z" fill="#937B34"/>
<path d="M443.644 261.527C443.606 261.101 443.855 260.863 444.195 260.683C444.244 261.116 444.07 261.404 443.644 261.527Z" fill="#937B34"/>
<path d="M599.405 423.875C599.59 424.148 599.777 424.507 599.493 424.728C599.135 425.007 599.006 424.615 598.887 424.344C599.048 424.175 599.221 424.018 599.405 423.875Z" fill="#937B34"/>
<path d="M380.48 309.099C380.227 308.73 380.303 308.405 380.61 308.11C380.795 308.469 380.777 308.802 380.48 309.099Z" fill="#937B34"/>
<path d="M530.338 754.934C530.59 755.186 530.842 755.438 531.094 755.69C531.094 755.69 531.132 755.651 531.132 755.652C530.88 755.4 530.628 755.149 530.376 754.897C530.375 754.897 530.338 754.934 530.338 754.934Z" fill="#937B34"/>
<path d="M579.279 377.482C579.178 377.591 579.078 377.699 578.977 377.808C579.001 377.747 579.008 377.663 579.053 377.632C579.13 377.579 579.231 377.559 579.322 377.526L579.279 377.482Z" fill="#937B34"/>
<path d="M623.1 186.253L623.182 186.135C623.182 186.135 623.15 186.239 623.155 186.236C623.16 186.233 623.1 186.253 623.1 186.253Z" fill="#937B34"/>
<path d="M621.633 181.875L621.725 181.773C621.725 181.773 621.637 181.866 621.638 181.866C621.639 181.866 621.633 181.875 621.633 181.875Z" fill="#937B34"/>
<path d="M542.777 811.864L542.871 811.953C542.871 811.953 542.786 811.866 542.786 811.867C542.786 811.868 542.777 811.864 542.777 811.864Z" fill="#937B34"/>
<path d="M473.103 664.62C472.882 664.225 472.979 663.897 473.312 663.619C473.46 663.998 473.421 664.338 473.103 664.62Z" fill="#937B34"/>
<path d="M586.613 211.838C586.69 211.437 586.94 211.203 587.327 211.101L587.296 211.069C587.052 211.309 586.808 211.55 586.564 211.791C586.565 211.791 586.613 211.838 586.613 211.838Z" fill="#937B34"/>
<path d="M587.328 211.102L587.424 210.961C587.424 210.961 587.296 211.068 587.297 211.069L587.328 211.102Z" fill="#937B34"/>
<path d="M447.926 605.956L447.787 605.922C447.787 605.922 447.885 605.9 447.88 605.895C447.876 605.89 447.926 605.956 447.926 605.956Z" fill="#937B34"/>
<path d="M498.353 912.045C498.431 912.255 498.395 912.445 498.247 912.613C498.001 912.366 497.754 912.12 497.507 911.874C497.506 911.875 497.468 911.915 497.467 911.916C497.762 911.959 498.057 912.002 498.353 912.045Z" fill="#937B34"/>
<path d="M396.011 362.111C396.109 362.353 396.095 362.587 395.969 362.815C395.614 362.841 395.259 362.866 394.904 362.892C395.159 362.47 395.416 362.051 396.011 362.111Z" fill="#937B34"/>
<path d="M486.104 630.556C486.374 630.77 486.644 630.985 486.914 631.199C486.711 631.408 486.507 631.619 486.302 631.829C486.036 631.621 485.769 631.412 485.502 631.205C485.703 630.989 485.903 630.772 486.104 630.556Z" fill="#937B34"/>
<path d="M504.214 427.046C504.105 427.549 503.82 427.877 503.3 427.975L503.273 427.941C503.319 427.7 503.328 427.458 503.3 427.215C503.475 427.045 503.664 426.893 503.867 426.757C504.032 426.794 504.148 426.89 504.214 427.046Z" fill="#937B34"/>
<path d="M503.299 427.214C503.327 427.457 503.318 427.7 503.272 427.94C502.852 427.869 502.625 427.62 502.582 427.199C502.822 427.181 503.061 427.186 503.299 427.214Z" fill="#937B34"/>
<path d="M366.117 967.351C366.371 967.108 366.625 966.866 366.88 966.623C366.879 966.622 366.854 966.596 366.854 966.596C366.61 966.844 366.366 967.091 366.122 967.339L366.117 967.351Z" fill="#937B34"/>
<path d="M366.123 967.339L366.031 967.44C366.031 967.44 366.12 967.351 366.119 967.351C366.118 967.351 366.123 967.339 366.123 967.339Z" fill="#937B34"/>
<path d="M434.8 303.382C436.419 304.309 438.037 305.235 439.656 306.162C436.748 305.793 433.713 307.2 431.057 305.332C431.385 305.247 431.994 305.181 432.001 305.074C432.129 303.134 433.66 303.588 434.8 303.382Z" fill="#937B34"/>
<path d="M396.951 264.69C397.586 262.804 398.195 260.957 400.213 260.132C399.739 262.081 398.401 263.46 396.951 264.69Z" fill="#937B34"/>
</svg>
