<svg width="1080" height="1080" viewBox="0 0 1080 1080" fill="none" xmlns="http://www.w3.org/2000/svg">
<path d="M280.271 369.85C280.398 369.359 280.776 368.824 280.16 368.37C280.083 368.313 279.744 368.423 279.721 368.509C279.587 368.999 279.804 369.426 280.271 369.85ZM242.098 313.969C244.283 314.237 246.137 314.551 248.003 314.671C250.133 314.809 250.828 314.221 251.321 312.165C251.838 310.006 251.577 307.822 251.499 305.641C251.238 298.303 250.419 290.959 251.134 283.626C251.417 280.729 250.174 278.681 248.69 276.565C248.255 275.945 247.656 275.677 246.884 275.835C245.987 276.018 245.859 276.723 245.887 277.424C245.99 280.023 245.341 282.536 245.005 285.078C243.748 294.602 242.854 304.157 242.098 313.969ZM804.125 311.875C803.764 306.956 803.515 302.705 803.126 298.466C802.51 291.76 801.738 285.076 800.666 278.417C800.159 275.264 799.66 272.205 798.285 269.293C796.956 266.478 796.598 266.237 793.597 267.199C793.41 267.259 793.245 267.382 793.06 267.451C790.328 268.483 790.131 268.793 790.633 271.566C791.143 274.388 791.612 277.22 792.232 280.018C793.793 287.061 795.036 294.191 797.567 300.982C798.981 304.777 800.76 308.385 804.125 311.875ZM243.03 380.349C245.539 375.842 247.183 371.629 248.346 367.205C248.976 364.811 248.872 362.568 247.998 360.234C246.924 357.366 246.04 354.421 245.198 351.474C243.894 346.907 242.712 342.305 241.436 337.73C241.236 337.013 241.355 336.065 240.411 335.722C238.687 335.097 235.513 336.924 235.407 338.839C235.166 343.188 234.517 347.53 235.008 351.904C235.708 358.14 237.871 364.029 239.374 370.071C240.203 373.401 241.662 376.574 243.03 380.349ZM740.639 505.939C740.439 505.932 740.239 505.925 740.039 505.918C739.931 506.457 739.799 506.993 739.721 507.536C738.623 515.197 737.734 522.908 736.432 530.514C734.353 542.655 733.471 554.936 731.412 567.077C729.987 575.478 728.724 583.925 727.494 592.367C725.271 607.632 721.023 622.393 716.247 637.008C714.71 641.709 712.899 646.331 711.025 650.925C709.36 655.008 707.634 659.169 708.636 663.788C708.678 663.979 708.651 664.184 708.666 664.382C709.465 674.987 710.922 685.498 713.209 695.886C714.924 703.677 718.265 710.897 721.186 718.265C726.044 730.522 731.176 742.661 736.705 754.63C737.233 755.773 737.471 757.188 738.989 758.144C739.081 752.725 739.415 747.688 739.273 742.625C739.066 735.279 738.563 727.934 738.896 720.58C739.4 709.458 739.368 698.338 739.026 687.212C738.751 678.266 739.275 669.332 740.075 660.431C741.213 647.769 742.326 635.119 741.526 622.387C741.439 621.003 741.333 619.567 741.598 618.227C741.927 616.57 741.582 615.126 741.061 613.6C739.58 609.262 738.605 604.812 738.424 600.213C738.271 596.343 738.087 592.474 737.993 588.603C737.849 582.644 737.473 576.65 738.128 570.735C739.122 561.745 741.326 552.986 744.472 544.485C745.13 542.707 745.744 540.892 745.46 538.973C744.994 535.834 744.632 532.646 743.604 529.642C742.498 526.412 741.922 523.113 741.612 519.749C741.233 515.63 739.957 511.564 740.885 507.36C740.981 506.925 740.729 506.414 740.639 505.939ZM304.565 560.956C303.488 555.817 302.541 550.687 302.429 545.384C302.346 541.44 302.377 537.438 301.483 533.536C301.395 533.154 301.331 532.728 301.408 532.353C302.828 525.418 301.637 518.552 300.949 511.662C300.515 507.316 300.449 502.933 299.61 498.629C298.433 492.592 297.202 486.58 295.425 480.67C290.51 464.325 286.134 447.832 283.116 431.021C282.012 424.87 281.344 418.635 281.092 412.371C280.555 399.054 279.194 385.814 276.775 372.712C275.112 363.703 271.496 355.499 265.654 348.314C262.629 344.594 258.903 342.594 254.117 342.574C251.783 342.565 249.45 342.573 246.63 342.573C251.249 338.611 256.048 338.44 261.1 340.025C266.271 341.647 268.854 346.165 271.823 350.212C272.768 349.597 272.522 348.856 272.57 348.225C272.948 343.247 272.532 338.292 272.036 333.349C271.39 326.921 270.974 320.5 270.91 314.026C270.859 308.96 269.335 304.037 267.303 299.373C265.321 294.822 262.9 290.483 260.22 286.302C258.829 284.133 257.277 282.089 254.386 281.31C253.548 286.832 253.613 292.25 253.789 297.669C253.911 301.442 254.088 305.214 254.237 308.986C254.301 310.596 254.049 312.176 253.522 313.678C252.441 316.761 250.214 317.869 246.99 317.194C245.23 316.825 243.573 316.322 241.976 314.663C241.474 319.445 241.015 323.827 240.555 328.209C240.452 329.195 240.403 330.191 240.234 331.166C239.964 332.719 239.879 333.98 241.981 334.362C243.238 334.59 243.745 335.818 244.014 337.053C245.787 345.201 247.982 353.232 250.814 361.078C251.413 362.736 251.473 364.403 251.065 366.056C249.767 371.3 247.648 376.193 244.541 380.633C244.106 381.255 243.538 381.64 243.908 382.679C245.799 387.979 245.903 393.587 246.471 399.105C247.254 406.711 247.932 414.327 248.08 421.981C248.235 430.02 248.872 438.032 248.689 446.1C248.5 454.424 249.083 462.765 249.682 471.095C249.979 475.231 251.751 477.919 254.821 480.177C255.54 480.706 256.249 481.255 257.004 481.728C259.25 483.134 261.533 484.289 264.353 481.802C262.849 484.434 261.738 484.919 259.441 484.297C257.486 483.767 255.833 482.679 254.277 481.43C253.145 480.521 252.036 479.584 250.442 478.267C251.432 491.725 252.864 504.642 252.288 517.604C251.705 530.702 250.765 543.792 250.257 556.887C249.751 569.92 246.866 582.553 245.174 595.401C244.595 594.218 244.856 593.066 245.007 591.888C245.171 590.613 245.19 589.314 245.208 588.025C245.27 583.445 246.025 578.934 246.593 574.408C247.163 569.864 247.289 565.297 247.488 560.736C248.107 546.543 248.621 532.346 249.202 518.151C249.54 509.892 248.993 501.653 248.433 493.433C247.765 483.625 246.808 473.828 246.172 464.024C245.724 457.118 245.364 450.166 245.655 443.194C245.911 437.056 245.468 430.884 245.248 424.73C244.911 415.298 244.289 405.882 243.493 396.478C242.921 389.715 241.587 383.155 238.62 376.979C237.514 374.676 236.653 372.255 235.462 369.882C235.172 373.042 235.007 376.198 234.647 379.337C233.708 387.524 233.255 395.773 232.135 403.933C230.582 415.251 229.71 426.65 228.016 437.94C225.868 452.25 226.235 466.667 225.58 481.046C225.029 493.146 225.444 505.3 223.847 517.345C222.387 528.368 221.655 539.468 220.122 550.489C219.219 556.979 217.986 563.415 217.21 569.919C216.422 576.525 215.853 583.16 214.902 589.742C214.009 595.921 212.747 602.048 211.631 608.194C211.583 608.46 211.366 608.694 211.104 609.168C210.569 607.886 210.515 606.794 210.665 605.637C211.328 600.523 212.029 595.413 212.578 590.287C213.17 584.758 213.777 579.222 214.067 573.673C214.374 567.796 215.887 562.091 216.31 556.257C217.029 546.351 219.02 536.577 219.194 526.613C219.246 523.651 219.966 520.708 220.235 517.743C220.99 509.433 221.854 501.124 221.473 492.759C221.333 489.662 221.92 486.617 222.028 483.546C222.279 476.396 222.596 469.238 222.478 462.09C222.367 455.395 223.254 448.808 223.941 442.198C224.721 434.696 225.916 427.235 226.662 419.73C227.36 412.71 228.666 405.775 229.401 398.772C230.625 387.12 232.095 375.503 233.759 363.909C233.896 362.954 233.535 362.135 233.276 361.307C231.364 355.222 230.988 349.034 231.957 342.756C232.259 340.799 232.05 338.787 232.729 336.865C233.199 335.533 233.609 334.617 235.42 334.918C237.209 335.215 238.084 334.277 238.207 332.513C238.806 323.892 239.357 315.269 239.975 306.649C240.495 299.417 241.08 292.189 241.649 284.959C241.695 284.379 241.692 283.794 242.043 283.25C245.362 278.112 241.604 272.971 237.72 270.935C235.756 269.906 233.485 269.346 231.088 269.175C230.714 273.646 231.155 277.994 231.869 282.283C233.023 289.21 232.901 296.146 232.395 303.088C232.07 307.551 228.277 313.745 224.797 315.984C223.997 314.902 224.862 314.115 225.335 313.332C226.257 311.806 227.304 310.356 228.261 308.85C229.681 306.613 230.215 304.163 230.307 301.506C230.584 293.537 230.081 285.635 228.938 277.747C228.527 274.908 228.595 272 228.427 269.125C228.323 267.34 228.131 265.576 227.672 263.83C227.327 262.518 226.611 262.027 225.32 262.159C224.025 262.292 223.204 262.963 223.375 264.277C224.121 270.008 222.477 275.763 223.692 281.513C224.113 283.509 223.933 285.688 223.719 287.751C223.121 293.506 223.159 299.258 223.4 305.022C223.524 308.003 223.458 310.98 222.903 313.927C222.775 314.607 222.685 315.285 222.859 315.992C223.743 319.587 223.907 323.255 223.896 326.936C223.88 332.006 224.074 337.066 224.407 342.127C225.166 353.658 224.24 365.173 223.77 376.683C223.555 381.93 222.525 387.154 221.242 392.246C219.233 400.223 218.79 408.349 218.556 416.476C218.341 423.936 217.697 431.35 217.088 438.774C216.382 447.388 215.701 456.005 214.903 464.61C213.573 478.953 213.262 493.395 211.21 507.657C208.878 523.861 206.71 540.1 202.754 556.038C199.624 568.649 196.775 581.333 193.946 594.017C191.44 605.256 191.156 616.644 191.939 628.105C192.881 641.887 194.721 655.574 196.521 669.247C198.197 681.971 198.782 694.765 200.095 707.501C201.257 718.762 202.002 730.06 203.366 741.306C204.454 750.271 205.073 759.297 205.43 768.339C205.869 779.455 206.656 790.557 207.266 801.667C207.353 803.251 207.31 804.844 207.283 806.431C207.277 806.82 207.09 807.194 206.597 807.242C206.084 807.291 205.892 806.953 205.822 806.545C205.655 805.568 205.495 804.588 205.381 803.603C203.57 787.912 202.35 772.17 201.133 756.425C200.552 748.905 199.536 741.414 198.561 733.93C197.842 728.407 197.75 722.832 197.018 717.318C195.304 704.409 195.262 691.339 193.398 678.458C191.748 667.056 190.414 655.615 189.056 644.183C187.569 631.667 186.288 619.097 187.453 606.434C188.255 597.708 189.986 589.159 191.93 580.642C195.242 566.133 198.549 551.623 201.469 537.028C202.932 529.718 203.477 522.272 204.764 514.937C207.207 501.013 207.904 486.918 208.972 472.856C209.536 465.428 210.313 458.017 210.926 450.592C211.906 438.717 213.49 426.902 213.841 414.961C214.109 405.834 215.402 396.785 217.466 387.847C219.008 381.167 219.64 374.368 219.802 367.472C219.987 359.627 220.647 351.776 220.23 343.937C219.69 333.798 220.804 323.668 220.124 313.539C220.081 312.907 219.796 312.119 221 312.108C221.668 312.102 221.459 311.368 221.469 310.941C221.503 309.351 221.622 307.746 221.46 306.173C220.779 299.519 221.141 292.876 221.502 286.228C221.647 283.543 221.523 280.873 221.08 278.207C220.871 276.945 220.796 275.621 220.918 274.349C221.251 270.891 221.521 267.454 221.312 263.961C221.162 261.451 222.378 260.455 225.194 260.073C227.639 259.741 229.029 260.529 229.847 262.731C230.02 263.195 230.296 263.686 230.268 264.149C230.105 266.876 231.479 267.643 234.048 267.98C240.42 268.815 240.119 269.394 243.963 274.153C244.473 273.909 244.987 273.631 245.526 273.412C247.851 272.466 249.447 272.611 250.737 274.686C252.456 277.449 254.456 279.408 257.649 280.51C259.977 281.314 261.423 283.649 262.837 285.71C268.614 294.126 272.151 303.373 273.364 313.533C273.964 318.564 274.593 323.598 274.69 328.656C274.847 336.781 275.79 344.904 274.895 353.04C274.775 354.134 274.827 355.242 275.32 356.253C276.98 359.657 278.119 363.241 279.121 366.88C279.211 367.206 279.187 367.711 280.171 367.81C280.552 365.545 279.952 363.281 279.976 361.036C280 358.653 280.051 356.269 280.135 353.887C280.216 351.603 280.437 349.321 280.443 347.038C280.449 344.657 280.328 342.271 280.159 339.894C279.991 337.517 279.688 335.15 279.456 332.778C279.224 330.406 278.982 328.034 278.793 325.658C278.61 323.371 278.022 321.163 277.585 318.923C277.134 316.612 276.635 314.291 277.098 311.918C278.074 311.655 278.002 312.451 278.22 312.941C281.544 320.428 282.424 328.396 282.889 336.454C283.238 342.518 283.096 348.56 282.54 354.611C282.049 359.96 282.205 365.334 282.411 370.699C282.455 371.867 282.785 373.074 281.103 373.563C280.187 373.829 280.788 374.741 280.86 375.341C281.619 381.65 282.732 387.915 283.2 394.258C283.667 400.599 284.116 406.941 284.55 413.284C285.34 424.812 287.587 436.076 290.326 447.287C293.598 460.681 297.633 473.866 300.942 487.246C302.88 495.082 303.728 503.067 304.364 511.096C304.97 518.738 305.212 526.373 304.709 534.023C304.598 535.707 305.26 537.102 305.962 538.536C310.441 547.681 316.223 555.972 322.556 563.902C334.791 579.223 348.096 593.563 362.245 607.127C366.978 611.665 371.74 616.174 376.468 620.718C377.085 621.312 377.839 621.817 378.163 622.722C377.234 623.169 376.954 622.28 376.475 621.907C360.823 609.725 346.792 595.822 333.4 581.247C327.551 574.88 321.951 568.296 316.689 561.43C312.454 555.903 308.68 550.082 305.455 543.914C304.397 544.066 304.959 544.846 304.921 545.305C304.465 550.871 305.973 556.114 307.621 561.332C310.28 569.751 312.683 578.242 314.816 586.811C317.463 597.447 317.875 608.197 316.658 619.052C316.095 624.084 315.6 629.125 315.128 634.166C314.972 635.839 315.067 637.465 315.648 639.132C318.683 647.828 319.55 656.93 320.433 666.018C320.541 667.126 320.744 668.146 321.344 669.108C325.65 676.025 330.224 682.76 335.443 689.019C347.616 703.616 360.647 717.394 374.928 729.963C377.091 731.866 379.18 733.855 381.37 735.726C382.129 736.375 382.758 737.467 384.112 737.007C384.522 736.868 384.922 737.223 384.988 737.625C385.288 739.45 386.89 740.063 388.099 741.018C396.812 747.907 405.853 754.361 415.176 760.377C423.661 765.852 432.466 770.738 441.994 774.359C452.681 778.422 463.683 781.175 474.789 783.639C476.815 784.088 478.901 784.388 480.972 784.478C485.144 784.659 489.265 785.32 493.412 785.638C500.542 786.186 507.633 786.093 514.664 784.114C519.099 782.865 523.736 782.303 528.254 781.265C532.804 780.219 537.205 778.77 541.575 777.17C560.715 770.165 578.861 761.111 596.289 750.589C602.061 747.105 607.998 743.904 613.677 740.257C631.402 728.873 648.317 716.358 664.865 703.359C676.636 694.112 686.88 683.295 695.74 671.202C696.443 670.243 697.13 669.262 697.718 668.23C705.543 654.504 712.376 640.332 717.24 625.254C721.216 612.931 723.332 600.225 725.476 587.501C727.127 577.708 728.119 567.829 729.763 558.038C730.468 553.836 730.588 549.539 731.144 545.308C731.804 540.29 732.651 535.297 733.409 530.292C733.601 529.023 733.933 527.759 733.627 526.434C732.732 526.788 732.722 527.667 732.413 528.353C728.602 536.803 723.586 544.533 718.366 552.161C705.019 571.667 688.692 588.396 670.77 603.668C662.15 611.013 653.423 618.227 644.595 625.32C644.443 625.332 644.34 625.409 644.285 625.551C644.258 625.769 644.136 625.874 643.917 625.867C643.555 625.856 643.236 625.772 643.101 625.38C650.378 618.63 658.004 612.277 665.607 605.909C688.879 586.419 708.748 564.01 724.473 537.998C727.604 532.818 730.526 527.526 732.519 521.777C732.646 521.412 732.769 520.799 732.991 520.751C735.153 520.285 734.69 518.504 734.999 517.047C737.443 505.522 737.273 493.738 738.532 482.097C739.441 473.683 739.531 465.231 739.664 456.796C739.8 448.154 740.211 439.519 740.281 430.877C740.354 421.733 740.695 412.604 741.327 403.479C741.904 395.154 742.103 386.803 742.725 378.482C743.198 372.138 743.776 365.792 743.663 359.439C743.483 349.213 744.255 338.983 743.4 328.761C742.784 321.405 743.56 314.083 744.012 306.742C744.738 294.948 745.564 283.142 744.692 271.308C744.591 269.932 744.724 268.534 744.822 267.151C744.868 266.501 745.342 266 745.974 265.962C746.622 265.923 747.023 266.458 747.248 267.039C747.353 267.309 747.416 267.622 747.396 267.909C747.071 272.681 748.124 277.403 747.764 282.196C747.213 289.526 747.552 296.901 746.853 304.232C746.646 306.407 746.396 308.583 746.317 310.764C746.275 311.934 745.609 313.3 747.214 314.192C747.745 314.487 747.453 315.497 747.438 316.186C747.135 329.795 746.823 343.403 746.531 357.012C746.506 358.177 746.259 359.367 746.654 360.511C747.675 360.644 747.512 359.82 747.636 359.373C748.216 357.271 748.77 355.159 749.247 353.032C751.678 342.186 755.671 332.001 761.909 322.746C763.541 320.325 765.351 318.149 768.113 316.927C769.676 316.235 771.267 315.529 772.972 315.866C774.648 316.198 774.947 315.278 775.253 314.035C775.558 312.792 775.403 311.217 777.149 310.719C777.695 311.967 776.848 312.915 776.718 313.966C775.459 324.177 775.471 334.376 777.255 344.52C778.068 349.144 780.136 353.363 782.198 357.548C782.439 358.037 782.641 358.777 783.383 358.704C784.056 358.637 784.221 357.972 784.449 357.433C785.164 355.751 785.154 353.933 785.365 352.171C786.118 345.869 787.177 339.614 787.622 333.259C788.123 326.103 788.098 318.966 787.987 311.817C787.952 309.517 787.653 309.38 785.276 308.621C782.95 307.879 780.646 307.654 778.175 308.485C777.336 305.589 777.035 302.668 777.017 299.699C776.968 291.697 777.891 283.876 780.84 276.347C782.095 273.141 784.012 270.672 787.051 269.061C788.714 268.179 790.309 267.224 791.61 265.792C792.567 264.738 793.989 264.376 795.34 264.08C797.99 263.499 799.117 264.137 800.267 266.667C801.965 270.403 802.81 274.335 803.433 278.39C805.503 291.874 806.283 305.448 806.558 319.059C806.742 328.199 808.251 337.208 809.024 346.289C809.487 351.731 809.124 357.224 810.129 362.63C811.021 367.432 811.419 372.295 811.254 377.167C810.898 387.684 812.477 397.955 814.871 408.14C818.638 424.167 822.432 440.188 826.17 456.222C828.152 464.726 831.207 472.966 832.883 481.512C834.707 490.81 837.699 499.72 840.707 508.625C844.369 519.466 849.892 529.472 855.654 539.325C858.235 543.738 860.914 548.095 863.535 552.486C863.931 553.149 864.225 553.699 862.931 553.761C862.276 553.791 862.684 554.532 862.87 554.946C863.436 556.212 863.974 557.494 864.604 558.728C868.571 566.502 870.042 574.844 870.251 583.47C870.337 587.047 870.052 590.618 869.97 594.188C869.813 601.038 869.788 607.909 870.135 614.75C870.748 626.85 872.029 638.894 873.522 650.925C875.263 664.955 878.93 678.569 881.819 692.352C883.02 698.081 884.376 703.776 885.291 709.566C885.957 713.781 887.456 717.805 888.304 721.995C889.703 728.919 890.091 735.979 891.314 742.906C892.299 748.484 893.334 754.017 893.699 759.687C894.171 767.02 893.447 774.17 891.149 781.14C889.223 786.978 887.299 792.812 885.942 798.817C885.86 799.181 885.68 799.524 885.316 800.479C884.613 796.722 884.861 793.588 885.522 790.501C886.52 785.847 887.777 781.246 888.729 776.583C890.79 766.483 890.085 756.423 887.976 746.417C887.504 744.181 887.019 741.952 886.862 739.666C886.236 730.522 884.122 721.649 882.297 712.696C879.541 699.182 876.758 685.669 873.811 672.2C871.405 661.205 869.857 650.101 868.738 638.957C867.36 625.228 866.141 611.446 866.878 597.61C867.195 591.653 867.485 585.699 867.328 579.737C867.159 573.333 865.728 567.212 863.451 561.2C859.647 551.156 854.838 541.669 849.39 532.413C844.875 524.742 840.621 516.85 837.875 508.296C836.39 503.674 835.073 499.001 833.328 494.46C831.964 490.915 831.82 487.084 831 483.408C830.698 482.054 830.471 480.671 830.032 479.361C823.786 460.698 819.693 441.486 815.414 422.32C813.555 413.994 811.594 405.689 809.864 397.336C808.735 391.886 808.161 386.348 808.268 380.757C808.401 373.784 807.786 366.866 806.674 359.985C806.469 358.714 806.358 357.415 806.341 356.128C806.211 346.376 804.931 336.71 804.004 327.026C803.631 323.129 803.242 319.365 804.359 315.55C804.745 314.234 804.342 313.155 802.989 312.331C800.895 311.056 799.752 308.899 798.573 306.817C795.599 301.568 794.176 295.783 792.821 289.991C791.353 283.718 789.718 277.474 788.938 271.056C788.918 270.891 788.729 270.747 788.548 270.492C786.078 271.575 784.468 273.448 783.41 275.905C780.189 283.388 778.67 291.234 778.456 299.343C778.391 301.805 778.242 304.291 778.743 306.981C781.012 306.24 783.239 305.938 785.48 306.323C789.108 306.946 790.086 306.984 790.32 311.367C790.75 319.402 790.424 327.447 790.255 335.495C790.129 341.488 791.205 347.542 792.419 353.46C792.842 355.525 794.537 357.233 794.809 359.489C795.388 364.307 796.683 369.042 796.32 373.966C796.195 375.652 796.425 377.323 796.868 378.978C797.199 380.218 797.54 381.532 797.471 382.79C797.1 389.597 798.773 396.211 799.248 402.936C799.62 408.185 801.032 413.295 801.491 418.549C802.225 426.966 804.093 435.186 805.94 443.418C807.395 449.904 808.148 456.534 808.836 463.143C810.338 477.568 812.174 491.957 815.507 506.066C817.163 513.075 820.082 519.78 822.313 526.66C825.133 535.352 828.818 543.696 832.38 552.088C833.65 555.08 834.263 558.358 836.233 561.052C836.414 561.3 836.312 561.681 836.039 561.795C835.813 561.888 835.458 561.844 835.229 561.726C834.387 561.294 833.952 560.488 833.586 559.673C828.237 547.745 821.826 536.273 818.146 523.625C817.4 521.058 816.486 518.532 815.514 516.039C813.305 510.374 811.826 504.553 810.948 498.523C809.619 489.391 807.616 480.35 806.752 471.157C806.026 463.441 805.049 455.762 804.163 448.068C803.717 444.197 802.373 440.55 801.683 436.74C800.215 428.63 799.401 420.422 798.034 412.312C796.846 405.257 796.615 398.087 795.094 391.092C794.927 390.322 794.848 389.506 794.897 388.722C795.142 384.824 794.874 380.993 793.755 377.229C793.505 376.387 793.34 375.432 793.468 374.579C794.163 369.957 792.962 365.498 792.428 360.981C792.228 359.291 791.792 357.695 790.876 356.222C789.752 354.414 789.276 352.396 789.249 350.271C789.225 349.477 789.411 348.642 788.951 347.75C788.4 348.473 788.533 349.064 788.538 349.636C788.175 351.787 787.806 353.938 787.451 356.091C787.116 358.115 786.437 359.993 784.574 361.063C783.82 361.496 783.723 362.127 783.552 362.739C783.342 363.495 783.263 364.31 783.265 365.098C783.309 378.605 782.685 392.114 783.719 405.618C784.106 410.661 783.968 415.746 784.017 420.813C784.098 429.181 785.511 437.359 787.128 445.546C788.875 454.398 790.863 463.194 792.74 472.016C793.565 475.894 795.175 479.615 795.432 483.591C795.843 489.967 797.675 496.067 798.733 502.315C798.949 503.591 799.283 504.829 799.772 506.03C802.94 513.819 804.781 521.892 804.918 530.321C804.943 531.827 805.322 533.251 805.684 534.699C807.519 542.039 810.369 549.006 813.33 555.939C814.77 559.31 816.065 562.743 817.452 566.137C817.68 566.696 817.875 567.229 817.817 567.868C816.837 567.903 816.725 567.094 816.403 566.585C809.924 556.336 805.44 545.266 803.012 533.392C802.397 530.383 803.043 527.238 802.361 524.197C801.124 518.689 800.102 513.124 797.816 507.909C797.617 507.456 797.374 507.001 797.288 506.522C796.205 500.481 794.529 494.541 794.014 488.407C793.748 485.231 793.373 482.097 792.546 479.015C789.923 469.242 787.706 459.383 786.192 449.369C785.6 445.451 784.426 441.646 784.004 437.679C783.28 430.871 782.453 424.099 782.591 417.212C782.737 409.868 782.012 402.535 781.553 395.2C781.036 386.965 781.221 378.711 781.379 370.464C781.431 367.792 781.287 365.077 782.193 362.502C782.445 361.787 782.297 361.493 781.751 361.048C781.152 360.559 780.603 359.925 780.241 359.243C777.343 353.777 774.903 348.111 774.391 341.879C774.026 337.431 773.481 332.973 773.725 328.492C773.918 324.942 774.205 321.398 774.467 317.595C770.697 317.968 767.927 319.711 765.894 322.502C762.913 326.593 760.159 330.852 758.174 335.538C752.812 348.199 749.546 361.449 746.724 374.871C744.955 383.29 745.209 391.788 744.536 400.247C743.315 415.611 743.556 431.028 743.162 446.421C742.893 456.944 742.705 467.468 742.059 477.975C741.705 483.724 741.157 489.462 740.664 495.202C740.519 496.892 740.496 498.538 740.886 500.223C742.628 507.755 744.373 515.293 745.447 522.956C745.851 525.835 747.102 528.458 747.626 531.294C748.364 535.282 749.462 539.225 748.511 543.645C750.784 543.284 752.856 542.835 754.98 543.144C754.789 544.098 754.132 544.085 753.565 544.126C752.473 544.205 751.432 544.507 750.369 544.715C748.47 545.085 747.507 546.141 747.043 547.964C745.109 555.555 742.729 563.041 741.902 570.885C741.263 576.939 741.447 583.003 741.769 589.05C742.048 594.301 741.576 599.597 742.643 604.804C742.862 605.873 742.96 606.974 743.26 608.018C746.416 619.012 745.73 630.217 745.275 641.436C744.993 648.394 744.16 655.291 743.587 662.216C742.874 670.823 742.297 679.457 742.606 688.116C742.983 698.648 742.866 709.183 742.609 719.715C742.564 721.587 742.953 723.212 743.871 724.801C747.335 730.789 751.606 736.09 757.006 740.45C762.42 744.82 768.673 747.048 775.538 747.709C778.061 747.952 780.586 748.179 783.094 748.527C772.448 750.974 756.911 749.731 742.798 727.869C742.798 730.624 742.669 733.142 742.822 735.643C743.306 743.589 743.57 751.525 742.709 759.463C742.494 761.444 742.221 763.416 741.562 765.292C740.108 769.435 739.445 773.757 738.553 778.027C737.208 784.469 738.011 790.904 738.882 797.299C739.275 800.183 739.217 803.274 741.204 805.76C741.489 806.116 741.389 806.491 741.067 806.804C740.763 807.1 740.397 807.248 739.989 807.126C738.732 806.748 738.075 805.778 737.617 804.632C736.805 802.598 736.303 800.477 735.865 798.337C735.048 794.339 734.553 790.296 734.348 786.228C734.005 779.402 735.458 772.81 737.165 766.264C737.29 765.784 737.432 765.305 737.617 764.846C738.721 762.107 738.685 759.768 736.501 757.288C733.479 753.858 731.561 749.636 729.563 745.527C723.574 733.213 718.352 720.56 713.007 707.963C709.443 699.563 708.09 690.629 706.865 681.664C706.075 675.88 705.547 670.074 705.198 663.962C704.028 664.659 703.723 665.627 703.34 666.447C700.711 672.079 696.974 676.982 693.123 681.779C684.493 692.529 674.376 701.732 663.476 710.143C651.835 719.125 639.737 727.468 627.801 736.033C622.81 739.615 617.571 742.882 612.266 745.986C597.894 754.395 583.591 762.944 568.489 770.029C557.356 775.251 545.931 779.779 534.043 782.887C525.15 785.212 516.057 786.779 507.042 788.627C505.398 788.965 503.684 788.954 502.028 789.248C500.199 789.572 498.612 788.645 496.89 788.454C493.634 788.094 490.352 787.819 487.098 787.688C471.671 787.068 457.034 783.102 442.576 778.009C428.689 773.118 416.326 765.491 404.122 757.506C402.387 756.372 400.651 755.24 398.344 753.733C400.447 762.882 403.358 771.094 407.264 778.969C411.196 786.897 416.04 794.259 421.362 801.344C420.463 802.075 420.169 801.258 419.843 800.962C415.406 796.928 411.635 792.347 408.484 787.236C402.013 776.739 397.441 765.492 395.186 753.362C394.858 751.6 394.087 750.521 392.738 749.558C390.638 748.058 388.622 746.44 386.535 744.92C386.017 744.544 385.572 743.87 384.483 744.2C381.188 769.968 381.561 795.677 386.861 820.98C385.846 820.294 385.675 820.096 384.987 818.302C383.81 815.232 383.116 812.027 382.532 808.81C379.81 793.795 378.764 778.656 379.571 763.417C379.913 756.973 380.416 750.525 381.742 744.19C382.112 742.421 381.69 741.38 380.259 740.173C374.262 735.118 368.431 729.867 362.539 724.689C362.315 724.419 362.038 723.902 361.708 724.278C361.307 724.733 361.607 725.32 361.925 725.798C362.849 730.26 364.167 734.636 364.642 739.197C365.614 748.527 365.141 757.836 364.551 767.163C364.1 774.296 363.947 781.447 363.427 788.581C363.108 792.949 362.355 797.244 361.6 801.543C361.515 802.022 361.292 802.478 361.117 802.938C360.862 803.609 360.337 803.821 359.69 803.646C359.11 803.488 358.99 802.958 359.041 802.458C359.251 800.385 359.442 798.307 359.75 796.248C360.68 790.04 360.857 783.763 360.874 777.529C360.899 769.081 361.49 760.663 361.708 752.229C361.927 743.713 361.158 735.387 359.004 727.165C358.702 726.015 358.259 724.826 358.313 723.674C358.448 720.786 356.825 719.056 354.951 717.166C344.879 707.006 335.054 696.614 326.736 684.914C325.319 682.92 323.96 680.885 322.589 678.891C321.747 679.115 322.013 679.671 322.04 680.103C322.665 690.214 324.139 700.238 325.188 710.305C326.116 719.214 328.562 727.811 330.755 736.468C334.85 752.631 340.637 768.257 345.627 784.135C347.588 790.372 350.469 796.275 353.169 802.231C353.58 803.138 354.831 804.362 353.51 805.066C352.186 805.77 351.499 804.181 350.979 803.209C348.22 798.049 345.631 792.789 343.697 787.267C340.226 777.356 336.933 767.382 333.605 757.421C332.106 752.936 330.703 748.419 329.181 743.686C326.634 745.829 324.181 747.834 320.868 748.135C320.149 747.963 319.31 748.378 318.694 747.695C321.154 747.247 323.451 746.413 325.495 744.928C328.289 742.897 328.743 741.717 327.771 738.351C325.186 729.399 322.515 720.449 321.421 711.171C320.341 702.014 318.734 692.926 318.013 683.721C317.626 678.782 316.931 673.863 316.242 668.953C315.485 663.554 315.056 658.122 314.199 652.726C313.197 646.415 311.618 640.329 309.172 634.446C308.462 632.738 308.119 631.062 309.35 629.378C310.081 628.377 310.722 628.323 311.4 629.307C311.943 630.094 312.387 630.95 313.179 632.29C313.351 630.987 313.514 630.169 313.56 629.344C313.89 623.4 314.3 617.459 314.487 611.51C314.805 601.393 312.897 591.58 310.074 581.92C308.324 575.931 306.47 569.971 305.037 563.894C305.858 562.758 304.909 561.906 304.565 560.956Z" fill="#937B34"/>
<path d="M654.043 393.099C652.275 392.65 650.634 392.291 649.032 391.805C648.06 391.509 647.618 391.716 647.297 392.716C646.245 395.999 643.802 398.169 641.145 400.154C640.748 400.45 639.868 400.513 640.285 401.379C643.843 403.052 646.855 401.507 649.69 399.648C651.92 398.186 654.097 396.515 654.043 393.099ZM615.731 399.888C617.112 400.215 618.479 399.884 620.016 399.828C619.436 397.943 618.647 396.132 619.08 393.884C620.156 394.735 619.886 395.94 620.274 396.832C621.483 399.615 623.371 400.501 626.075 399.436C626.774 399.161 626.756 398.567 626.973 398.039C627.497 396.766 628.071 395.514 628.621 394.252C628.887 393.645 629.121 393.018 629.942 392.465C630.015 394.432 628.976 395.92 628.587 397.555C628.435 398.195 627.851 398.909 628.567 399.412C629.299 399.927 630.238 400.123 631.05 399.475C632.281 398.494 633.487 397.479 634.667 396.437C635.328 395.854 635.915 395.189 636.535 394.561C636.977 394.743 637.042 395.131 637.07 395.539C636.273 397.297 634.504 398.247 633.391 399.889C635.106 401.148 636.648 400.273 638.134 399.619C642.16 397.847 645.315 394.601 646.388 391.25C636.683 388.086 626.874 385.452 616.557 385.409C605.486 385.363 595.214 388.18 585.848 394.103C584.113 395.2 582.309 396.314 581.272 398.253C580.949 398.859 580.316 398.956 579.749 398.529C579.255 398.157 579.431 397.679 579.672 397.206C580.415 395.75 581.571 394.64 582.833 393.686C588.169 389.65 593.967 386.605 600.511 384.895C607.392 383.097 614.302 382.118 621.395 382.792C629.712 383.582 637.74 385.633 645.638 388.315C654.545 391.34 663.684 393.495 672.957 395.043C675.392 395.45 677.885 395.512 680.351 395.738C680.81 395.78 681.368 395.547 681.66 396.254C672.476 397.033 663.584 395.137 654.622 393.235C655.414 397.252 652.463 399.813 646.608 403.234C648.494 404.7 650.396 404.967 652.624 404.168C656.061 402.934 660.11 400.496 662.729 397.794C662.164 400.696 661.006 401.727 653.442 406.063C655.475 407.527 656.294 407.686 658.678 406.746C660.235 406.132 661.722 405.342 663.24 404.631C663.484 404.857 663.728 405.083 663.972 405.309C662.464 406.923 660.406 407.633 658.358 408.658C660.951 410.65 663.385 411.561 666.459 409.63C669.141 407.944 671.67 406.096 674.114 404.106C674.559 404.271 674.623 404.649 674.641 405.053C672.308 408.126 669.019 409.983 665.73 411.899C673.919 417.785 681.906 416.823 689.958 411.098C689.21 413.235 688.113 414.094 683.265 416.343C687.438 417.133 695.27 414.072 704.577 408.01C705.34 408.595 704.646 409.094 704.408 409.511C703.046 411.89 701.053 413.684 698.786 415.152C693.457 418.605 687.636 420.758 681.29 421.233C678.206 421.463 675.173 420.809 672.235 419.846C666.959 418.116 661.958 415.834 657.038 413.208C650.941 409.954 645.167 406.045 638.593 403.689C635.202 402.474 631.73 401.776 628.159 401.649C623.695 401.49 619.235 401.625 614.809 402.349C613.615 402.545 612.525 402.942 611.548 403.666C606.072 407.727 603.402 413.24 603.125 419.977C603.041 422.015 603.57 423.893 604.745 425.592C606.916 428.732 609.523 431.217 613.065 432.95C616.351 434.559 619.63 435.556 623.252 435.748C626.99 435.947 630.374 434.913 633.304 432.763C637.475 429.703 640.792 425.954 641.332 420.456C641.4 419.767 641.558 419.086 641.693 418.405C642.737 413.16 640.789 409.761 636.389 406.827C635.92 406.514 635.174 406.586 634.961 405.775C636.005 404.94 636.987 405.795 637.806 406.121C642.185 407.864 645.025 412.459 644.853 417.197C644.514 426.565 639.915 433.138 631.507 436.976C625.662 439.645 619.731 439.057 613.976 436.463C610.911 435.082 608.012 433.528 605.577 431.005C601.434 426.713 599.752 422.006 601.269 416.104C602.206 412.461 603.649 409.191 606.195 406.419C606.85 405.706 607.463 404.955 608.322 403.958C606.961 403.79 606.008 404.115 605.057 404.444C596.812 407.296 588.851 410.792 581.243 415.067C580.22 415.641 579.345 416.48 578.402 417.196C578.107 417.213 577.813 417.23 577.518 417.248L577.477 417.207C577.46 416.968 577.443 416.728 577.426 416.489C577.91 415.885 578.393 415.28 579.006 414.513C574.911 413.464 571.742 411.346 570.133 407.407C569.185 405.084 569.548 402.981 571.44 399.518C571.784 401.93 570.408 403.921 571.264 406.058C572.125 408.208 573.49 409.8 575.36 410.985C577.193 412.146 579.196 412.804 581.504 412.252C575.93 407.933 575.145 405.919 578.19 402.051C577.527 404.474 577.503 406.242 578.809 407.73C580.03 409.122 581.632 409.843 583.34 410.422C584.44 410.795 585.416 410.78 586.443 410.136C588.874 408.609 591.53 407.512 594.284 406.269C593.383 403.919 591.47 401.948 591.64 398.591C592.83 400.674 593.565 402.344 594.541 403.868C595.362 405.152 596.051 405.632 597.636 404.932C600.231 403.786 602.97 402.968 605.971 401.896C602.863 398.669 599.866 395.473 602.095 390.265C602.751 391.433 602.155 392.234 602.189 393.025C602.309 395.805 605.477 400.175 608.114 401.077C609.179 401.441 610.278 401.105 611.354 400.986C612.236 400.888 613.109 400.706 613.985 400.561C614.567 400.337 615.149 400.112 615.731 399.888Z" fill="#937B34"/>
<path d="M380.289 391.591C380.129 389.87 379.735 388.125 380.942 385.939C381.393 388.643 381.378 390.889 382.33 392.908C382.656 393.601 382.717 394.615 383.704 394.63C384.981 394.648 386.328 394.686 387.459 393.944C388.076 393.54 387.622 392.853 387.601 392.311C387.535 390.574 387.344 388.831 388.68 387.35C388.522 389.058 388.458 390.747 388.701 392.424C388.808 393.163 389.114 393.748 390.061 393.506C390.346 393.433 390.652 393.428 390.949 393.416C392.238 393.365 393.619 393.594 394.792 393.2C395.974 392.803 395.108 390.938 396.24 390.225C396.382 390.289 396.67 390.372 396.665 390.422C396.333 393.336 396.33 393.329 399.173 393.314C401.457 393.302 403.754 393.178 406.011 393.586C406.925 393.75 407.512 393.562 408.052 392.835C408.931 391.651 409.875 390.514 410.981 389.119C411.258 391.237 409.417 392.166 409.087 393.91C412.357 394.838 415.718 395.564 418.875 396.929C419.9 397.372 420.803 396.814 421.637 396.234C423.344 395.047 424.806 393.565 426.738 391.741C426.149 394.992 424.107 396.575 422.364 398.318C423.715 400.09 425.254 400.135 427.148 399.514C429.311 398.805 430.913 397.396 432.571 395.981C433.487 395.199 433.994 393.907 435.372 393.676C433.946 397.516 430.779 399.659 427.284 401.575C428.226 402.51 429.519 402.162 430.224 403.451C430.934 404.75 432.635 404.876 434.243 404.536C437.21 403.909 440.111 403.033 443.469 401.993C441.304 405.338 437.766 405.315 435.193 407.078C440.018 408.105 444.395 406.769 449.172 404.729C444.711 401.057 440.964 397.273 437.034 393.684C436.688 393.368 436.336 392.994 435.746 393.1C435.294 393.18 435.457 393.537 435.342 393.768C435.803 393.695 436.093 393.402 435.923 392.974C435.786 392.629 435.465 392.323 435.16 392.083C428.591 386.921 421.754 382.238 413.487 380.17C409.597 379.198 405.627 379.378 401.667 379.414C389.651 379.525 377.883 381.651 366.11 383.75C365.596 383.658 364.992 383.871 364.612 383.315C368.571 381.709 372.735 380.883 376.901 380.048C386.154 378.192 395.505 377.243 404.925 376.814C412.531 376.469 419.398 378.684 425.804 382.578C429.969 385.109 433.953 387.931 437.439 391.336C442.697 396.472 447.933 401.625 453.38 406.564C454.322 407.418 455.377 408.282 455.321 409.752C455.308 410.096 455.284 410.604 454.701 410.568C454.402 410.549 454.195 410.432 454.098 410.067C453.483 407.746 451.265 406.876 449.722 405.171C448.18 406.443 446.735 407.742 444.826 408.352C443.026 408.928 441.209 409.359 439.226 409.598C439.804 411.021 440.894 411.371 442.239 411.357C444.651 411.332 446.921 410.628 449.197 409.952C449.748 409.789 450.203 409.279 450.863 409.508C449.505 411.519 448.667 411.948 442.924 413.442C446.239 415.344 448.39 418.142 451.366 419.959L451.369 419.956C450.986 421.557 450.137 421.076 449.307 420.384C447.601 418.963 445.922 417.509 444.233 416.067C444.234 416.065 444.356 416.042 444.356 416.042C444.128 416.043 443.985 415.934 443.926 415.714C443.899 415.568 443.813 415.483 443.667 415.46C440.576 413.165 437.488 410.869 434.395 408.577C433.126 407.637 431.923 406.609 430.222 406.448C429.441 406.374 428.615 405.966 428.273 405.225C427.525 403.601 425.992 402.953 424.566 402.459C421.912 401.54 419.596 399.684 416.572 399.723C415.085 399.742 413.949 398.4 412.443 398.156C407.141 397.298 401.814 396.896 396.441 397.068C395.191 397.108 394.156 397.495 393.178 398.277C387.315 402.968 384.713 408.932 385.308 416.514C385.676 421.195 388.079 424.059 391.753 426.516C397.112 430.1 402.869 430.879 409.054 429.8C410.447 429.557 411.747 429.089 412.91 428.329C418.465 424.697 421.932 419.81 422.077 412.934C422.121 410.873 421.511 409.017 420.505 407.278C419.439 405.434 418.292 403.637 417.044 401.599C422.601 403.683 425.781 409.27 425.382 414.806C424.583 425.882 413.277 434.49 401.555 432.623C396.704 431.85 392.446 430.018 388.659 427.027C385.672 424.667 383.883 421.69 383.562 417.694C382.976 410.396 385.016 404.2 390.297 399.096C390.566 398.836 390.926 398.591 390.855 397.805C387.894 398.217 385.004 398.913 382.15 399.718C377.842 400.932 373.829 402.876 369.915 405.011C367.128 406.532 364.256 407.863 361.304 409.008C356.752 410.775 352.046 411.293 347.293 410.051C340.422 408.256 334.335 405.129 330.077 399.164C329.686 398.616 329.169 398.095 329.332 397.086C330.259 397.02 330.828 397.752 331.492 398.189C335.713 400.974 339.939 403.766 344.959 404.923C348.436 405.724 351.944 406.416 355.817 405.097C351.052 403.601 347.616 401.031 346.118 396.453C352.579 402.856 353.871 403.431 361.098 402.673C358.836 400.425 355.555 399.047 355.784 395.327C357.65 398.075 359.967 400.137 363.117 401.315C364.933 401.994 366.346 401.738 367.712 400.425C363.441 397.707 363.206 397.424 363.156 394.632C365.713 397.817 368.272 400.602 372.878 398.207C371.353 396.414 368.654 395.729 368.59 392.557C372.735 397.423 375.305 398.196 380.163 395.141C380.974 395.127 381.504 394.756 381.195 393.923C380.905 393.144 380.935 392.23 380.289 391.591Z" fill="#937B34"/>
<path d="M815.465 574.329C816.779 577.836 817.515 581.508 818.395 585.137C821.675 598.661 824.161 612.367 825.229 626.208C826.31 640.215 829.431 653.865 831.206 667.734C831.898 673.147 832.188 678.607 832.62 684.043C833.165 690.889 834.436 697.604 835.429 704.373C836.971 714.889 840.49 724.941 842.51 735.342C843.304 739.434 843.801 743.558 844.387 747.677C845.209 753.463 846.411 759.195 847.247 764.979C848.948 776.763 850.695 788.543 851.72 800.412C851.926 802.801 851.718 805.175 851.273 807.53C851.151 808.176 850.85 808.758 850.164 808.629C849.447 808.495 849.513 807.818 849.543 807.182C849.949 798.696 848.486 790.363 847.388 782.006C847.013 779.154 846.466 776.329 846.367 773.441C846.162 767.471 845.014 761.627 844.038 755.754C842.901 748.918 842.893 741.911 841.002 735.184C839.633 730.316 838.227 725.457 837.175 720.507C836.454 717.115 835.655 713.729 835.618 710.239C835.612 709.722 835.48 709.32 835.333 708.852C833.575 703.265 832.359 697.549 831.364 691.782C830.451 686.486 830.297 681.113 829.887 675.775C829.398 669.414 828.113 663.205 827.064 656.945C825.966 650.388 824.321 643.934 823.469 637.33C822.947 633.283 823.307 629.198 822.675 625.148C820.746 612.797 819.37 600.364 816.948 588.086C816.055 583.557 815.488 578.963 814.773 574.399C815.004 574.375 815.234 574.352 815.465 574.329Z" fill="#937B34"/>
<path d="M430.561 655.795C430.704 655.535 430.803 655.234 430.997 655.019C439.465 645.656 447.911 636.272 459.547 630.605C467.934 626.521 476.794 624.689 486.067 625.459C490.105 625.794 494.219 626.898 497.319 629.608C499.092 631.156 500.929 632.148 503.024 632.396C507.679 632.946 512.358 632.786 516.818 631.091C519.118 630.217 521.515 629.436 523.38 627.733C524.093 627.081 524.827 627.23 525.586 627.252C533.294 627.468 540.756 629.053 547.816 632.057C556.214 635.631 564.266 639.911 571.69 645.294C574.052 647.006 576.13 648.95 577.674 651.439C578.711 653.111 579.175 654.852 578.46 656.807C578.173 656.692 577.909 656.673 577.829 656.541C575.019 651.878 570.736 648.87 566.223 646.089C558.123 641.098 549.94 636.281 540.972 632.958C536.217 631.196 531.281 630.208 526.316 629.289C525.291 629.099 524.647 629.213 523.98 629.977C521.725 632.563 518.785 633.501 515.445 634.109C512.086 634.721 508.775 635.018 505.399 634.908C502.136 634.803 499.016 633.93 496.625 631.727C493.296 628.658 489.23 627.876 485.102 627.853C477.208 627.809 469.587 629.475 462.272 632.553C453.695 636.161 446.701 641.972 440 648.218C437.317 650.718 434.666 653.254 432.001 655.774C431.521 655.781 431.041 655.788 430.561 655.795Z" fill="#937B34"/>
<path d="M580.837 659.029C577.79 661.647 574.113 662.273 570.421 662.921C562.691 664.277 555.239 662.507 547.765 660.984C543.694 660.155 539.651 659.186 535.573 658.4C532.262 657.762 529.038 658.477 525.949 659.608C516.189 663.183 506.092 664.568 495.828 663.403C486.746 662.373 477.65 661.862 468.542 661.331C466.533 661.214 464.597 661.628 462.662 662.039C457.005 663.238 451.34 663.891 445.54 663.083C442.807 662.702 439.992 663.045 437.27 662.313C436.526 662.113 435.793 661.978 434.752 661.228C435.956 661.228 436.696 661.132 437.402 661.243C442.239 662.004 447.109 661.634 451.965 661.701C454.769 661.739 457.515 661.118 460.15 660.347C466.865 658.383 473.676 658.615 480.522 658.915C486.871 659.192 493.187 659.899 499.52 660.346C504.669 660.709 509.803 659.801 514.914 659.081C518.561 658.567 522.046 657.511 525.507 656.298C530.044 654.709 534.642 654.896 539.287 655.911C546.148 657.41 552.969 659.098 559.923 660.172C563.992 660.801 568.028 660.745 572.078 660.266C575.01 659.918 577.935 659.5 580.837 659.029Z" fill="#937B34"/>
<path d="M427.287 666.302C429.86 666.251 431.354 667.196 432.858 667.981C437.472 670.391 441.35 673.817 445.273 677.166C452.688 683.497 460.496 689.267 469.253 693.619C477.788 697.861 486.717 700.565 496.406 699.875C502.736 699.423 508.919 698.09 515.1 696.746C519.352 695.822 523.603 694.891 527.87 694.042C531.088 693.401 534.134 692.259 537.215 691.181C539.14 690.508 540.403 689.302 541.368 687.596C543.203 684.354 544.283 680.899 544.5 677.174C544.533 676.604 544.312 675.975 544.802 675.478C545.985 678.897 545.564 681.905 542.994 688.333C543.874 688.883 544.514 688.122 545.137 687.824C550.857 685.083 556.294 681.818 561.763 678.62C566.135 676.064 570.691 673.927 575.432 672.163C576.103 671.914 576.735 671.696 577.426 672.006C577.617 672.632 577.246 672.885 576.753 673.088C566.891 677.153 558.363 683.589 549.074 688.672C540.505 693.361 531.495 696.765 521.761 698.193C516.08 699.027 510.425 700.082 504.689 700.413C501.522 700.596 498.401 700.906 495.274 701.46C492.016 702.038 488.709 701.393 485.523 700.832C475.067 698.989 465.476 694.947 456.579 689.097C448.579 683.837 441.52 677.438 434.217 671.327C432.204 669.642 430.026 668.176 427.287 666.302Z" fill="#937B34"/>
<path d="M435.054 434.256C435.844 434.555 436.356 434.506 436.869 434.195C436.321 433.904 435.793 433.881 435.054 434.256ZM429.188 437.701C430.387 439.96 430.27 442.092 429.933 444.601C432.869 442.907 435.455 441.415 438.094 439.892C437.637 439.054 437.084 438.414 436.935 437.69C436.585 435.99 435.477 436.078 434.257 436.371C432.635 436.76 431.029 437.214 429.188 437.701ZM428.414 446.994C429.885 444.24 428.995 441.765 428.551 439.307C428.349 438.192 427.548 437.888 426.537 438.296C424.894 438.96 423.204 439.538 421.746 440.589C421.915 441.992 423.454 442.838 423.113 444.768C422.249 443.703 421.503 442.889 420.882 441.989C420.337 441.198 419.813 441.09 418.888 441.401C417.116 441.997 415.291 442.486 413.453 442.829C411.339 443.224 411.322 443.135 410.953 445.893C410.144 442.166 407.619 443.069 405.505 442.928C404.12 442.835 404.246 443.881 404.067 444.71C403.886 445.55 404.028 446.497 403.228 447.201C402.288 446.461 402.935 445.598 403.068 444.876C403.349 443.358 402.681 442.71 401.304 442.423C399.466 442.04 397.633 441.627 395.819 441.147C394.542 440.809 393.51 440.905 393.025 442.372C391.99 441.789 393.114 441.023 392.632 440.515C392.116 439.973 391.307 440.08 390.739 439.744C388.082 438.175 387.832 441.271 386.277 442.018C385.902 440.729 387.037 440.042 387.439 438.86C386.345 438.272 385.35 437.426 384.027 438.074C382.923 438.614 382.43 440.016 380.538 440.641C381.152 439.645 381.486 439.118 381.805 438.58C382.104 438.076 382.627 437.698 382.666 437.047C378.041 434.624 379.357 434.442 375.374 437.699C373.571 439.173 371.898 440.804 370.025 442.224C371.573 438.982 374.532 436.98 377.068 434.445C373.516 431.463 371.028 434.619 367.826 435.844C369.133 433.858 370.897 433.26 372.616 432.239C370.83 430.705 368.552 430.075 366.83 428.454C367.902 427.783 368.533 428.621 369.191 428.91C377.599 432.612 385.962 436.426 394.855 438.869C399.151 440.049 403.447 441.106 407.972 441.186C412.52 441.266 416.868 440.528 420.983 438.709C424.533 437.14 428.195 436.043 431.973 435.257C432.458 435.156 433.147 435.267 433.4 434.979C433.885 434.427 432.637 434.489 432.863 434.155C433.108 433.794 433.646 433.539 434.103 433.429C437.365 432.643 440.638 431.899 443.912 431.16C444.29 431.075 444.853 430.925 445.057 431.109C445.887 431.854 446.67 432.384 447.888 432.027C450.534 431.251 453.315 430.915 455.778 429.562C456.814 428.992 456.738 428.326 456.112 427.395C455.162 425.984 454.068 424.724 452.854 423.549C452.619 423.321 452.656 423.03 452.841 422.762C453.051 422.458 453.359 422.485 453.623 422.601C455.675 423.501 457.346 426.982 457.232 429.098C457.142 430.767 455.995 431.037 454.986 431.455C451.965 432.708 448.741 433.256 445.557 433.933C443.53 434.365 441.496 434.768 439.48 435.246C437.795 435.646 437.736 435.934 438.246 437.795C438.608 439.116 439.082 439.638 440.5 438.89C441.891 438.157 443.403 437.636 444.897 437.125C445.695 436.852 446.626 436.489 447.409 437.76C440.594 439.751 434.522 443.113 428.414 446.994Z" fill="#937B34"/>
<path d="M529.986 578.631C534.573 578.392 538.803 577.088 542.597 574.516C543.059 574.203 543.51 573.722 543.188 573.025C542.827 572.242 542.138 572.153 541.441 572.344C537.164 573.517 533.301 575.487 529.986 578.631ZM529.974 577.984C526.503 580.675 523.579 583.106 521.443 586.397C520.151 588.387 518.933 590.413 517.397 592.259C511.98 598.771 503.317 597.989 498.037 592.541C496.317 590.766 494.692 588.845 493.328 586.79C488.751 579.894 482.385 575.124 475.293 571.163C474.602 570.777 473.909 570.394 473.234 569.982C473.085 569.892 473.008 569.686 472.885 569.517C473.568 569.039 474.147 569.465 474.754 569.703C482.598 572.779 489.129 577.589 494.196 584.354C496.037 586.812 497.816 589.305 500.102 591.419C504.706 595.678 512.006 595.523 516.021 590.74C517.412 589.084 518.702 587.427 519.86 585.586C524.738 577.826 531.675 572.639 540.379 569.798C541.435 569.453 542.449 569.259 543.554 569.742C546.426 570.997 547.195 574.618 544.727 576.497C541.037 579.308 536.806 580.989 532.105 581.12C530.111 581.176 529.928 580.842 529.974 577.984Z" fill="#937B34"/>
<path d="M828.337 321.468C830.757 323.116 831.287 325.111 831.531 327.211C832.016 331.379 831.556 335.537 831.363 339.702C830.932 349.031 828.139 357.822 825.386 366.627C824.469 369.56 823.484 372.471 822.571 375.404C820.722 381.345 816.944 386.264 814.091 391.999C812.952 390.603 813.613 389.504 814.003 388.515C815.019 385.936 816.256 383.442 817.214 380.843C819.617 374.325 820.94 367.48 823.061 360.882C826.122 351.362 827.31 341.532 828.389 331.673C828.741 328.452 828.711 325.2 828.337 321.468Z" fill="#937B34"/>
<path d="M634.93 443.226C635.406 444.936 636.55 446.085 636.489 447.933C635.116 447.415 634.903 446.15 634.297 445.3C633.435 444.093 632.582 443.286 630.908 443.457C629.045 443.647 627.148 443.5 625.188 443.5C624.885 445.513 626.372 447.097 626.298 449.26C624.679 448.072 624.039 446.454 623.497 444.907C622.993 443.473 622.247 442.891 620.751 442.788C619.286 442.687 617.841 442.254 616.393 441.941C614.416 441.514 614.422 441.505 613.806 443.514C613.643 444.047 613.449 444.57 613.125 445.519C612.536 444.532 612.64 443.871 612.649 443.246C612.685 440.842 612.671 440.918 610.496 440.348C609.584 440.109 609.079 440.165 608.524 440.98C608.064 441.656 608.012 442.731 606.938 442.931C606.538 442.27 607.084 441.783 607.207 441.235C607.311 440.77 607.513 440.328 607.749 439.652C604.484 439.013 601.514 436.847 598.166 438.95C597.725 437.995 598.833 437.923 598.658 437.222C594.393 434.811 590.783 435.667 587.823 439.858C588.088 437.756 589.805 436.926 591.022 435.399C587.384 434.677 583.815 434.455 580.205 434.401C582.807 432.965 585.592 433.426 588.336 433.614C596.687 434.187 604.665 436.646 612.635 438.878C624.725 442.264 636.455 441.952 648.068 437.179C648.975 436.807 649.929 436.543 650.871 436.263C650.988 436.229 651.17 436.412 651.585 436.636C649.825 437.672 648.188 438.635 646.452 439.657C647.837 441.493 649.493 443.106 649.996 446.143C648.342 444.325 647.146 443.001 645.94 441.686C645.08 440.748 644.273 440.324 642.849 440.956C640.429 442.03 637.841 442.721 634.93 443.226Z" fill="#937B34"/>
<path d="M228.536 680.602C228.651 683.47 228.637 685.866 228.54 688.261C228.178 697.183 227.801 706.103 227.428 715.024C227.067 723.647 226.703 732.27 226.343 740.893C225.843 752.884 224.742 764.853 225.017 776.872C225.03 777.466 225.018 778.064 224.972 778.656C224.94 779.065 224.798 779.39 224.254 779.357C223.801 779.329 223.842 778.994 223.82 778.747C223.767 778.155 223.772 777.558 223.76 776.963C223.53 764.95 224.115 752.96 224.756 740.97C225.112 734.333 225.368 727.69 225.657 721.049C226.024 712.626 226.364 704.201 226.745 695.779C226.942 691.42 227.2 687.065 227.444 682.708C227.476 682.137 227.296 681.496 228.536 680.602Z" fill="#937B34"/>
<path d="M550.953 401.01C551.969 404.443 549.761 406.482 548.229 408.735C543.61 415.528 541.459 423.208 540.044 431.153C539.037 436.811 538.339 442.515 537.766 448.232C537.592 449.966 537.209 451.719 538.15 453.745C536.306 453.005 536.429 451.718 536.247 450.614C535.546 446.358 535.989 442.105 536.373 437.862C537.09 429.944 538.335 422.131 541.779 414.859C544.153 409.847 547.042 405.16 550.953 401.01Z" fill="#937B34"/>
<path d="M470.895 401.217C473.5 402.542 475.287 404.647 476.885 406.904C483.592 416.375 486.93 426.893 486.202 438.52C485.892 443.471 484.462 448.273 483.428 453.121C483.346 453.505 483.224 453.893 483.045 454.239C482.854 454.607 482.509 454.815 482.068 454.726C481.526 454.618 481.576 454.149 481.612 453.793C481.883 451.13 481.956 448.42 482.521 445.818C484.162 438.26 483.48 430.783 481.86 423.373C480.229 415.91 476.77 409.229 472.29 403.068C471.835 402.443 471.36 401.834 470.895 401.217Z" fill="#937B34"/>
<path d="M557.207 556.121C560.337 557.802 562.059 560.433 562.609 563.808C563.479 569.137 562.744 574.299 560.498 579.174C557.537 585.6 552.064 588.926 545.502 590.742C544.274 591.082 543.034 591.502 541.716 591.367C541.111 591.305 540.457 591.211 540.477 590.437C540.492 589.862 541.03 589.732 541.537 589.601C543.158 589.181 544.804 588.815 546.373 588.243C554.66 585.22 558.445 578.84 559.606 570.465C560.301 565.445 560.157 560.616 557.207 556.121Z" fill="#937B34"/>
<path d="M533.18 708.908C521.645 714.988 485.354 716.173 477.527 710.815C479.592 710.393 481.297 710.593 482.964 710.843C489.153 711.771 495.369 712.495 501.626 712.338C508.961 712.154 516.261 711.392 523.521 710.287C526.736 709.797 529.96 709.366 533.18 708.908Z" fill="#937B34"/>
<path d="M343.99 315.647C345.795 315.589 347.15 316.592 348.551 317.449C354.313 320.975 359.591 325.154 364.71 329.54C368.625 332.894 372.519 336.273 376.079 340.013C377.45 341.453 378.724 342.967 379.509 344.819C379.69 345.247 379.967 345.819 379.433 346.163C378.943 346.479 378.57 346.168 378.224 345.721C369.8 334.848 358.899 326.765 347.886 318.808C346.547 317.84 345.038 317.089 343.99 315.647Z" fill="#937B34"/>
<path d="M670.38 334.833C663.519 338.974 657.173 342.745 651.668 347.704C646.179 352.649 640.547 357.438 635.42 363.622C636.131 356.399 662.345 334.871 670.38 334.833Z" fill="#937B34"/>
<path d="M416.971 365.09C409.044 351.993 398.421 341.47 386.646 331.947C388.552 332.377 390.026 333.488 391.469 334.58C400.232 341.205 408.012 348.816 414.392 357.796C415.192 358.923 415.873 360.142 416.53 361.361C417.135 362.483 417.526 363.68 416.971 365.09Z" fill="#937B34"/>
<path d="M626.918 366.12C630.272 355.951 649.303 338.182 659.123 335.845C652.943 339.978 646.85 344.198 641.53 349.447C636.257 354.65 631.499 360.283 626.918 366.12Z" fill="#937B34"/>
<path d="M565.438 387.477C566.571 380.248 586.022 359.075 592.858 357.428C581.93 365.905 574.299 376.815 565.438 387.477Z" fill="#937B34"/>
<path d="M587.928 377.929C588.004 375.595 589.302 373.882 590.623 372.216C594.822 366.924 599.311 361.883 604.062 357.08C606.713 354.398 609.276 351.618 612.253 349.279C613.235 348.507 614.158 347.631 615.672 347.483C610.954 352.439 606.212 357.373 601.524 362.357C596.808 367.371 592.366 372.63 587.928 377.929Z" fill="#937B34"/>
<path d="M431.248 373.419C423.513 360.59 414.193 349.951 403.754 340.109C409.931 341.385 431.243 366.766 431.248 373.419Z" fill="#937B34"/>
<path d="M474.547 585.58C474.3 586.775 473.526 586.966 472.896 586.926C469.424 586.706 466.074 586.01 463.031 584.181C457.313 580.745 452.719 576.593 453.221 569.055C455.771 572.912 457.68 577.194 461.553 580.097C465.437 583.007 469.7 584.803 474.547 585.58Z" fill="#937B34"/>
<path d="M630.589 344.801C624.387 348.723 618.918 353.393 613.99 358.703C609.084 363.99 603.99 369.103 599.514 374.856C598.643 373.815 599.317 373.259 599.639 372.733C600.782 370.872 602.006 369.041 603.558 367.504C608.989 362.128 614.021 356.352 619.759 351.285C622.513 348.853 625.413 346.617 628.759 345.038C629.254 344.804 629.722 344.243 630.589 344.801Z" fill="#937B34"/>
<path d="M641.764 342.266C639.513 344.95 636.866 346.981 634.303 349.081C628.543 353.801 623.12 358.856 618.4 364.633C616.835 366.547 615.246 368.445 614.117 370.673C613.943 371.017 613.651 371.358 613.176 371.107C612.787 370.9 612.623 370.515 612.748 370.112C613.163 368.769 613.968 367.636 614.803 366.531C619.543 360.255 625.002 354.676 631.148 349.776C634.087 347.433 637.075 345.151 640.048 342.851C640.488 342.51 640.897 342.017 641.764 342.266Z" fill="#937B34"/>
<path d="M649.652 355.36C652.49 348.361 669.27 336.88 677.078 336.521C677.242 337.229 676.676 337.278 676.243 337.475C667.402 341.486 659.455 346.796 652.592 353.695C651.804 354.487 651.06 355.482 649.652 355.36Z" fill="#937B34"/>
<path d="M392.893 353.229C384.849 342.123 374.544 333.488 364.76 324.306C366.003 324.45 366.874 325.262 367.738 325.97C375.869 332.627 383.728 339.58 390.651 347.521C391.43 348.415 392.154 349.362 392.836 350.332C393.423 351.168 393.768 352.082 392.893 353.229Z" fill="#937B34"/>
<path d="M425.101 348.174C426.848 348.513 428.014 349.762 429.204 350.867C436.142 357.316 442.26 364.471 447.44 372.41C448.194 373.567 448.975 374.735 449.325 376.101C449.436 376.534 449.739 377.137 448.984 377.305C448.572 377.396 448.275 377.105 448.079 376.713C446.964 374.487 445.473 372.502 444.074 370.455C438.731 362.641 432.806 355.336 425.58 349.158C425.315 348.931 424.948 348.733 425.101 348.174Z" fill="#937B34"/>
<path d="M362.057 614.374C361.588 614.736 361.298 614.426 360.985 614.194C353.309 608.514 346.287 602.098 339.687 595.212C338.94 594.433 338.127 593.673 337.73 592.624C337.577 592.218 337.716 591.786 338.033 591.549C338.364 591.301 338.773 591.377 339.085 591.713C339.287 591.93 339.509 592.13 339.715 592.344C346.455 599.357 353.42 606.137 360.643 612.652C361.188 613.143 361.873 613.577 362.057 614.374Z" fill="#937B34"/>
<path d="M233.484 711.892C232.348 699.426 233.517 687.15 233.539 674.87C235.098 686.75 234.411 698.685 234.556 710.597C234.562 711.112 234.351 711.558 233.484 711.892Z" fill="#937B34"/>
<path d="M556.895 394.352C557.223 388.702 569.091 372.298 576.217 367.446C569.524 376.225 562.16 384.527 556.895 394.352Z" fill="#937B34"/>
<path d="M405.466 358.895C398.267 349.481 389.655 341.597 381.977 332.891C382.35 332.504 382.652 332.602 382.86 332.804C389.743 339.51 396.704 346.141 403.082 353.344C404.133 354.531 405.082 355.805 405.694 357.282C405.87 357.707 406.055 358.211 405.466 358.895Z" fill="#937B34"/>
<path d="M441.014 374.14C438.62 372.595 437.919 370.453 436.609 368.821C435.186 367.05 433.909 365.161 432.496 363.382C431.144 361.679 429.745 360.008 428.28 358.401C426.747 356.721 425.071 355.171 423.53 353.497C422.058 351.897 420.681 350.21 419.74 349.118C423.464 349.921 438.754 367.022 441.014 374.14Z" fill="#937B34"/>
<path d="M361.835 335.832C358.551 332.543 354.709 330.124 350.98 327.564C347.239 324.997 343.287 322.777 339.258 320.724C339.492 319.686 340.225 319.947 340.674 320.074C341.618 320.342 342.539 320.732 343.421 321.17C349.308 324.092 354.67 327.829 359.807 331.895C361.021 332.856 362.19 333.937 361.835 335.832Z" fill="#937B34"/>
<path d="M620.552 449.755C609.655 450.559 599.36 448.35 589.652 443.34C589.707 442.409 590.301 442.364 590.882 442.49C591.454 442.613 592.001 442.865 592.547 443.087C604.116 447.798 608.517 448.806 620.552 449.755Z" fill="#937B34"/>
<path d="M843.736 602.321C842.618 600.622 842.646 598.613 842.337 596.749C841.411 591.173 839.932 585.728 838.644 580.238C838.382 579.122 837.843 578.072 837.373 576.836C838.582 576.865 839.048 577.639 839.316 578.408C841.899 585.806 844.109 593.292 844.29 601.216C844.299 601.614 844.247 602.012 843.736 602.321Z" fill="#937B34"/>
<path d="M593.506 363.302C589.441 367.617 585.4 371.954 581.302 376.236C579.394 378.229 577.545 380.261 575.978 382.527C575.073 382.259 575.303 381.692 575.513 381.112C576.098 379.496 577.168 378.184 578.292 376.95C582.745 372.057 587.449 367.41 592.288 362.9C592.725 362.939 593.174 362.943 593.506 363.302Z" fill="#937B34"/>
<path d="M848.998 633.716C847.161 624.779 844.357 616.183 843.869 606.892C844.329 607.413 843.952 606.98 844.347 607.024C844.423 607.033 844.532 607.083 844.557 607.143C844.785 607.688 845.097 608.221 845.202 608.79C846.643 616.68 848.465 624.5 849.584 632.45C849.635 632.816 849.732 633.226 848.998 633.716Z" fill="#937B34"/>
<path d="M439.143 355.227C446.914 362.436 452.254 371.115 455.198 381.258C451.043 371.831 445.976 362.973 439.143 355.227Z" fill="#937B34"/>
<path d="M329.669 323.391C337.443 325.191 344.567 327.968 350.408 333.592C350.072 333.978 350.021 334.06 349.949 334.113C349.873 334.168 349.739 334.256 349.697 334.228C343.411 330.036 336.46 327.167 329.612 324.089C329.582 324.076 329.625 323.903 329.669 323.391Z" fill="#937B34"/>
<path d="M664.207 350.062C663.444 348.509 664.368 348.018 665.045 347.537C670.812 343.442 677.154 341 684.367 341.073C677.363 343.412 670.258 345.495 664.207 350.062Z" fill="#937B34"/>
<path d="M480.656 682.112C479.562 681.511 479.352 680.518 479.372 679.54C479.481 674.142 481.169 669.24 484.287 664.852C485.141 663.651 485.408 663.67 487.376 663.717C482.778 668.961 480.413 674.968 480.656 682.112Z" fill="#937B34"/>
<path d="M760.636 748.883C763.15 751.304 765.815 752.686 768.767 753.524C771.677 754.35 774.644 754.264 777.569 754.127C777.825 754.741 777.449 754.922 777.079 754.995C772.06 755.979 767.204 755.68 762.775 752.864C761.611 752.124 760.228 751.301 760.636 748.883Z" fill="#937B34"/>
<path d="M574.558 420.854C573.911 422.438 572.607 423.567 571.704 424.974C571.064 425.973 570.329 426.92 569.782 427.966C567.884 431.593 568.431 433.214 572.027 434.905C570.42 435.847 568.536 435.13 567.761 433.265C567.065 431.589 567.334 429.936 568.045 428.362C569.357 425.456 571.195 422.9 573.444 420.641C573.815 420.712 574.187 420.783 574.558 420.854Z" fill="#937B34"/>
<path d="M365.034 424.606C364.14 425.322 363.572 424.833 363.175 424.265C361.814 422.314 360.588 420.273 360.261 417.861C359.79 414.397 361.372 411.728 364.94 410.241C363.085 412.233 361.255 414.288 361.67 417.21C362.063 419.972 363.814 422.204 365.034 424.606Z" fill="#937B34"/>
<path d="M700.106 350.38C694.705 350.589 689.922 352.118 684.355 352.055C688.241 349.402 695.962 348.616 700.106 350.38Z" fill="#937B34"/>
<path d="M661.008 417.586C663.163 420.548 663.35 423.893 663.699 427.2C663.727 427.466 663.83 427.682 663.541 427.973C662.536 428.989 661.612 430.084 660.607 431.205C659.865 430.228 660.42 429.656 660.875 429.231C662.034 428.148 662.041 426.908 661.83 425.453C661.451 422.846 661.271 420.21 661.008 417.586Z" fill="#937B34"/>
<path d="M322.975 329.302C326.302 328.177 335.193 331.166 337.231 334.215C335.285 334.684 334.183 333.032 332.681 332.588C330.985 332.087 329.357 331.357 327.68 330.782C326.125 330.25 324.545 329.791 322.975 329.302Z" fill="#937B34"/>
<path d="M477.455 574.185C474.176 575.51 470.097 574.823 468.169 572.69C466.927 571.317 466.997 570 468.38 569.277C468.614 569.154 468.968 569.134 469.225 569.209C469.62 569.324 469.506 569.63 469.322 569.886C468.431 571.124 469.418 571.678 470.234 572.185C471.685 573.086 473.332 573.362 475.013 573.535C475.811 573.617 476.769 573.324 477.455 574.185Z" fill="#937B34"/>
<path d="M304.564 560.956C304.908 561.905 305.857 562.757 305.036 563.894C302.478 564.236 300.206 563.179 297.926 562.328C296.16 561.668 294.185 561.393 292.352 559.78C296.761 560.378 300.499 561.926 304.446 562.579C304.961 562.058 304.384 561.478 304.564 560.956Z" fill="#937B34"/>
<path d="M506.575 623.123C505.955 624.221 504.996 624.197 504.143 624.047C501.52 623.584 498.94 622.941 496.686 621.416C496.28 621.14 495.869 620.852 495.531 620.501C495.166 620.122 495.034 619.642 495.444 619.19C495.792 618.806 496.149 619.03 496.49 619.231C497.507 619.831 498.479 620.533 499.55 621.014C501.779 622.014 504.09 622.807 506.575 623.123Z" fill="#937B34"/>
<path d="M509.312 626.836C505.124 629.309 497.4 627.105 495.766 622.837C498.098 623.953 499.901 625.418 502.16 626.045C504.447 626.68 506.777 626.528 509.312 626.836Z" fill="#937B34"/>
<path d="M593.505 363.302C593.173 362.943 592.724 362.939 592.287 362.9C595.741 358.965 599.632 355.491 603.711 352.192C600.734 356.287 597.014 359.699 593.505 363.302Z" fill="#937B34"/>
<path d="M664.211 619.124C667.637 615.712 670.814 611.963 675.18 608.863C674.048 611.512 667.758 617.426 664.211 619.124Z" fill="#937B34"/>
<path d="M530.777 675.3C530.458 671.678 529.881 668.194 528.564 664.852C528.375 664.37 528.228 663.883 528.827 663.611C529.258 663.415 529.642 663.671 529.797 664.044C531.321 667.709 532.011 671.452 530.777 675.3Z" fill="#937B34"/>
<path d="M615.731 399.888C615.149 400.112 614.567 400.336 613.985 400.561C611.971 396.756 610.888 392.734 611.41 388.317C612.038 390.631 612.686 392.94 613.286 395.261C613.736 397.004 614.432 398.601 615.731 399.888Z" fill="#937B34"/>
<path d="M643.101 625.38C643.236 625.772 643.555 625.856 643.917 625.867C640.638 628.927 637.162 631.743 633.428 634.258C636.439 631.061 639.645 628.085 643.101 625.38Z" fill="#937B34"/>
<path d="M595.149 655.374C592.936 657.993 589.906 659.064 586.771 659.905C586.265 660.041 585.484 660.261 585.241 659.534C584.978 658.749 585.79 658.531 586.286 658.386C589.273 657.51 592.163 656.367 595.149 655.374Z" fill="#937B34"/>
<path d="M688.351 344.893C685.943 345.659 683.531 346.411 681.131 347.202C680.552 347.393 679.973 347.529 679.408 347.338C678.883 347.16 678.553 346.413 679.007 346.242C682.011 345.113 685.044 343.975 688.295 344.153L688.351 344.893Z" fill="#937B34"/>
<path d="M533.467 676.227C534.325 672.769 532.827 669.234 533.634 665.329C535.26 668.372 535.158 673.653 533.467 676.227Z" fill="#937B34"/>
<path d="M459.791 671.321C458.94 674.558 458.543 677.795 460.153 681.306C456.937 679.284 456.871 675.198 459.791 671.321Z" fill="#937B34"/>
<path d="M253.754 485.334C256.728 487.009 259.12 489.526 262.409 490.813C259.73 491.237 255.075 488.383 253.754 485.334Z" fill="#937B34"/>
<path d="M326.947 336.498C323.75 336.811 321.114 335.031 318.156 334.476C320.607 333.441 324.315 334.288 326.947 336.498Z" fill="#937B34"/>
<path d="M259.799 438.895C256.548 439.332 253.703 438.297 251.009 436.757C250.474 436.452 250.208 435.819 250.697 435.258C251.136 434.754 251.492 435.127 251.893 435.486C253.467 436.896 255.517 437.328 257.417 438.062C258.201 438.366 259.004 438.619 259.799 438.895Z" fill="#937B34"/>
<path d="M322.758 339.902C319.629 340.22 316.777 339.14 313.619 338.173C315.735 337.454 320.102 338.202 322.758 339.902Z" fill="#937B34"/>
<path d="M471.267 677.057C470.004 674.232 470.355 671.518 472.12 669.01C472.364 668.663 472.821 668.197 473.351 668.627C473.777 668.972 473.412 669.293 473.199 669.627C471.775 671.862 471.366 674.362 471.267 677.057Z" fill="#937B34"/>
<path d="M480.326 666.444C478.965 669.726 477.808 672.516 476.542 675.569C476.062 672.418 477.598 668.552 480.326 666.444Z" fill="#937B34"/>
<path d="M562.99 417.858C564.729 415.017 566.255 412.021 569.274 410.107C567.332 412.819 565.39 415.53 563.447 418.242C563.295 418.114 563.142 417.986 562.99 417.858Z" fill="#937B34"/>
<path d="M228.141 670.677C227.704 666.87 228.734 663.138 228.345 659.334C228.617 659.319 228.888 659.304 229.16 659.289C229.18 660.443 229.21 661.596 229.218 662.75C229.228 664.125 229.243 665.5 229.21 666.874C229.18 668.145 229.371 669.429 229.008 670.682C228.719 670.68 228.43 670.679 228.141 670.677Z" fill="#937B34"/>
<path d="M417.357 659.1C419.756 658.557 421.632 658.824 423.437 659.538C424.051 659.78 424.691 660.35 424.284 661.167C423.889 661.958 423.282 661.455 422.787 661.207C421.192 660.408 419.22 660.541 417.357 659.1Z" fill="#937B34"/>
<path d="M445.25 429.44C445.202 426.999 446.046 425.323 447.196 423.765C447.642 423.163 448.294 422.811 448.962 423.333C449.557 423.798 449.199 424.399 448.842 424.87C447.759 426.304 446.954 427.969 445.25 429.44Z" fill="#937B34"/>
<path d="M465.281 433.247C465.981 431.159 466.005 429.443 465.619 427.73C465.525 427.314 465.652 426.916 466.103 426.809C466.502 426.715 466.863 426.873 467.091 427.259C468.061 428.907 467.45 431.405 465.281 433.247Z" fill="#937B34"/>
<path d="M379.942 330.791C377.378 328.944 374.626 327.389 372.223 325.103C374.468 325.448 376.382 326.816 379.942 330.791Z" fill="#937B34"/>
<path d="M698.729 355.352C701.428 355.114 703.387 355.603 705.198 356.776C703.12 356.935 700.92 357.812 698.729 355.352Z" fill="#937B34"/>
<path d="M515.65 678.818C514.707 676.786 514.391 675.303 514.356 673.756C514.35 673.497 514.482 673.191 514.87 673.154C515.217 673.12 515.47 673.283 515.529 673.568C515.841 675.074 516.381 676.572 515.65 678.818Z" fill="#937B34"/>
<path d="M228.142 670.677C228.431 670.679 228.72 670.68 229.009 670.682C228.933 673.626 228.868 676.57 228.769 679.513C228.755 679.953 228.81 680.588 228.104 680.564C227.427 680.541 227.456 679.934 227.487 679.486C227.686 676.548 227.92 673.613 228.142 670.677Z" fill="#937B34"/>
<path d="M380.289 391.591C380.935 392.23 380.905 393.144 381.195 393.923C381.504 394.756 380.974 395.127 380.163 395.141C379.382 394.01 378.79 392.79 378.363 391.449C379.194 391 379.204 391.9 379.594 392.116C380.235 392.47 380.125 391.854 380.289 391.591Z" fill="#937B34"/>
<path d="M663.972 405.309C663.728 405.083 663.484 404.857 663.24 404.632C664.277 403.343 665.979 402.795 666.829 401.265C666.718 403.27 665.463 404.377 663.972 405.309Z" fill="#937B34"/>
<path d="M430.562 655.795C431.042 655.788 431.522 655.781 432.002 655.774C431.08 656.953 430.157 658.132 428.836 659.821C428.871 657.73 429.656 656.736 430.562 655.795Z" fill="#937B34"/>
<path d="M637.07 395.539C637.042 395.131 636.977 394.743 636.535 394.561C637.156 393.402 637.776 392.244 638.396 391.085C638.777 392.897 638.209 394.318 637.07 395.539Z" fill="#937B34"/>
<path d="M674.64 405.052C674.622 404.649 674.559 404.271 674.113 404.105C674.839 403.001 675.606 401.935 677.144 400.883C676.539 402.787 675.746 404.008 674.64 405.052Z" fill="#937B34"/>
<path d="M318.694 747.695C319.31 748.378 320.149 747.963 320.868 748.135C319.53 748.236 318.238 749.071 316.748 748.515C317.168 747.382 318.01 747.745 318.694 747.695Z" fill="#937B34"/>
<path d="M223.942 788.141C223.816 786.715 223.675 785.288 224.1 783.521C225.525 785.189 224.715 786.71 224.51 788.172C224.322 788.144 224.132 788.134 223.942 788.141Z" fill="#937B34"/>
<path d="M364.611 383.315C364.991 383.871 365.595 383.657 366.11 383.75C365.081 383.992 364.144 384.69 362.744 384.309C363.262 383.601 363.853 383.332 364.611 383.315Z" fill="#937B34"/>
<path d="M223.942 788.141C224.132 788.134 224.322 788.144 224.51 788.172C224.782 789.829 224.8 791.476 224.303 793.738C223.648 791.486 223.82 789.812 223.942 788.141Z" fill="#937B34"/>
<path d="M788.537 349.635C788.532 349.064 788.399 348.472 788.951 347.749C789.41 348.642 789.224 349.477 789.248 350.271C789.127 349.929 788.89 349.717 788.537 349.635Z" fill="#937B34"/>
<path d="M574.557 420.854C574.186 420.783 573.814 420.712 573.443 420.641C573.841 420.124 574.189 419.554 574.656 419.11C574.946 418.834 575.435 418.991 575.592 419.346C575.758 419.721 575.461 420.026 575.107 420.211C574.793 420.316 574.602 420.527 574.552 420.858L574.557 420.854Z" fill="#937B34"/>
<path d="M574.902 419.047C575.056 418.434 575.35 417.924 576.01 417.813C576.42 417.743 576.84 417.949 576.742 418.421C576.619 419.02 576.195 419.427 575.539 419.518C575.158 419.572 575.073 419.257 574.902 419.047Z" fill="#937B34"/>
<path d="M577.517 417.247C577.812 417.23 578.107 417.212 578.402 417.195C578.2 417.608 577.915 417.918 577.43 417.979C577.459 417.735 577.488 417.491 577.517 417.247Z" fill="#937B34"/>
<path d="M577.518 417.247C577.489 417.491 577.46 417.735 577.431 417.979C576.65 418.199 576.407 417.939 576.722 417.183C576.974 417.191 577.225 417.198 577.477 417.206L577.518 417.247Z" fill="#937B34"/>
<path d="M644.285 625.551C644.34 625.409 644.444 625.331 644.596 625.32C644.568 625.502 644.464 625.579 644.285 625.551Z" fill="#937B34"/>
<path d="M451.904 420.493C451.851 420.763 451.799 421.034 451.746 421.304C451.626 421.202 451.418 421.111 451.403 420.995C451.359 420.657 451.635 420.558 451.907 420.489L451.904 420.493Z" fill="#937B34"/>
<path d="M574.553 420.858C574.603 420.526 574.794 420.315 575.108 420.21C575.056 420.541 574.873 420.758 574.553 420.858Z" fill="#937B34"/>
<path d="M451.907 420.489C451.649 420.72 451.397 421.12 451.062 420.598C450.846 420.261 451.275 420.176 451.369 419.956C451.369 419.955 451.366 419.959 451.366 419.959C451.269 420.414 451.466 420.575 451.904 420.493L451.907 420.489Z" fill="#937B34"/>
<path d="M443.666 415.46C443.812 415.484 443.899 415.568 443.925 415.714C443.747 415.722 443.661 415.637 443.666 415.46Z" fill="#937B34"/>
<path d="M577.476 417.206C577.225 417.198 576.973 417.191 576.721 417.183C576.831 416.825 577.058 416.585 577.426 416.489C577.443 416.728 577.459 416.967 577.476 417.206Z" fill="#937B34"/>
<path d="M444.355 416.042C444.355 416.042 444.233 416.065 444.232 416.067C444.231 416.069 444.355 416.042 444.355 416.042Z" fill="#937B34"/>
</svg>
