<svg width="1081" height="1080" viewBox="0 0 1081 1080" fill="none" xmlns="http://www.w3.org/2000/svg">
<path d="M742.924 240C752.913 254.199 761.389 269.242 764.224 286.551C767.346 305.616 771.638 324.508 772.553 343.944C773.066 354.86 774.164 365.848 772.906 376.63C771.315 390.271 770.476 403.863 770.625 417.562C770.664 421.081 771.11 424.453 772.236 427.8C775.777 438.331 780.006 448.135 787.394 457.03C797.538 469.245 807.911 481.326 817.556 493.993C823.718 502.084 830.93 509.41 837.979 516.785C855.089 534.689 871.05 553.589 887.144 572.389C894.959 581.518 903.911 589.664 911.956 598.608C921.031 608.695 931.374 617.511 940.065 628.013C953.064 643.721 961.754 661.14 966.035 681.168C968.312 691.818 966.598 701.272 960.809 709.615C955.18 717.728 947.934 724.754 939.963 730.752C929.426 738.68 917.203 743.258 904.949 747.74C893.637 751.878 882.284 755.873 872.58 763.462C866.893 767.909 863.49 773.078 863.954 780.512C865.143 799.536 866.439 818.535 872.02 836.931C872.331 837.957 872.266 839.097 872.375 840.184H871.535C865.146 828.953 862.492 816.584 860.608 803.999C859.823 798.757 859.316 793.474 858.588 788.223C857.669 781.584 858.669 775.118 860.666 768.856C862.043 764.533 866.206 762.345 869.593 759.94C880.531 752.174 892.938 747.565 905.612 743.272C918.565 738.883 930.928 732.932 941.786 724.232C945.633 721.15 949.172 717.791 952.328 714.111C959.601 705.63 962.249 696.134 959.382 684.824C956.481 673.382 952.416 662.467 947.072 652.059C940.347 638.963 932.143 627.014 920.661 617.297C911.828 609.821 903.793 601.373 895.974 592.749C880.844 576.064 867.121 558.186 852.12 541.418C841.218 529.234 830.74 516.684 819.666 504.637C809.858 493.968 800.321 482.978 791.135 471.741C786.838 466.485 782.845 460.848 779.119 455.235C769.35 440.517 765.247 424.315 766.837 406.172C768.038 392.454 770.741 378.704 769.706 364.874C768.501 348.784 767.9 332.623 764.446 316.73C762.234 306.558 761.732 295.992 759.206 285.917C755.911 272.775 751.651 259.846 745.023 247.86C743.676 245.425 742.058 242.992 742.083 240H742.924Z" fill="#937B34"/>
<path d="M200.071 502.721L205.225 507.692C198.904 506.487 195.512 500.952 190.454 497.979C190.753 501.231 193.628 502.287 194.931 505C189.402 504.502 188.317 496.133 181.73 498.354C183.128 502.152 186.738 504.993 186.938 509.561C184.327 506.146 181.64 502.785 179.155 499.281C178.483 498.333 177.711 497.65 176.863 498.131C175.612 498.84 176.86 499.786 177.074 500.64C177.527 502.448 179.331 503.877 178.585 506.264C176.482 504.399 175.24 502.066 174.381 499.74C173.481 497.302 171.968 497.183 169.89 497.184C168.04 497.184 167.594 498.036 168.147 499.486C169.011 501.753 168.901 503.988 168.527 507.006C166.648 504.37 166.762 501.87 166.287 499.571C166.03 498.328 166.827 496.684 164.567 496.433C162.464 496.2 161.566 496.987 161.158 499.04C160.784 500.917 159.933 502.7 159.262 504.61C156.689 501.836 161.881 497.922 157.5 495.499C156.548 497.421 157.606 499.394 156.404 501.205C154.226 499.641 156.568 496.655 154.644 495.702C152.991 494.884 150.72 494.41 148.983 494.839C144.018 496.064 149.408 499.888 147.386 502.068C145.879 501.099 145.492 499.487 145.271 497.852C144.725 493.792 141.23 492.323 137.931 494.93C136.559 496.014 135.464 497.447 133.34 497.976C133.612 495.663 136.012 495.088 136.61 493.25C134.903 492.77 133.619 493.267 132.079 494.206C126.486 497.617 120.708 500.724 115 503.946C115 503.386 115 502.825 115 502.265C120.092 498.849 125.324 495.658 130.734 492.564C128.097 492.304 125.686 491.791 123.389 490.21C127.037 491.401 130.505 489.662 133.989 490.014C137.903 490.409 141.824 490.185 145.708 490.536C165.221 492.299 184.862 492.825 204.189 496.391C206.746 496.863 209.027 497.224 211.042 499.966C212.71 502.235 216.834 502.73 219.901 503.932C227.797 507.025 235.708 510.083 243.624 513.125C244.283 513.378 244.983 513.466 245.259 515.066C232.28 511.303 219.909 506.856 207.537 502.148C211.398 505.593 216.475 507.36 219.875 511.45C213.145 509.109 207.446 504.672 200.82 502.177C200.389 501.474 200.001 500.652 199.008 501.533C199.409 499.458 198.874 498.471 196.13 499.384C197.359 500.233 198.214 500.824 199.07 501.415C199.404 501.85 199.737 502.286 200.071 502.721Z" fill="#937B34"/>
<path d="M115 367.77C120.652 367.377 126.188 365.816 131.905 366.077C132.95 366.124 133.993 366.224 135.104 367.274C128.403 368 121.701 368.725 115 369.451V367.77Z" fill="#937B34"/>
<path d="M254.153 244.631C256.886 246.796 257.874 250.017 259.544 252.721C267.946 266.33 272.224 281.457 275.529 296.914C278.108 308.978 281.429 320.968 282.85 333.174C284.481 347.177 284.723 361.392 283.604 375.514C282.613 388.015 283.719 400.414 284.907 412.806C285.29 416.799 287.053 420.579 289.117 424.08C298.576 440.124 310.08 454.684 324.619 466.208C336.016 475.242 346.879 484.876 358.088 494.105C365.926 500.558 373.323 507.643 378.408 516.792C381.04 521.528 384.631 525.724 387.699 530.225C394.105 539.622 398.211 550.137 402.616 560.542C407.662 572.462 412.734 584.428 418.788 595.847C424.305 606.255 432.409 614.974 440.832 623.186C453.453 635.492 463.445 649.353 467.54 666.774C469.783 676.313 470.809 686.051 470.642 695.878C470.562 700.617 467.752 704.264 465.346 707.923C455.98 722.162 442.6 731.451 427.366 738.554C416.138 743.789 404.946 749.179 394.151 755.236C386.706 759.413 381.081 766.12 375.261 772.3C369.634 778.275 370.719 785.551 372.607 792.784C375.894 805.375 380.951 817.298 386.097 829.193C386.321 829.71 386.694 830.121 386.205 830.744C384.576 831.364 384.551 829.742 384.069 828.98C375.895 816.055 369.738 802.111 365.93 787.412C363.69 778.765 366.688 770.162 372.883 763.464C378.882 756.976 385.678 751.255 393.6 747.172C406.61 740.466 419.897 734.28 432.75 727.291C442.602 721.934 451.476 715.156 458.588 706.209C462.981 700.683 465.266 695.16 464.225 687.768C463.276 681.028 462.843 674.164 461.705 667.429C459.071 651.844 450.308 639.889 438.93 629.463C430.056 621.331 421.804 612.594 414.718 602.818C411.827 598.828 410.139 594.208 408.099 589.796C402.551 577.801 396.387 566.094 391.908 553.597C388.313 543.563 382.353 534.76 376.414 525.949C369.649 515.911 362.305 506.326 352.827 498.838C342.087 490.351 332.299 480.797 321.515 472.33C309.886 463.199 299.583 452.358 291.272 439.914C287.251 433.893 282.432 428.342 280.031 421.336C278.945 418.165 278.145 414.975 277.857 411.581C276.448 394.951 276.567 378.354 277.761 361.704C278.913 345.633 277.561 329.755 274.236 313.864C271.603 301.282 269.847 288.502 266.321 276.1C263.599 266.525 259.064 257.673 255.071 248.606C254.568 247.464 253.08 246.499 254.153 244.631Z" fill="#937B34"/>
<path d="M427.041 714.67C430.117 713.332 430.766 710.95 429.653 706.979C428.519 710.006 428.347 712.531 427.041 714.67ZM406.068 711.821C408.883 709.343 411.322 707.196 413.761 705.05C410.216 706.005 408.532 708.951 406.068 711.821ZM398.017 720.716C402.095 719.079 404.618 715.862 406.826 712.306C403.89 715.109 400.953 717.912 398.017 720.716ZM390.876 721.431C398.737 718.303 402.367 710.595 407.831 704.818C400.288 708.277 395.929 715.185 390.876 721.431ZM403.694 720.14C407.215 719.69 409.951 719.865 412.02 717.471C414.576 714.516 417.29 711.698 419.864 708.758C420.568 707.954 422.397 707.08 421.107 705.935C420.065 705.009 418.398 704.256 416.771 706.116C412.748 710.714 408.454 715.073 403.694 720.14ZM389.738 710.591C385.384 712.667 380.938 714.574 376.713 716.886C374.456 718.121 371.917 719.236 370.596 721.749C370.239 721.23 369.967 721.711 369.674 721.844C369.653 721.854 369.708 722.157 369.754 722.165C370.16 722.234 370.518 722.187 370.533 721.649C375.995 721.989 381.343 720.115 386.821 720.81C387.618 720.912 388.137 720.484 388.59 719.946C392.285 715.555 395.971 711.156 400.372 705.911C394.777 708.004 392.716 712.974 388.388 715.347C387.864 713.077 389.805 712.506 390.424 711.236C390.919 710.725 392.02 710.297 391.469 709.547C391.196 709.175 390.127 709.861 389.738 710.591ZM416.944 716.794C419.891 714.977 422.311 712.728 423.66 708.776C420.84 711.529 418.481 713.833 416.121 716.137C415.86 716.526 415.6 716.914 415.339 717.302C416.04 717.655 416.572 717.476 416.944 716.794ZM295.735 760.632C294.435 759.249 295.458 757.951 294.375 757.481C290.842 776.152 286.725 794.708 281.565 813.47C279.552 811.288 281.364 809.82 281.473 808.271C281.587 806.646 282.007 805.031 282.401 803.439C286.661 786.228 290.137 768.855 293.069 751.375C293.458 749.052 293.138 746.619 293.312 744.249C293.407 742.968 293.254 740.937 295.135 741.174C296.424 741.336 296.315 743.082 296.08 744.399C295.715 746.455 295.522 748.537 295.984 750.789C298.168 745.067 297.467 738.822 300.268 733.435C300.914 732.192 299.544 731.845 299.073 731.148C288.239 715.127 289.39 698.544 296.702 681.668C296.778 681.493 297.179 681.458 297.56 681.304C298.589 681.92 298.227 682.789 298.018 683.73C295.104 696.825 294.266 709.896 299.107 722.75C303.07 733.275 313.513 740.756 323.757 740.061C329.675 739.66 334.702 736.379 339.773 733.525C348.755 728.469 356.528 721.524 365.818 716.936C374.506 712.646 383.103 708.123 391.797 703.905C401.873 699.016 412.806 697.04 424.135 701.189C426.759 702.15 429.03 703.625 431.567 704.65C434.964 706.023 434.974 709.131 433.933 712.109C431.172 720.004 424.468 723.41 417.166 724.848C406.527 726.944 395.697 727.882 384.756 727.332C372.923 726.737 361.828 730.023 351.415 735.399C344.591 738.922 337.336 741.294 330.254 744.109C322.56 747.167 315.595 744.078 308.763 740.636C307.198 742.967 307.852 746.229 305.376 749.657C305.593 746.143 305.83 743.902 306.528 741.628C306.892 740.444 307.3 738.356 305.561 738.08C304.328 737.885 304.34 739.779 304.113 740.968C303.516 744.104 303.296 747.383 300.889 750.953C300.779 744.91 303.298 739.978 302.763 734.843C302.388 734.788 302.013 734.734 301.637 734.679C300.783 738.992 300.02 743.325 299.048 747.611C298.089 751.839 296.919 756.019 295.735 760.632Z" fill="#937B34"/>
<path d="M906.332 716.471C908.759 717.067 910.138 715.524 911.845 714.684C912.942 714.144 913.829 710.492 915.755 713.979C915.863 714.173 916.6 714.184 916.955 714.047C918.259 713.545 919.775 712.846 920.013 711.511C920.253 710.171 918.683 709.621 917.579 709.129C916.703 708.738 915.767 708.431 914.826 708.244C901.574 705.606 889.344 708.155 877.295 716.005C881.695 715.334 885.201 716.491 888.761 716.511C892.297 716.53 893.889 712.008 898.165 711.696C896.633 714.323 893.702 714.704 892.902 717.412C898.03 717.345 900.455 711.981 905.315 711.074C904.28 714.292 900.685 714.562 899.276 717.625C905.163 716.513 908.16 710.867 914.29 709.004C911.805 712.551 908.588 713.854 906.332 716.471ZM791.87 721.027C791.368 730.496 791.652 738.794 791.027 747.095C789.049 773.366 785.262 799.228 776.239 824.12C775.588 825.917 775.07 827.764 774.394 829.551C774.136 830.232 773.986 831.44 772.778 830.844C772.013 830.466 772.403 829.629 772.514 828.961C774.51 816.954 777.635 805.193 780.306 793.333C783.187 780.541 784.388 767.52 785.852 754.523C787.012 744.229 786.964 733.871 787.854 723.61C788.39 717.442 788.253 711.123 789.445 705.14C790.242 701.143 790.393 696.982 791.666 693.071C792.365 690.923 793.423 689.121 796.661 688.598C794.497 693.557 793.593 698.342 792.24 702.991C791.186 706.615 791.007 709.922 792.492 713.427C794.898 719.102 796.148 725.32 800.958 729.788C808.058 736.384 815.802 739.188 825.431 735.482C838.636 730.401 849.973 722.188 861.9 714.891C874.717 707.049 887.855 699.481 903.816 700.629C909.382 701.029 914.998 701.728 920.063 704.058C926.749 707.133 930.234 712.212 921.947 718.319C915.922 722.758 908.837 722.539 902.036 723.287C892.813 724.301 883.735 721.671 874.523 721.409C870.23 721.287 866.145 721.736 862.368 723.581C854.201 727.568 846.148 731.791 838.064 735.946C826.45 741.915 814.821 742.474 803.225 735.975C797.709 732.884 794.413 727.901 791.87 721.027Z" fill="#937B34"/>
<path d="M689.245 502.682C688.792 502.433 688.349 502.174 687.882 501.97C687.855 501.958 687.499 502.565 687.525 502.585C687.926 502.89 688.365 503.145 688.794 503.412C688.931 503.192 689.067 502.971 689.245 502.682ZM695.715 519.208C695.41 522.856 693.621 520.239 692.795 519.737C687.292 516.396 682.762 511.853 678.083 507.5C676.469 505.998 674.832 504.52 673.205 503.03C673.204 503.029 673.21 503.143 673.21 503.143C673.281 501.896 671.977 501.729 671.474 500.933L671.377 500.914C671.061 497.595 669.091 496.8 666.061 497.163C664.035 497.405 661.956 497.209 659.042 497.209C665.205 505.642 672.049 512.683 677.15 522.355C673.529 520.469 671.627 518.327 670.056 516.033C665.852 509.89 659.521 505.264 657.084 497.854C656.84 497.111 656.642 497.176 651.886 497.41C657.808 505.663 663.555 513.673 669.302 521.683C669.007 521.913 668.712 522.143 668.418 522.373C662.868 517.629 658.091 512.121 653.638 506.342C651.639 503.747 648.965 501.468 648.645 497.841C648.55 496.754 647.766 496.528 646.834 496.684C645.487 496.909 646.03 497.812 646.166 498.585C647.166 504.255 649.754 509.389 651.775 514.659C650.545 515.494 650.169 514.67 649.679 513.967C646.582 509.526 644.128 504.741 643.004 499.455C642.633 497.712 642.335 497.154 640.555 497.186C638.11 497.23 638.703 498.959 638.842 500.138C639.389 504.801 640.13 509.441 640.764 514.094C640.812 514.452 640.582 514.848 640.291 515.946C637.666 512.114 636.946 508.173 636.277 504.37C635.908 502.275 634.808 500.137 635.756 497.798C636.438 496.117 634.807 496.622 634.029 496.478C632.375 496.172 631.363 496.708 631.215 498.58C630.901 502.567 630.49 506.545 630.079 510.95C627.978 509.803 627.724 508.309 627.742 506.642C627.765 504.402 627.949 502.135 627.665 499.931C627.515 498.774 629.089 496.841 627.159 496.556C625.229 496.271 622.884 495.402 621.229 498.039C619.813 500.295 618.424 502.824 615.456 504.253C614.951 501.226 617.376 499.327 617.455 496.671C615.16 497.43 612.845 497.292 610.441 497.17C610.794 495.028 612.522 495.926 613.614 495.468C621.223 492.279 629.057 493.772 636.792 494.406C642.786 494.898 648.69 494.038 654.632 493.886C659.988 493.75 665.205 494.813 670.528 494.856C676.544 494.906 682.422 496.633 688.52 496.588C690.8 496.571 693.225 498.208 695.349 499.483C698.144 501.162 699.168 500.234 700.421 497.503C704.86 487.831 706.49 477.486 708.508 467.184C710.63 456.352 708.016 445.804 707.211 435.156C706.722 428.695 706.598 422.19 705.117 415.535C708.304 416.285 707.963 419.051 708.246 420.616C710.668 434.011 713.813 447.447 712.573 461.135C711.389 474.203 709.161 487.205 703.55 499.27C702.212 502.147 702.88 503.095 705.597 504.25C711.854 506.911 718.028 509.825 723.175 514.448C723.672 514.895 724.433 515.155 724.167 516.788C712.605 512.107 701.17 507.477 689.734 502.847C693.489 508.443 699.47 511.029 704.098 515.374C695.32 513.163 688.357 507.643 681.04 502.782C680.678 502.586 680.316 502.39 679.953 502.193C679.77 501.525 679.048 501.219 678.735 501.556C677.922 502.431 679.273 502.392 679.477 502.882C679.608 503.135 679.798 503.332 680.044 503.474C684.463 508.209 688.882 512.945 693.181 517.553C695.14 516.443 692.513 515.178 694.072 514.507C695.436 513.919 695.923 515.271 696.585 515.959C709.857 529.747 717.664 546.379 721.929 564.843C722.135 565.734 722.369 566.619 721.999 567.8C715.806 550.111 709.049 532.743 696.357 518.535C695.798 518.167 695.461 516.749 694.644 517.685C693.874 518.567 695.018 518.911 695.715 519.208Z" fill="#937B34"/>
<path d="M212.235 490.714C213.354 483.699 214.373 477.296 215.398 470.893C215.53 470.071 215.771 469.26 215.835 468.433C216.305 462.288 215.919 461.884 209.798 461.924C208.562 461.932 207.325 461.925 206.008 461.526C208.576 459.933 211.505 459.569 214.392 459.458C216.227 459.387 216.708 458.886 216.731 457.079C216.893 444.384 216.496 431.788 213.792 419.269C212.797 414.663 211.937 410.159 209.828 405.93C209.069 404.407 208.441 403.9 206.426 404.284C197.758 405.934 189.79 409.405 181.841 413.35C181.771 412.796 181.652 412.451 181.732 412.396C189.88 406.8 198.835 403.338 208.673 402.16C210.652 401.923 211.366 402.577 212.141 404.513C217.119 416.955 219.625 429.906 220.142 443.208C220.715 457.961 220.73 472.719 215.029 486.763C214.533 487.984 214.369 489.425 212.235 490.714Z" fill="#937B34"/>
<path d="M607.041 470.959C609.183 464.56 614.189 460.677 619.055 456.952C639.486 441.313 662.254 429.693 685.567 419.073C687.127 418.363 688.845 417.998 690.551 417.453C691.04 419.297 689.744 419.464 688.8 419.866C664.401 430.249 641.217 442.791 619.974 458.752C615.203 462.337 610.731 466.274 607.041 470.959Z" fill="#937B34"/>
<path d="M336.688 628.844C319.774 642.553 302.913 655.384 286.575 669.493C286.213 667.456 287.456 666.351 288.62 665.404C303.266 653.485 317.934 641.595 332.647 629.758C333.492 629.078 334.483 628.071 336.688 628.844Z" fill="#937B34"/>
<path d="M671.377 500.913L671.473 500.933C671.043 502.462 671.159 503.562 673.21 503.142C673.21 503.142 673.204 503.028 673.205 503.029C671.6 504.125 673.092 504.845 673.583 505.577C676.44 509.843 679.375 514.057 682.224 518.328C682.616 518.916 683.741 519.382 682.572 520.887C679.617 518.963 677.31 516.257 674.979 513.687C671.799 510.182 668.98 506.353 666.668 502.208C666.062 501.122 664.633 499.701 666.129 498.478C667.936 497.001 668.769 498.914 669.706 500.014C670.165 500.554 670.531 501.146 671.377 500.913Z" fill="#937B34"/>
<path d="M748.633 354.807C749.826 358.347 747.154 360.569 745.216 362.824C739.277 369.735 733.695 377.129 724.67 380.467C723.457 380.916 721.859 382.276 721.088 380.498C720.129 378.287 722.684 378.742 723.648 378.287C734.543 373.14 741.731 364.151 748.633 354.807Z" fill="#937B34"/>
<path d="M232.375 565.872C229.921 564.951 230.03 562.877 229.435 561.471C224.736 550.362 219.679 539.44 213.617 528.997C213.086 528.082 212.326 527.184 212.482 525.951C212.565 525.294 212.838 524.928 213.486 524.869C214.139 524.811 214.509 524.741 214.943 525.667C219.88 536.189 225.64 546.33 229.512 557.344C230.457 560.031 231.922 562.561 232.375 565.872Z" fill="#937B34"/>
<path d="M719.54 376.014C730.098 366.655 734.671 354.63 739.302 342.873C740.521 344.077 741.039 345.418 740.048 347.752C736.441 356.242 732.642 364.664 727.015 372.054C725.42 374.148 723.424 376.164 719.54 376.014Z" fill="#937B34"/>
<path d="M721.144 329.311C724.268 332.073 724.381 335.346 724.821 338.243C726.2 347.323 727.132 356.456 724.45 365.502C724.259 366.148 723.928 366.751 723.69 367.384C723.211 368.658 722.642 370.625 721.188 370.027C718.984 369.12 721.258 367.809 721.607 366.745C724.508 357.926 723.854 348.909 723.087 339.915C722.804 336.595 721.901 333.328 721.144 329.311Z" fill="#937B34"/>
<path d="M227.458 453.389C225.214 450.183 225.724 446.641 225.281 443.354C223.812 432.453 222.24 421.623 218.637 411.18C218.459 410.666 218.322 410.084 218.379 409.556C218.468 408.718 216.87 407.543 218.47 407.148C219.639 406.86 219.772 408.327 220.127 409.283C222.374 415.335 223.762 421.629 224.831 427.944C226.097 435.424 226.76 443.007 227.632 450.552C227.739 451.478 227.524 452.442 227.458 453.389Z" fill="#937B34"/>
<path d="M707.09 328.845C709.915 329.457 710.987 330.865 711.714 332.247C716.897 342.105 720.503 352.378 719.426 363.789C719.294 365.19 719.391 367.141 717.546 366.71C716.131 366.379 717.291 364.7 717.438 363.554C718.412 355.963 716.389 348.826 713.878 341.79C712.325 337.436 710.431 333.243 707.09 328.845Z" fill="#937B34"/>
<path d="M697.234 329.99C700.674 329.867 701.913 331.955 703.064 333.698C707.411 340.278 710.109 347.638 712.618 355.059C712.88 355.832 712.818 356.715 712.899 357.547C712.97 358.271 712.901 359.017 712.115 359.262C710.743 359.691 710.906 358.346 710.709 357.742C708.889 352.147 707.094 346.557 704.53 341.231C702.663 337.352 700.801 333.505 697.234 329.99Z" fill="#937B34"/>
<path d="M645.873 345.91C649.298 344.456 652.236 345.161 655.287 345.852C663.571 347.728 671.673 350.183 679.63 353.123C680.792 353.552 682.977 353.819 682.153 355.611C681.531 356.96 679.953 355.56 678.831 355.216C670.083 352.533 661.527 349.255 652.572 347.193C650.498 346.716 648.201 347.598 645.873 345.91Z" fill="#937B34"/>
<path d="M156.956 343.389C163.148 339.259 187.009 343.928 192.868 350.003C181.446 346.699 170.174 342.573 156.956 343.389Z" fill="#937B34"/>
<path d="M178.063 331.929C187.157 328.924 209.956 340.045 211.246 349.357C202.876 338.902 191.484 334.183 178.063 331.929Z" fill="#937B34"/>
<path d="M327.838 644.067C326.624 647.98 298.27 669.375 294.167 669.725C305.391 661.172 316.614 652.62 327.838 644.067Z" fill="#937B34"/>
<path d="M670.346 335.727C674.479 336.59 677.741 338.181 681.054 339.69C685.968 341.93 690.757 344.387 695.386 347.168C696.969 348.118 698.282 349.324 699.283 350.839C699.53 351.212 699.531 351.938 699.341 352.367C699.039 353.048 698.425 352.839 697.963 352.438C690.052 345.563 680.359 341.823 671.179 337.179C670.98 337.078 670.908 336.728 670.346 335.727Z" fill="#937B34"/>
<path d="M316.089 624.731C318.847 621.487 322.45 619.726 325.591 617.439C333.069 611.995 340.687 606.744 348.229 601.389C349.157 600.73 350.347 599.74 351.047 600.944C351.967 602.528 349.86 602.46 349.154 602.96C339.144 610.054 329.046 617.024 319.001 624.07C318.195 624.635 317.572 625.348 316.089 624.731Z" fill="#937B34"/>
<path d="M889.093 699.871C895.441 693.853 918.76 697.008 924.456 703.909C919.111 701.581 913.578 699.636 907.84 699.11C901.973 698.573 896.003 698.406 889.093 699.871Z" fill="#937B34"/>
<path d="M614.805 480.032C624.822 473.632 635.888 469.321 646.709 464.524C646.909 464.917 647.11 465.311 647.31 465.704C636.744 470.895 626.177 476.086 615.61 481.276L614.805 480.032Z" fill="#937B34"/>
<path d="M227.638 337.784C232.162 346.872 234.117 356.141 231.838 365.943C231.625 366.86 231.143 367.75 230.616 368.541C230.394 368.875 230.015 369.573 229.301 369.154C228.78 368.849 228.492 368.453 228.748 367.811C232.52 358.328 230.259 349.085 227.661 339.845C227.482 339.206 227.638 338.473 227.638 337.784Z" fill="#937B34"/>
<path d="M222.884 356.492C222.73 344.139 217.272 334.561 210.557 325.281C214.69 326.187 222.137 338.482 224.136 347.988C224.665 350.506 227.037 353.697 222.884 356.492Z" fill="#937B34"/>
<path d="M196.476 325.03C203.432 325.976 220.154 346.949 218.535 352.633C213.076 341.934 205.458 332.984 196.476 325.03Z" fill="#937B34"/>
<path d="M149.474 349.317C160.445 346.716 170.859 349.299 181.239 352.199C170.66 351.149 160.146 349.501 149.474 349.317Z" fill="#937B34"/>
<path d="M690.211 353.971C684.821 351.339 680.28 348.933 675.584 346.882C670.866 344.823 666.108 342.814 660.024 341.554C667.614 340.125 687.404 348.316 690.211 353.971Z" fill="#937B34"/>
<path d="M173.142 337.719C179.588 337.342 185.651 339.049 191.575 341.372C194.872 342.665 198.231 343.841 201.143 345.921C201.781 346.377 202.726 347.05 202.233 347.935C201.799 348.714 200.798 348.663 200.02 348.135C192.168 342.804 183.167 340.506 174.131 338.289C173.776 338.202 173.471 337.914 173.142 337.719Z" fill="#937B34"/>
<path d="M346.468 612.335C336.405 619.431 327.252 627.163 317.385 634.89C319.041 630.147 342.607 611.92 346.468 612.335Z" fill="#937B34"/>
<path d="M244.443 344.004C247.077 346.572 246.304 349.302 246.039 351.563C245.175 358.953 243.567 366.196 239.47 372.612C238.957 373.415 238.414 374.231 237.735 374.887C237.115 375.487 236.42 376.809 235.401 375.801C234.181 374.595 235.952 374.315 236.427 373.703C241.687 366.918 243.464 358.925 244.409 350.666C244.638 348.667 244.443 346.62 244.443 344.004Z" fill="#937B34"/>
<path d="M717.349 452.515C716.903 449.304 716.258 446.105 716.051 442.878C715.567 435.29 714.207 427.857 712.525 420.467C712.367 419.772 711.28 418.95 712.63 418.519C713.58 418.216 714.124 419.117 714.296 419.919C715.1 423.674 716.042 427.418 716.533 431.217C717.368 437.67 717.914 444.16 718.542 450.638C718.603 451.266 718.394 451.921 718.31 452.563C717.99 452.547 717.669 452.531 717.349 452.515Z" fill="#937B34"/>
<path d="M307.179 623.956C316.326 616.999 325.474 610.041 334.621 603.084L335.502 604.208C327.085 612.105 317.132 618.049 308.016 625.057C307.737 624.69 307.458 624.323 307.179 623.956Z" fill="#937B34"/>
<path d="M227.183 413.306C231.451 423.821 233.064 434.798 232.883 446.088C231.331 435.1 229.019 424.244 227.183 413.306Z" fill="#937B34"/>
<path d="M624.869 461.227C624.788 459.831 625.551 459.309 626.143 458.924C632.817 454.579 639.521 450.28 646.261 446.038C647.046 445.543 648.132 444.239 649.031 445.825C649.856 447.28 648.316 447.482 647.53 447.977C640.176 452.606 632.88 457.341 624.869 461.227Z" fill="#937B34"/>
<path d="M314.297 705.96C312.893 702.678 313.2 700.295 313.45 698.136C314.155 692.023 314.757 685.864 316.747 679.98C317.084 678.982 317.61 678.034 318.166 677.136C318.293 676.932 318.94 676.912 319.288 677.013C319.919 677.194 319.953 677.541 319.669 678.225C317.233 684.1 316.45 690.332 315.489 696.568C315.067 699.305 315.687 702.112 314.297 705.96Z" fill="#937B34"/>
<path d="M684.345 331.893C693.284 335.469 699.103 342.469 704.8 349.595C705.236 350.14 705.368 350.989 704.832 351.53C704.165 352.203 703.543 351.642 703.147 351.073C697.96 343.594 691.645 337.235 684.345 331.893Z" fill="#937B34"/>
<path d="M791.692 767.454C791.43 758.549 792.774 749.738 793.354 740.882C793.399 740.191 793.419 739.413 794.376 739.407C795.023 739.403 795.399 739.896 795.344 740.505C794.533 749.518 793.697 758.528 792.867 767.539C792.476 767.511 792.084 767.482 791.692 767.454Z" fill="#937B34"/>
<path d="M238.226 348.471C241.538 357.996 238.238 370.073 231.04 373.083C237.045 365.328 238.148 357.06 238.226 348.471Z" fill="#937B34"/>
<path d="M643.68 350.673C653.107 350.702 661.984 352.975 670.347 357.345C661.365 355.5 652.639 352.612 643.68 350.673Z" fill="#937B34"/>
<path d="M928.885 702.682C921.216 698.1 913.647 694.974 904.519 694.221C910.491 691.186 925.686 696.577 928.885 702.682Z" fill="#937B34"/>
<path d="M656.951 360.905C649.356 358.124 641.355 356.873 633.577 354.778C641.911 354.778 649.974 355.797 656.951 360.905Z" fill="#937B34"/>
<path d="M621.725 360.858C627.96 358.02 641.239 360.109 646.095 364.636C637.81 362.732 630.409 361.168 621.725 360.858Z" fill="#937B34"/>
<path d="M298.033 676.137C303.552 669.632 310.08 664.304 317.1 659.549C311.581 666.055 304.966 671.281 298.033 676.137Z" fill="#937B34"/>
<path d="M165.326 355.961C157.007 355.825 148.752 354.502 140.419 355.038C148.811 352.167 157.084 354.011 165.326 355.961Z" fill="#937B34"/>
<path d="M150.604 361.842C141.136 361.815 132.222 361.637 122.915 363.561C126.98 360.002 146.075 358.797 150.604 361.842Z" fill="#937B34"/>
<path d="M197.289 401.07C190.246 403.73 184.069 408.205 176.853 410.329C183.441 406.687 189.255 401.373 197.289 401.07Z" fill="#937B34"/>
<path d="M257.174 371.759C251.04 376.487 245.531 379.813 239.057 381.393C238.127 381.62 237.386 381.694 237.064 380.714C236.862 380.101 237.384 379.721 237.987 379.61C244.182 378.466 249.393 375.197 254.621 371.952C254.922 371.766 255.408 371.878 257.174 371.759Z" fill="#937B34"/>
<path d="M242.469 415.022C245.894 421.494 247.139 428.565 248.418 435.631C245.385 429.063 243.319 422.212 242.469 415.022Z" fill="#937B34"/>
<path d="M630.123 368.76C623.52 367.641 616.917 366.522 610.314 365.403C617.299 364.064 623.848 365.423 630.336 367.173C630.265 367.702 630.194 368.231 630.123 368.76Z" fill="#937B34"/>
<path d="M741.86 375.231C738.199 380.848 732.514 383.032 726.344 384.344C725.632 384.496 724.851 384.037 724.698 383.364C724.503 382.498 725.389 382.251 726.017 382.207C732.161 381.777 736.984 378.521 741.86 375.231Z" fill="#937B34"/>
<path d="M853.124 737.319C856.554 732.478 860.726 728.498 865.602 725.281C866.207 724.882 866.845 724.058 867.709 724.957C868.307 725.578 867.763 725.983 867.382 726.234C862.34 729.564 858.217 734.058 853.124 737.319Z" fill="#937B34"/>
<path d="M318.62 703.322C317.918 697.045 319.007 692.193 320.093 687.34C320.283 686.492 320.653 685.719 321.633 685.907C322.373 686.049 322.853 686.801 322.504 687.523C320.28 692.118 320.698 697.357 318.62 703.322Z" fill="#937B34"/>
<path d="M707.501 464.075C701.583 465.534 695.79 466.963 689.355 468.55C692.775 465.181 704.845 462.393 707.501 464.075Z" fill="#937B34"/>
<path d="M796.532 751.955C796.962 758.036 796.947 764.108 795.38 770.137V751.922C795.764 751.933 796.148 751.944 796.532 751.955Z" fill="#937B34"/>
<path d="M734.562 430.91C734.124 436.69 735.382 442.553 733.194 448.237V430.867C733.65 430.881 734.106 430.896 734.562 430.91Z" fill="#937B34"/>
<path d="M238.952 431.339C237.062 426.008 234.697 420.766 234.921 414.88C236.887 420.198 238.746 425.541 238.952 431.339Z" fill="#937B34"/>
<path d="M727.53 428.712C729.349 434.015 728.436 439.54 728.653 445.015C728.279 445.041 727.904 445.066 727.53 445.091V428.712Z" fill="#937B34"/>
<path d="M860.454 739.4C863.738 735.197 867.008 730.969 871.455 728.056C867.788 731.837 864.121 735.619 860.454 739.4Z" fill="#937B34"/>
<path d="M602.661 371.15C607.57 371.407 612.525 370.322 617.365 372.602H602.62C602.633 372.118 602.647 371.634 602.661 371.15Z" fill="#937B34"/>
<path d="M298.395 638.619C295.887 642.245 292.398 644.734 288.314 646.485C291.039 643.128 294.465 640.611 298.395 638.619Z" fill="#937B34"/>
<path d="M927.527 695.656C923.435 695.551 921.095 693.063 918.045 692.857C917.737 692.836 917.16 691.984 917.258 691.722C917.507 691.05 918.194 690.738 918.955 690.924C921.92 691.65 924.523 693.042 927.527 695.656Z" fill="#937B34"/>
<path d="M722.666 432.579C722.626 436.65 723.277 440.743 721.371 444.765V432.562C721.803 432.568 722.234 432.573 722.666 432.579Z" fill="#937B34"/>
<path d="M639.717 474.479C636.991 476.872 633.269 477.377 630.216 479.148C629.541 479.54 629.1 479.069 628.92 478.646C628.567 477.811 629.357 477.411 629.905 477.187C632.98 475.931 636.088 474.758 639.185 473.557C639.362 473.864 639.54 474.172 639.717 474.479Z" fill="#937B34"/>
<path d="M325.32 700.824C323.65 696.719 324.503 693.486 324.579 690.335C324.583 690.161 325.219 689.8 325.458 689.871C326.345 690.136 327.017 690.941 326.681 691.742C325.602 694.316 326.5 697.159 325.32 700.824Z" fill="#937B34"/>
<path d="M863.354 745.802C863.879 741.396 866.929 739.027 870.366 736.97C868.785 740.525 865.385 742.611 863.354 745.802Z" fill="#937B34"/>
<path d="M331.004 693.265C330.296 696.835 329.589 700.405 328.881 703.974C328.503 703.905 328.124 703.835 327.745 703.766C327.446 700.012 328.553 696.515 329.87 693.057C330.248 693.126 330.626 693.196 331.004 693.265Z" fill="#937B34"/>
<path d="M868.947 746.306C870.564 743.406 873.052 741.48 875.99 740.057C876.259 740.337 876.527 740.618 876.796 740.899C874.461 742.986 872.127 745.073 869.793 747.16C869.511 746.875 869.229 746.591 868.947 746.306Z" fill="#937B34"/>
<path d="M317.379 633.818C315.361 637.148 315.361 637.148 312.456 638.319C313.782 635.615 313.782 635.615 317.379 633.818Z" fill="#937B34"/>
<path d="M316.437 625.152C315.381 627.047 313.737 627.69 311.661 628.736C313.624 625.758 313.624 625.758 316.437 625.152Z" fill="#937B34"/>
<path d="M309.422 642.059C308.952 641.609 308.708 641.377 308.465 641.144C308.836 640.782 309.154 640.323 309.593 640.085C310.005 639.862 310.394 640.259 310.29 640.648C310.167 641.105 309.786 641.493 309.422 642.059Z" fill="#937B34"/>
<path d="M299.984 636.624C300.183 636.992 300.313 637.235 300.444 637.477C300.11 637.65 299.786 637.853 299.433 637.964C299.379 637.981 299.038 637.463 299.094 637.386C299.291 637.116 299.604 636.931 299.984 636.624Z" fill="#937B34"/>
<path d="M858.889 740.129C859.1 739.858 859.321 739.572 859.543 739.287C859.72 739.452 860.074 739.676 860.042 739.773C859.921 740.142 859.675 740.47 859.476 740.814C859.309 740.619 859.142 740.424 858.889 740.129Z" fill="#937B34"/>
</svg>
