<svg width="1081" height="1080" viewBox="0 0 1081 1080" fill="none" xmlns="http://www.w3.org/2000/svg">
<path d="M358.024 397.371C349.635 399.758 341.376 402.542 333.338 406.118C338.37 414.936 343.341 423.65 348.313 432.364C348.389 419.746 353.486 408.768 358.024 397.371ZM732.222 372.547C732.551 372.516 732.691 372.677 732.679 372.994C733.507 373.415 734.144 373.974 734.13 375.003C735.811 375.974 736.033 378.081 737.512 379.234C736.785 377.673 735.897 376.215 734.953 374.795C734.613 374.284 734.289 374.491 734.111 374.994C735.468 374.392 734.228 373.834 734.003 373.379C733.791 372.951 733.408 372.065 732.672 372.994C732.764 372.812 732.981 372.557 732.925 372.459C732.66 371.999 732.438 372.352 732.223 372.557C732.261 372.358 732.657 372.267 732.336 371.947C732.05 371.662 731.891 371.955 731.675 371.982C731.527 371.824 732.13 371.577 731.614 371.463C731.642 371.629 731.671 371.795 731.709 371.952C731.992 372.055 732.287 372.147 732.222 372.547ZM678.146 252.808C680.838 258.014 684.453 262.657 687.332 267.741C693.432 278.511 699.849 289.195 703.609 301.045C708.161 315.394 710.832 330.17 712.154 345.2C712.986 354.664 714.722 364.007 717.414 373.426C720.521 370.53 722.495 366.296 727.139 365.65C731.977 364.977 734.556 368.551 737.491 371.513C738.129 370.881 737.918 370.174 737.895 369.553C737.59 361.288 737.773 353.045 739.098 344.864C740.05 338.982 739.192 333.126 738.842 327.282C737.936 312.158 735.445 297.226 732.901 282.311C731.131 271.934 728.32 261.78 725.93 251.54C721.821 233.938 714.2 217.677 706.532 201.393C693.836 174.429 677.192 150.094 658.321 127.212C649.011 115.923 637.967 106.453 625.674 98.46C619.335 94.338 612.969 90.347 605.973 87.335C596.236 83.143 586.719 78.443 577.031 74.132C560.192 66.638 542.785 62.022 524.099 61.871C514.354 61.792 504.778 63.066 495.108 63.4C487.951 63.647 480.808 63.4229 473.66 63.5339C449.161 63.9159 426.063 69.7969 403.894 80.1609C374.345 93.9759 349.952 114.256 329.104 138.972C309.133 162.647 291.185 187.824 275.067 214.285C271.475 220.182 268.45 226.391 265.376 232.57C265.067 233.192 265.044 234.035 263.999 234.351C263.631 232.6 264.679 231.338 265.238 229.967C274.985 206.049 289.481 184.933 304.179 163.929C316.788 145.91 329.999 128.39 346.079 113.259C372.224 88.655 402.168 70.884 437.382 62.54C452.499 58.959 467.785 58.0859 483.229 58.8539C493.614 59.3709 504.051 59.539 514.379 58.812C523.045 58.201 531.641 57.5939 540.289 58.3569C552.236 59.4089 563.626 62.795 574.592 67.436C587.946 73.087 601.402 78.619 614.274 85.251C626.809 91.709 638.594 99.619 648.802 109.525C672.827 132.838 691.612 160 707.373 189.402C716.326 206.104 724.706 223.122 729.965 241.316C734.598 257.343 738.028 273.73 740.725 290.254C742.892 303.534 744.291 316.872 745.417 330.259C745.977 336.908 745.865 343.492 744.398 350.05C742.87 356.88 742.964 363.904 742.228 370.83C741.959 373.359 741.706 375.893 741.307 378.403C741.162 379.309 741.367 380.072 741.589 380.887C743.334 387.3 744.432 393.847 745.199 400.429C746.075 407.957 742.972 414.984 742.03 422.285C741.285 428.064 740.464 433.875 741.05 439.755C741.227 441.527 741.168 443.33 741.111 445.115C740.882 452.291 742.163 459.336 742.966 466.416C744.164 476.975 744.931 487.527 741.061 497.705C738.4 504.701 733.963 510.62 728.43 515.663C727.376 516.624 727.552 517.805 727.436 518.886C726.994 523.028 726.644 527.184 726.386 531.342C725.606 543.914 723.082 556.198 720.513 568.489C718.867 576.365 718.08 584.448 716.027 592.205C709.637 616.35 702.353 640.255 691.594 662.866C684.288 678.219 675.404 692.839 664.435 705.792C654.233 717.839 641.838 727.631 626.185 732.111C615.811 735.08 605.644 738.868 594.916 740.508C588.52 741.486 582.1 741.729 575.647 740.861C572.706 740.465 569.709 740.723 566.744 740.276C555.695 738.609 544.613 737.348 533.91 733.7C525.427 730.808 516.638 728.722 508.53 724.849C493.252 717.552 477.296 711.721 462.35 703.755C455.115 699.899 448.277 695.258 441.442 690.7C433.076 685.122 425.614 678.385 418.093 671.738C412.961 667.202 408.856 661.745 404.423 656.586C403.136 655.088 401.895 653.725 400.08 652.826C397.563 651.579 395.884 649.263 393.428 646.784C394.331 650.978 392.205 653.438 390.334 656.029C386.654 661.123 382.959 666.198 378.841 670.962C371.031 679.994 361.067 685.653 350.188 690.178C329.268 698.881 307.477 705.124 286.331 713.161C271.159 718.928 255.511 723.452 240.82 730.481C240.681 730.547 240.486 730.495 240.317 730.498V725.898C264.545 716.3 289.159 707.818 313.922 699.691C327.205 695.333 340.536 690.964 353.397 685.32C366.094 679.748 375.799 670.795 384.01 659.917C386.26 656.936 388.725 654.117 390.973 651.135C392.623 648.946 392.46 645.215 390.688 643.173C384.825 636.416 381.01 628.521 377.722 620.301C372.272 606.676 369.821 592.234 366.145 578.127C365.787 576.754 365.958 575.247 365.373 574.115C358.215 575.484 351.805 573.739 345.942 569.842C339.04 565.255 333.64 559.116 328.942 552.378C327.568 550.407 326.612 549.158 324.726 551.683C324.54 551.931 324.195 552.06 323.443 552.572C325.151 549.314 327.04 547.012 329.64 545.175C332.251 543.33 334.65 541.184 337.419 538.946C335.915 538.869 334.603 538.839 333.488 538.11C333.979 536.989 334.943 536.89 336.106 536.773C340.689 536.313 343.988 533.455 346.947 530.306C348.049 529.133 348.329 527.187 348.136 525.496C346.955 515.171 345.941 504.822 343.828 494.624C343.263 491.899 342.896 489.129 342.52 486.368C342.275 484.576 341.608 482.961 340.787 481.383C330.215 461.077 319.644 440.77 309.079 420.46C308.582 419.504 307.939 418.563 308.547 416.893C310.994 421.031 313.421 424.813 315.535 428.762C324.635 445.763 333.565 462.856 342.744 479.814C344.837 483.679 345.206 487.848 345.972 491.945C347.306 499.071 348.278 506.263 349.382 513.303C353.349 509.255 358.089 505.853 361.91 501.407C365.949 496.706 368.269 491.234 369.97 485.485C370.89 482.373 369.381 479.303 368.02 476.487C361.714 463.44 355.721 450.231 348.714 437.537C343.428 427.96 337.847 418.546 332.49 409.007C331.483 407.216 330.577 407.109 328.718 407.853C317.599 412.305 306.432 416.64 295.224 420.865C293.076 421.675 290.997 423.01 288.205 422.843C289.223 421.267 290.701 420.867 291.997 420.266C303.557 414.902 315.462 410.368 327.26 405.574C328.106 405.23 329.951 405.464 328.708 403.393C328.457 402.974 330.621 402.544 330.822 402.803C332.025 404.35 333.153 403.289 334.197 402.848C344.376 398.546 354.575 394.321 365.468 392.093C384.696 388.16 403.256 381.597 422.475 377.612C429.815 376.091 437.388 375.552 444.515 373.225C461.476 367.688 479.248 365.021 495.923 358.506C500.356 356.774 504.187 354.405 506.6 349.814C502.9 350.258 499.422 350.523 495.888 350.423C491.667 350.303 488.352 348.613 485.703 345.601C481.615 340.954 480.249 335.483 481.555 329.41C481.812 328.217 482.951 327.769 483.928 327.295C489.628 324.523 495.619 322.632 501.964 321.497C501.597 320.633 500.881 320.773 500.301 320.743C488.322 320.121 476.338 320.076 464.395 321.221C458.262 321.809 452.184 322.967 446.083 323.882C442.294 324.451 438.472 324.746 434.656 324.697C428.93 324.624 423.372 325.928 417.723 326.455C413.251 326.872 408.795 327.502 404.315 327.792C396.61 328.289 388.966 329.317 381.302 330.183C375.909 330.793 370.519 331.529 365.107 331.829C358.411 332.201 351.851 333.674 345.164 334C336.69 334.413 328.287 335.606 319.813 336.111C310.713 336.653 301.635 337.778 292.649 339.465C290.67 339.836 288.649 339.981 286.663 340.318C282.929 340.952 280.128 343.285 277.348 345.65C276.759 344.872 277.177 344.396 277.641 343.863C279.855 341.32 282.404 339.288 285.778 338.553C286.91 338.306 287.517 337.773 287.745 336.587C290.913 320.151 298.139 305.335 306.512 291.084C323.107 262.839 344.869 239.152 370.948 219.391C371.745 218.787 372.68 218.367 373.551 217.861C374.1 217.889 374.65 217.918 375.199 217.946C357.354 233.23 339.95 248.934 325.982 268.042C312.424 286.588 300.351 305.942 292.794 327.806C291.715 330.928 290.86 334.127 289.843 337.483C293.116 337.559 296.08 336.772 299.06 336.326C304.671 335.485 310.319 335.055 315.948 334.413C323.619 333.538 331.36 333.586 339.017 332.523C340.145 332.366 340.595 331.832 340.938 330.984C348.459 312.36 359.568 295.957 372.052 280.372C387.282 261.358 404.428 244.564 426.142 232.973C437.946 226.672 450.656 223.839 463.926 222.993C474.786 222.301 485.457 223.004 495.917 226.186C500.653 227.626 504.821 230.769 509.86 231.159C514.741 231.535 519.486 232.416 524.159 233.798C524.774 233.98 525.351 234.289 526.491 234.769C523.965 235.486 522.201 234.327 520.366 234.113C517.617 233.791 514.907 233.136 512.159 232.806C510.201 232.571 510.185 232.706 510.484 234.631C503.679 230.803 496.214 232.286 488.984 232.005C486.285 231.9 483.567 232.263 480.287 232.445C489.181 233.567 497.971 232.298 505.663 236.996C505.232 238.196 504.497 237.985 504.057 237.796C499.096 235.67 493.768 235.776 488.574 235.466C473.508 234.566 458.61 235.892 444.016 239.902C432.894 242.957 423.501 249.208 414.494 256.128C406.411 262.339 399.731 269.901 393.595 277.98C393.083 278.654 392.569 279.327 391.944 280.147C391.483 279.167 391.505 278.713 391.84 278.241C401.101 265.191 411.772 253.658 425.684 245.318C435.183 239.623 445.446 236.554 456.241 234.789C463.643 233.578 471.078 232.587 478.483 231.391C484.821 230.368 491.307 230.079 497.808 230.108C494.33 228.354 490.522 227.708 486.752 227.242C471.487 225.354 456.395 226.28 441.624 230.762C428.616 234.709 417.139 241.636 406.621 250.011C378.792 272.17 357.308 299.448 341.982 331.562C341.877 331.782 341.782 332.007 341.599 332.416C354.999 330.321 368.37 328.93 381.721 327.408C389.804 326.486 397.883 325.48 406.042 325.136C411.944 324.888 417.817 323.826 423.686 323.008C427.308 322.504 430.923 322.056 434.585 322.165C441.079 322.358 447.354 320.721 453.731 319.926C459.937 319.153 466.05 317.717 472.398 317.951C477.825 318.15 483.259 316.982 488.707 317.6C494.929 318.306 501.186 318.574 507.399 319.485C511.496 320.085 515.705 319.716 519.863 319.33C522.947 319.045 526.187 318.334 528.533 321.381C530.446 323.866 530.221 326.634 529.515 329.372C528.325 333.988 525.904 338.036 523.272 341.955C523.182 342.089 522.837 342.05 522.237 342.16C523.286 339.842 524.276 337.789 525.15 335.689C526.445 332.578 527.622 329.427 527.505 325.965C527.405 323.002 526.094 321.753 523.114 321.683C510.687 321.389 498.792 323.931 487.266 328.401C482.996 330.058 481.892 331.877 483.159 336.371C484.22 340.131 485.528 343.83 489.001 346.412C491.435 348.22 493.931 349.157 496.879 349.284C501.113 349.465 505.289 349.034 509.457 348.076C507.563 354.372 503.146 357.961 497.483 360.217C492.729 362.111 487.884 363.736 482.958 365.169C472.244 368.287 461.213 370.066 450.502 373.229C425.568 380.592 400.142 386.082 375.015 392.721C370.954 393.794 366.9 394.899 362.807 395.836C360.567 396.349 359.753 398.048 359.016 399.813C356.819 405.075 355.408 410.592 353.777 416.045C351.822 422.576 351.25 429.216 351.23 435.964C351.227 436.841 351.376 437.586 351.782 438.366C357.889 450.117 363.969 461.882 369.64 473.853C372.256 479.376 372.804 484.616 371.015 490.848C368.965 497.988 366.008 504.108 360.747 509.224C359.27 510.66 357.664 511.897 355.911 512.961C351.964 515.354 349.939 518.518 350.616 523.447C351.283 528.3 350.087 532.486 345.369 535.4C339.84 538.814 334.945 543.168 329.892 547.265C329.232 547.8 328.263 548.196 329.316 549.42C334.098 554.978 339.044 560.354 344.779 564.967C350.297 569.406 356.762 571.189 363.626 571.989C365.037 572.154 365.176 571.564 365.024 570.416C364.391 565.633 363.796 560.845 363.201 556.058C362.43 549.85 361.68 543.64 360.907 537.432C360.336 532.841 359.742 528.252 359.447 523.592C360.94 525.449 360.982 527.783 361.398 529.932C364.337 545.092 365.69 560.531 368.806 575.636C371.869 590.487 375.69 605.188 381.131 619.439C384.589 628.499 389.017 636.918 395.378 644.142C396.748 645.699 399.162 646.828 400.89 648.426C409.139 656.058 416.577 664.493 424.837 672.143C433.743 680.392 443.428 687.436 453.593 693.949C468.27 703.353 483.932 710.827 499.617 718.362C515.875 726.173 532.914 731.403 550.283 735.678C557.354 737.419 564.591 739.026 572.036 738.707C573.968 738.624 575.917 739.089 577.864 739.165C591.865 739.717 605.157 736.292 618.246 731.835C623.065 730.194 627.616 727.85 632.273 725.881C646.057 720.056 656.197 710.108 665.139 698.749C672.122 689.878 677.731 680.03 683.316 670.218C691.826 655.267 697.474 639.128 702.707 622.836C706.251 611.803 710.303 600.901 712.657 589.533C715.612 575.269 718.394 560.963 720.883 546.611C722.699 536.144 723.37 525.51 724.183 514.924C725.035 503.823 725.418 492.686 725.875 481.555C726.247 472.531 726.576 463.504 726.105 454.506C725.655 445.905 725.968 437.319 725.796 428.729C725.781 427.973 725.45 427.061 726.516 426.239C730.351 454.834 728.876 483.271 727.765 511.559C728.816 511.999 728.974 511.338 729.181 510.981C731.435 507.081 733.873 503.266 735.833 499.221C739.893 490.84 741.19 481.908 740.29 472.665C739.401 463.521 738.241 454.399 737.554 445.242C736.812 435.346 737.809 425.553 740.167 415.886C743.599 401.814 741.839 388.615 733.475 376.468C732.213 374.635 730.564 372.96 729.941 370.613C729.668 369.584 728.275 369.784 727.254 370.113C724.852 370.885 723.516 372.959 721.728 374.501C719.036 376.821 718.667 379.258 719.581 382.728C721.771 391.035 723.391 399.493 725.225 407.894C725.308 408.273 725.456 408.799 724.95 408.999C724.428 409.204 724.197 408.742 724.036 408.358C723.355 406.736 722.611 405.134 722.046 403.471C717.033 388.728 712.144 373.928 709.231 358.61C707.646 350.272 706.984 341.762 705.787 333.346C703.943 320.38 701.53 307.475 696.39 295.398C691.547 284.016 685.892 272.976 679.447 262.37C676.588 257.666 674.018 252.788 671.303 247.996C670.892 247.27 670.582 246.294 669.7 246.135C668.528 245.924 667.156 246.162 668.795 244.453C669.331 243.894 668.466 243.638 668.148 243.418C666.542 242.307 665.004 240.998 663.237 240.237C650.085 234.571 637.576 227.437 624.027 222.713C616.838 220.207 611.109 215.467 604.707 211.67C605.502 210.411 606.369 210.699 607.254 211.064C608.417 211.545 609.674 211.873 610.733 212.523C616.998 216.376 624 218.355 630.879 220.691C642.376 224.595 652.912 230.761 664.269 235.036C668.499 236.628 672.042 239.59 675.364 242.658C684.865 251.434 695.188 259.299 703.994 268.852C713.327 278.977 720.929 290.19 726.253 302.909C726.554 303.629 727.181 304.321 726.557 306.143C714.477 284.157 697.704 267.126 678.505 252.312C678.308 252.234 677.99 252.039 677.936 252.096C677.648 252.4 677.84 252.636 678.146 252.808Z" fill="#937B34"/>
<path d="M903.108 1021.27C901.45 1016.86 898.388 1013.34 895.662 1009.64C888.013 999.247 877.984 991.345 867.903 983.506C847.354 967.528 826.915 951.405 806.252 935.574C797.418 928.806 788.108 922.663 779.067 916.163C765.407 906.341 751.199 897.282 738.499 886.13C730.129 878.779 721.361 871.877 712.698 864.865C699.915 854.518 687.677 843.604 676.593 831.416C663.158 816.642 652.248 800.253 644.191 781.384C643.044 787.704 642.464 793.593 641.958 799.499C641.434 805.601 640.907 811.703 641.003 817.83C641.097 823.871 641.218 829.916 641.548 835.947C641.876 841.959 642.613 847.951 642.478 854.008C641.603 853.869 641.526 853.263 641.478 852.667C640.243 837.536 638.469 822.433 638.918 807.211C639.205 797.453 640.118 787.76 641.826 778.128C643.405 769.225 644.359 760.204 646.135 751.344C648.043 741.829 648.798 732.121 651.175 722.699C651.461 721.567 651.705 720.37 652.647 719.548C652.979 719.259 653.248 718.567 653.854 718.988C654.342 719.327 654.082 719.795 653.983 720.319C651.442 733.67 649.517 747.118 647.564 760.564C646.933 764.909 646.108 769.228 645.295 773.545C645.005 775.081 644.901 776.533 645.557 778.007C652.369 793.316 661.076 807.418 671.514 820.561C682.556 834.467 695.554 846.335 709.379 857.219C725.35 869.792 740.569 883.344 757.281 894.951C772.505 905.525 787.665 916.186 802.58 927.184C814.493 935.967 826.131 945.122 837.897 954.105C854.128 966.496 870.17 979.134 885.328 992.823C893.504 1000.21 899.74 1009.13 903.731 1019.51C903.774 1019.62 903.993 1019.66 904.13 1019.73C903.996 1020.38 904.684 1021.58 903.108 1021.27Z" fill="#937B34"/>
<path d="M304.029 329.901C303.242 329.142 304.021 328.681 304.216 328.244C315.244 303.584 331.489 282.775 351.395 264.718C365.844 251.612 381.276 239.748 397.931 229.585C411.218 221.477 425.902 217.653 441.402 216.88C448.455 216.528 455.508 216.108 462.566 215.952C474.715 215.683 486.452 218.488 498.2 221.089C502.251 221.987 505.102 225.246 508.866 226.744C509.112 226.842 509.451 227.12 509.252 227.523C509.087 227.858 508.814 228.016 508.421 227.913C507.369 227.635 506.143 227.622 505.29 227.05C501.15 224.279 496.418 223.512 491.676 222.648C480.276 220.57 468.823 219.456 457.212 220.001C441.832 220.724 426.542 221.74 412.02 227.629C403.053 231.265 395.079 236.54 387.134 241.918C367.556 255.17 349.298 269.956 333.406 287.563C322.645 299.485 313.585 312.548 306.198 326.797C305.629 327.896 305.314 329.284 304.029 329.901Z" fill="#937B34"/>
<path d="M655.098 394.188C655.157 394.121 655.209 394.063 655.262 394.004C655.149 393.948 655.041 393.874 654.922 393.848C654.88 393.839 654.812 393.946 654.755 394.001C654.865 394.061 654.975 394.121 655.098 394.188ZM654.418 409.698C655.038 416.318 656.078 422.803 660.108 428.396C661.115 429.792 662.303 430.331 664.019 429.989C666.772 429.439 669.565 426.89 670.061 424.122C670.958 419.114 669.966 414.147 669.503 409.183C669.386 407.928 668.278 407.069 666.905 406.779C664.173 406.202 661.453 405.569 658.723 404.982C655.215 404.228 654.457 404.831 654.353 408.424C654.341 408.848 654.395 409.274 654.418 409.698ZM677.216 400.329C675.449 401.552 673.541 402.516 671.262 403.341C675.106 406.498 679.011 404.072 683.103 403.746C681.651 405.849 679.42 405.199 677.969 406.595C680.414 408.327 682.959 409.911 685.505 412.766C680.328 412.247 676.552 409.741 672.261 408.57C672.577 412.052 672.931 415.458 673.184 418.871C673.442 422.346 673.485 425.806 671.003 428.999C673.338 428.607 674.952 426.986 677.266 426.957C676.707 428.76 675.385 429.719 674.162 430.668C668.546 435.024 662.088 437.07 655.042 437.152C649.454 437.217 643.825 437.637 638.318 436.183C637.754 436.034 637.165 435.899 636.661 435.624C636.095 435.315 635.45 434.937 635.692 434.093C636.001 433.012 636.702 433.394 637.485 433.528C644.84 434.79 652.192 434.053 659.525 433.541C659.556 433.234 659.642 432.994 659.578 432.942C652.44 427.219 651.586 419.209 651.566 410.908C651.563 409.55 651.566 408.164 651.822 406.841C652.369 404.001 652.191 403.839 649.262 404.005C636.74 404.715 626.363 409.915 617.712 418.844C616.414 420.185 614.986 421.403 613.582 422.637C612.904 423.233 612.051 424.171 611.245 423.051C610.582 422.129 611.53 421.407 612.157 420.748C615.921 416.793 620.217 413.462 624.468 410.062C629.333 406.172 634.956 404.019 640.844 402.425C645.593 401.139 649.85 398.953 653.679 395.903C654.158 395.521 655.033 395.174 654.606 394.33C654.151 393.432 653.375 394.109 652.814 394.242C640.203 397.223 628.373 401.935 618.082 410.034C617.732 410.31 617.467 410.908 616.609 410.624C616.653 409.51 617.586 409.039 618.284 408.422C629.119 398.832 642.16 394.405 656.171 392.268C656.775 392.176 657.336 392.084 657.816 391.692C658.107 391.69 658.398 391.687 658.69 391.685C658.728 391.883 658.766 392.081 658.804 392.279C658.71 392.373 658.709 392.467 658.801 392.563C655.653 395.031 653.506 398.61 649.138 400.567C654.588 401.479 658.577 399.755 662.366 397.279C662.579 397.5 662.791 397.721 663.003 397.943C662.194 399.292 660.268 399.353 659.42 401.109C664.919 402.139 668.649 398.857 672.652 396.36C673.099 396.666 673.569 396.776 674.083 396.532C671.6 398.513 669.083 400.446 665.869 402.084C670.14 403.602 673.008 401.082 676.168 399.841C676.517 400.004 676.867 400.166 677.216 400.329Z" fill="#937B34"/>
<path d="M478.517 421.294C481.105 421.992 483.693 422.69 486.281 423.388C486.338 423.239 486.394 423.091 486.45 422.942C484.626 421.578 482.802 420.214 480.978 418.85C480.99 418.476 481.002 418.102 481.014 417.728C481.174 417.804 481.334 417.881 481.494 417.957C481.659 418.065 481.823 418.173 481.988 418.28C485.914 421.436 490.53 422.863 495.35 424.076C502.684 425.923 508.426 430.582 513.875 435.59C515.316 436.914 516.737 438.262 518.105 439.66C518.513 440.078 519.302 440.579 518.524 441.346C517.81 442.05 517.52 441.155 517.091 440.907C513.392 438.772 510.715 435.351 507.185 433C506.909 432.816 506.637 432.627 506.162 432.304C506.202 434.072 506.423 435.696 505.859 437.167C505.684 437.623 505.93 439.134 504.638 438.504C503.884 438.137 502.479 437.916 503.049 436.428C503.49 435.275 503.435 434.192 503.165 432.964C502.506 429.968 500.717 428.526 497.882 427.385C491.027 424.627 484.27 425.796 477.458 427.119C476.882 427.231 476.248 427.439 475.812 428.358C474.558 431.008 474.125 433.998 472.281 436.42C471.523 437.416 473.857 440.656 475.242 440.671C478.816 440.712 482.384 440.686 485.962 440.474C493.952 440.002 501.952 439.87 509.898 441.18C510.317 441.25 510.765 441.269 511.143 441.438C511.797 441.733 512.888 441.803 512.69 442.812C512.468 443.948 511.39 443.42 510.77 443.304C506.14 442.438 501.449 442.51 496.787 442.494C489.981 442.469 483.172 442.773 476.365 442.942C469.267 443.119 462.174 443.336 455.191 444.822C454.821 444.901 454.405 444.758 453.997 444.717C453.959 443.458 454.944 443.539 455.57 443.327C460.272 441.737 465.148 441.079 470.075 440.689C470.669 440.642 472.005 441.047 471.399 439.675C469.591 435.584 470.504 432.053 474.07 428.537C455.431 431.986 439.121 440.138 421.786 445.143C430.654 439.266 440.188 434.853 450.765 431.269C448.25 430.889 446.382 430.606 444.513 430.323C450.624 430.504 456.406 428.471 462.55 427.742C457.733 426.722 452.971 426.108 447.83 424.008C452.666 423.555 456.498 425.159 460.477 425.573C464.556 425.998 468.59 426.356 472.724 425.278C471.788 423.803 469.856 424.994 468.963 423.433C472.725 423.239 476.567 424.405 481.056 423.483C478.735 422.6 477.063 421.963 475.39 421.327C475.732 420.658 476.416 421.032 476.91 420.827L477.921 421.031C478.027 421.33 478.233 421.4 478.517 421.294Z" fill="#937B34"/>
<path d="M452.747 146.331C454.501 144.718 456.57 144.879 458.337 144.542C468.118 142.677 477.928 142.406 487.865 143.709C511.953 146.869 534.102 155.378 555.079 167.303C557.874 168.892 560.652 170.552 562.713 173.1C564.342 175.113 564.026 175.791 561.183 176.218C565.421 179.319 569.351 182.528 572.8 186.287C573.839 187.419 574.712 188.649 575.392 190.017C575.686 190.607 575.632 191.165 575.045 191.588C574.384 192.064 574.147 191.439 573.874 191.096C564.341 179.129 551.289 172.123 537.815 165.846C522.238 158.589 505.987 153.176 489.157 149.684C481.725 148.142 474.176 146.848 466.562 148.946C465.148 149.335 463.838 150.171 462.085 150.044C462.933 148.422 464.579 148.418 465.844 147.971C471.641 145.921 477.614 146.011 483.612 146.829C506.203 149.91 527.301 157.561 547.492 167.895C551.465 169.928 555.17 172.48 559.04 174.721C559.478 174.975 559.891 176.176 560.692 175.112C561.447 174.109 560.593 173.618 559.988 173.118C557.045 170.689 553.788 168.732 550.464 166.884C532.36 156.815 513.111 149.863 492.778 145.984C484.255 144.358 475.586 143.902 466.936 144.46C462.953 144.717 458.922 145.222 455.02 146.307C454.408 146.478 453.707 146.331 452.747 146.331Z" fill="#937B34"/>
<path d="M430.409 165.331C431.823 164.181 433.664 164.612 435.155 164.44C446.891 163.091 458.656 162.696 470.473 163.664C490.581 165.313 510.058 169.865 529.19 176.046C544.346 180.942 558.731 187.416 571.343 197.374C575.224 200.439 578.859 203.758 582.169 207.434C584.875 210.44 585.767 214.131 586.45 218.037C585.043 218.096 584.841 217.188 584.618 216.437C582.568 209.527 577.262 205.157 572.122 200.778C558.174 188.896 541.467 182.47 524.275 177.077C510.037 172.611 495.518 169.319 480.799 166.938C468.527 164.953 456.147 164.417 443.734 164.866C439.677 165.012 435.634 165.504 431.583 165.816C431.214 165.845 430.751 165.965 430.409 165.331Z" fill="#937B34"/>
<path d="M642.594 618.515C642.136 619.819 641.15 619.181 640.512 618.919C629.689 614.464 618.215 613.256 606.735 612.073C604.62 611.855 602.495 611.729 600.372 611.593C596.54 611.348 592.869 611.749 589.073 612.781C580.311 615.164 571.269 616.165 562.329 613.966C556.472 612.525 550.938 613.274 545.196 614.278C531.693 616.638 519.095 621.584 506.694 627.208C506.031 625.808 506.916 625.224 507.824 624.712C509.008 624.045 510.214 623.41 511.437 622.818C524.312 616.59 537.942 612.828 551.983 610.406C556.679 609.596 561.107 611.084 565.568 612.037C573.382 613.705 581.036 612.472 588.52 610.564C592.225 609.62 595.803 608.925 599.547 609.313C611.277 610.529 623.156 610.82 634.437 614.892C637.24 615.904 639.868 617.267 642.539 618.552L642.594 618.515Z" fill="#937B34"/>
<path d="M629.845 267.514C627.721 267.514 625.847 267.726 624.036 267.477C616.635 266.46 609.248 267.422 601.868 267.615C597.168 267.738 592.502 268.862 587.797 269.232C576.937 270.086 566.375 272.838 555.588 274.094C550.961 274.632 546.294 274.831 541.645 275.184C529.362 276.114 517.132 277.263 505.142 280.415C494.544 283.201 483.891 285.856 473.096 287.773C467.495 288.768 461.899 289.741 456.354 291.011C456.06 291.079 455.676 291.092 455.447 290.478C457.176 288.947 459.497 288.871 461.593 288.507C477.519 285.735 493.169 281.763 508.788 277.684C516.843 275.581 525.036 274.817 533.274 274.132C539.943 273.578 546.588 272.711 553.263 272.251C562.71 271.599 571.879 269.019 581.253 268.178C592.286 267.188 603.249 265.083 614.386 265.508C619.12 265.688 623.877 265.685 628.574 266.478C629.006 266.551 629.385 266.619 629.845 267.514Z" fill="#937B34"/>
<path d="M513.933 631.285C517.638 631.809 521.343 632.337 525.049 632.855C531.046 633.692 537.1 633.792 543.125 633.816C551.746 633.851 560.222 634.452 568.646 636.525C576.993 638.579 585.354 637.629 593.564 635.242C598.856 633.703 604.035 631.438 609.549 631.117C614.245 630.843 618.823 630.16 623.416 629.31C627.47 628.559 631.546 627.926 635.619 627.278C636.272 627.174 636.957 627.264 637.821 627.264C636.072 629.07 633.887 629.382 631.832 629.728C624.478 630.967 617.268 632.932 609.708 633.169C604.811 633.323 600.145 635.402 595.483 636.963C585.192 640.408 574.84 640.773 564.385 637.911C560.187 636.762 555.956 636.122 551.584 635.966C540.81 635.583 529.964 635.953 519.354 633.437C517.485 632.994 515.564 632.728 513.933 631.285Z" fill="#937B34"/>
<path d="M466.248 174.083C470.395 174.567 474.565 174.905 478.683 175.567C487.877 177.044 497.051 178.637 506.047 181.128C526.334 186.746 545.451 194.871 562.488 207.429C566.84 210.638 571.311 213.808 573.76 218.913C574.19 219.809 574.539 220.743 574.905 221.668C575.091 222.14 575.253 222.709 574.712 222.994C574.265 223.231 573.886 222.791 573.694 222.44C567.895 211.802 557.537 206.481 547.705 200.841C528.624 189.894 508.061 182.737 486.453 178.561C480.525 177.415 474.607 176.261 468.613 175.511C467.766 175.405 466.958 174.991 466.133 174.72C466.171 174.508 466.21 174.295 466.248 174.083Z" fill="#937B34"/>
<path d="M327.624 191.674C329.607 189.121 331.188 187.002 332.855 184.952C348.923 165.198 368.516 149.564 390.023 136.196C399.769 130.138 409.992 125.104 421.302 122.653C427.655 121.276 434.059 120.211 440.601 120.325C442.357 120.356 443.837 120.792 444.805 122.312C425.501 121.069 408.505 127.312 392.465 137.054C375.318 147.468 359.357 159.435 345.004 173.465C339.668 178.682 334.728 184.295 330.117 190.182C329.668 190.756 329.245 191.469 327.624 191.674Z" fill="#937B34"/>
<path d="M566.528 958.767C566.214 952.362 567.345 946.136 568.78 939.945C574.89 913.593 582.974 887.845 592.944 862.714C600.199 844.427 608.691 826.707 618.961 809.885C620.479 807.4 621.172 807.009 623.259 806.982C617.852 812.576 614.995 819.95 611.379 826.786C595.909 856.033 584.565 886.914 575.539 918.692C572.671 928.789 569.878 938.902 567.976 949.231C567.395 952.387 567.51 955.662 566.528 958.767Z" fill="#937B34"/>
<path d="M525.462 645.727C525.97 646.067 526.478 646.407 526.987 646.747C527.179 646.883 527.371 647.02 527.563 647.156L527.545 647.145C527.708 647.573 528.002 647.795 528.475 647.736C528.67 647.873 528.864 648.011 529.059 648.148C529.215 648.579 529.506 648.812 529.981 648.775C532.133 650.585 534.161 652.532 536.757 653.776C543.723 657.113 549.726 662.212 557.099 664.829C567.162 668.4 577.327 669.649 588.129 668.963C598.205 668.322 607.093 664.754 616.204 661.352C619.193 660.236 621.57 658.109 624.053 656.182C624.082 656.623 624.11 657.063 624.139 657.503C621.851 659.99 619.015 661.667 615.953 662.991C606.875 666.915 597.538 669.629 587.628 670.84C572.181 672.728 558.242 669.382 545.051 661.31C538.135 657.078 531.776 652.2 525.477 647.178C525.472 646.694 525.467 646.211 525.462 645.727Z" fill="#937B34"/>
<path d="M468.775 111.233C489.09 110.339 508.8 112.695 527.3 121.87C535.828 126.099 543.059 131.886 549.054 139.243C549.972 140.369 551.1 141.536 549.985 143.472C535.231 125.652 515.877 117.148 493.651 114.161C485.552 113.073 477.422 112.449 469.267 112.075C469.103 111.795 468.939 111.514 468.775 111.233Z" fill="#937B34"/>
<path d="M424.491 598.236C422.994 595.507 421.459 592.798 420.005 590.046C407.76 566.855 396.176 543.353 386.743 518.85C384.338 512.602 382.22 506.255 380.655 499.727C380.308 498.278 380.356 496.875 380.3 495.447C380.275 494.813 380.096 493.993 380.947 493.704C381.557 493.497 382.074 493.829 382.5 494.291C383.104 494.946 383.194 495.907 382.607 496.295C381.269 497.178 381.956 498.094 382.215 499.086C386.493 515.415 393.22 530.812 400.113 546.145C407.668 562.952 415.607 579.572 424.26 595.845C424.6 596.485 424.809 597.194 425.079 597.87C424.883 597.992 424.687 598.114 424.491 598.236Z" fill="#937B34"/>
<path d="M386.717 166.986C382.403 168.925 378.325 170.732 374.457 172.965C366.419 177.606 359.464 183.664 352.606 189.806C343.546 197.92 334.82 206.381 326.484 215.26C316.161 226.254 306.513 237.791 297.396 249.789C296.972 250.348 296.772 251.237 295.386 251.045C297.784 247.765 299.994 244.589 302.359 241.532C313.217 227.5 324.87 214.149 337.581 201.774C347.668 191.954 357.83 182.166 369.593 174.29C374.318 171.127 379.32 168.442 384.735 166.593C385.337 166.387 385.823 166.19 386.717 166.986Z" fill="#937B34"/>
<path d="M495.778 301.242C504.721 301.43 512.833 298.077 521.285 296.455C530.457 294.695 539.597 292.848 548.987 292.482C553.935 292.29 558.776 290.924 563.72 290.368C568.713 289.806 573.718 290.02 578.712 289.55C586.106 288.855 593.491 288.155 600.839 287.063C602.53 286.812 604.265 286.849 605.979 286.754C606.003 286.966 606.027 287.178 606.051 287.391C601.768 288.092 597.503 288.956 593.197 289.457C586.312 290.259 579.411 291 572.496 291.42C567.762 291.707 563.046 291.977 558.323 292.512C541.631 294.403 524.958 296.301 508.737 300.976C505.176 302.002 501.463 302.485 497.714 302.265C497.081 302.228 496.312 302.509 495.778 301.242Z" fill="#937B34"/>
<path d="M471.839 102.567C483.629 101.892 494.994 104.433 506.299 107.256C512.561 108.819 518.69 110.852 524.55 113.614C528.187 115.329 531.545 117.474 534.594 120.093C535.695 121.038 536.694 122.067 536.052 123.831C529.316 117.3 520.999 114.01 512.44 111.197C499.72 107.017 486.618 104.678 473.347 103.178C473.183 102.9 472.966 102.876 472.709 103.047C472.409 103.007 472.109 102.967 471.809 102.927C471.884 102.812 471.894 102.692 471.839 102.567Z" fill="#937B34"/>
<path d="M476.904 135.082C482.902 134.7 488.793 135.725 494.616 136.842C510.051 139.802 525.063 144.278 539.525 150.482C546.627 153.529 553.727 156.617 559.355 162.166C559.909 162.712 560.842 163.099 560.665 164.173C559.982 164.665 559.488 164.129 559.103 163.784C551.644 157.074 542.547 153.335 533.421 149.7C519.517 144.162 505.168 140.093 490.476 137.275C486.612 136.534 482.668 136.211 478.766 135.657C478.131 135.567 477.524 135.279 476.904 135.082Z" fill="#937B34"/>
<path d="M586.399 450.393C585.216 445.268 585.462 440.136 585.921 435.125C586.557 428.176 587.547 421.218 589.855 414.559C591.189 410.708 593.018 407.101 595.507 403.854C596.175 402.983 596.841 402.117 597.985 401.762C598.66 401.552 599.172 401.726 599.564 402.192C600.011 402.724 599.879 403.382 599.427 403.807C594.877 408.075 592.912 413.725 591.459 419.487C589.065 428.986 587.178 438.598 587.298 448.477C587.306 449.143 587.442 449.868 586.399 450.393Z" fill="#937B34"/>
<path d="M570.239 570.886C573.188 571.414 575.663 572.193 578.314 572.12C584.256 571.958 589.138 569.886 592.784 565.068C596.286 560.441 600.551 556.66 605.582 553.731C607.361 552.696 609.249 552.475 611.2 552.611C613.106 552.744 613.416 554.188 613.354 555.72C613.228 558.79 608.423 561.816 605.036 560.729C606.659 559.914 608.105 559.202 609.537 558.464C610.67 557.879 611.691 556.952 611.21 555.677C610.672 554.255 609.033 555.045 608.348 555.343C604.621 556.965 600.976 558.816 599.157 562.839C598.59 564.09 598.569 564.066 597.461 563.228C596.806 562.733 596.662 563.508 596.425 563.763C594.749 565.568 593.283 567.597 591.457 569.225C586.202 573.91 580.103 575.168 573.373 573.076C572.363 572.762 571.294 572.369 570.239 570.886Z" fill="#937B34"/>
<path d="M557.601 155.766C551.015 149.594 543.226 146.202 535.441 142.88C522.881 137.52 509.618 134.413 496.428 131.103C495.85 130.958 495.293 130.932 494.82 130.082C498.072 129.822 500.944 130.975 503.865 131.602C517.044 134.427 529.985 138.04 542.183 143.914C546.968 146.218 551.744 148.599 555.679 152.264C556.568 153.092 557.983 153.825 557.601 155.766Z" fill="#937B34"/>
<path d="M401.359 147.035C400.812 147.502 400.602 147.819 400.326 147.897C390.164 150.734 381.855 156.816 373.635 163.069C360.146 173.332 347.877 184.939 336.056 197.046C335.439 197.679 334.984 198.577 333.708 198.77C333.961 197.736 334.576 197.089 335.176 196.466C349.339 181.777 364.09 167.74 380.823 155.955C386.232 152.145 391.981 148.927 398.441 147.156C399.295 146.921 400.082 146.877 401.359 147.035Z" fill="#937B34"/>
<path d="M559.729 401.965C558.709 401.268 558.725 400.549 558.72 399.904C558.654 390.482 558.257 381.065 559.051 371.643C559.641 364.629 559.869 357.584 560.188 350.549C560.281 348.479 560.761 346.632 562.483 345.102C561.996 364.007 559.735 382.809 559.729 401.965Z" fill="#937B34"/>
<path d="M582.187 301.412C579.98 302.351 577.561 302.425 575.237 302.739C568.383 303.667 561.514 304.523 554.629 305.181C548.81 305.737 542.961 305.99 537.123 306.335C536.642 306.364 535.76 306.725 535.748 305.777C535.739 305.131 536.374 304.951 537.009 304.781C539.906 304.005 542.906 304.12 545.837 303.889C554.181 303.231 562.481 302.226 570.797 301.33C574.55 300.926 578.347 300.942 582.125 300.768C582.145 300.982 582.166 301.197 582.187 301.412Z" fill="#937B34"/>
<path d="M358.635 222.601C348.527 233.328 338.3 243.851 329.42 255.667C328.414 254.586 329.075 253.724 329.57 253.033C337.689 241.69 347.141 231.59 357.972 222.79C358.136 222.657 358.412 222.661 358.635 222.601Z" fill="#937B34"/>
<path d="M555.111 514.762C553.555 514.154 554.081 513.044 554.105 512.235C554.385 502.636 553.167 493.124 552.452 483.587C551.987 477.369 551.154 471.179 550.504 464.975C550.446 464.415 549.679 463.547 550.771 463.362C551.71 463.204 551.932 464.141 552.042 464.902C552.563 468.48 553.21 472.048 553.544 475.644C554.674 487.804 555.54 499.981 555.115 512.211C555.087 513.019 555.111 513.829 555.111 514.762Z" fill="#937B34"/>
<path d="M598.839 103.026C583.922 108.28 569.285 113.829 557.071 124.13C556.467 122.848 556.49 122.868 557.622 121.575C560.007 118.85 563.125 117.113 566.182 115.343C575.87 109.731 586.245 105.797 597.079 103.044C597.631 102.904 598.251 103.026 598.839 103.026Z" fill="#937B34"/>
<path d="M550.027 682.144C567.485 675.986 585.423 673.48 603.881 674.904C585.672 675.435 567.689 677.625 550.027 682.144Z" fill="#937B34"/>
<path d="M623.86 167.828C618.552 168.051 613.848 167.058 609.093 167.343C601.856 167.776 594.685 168.613 587.832 171.07C586.167 171.667 583.445 171.799 584.333 175.024C581.969 173.752 581.922 172.34 584.076 170.899C586.909 169.004 590.205 168.217 593.446 167.472C603.125 165.248 612.888 165.616 622.651 166.906C622.92 166.942 623.149 167.273 623.86 167.828Z" fill="#937B34"/>
<path d="M557.998 224.199C548.395 216.154 536.796 211.341 525.866 204.555C527.608 203.976 528.374 204.833 529.189 205.202C537.43 208.925 545.551 212.895 553.058 217.982C555.278 219.486 557.223 221.321 557.998 224.199Z" fill="#937B34"/>
<path d="M639.499 375.528C639.362 374.205 639.816 373.567 640.425 373.11C646.343 368.679 650.353 362.433 655.511 357.283C657.667 355.131 659.711 352.833 662.436 351.367C662.987 351.071 663.668 350.285 664.597 351.334C657.84 356.669 652.819 363.61 647.137 369.945C645.05 372.271 642.536 374.047 639.499 375.528Z" fill="#937B34"/>
<path d="M638.825 215.57C634.24 215.737 630.07 214.276 625.841 213.168C620.427 211.751 615.125 209.895 609.532 209.22C609.034 209.159 608.383 209.137 608.336 208.528C608.291 207.931 608.883 207.813 609.399 207.665C611.802 206.974 614.098 207.812 616.331 208.338C623.724 210.079 630.943 212.445 638.109 214.961C638.385 215.057 638.588 215.362 638.825 215.57Z" fill="#937B34"/>
<path d="M319.454 556.036C309.259 564.901 299.794 574.656 288.255 581.885C287.459 580.99 288.145 580.612 288.572 580.358C295.26 576.383 300.423 570.584 306.254 565.588C309.865 562.494 313.408 559.312 316.832 556.014C317.659 555.218 318.268 555.807 318.962 555.674C319.126 555.794 319.29 555.915 319.454 556.036Z" fill="#937B34"/>
<path d="M576.345 166.826C576.023 163.986 577.608 162.17 579.608 160.649C583.262 157.871 587.411 156.153 591.833 154.965C598.47 153.183 605.207 152.424 612.272 152.54C611.525 153.943 610.346 153.475 609.385 153.558C600.675 154.308 592.109 155.625 584.206 159.7C580.962 161.373 578.377 163.746 576.345 166.826Z" fill="#937B34"/>
<path d="M565.654 138.98C564.794 137.293 566.034 136.572 566.792 135.879C570.206 132.755 574.528 131.267 578.702 129.544C586.336 126.395 594.374 124.915 602.524 123.943C603.048 123.881 603.708 123.652 604.379 124.653C601.59 125.111 598.964 125.489 596.36 125.979C586.78 127.783 577.701 131.007 569.172 135.74C567.806 136.498 566.777 137.709 565.654 138.98Z" fill="#937B34"/>
<path d="M560.192 98.3132C554.091 103.023 547.541 107.138 541.743 112.251C541.272 112.667 540.692 113.348 540.018 112.624C539.513 112.081 539.983 111.476 540.309 111.018C540.748 110.401 541.244 109.796 541.823 109.314C547.369 104.702 553.195 100.503 559.722 97.3582C560.1 97.4662 560.551 97.4302 560.75 97.8852C560.75 97.8852 560.757 97.8802 560.756 97.8802C560.439 97.8562 560.26 98.0122 560.192 98.3132Z" fill="#937B34"/>
<path d="M678.541 349.51C672.17 352.953 666.655 356.786 661.109 360.566C658.637 362.251 656.56 364.364 654.765 366.77C654.32 367.365 653.814 368.597 652.912 367.962C652.155 367.429 653.116 366.682 653.477 366.041C656.013 361.54 659.895 358.484 664.245 355.935C667.652 353.94 671.088 351.995 674.519 350.041C675.625 349.411 676.789 349.011 678.541 349.51Z" fill="#937B34"/>
<path d="M499.716 452.91C491.676 453.418 483.688 452.025 475.692 452.567C467.902 453.095 460.048 453.163 452.431 455.152C467.955 449.805 483.873 451.54 499.716 452.91Z" fill="#937B34"/>
<path d="M588.615 184.518C589.08 182.555 590.343 181.983 591.602 181.704C598.505 180.176 605.484 179.693 612.533 180.434C615.822 180.781 619.157 180.816 622.332 182.068C616.742 182.087 611.17 181.356 605.586 181.679C599.974 182.004 594.293 181.941 588.615 184.518Z" fill="#937B34"/>
<path d="M522.521 215.276C526.667 216.171 530.325 217.916 533.84 219.978C537.648 222.211 541.141 224.868 544.117 228.155C544.737 228.839 545.35 229.566 545.78 230.372C546.033 230.847 546.825 231.51 545.908 232.091C545.057 232.631 544.681 231.837 544.309 231.331C541.653 227.726 538.126 225.094 534.557 222.499C531.286 220.121 527.766 218.212 524.035 216.662C523.541 216.457 522.806 216.485 522.521 215.276Z" fill="#937B34"/>
<path d="M634.001 365.083C624.815 368.148 618.918 374.455 612.829 380.699C611.722 375.781 627.506 363.799 634.001 365.083Z" fill="#937B34"/>
<path d="M607.254 141.851C595.465 144.547 583.715 147.19 573.395 155.203C576.443 148.291 599.911 141.262 607.254 141.851Z" fill="#937B34"/>
<path d="M291.532 411.858C296.3 401.777 299.151 390.865 304.966 381.24C305.145 380.944 305.515 380.858 305.87 381.12C301.337 391.494 296.801 401.875 292.265 412.256C292.02 412.123 291.776 411.991 291.532 411.858Z" fill="#937B34"/>
<path d="M624.912 377.256C631.537 370.756 639.186 365.63 647.367 361.216C647.514 361.414 647.662 361.612 647.809 361.81C640.358 367.2 632.906 372.59 625.454 377.98C625.273 377.738 625.093 377.497 624.912 377.256Z" fill="#937B34"/>
<path d="M550.109 571.057C548.7 572.448 547.711 573.005 546.39 573.131C543.531 573.402 540.883 572.633 538.345 571.516C536.581 570.74 535.083 569.368 535.246 567.292C535.433 564.933 536.113 562.627 538.784 560.934C538.498 563.185 537.724 564.774 537.681 566.544C537.638 568.282 538.368 569.351 539.832 569.845C542.441 570.726 545.029 571.937 547.93 571.076C548.389 570.94 548.924 571.057 550.109 571.057Z" fill="#937B34"/>
<path d="M546.382 440.919C543.283 432.345 539.186 424.357 532.885 417.517C534.582 416.825 535.302 417.911 536.036 418.59C540.336 422.566 546.052 434.628 546.382 440.919Z" fill="#937B34"/>
<path d="M480.42 391.759C483.198 391.1 485.636 392.119 488.083 393.122C492.426 394.901 496.626 396.932 500.267 399.954C500.851 400.438 501.441 400.973 501.837 401.604C502.077 401.987 502.769 402.469 502.067 403.107C501.351 403.758 500.934 403.064 500.595 402.729C496.573 398.762 491.536 396.433 486.548 394.055C484.586 393.119 482.467 392.514 480.42 391.759Z" fill="#937B34"/>
<path d="M311.547 409.262C310.989 408.499 311.437 407.826 311.731 407.135C314.946 399.568 318.254 392.043 322.155 384.798C322.806 383.59 323.427 382.259 325.318 381.419C319.951 390.686 316.133 400.171 311.508 409.263L311.547 409.262Z" fill="#937B34"/>
<path d="M312.096 382.709L300.002 409.966C299.793 409.872 299.585 409.779 299.376 409.685C303.116 400.45 306.606 391.104 311.329 382.305C311.585 382.44 311.84 382.574 312.096 382.709Z" fill="#937B34"/>
<path d="M627.008 549.505C624.44 556.505 621.751 562.948 615.531 567.14C614.97 567.518 614.478 568.011 613.741 567.991C613.418 567.983 613.01 568.026 612.932 567.603C612.894 567.399 613.002 567.036 613.158 566.95C620.037 563.141 622.307 555.839 626.212 549.777C626.245 549.727 626.352 549.725 627.008 549.505Z" fill="#937B34"/>
<path d="M560.565 131.145C559.628 129.771 560.452 128.935 561.307 128.127C566.106 123.589 571.945 121.034 578.216 119.342C579.006 119.129 579.743 118.573 580.644 118.797C580.928 118.868 581.228 118.871 581.581 119.104C573.931 121.989 566.271 124.769 560.565 131.145Z" fill="#937B34"/>
<path d="M507.369 223.142C512.698 224.839 517.355 226.801 521.926 228.959C524.183 230.025 526.362 231.271 528.512 232.545C529.174 232.938 530.177 233.638 529.431 234.556C528.793 235.342 528.317 234.241 527.82 233.938C522.105 230.453 515.94 227.888 509.88 225.107C509.091 224.744 508.092 224.684 507.369 223.142Z" fill="#937B34"/>
<path d="M567.2 564.869C564.677 563.935 562.316 562.633 559.784 561.687C557.824 560.954 556.366 561.667 554.803 562.479C553.833 562.983 554.007 563.936 554.123 564.739C554.325 566.14 555.624 566.464 556.673 566.894C557.42 567.2 558.35 566.714 559.345 567.302C558.183 568.368 557.091 568.847 555.602 568.186C553.904 567.433 552.499 566.539 552.473 564.394C552.455 562.837 552.968 561.931 554.429 561.025C557.656 559.024 564.708 561.48 567.2 564.869Z" fill="#937B34"/>
<path d="M448.75 393.293C456.648 392.691 469.66 398.226 469.497 402.018C463.505 396.869 455.872 395.681 448.75 393.293Z" fill="#937B34"/>
<path d="M609.616 660.045C603.497 663.816 596.963 666.135 589.709 665.927C596.368 664.039 603.164 662.617 609.616 660.045Z" fill="#937B34"/>
<path d="M622.616 203.063C619.821 202.883 617.026 202.842 614.27 202.491C610.717 202.04 607.197 201.882 603.679 202.636C603.137 202.752 602.548 203.224 602.244 202.411C601.913 201.523 602.594 201.249 603.267 201.045C606.338 200.114 609.497 200.48 612.588 200.671C615.659 200.861 618.695 201.611 621.751 202.088C622.194 202.157 622.593 202.168 622.616 203.063Z" fill="#937B34"/>
<path d="M669.65 360.311C672.134 356.444 676.129 355.442 680.242 354.958C682.619 354.679 685.25 354.475 687.285 357.499C680.529 355.286 675.09 357.648 669.65 360.311Z" fill="#937B34"/>
<path d="M509.65 100.15C516.033 101.445 522.194 103.32 527.956 106.317C528.643 106.674 529.289 107.134 529.455 107.941C529.51 108.207 529.321 108.603 529.117 108.821C528.859 109.097 528.53 109.013 528.272 108.69C526.359 106.294 523.389 105.797 520.809 104.65C517.146 103.022 513.375 101.638 509.65 100.15Z" fill="#937B34"/>
<path d="M469.249 392.601C475.302 394.037 480.287 396.179 484.972 399.04C485.687 399.478 486.396 400.001 486.933 400.634C487.386 401.167 488.214 401.956 487.555 402.613C486.781 403.385 486.296 402.283 485.798 401.85C481.677 398.267 476.69 396.299 471.726 394.304C470.984 394.005 470.212 393.869 469.249 392.601Z" fill="#937B34"/>
<path d="M612.196 191.849C609.213 192.435 606.19 192.872 603.259 193.655C600.853 194.298 598.548 195.33 596.219 196.242C595.599 196.485 594.981 197.052 594.534 196.159C594.191 195.472 594.814 195.085 595.298 194.749C597.624 193.134 600.377 192.614 603.03 191.937C605.98 191.184 609.038 191.241 612.196 191.849Z" fill="#937B34"/>
<path d="M512.252 390.427C515.365 390.932 517.701 392.748 519.756 394.946C521.712 397.037 523.459 399.29 524.555 401.993C524.826 402.662 525.26 403.281 524.443 403.72C523.532 404.211 523.296 403.212 523.016 402.75C521.845 400.82 520.686 398.896 519.375 397.046C517.454 394.339 514.945 392.358 512.252 390.427Z" fill="#937B34"/>
<path d="M326.194 401.367C328.478 394.863 331.435 388.677 334.938 382.75C332.591 389.225 329.697 395.44 326.194 401.367Z" fill="#937B34"/>
<path d="M435.505 403.1C428.005 401.411 420.778 403.127 413.539 404.732C420.615 401.306 427.895 400.221 435.505 403.1Z" fill="#937B34"/>
<path d="M453.207 400.914C444.872 398.728 436.45 397.319 427.794 397.626C432.159 395.59 448.069 397.933 453.207 400.914Z" fill="#937B34"/>
<path d="M700.25 360.951C695.99 361.257 691.832 360.68 687.737 361.503C687.208 361.609 686.2 361.994 686.011 361.089C685.77 359.934 686.959 359.758 687.673 359.577C691.18 358.691 694.71 358.818 698.171 359.828C698.811 360.015 699.778 359.605 700.25 360.951Z" fill="#937B34"/>
<path d="M569.428 146.875C568.653 145.938 568.657 145.047 569.365 144.129C572.96 139.472 577.917 137.088 583.468 135.709C583.538 135.691 583.668 135.909 583.914 136.171C578.472 138.828 572.49 140.728 569.428 146.875Z" fill="#937B34"/>
<path d="M347.6 381.959C344.98 386.753 342.388 391.543 339.642 396.249C340.669 390.595 343.685 386.02 347.6 381.959Z" fill="#937B34"/>
<path d="M387.013 349.859C387.573 345.198 387.845 340.576 389.011 336.083C389.135 335.605 389.121 334.915 389.812 335.13C390.427 335.322 390.431 335.826 390.264 336.557C389.269 340.898 388.548 345.29 388.297 349.746C388.273 350.168 388.304 350.626 388.147 350.998C387.838 351.73 389.621 352.624 388.289 352.915C387.07 353.182 387.621 351.483 387.13 350.779C386.96 350.536 387.039 350.119 387.013 349.859Z" fill="#937B34"/>
<path d="M534.256 110.96C534.56 108.329 540.784 104.039 546.834 102.319C542.76 105.118 538.685 107.917 534.256 110.96Z" fill="#937B34"/>
<path d="M617.382 368.488C613.23 372.831 608.978 376.183 605.933 381.069C605.959 377.381 612.308 370.332 617.382 368.488Z" fill="#937B34"/>
<path d="M601.537 617.636C596.871 618.93 592.621 619.488 588.384 620.094C587.842 620.171 586.833 620.621 586.763 619.581C586.709 618.77 587.611 618.651 588.288 618.57C592.506 618.069 596.722 617.537 601.537 617.636Z" fill="#937B34"/>
<path d="M502.332 393.607C506.49 394.874 510.335 395.882 513.356 398.735C513.922 399.269 514.679 400.085 514.244 400.613C513.487 401.529 512.973 400.352 512.478 399.919C510.039 397.785 507.192 396.411 504.214 395.228C503.611 394.988 502.665 395.083 502.332 393.607Z" fill="#937B34"/>
<path d="M663.003 397.942C662.791 397.721 662.578 397.5 662.366 397.278C665.498 394.817 668.629 392.355 671.761 389.893C669.331 393.177 666.918 396.43 663.003 397.942Z" fill="#937B34"/>
<path d="M552.108 378.922C552.183 383.67 553.291 388.344 553.342 393.101C551.551 388.503 551.165 383.774 552.108 378.922Z" fill="#937B34"/>
<path d="M566.846 607.426H578.332C574.514 608.317 570.701 609.64 566.856 608.232C566.853 607.963 566.849 607.695 566.846 607.426Z" fill="#937B34"/>
<path d="M552.417 120.592C552.214 117.629 556.791 112.888 561.379 111.466C557.8 114.508 554.387 116.829 552.417 120.592Z" fill="#937B34"/>
<path d="M353.695 389.601C355.208 386.442 356.939 383.419 359.37 380.164C359.563 382.388 358.487 383.552 357.691 384.688C356.482 386.414 355.81 388.638 353.632 389.569L353.695 389.601Z" fill="#937B34"/>
<path d="M610.714 656.616C607.212 658.078 603.591 659.33 599.647 660.125C600.849 658.399 604.995 657.143 610.714 656.616Z" fill="#937B34"/>
<path d="M593.201 424.25C593.152 420.87 593.066 417.48 595.791 414.859C594.928 417.99 594.064 421.12 593.201 424.25Z" fill="#937B34"/>
<path d="M401.513 409.493C403.969 407.431 406.811 406.507 410.022 406.781C407.216 407.754 404.426 408.763 401.513 409.493Z" fill="#937B34"/>
<path d="M476.91 420.827C476.416 421.032 475.731 420.659 475.39 421.327C473.278 421.01 471.476 419.92 469.614 418.932C472.123 419.277 474.59 419.757 476.91 420.827Z" fill="#937B34"/>
<path d="M620.296 431.4C622.434 430.867 624.202 431.919 626.054 432.616C623.957 432.97 622.073 432.415 620.296 431.4Z" fill="#937B34"/>
<path d="M658.689 391.685C658.398 391.688 658.106 391.69 657.815 391.693C658.878 389.913 659.941 388.133 661.004 386.354C660.962 388.471 660.013 390.163 658.689 391.685Z" fill="#937B34"/>
<path d="M471.838 102.567C471.893 102.692 471.883 102.812 471.808 102.927C469.172 103.213 466.496 102.578 464.498 103.259C466.57 103.472 469.1 101.852 471.838 102.567Z" fill="#937B34"/>
<path d="M596.101 422.947C596.006 420.906 595.739 419.476 596.199 418.078C596.359 417.594 596.673 417.094 597.304 417.339C597.793 417.529 597.717 418.031 597.591 418.431C597.174 419.756 596.723 421.072 596.101 422.947Z" fill="#937B34"/>
<path d="M468.776 111.233C468.94 111.514 469.104 111.795 469.268 112.075H462.434C464.571 111.945 466.585 110.892 468.776 111.233Z" fill="#937B34"/>
<path d="M677.216 400.329C676.867 400.166 676.517 400.004 676.167 399.841C677.583 398.986 678.999 398.131 680.415 397.276C679.623 398.649 678.826 399.953 677.216 400.329Z" fill="#937B34"/>
<path d="M394.184 345.962C393.89 345.529 393.644 345.334 393.664 345.17C393.81 343.965 393.109 342.68 393.99 341.562C394.035 341.505 394.576 341.69 394.578 341.768C394.606 343.082 394.922 344.441 394.184 345.962Z" fill="#937B34"/>
<path d="M375.2 217.946C374.651 217.917 374.101 217.889 373.552 217.86C374.706 216.717 375.976 215.773 377.948 215.209C377.243 216.735 376.198 217.317 375.2 217.946Z" fill="#937B34"/>
<path d="M560.751 97.885C560.552 97.43 560.1 97.466 559.723 97.358C561.072 96.391 562.518 95.653 564.307 95.62C563.122 96.375 561.936 97.13 560.751 97.885Z" fill="#937B34"/>
<path d="M481.014 417.728C481.002 418.102 480.99 418.476 480.978 418.85C479.558 418.244 478.663 417 476.957 415.723C478.921 416.148 479.996 416.879 481.014 417.728Z" fill="#937B34"/>
<path d="M331.746 200.979C331.11 202.293 330.475 203.606 328.577 204.339C329.22 202.463 330.432 201.665 331.746 200.979Z" fill="#937B34"/>
<path d="M674.082 396.532C673.569 396.776 673.098 396.666 672.651 396.36C673.422 395.464 674.394 394.84 675.672 394.126C675.524 395.378 674.843 395.98 674.082 396.532Z" fill="#937B34"/>
<path d="M624.642 655.584C625.475 654.778 626.196 653.832 627.634 653.615C626.895 654.51 626.156 655.404 625.417 656.299C625.159 656.061 624.9 655.822 624.642 655.584Z" fill="#937B34"/>
<path d="M525.461 645.727C525.466 646.211 525.471 646.694 525.476 647.178C525.183 647.036 524.823 646.96 524.612 646.74C524.101 646.208 522.638 645.979 523.303 645.056C524.106 643.941 524.795 645.244 525.461 645.727Z" fill="#937B34"/>
<path d="M520.825 642.108C521.179 642.407 521.533 642.706 521.887 643.005C521.546 643.212 521.205 643.419 520.863 643.626C520.348 643.128 519.214 643.242 519.351 642.099C519.843 642.102 520.334 642.105 520.825 642.108Z" fill="#937B34"/>
<path d="M522.022 644.61C521.867 644.593 521.769 644.51 521.729 644.359C521.993 644.088 522.257 643.816 522.521 643.545C523.025 643.891 523.852 644.09 523.77 644.798C523.707 645.344 523.061 645.306 522.576 645.069C522.391 644.916 522.207 644.763 522.022 644.61Z" fill="#937B34"/>
<path d="M624.138 657.503C624.11 657.063 624.081 656.622 624.053 656.182C624.249 655.982 624.445 655.783 624.641 655.583C624.899 655.822 625.158 656.06 625.416 656.298C625.079 656.794 624.761 657.311 624.138 657.503Z" fill="#937B34"/>
<path d="M522.521 643.544C522.257 643.815 521.993 644.087 521.729 644.359C521.31 644.269 521.001 644.048 520.863 643.626C521.204 643.419 521.546 643.212 521.887 643.005C522.236 643.023 522.479 643.165 522.521 643.544Z" fill="#937B34"/>
<path d="M327.758 191.746C328.087 191.557 328.27 191.92 328.225 192.018C328.099 192.292 327.881 192.552 327.638 192.737C327.268 193.019 327.254 192.575 327.23 192.427C327.17 192.055 327.437 191.862 327.758 191.746Z" fill="#937B34"/>
<path d="M658.801 392.562C658.709 392.468 658.71 392.373 658.804 392.28C659.291 392.307 659.778 392.333 660.265 392.36C660.263 392.427 660.261 392.495 660.259 392.562H658.801Z" fill="#937B34"/>
<path d="M318.962 555.674C319.185 555.072 319.573 555.11 320.026 555.401C319.835 555.613 319.645 555.825 319.454 556.036C319.29 555.916 319.126 555.795 318.962 555.674Z" fill="#937B34"/>
<path d="M520.825 642.109C520.334 642.106 519.843 642.103 519.351 642.1C519.85 640.92 520.337 641.57 520.825 642.109Z" fill="#937B34"/>
<path d="M528.475 647.736C528.002 647.795 527.708 647.573 527.545 647.145C527.986 647.135 528.263 647.384 528.475 647.736Z" fill="#937B34"/>
<path d="M353.633 389.569C354.023 389.776 353.868 390.066 353.717 390.318C353.67 390.396 353.479 390.388 353.354 390.42C353.47 390.148 353.587 389.877 353.699 389.603C353.696 389.601 353.633 389.569 353.633 389.569Z" fill="#937B34"/>
<path d="M529.981 648.774C529.506 648.811 529.215 648.579 529.059 648.147C529.505 648.152 529.771 648.421 529.981 648.774Z" fill="#937B34"/>
<path d="M642.538 618.552L642.523 618.504C642.523 618.504 642.581 618.533 642.587 618.524C642.593 618.515 642.538 618.552 642.538 618.552Z" fill="#937B34"/>
<path d="M522.022 644.61C522.207 644.763 522.391 644.916 522.576 645.069C522.247 645.09 522.09 644.903 522.022 644.61Z" fill="#937B34"/>
<path d="M560.192 98.313C560.26 98.012 560.439 97.856 560.756 97.88C560.568 98.024 560.38 98.169 560.192 98.313Z" fill="#937B34"/>
<path d="M527.562 647.156C527.37 647.02 527.178 646.883 526.985 646.747C527.178 646.883 527.37 647.02 527.562 647.156Z" fill="#937B34"/>
<path d="M478.517 421.294C478.233 421.4 478.027 421.33 477.921 421.031C478.12 421.119 478.318 421.206 478.517 421.294Z" fill="#937B34"/>
<path d="M472.709 103.047C472.966 102.876 473.182 102.9 473.347 103.178C473.087 103.362 472.873 103.326 472.709 103.047Z" fill="#937B34"/>
<path d="M311.508 409.263C311.448 409.24 311.388 409.217 311.328 409.194C311.398 409.216 311.469 409.239 311.543 409.262C311.547 409.262 311.508 409.263 311.508 409.263Z" fill="#937B34"/>
<path d="M481.987 418.28C481.822 418.172 481.658 418.064 481.493 417.957C481.658 418.064 481.822 418.172 481.987 418.28Z" fill="#937B34"/>
<path d="M734.107 374.993C734.289 374.492 734.613 374.284 734.953 374.795C735.897 376.215 736.785 377.673 737.511 379.235C736.033 378.081 735.81 375.975 734.13 375.003L734.107 374.993Z" fill="#937B34"/>
<path d="M734.131 375.003C734.145 373.974 733.508 373.415 732.681 372.994C732.682 372.994 732.672 372.995 732.672 372.995C733.408 372.065 733.792 372.952 734.003 373.379C734.228 373.834 735.468 374.392 734.11 374.994C734.108 374.993 734.131 375.003 734.131 375.003Z" fill="#937B34"/>
<path d="M731.699 371.961C731.671 371.795 731.642 371.629 731.614 371.463C732.13 371.577 731.527 371.824 731.675 371.981L731.699 371.961Z" fill="#937B34"/>
<path d="M731.676 371.982C731.891 371.955 732.051 371.662 732.337 371.947C732.658 372.267 732.262 372.359 732.224 372.557L732.223 372.549C732.287 372.147 731.993 372.055 731.705 371.957C731.7 371.962 731.676 371.982 731.676 371.982Z" fill="#937B34"/>
<path d="M678.147 252.808C677.841 252.637 677.648 252.401 677.937 252.096C677.991 252.04 678.309 252.234 678.505 252.313C678.386 252.478 678.266 252.643 678.147 252.808Z" fill="#937B34"/>
<path d="M732.223 372.557C732.439 372.351 732.661 371.999 732.925 372.459C732.981 372.557 732.764 372.812 732.672 372.994C732.671 372.994 732.681 372.994 732.68 372.994C732.692 372.677 732.551 372.516 732.223 372.547C732.223 372.548 732.223 372.557 732.223 372.557Z" fill="#937B34"/>
<path d="M655.098 394.188C654.975 394.121 654.865 394.061 654.755 394.001C654.812 393.946 654.88 393.839 654.922 393.848C655.041 393.874 655.149 393.948 655.262 394.004C655.209 394.063 655.157 394.121 655.098 394.188Z" fill="#937B34"/>
</svg>
