<svg width="1081" height="1080" viewBox="0 0 1081 1080" fill="none" xmlns="http://www.w3.org/2000/svg">
<path d="M602.027 541.943C602.11 542.097 602.197 542.257 602.283 542.418C602.36 542.335 602.514 542.235 602.501 542.171C602.463 541.999 602.355 541.841 602.274 541.678C602.197 541.761 602.12 541.844 602.027 541.943ZM473.183 454.369C473.121 454.714 473.059 455.059 472.997 455.404C478.889 458.617 485.363 460.316 491.752 462.209C492.55 462.445 493.828 463.419 494.339 462.041C494.828 460.723 494.243 459.263 492.785 458.906C486.27 457.312 479.72 455.867 473.183 454.369ZM496.386 459.307C497.428 463.718 497.392 463.873 501.212 464.769C519.356 469.023 537.74 469.87 556.306 468.834C578.533 467.595 600.252 463.205 622.005 458.94C580.303 462.498 538.608 465.444 496.386 459.307ZM537.257 539.761L538.415 539.67C537.62 544.211 536.29 548.732 536.123 553.296C535.488 570.637 536.554 587.906 538.898 605.116C539.293 608.018 540.439 609.024 542.928 608.897C552.418 608.416 562.005 608.865 571.359 606.964C581.458 604.912 590.238 599.737 598.809 594.241C599.482 593.81 600.034 593.291 600.221 592.469C601.658 586.141 603.167 579.828 602.653 573.249C601.803 562.351 599.509 551.714 597.169 541.061C595.453 533.252 589.691 527.817 586.307 521.014C581.8 520.846 577.294 520.678 572.787 520.51C572.396 520.496 572.004 520.491 571.613 520.478C565.353 520.273 559.101 520.322 553.039 522.138C547.941 523.665 543.302 526.373 538.33 528.175C535.479 529.209 534.258 530.661 533.802 533.577C530.619 553.941 530.882 574.339 533.119 594.744C533.483 598.063 533.463 601.656 535.879 604.933C534.824 582.87 530.436 561.146 537.257 539.761ZM395.345 512.574C394.143 515.461 394.103 515.473 394.884 518.138C400.876 538.58 407.547 558.767 415.234 578.666C424.208 601.896 433.654 624.781 446.988 645.953C461.77 669.425 480.061 689.108 504.864 702.187C507.834 703.753 510.803 705.287 514.066 706.172C514.797 705.053 514.374 704.002 514.284 703.003C512.139 679.229 511.537 655.366 510.312 631.542C509.695 619.564 510.676 607.567 511.575 595.606C511.751 593.269 511.53 592.144 508.702 591.414C500.91 589.405 493.258 586.825 485.609 584.292C475.991 581.107 467.853 575.168 459.219 570.088C441.941 559.921 425.86 548.357 411.801 533.969C405.548 527.571 400.898 520.045 395.345 512.574ZM510.861 587.799C511.4 583.787 511.675 579.737 512.526 575.813C514.661 565.963 516.119 555.708 525.538 549.411C525.928 549.151 526.312 548.66 526.406 548.215C527.509 543.02 528.962 537.853 529.467 532.596C529.778 529.351 531.02 527.579 533.753 526.39C538.621 524.272 543.397 521.918 548.353 520.035C557.042 516.734 565.952 514.777 575.369 516.387C578.694 516.956 582.654 519.213 584.982 518.401C589.658 516.771 589.918 520.378 591.834 522.101C596.912 526.67 598.925 533.479 605.483 537.425C614.55 542.881 621.158 551.49 625.298 561.546C626.566 564.626 628.489 565.573 631.602 564.286C637.995 561.643 646.839 561.712 645.946 551.124C645.942 551.084 646.327 551.012 647.059 550.805C647.203 553.165 647.342 555.462 647.482 557.759C647.925 557.718 648.368 557.677 648.811 557.637C651.262 545.147 648.23 533.016 645.31 520.845C651.973 531.263 653.115 542.966 653.419 555.104C654.622 554.616 655.567 554.235 656.51 553.851C675.806 545.987 692.869 534.233 710.114 522.845C727.095 511.631 742.649 498.538 757.973 485.202C765.636 478.533 773.911 472.549 780.749 464.934C789.384 455.318 798.171 445.84 806.83 436.247C811.054 431.568 814.846 426.503 819.957 422.647C818.971 421.705 818.512 421.648 817.978 421.888C808.361 426.215 798.284 429.24 788.132 431.914C773.792 435.691 759.011 437.4 744.599 441.005C723.526 446.275 702.64 452.514 680.96 455.054C666.201 456.783 651.886 460.863 637.151 462.9C617.565 465.608 598.399 470.936 578.704 473.249C568.343 474.466 558.025 476.146 547.546 475.669C541.001 475.372 539.87 476.45 538.267 483.039C537.417 486.534 538.026 490.102 536.851 493.5C535.299 487.406 536.133 481.56 539.064 475.836C532.38 475.043 525.889 474.484 519.47 473.471C501.471 470.631 483.585 467.425 468.259 456.422C464.455 453.692 460.789 454.463 457.776 458.195C455.404 461.133 453.561 464.404 452.113 467.922C451.658 469.026 451.972 470.841 449.593 471.267C451.453 463.325 453.753 456.143 462.439 452.019C427.428 447.059 398.05 431.25 370.573 410.222C372.16 420.195 375.143 429.363 376.912 438.818C379.926 454.931 384.047 470.784 390.818 485.881C400.032 506.422 412.862 524.202 429.554 539.278C442.098 550.608 456.247 559.711 470.526 568.552C480.901 574.976 491.664 580.87 503.488 584.114C505.238 581.431 504.146 578.253 505.079 575.407C505.982 572.651 505.384 569.434 507.632 566.462C507.933 568.908 507.702 570.638 507.166 572.434C506.657 574.145 506.913 575.995 506.491 577.816C505.021 584.157 505.961 586.06 510.861 587.799ZM362.804 399.08C362.965 398.594 362.651 398.477 362.286 398.477C362.149 398.477 362.012 398.649 361.875 398.742C362.209 398.833 362.543 398.923 362.877 399.013C363.139 400.02 363.968 400.762 364.813 400.554C367.431 399.909 368.572 400.984 369.335 403.385C369.637 404.337 370.916 405.03 371.837 405.726C383.983 414.907 396.401 423.568 410.372 429.953C421.399 434.991 432.642 439.125 444.289 442.465C452.018 444.681 459.991 444.72 467.707 446.428C481.404 449.459 494.872 453.343 508.912 454.977C522.176 456.522 535.466 456.102 548.729 456.673C559.362 457.131 570.065 455.63 580.746 455.39C592.491 455.125 604.181 454.135 615.863 453.129C628.982 451.999 642.033 450.193 655.265 450.643C659.659 450.792 664.014 451.671 668.503 450.815C677.962 449.012 687.551 447.874 696.982 445.952C707.238 443.862 717.376 441.193 728.136 438.64C726.01 437.577 724.428 437.794 722.933 437.918C711.634 438.858 700.504 436.82 689.471 435.243C672.746 432.851 656.12 429.526 639.62 425.846C617.293 420.865 595.286 414.459 572.589 411.15C559.814 409.288 547.096 407.404 534.086 408.985C524.385 410.163 514.599 410.657 504.849 411.428C489.078 412.674 474.9 406.689 460.786 401.123C449.673 396.74 438.485 392.704 426.532 392.938C416.443 393.136 406.403 395.163 396.309 395.99C385.128 396.907 374.212 400.7 362.804 399.08ZM371.171 451.174C369.155 440.565 368.91 429.7 366.522 419.136C366.011 416.875 366.005 414.478 365.95 412.139C365.863 408.393 365.408 404.995 361.787 402.693C360.203 401.685 359.165 399.829 357.852 398.384C356.924 397.363 356.186 396.03 356.744 394.871C357.282 393.754 358.854 394.246 359.935 394.326C375.527 395.476 390.621 391.635 405.896 389.718C426.046 387.19 445.537 387.298 464.697 396.235C479.922 403.335 496.446 405.883 513.53 403.645C534.292 400.926 555.008 400.982 575.789 404.695C597.086 408.5 617.908 414.244 639.013 418.764C670.211 425.447 701.436 432.078 733.659 432.088C750.12 432.093 765.936 429.429 781.861 425.592C794.243 422.61 806.587 419.522 818.804 415.969C821.709 415.124 823.236 417.437 825.586 417.556C825.801 417.567 827.227 420.205 825.617 421.933C816.806 431.396 809.64 442.182 801.508 452.197C790.28 466.026 777.555 478.314 763.995 489.809C748.594 502.863 732.861 515.522 716.117 526.779C695.278 540.789 673.924 554.006 650.084 562.547C648.963 562.949 647.861 563.304 647.551 565.118C670.382 563.349 692.741 564.528 713.628 574.898C708.831 574.343 704.467 572.149 699.736 571.124C684.81 567.887 669.796 565.945 654.5 567.375C650.233 567.774 645.664 568.406 641.747 567.841C638.044 567.307 634.91 568.34 631.522 568.37C629.621 568.387 629.358 569.272 630.073 570.867C638.645 590.001 639.736 610.703 642.694 631.02C644.478 643.271 647.578 655.243 650.378 667.291C654.181 683.655 657.428 700.152 659.872 716.794C660.551 721.422 662.102 725.863 663.91 730.68C667.936 724.867 670.798 718.825 674.09 713.019C673.75 722.45 665.233 729.038 665.454 738.617C675.405 725.645 682.616 711.422 685.942 695.163C687.954 698.176 685.086 710.545 680.368 720.729C676.61 728.841 672.017 736.444 666.276 743.798C670.027 744.132 672.699 742.95 674.548 740.399C684.038 727.305 693.513 714.187 697.596 698.132C697.704 697.705 698.19 697.374 698.62 696.853C699.633 704.201 696.822 710.367 678.63 740.961C682.941 740.838 686.476 739.883 689.298 736.455C694.175 730.531 699.058 724.64 703.193 718.146C705.265 714.891 706.901 711.477 708.081 707.618C710.258 711.71 705.534 720.581 692.918 736.619C699.587 737.123 712.854 730.247 718.614 723.584C725.066 716.12 730.612 708.057 735.462 699.46C733.082 708.944 727.332 716.551 721.723 724.235C721.558 724.395 721.394 724.556 721.23 724.716C721.41 724.737 721.59 724.758 721.77 724.779C721.724 724.578 721.678 724.378 721.633 724.177C723.061 725.397 724.037 723.958 724.965 723.419C743.011 712.937 762.136 704.55 780.512 694.678C809.88 678.902 840.099 664.799 871.045 652.252C893.382 643.197 915.686 634.155 938.872 627.473C940.494 627.006 942.131 626.521 943.795 626.287C945.415 626.059 947.086 626.364 947.541 628.263C947.958 630.008 947.115 631.304 945.396 631.93C942.341 633.043 939.287 634.157 936.221 635.239C917.19 641.954 898.398 649.15 879.965 657.501C860.031 666.532 840.003 675.393 820.527 685.326C806.616 692.421 792.425 699.039 778.964 707.022C772.557 710.821 765.582 713.465 758.92 716.745C745.591 723.308 732.301 729.955 719.069 736.712C713.462 739.575 707.67 741.857 701.584 743.382C693.132 745.501 684.976 748.8 676.227 749.727C675.192 749.837 674.079 750.287 673.139 750.047C668.22 748.792 669.848 751.323 670.564 753.953C673.203 763.652 678.393 772.464 680.472 782.326C684.502 801.441 689.27 820.459 692.084 839.758C695.602 863.882 697.618 888.255 694.199 912.655C693.591 916.994 692.161 921.217 691.128 925.498C690.93 926.318 690.562 927.101 689.672 927.033C688.571 926.949 688.829 925.91 688.813 925.193C688.764 922.974 688.708 920.752 688.77 918.534C689.199 903.249 688.835 887.915 687.612 872.746C686.362 857.241 685.032 841.59 680.408 826.478C676.365 813.265 674.261 799.569 671.676 786.01C670.983 782.377 669.611 779.037 668.344 775.62C664.226 764.523 659.633 753.551 656.87 742.031C650.426 715.168 646.794 687.736 640.897 660.767C637.38 644.684 636.054 628.305 633.113 612.166C630.668 598.746 629.339 585.037 623.627 572.383C618.955 562.032 614.362 551.632 605.285 544.153C604.547 543.544 604.05 542.136 602.807 542.716C601.416 543.365 602.452 544.587 602.598 545.476C604.071 554.454 606.346 563.322 606.721 572.45C607.076 581.114 605.793 589.664 601.408 597.169C599.697 600.098 596.003 602.102 592.858 603.914C583.397 609.365 573.35 613.184 562.205 613.012C555.441 612.908 548.592 613.869 541.952 612.221C540.195 611.785 540.017 614.781 538.15 613.067C534.379 609.606 530.107 606.71 528.805 601.216C526.453 591.288 524.959 581.307 525.689 571.069C526.115 565.097 525.349 559.111 525.754 553.011C522.608 556.386 520.812 560.372 519.545 564.686C516.305 575.717 516.782 587.054 516.466 598.357C515.789 622.501 516.29 646.612 518.031 670.694C518.924 683.048 519.866 695.408 521.229 707.717C523.199 725.503 526.224 743.195 527.594 761.019C529.023 779.617 529.437 798.354 528.067 816.986C526.714 835.372 525.784 853.718 527.416 872.104C528.508 884.401 529.933 896.669 532.918 908.686C533.091 909.384 533.303 909.938 532.725 910.366C531.881 910.991 531.031 910.774 530.267 910.099C528.26 908.327 527.991 905.798 527.405 903.431C522.66 884.258 520.041 864.822 520.203 845.042C520.205 844.81 520.06 844.577 519.823 843.851C517.742 845.091 516.253 846.754 514.783 848.471C508.097 856.278 499.733 862.106 491.395 867.907C489.452 869.259 488.376 870.403 488.503 872.79C489.092 883.863 485.955 894.198 482.088 904.377C481.157 906.827 480.143 909.242 478.32 911.177C477.134 912.436 475.791 913.556 473.865 912.642C471.744 911.634 472.242 909.803 472.765 908.236C475.419 900.284 477.02 892.103 477.977 883.812C479.252 872.77 479.371 861.68 478.987 850.569C478.704 842.37 477.96 834.142 479.46 825.971C480.176 822.074 481.498 818.445 484.178 815.424C484.699 814.837 485.262 814.031 486.098 814.444C487.174 814.977 486.247 815.728 486.052 816.396C484.284 822.468 485.626 828.561 485.993 834.638C486.559 843.988 488.386 853.215 488.475 862.566C489.091 862.606 489.445 862.734 489.557 862.621C497.909 854.218 507.299 846.917 514.976 837.764C520.01 831.763 521.474 824.995 521.796 817.631C522.291 806.285 522.389 794.937 521.915 783.588C521.872 782.551 522.011 781.573 520.416 781.442C511.575 780.717 504.261 775.731 496.406 772.403C480.834 765.806 465.974 757.584 450.214 751.385C436.342 745.928 416.39 747.78 404.151 761.502C401.384 764.605 398.281 767.476 395.019 770.058C384.307 778.537 375.885 789.073 369.206 800.737C359.417 817.833 348.089 833.947 338.249 851.002C333.421 859.371 329.295 868.103 324.438 876.413C318.379 886.777 316.09 898.179 313.624 909.606C313.37 910.781 313.406 912.168 311.855 912.114C310.508 912.068 309.901 910.735 309.722 909.623C309.434 907.831 309.257 905.955 309.457 904.162C310.491 894.902 311.547 885.882 315.539 877.004C323.815 858.599 334.524 841.651 344.658 824.344C347.22 819.969 350.414 815.962 353.341 811.802C355.031 809.401 354.812 808.099 351.505 808.226C340.429 808.652 329.366 809.03 318.335 810.4C306.173 811.911 294.055 813.518 281.979 815.702C268.23 818.189 258.443 826.329 249.612 836.193C235.583 851.861 224.253 869.61 211.342 886.144C207.185 891.467 203.395 897.076 199.356 902.494C198.198 904.047 197.124 907.12 194.849 905.694C192.011 903.913 194.669 901.512 195.682 899.639C204.371 883.561 215.333 868.931 225.105 853.543C230.729 844.688 237.342 836.636 243.941 828.559C255.59 814.3 271.099 807.664 289.086 805.619C307.364 803.54 325.627 801.424 344.027 800.781C348.208 800.635 352.434 800.547 356.416 801.882C358.232 802.491 358.85 802.146 359.68 800.642C368.443 784.75 380.368 771.616 394.608 760.451C399.42 756.677 403.455 751.923 408.795 748.798C425.071 739.276 441.743 740.024 458.773 746.696C475.371 753.198 491.219 761.42 507.873 767.792C511.622 769.226 515.086 771.408 518.673 773.26C519.566 773.721 520.353 774.927 521.403 774.368C522.643 773.708 522.036 772.259 522.027 771.178C521.921 758.872 519.833 746.803 517.777 734.713C516.708 728.428 516.197 722.038 515.651 715.677C515.46 713.446 514.84 712.333 512.53 711.54C480.569 700.569 457.876 678.783 440.438 650.454C427.024 628.662 417.791 605.093 408.902 581.305C408.446 580.086 407.935 578.885 407.41 577.693C407.149 577.1 406.799 576.546 406.433 575.871C386.346 589.317 362.321 593.277 340.895 603.479C308.197 619.049 275.047 633.693 243.797 652.159C232.84 658.634 223.334 667.04 213.177 674.576C195.734 687.518 181.156 703.148 168.707 721.005C159.039 734.873 147.511 747.41 138.622 761.886C138.014 762.878 137.449 764.691 135.839 764.01C134.286 763.353 133.898 761.625 134.061 759.986C134.366 756.929 135.629 754.192 137.365 751.725C143.955 742.36 150.278 732.778 157.347 723.785C165.322 713.64 172.11 702.629 180.835 693.016C190.11 682.797 200.879 674.35 211.322 665.491C228.369 651.029 247.7 640.154 267.681 630.486C298.619 615.516 329.534 600.448 362.033 588.995C371.939 585.504 382.479 583.954 391.973 579.233C395.578 577.44 399.068 575.416 402.665 573.607C404.335 572.767 404.816 571.826 404.249 569.917C399.69 554.597 396.51 538.824 391.433 523.745C386.979 510.517 383.868 497.001 379.935 483.683C375.483 468.604 366.39 455.965 359.139 442.363C348.295 422.021 335.074 402.967 325.528 381.944C319.892 369.532 315.285 356.631 311.122 343.619C303.316 319.221 296.717 294.385 287.013 270.664C277.313 246.953 266.509 223.751 251.689 202.552C242.3 189.123 234.305 174.719 225.692 160.748C225.353 160.198 225.147 159.562 224.78 159.034C222.885 156.308 223.402 154.296 226.494 153H228.061C227.652 156.015 228.809 158.401 230.619 160.794C237.621 170.051 243.593 179.982 249.544 189.94C254.885 198.878 261.076 207.317 266.244 216.346C283.811 247.035 297.741 279.323 307.92 313.214C313.907 333.144 320.365 352.921 328.044 372.272C331.885 381.953 336.17 391.493 341.438 400.459C351.39 417.395 361.562 434.196 370.469 451.721C370.687 452.138 370.904 452.556 371.121 452.974C371.628 452.388 371.386 451.781 371.171 451.174Z" fill="#937B34"/>
<path d="M370.707 272.075C369.958 268.553 369.139 265.045 368.5 261.503C368.295 260.366 367.505 258.448 369.141 258.192C370.923 257.914 370.494 259.883 370.699 261.105C372.174 269.918 374.541 278.429 379.446 286.036C379.858 286.675 380.524 287.149 381.072 287.698C381.356 288.123 381.558 288.99 382.226 288.329C382.656 287.903 382.422 287.21 381.741 286.902C379.926 280.781 376.768 275.107 375.795 268.689C375.561 267.147 375.309 265.941 377.299 264.852C378.589 273.23 381.857 280.784 384.847 288.437C386.286 292.121 388.116 295.428 391.876 297.223C392.398 297.472 392.941 298.103 393.446 297.193L393.358 297.139C393.286 297.608 393.206 298.137 393.779 298.297C394.013 298.362 394.342 298.086 394.628 297.965L394.516 297.956C393.815 299.863 395.686 300.11 396.546 300.662C410.464 309.594 425.455 313.368 441.972 310.155C452.789 308.05 463.108 304.251 473.108 299.977C483.313 295.614 494.086 293.941 504.556 290.901C516.304 287.49 528.454 286.987 540.455 285.38C555.874 283.316 571.197 285.33 586.516 286.563C599.456 287.605 612.208 287.301 623.872 281.046C637.742 273.609 646.806 262.438 648.272 246.136C648.477 243.854 647.754 241.759 647.173 239.628C643.553 226.349 637.491 214.359 628.367 203.982C625.063 200.224 625.112 200.25 621.753 203.772C613.278 212.657 603.677 220.315 594.598 228.542C593.98 229.102 593.19 229.473 592.285 229.676C593.946 226.52 596.565 224.255 599.132 222.057C606.67 215.602 613.957 208.889 620.805 201.712C621.604 200.875 623.994 200.073 622.415 198.548C620.687 196.879 618.615 194.72 615.656 196.263C614.884 196.666 614.275 197.435 613.678 198.112C604.682 208.313 594.621 217.382 584.123 225.992C583.215 226.736 582.378 227.526 580.086 227.659C591.938 216.765 603.398 206.571 613.775 194.391C599.885 192.343 586.516 189.646 571.855 191.419C575.642 187.401 579.796 186.332 583.943 186C595.182 185.1 606.307 186.321 617.326 188.638C622.22 189.666 626.237 192.251 629.848 195.537C643.494 207.959 652.55 223.421 656.156 241.238C658.345 252.056 654.043 262.461 646.938 271.374C637.607 283.081 625.519 290.112 611.167 293.685C607.578 294.578 604.01 294.763 600.325 294.724C584.401 294.555 568.707 290.793 552.82 291.198C536.665 291.61 520.754 294.378 504.886 297.799C487.202 301.611 470.705 308.753 453.587 314.109C430.598 321.303 409.573 318.183 389.874 304.107C366.801 287.621 354.911 264.77 350.238 237.453C348.136 225.164 349.864 213.03 351.338 200.874C352.552 190.862 355.478 181.291 359.11 171.929C359.991 169.658 360.931 167.325 363.355 166.051C364.106 165.657 364.879 165.278 365.51 165.701C366.527 166.385 365.347 166.967 365.2 167.623C363.809 173.821 362.445 180.026 361.141 186.243C358.623 198.247 356.808 210.382 356.68 222.636C356.494 240.447 360.712 257.227 370.079 272.548C370.259 273.211 370.826 274.327 371.065 274.115C371.71 273.542 371.694 272.612 370.707 272.075Z" fill="#937B34"/>
<path d="M633.402 687.358C632.19 688.693 630.82 688.15 629.646 688.171C613.344 688.451 597.028 687.739 580.737 688.97C569.149 689.845 557.978 692.859 546.727 695.45C545.262 695.788 543.797 696.661 543.136 694.794C542.447 692.847 544.125 691.928 545.611 691.452C553.152 689.032 560.846 687.103 568.653 685.879C587.577 682.91 606.55 683.426 625.514 685.723C628.118 686.039 630.851 685.623 633.402 687.358Z" fill="#937B34"/>
<path d="M885.671 427.152C885.34 419.922 884.786 412.837 884.743 405.748C884.67 393.518 879.599 383.358 872.04 374.27C865.519 366.43 857.617 359.986 849.867 353.412C848.844 352.545 846.959 351.596 848.173 350.08C849.231 348.759 850.729 349.936 851.922 350.803C859.939 356.626 867.722 362.739 874.625 369.869C885.626 381.23 890.061 394.875 888.442 410.555C887.948 415.334 887.51 420.119 887.064 424.904C886.981 425.791 887.092 426.745 885.671 427.152Z" fill="#937B34"/>
<path d="M668.287 870.492C667.418 871.984 666.307 871.537 665.357 871.405C645.396 868.623 625.421 866.146 605.19 866.824C593.086 867.229 581.186 868.982 569.435 871.795C568.097 872.115 566.742 872.866 566.117 871.299C565.414 869.538 567.011 868.847 568.35 868.353C575.243 865.815 582.53 865.358 589.722 864.522C601.785 863.121 613.919 863.092 626.014 863.768C639.076 864.498 652.107 865.784 664.813 869.198C665.972 869.51 667.074 870.035 668.287 870.492Z" fill="#937B34"/>
<path d="M521.639 381.735C519.365 384.503 515.556 384.824 512.381 384.782C493.205 384.533 474.517 381.862 457.713 371.606C456.624 370.941 455.376 370.401 455.356 368.08C476.238 379.709 498.253 384.383 521.639 381.735Z" fill="#937B34"/>
<path d="M487.488 204.811C489.676 200.224 493.735 197.57 497.339 194.618C510.518 183.826 524.031 173.442 536.731 162.069C537.119 161.721 537.475 161.263 537.935 161.089C538.691 160.802 539.584 159.822 540.304 160.895C540.914 161.804 539.792 162.182 539.294 162.624C534.719 166.691 530.245 170.888 525.482 174.725C513.751 184.176 501.567 193.064 490.227 203.006C489.413 203.72 488.406 204.214 487.488 204.811Z" fill="#937B34"/>
<path d="M829.747 396.935C834.504 400.645 837.089 405.125 838.495 410.414C841.097 420.195 837.284 428.672 832.991 437.021C832.524 437.928 831.983 439.651 830.538 438.793C829.701 438.295 830.645 436.981 831.012 436.129C833.216 431.022 835.101 425.738 835.965 420.305C837.067 413.377 834.117 407.138 831.03 401.09C830.483 400.017 829.422 399.127 829.747 396.935Z" fill="#937B34"/>
<path d="M506.434 202.75C520.734 190.236 533.669 176.293 548.228 164.125C535.555 178.389 521.783 191.458 506.434 202.75Z" fill="#937B34"/>
<path d="M663.129 241.669C663.917 248.277 663.986 254.814 662.244 261.367C660.048 269.623 656.282 276.96 650.637 283.35C650.163 283.888 649.826 284.939 648.879 284.333C647.655 283.548 648.734 282.725 649.155 282.096C653.021 276.315 657.138 270.726 659.232 263.909C660.984 258.206 662.372 252.523 662.205 246.509C662.16 244.903 661.69 243.186 663.129 241.669Z" fill="#937B34"/>
<path d="M651.681 889.953C636.647 888.498 621.613 887.043 606.579 885.588C606.635 885.076 606.691 884.564 606.748 884.053C621.932 884.333 636.948 886.207 651.888 888.798C651.819 889.183 651.75 889.568 651.681 889.953Z" fill="#937B34"/>
<path d="M526.675 162.545C515.647 173.513 503.969 183.741 491.692 193.282C491.43 192.984 491.167 192.686 490.905 192.387C502.446 181.968 513.987 171.548 525.529 161.129C525.911 161.601 526.293 162.073 526.675 162.545Z" fill="#937B34"/>
<path d="M514.956 376.707C507.948 377.957 502.026 376.978 496.191 376.221C489.182 375.312 482.262 373.712 475.309 372.382C474.558 372.238 473.855 371.861 473.111 371.659C472.345 371.452 471.442 371.278 471.718 370.254C472.001 369.206 472.764 369.649 473.574 369.805C479.77 370.996 485.994 372.038 492.195 373.206C498.299 374.355 504.403 375.428 510.639 375.585C511.743 375.613 512.834 376.137 514.956 376.707Z" fill="#937B34"/>
<path d="M587.612 677.043C582.104 677.334 576.594 677.597 571.088 677.93C568.775 678.07 566.417 677.75 564.163 678.676C563.511 678.943 562.461 679.109 562.073 678.315C561.576 677.298 562.581 676.638 563.205 676.082C564.971 674.51 567.344 674.58 569.457 674.303C575.638 673.49 581.666 674.682 587.638 676.077C587.63 676.399 587.621 676.721 587.612 677.043Z" fill="#937B34"/>
<path d="M578.493 851.647C588.331 847.295 598.87 846.772 609.434 846.391C609.507 846.789 609.58 847.186 609.653 847.584C599.342 849.35 589.032 851.116 578.722 852.883C578.645 852.471 578.569 852.059 578.493 851.647Z" fill="#937B34"/>
<path d="M654.999 882.387C650.61 881.9 646.216 881.461 641.835 880.911C638.245 880.46 634.669 879.89 631.091 879.342C630.208 879.206 629.053 878.985 628.985 878.018C628.896 876.722 630.171 876.832 631.024 876.873C639.262 877.275 647.259 878.941 655.133 881.225C655.088 881.612 655.043 882 654.999 882.387Z" fill="#937B34"/>
<path d="M610.203 227.365C615.33 220.496 621.973 215.268 628.357 209.76C628.773 210.204 629.189 210.648 629.604 211.092L610.86 228.147C610.641 227.887 610.422 227.626 610.203 227.365Z" fill="#937B34"/>
<path d="M580.24 215.557C585.636 210.017 590.983 204.493 596.389 199.027C596.925 198.485 597.581 197.414 598.599 198.188C599.236 198.672 598.89 199.441 598.424 199.909C592.913 205.441 587.425 211.002 581.098 215.635C580.947 215.745 580.607 215.597 580.24 215.557Z" fill="#937B34"/>
<path d="M497.586 179.361C497.779 176.747 499.202 176.068 500.177 175.172C504.845 170.878 509.605 166.682 514.337 162.457C514.883 161.969 515.467 161.137 516.23 161.987C516.822 162.647 516.598 163.471 515.925 164.035C510 169.002 504.062 173.953 497.586 179.361Z" fill="#937B34"/>
<path d="M394.515 297.957L394.627 297.965C394.204 297.69 393.781 297.415 393.357 297.14C393.357 297.14 393.445 297.194 393.445 297.193C391.544 290.835 389.684 284.464 387.701 278.132C387.388 277.132 386.572 275.78 387.575 275.403C388.95 274.887 389.241 276.352 389.576 277.557C391.315 283.831 393.182 290.069 394.962 296.331C395.115 296.869 395.382 297.617 394.515 297.957Z" fill="#937B34"/>
<path d="M528.315 197.959C533.717 192.774 538.535 186.947 545.138 183.054C540.019 188.474 535.281 194.267 529.051 198.55L528.315 197.959Z" fill="#937B34"/>
<path d="M548.309 191.679C543.559 196.842 538.487 201.67 532.413 205.312C537.136 200.111 542.028 195.113 548.309 191.679Z" fill="#937B34"/>
<path d="M506.47 368.58C501.193 371.266 489.714 370.339 487.349 367.212C493.624 367.661 499.713 368.096 506.47 368.58Z" fill="#937B34"/>
<path d="M486.725 204.852C486.299 206.385 485.482 207.519 483.521 207.866C483.741 205.639 485.472 205.496 486.725 204.852Z" fill="#937B34"/>
<path d="M591.745 229.928C591.539 231.246 590.833 232.074 589.212 232.498C589.264 230.539 590.621 230.347 591.745 229.928Z" fill="#937B34"/>
<path d="M529.051 198.549C528.8 199.183 528.156 199.758 527.702 199.363C526.974 198.731 527.899 198.356 528.315 197.959C528.56 198.155 528.806 198.352 529.051 198.549Z" fill="#937B34"/>
<path d="M490.24 194.373C490.041 194.095 489.77 193.852 489.816 193.754C489.938 193.488 490.195 193.283 490.398 193.054C490.524 193.209 490.782 193.407 490.749 193.51C490.654 193.802 490.44 194.054 490.24 194.373Z" fill="#937B34"/>
<path d="M463.104 539.212C458.853 530.963 466.672 500.55 475.427 491.712C468.686 506.786 462.914 522.109 463.104 539.212Z" fill="#937B34"/>
<path d="M458.021 536.237C455.315 530.832 459.017 515.664 464.142 510.652C461.216 519.216 459.562 527.249 458.021 536.237Z" fill="#937B34"/>
<path d="M454.497 472.624C454.764 465.744 457.691 460.767 461.829 459.471C459.255 464.088 456.876 468.356 454.497 472.624Z" fill="#937B34"/>
<path d="M452.188 531.198C451.466 528.395 453.611 520.428 456.622 513.515C457.558 515.649 456.535 519.805 452.188 531.198Z" fill="#937B34"/>
<path d="M540.764 493.669C539.462 489.987 539.939 486.446 541.486 482.987C542.896 486.639 541.975 490.164 540.764 493.669Z" fill="#937B34"/>
<path d="M505.019 563.884C504.809 567.166 503.922 570.278 502.144 573.097C501.98 569.697 503.08 566.685 505.019 563.884Z" fill="#937B34"/>
<path d="M482.461 413.024C493.297 415.111 503.8 417.48 514.954 415.616C509.939 421.063 485.97 419.189 482.461 413.024Z" fill="#937B34"/>
<path d="M505.25 424.958C500.953 427.255 496.487 426.714 492.006 425.581C491.307 425.404 490.982 424.816 491.075 424.108C491.16 423.462 491.763 423.231 492.227 423.406C496.442 424.998 500.945 423.397 505.25 424.958Z" fill="#937B34"/>
<path d="M504.411 421.257C501.736 423.066 492.657 423.026 490.408 421.17C489.923 420.77 489.383 420.32 489.598 419.557C489.841 418.699 490.339 418.806 491.049 419.083C493.244 419.94 495.539 420.194 497.9 420.297C500.08 420.392 502.241 420.92 504.411 421.257Z" fill="#937B34"/>
<path d="M505.069 431.884C501.097 434.666 493.919 433.91 491.114 430.562C495.794 431.202 500.068 432.3 505.069 431.884Z" fill="#937B34"/>
<path d="M539.422 575.767C541.217 582.078 541.401 588.635 542.284 595.093C542.6 597.404 542.811 599.73 543.067 602.05C543.164 602.935 542.819 603.752 541.963 603.823C541.099 603.895 540.778 603.152 540.671 602.25C539.632 593.473 538.869 584.682 539.422 575.767Z" fill="#937B34"/>
<path d="M546.198 587.318C546.198 591.325 546.212 595.333 546.185 599.34C546.181 600.061 546.341 601.138 545.215 601.05C544.436 600.988 543.849 600.166 543.909 599.332C544.203 595.309 544.577 591.292 544.923 587.272C545.348 587.288 545.773 587.303 546.198 587.318Z" fill="#937B34"/>
</svg>
