<svg width="160" height="166" viewBox="0 0 160 166" fill="none" xmlns="http://www.w3.org/2000/svg">
<g clip-path="url(#clip0_153_2078)">
<path d="M9.98633 152.452C9.98633 151.353 10.8199 150.154 12.4538 148.839C14.121 147.524 16.0716 146.491 18.2889 145.709C18.4056 145.675 18.3723 145.642 18.2556 145.642C17.1886 145.476 16.6217 145.059 16.6217 144.377C16.6217 143.794 17.1052 143.245 18.0555 142.662C19.0058 142.079 19.9561 141.763 20.9064 141.763C21.74 141.763 22.3402 142.346 22.3402 143.278C22.3402 143.561 21.8567 143.561 21.8567 143.278C21.8567 142.562 21.5399 142.179 20.9064 142.179C20.0728 142.179 19.2392 142.412 18.3723 142.928C17.5387 143.445 17.1052 143.927 17.1052 144.377C17.1052 144.96 17.7054 145.276 18.8891 145.276C19.1225 145.276 19.5226 145.243 20.1228 145.209C20.4396 145.109 20.7564 145.043 21.0731 145.01C21.1898 144.976 21.2732 145.043 21.3065 145.143C21.3399 145.243 21.2732 145.343 21.1398 145.426L20.2229 145.592C17.8054 146.175 15.5381 147.174 13.4708 148.622C11.4535 150.038 10.4198 151.336 10.4198 152.468C10.4198 153.567 11.22 154.117 12.8039 154.117C13.9876 154.117 15.4214 153.7 17.0552 152.918C18.7224 152.085 20.2229 151.136 21.5733 150.054L21.6566 150.021H21.74C21.9067 150.021 21.9734 150.087 21.9734 150.221C21.9734 150.254 21.9401 150.321 21.89 150.354C20.5063 151.453 18.9558 152.418 17.2553 153.251C15.5547 154.083 14.0876 154.483 12.8039 154.483C10.9366 154.483 9.98633 153.784 9.98633 152.452Z" fill="#927B35"/>
<path d="M19.8728 153.484C19.8728 152.219 21.2566 150.104 24.0408 147.124C26.8583 144.127 29.8259 141.447 33.0102 138.999C36.1779 136.552 38.3286 135.32 39.3956 135.32C39.9958 135.32 40.2625 135.553 40.2625 136.002C40.2625 136.968 38.0451 139.166 33.5938 142.612C29.1924 146.025 25.2245 148.672 21.7234 150.487C20.7731 151.752 20.2896 152.751 20.2896 153.484C20.2896 153.933 20.4897 154.1 21.1565 154.1C21.7901 154.1 22.9738 153.684 24.7743 152.901C26.5582 152.102 28.4255 151.153 30.2927 150.004C30.3261 149.971 30.3761 149.971 30.4594 149.971C30.5761 149.971 30.6595 150.038 30.6595 150.171C30.6595 150.204 30.6262 150.271 30.5761 150.304C28.7923 151.37 26.925 152.335 25.0578 153.201C23.1905 154.067 21.9234 154.466 21.1732 154.466C20.3063 154.483 19.8728 154.133 19.8728 153.484ZM33.7271 142.013C37.8117 138.816 39.8457 136.818 39.8457 135.986C39.8457 135.786 39.679 135.669 39.4122 135.669C38.1785 135.669 35.6111 137.318 31.5931 140.598C27.6252 143.861 24.5243 146.924 22.3402 149.721C25.858 147.773 29.6759 145.193 33.7271 142.013Z" fill="#927B35"/>
<path d="M28.8419 152.269C28.8419 151.619 29.6422 150.587 31.2593 149.139C31.2927 149.105 31.3427 149.105 31.4261 149.105C31.5928 149.105 31.6595 149.172 31.6595 149.272C31.6595 149.305 31.6261 149.372 31.5761 149.405C30.0256 150.787 29.2754 151.752 29.2754 152.269C29.2754 152.585 29.4755 152.751 29.9089 152.751C30.5091 152.751 31.5761 152.435 33.2099 151.819C34.8438 151.203 36.2276 150.587 37.2946 149.954H37.4113C37.578 149.954 37.6447 150.021 37.6447 150.121C37.6447 150.187 37.6113 150.254 37.5613 150.287C36.4109 150.937 34.9772 151.553 33.31 152.219C31.6761 152.835 30.5258 153.151 29.8922 153.151C29.192 153.168 28.8419 152.851 28.8419 152.269ZM32.2096 148.356C32.2096 148.289 32.2096 148.256 32.243 148.223L32.4097 148.09L32.7598 147.64C32.7932 147.607 32.8765 147.573 32.9599 147.573C33.0766 147.573 33.1599 147.64 33.1599 147.773C33.1599 147.84 33.1599 147.873 33.1266 147.906C33.0099 148.006 32.8932 148.14 32.7765 148.323L32.6098 148.456C32.5764 148.489 32.5264 148.522 32.443 148.522C32.293 148.522 32.2096 148.456 32.2096 148.356Z" fill="#927B35"/>
<path d="M42.9967 149.488C42.88 149.904 41.6129 150.62 39.1955 151.652C37.7284 152.302 36.8614 152.718 36.5446 152.918C36.3779 152.951 36.4613 153.118 36.628 153.118C36.7947 153.118 36.9114 153.118 37.0281 153.084C39.2455 152.951 40.8793 153.151 41.9463 153.667C42.0297 153.7 42.063 153.734 42.063 153.833C42.063 153.967 41.9797 154.033 41.8296 154.033C41.7963 154.033 41.7463 154.033 41.7129 154C40.7626 153.55 39.2121 153.384 37.0781 153.484C36.8781 153.484 36.528 153.517 36.4113 153.517C35.8944 153.517 35.611 153.317 35.8111 153.001C35.9778 152.685 37.0448 152.135 39.0288 151.286C41.3628 150.287 42.5132 149.671 42.5632 149.388C42.6466 149.255 42.5299 149.222 41.963 149.222C40.0958 149.222 38.6286 149.605 37.5116 150.354C37.4783 150.387 37.4283 150.387 37.3449 150.387C37.2282 150.387 37.1448 150.32 37.1448 150.187C37.1448 150.121 37.1782 150.087 37.2282 150.054C37.8951 149.605 38.6953 149.305 39.6456 149.122C40.6459 148.922 41.3962 148.805 41.9463 148.805C42.7299 148.839 43.08 149.039 42.9967 149.488Z" fill="#927B35"/>
<path d="M48.6823 151.969C48.6823 151.453 48.9991 150.77 49.6826 149.904C49.7993 149.804 49.716 149.738 49.5993 149.838C49.3992 149.938 49.1658 150.071 48.799 150.32C45.9815 152.069 44.2309 152.934 43.5641 152.934C43.0806 152.934 42.8472 152.768 42.8472 152.385C42.8472 151.836 43.4807 151.186 44.7478 150.42C46.0648 149.671 47.0485 149.288 47.7654 149.288C48.2822 149.288 48.6823 149.455 48.8824 149.804C49.716 149.255 50.2328 148.972 50.3829 148.972C50.5829 148.972 50.6663 149.039 50.6663 149.205C50.6663 149.305 50.4996 149.521 50.2328 149.888C49.4826 150.82 49.1158 151.503 49.1158 151.952C49.1158 152.368 49.4326 152.568 50.1161 152.568C50.783 152.568 51.8166 152.335 53.2838 151.819C54.7509 151.303 56.0179 150.687 57.0849 149.988C57.1183 149.954 57.1683 149.954 57.2517 149.954C57.3684 149.954 57.4517 150.021 57.4517 150.121C57.4517 150.187 57.4184 150.254 57.3684 150.287C56.3014 150.97 54.9843 151.602 53.4338 152.152C51.9333 152.701 50.8163 152.984 50.0994 152.984C49.1491 153.001 48.6823 152.651 48.6823 151.969ZM48.4823 150.004C48.3656 149.771 48.1321 149.655 47.7654 149.655C47.0985 149.655 46.1315 150.004 44.9812 150.72C43.8308 151.403 43.2806 151.952 43.2806 152.368C43.2806 152.468 43.364 152.502 43.5641 152.502C44.2809 152.518 45.8981 151.686 48.4823 150.004Z" fill="#927B35"/>
<path d="M54.9502 153.234C54.9502 152.751 55.6671 151.652 57.1009 149.971L57.1342 149.937C59.4683 147.157 62.4859 144.06 66.187 140.647C69.8715 137.201 72.1389 135.486 72.9392 135.486C73.3726 135.486 73.606 135.686 73.606 136.069C73.606 136.652 72.8558 137.784 71.3387 139.399C69.8382 141.014 67.7709 142.878 65.1867 144.976C62.6026 147.041 59.9851 148.789 57.4176 150.237C56.6674 151.103 56.1006 151.852 55.7171 152.468C55.6004 152.701 55.6004 152.751 55.8005 152.601L55.9672 152.501C56.484 152.052 57.2009 151.569 58.0345 151.053C59.785 149.921 60.9687 149.371 61.6523 149.371C62.0858 149.371 62.3192 149.571 62.3192 149.987C62.3192 150.504 62.0357 151.02 61.4856 151.569C64.3031 151.219 66.3704 150.67 67.7542 149.954H67.8709C67.9876 149.954 68.071 150.021 68.071 150.121C68.071 150.187 68.0376 150.254 67.9876 150.287C66.5205 151.086 64.2198 151.636 61.0021 152.002C60.0518 152.801 59.2182 153.167 58.468 153.167C57.9178 153.167 57.6344 152.968 57.6344 152.551C57.6344 152.102 58.3012 151.935 60.5686 151.652H60.7687C61.5189 151.003 61.8857 150.454 61.8857 149.971C61.8857 149.838 61.769 149.771 61.5689 149.771C61.0521 149.771 59.9351 150.287 58.2679 151.353C57.601 151.802 56.8008 152.352 55.9338 153.068C55.5837 153.351 55.3336 153.484 55.3003 153.484C55.0669 153.517 54.9502 153.417 54.9502 153.234ZM60.1352 152.135C58.7514 152.302 58.0678 152.485 58.0678 152.585C58.0678 152.718 58.1845 152.784 58.4179 152.784C58.9848 152.784 59.5516 152.585 60.1352 152.135ZM68.4044 141.68C71.5721 138.783 73.1726 136.935 73.1726 136.069C73.1726 135.969 73.0892 135.902 72.9392 135.902C72.2723 135.902 70.2883 137.451 66.954 140.514C63.6529 143.578 60.7687 146.508 58.2679 149.288C61.8524 147.107 65.2701 144.56 68.4044 141.68Z" fill="#927B35"/>
<path d="M66.3707 152.002C66.3707 151.419 66.7709 150.803 67.5211 150.137C68.2713 149.488 68.9882 149.138 69.6718 149.138C70.1552 149.138 70.3886 149.305 70.3886 149.688C70.3886 150.137 69.5217 150.653 68.7548 150.653C68.3213 150.653 67.9546 150.62 67.7712 150.52C67.171 151.103 66.8542 151.586 66.8542 152.002C66.8542 152.452 67.3377 152.651 68.238 152.651C68.9549 152.651 70.1052 152.418 71.6557 151.935C73.2062 151.419 74.6233 150.803 75.857 150.004C75.8904 149.971 75.9404 149.971 75.9737 149.971C76.1404 149.971 76.2071 150.037 76.2071 150.137C76.2071 150.237 76.1738 150.271 76.0904 150.304C74.8234 151.103 73.3896 151.786 71.7724 152.302C70.1386 152.818 68.9882 153.051 68.238 153.051C67.0043 153.068 66.3707 152.718 66.3707 152.002ZM69.6718 149.555C69.2383 149.555 68.7215 149.754 68.1213 150.204C68.5547 150.437 69.8218 150.137 69.9385 149.688C69.9385 149.588 69.8718 149.555 69.6718 149.555Z" fill="#927B35"/>
<path d="M66.4541 161.359L66.4875 161.326L66.6042 161.126C70.1386 156.314 74.6567 151.07 80.2084 145.442C76.674 145.576 73.4563 145.825 70.5721 146.158H70.5387C70.372 146.158 70.3053 146.092 70.3053 145.959C70.3053 145.859 70.3887 145.792 70.5054 145.759C73.7231 145.376 77.0908 145.176 80.6252 145.076L87.3273 138.5C87.3606 138.466 87.444 138.433 87.494 138.433C87.6607 138.433 87.7274 138.5 87.7274 138.633C87.7274 138.699 87.7274 138.733 87.6941 138.766L81.2587 145.026C84.5931 144.926 87.9275 144.926 91.2118 145.026C91.3286 145.026 91.4119 145.093 91.4119 145.226C91.4119 145.326 91.3286 145.392 91.1785 145.392C87.6107 145.293 84.1596 145.293 80.8253 145.426C75.3069 151.036 70.7888 156.198 67.3377 160.909C67.4211 160.943 67.4211 161.043 67.3377 161.142C67.0543 161.525 66.8542 161.692 66.7042 161.692C66.4541 161.709 66.3708 161.592 66.4541 161.359Z" fill="#927B35"/>
<path d="M78.2408 154.749C78.2408 154.1 79.708 152.168 82.6422 148.972C85.6265 145.775 88.7108 142.745 91.9285 139.848C95.1795 136.918 97.1634 135.486 97.847 135.486C98.2804 135.486 98.5139 135.686 98.5139 136.069C98.5139 137.034 96.7633 139.099 93.2289 142.296C89.6944 145.459 85.9599 148.106 82.042 150.287C80.775 151.702 79.8247 152.834 79.1911 153.733C79.0744 153.933 78.9911 154.05 79.0244 154.083C79.0578 154.116 79.2245 154.05 79.4579 153.8L81.3251 152.252C83.6592 150.354 85.2097 149.388 86.0099 149.388C86.3601 149.388 86.5601 149.555 86.5601 149.904C86.5601 150.137 86.4434 150.52 86.16 151.07C85.9266 151.686 85.8099 152.035 85.8099 152.135C85.8099 152.518 86.0933 152.718 86.6768 152.718C87.5104 152.718 88.6608 152.435 90.2113 151.852C91.7617 151.269 93.1455 150.62 94.2959 149.954H94.4126C94.5793 149.954 94.646 150.021 94.646 150.121C94.646 150.221 94.6126 150.254 94.5293 150.287C93.3789 150.936 91.9951 151.602 90.3613 152.218C87.1936 153.417 85.3597 153.45 85.3597 152.119C85.3597 151.835 85.4764 151.436 85.7599 150.886C86.2433 149.754 86.16 149.754 85.9933 149.754C85.3264 149.754 83.8926 150.687 81.6252 152.501L79.758 154.05C79.0911 154.699 78.641 155.015 78.5243 155.015C78.3575 155.032 78.2408 154.916 78.2408 154.749ZM93.2789 141.713C96.4966 138.783 98.0804 136.935 98.0804 136.069C98.0804 135.969 97.997 135.902 97.847 135.902C97.2468 135.902 95.3129 137.384 92.0618 140.381C88.8108 143.378 85.7932 146.341 82.9757 149.321C86.6435 147.14 90.0946 144.593 93.2789 141.713Z" fill="#927B35"/>
<path d="M104.733 155.199C104.7 155.132 104.733 154.966 104.766 154.716C104.966 153.917 105.833 152.585 107.467 150.653C106.75 150.42 106.234 150.071 105.967 149.655V149.555C105.967 149.455 106.05 149.388 106.167 149.388C106.284 149.388 106.367 149.421 106.4 149.488C106.6 149.838 107.067 150.104 107.751 150.32C109.851 147.873 111.952 145.875 114.136 144.327C114.169 144.294 114.219 144.26 114.253 144.26C114.419 144.26 114.486 144.327 114.486 144.46C114.486 144.493 114.453 144.56 114.403 144.593C112.185 146.241 110.118 148.206 108.217 150.437C108.734 150.537 109.284 150.603 109.851 150.603C112.669 150.603 115.203 149.854 117.47 148.339C119.738 146.791 120.888 145.243 120.888 143.628C120.888 142.279 119.821 141.596 117.67 141.596C115.653 141.596 113.502 142.112 111.202 143.145C108.901 144.144 107.15 145.342 106 146.758C105.967 146.824 105.917 146.857 105.8 146.857C105.683 146.857 105.6 146.791 105.6 146.658C105.6 146.624 105.6 146.591 105.633 146.558C106.784 145.076 108.568 143.844 110.952 142.778C113.336 141.713 115.553 141.197 117.654 141.197C119.988 141.197 121.338 142.096 121.338 143.644C121.338 145.326 120.155 147.024 117.72 148.639C115.336 150.254 112.719 151.053 109.818 151.053C109.218 151.053 108.551 150.986 107.867 150.82C106.484 152.435 105.65 153.634 105.283 154.433C105.367 154.466 105.4 154.533 105.4 154.633C105.283 155.049 105.167 155.282 105.05 155.348C104.9 155.365 104.783 155.332 104.733 155.199Z" fill="#927B35"/>
<path d="M116.887 152.002C116.887 151.419 117.287 150.803 118.037 150.137C118.787 149.488 119.504 149.138 120.188 149.138C120.671 149.138 120.905 149.305 120.905 149.688C120.905 150.137 120.038 150.653 119.271 150.653C118.837 150.653 118.471 150.62 118.287 150.52C117.687 151.103 117.37 151.586 117.37 152.002C117.37 152.452 117.854 152.651 118.754 152.651C119.471 152.651 120.621 152.418 122.172 151.935C123.722 151.419 125.139 150.803 126.373 150.004C126.406 149.971 126.456 149.971 126.49 149.971C126.656 149.971 126.723 150.037 126.723 150.137C126.723 150.237 126.69 150.271 126.606 150.304C125.339 151.103 123.906 151.786 122.288 152.302C120.655 152.818 119.504 153.051 118.754 153.051C117.52 153.068 116.887 152.718 116.887 152.002ZM120.171 149.555C119.738 149.555 119.221 149.754 118.621 150.204C119.054 150.437 120.321 150.137 120.438 149.688C120.454 149.588 120.371 149.555 120.171 149.555Z" fill="#927B35"/>
<path d="M129.49 151.969C129.49 151.453 129.807 150.77 130.474 149.904C130.591 149.804 130.507 149.738 130.391 149.838C130.191 149.938 129.957 150.071 129.591 150.32C126.773 152.069 125.022 152.934 124.356 152.934C123.872 152.934 123.639 152.768 123.639 152.385C123.639 151.836 124.272 151.186 125.539 150.42C126.856 149.671 127.84 149.288 128.557 149.288C129.074 149.288 129.474 149.455 129.674 149.804C130.507 149.255 131.024 148.972 131.174 148.972C131.374 148.972 131.458 149.039 131.458 149.205C131.458 149.305 131.291 149.521 131.024 149.888C130.274 150.82 129.907 151.503 129.907 151.952C129.907 152.368 130.224 152.568 130.891 152.568C131.558 152.568 132.591 152.335 134.059 151.819C135.526 151.303 136.793 150.687 137.86 149.988C137.893 149.954 137.943 149.954 138.026 149.954C138.143 149.954 138.227 150.021 138.227 150.121C138.227 150.187 138.193 150.254 138.143 150.287C137.076 150.97 135.759 151.602 134.209 152.152C132.708 152.701 131.591 152.984 130.874 152.984C129.974 153.001 129.49 152.651 129.49 151.969ZM129.307 150.004C129.19 149.771 128.957 149.655 128.59 149.655C127.923 149.655 126.956 150.004 125.806 150.72C124.656 151.403 124.105 151.952 124.105 152.368C124.105 152.468 124.189 152.502 124.389 152.502C125.089 152.518 126.723 151.686 129.307 150.004Z" fill="#927B35"/>
<path d="M135.725 152.585C135.809 152.268 136.392 151.586 137.476 150.454C138.593 149.322 139.66 148.389 140.694 147.707C140.727 147.673 140.777 147.673 140.86 147.673C140.977 147.673 141.06 147.74 141.06 147.84C141.06 147.906 141.027 147.973 140.977 148.006C139.51 148.972 138.126 150.237 136.809 151.819C136.692 151.952 136.776 152.052 136.976 151.952C140.027 150.021 142.061 149.055 143.011 149.055C143.445 149.055 143.645 149.222 143.645 149.538C143.645 149.638 143.561 150.121 143.361 150.92C143.194 151.369 143.128 151.669 143.128 151.919C143.128 152.085 143.294 152.202 143.561 152.202C145.062 152.202 147.096 151.453 149.68 149.971H149.797C149.963 149.971 150.03 150.038 150.03 150.137C150.03 150.237 149.997 150.271 149.913 150.304C147.262 151.819 145.112 152.568 143.561 152.568C142.961 152.568 142.644 152.368 142.644 151.919C142.644 151.786 142.728 151.403 142.878 150.82C143.078 150.171 143.194 149.788 143.194 149.621C143.194 149.521 143.111 149.455 142.994 149.455C142.194 149.455 140.21 150.454 137.043 152.418C136.409 152.801 136.092 152.968 136.059 152.968C135.759 152.968 135.692 152.818 135.725 152.585Z" fill="#927B35"/>
<path d="M72.6726 10.5679H11.3201V19.4252H72.6726V10.5679Z" fill="#927B35"/>
<path d="M72.6727 123.815H10.1865V132.573H72.6727V123.815Z" fill="#927B35"/>
<path d="M156.215 0.611816H3.80119C1.70053 0.611816 0 2.42657 0 4.6409V161.359C0 163.59 1.70053 165.388 3.80119 165.388H156.215C158.316 165.388 160.017 163.573 160.017 161.359V4.6409C160 2.42657 158.299 0.611816 156.215 0.611816ZM1.90059 4.6409C1.90059 3.52541 2.75086 2.60971 3.80119 2.60971H156.215C157.266 2.60971 158.116 3.52541 158.116 4.6409V161.359C158.116 162.474 157.266 163.39 156.215 163.39H3.80119C2.75086 163.39 1.90059 162.474 1.90059 161.359V4.6409Z" fill="#927B35"/>
<g opacity="0.5">
<path opacity="0.5" d="M81.7757 132.589V32.1786L138.043 132.589H149.997L82.1091 10.5847H72.6729V132.589H81.7757Z" fill="#927B35"/>
</g>
<path d="M81.7758 67.0918H40.0795V75.8825H81.7758V67.0918Z" fill="#927B35"/>
<path d="M81.7753 75.8823V67.0916H91.9284H109.684C120.154 67.0916 128.206 65.4433 133.725 61.4808C139.36 57.4184 142.111 51.4414 142.111 43.2001C142.111 35.2418 139.31 29.115 133.792 25.0026C128.273 20.8903 119.921 18.7093 109.634 18.7093H86.6268L82.1087 10.5845L109.617 10.5679C121.838 10.5679 131.608 13.2317 138.643 18.4762C146.229 24.1369 150.23 32.6779 150.23 43.1835C150.23 48.6277 149.213 53.5059 147.196 57.7015C145.212 61.8304 142.278 65.3101 138.46 68.0572C131.524 73.0519 121.804 75.9322 109.584 75.9322C102.849 75.9322 97.4302 75.8823 92.2786 75.8823C88.3273 75.8823 88.244 75.8656 84.8429 75.8656" fill="#927B35"/>
</g>
<defs>
<clipPath id="clip0_153_2078">
<rect width="160" height="164.776" fill="white" transform="translate(0 0.611816)"/>
</clipPath>
</defs>
</svg>
