<svg width="410" height="300" viewBox="0 0 410 300" fill="none" xmlns="http://www.w3.org/2000/svg">
<g clip-path="url(#clip0_320_1091)">
<path d="M283.925 114.359C284.422 99.109 279.336 85.8319 269.284 74.7242C258.019 62.2329 243.962 56.946 227.323 59.9183C217.409 61.6906 208.81 66.4992 200.62 72.226C195.559 75.7663 191.695 75.7876 186.705 72.273C182.41 69.1726 177.854 66.47 173.091 64.1974C163.991 59.9695 154.503 57.7916 144.552 59.6877C126.861 63.0443 115.216 74.1477 107.893 90.5167C107.476 91.4562 107.15 92.447 107.455 93.5573C108.027 95.667 109.358 96.9737 111.435 97.183C113.513 97.3923 115.116 96.2905 115.967 94.3303C117.844 90.0042 120.139 85.9259 123.168 82.3728C132.381 71.5427 143.813 66.5718 157.907 68.8864C166.694 70.3299 174.25 74.6175 181.448 79.6909C181.943 80.1226 182.352 80.6474 182.654 81.2368C185.996 86.763 191.12 90.92 197.14 92.9893C204.387 95.5517 211.501 95.0734 218.419 91.7338C220.397 90.7815 221.402 89.1715 221.135 86.8526C220.885 84.7173 219.567 83.5472 217.668 83.0091C216.216 82.582 214.96 83.3593 213.688 83.9016C208.606 86.0796 203.574 86.0113 198.25 83.6326C198.242 83.5674 198.242 83.5013 198.25 83.4361C201.901 82.4454 204.717 80.4724 207.533 78.4951C210.66 76.2911 213.965 74.3666 217.414 72.7427C226.881 68.2928 236.606 66.7042 246.75 70.0864C264.19 75.8986 275.351 95.5388 275.209 113.116C273.903 113.031 272.585 112.98 271.254 112.98C259.372 112.989 247.764 116.628 237.916 123.432C228.067 130.236 220.429 139.895 215.977 151.171C211.526 162.446 210.466 174.826 212.932 186.722C215.397 198.619 221.277 209.491 229.818 217.945C229.559 218.744 229.2 219.505 228.75 220.209C227.306 222.536 225.775 224.449 223.071 225.043C217.839 226.196 213.892 223.219 212.707 217.467C209.392 201.341 206.036 185.223 202.639 169.112C201.621 164.307 198.183 161.531 193.656 161.523C189.067 161.523 185.629 164.388 184.594 169.304C181.209 185.418 177.855 201.536 174.534 217.659C173.983 220.337 172.936 222.617 170.575 224.065C166.189 226.764 160.941 225.09 158.625 220.183C154.357 211.121 150.226 201.986 145.908 192.95C140.179 180.958 134.838 168.749 127.85 157.449C122.914 149.476 118.42 141.332 115.516 132.334C114.586 129.455 112.136 128.136 109.725 128.99C107.159 129.895 106.174 132.351 107.142 135.421C108.793 140.437 110.816 145.317 113.192 150.018C116.772 157.299 121.62 163.808 125.292 171.046C134.221 188.645 142.361 206.637 150.781 224.492C154.031 231.38 160.874 235.215 167.971 234.383C175.444 233.499 181.185 228.519 182.85 220.918C185.77 207.679 188.416 194.376 191.194 181.103C191.912 177.657 192.655 174.211 193.389 170.764C193.435 170.76 193.481 170.76 193.527 170.764C193.853 170.993 194.08 171.342 194.161 171.738C197.432 187.569 200.737 203.391 203.941 219.239C205.472 226.811 209.536 232.077 216.967 233.9C224.26 235.694 230.356 233.315 234.963 227.182C235.69 226.159 236.309 225.059 236.811 223.903C244.033 229.127 252.299 232.643 261.011 234.197C269.724 235.75 278.665 235.301 287.187 232.883C295.71 230.465 303.6 226.139 310.288 220.216C316.976 214.293 322.294 206.923 325.857 198.639C329.42 190.354 331.139 181.362 330.89 172.314C330.641 163.266 328.43 154.388 324.417 146.321C320.404 138.255 314.689 131.203 307.686 125.675C300.683 120.148 292.567 116.282 283.925 114.359ZM271.55 228.216C261.123 228.216 250.931 225.051 242.262 219.122C233.593 213.192 226.836 204.764 222.847 194.904C218.858 185.044 217.815 174.195 219.851 163.728C221.886 153.262 226.909 143.648 234.283 136.103C241.657 128.558 251.052 123.421 261.279 121.342C271.506 119.263 282.105 120.334 291.737 124.421C301.369 128.508 309.6 135.427 315.39 144.302C321.18 153.178 324.268 163.611 324.264 174.283C324.258 188.589 318.702 202.307 308.817 212.421C298.932 222.534 285.527 228.216 271.55 228.216Z" fill="#937B34"/>
<path d="M240.483 174.241C240.483 171.712 240.483 169.189 240.483 166.665C240.483 163.966 242.077 162.356 244.734 162.347C249.428 162.347 254.118 162.317 258.812 162.347C259.73 162.347 259.959 162.087 259.947 161.168C259.905 156.471 259.922 151.812 259.947 147.131C259.947 144.014 261.466 142.434 264.474 142.434C269.247 142.434 274.019 142.434 278.789 142.434C281.71 142.434 283.22 143.967 283.229 146.926C283.229 151.645 283.258 156.364 283.229 161.083C283.229 162.035 283.433 162.364 284.418 162.339C288.962 162.326 293.522 162.326 298.112 162.326C301.149 162.326 302.626 163.859 302.626 166.998C302.626 171.883 302.626 176.769 302.626 181.654C302.626 184.644 301.124 186.177 298.224 186.181C293.635 186.181 289.083 186.228 284.514 186.155C283.396 186.155 283.191 186.497 283.204 187.548C283.258 192.185 283.233 196.823 283.204 201.461C283.204 204.514 281.71 206.035 278.727 206.039C273.954 206.039 269.18 206.039 264.407 206.039C261.461 206.039 259.93 204.463 259.922 201.431C259.922 196.712 259.897 191.993 259.922 187.274C259.922 186.42 259.676 186.16 258.833 186.164C254.181 186.207 249.529 186.19 244.876 186.164C241.956 186.164 240.462 184.622 240.454 181.658C240.454 179.173 240.454 176.688 240.454 174.206" fill="#937B34"/>
</g>
<defs>
<clipPath id="clip0_320_1091">
<rect width="410" height="300" fill="white"/>
</clipPath>
</defs>
</svg>
