<svg width="410" height="300" viewBox="0 0 410 300" fill="none" xmlns="http://www.w3.org/2000/svg">
<g clip-path="url(#clip0_320_1090)">
<g clip-path="url(#clip1_320_1090)">
<path d="M203.603 63.6903C203.603 64.7377 203.603 65.7721 204.008 66.7677C204.312 67.4846 204.821 68.096 205.47 68.5259C206.119 68.9558 206.88 69.185 207.659 69.185C208.438 69.185 209.199 68.9558 209.848 68.5259C210.497 68.096 211.006 67.4846 211.31 66.7677C211.661 65.7834 211.808 64.7377 211.741 63.6946C211.741 46.6526 211.706 29.6106 211.771 12.5729C211.771 10.2282 211.133 8.38353 209.245 7H206.116C204.22 8.38353 203.577 10.2239 203.586 12.5686C203.655 29.6106 203.625 46.6526 203.621 63.6903" fill="#937B34"/>
<path d="M166.166 70.6726C167.412 73.1552 169.58 74.0172 171.722 73.0431C173.864 72.069 174.536 69.7631 173.308 67.2762C167.909 56.3574 162.474 45.4472 157.003 34.5456C156.261 33.0715 155.106 32.0716 153.335 32.0544C150.189 32.0285 148.404 35.1059 149.926 38.1833C155.296 49.036 160.709 59.8658 166.166 70.6726Z" fill="#937B34"/>
<path d="M243.403 72.9139C245.592 74.0862 247.864 73.2501 249.169 70.6511C254.574 59.9018 259.955 49.141 265.311 38.3687C265.816 37.5385 266.065 36.5773 266.026 35.606C265.952 34.7789 265.614 33.9976 265.062 33.3769C264.51 32.7562 263.774 32.3289 262.962 32.1579C260.69 31.6493 259.212 32.8044 258.199 34.8388C252.85 45.5881 247.445 56.3072 242.092 67.0565C240.799 69.6426 241.347 71.8192 243.385 72.9139" fill="#937B34"/>
<path fill-rule="evenodd" clip-rule="evenodd" d="M64.1769 92.9558C63.7355 92.9603 63.2994 93.0523 62.8938 93.2266C62.4882 93.4008 62.1212 93.6538 61.8141 93.9709C61.507 94.2881 61.2659 94.663 61.1048 95.0739C60.9437 95.4849 60.8657 95.9238 60.8754 96.3651C60.8754 98.6926 59.8798 99.7485 57.5696 99.7485C53.0354 99.6666 53.0354 106.52 57.5696 106.455C59.7936 106.455 60.8754 107.076 60.8754 109.692C60.8108 114.23 67.6465 114.23 67.5819 109.692C67.5819 107.313 68.6982 106.455 70.9006 106.455C75.4391 106.533 75.4391 99.6796 70.9006 99.7485C67.9094 99.7485 67.5819 98.0245 67.5819 96.3651C67.5882 95.916 67.5046 95.4702 67.3358 95.0539C67.167 94.6377 66.9165 94.2595 66.5991 93.9417C66.2817 93.6239 65.9038 93.373 65.4878 93.2036C65.0718 93.0343 64.626 92.95 64.1769 92.9558Z" fill="#937B34"/>
<path fill-rule="evenodd" clip-rule="evenodd" d="M82.1024 147.534C81.86 147.536 81.6204 147.587 81.3976 147.682C81.1748 147.778 80.9732 147.916 80.8044 148.09C80.6356 148.264 80.503 148.47 80.4144 148.696C80.3257 148.921 80.2827 149.162 80.2878 149.405C80.2878 150.698 79.7448 151.262 78.4776 151.262C75.9821 151.262 75.9821 154.978 78.4776 154.943C79.6974 154.943 80.2878 155.279 80.2878 156.719C80.249 159.21 84.0074 159.21 83.9729 156.719C83.9729 155.426 84.585 154.943 85.7918 154.943C88.283 154.943 88.283 151.224 85.7918 151.262C84.1497 151.262 83.9729 150.323 83.9729 149.405C83.9764 149.158 83.9304 148.913 83.8376 148.685C83.7449 148.456 83.6072 148.249 83.4328 148.074C83.2584 147.9 83.0508 147.762 82.8223 147.669C82.5938 147.577 82.349 147.531 82.1024 147.534Z" fill="#937B34"/>
<path fill-rule="evenodd" clip-rule="evenodd" d="M109.739 45.407C109.417 45.4103 109.1 45.4774 108.804 45.6043C108.509 45.7312 108.242 45.9155 108.018 46.1463C107.794 46.3772 107.619 46.6502 107.501 46.9494C107.384 47.2486 107.327 47.5682 107.334 47.8896C107.334 49.5877 106.61 50.3549 104.929 50.3549C101.623 50.2774 101.623 55.29 104.929 55.2426C106.545 55.2426 107.334 55.6736 107.334 57.6045C107.286 60.906 112.269 60.906 112.221 57.6045C112.221 55.8805 113.032 55.2426 114.639 55.2426C117.945 55.3244 117.945 50.3075 114.639 50.3549C112.458 50.3549 112.221 49.1093 112.221 47.8896C112.226 47.5623 112.165 47.2374 112.042 46.9341C111.919 46.6308 111.736 46.3552 111.504 46.1238C111.273 45.8923 110.997 45.7096 110.694 45.5865C110.391 45.4634 110.066 45.4023 109.739 45.407Z" fill="#937B34"/>
<path fill-rule="evenodd" clip-rule="evenodd" d="M286.145 20.6931C285.903 20.6953 285.663 20.7457 285.441 20.8412C285.218 20.9366 285.016 21.0754 284.847 21.2494C284.679 21.4234 284.546 21.6292 284.457 21.8548C284.369 22.0804 284.326 22.3213 284.331 22.5637C284.331 23.8567 283.784 24.417 282.516 24.417C280.025 24.417 280.025 28.1366 282.516 28.1021C283.74 28.1021 284.331 28.4383 284.331 29.8779C284.292 32.3691 288.05 32.3691 288.016 29.8779C288.016 28.5849 288.628 28.1021 289.835 28.1021C292.326 28.1021 292.326 24.3825 289.835 24.417C288.193 24.417 288.016 23.4774 288.016 22.5637C288.02 22.3169 287.974 22.0718 287.882 21.8431C287.789 21.6143 287.652 21.4064 287.477 21.2319C287.303 21.0574 287.095 20.9198 286.866 20.8272C286.637 20.7346 286.392 20.689 286.145 20.6931Z" fill="#937B34"/>
<path fill-rule="evenodd" clip-rule="evenodd" d="M335.599 172.377C335.158 172.382 334.722 172.475 334.316 172.649C333.91 172.824 333.543 173.076 333.236 173.393C332.929 173.71 332.687 174.085 332.525 174.496C332.364 174.906 332.285 175.345 332.293 175.787C332.293 178.11 331.302 179.166 328.992 179.166C324.453 179.088 324.453 185.941 328.992 185.876C331.216 185.876 332.293 186.493 332.293 189.113C332.233 193.652 339.069 193.652 339.004 189.113C339.004 186.734 340.12 185.876 342.319 185.876C346.857 185.954 346.857 179.101 342.319 179.166C339.327 179.166 339.004 177.442 339.004 175.787C339.011 175.337 338.928 174.891 338.759 174.475C338.591 174.058 338.34 173.68 338.023 173.362C337.705 173.044 337.327 172.793 336.911 172.624C336.494 172.455 336.048 172.371 335.599 172.377Z" fill="#937B34"/>
<path fill-rule="evenodd" clip-rule="evenodd" d="M305.584 69.1858C305.262 69.1891 304.945 69.2562 304.649 69.3831C304.354 69.51 304.087 69.6943 303.863 69.9251C303.639 70.156 303.464 70.429 303.346 70.7282C303.229 71.0274 303.172 71.347 303.179 71.6684C303.179 73.3622 302.455 74.1294 300.774 74.1294C297.463 74.0519 297.463 79.0688 300.774 79.0214C302.39 79.0214 303.179 79.4524 303.179 81.379C303.131 84.6848 308.114 84.6848 308.066 81.379C308.066 79.6549 308.877 79.0214 310.484 79.0214C313.79 79.0989 313.79 74.0863 310.484 74.1294C308.303 74.1294 308.066 72.8838 308.066 71.6684C308.071 71.3411 308.01 71.0162 307.887 70.7129C307.764 70.4096 307.581 70.134 307.349 69.9026C307.118 69.6711 306.842 69.4884 306.539 69.3653C306.236 69.2422 305.911 69.1811 305.584 69.1858Z" fill="#937B34"/>
<path d="M156.748 182.161L153.3 178.127C152.972 177.715 152.564 177.374 152.101 177.124C151.638 176.873 151.129 176.719 150.605 176.67C150.08 176.62 149.552 176.677 149.05 176.837C148.548 176.996 148.084 177.255 147.684 177.599C147.285 177.942 146.959 178.362 146.726 178.834C146.492 179.306 146.356 179.82 146.326 180.346C146.296 180.871 146.372 181.398 146.55 181.893C146.728 182.389 147.004 182.843 147.361 183.23L150.809 187.247C151.21 187.721 151.718 188.092 152.29 188.331C152.863 188.571 153.484 188.67 154.103 188.622C154.721 188.574 155.32 188.38 155.849 188.055C156.378 187.731 156.822 187.285 157.145 186.756C157.579 186.048 157.775 185.22 157.704 184.393C157.632 183.566 157.297 182.784 156.748 182.161Z" fill="#937B34"/>
<path d="M304.972 134.975L273.685 88.0552C273.13 87.2256 272.279 86.6396 271.306 86.4174C270.922 86.3081 270.524 86.2587 270.125 86.2709C269.96 86.2745 269.796 86.2889 269.634 86.314H145.073C144.419 86.3072 143.774 86.4628 143.196 86.7667C142.617 87.0706 142.123 87.5134 141.758 88.0552L110.795 134.522C110.442 134.905 110.171 135.356 109.997 135.846C109.822 136.337 109.748 136.857 109.779 137.377C109.81 137.896 109.946 138.404 110.177 138.871C110.408 139.337 110.731 139.752 111.126 140.091L139.077 172.662C139.48 173.133 139.988 173.502 140.561 173.739C141.133 173.976 141.754 174.074 142.372 174.025C142.989 173.976 143.587 173.781 144.115 173.456C144.643 173.132 145.086 172.687 145.409 172.158C145.84 171.452 146.035 170.627 145.965 169.802C145.894 168.978 145.562 168.198 145.017 167.576L122.311 141.116C122.306 141.112 122.302 141.105 122.3 141.098C122.298 141.091 122.299 141.084 122.302 141.077C122.305 141.07 122.31 141.065 122.316 141.061C122.322 141.057 122.33 141.055 122.337 141.056H139.457C140.474 141.04 141.445 140.629 142.165 139.909C142.884 139.189 143.294 138.217 143.309 137.199C143.323 136.182 142.941 135.198 142.243 134.458C141.544 133.718 140.585 133.278 139.569 133.233H121.134C121.128 133.234 121.121 133.233 121.115 133.229C121.109 133.226 121.104 133.221 121.101 133.215C121.097 133.209 121.096 133.203 121.097 133.196C121.097 133.189 121.1 133.183 121.104 133.177L145.068 97.2184C145.071 97.213 145.076 97.2086 145.081 97.2054C145.086 97.2023 145.092 97.2006 145.098 97.2006C145.105 97.2006 145.111 97.2023 145.116 97.2054C145.121 97.2086 145.126 97.213 145.129 97.2184L169.14 133.233H152.9C151.861 133.219 150.858 133.618 150.114 134.343C149.369 135.067 148.942 136.058 148.928 137.097C148.914 138.136 149.313 139.139 150.037 139.883C150.762 140.628 151.753 141.055 152.792 141.069H173.347C173.354 141.069 173.362 141.071 173.368 141.076C173.375 141.081 173.379 141.087 173.381 141.095L198.81 230.167C198.815 230.175 198.816 230.184 198.814 230.193C198.811 230.202 198.806 230.21 198.798 230.214C198.79 230.219 198.78 230.22 198.771 230.218C198.762 230.215 198.755 230.209 198.75 230.201L166.265 192.359C165.966 191.92 165.581 191.546 165.132 191.261C164.684 190.976 164.182 190.785 163.657 190.7C163.133 190.615 162.596 190.638 162.081 190.768C161.566 190.898 161.082 191.131 160.66 191.454C160.238 191.776 159.886 192.182 159.626 192.645C159.365 193.108 159.202 193.62 159.146 194.148C159.091 194.677 159.143 195.211 159.301 195.719C159.458 196.226 159.718 196.696 160.063 197.1C160.149 197.208 160.244 197.315 160.339 197.419L204.763 249.191C205.096 249.582 205.504 249.903 205.961 250.135C206.419 250.368 206.918 250.509 207.43 250.549C207.942 250.589 208.456 250.528 208.945 250.369C209.433 250.21 209.885 249.956 210.275 249.622C210.431 249.491 210.575 249.347 210.706 249.191L304.666 139.716C305.224 139.069 305.555 138.258 305.608 137.405C305.661 136.553 305.433 135.707 304.959 134.996L304.972 134.975ZM214.99 94.1281H262.832C262.839 94.1274 262.846 94.1288 262.852 94.132C262.858 94.1352 262.863 94.1401 262.866 94.1461C262.869 94.1521 262.871 94.1589 262.87 94.1656C262.869 94.1724 262.867 94.1789 262.862 94.1841L238.942 130.065C238.939 130.071 238.934 130.075 238.929 130.078C238.924 130.082 238.918 130.083 238.911 130.083C238.905 130.083 238.899 130.082 238.894 130.078C238.889 130.075 238.884 130.071 238.881 130.065L214.965 94.1841C214.96 94.1789 214.958 94.1724 214.957 94.1656C214.956 94.1589 214.958 94.1521 214.961 94.1461C214.964 94.1401 214.969 94.1352 214.975 94.132C214.981 94.1288 214.988 94.1274 214.995 94.1281H214.99ZM231.528 133.233H183.708C183.701 133.234 183.694 133.233 183.688 133.229C183.682 133.226 183.677 133.221 183.674 133.215C183.671 133.209 183.67 133.203 183.67 133.196C183.671 133.189 183.674 133.183 183.678 133.177L207.586 97.3176C207.589 97.3122 207.593 97.3077 207.598 97.3045C207.604 97.3014 207.61 97.2998 207.616 97.2998C207.622 97.2998 207.628 97.3014 207.633 97.3045C207.639 97.3077 207.643 97.3122 207.646 97.3176L231.554 133.177C231.558 133.183 231.561 133.189 231.562 133.196C231.562 133.203 231.561 133.209 231.558 133.215C231.554 133.221 231.549 133.226 231.543 133.229C231.537 133.233 231.531 133.234 231.524 133.233H231.528ZM176.355 129.966L152.503 94.1928C152.499 94.1875 152.496 94.181 152.496 94.1743C152.495 94.1675 152.496 94.1607 152.5 94.1547C152.503 94.1487 152.508 94.1438 152.514 94.1406C152.52 94.1374 152.527 94.1361 152.533 94.1367H200.241C200.248 94.1361 200.255 94.1374 200.261 94.1406C200.267 94.1438 200.272 94.1487 200.275 94.1547C200.278 94.1607 200.28 94.1675 200.279 94.1743C200.279 94.181 200.276 94.1875 200.272 94.1928L176.42 129.966C176.417 129.972 176.412 129.976 176.407 129.979C176.402 129.982 176.396 129.984 176.39 129.984C176.383 129.984 176.377 129.982 176.372 129.979C176.367 129.976 176.362 129.972 176.359 129.966H176.355ZM233.683 141.104L207.638 232.296C207.638 232.305 207.634 232.314 207.627 232.32C207.621 232.327 207.612 232.33 207.603 232.33C207.594 232.33 207.585 232.327 207.579 232.32C207.572 232.314 207.569 232.305 207.569 232.296L181.514 141.104C181.512 141.098 181.511 141.092 181.512 141.086C181.513 141.081 181.515 141.075 181.518 141.07C181.522 141.065 181.526 141.062 181.532 141.059C181.537 141.057 181.543 141.056 181.549 141.056H233.657C233.663 141.056 233.669 141.057 233.674 141.059C233.68 141.062 233.684 141.065 233.688 141.07C233.691 141.075 233.693 141.081 233.694 141.086C233.695 141.092 233.694 141.098 233.692 141.104H233.683ZM241.881 141.056H293.128C293.135 141.055 293.142 141.057 293.149 141.061C293.155 141.065 293.16 141.07 293.163 141.077C293.166 141.084 293.166 141.091 293.165 141.098C293.163 141.105 293.159 141.112 293.154 141.116L216.322 230.611C216.318 230.619 216.31 230.625 216.301 230.627C216.292 230.629 216.283 230.628 216.275 230.624C216.267 230.619 216.261 230.612 216.259 230.603C216.256 230.594 216.257 230.584 216.262 230.576L241.825 141.069C241.828 141.061 241.833 141.054 241.84 141.05C241.847 141.045 241.855 141.043 241.864 141.043L241.881 141.056ZM246.264 133.164L270.289 97.1279C270.292 97.1225 270.296 97.118 270.301 97.1149C270.307 97.1118 270.313 97.1101 270.319 97.1101C270.325 97.1101 270.331 97.1118 270.336 97.1149C270.342 97.118 270.346 97.1225 270.349 97.1279L294.365 133.164C294.368 133.17 294.369 133.176 294.369 133.182C294.369 133.189 294.367 133.195 294.364 133.2C294.361 133.206 294.357 133.21 294.352 133.214C294.347 133.218 294.341 133.22 294.335 133.22H246.295C246.288 133.221 246.281 133.22 246.275 133.217C246.269 133.213 246.264 133.208 246.261 133.202C246.258 133.196 246.256 133.19 246.257 133.183C246.257 133.176 246.26 133.17 246.264 133.164Z" fill="#937B34"/>
</g>
</g>
<defs>
<clipPath id="clip0_320_1090">
<rect width="410" height="300" fill="white"/>
</clipPath>
<clipPath id="clip1_320_1090">
<rect width="359.309" height="398.44" fill="white" transform="translate(20.2876 7)"/>
</clipPath>
</defs>
</svg>
