<svg width="410" height="300" viewBox="0 0 410 300" fill="none" xmlns="http://www.w3.org/2000/svg">
<g clip-path="url(#clip0_320_1132)">
<g opacity="0.3">
<g opacity="0.3">
<path opacity="0.3" d="M227.92 212.547C237.058 190.723 243.881 172.383 253.577 150.868C257.564 142.029 262.831 134.073 266.715 125.178C269.313 119.389 271.508 113.424 273.284 107.325C274.336 103.576 273.284 100.575 270.482 99.4651C267.866 98.4244 265.202 100.031 264.193 103.549C261.039 114.553 256.159 124.503 250.802 134.252C238.235 157.887 229.209 183.129 219.1 208.184C216.647 214.05 224.393 220.964 227.92 212.539" fill="#937B34"/>
</g>
</g>
<path d="M214.371 231.859C214.31 231.998 214.267 232.145 214.242 232.295C214.293 232.152 214.336 232.007 214.371 231.859" fill="#937B34"/>
<path d="M315.566 280.85C314.156 280.763 312.793 280.3 311.614 279.509C310.436 278.718 309.485 277.626 308.856 276.343L281.154 219.846C281.051 219.635 280.993 219.404 280.985 219.169C280.977 218.934 281.019 218.7 281.107 218.482C281.195 218.265 281.328 218.069 281.497 217.907C281.666 217.746 281.867 217.623 282.086 217.546C284.044 216.86 285.957 216.049 287.813 215.117C289.669 214.175 291.463 213.111 293.183 211.934C293.376 211.803 293.595 211.716 293.824 211.678C294.053 211.64 294.287 211.651 294.511 211.712C294.736 211.772 294.945 211.88 295.124 212.029C295.304 212.178 295.451 212.363 295.555 212.574L323.256 269.093C323.884 270.373 324.168 271.798 324.08 273.224C323.993 274.651 323.536 276.029 322.757 277.22C321.978 278.411 320.903 279.374 319.641 280.011C318.379 280.648 316.974 280.937 315.566 280.85" fill="#937B34"/>
<path d="M273.692 103.445C274.203 87.8958 268.966 74.3581 258.612 63.0325C247.012 50.296 232.539 44.9054 215.406 47.936C205.198 49.743 196.348 54.646 187.91 60.4852C182.703 64.095 178.721 64.1167 173.582 60.5331C169.163 57.3722 164.475 54.6166 159.573 52.299C150.198 47.9882 140.433 45.7675 130.183 47.7008C111.967 51.1234 99.9763 62.4447 92.4366 79.1349C92.007 80.0928 91.6719 81.103 91.9855 82.2352C92.5783 84.3862 93.9445 85.7186 96.0883 85.932C98.2321 86.1454 99.8732 85.0219 100.75 83.0233C102.683 78.6123 105.046 74.4539 108.165 70.8311C117.651 59.7885 129.422 54.72 143.939 57.0801C152.982 58.5519 160.763 62.9236 168.174 68.0966C168.683 68.5368 169.104 69.0718 169.415 69.6729C172.849 75.3096 178.117 79.554 184.31 81.6734C191.768 84.286 199.097 83.7984 206.22 80.3933C208.257 79.4222 209.292 77.7807 209.017 75.4162C208.759 73.2391 207.402 72.046 205.447 71.4973C203.952 71.0619 202.659 71.8544 201.348 72.4074C196.116 74.6281 190.939 74.5584 185.453 72.1331C185.446 72.0665 185.446 71.9994 185.453 71.9328C189.216 70.9226 192.112 68.9109 195.012 66.8948C198.232 64.6475 201.637 62.6852 205.189 61.0295C214.933 56.4923 224.952 54.8725 235.391 58.3211C253.349 64.2474 264.846 84.273 264.695 102.195C263.351 102.108 261.993 102.056 260.627 102.056C248.392 102.064 236.439 105.775 226.298 112.712C216.157 119.649 208.291 129.498 203.707 140.995C199.123 152.492 198.031 165.114 200.57 177.245C203.109 189.375 209.163 200.461 217.957 209.082C217.691 209.896 217.321 210.672 216.858 211.389C215.371 213.763 213.794 215.713 211.015 216.319C205.623 217.494 201.563 214.459 200.339 208.594C196.933 192.134 193.484 175.691 189.989 159.264C188.941 154.365 185.401 151.535 180.74 151.526C176.014 151.526 172.474 154.448 171.409 159.459C167.923 175.89 164.47 192.325 161.051 208.764C160.483 211.494 159.405 213.819 156.973 215.295C152.458 218.047 147.054 216.34 144.674 211.337C140.274 202.097 136.021 192.783 131.575 183.569C125.68 171.342 120.177 158.893 112.981 147.372C107.898 139.247 103.293 130.943 100.286 121.768C99.3276 118.833 96.8058 117.488 94.3226 118.359C91.6847 119.282 90.6666 121.786 91.6676 124.916C93.3642 130.032 95.4468 135.008 97.897 139.8C101.579 147.224 106.575 153.86 110.356 161.24C119.55 179.185 127.936 197.53 136.601 215.735C139.948 222.759 146.994 226.669 154.301 225.82C161.987 224.923 167.916 219.828 169.626 212.095C172.633 198.596 175.361 185.033 178.218 171.499C178.957 167.985 179.726 164.471 180.478 160.957C180.526 160.953 180.575 160.953 180.624 160.957V160.957C180.96 161.191 181.196 161.546 181.281 161.95C184.645 178.092 188.048 194.225 191.347 210.384C192.924 218.104 197.108 223.473 204.76 225.332C212.269 227.161 218.55 224.735 223.293 218.483C224.041 217.439 224.677 216.318 225.192 215.138C232.629 220.467 241.141 224.053 250.113 225.638C259.085 227.222 268.292 226.765 277.068 224.3C285.845 221.834 293.97 217.421 300.857 211.382C307.744 205.342 313.22 197.826 316.888 189.377C320.557 180.929 322.326 171.759 322.069 162.532C321.811 153.305 319.532 144.252 315.398 136.028C311.263 127.803 305.377 120.613 298.163 114.978C290.95 109.343 282.591 105.403 273.692 103.445V103.445ZM260.962 219.536C250.225 219.539 239.729 216.314 230.801 210.27C221.873 204.226 214.914 195.633 210.805 185.58C206.695 175.527 205.62 164.464 207.714 153.791C209.809 143.118 214.98 133.315 222.572 125.621C230.165 117.926 239.838 112.687 250.369 110.566C260.899 108.445 271.814 109.537 281.732 113.703C291.651 117.87 300.127 124.925 306.089 133.975C312.051 143.025 315.231 153.663 315.227 164.545C315.22 179.129 309.5 193.114 299.325 203.425C289.15 213.737 275.351 219.532 260.962 219.536Z" fill="#937B34"/>
<path d="M261.052 216.597C252.029 216.614 243.16 214.222 235.339 209.663C227.517 205.103 221.018 198.536 216.495 190.622C211.973 182.708 209.586 173.727 209.575 164.581C209.564 155.436 211.93 146.449 216.434 138.524C220.938 130.6 227.422 124.017 235.233 119.438C243.044 114.859 251.907 112.446 260.93 112.441C269.953 112.437 278.818 114.84 286.634 119.41C294.45 123.98 300.941 130.556 305.453 138.476C318.341 161.084 312.628 190.058 292.191 205.877C288.655 208.615 284.785 210.879 280.677 212.613C274.46 215.243 267.789 216.597 261.052 216.597V216.597ZM260.876 116.352C253.849 116.364 246.913 117.954 240.566 121.01C234.218 124.065 228.619 128.509 224.169 134.021C219.72 139.534 216.532 145.977 214.835 152.888C213.138 159.799 212.974 167.005 214.354 173.988C215.735 180.971 218.626 187.557 222.819 193.272C227.013 198.986 232.404 203.688 238.605 207.037C244.806 210.386 251.663 212.3 258.682 212.641C265.7 212.981 272.706 211.741 279.195 209.008C282.996 207.402 286.577 205.306 289.849 202.772C308.752 188.142 314.028 161.341 302.119 140.427C297.936 133.097 291.921 127.012 284.681 122.786C277.441 118.56 269.231 116.341 260.876 116.352" fill="#937B34"/>
<path d="M221.322 167.376C220.825 167.375 220.347 167.18 219.988 166.831C219.63 166.482 219.418 166.007 219.397 165.503C219.155 159.465 220.15 153.441 222.319 147.812C224.489 142.183 227.786 137.071 232.002 132.798C232.364 132.432 232.854 132.227 233.365 132.228C233.875 132.229 234.365 132.435 234.726 132.802C235.086 133.169 235.288 133.666 235.288 134.183C235.287 134.701 235.083 135.197 234.721 135.563C230.883 139.454 227.882 144.109 225.907 149.234C223.932 154.36 223.026 159.844 223.246 165.342C223.266 165.859 223.083 166.363 222.738 166.744C222.393 167.125 221.913 167.352 221.403 167.376H221.322Z" fill="#937B34"/>
<path d="M225.97 183.225C225.632 183.226 225.299 183.136 225.005 182.965C224.712 182.794 224.468 182.547 224.299 182.25C222.841 179.688 221.64 176.983 220.716 174.177C220.636 173.934 220.605 173.677 220.623 173.421C220.641 173.165 220.708 172.916 220.822 172.687C220.935 172.457 221.092 172.253 221.283 172.085C221.474 171.917 221.696 171.789 221.936 171.708C222.176 171.627 222.43 171.595 222.682 171.613C222.934 171.632 223.181 171.7 223.407 171.815C223.633 171.93 223.835 172.089 224 172.283C224.166 172.476 224.292 172.701 224.372 172.945C225.214 175.501 226.308 177.965 227.637 180.299C227.806 180.596 227.895 180.932 227.895 181.275C227.895 181.617 227.806 181.954 227.637 182.25C227.468 182.547 227.225 182.793 226.933 182.964C226.64 183.135 226.308 183.225 225.97 183.225" fill="#937B34"/>
</g>
<defs>
<clipPath id="clip0_320_1132">
<rect width="410" height="300" fill="white"/>
</clipPath>
</defs>
</svg>
