<svg width="151" height="30" viewBox="0 0 151 30" fill="none" xmlns="http://www.w3.org/2000/svg">
<path d="M8.30176 25.2275C8.84522 25.6377 9.50147 25.5044 10.25 24.9609L15.5 21.1055L20.75 24.9609C21.4985 25.5044 22.1548 25.6377 22.6982 25.2275C23.2314 24.8276 23.334 24.1611 23.0469 23.2998L20.9653 17.1372L26.2666 13.333C27.0049 12.8101 27.3228 12.2051 27.1074 11.5693C26.8921 10.9336 26.2974 10.626 25.3848 10.6362L18.894 10.6875L16.915 4.48389C16.6382 3.60205 16.1665 3.12012 15.5 3.12012C14.8335 3.12012 14.3721 3.60205 14.085 4.48389L12.106 10.6875L5.61524 10.6362C4.70264 10.626 4.10791 10.9336 3.89258 11.5591C3.66699 12.2051 3.99512 12.8101 4.7334 13.333L10.0347 17.1372L7.95313 23.2998C7.66602 24.1611 7.76856 24.8276 8.30176 25.2275Z" fill="#DE8BB0"/>
<path d="M38.3018 25.2275C38.8452 25.6377 39.5015 25.5044 40.25 24.9609L45.5 21.1055L50.75 24.9609C51.4985 25.5044 52.1548 25.6377 52.6982 25.2275C53.2314 24.8276 53.334 24.1611 53.0469 23.2998L50.9653 17.1372L56.2666 13.333C57.0049 12.8101 57.3228 12.2051 57.1074 11.5693C56.8921 10.9336 56.2974 10.626 55.3848 10.6362L48.894 10.6875L46.915 4.48389C46.6382 3.60205 46.1665 3.12012 45.5 3.12012C44.8335 3.12012 44.3721 3.60205 44.085 4.48389L42.106 10.6875L35.6152 10.6362C34.7026 10.626 34.1079 10.9336 33.8926 11.5591C33.667 12.2051 33.9951 12.8101 34.7334 13.333L40.0347 17.1372L37.9531 23.2998C37.666 24.1611 37.7686 24.8276 38.3018 25.2275Z" fill="#DE8BB0"/>
<path d="M68.3018 25.2275C68.8452 25.6377 69.5015 25.5044 70.25 24.9609L75.5 21.1055L80.75 24.9609C81.4985 25.5044 82.1548 25.6377 82.6982 25.2275C83.2314 24.8276 83.334 24.1611 83.0469 23.2998L80.9653 17.1372L86.2666 13.333C87.0049 12.8101 87.3228 12.2051 87.1074 11.5693C86.8921 10.9336 86.2974 10.626 85.3848 10.6362L78.894 10.6875L76.915 4.48389C76.6382 3.60205 76.1665 3.12012 75.5 3.12012C74.8335 3.12012 74.3721 3.60205 74.085 4.48389L72.106 10.6875L65.6152 10.6362C64.7026 10.626 64.1079 10.9336 63.8926 11.5591C63.667 12.2051 63.9951 12.8101 64.7334 13.333L70.0347 17.1372L67.9531 23.2998C67.666 24.1611 67.7686 24.8276 68.3018 25.2275Z" fill="#DE8BB0"/>
<path d="M98.3018 25.2275C98.8452 25.6377 99.5015 25.5044 100.25 24.9609L105.5 21.1055L110.75 24.9609C111.499 25.5044 112.155 25.6377 112.698 25.2275C113.231 24.8276 113.334 24.1611 113.047 23.2998L110.965 17.1372L116.267 13.333C117.005 12.8101 117.323 12.2051 117.107 11.5693C116.892 10.9336 116.297 10.626 115.385 10.6362L108.894 10.6875L106.915 4.48389C106.638 3.60205 106.167 3.12012 105.5 3.12012C104.833 3.12012 104.372 3.60205 104.085 4.48389L102.106 10.6875L95.6152 10.6362C94.7026 10.626 94.1079 10.9336 93.8926 11.5591C93.667 12.2051 93.9951 12.8101 94.7334 13.333L100.035 17.1372L97.9531 23.2998C97.666 24.1611 97.7686 24.8276 98.3018 25.2275Z" fill="#DE8BB0"/>
<path d="M128.302 25.2275C128.845 25.6377 129.501 25.5044 130.25 24.9609L135.5 21.1055L140.75 24.9609C141.499 25.5044 142.155 25.6377 142.698 25.2275C143.231 24.8276 143.334 24.1611 143.047 23.2998L140.965 17.1372L146.267 13.333C147.005 12.8101 147.323 12.2051 147.107 11.5693C146.892 10.9336 146.297 10.626 145.385 10.6362L138.894 10.6875L136.915 4.48389C136.638 3.60205 136.167 3.12012 135.5 3.12012C134.833 3.12012 134.372 3.60205 134.085 4.48389L132.106 10.6875L125.615 10.6362C124.703 10.626 124.108 10.9336 123.893 11.5591C123.667 12.2051 123.995 12.8101 124.733 13.333L130.035 17.1372L127.953 23.2998C127.666 24.1611 127.769 24.8276 128.302 25.2275Z" fill="#DE8BB0"/>
</svg>
