<svg width="89" height="16" viewBox="0 0 89 16" fill="none" xmlns="http://www.w3.org/2000/svg">
<g clip-path="url(#clip0_187_1066)">
<path d="M82.8841 5.43285C83.6751 5.36736 84.5331 5.34785 85.3617 5.34785C87.3137 5.34785 88.4782 6.10237 88.4782 8.23472V13.5692H86.8411L86.7598 12.7707H86.7385C86.1772 13.3756 85.3617 13.7288 84.3174 13.7288C82.9342 13.7288 81.8351 12.833 81.8351 11.0577C81.8351 9.40658 83.2119 7.86924 86.6575 8.60049V8.11991C86.6575 7.16855 86.0998 6.90275 85.0008 6.90275C84.3262 6.90275 83.7542 6.94845 82.8841 7.02288V5.43285ZM86.6575 9.8635C85.1977 9.49215 83.7379 9.94839 83.7379 11.0768C83.7379 11.8252 84.2346 12.265 84.9752 12.2321C85.5588 12.2061 86.2014 11.9471 86.6575 11.5432V9.8635ZM80.5628 5.5873L78.7422 5.59884V13.5692H80.5628V5.5873ZM79.6607 4.46146C80.2314 4.46146 80.6941 3.99875 80.6941 3.42801C80.6941 2.85727 80.2314 2.39456 79.6607 2.39456C79.0899 2.39456 78.6272 2.85727 78.6272 3.42801C78.6272 3.99875 79.0899 4.46146 79.6607 4.46146ZM76.991 2.39456L75.1703 2.60564V13.5692H76.991V2.39456ZM67.8383 5.43285C68.6293 5.36736 69.4873 5.34785 70.3159 5.34785C72.2678 5.34785 73.4324 6.10237 73.4324 8.23472V13.5692H71.7953L71.714 12.7707H71.6927C71.1314 13.3756 70.3159 13.7288 69.2716 13.7288C67.8884 13.7288 66.7893 12.833 66.7893 11.0577C66.7893 9.40658 68.1661 7.86924 71.6117 8.60049V8.11991C71.6117 7.16855 71.054 6.90275 69.955 6.90275C69.2804 6.90275 68.7084 6.94845 67.8383 7.02288V5.43285ZM71.6117 9.8635C70.1519 9.49215 68.6921 9.94839 68.6921 11.0768C68.6921 11.8252 69.1888 12.265 69.9294 12.2321C70.513 12.2061 71.1556 11.9471 71.6117 11.5432V9.8635ZM61.9829 5.5873V13.5692H63.8036V9.57544C63.8036 8.57343 64.568 7.46914 66.2333 7.14376V5.46757C65.0898 5.53063 64.1082 6.28412 63.7052 6.87246H63.6888L63.5598 5.5873H61.9829ZM53.2341 9.61914V9.53732C53.2341 6.86983 54.4615 5.34785 56.9981 5.34785C59.5183 5.34785 60.7457 6.86979 60.7457 9.53732V9.61914C60.7457 12.2866 59.5183 13.8086 56.9981 13.8086C54.4615 13.8086 53.2341 12.2867 53.2341 9.61914ZM56.9939 6.8644C55.7048 6.8644 55.1099 7.73905 55.1099 9.56642C55.1099 11.3938 55.7048 12.2522 56.9939 12.2522C58.283 12.2522 58.8614 11.3964 58.8614 9.56642C58.8614 7.73642 58.283 6.8644 56.9939 6.8644ZM48.6306 3.40378V10.9545C48.6306 12.7916 49.1883 13.8086 51.2715 13.8086C51.5566 13.8086 51.9928 13.7672 52.3162 13.6974V12.1954C52.1371 12.2371 51.8921 12.2925 51.5995 12.2925C50.8795 12.2925 50.4513 12.1274 50.4513 10.7342V7.06395H52.3162V5.5873H50.4513V3.19274L48.6306 3.40378ZM43.0791 9.57823C43.0841 7.83435 43.8395 6.90435 45.3433 6.90435C45.9786 6.90435 46.6244 6.98313 47.2106 7.06195V5.58726C46.7292 5.4908 45.9314 5.38771 45.1128 5.38771C42.8701 5.38771 41.183 6.62207 41.1762 9.57819C41.183 12.5343 42.8702 13.7687 45.1128 13.7687C45.9314 13.7687 46.7292 13.6656 47.2106 13.5691V12.0944C46.6244 12.1733 45.9786 12.252 45.3433 12.252C43.8395 12.252 43.0841 11.322 43.0791 9.57815V9.57823ZM32.5073 9.61914V9.53732C32.5073 6.86983 33.7346 5.34785 36.2712 5.34785C38.7915 5.34785 40.0188 6.86979 40.0188 9.53732V9.61914C40.0188 12.2866 38.7915 13.8086 36.2712 13.8086C33.7346 13.8086 32.5073 12.2867 32.5073 9.61914ZM36.267 6.8644C34.9779 6.8644 34.383 7.73905 34.383 9.56642C34.383 11.3938 34.9779 12.2522 36.267 12.2522C37.5561 12.2522 38.1345 11.3964 38.1345 9.56642C38.1345 7.73642 37.5561 6.8644 36.267 6.8644ZM22.8492 13.5692V2.39456H25.6559C29.5668 2.39456 31.3869 3.56909 31.3869 7.98186C31.3869 12.3946 29.5669 13.5692 25.6559 13.5692H22.8492ZM29.2964 7.98186C29.2964 5.46961 28.7865 4.20173 26.0913 4.20173H24.8421V11.762H26.0913C28.7865 11.762 29.2964 10.4941 29.2964 7.98186ZM9.79611 12.9021L12.4304 15.9637L15.0562 14.0559L12.4926 9.81433C11.3348 10.5285 10.1996 11.9128 9.79611 12.9021ZM6.00924 15.9591C8.1738 11.5446 12.308 8.27455 17.2619 7.29877L16.2552 4.1977C10.2449 4.8764 5.13131 8.51908 2.39473 13.6344L6.00924 15.9592V15.9591ZM6.79805 5.43082L1.50228 4.18385L0.5 7.27606L4.17696 8.8283C4.93101 8.06567 5.77377 7.40062 6.70047 6.83235C7.95573 6.06067 9.05132 5.55027 10.9143 4.91132L10.5018 0H7.25493L6.79805 5.43078V5.43082Z" fill="#413614"/>
</g>
<defs>
<clipPath id="clip0_187_1066">
<rect width="88" height="15.9637" fill="white" transform="translate(0.5)"/>
</clipPath>
</defs>
</svg>
