<svg width="20" height="20" viewBox="0 0 20 20" fill="none" xmlns="http://www.w3.org/2000/svg">
<path fill-rule="evenodd" clip-rule="evenodd" d="M3.0001 2.25781C1.39847 2.25781 0.100098 3.55619 0.100098 5.15781V14.842C0.100098 16.4436 1.39847 17.742 3.0001 17.742H17.0001C18.6017 17.742 19.9001 16.4436 19.9001 14.842V5.15781C19.9001 3.55619 18.6017 2.25781 17.0001 2.25781H3.0001ZM2.39448 4.23939C2.56817 4.12463 2.77633 4.05781 3.0001 4.05781H17.0001C17.2239 4.05781 17.4321 4.12465 17.6058 4.23946L10.7691 10.922C10.3416 11.3398 9.65875 11.3398 9.2313 10.922L2.39448 4.23939ZM1.9001 6.2732V14.6423L6.31321 10.5868L1.9001 6.2732ZM7.60229 11.8468L3.14591 15.942H16.8542L12.3979 11.8469L12.0273 12.2092C10.9003 13.3107 9.10004 13.3107 7.9731 12.2092L7.60229 11.8468ZM13.687 10.5869L18.1001 14.6424V6.27338L13.687 10.5869Z" fill="#927B35"/>
</svg>
