<svg width="20" height="20" viewBox="0 0 20 20" fill="none" xmlns="http://www.w3.org/2000/svg">
<path fill-rule="evenodd" clip-rule="evenodd" d="M11.0605 0C12.8325 0.00337123 13.2143 0.0178254 14.1229 0.0593491C15.1874 0.107963 15.9143 0.276992 16.5504 0.524181C17.2081 0.779742 17.7657 1.1217 18.3217 1.67767C18.8777 2.23364 19.2196 2.7914 19.4752 3.44902C19.7225 4.08516 19.8915 4.81213 19.9401 5.87659C19.9797 6.74572 19.9947 7.13274 19.9989 8.71557L19.9997 9.17816C19.9998 9.26062 19.9999 9.34586 20 9.43405V10.5655C19.9999 10.6537 19.9998 10.7389 19.9997 10.8214L19.9989 11.284C19.996 12.3632 19.9882 12.8866 19.9709 13.3858L19.9634 13.5855C19.9568 13.7529 19.9491 13.9255 19.9401 14.123C19.8915 15.1875 19.7225 15.9145 19.4752 16.5506C19.2196 17.2082 18.8777 17.766 18.3217 18.322C17.7657 18.8779 17.2081 19.2199 16.5504 19.4754C15.9143 19.7226 15.1874 19.8917 14.1229 19.9403C13.1748 19.9835 12.8003 19.9974 10.8213 20H9.17808C7.19905 19.9974 6.82462 19.9835 5.8765 19.9403C4.812 19.8917 4.08504 19.7226 3.44899 19.4754C2.79133 19.2199 2.23362 18.8779 1.67765 18.322C1.12169 17.766 0.779734 17.2082 0.524218 16.5506C0.2769 15.9145 0.107871 15.1875 0.0593458 14.123C0.0178598 13.2144 0.00337981 12.8327 0 11.0606V8.93898C0.00337981 7.16693 0.0178598 6.78522 0.0593458 5.87659C0.107871 4.81213 0.2769 4.08516 0.524218 3.44902C0.779734 2.7914 1.12169 2.23364 1.67765 1.67767C2.23362 1.1217 2.79133 0.779742 3.44899 0.524181C4.08504 0.276992 4.812 0.107963 5.8765 0.0593491C6.78512 0.0178254 7.16685 0.00337123 8.9389 0H11.0605ZM10.2868 1.80111H9.71251C9.61992 1.80114 9.53039 1.80119 9.44378 1.80125L8.95784 1.80183C7.21951 1.80491 6.85695 1.81836 5.9586 1.85933C4.98362 1.90382 4.45404 2.0668 4.10165 2.2037C3.63485 2.38513 3.3017 2.60186 2.95177 2.9518C2.60188 3.30178 2.38515 3.63489 2.20372 4.10169C2.06678 4.45409 1.90384 4.98366 1.85931 5.95865C1.81838 6.85701 1.80491 7.21958 1.80181 8.95792L1.80123 9.44386C1.80111 9.61709 1.80105 9.80197 1.80105 9.99977L1.80109 10.2869C1.80112 10.3795 1.80117 10.4691 1.80123 10.5557L1.80181 11.0417C1.80396 12.251 1.81114 12.7945 1.82909 13.3157L1.83633 13.5114C1.84281 13.6756 1.85041 13.8456 1.85931 14.0409C1.90384 15.016 2.06678 15.5455 2.20372 15.8979C2.38515 16.3647 2.60188 16.6978 2.95177 17.0478C3.3017 17.3978 3.63485 17.6145 4.10165 17.7959C4.45404 17.9328 4.98362 18.0958 5.9586 18.1402C6.89585 18.183 7.24982 18.1958 9.19247 18.1981H10.8069C12.102 18.1966 12.691 18.1904 13.2175 18.1737L13.4132 18.167C13.6086 18.1597 13.8064 18.1509 14.0408 18.1402C15.0158 18.0958 15.5453 17.9328 15.8977 17.7959C16.3646 17.6145 16.6977 17.3978 17.0476 17.0478C17.3976 16.6978 17.6143 16.3647 17.7957 15.8979C17.9326 15.5455 18.0956 15.016 18.14 14.0409C18.1828 13.1035 18.1956 12.7495 18.1979 10.8069V9.19262C18.1956 7.25009 18.1828 6.89607 18.14 5.95865C18.0956 4.98366 17.9326 4.45409 17.7957 4.10169C17.6143 3.63489 17.3976 3.30178 17.0476 2.9518C16.6977 2.60186 16.3646 2.38513 15.8977 2.2037C15.5453 2.0668 15.0158 1.90382 14.0408 1.85933C13.1424 1.81836 12.7798 1.80491 11.0415 1.80183L10.5556 1.80125C10.3824 1.80112 10.1975 1.80107 9.99968 1.80107L10.2868 1.80111ZM9.99968 4.86434C12.8359 4.86434 15.1351 7.16361 15.1351 9.99977C15.1351 12.8361 12.8359 15.1352 9.99968 15.1352C7.1635 15.1352 4.8643 12.8361 4.8643 9.99977C4.8643 7.16361 7.1635 4.86434 9.99968 4.86434ZM9.99968 6.66625C8.15864 6.66625 6.66614 8.15872 6.66614 9.99977C6.66614 11.8409 8.15864 13.3333 9.99968 13.3333C11.8408 13.3333 13.3332 11.8409 13.3332 9.99977C13.3332 8.15872 11.8408 6.66625 9.99968 6.66625ZM15.338 3.46134C16.0008 3.46134 16.5381 3.99863 16.5381 4.66143C16.5381 5.32418 16.0008 5.86151 15.338 5.86151C14.6753 5.86151 14.1379 5.32418 14.1379 4.66143C14.1379 3.99863 14.6753 3.46134 15.338 3.46134Z" fill="#927B35"/>
</svg>
