<svg width="20" height="20" viewBox="0 0 20 20" fill="none" xmlns="http://www.w3.org/2000/svg">
<path fill-rule="evenodd" clip-rule="evenodd" d="M4.03234 1.17013C4.5834 0.669172 5.31484 0.399902 6.06252 0.399902H12.9375C13.6852 0.399902 14.4167 0.669172 14.9677 1.17013C15.5215 1.67353 15.85 2.37463 15.85 3.1249V16.8749C15.85 17.6252 15.5215 18.3263 14.9677 18.8297C14.4167 19.3306 13.6852 19.5999 12.9375 19.5999H6.06252C5.31484 19.5999 4.5834 19.3306 4.03234 18.8297C3.4786 18.3263 3.15002 17.6252 3.15002 16.8749V3.1249C3.15002 2.37463 3.4786 1.67354 4.03234 1.17013ZM11.725 2.0999V2.4999C11.725 2.96934 11.3445 3.3499 10.875 3.3499H8.12502C7.65558 3.3499 7.27502 2.96934 7.27502 2.4999V2.0999H6.06252C5.71619 2.0999 5.39842 2.22572 5.17589 2.42803C4.95605 2.62788 4.85002 2.88061 4.85002 3.1249V16.8749C4.85002 17.1192 4.95605 17.3719 5.17589 17.5718C5.39842 17.7741 5.71619 17.8999 6.06252 17.8999H12.9375C13.2839 17.8999 13.6016 17.7741 13.8242 17.5718C14.044 17.3719 14.15 17.1192 14.15 16.8749V3.1249C14.15 2.88061 14.044 2.62788 13.8242 2.42803C13.6016 2.22572 13.2839 2.0999 12.9375 2.0999H11.725ZM7.27502 16.8749C7.27502 16.4055 7.65558 16.0249 8.12502 16.0249H10.875C11.3445 16.0249 11.725 16.4055 11.725 16.8749C11.725 17.3443 11.3445 17.7249 10.875 17.7249H8.12502C7.65558 17.7249 7.27502 17.3443 7.27502 16.8749Z" fill="#927B35"/>
</svg>
