<svg width="20" height="20" viewBox="0 0 20 20" fill="none" xmlns="http://www.w3.org/2000/svg">
<path d="M10.0098 1.66675C5.42151 1.66675 1.68632 5.39873 1.68465 9.98706C1.68382 11.4537 2.06797 12.8855 2.79631 14.1472L1.66675 18.3334L6.0271 17.3031C7.24293 17.9665 8.61163 18.3147 10.005 18.3155H10.0082C14.5957 18.3155 18.3293 14.5827 18.3318 9.9952C18.3335 7.77103 17.4686 5.67986 15.8969 4.10653C14.3252 2.53403 12.2365 1.66758 10.0098 1.66675ZM10.0082 3.33341C11.7882 3.33425 13.461 4.02825 14.7185 5.28491C15.976 6.54324 16.6668 8.21524 16.6651 9.99357C16.6635 13.6636 13.6783 16.6488 10.0066 16.6488C8.89576 16.648 7.79542 16.3691 6.82625 15.8399L6.26473 15.5339L5.64461 15.6804L4.00399 16.0678L4.40438 14.5802L4.58504 13.9128L4.23999 13.3139C3.65832 12.3072 3.35049 11.1562 3.35132 9.98706C3.35299 6.31873 6.33905 3.33341 10.0082 3.33341ZM7.06388 6.14591C6.92472 6.14591 6.6997 6.198 6.50887 6.40633C6.31804 6.61383 5.7797 7.1164 5.7797 8.13973C5.7797 9.16306 6.52515 10.1523 6.62931 10.2914C6.73265 10.4298 8.06821 12.5961 10.1824 13.4294C11.939 14.1219 12.2958 13.9853 12.6775 13.9503C13.0592 13.9161 13.9088 13.4482 14.0821 12.9623C14.2554 12.4765 14.2559 12.0586 14.2042 11.9727C14.1525 11.8861 14.0138 11.8344 13.8054 11.7302C13.5979 11.6261 12.5754 11.1239 12.3845 11.0548C12.1937 10.9856 12.0541 10.9506 11.9158 11.1589C11.7774 11.3673 11.3799 11.8344 11.2582 11.9727C11.1366 12.1119 11.0157 12.1306 10.8074 12.0264C10.599 11.9214 9.9292 11.7013 9.1342 10.9929C8.51586 10.4421 8.09864 9.76245 7.97697 9.55412C7.85614 9.34662 7.96558 9.23265 8.06974 9.12931C8.16308 9.03598 8.27645 8.8864 8.38062 8.76473C8.48395 8.64306 8.51978 8.55638 8.58895 8.41805C8.65812 8.27972 8.62271 8.15763 8.57105 8.05347C8.51938 7.9493 8.11477 6.92216 7.92977 6.5105C7.77394 6.16466 7.60935 6.15663 7.46102 6.1508C7.34019 6.1458 7.20222 6.14591 7.06388 6.14591Z" fill="#927B35"/>
</svg>
