<svg width="1080" height="1080" viewBox="0 0 1080 1080" fill="none" xmlns="http://www.w3.org/2000/svg">
<path d="M738.185 262.706C738.374 262.941 738.518 263.258 738.762 263.392C739.186 263.623 739.765 263.718 739.995 263.2C740.205 262.729 739.758 262.396 739.356 262.162C739.22 262.082 739.072 262.023 738.929 261.955C738.095 261.049 737.249 260.164 735.882 260.166C734.278 259.158 732.537 258.315 731.103 257.107C728.777 255.147 726.289 254.774 723.397 255.354C715.06 257.027 706.606 257.31 698.127 257.446C694.524 257.504 690.871 257.885 687.343 258.617C672.879 261.619 662.044 269.96 653.868 282.007C653.213 282.972 652.865 284.196 652.581 285.35C652.294 286.515 652.291 287.748 652.102 288.942C652.062 289.192 651.752 289.4 651.566 289.627C651.221 289.278 650.596 288.946 650.575 288.578C650.38 285.288 650.57 282.161 652.387 279.122C655.168 274.473 658.478 270.353 662.493 266.749C667.561 262.199 673.242 258.504 679.577 256.175C685.241 254.093 691.312 253.394 697.385 253.256C702.222 253.146 707.06 253.109 711.896 252.966C712.849 252.938 714.024 253.206 714.599 251.992C717.768 252.857 717.949 252.84 721.559 251.186C719.129 250.867 717.116 250.974 715.11 251.26C714.92 251.287 714.796 251.78 714.641 252.056C713.295 250.444 711.385 251.379 710.186 250.911C711.778 250.183 713.904 250.189 716.009 250.039C716.643 249.994 717.423 250.092 717.426 248.852C714.647 247.384 711.679 246.014 708.912 244.315C702.103 240.136 694.764 237.116 687.424 234.061C681.924 231.772 676.189 230.777 670.313 230.14C663.385 229.39 656.474 229.771 649.58 230.22C638.516 230.939 627.622 232.831 616.995 236.056C605.925 239.416 594.953 243.116 583.813 246.216C567.605 250.725 551.137 253.789 534.191 253.28C533.683 253.265 533.5 253.341 533.684 254.023C533.931 254.223 534.258 254.655 534.685 254.806C541.355 257.182 548.009 259.608 554.725 261.848C563.8 264.875 573.107 266.569 582.716 266.693C594.505 266.846 606.208 265.582 617.947 264.905C617.952 265.452 617.958 265.999 617.963 266.546C616.986 266.893 616.027 267.311 615.028 267.576C602.566 270.877 589.868 272.073 577.005 271.842C571.962 271.751 567.007 271.068 562.129 269.85C548.853 266.536 536.151 261.502 523.368 256.73C518.021 254.734 512.745 252.513 507.177 251.231C494.198 248.244 481.367 244.745 468.693 240.664C463.431 238.97 458.206 237.149 452.892 235.637C447.081 233.983 441.192 232.598 435.327 231.133C427.771 229.246 420.205 227.45 412.308 227.992C410.414 228.122 408.501 227.946 406.596 227.955C394.852 228.01 383.62 230.41 372.921 235.287C370.406 236.434 367.848 237.487 365.297 238.551C359.84 240.828 354.83 243.825 350.115 247.41C340.467 254.746 332.835 263.884 326.423 274.027C318.28 286.907 311.19 300.393 305.149 314.379C300.898 324.221 297.366 334.351 295.256 344.922C293.089 355.778 290.897 366.626 289.782 377.657C289.033 385.058 287.941 392.419 287.822 399.884C287.506 419.658 288.6 439.329 291.956 458.836C293.655 468.712 295.144 478.619 298.028 488.275C304.856 511.134 311.943 533.889 321.697 555.716C321.509 557.17 322.197 558.297 323.061 559.357C323.788 559.977 323.885 560.829 323.923 561.702C323.565 561.703 323.207 561.705 322.849 561.706C322.8 561.578 322.774 561.43 322.691 561.328C322.642 561.268 322.503 561.282 322.405 561.262C322.554 561.41 322.703 561.558 322.852 561.706C322.917 565.336 323.814 568.756 325.442 571.992C326.347 576.567 327.409 581.118 328.125 585.722C329.696 595.833 330.213 606.021 330.25 616.256C330.322 635.988 330.329 655.715 331.976 675.416C333.071 688.526 333.995 701.648 335.599 714.707C336.378 721.057 337.29 727.393 338.297 733.71C339.332 740.199 340.419 746.686 341.733 753.123C343.461 761.586 344.832 770.126 347.39 778.415C351.014 790.157 355.308 801.637 360.383 812.822C361.381 815.021 362.435 817.244 363.809 819.214C367.667 824.744 371.625 830.211 375.707 835.578C377.797 838.325 380.121 840.908 382.826 843.114C385.181 845.034 387.827 846.22 390.856 846.39C396.397 846.701 401.941 846.759 407.361 845.312C414.864 843.308 421.698 839.982 426.684 833.867C432.369 826.893 437.575 819.514 442.049 811.719C445.665 805.42 449.202 799.091 453.154 792.99C460.964 780.934 467.175 767.948 474.684 755.714C480.382 746.432 484.974 736.502 491.225 727.542C494.985 722.154 498.556 716.631 502.41 711.312C505.555 706.972 509.128 702.941 512.271 698.6C516.057 693.37 520.48 688.828 525.471 684.748C529.574 681.393 534.269 679.306 539.178 677.58C541.138 676.891 543.184 677.035 545.768 677.189C543.302 680.062 540.726 681.952 537.919 683.602C536.818 684.249 535.395 684.608 534.948 686.196C535.786 686.562 536.567 686.928 537.366 687.248C546.622 690.956 554.933 696.106 561.91 703.296C566.267 707.786 569.938 712.806 573.363 718.022C573.904 718.847 574.445 720.301 575.535 719.837C577.215 719.12 575.892 717.831 575.584 716.779C575.538 716.62 575.541 716.437 575.558 716.269C575.573 716.124 575.612 715.879 575.688 715.86C576.005 715.779 576.465 715.61 576.645 715.756C577.303 716.285 577.963 716.859 578.455 717.538C581.913 722.311 584.769 727.427 587.035 732.871C586.609 733.319 586.183 733.767 585.756 734.215C585.112 733.417 584.357 732.683 583.842 731.809C581.925 728.551 580.101 725.237 578.207 721.965C577.792 721.247 577.267 720.58 576.708 719.967C576.597 719.845 576.003 719.972 575.803 720.163C575.306 720.638 575.343 719.856 575.467 720.533C575.585 721.177 575.762 721.845 576.077 722.412C578.664 727.081 581.096 731.825 583.134 736.761C586.286 744.391 589.054 752.152 591.034 760.179C590.308 760.187 589.583 760.195 588.857 760.202C585.865 753.596 582.754 747.041 579.918 740.369C577.273 734.147 574.227 728.136 570.837 722.309C567.003 715.721 562.768 709.383 557.41 703.898C550.91 697.242 543.239 692.318 534.655 688.796C533.554 688.345 532.377 687.934 531.132 688.295C530.974 688.341 530.821 688.461 530.704 688.583C530.395 688.906 530.372 689.249 530.693 689.41C531.767 689.951 532.842 690.504 533.955 690.957C540.482 693.609 546.092 697.563 550.752 702.835C555.71 708.446 559.775 714.69 562.905 721.463C567.762 731.976 572.332 742.622 577.047 753.201C582.467 765.361 587.873 777.528 593.367 789.655C595.434 794.218 597.506 798.806 599.975 803.156C603.558 809.47 607.297 815.717 611.342 821.743C617.052 830.251 623.893 837.829 631.467 844.749C636.183 849.059 641.705 851.806 647.816 853.365C652.11 854.461 656.422 854.213 660.504 852.328C667.553 849.075 673.473 844.477 677.845 837.936C683.234 829.873 688.256 821.597 692.655 812.958C696.266 805.867 699.63 798.628 701.977 791.024C705.698 778.97 709.264 766.869 711.885 754.5C715.254 738.604 720.132 723.076 723.604 707.19C725.305 699.41 726.532 691.564 728.024 683.758C729.874 674.077 731.377 664.33 733.253 654.655C735.029 645.498 737.098 636.397 739.03 627.269C739.208 626.427 739.459 625.573 739.456 624.725C739.439 620.505 740.741 616.538 741.712 612.509C742.642 608.646 743.691 604.811 744.617 600.947C746.792 591.867 749.207 582.891 752.695 574.176C757.253 562.787 762 551.47 766.055 539.871C770.219 527.959 774.462 516.078 778.351 504.071C782.674 490.728 786.289 477.207 788.92 463.429C789.533 460.224 790.066 457.003 789.985 453.724C789.459 453.724 789.014 453.583 788.81 453.745C785.842 456.101 782.315 457.704 779.762 460.635C778.476 462.112 776.735 462.928 774.685 462.707C774.417 462.678 774.064 462.362 773.97 462.1C773.876 461.839 773.945 461.323 774.135 461.186C775.385 460.283 776.874 459.636 777.933 458.56C780.387 456.068 783.053 453.949 786.217 452.43C787.297 451.911 788.281 451.157 789.228 450.408C789.75 449.995 790.346 449.428 790.49 448.83C790.966 446.854 791.688 444.863 791.063 442.639C787.027 443.289 783.25 444.403 779.579 445.819C774.383 447.822 769.077 447.781 763.721 446.924C761.317 446.54 758.946 445.828 757.206 443.984C750.943 437.347 745.649 430.175 744.639 420.687C744.53 419.667 744.261 418.643 743.926 417.67C742.283 412.907 741.399 407.974 740.539 403.032C740.302 401.67 740.032 400.306 739.667 398.973C739.01 396.579 737.789 394.551 735.734 393.045C733.781 391.612 731.802 390.25 729.698 389.026C724.344 385.913 720.055 381.71 717.491 375.974C715.081 370.581 713.239 364.997 712.747 359.077C712.558 356.799 711.916 354.653 711.337 352.496C710.61 349.789 709.322 347.228 706.876 345.711C701.893 342.618 697.101 339.205 691.55 337.054C686.691 335.172 682.416 332.16 678.153 329.199C676.297 327.909 674.633 326.337 673.389 324.456C667.555 315.642 664.929 306.058 666.53 295.454C666.828 293.482 667.86 292.335 669.571 291.63C670.529 291.235 671.493 290.799 672.498 290.589C675.213 290.021 676.573 288.191 677.342 285.723C677.908 283.908 678.665 282.132 679.027 280.279C679.335 278.697 680.005 277.351 680.764 275.99C683.948 270.282 688.977 266.705 694.765 264.138C703.954 260.063 713.568 258.27 723.615 259.548C727.717 260.069 731.899 260.368 735.688 262.311C736.455 262.85 737.27 263.086 738.185 262.706ZM525.131 693.883C522.635 695.627 521.048 697.92 519.359 700.094C510.017 712.124 501.027 724.415 492.896 737.297C488.652 744.019 484.891 751.045 480.873 757.911C478.604 761.79 476.271 765.631 473.943 769.475C467.225 780.562 461.445 792.213 453.865 802.784C452.559 804.605 451.452 806.58 450.369 808.547C443.886 820.318 435.43 830.565 426.098 840.144C421.796 844.56 416.741 847.699 410.916 849.789C404.532 852.081 398.007 852.421 391.461 851.403C386.215 850.587 381.804 847.584 377.914 844.138C374.56 841.167 371.406 837.875 368.646 834.349C361.601 825.349 355.189 815.962 350.804 805.262C346.47 794.685 342.097 784.108 339.552 772.969C335.084 753.409 331.155 733.75 328.814 713.769C326.94 697.772 325.518 681.743 324.236 665.702C323.546 657.085 323.716 648.399 323.526 639.743C323.227 626.068 323.033 612.39 322.621 598.719C322.47 593.716 321.988 588.71 320.884 583.796C319.594 578.052 319.118 572.177 318.023 566.389C316.433 557.982 313.517 550.068 310.25 542.259C303.837 526.932 298.741 511.151 293.575 495.382C289.68 483.487 287.712 471.199 285.349 458.977C281.014 436.559 280.561 413.917 281.274 391.206C281.377 387.929 282.029 384.673 282.291 381.396C283.396 367.563 285.92 353.945 288.812 340.411C291.019 330.08 294.601 320.129 298.874 310.468C304.69 297.321 311.542 284.702 319.022 272.436C325.577 261.687 333.758 252.353 343.987 244.922C345.941 243.503 347.962 242.111 350.12 241.049C358.489 236.931 366.92 232.938 375.345 228.934C376.746 228.268 378.196 227.668 379.678 227.219C392.535 223.325 405.676 221.424 419.108 222.153C425.504 222.5 431.8 223.761 437.966 225.533C443.119 227.013 448.225 228.654 453.531 229.538C454.722 229.736 455.907 230.044 457.052 230.43C472.29 235.56 487.947 239.27 503.272 244.107C507.399 245.41 511.673 246.209 516 246.508C522.736 246.975 529.476 247.442 536.222 247.693C544.375 247.997 552.442 247.158 560.501 245.816C569.217 244.364 577.759 242.266 586.266 239.961C587.935 239.509 589.636 239.125 591.244 238.504C599.641 235.261 608.395 233.165 616.948 230.425C619.247 229.688 621.644 229.251 624.002 228.705C634.137 226.354 644.396 224.926 654.78 224.175C662.615 223.609 670.372 224.171 678.069 225.301C683.546 226.106 688.711 228.296 693.8 230.485C700.317 233.289 706.694 236.363 712.707 240.179C716.495 242.582 720.552 244.522 724.357 246.941C729.771 250.382 734.92 254.181 740.065 257.972C743.949 260.833 747.569 264.121 750.979 267.545C760.468 277.075 767.833 288.168 773.708 300.202C776.661 306.25 779.226 312.527 781.445 318.883C784.745 328.337 788.437 337.673 790.695 347.474C793.183 358.269 795.279 369.129 796.513 380.143C798.559 398.413 799.302 416.753 798.75 435.116C798.361 448.098 796.867 460.978 794.08 473.713C790.188 491.492 784.651 508.769 778.705 525.929C773.327 541.451 767.652 556.863 761.314 572.026C759.515 576.33 757.952 580.733 756.337 585.112C754.06 591.288 752.697 597.727 751.022 604.074C749.74 608.934 748.382 613.742 746.064 618.24C743.399 623.41 742.515 629.129 741.855 634.759C740.966 642.337 739.36 649.77 738.167 657.283C736.105 670.267 734.095 683.259 732.015 696.24C731.551 699.141 730.908 702.015 730.318 704.895C729.244 710.143 728.158 715.39 727.054 720.633C726.662 722.495 726.325 724.381 725.76 726.194C722.255 737.435 719.871 748.945 717.326 760.423C714.778 771.911 711.66 783.275 707.696 794.343C703.436 806.241 697.844 817.587 691.286 828.404C688.151 833.575 685.117 838.832 681.407 843.642C676.195 850.4 669.869 855.526 661.396 857.634C650.634 860.311 640.855 857.902 631.747 851.991C630.298 851.05 628.884 850.03 627.571 848.909C618.836 841.452 611.226 832.995 604.739 823.496C597.108 812.323 590.772 800.441 584.862 788.301C579.408 777.099 574.541 765.645 569.787 754.135C567.016 747.425 564.057 740.792 561.151 734.138C557.58 725.965 552.316 718.9 546.638 712.111C545.307 710.521 543.999 708.911 542.639 707.347C537.699 701.665 531.731 697.342 525.131 693.883Z" fill="#937B34"/>
<path d="M321.697 555.716C324.151 555.56 325.303 557.22 326.311 559.052C329.302 564.489 331.96 570.088 334.321 575.823C335.695 579.161 336.927 582.558 338.196 585.938C338.498 586.744 338.699 587.589 338.258 588.454C336.931 587.966 336.886 586.646 336.464 585.61C333.282 577.801 329.889 570.091 326.066 562.57C325.352 561.167 324.685 559.85 323.061 559.357C322.197 558.297 321.509 557.17 321.697 555.716Z" fill="#937B34"/>
<path d="M323.923 561.702C326.158 564.218 326.789 567.492 327.936 570.496C328.577 572.174 327.351 571.931 326.269 571.529C326.077 571.458 325.722 571.827 325.442 571.992C323.814 568.756 322.917 565.336 322.852 561.706H322.85C323.207 561.705 323.565 561.703 323.923 561.702Z" fill="#937B34"/>
<path d="M591.034 760.179C592.474 762.365 592.814 764.765 592.413 767.448C590.284 765.417 589.349 762.921 588.857 760.203C589.583 760.195 590.308 760.187 591.034 760.179Z" fill="#937B34"/>
<path d="M617.947 264.906C620.696 263.88 623.638 264.291 625.825 264.026C623.69 264.894 621.15 266.709 617.963 266.547C617.958 266 617.952 265.453 617.947 264.906Z" fill="#937B34"/>
<path d="M587.035 732.872C588.236 733.887 588.554 735.265 588.766 737.188C587.144 736.496 586.285 735.542 585.756 734.214C586.182 733.767 586.609 733.32 587.035 732.872Z" fill="#937B34"/>
<path d="M735.688 262.311C736.261 261.642 736.324 260.927 735.882 260.166C737.248 260.164 738.094 261.049 738.928 261.955C738.679 262.205 738.431 262.456 738.182 262.706C737.269 263.086 736.455 262.85 735.688 262.311Z" fill="#937B34"/>
<path d="M738.929 261.955C739.072 262.023 739.22 262.083 739.356 262.162C739.757 262.397 740.205 262.73 739.995 263.2C739.765 263.718 739.186 263.623 738.762 263.392C738.518 263.259 738.374 262.941 738.184 262.706C738.432 262.456 738.68 262.205 738.929 261.955Z" fill="#937B34"/>
<path d="M322.852 561.707C322.703 561.559 322.554 561.411 322.406 561.263C322.504 561.282 322.643 561.269 322.691 561.329C322.774 561.43 322.8 561.578 322.85 561.707H322.852Z" fill="#937B34"/>
<path d="M451.142 419.681C450.836 422.6 450.717 425.555 450.184 428.432C449.112 434.209 446.021 439.048 442.249 443.371C438.973 447.124 434.562 448.47 429.605 447.883C428.576 447.761 427.56 447.537 426.536 447.367C423.13 446.799 420.401 445.116 418.38 442.328C414.737 437.304 412.829 431.608 412.276 425.492C411.899 421.335 412.35 417.141 413.382 413.129C415.747 403.931 421.446 397.158 429.685 392.634C434.453 390.016 439.575 391.279 443.162 395.604C448.943 402.573 451.375 410.677 451.142 419.681Z" fill="#937B34"/>
<path d="M627.62 427.203C627.472 422.514 628.182 417.922 629.461 413.426C630.474 409.869 632.297 406.794 635.158 404.364C637.987 401.96 641.285 401.063 644.797 401.911C647.451 402.551 650.019 403.703 652.489 404.907C654.705 405.988 656.227 407.907 657.392 410.1C660.35 415.67 662.258 421.563 662.387 427.884C662.498 433.318 661.283 438.584 658.619 443.317C655.849 448.236 651.268 450.983 645.874 452.32C644.749 452.599 643.373 452.62 642.3 452.236C635.833 449.923 630.618 446.304 629.231 438.94C628.752 436.398 628.067 433.892 627.658 431.34C627.442 429.994 627.62 428.584 627.62 427.203Z" fill="#937B34"/>
<path d="M537.525 477.102C527.541 477.15 520.4 478.026 513.812 481.61C511.507 482.865 509.566 484.574 507.623 486.289C506.102 487.631 504.456 488.504 502.451 487.495C500.7 486.614 499.869 483.917 500.794 481.481C502.092 478.068 504.132 475.042 506.422 472.213C510.54 467.126 515.684 463.442 521.854 461.226C524.127 460.409 526.414 459.625 528.706 458.861C535.283 456.67 541.694 457.459 547.905 460.186C550.588 461.363 553.158 462.823 555.695 464.3C559.665 466.61 562.823 469.814 564.971 473.862C566.829 477.363 568.396 481.017 570.071 484.613C570.288 485.079 570.431 485.591 570.529 486.098C570.74 487.183 570.507 488.188 569.635 488.903C568.793 489.592 567.803 489.926 566.751 489.36C564.017 487.889 561.282 486.42 558.581 484.891C556.632 483.787 554.784 482.503 552.811 481.448C547.218 478.458 541.31 476.708 537.525 477.102Z" fill="#937B34"/>
<path d="M549.353 283.095C548.682 283.052 548.01 283.008 547.339 282.965C545.751 281.729 543.945 281.909 542.127 282.162C541.44 282.091 540.753 282.021 540.065 281.95C538.857 280.638 537.352 280.893 535.847 281.15C534.828 281.019 533.809 280.887 532.789 280.755C531.927 279.697 530.808 279.828 529.663 280.08C519.497 278.703 509.784 275.697 500.195 272.135C489.674 268.227 479.279 263.948 468.418 260.996C454.154 257.118 439.699 254.633 424.859 255.337C407.726 256.15 391.275 259.693 376.19 268.253C370.017 271.757 364.17 275.624 359.2 280.877C355.278 285.022 351.24 289.027 347.878 293.655C347.122 293.46 346.757 292.884 346.484 292.219C347.169 291.026 347.758 289.765 348.554 288.651C358.192 275.142 370.275 264.629 385.819 258.385C401.774 251.975 418.39 249.225 435.51 250.052C452.369 250.866 468.623 254.745 484.354 260.861C495.123 265.048 505.673 269.799 516.662 273.423C524.217 275.914 531.961 277.622 539.763 279.113C542.98 279.728 546.167 280.499 549.369 281.199C549.363 281.831 549.358 282.463 549.353 283.095Z" fill="#937B34"/>
<path d="M723.396 666.043C722.485 665.247 722.73 664.166 722.684 663.186C722.44 657.974 722.955 652.825 723.831 647.686C725.835 635.927 727.565 624.126 729.966 612.43C734.223 591.687 740.982 571.762 749.173 552.296C750.978 548.008 753.31 543.937 755.496 539.817C756.302 538.298 757.376 536.91 758.867 535.95C759.492 535.547 760.274 535.536 760.842 535.911C761.406 536.283 761.727 536.996 761.54 537.732C761.372 538.394 761.139 539.052 760.839 539.665C755.593 550.405 751.891 561.743 747.905 572.972C746.865 575.902 745.882 578.853 744.856 581.789C741.136 592.428 738.977 603.47 736.52 614.429C733.57 627.581 730.859 640.787 727.88 653.932C726.929 658.129 725.553 662.243 723.396 666.043Z" fill="#937B34"/>
<path d="M320.874 465.969C321.028 465.676 321.377 465.326 321.309 465.1C318.825 456.808 318.27 448.145 316.415 439.739C313.769 427.75 312.99 415.546 311.914 403.372C311.899 403.208 311.98 403.035 312.017 402.867C312.472 402.828 312.928 402.789 313.383 402.75C314.113 406.831 315.14 410.884 315.514 414.997C316.36 424.309 318.145 433.45 320.006 442.585C321.59 450.362 322.575 458.268 324.909 465.884C328.601 477.929 332.327 489.964 336.063 501.996C341.469 519.406 349.566 535.587 358.818 551.209C362.11 556.769 364.863 562.43 365.724 568.919C366.085 571.648 366.892 574.316 367.414 577.027C368.709 583.757 368.018 590.434 366.804 597.094C366.432 599.133 365.947 601.172 365.816 603.231C365.258 612.073 363.326 620.657 361.126 629.197C360.872 629.119 360.619 629.125 360.369 629.215C359.609 623.277 361.21 617.529 361.737 611.693C362.403 604.3 363.473 596.963 364.536 589.627C365.347 584.033 364.632 578.618 363.316 573.209C362.908 571.532 362.663 569.817 362.333 568.122C361.638 564.544 360.576 561.125 358.797 557.888C354.972 550.926 351.251 543.904 347.61 536.843C340.394 522.846 334.43 508.345 330.002 493.209C327.433 484.428 324.554 475.739 321.841 467C321.672 466.454 321.417 466.124 320.892 465.975L320.874 465.969Z" fill="#937B34"/>
<path d="M585.223 639.3C582.358 642.287 579.722 643.819 576.912 645.174C568.519 649.221 560.067 653.152 551.928 657.711C537.764 665.645 525.561 675.972 514.717 687.99C507.866 695.582 501.925 703.84 496.474 712.472C495.742 713.632 494.889 714.73 493.978 715.756C493.537 716.253 492.825 716.53 492.139 716.002C491.558 715.554 491.16 714.941 491.369 714.223C491.655 713.238 492.014 712.251 492.498 711.35C495.522 705.719 498.686 700.162 502.438 694.982C511.52 682.444 522.333 671.586 534.559 662.102C544.053 654.737 554.612 649.312 565.661 644.754C568.85 643.438 572.051 642.149 575.266 640.896C578.153 639.771 581.126 639.083 585.223 639.3Z" fill="#937B34"/>
<path d="M639.337 369.763C645.33 370.086 650.85 372.033 656.011 374.92C663.568 379.146 670.528 384.264 677.133 389.851C678.436 390.953 679.602 392.274 680.608 393.657C681.673 395.12 681.416 396.818 680.269 397.903C679.164 398.947 677.461 398.991 675.992 397.983C675.566 397.691 675.173 397.346 674.792 396.998C664.778 387.858 652.865 382.823 639.6 380.713C637.032 380.304 634.49 379.841 632.259 378.372C629.651 376.656 629.544 373.974 632.019 371.979C633.417 370.852 637.159 369.701 639.337 369.763Z" fill="#937B34"/>
<path d="M398.788 391.474C398.583 390.086 399.332 388.903 400.081 387.745C401.5 385.552 403.271 383.656 405.332 382.069C410.669 377.959 416.27 374.21 422.336 371.29C428.124 368.505 434.401 367.26 440.761 366.538C442.816 366.304 444.891 366.202 446.959 366.144C447.982 366.115 449.059 366.162 450.028 366.454C453.197 367.41 454.079 371.186 451.705 373.478C450.438 374.701 448.887 375.484 447.177 375.853C443.977 376.543 440.775 377.249 437.544 377.763C434.139 378.303 430.696 378.597 427.277 379.049C418.41 380.222 410.99 384.385 404.381 390.203C403.347 391.114 402.373 392.106 401.261 392.909C400.755 393.273 399.903 393.526 399.349 393.361C398.631 393.146 398.8 392.243 398.788 391.474Z" fill="#937B34"/>
<path d="M357.183 674.128C357.992 677.157 358.179 680.262 358.236 683.373C358.296 686.657 358.371 689.947 358.245 693.228C357.898 702.245 358.848 711.175 359.804 720.115C362.078 741.392 367.891 761.729 375.987 781.461C377.431 784.98 379.23 788.312 381.585 791.349C383.595 793.94 385.477 796.642 387.253 799.399C391.817 806.48 398.047 811.43 405.919 814.357C405.186 815.585 403.884 814.898 402.892 815.254C396.675 813.193 391.524 809.544 387.429 804.491C384.716 801.144 382.212 797.622 379.73 794.097C377.542 790.988 375.837 787.62 374.437 784.06C370.91 775.086 367.105 766.237 364.062 757.056C360.89 747.486 359.136 737.724 357.949 727.775C355.877 710.413 356.011 692.99 356.197 675.56C356.203 675.045 356.301 674.531 356.356 674.017L356.767 674.212L357.183 674.128Z" fill="#937B34"/>
<path d="M712.29 709.34C711.28 715.288 710.294 721.241 709.255 727.184C707.796 735.525 705.597 743.672 702.811 751.667C702.132 753.616 701.453 755.6 701.109 757.625C699.769 765.498 696.993 772.937 694.377 780.425C693.87 781.878 693.127 783.274 692.322 784.592C689.622 789.006 687.041 793.466 684.753 798.123C682.376 802.961 678.98 807.102 674.638 810.422C670.532 813.561 666.68 816.991 662.248 819.758C658.953 821.815 655.64 822.609 651.945 822.389C649.182 822.224 646.453 821.793 643.959 820.456C644.016 819.846 644.074 819.235 644.132 818.624C647.639 819.579 651.141 820.533 654.846 819.973C656.572 819.712 658.207 819.332 659.654 818.242C660.889 817.311 662.331 816.652 663.554 815.708C669.285 811.287 675.387 807.263 679.661 801.232C680.755 799.689 681.705 798.039 682.662 796.404C685.102 792.235 687.456 788.013 689.955 783.878C691.033 782.094 692.07 780.301 692.67 778.315C694.814 771.221 697.434 764.261 698.715 756.918C698.98 755.396 699.352 753.855 699.941 752.433C702.664 745.866 704.084 738.92 705.858 732.087C706.939 727.926 707.525 723.627 708.161 719.363C708.673 715.928 709.65 712.632 710.649 709.33C711.196 709.333 711.743 709.337 712.29 709.34Z" fill="#937B34"/>
<path d="M710.441 397.531C705.712 394.022 703.861 388.807 702.206 383.504C701.746 382.028 701.404 380.474 701.301 378.937C700.899 372.973 698.635 367.536 696.683 362.007C695.546 358.786 693.429 356.515 690.468 354.704C681.628 349.296 672.897 343.705 664.187 338.086C660.996 336.027 657.668 334.019 654.957 331.41C649.498 326.156 646.295 319.903 648.436 311.765C649.825 313.358 650.043 315.033 650.273 316.772C651.069 322.798 654.095 327.358 659.37 330.486C667.396 335.246 675.204 340.352 682.888 345.648C685.021 347.118 687.185 348.565 689.442 349.831C694.183 352.49 697.519 356.201 699.017 361.519C700.703 367.501 702.627 373.417 704.229 379.419C705.842 385.462 707.813 391.309 711.543 396.422C711.175 396.791 710.808 397.161 710.441 397.531Z" fill="#937B34"/>
<path d="M776.981 452.601C774.436 454.055 771.924 455.427 768.873 455.768C757.668 457.021 749.947 451.741 744.391 442.694C741.407 437.836 739.472 432.485 738.131 426.882C736.928 421.855 735.978 416.769 734.466 411.799C733.137 407.428 731.225 403.464 728.548 399.806C726.646 397.208 724.829 394.547 722.975 391.916C724.084 391.088 724.837 391.708 725.528 392.127C729.147 394.326 731.91 397.392 734.119 400.956C736.136 404.209 737.53 407.754 738.458 411.452C739.593 415.97 740.598 420.521 741.598 425.071C742.791 430.495 744.547 435.719 747.142 440.63C748.94 444.032 751.389 446.931 754.522 449.201C760.15 453.28 766.396 453.385 772.846 451.934C774.187 451.632 775.479 451.109 776.793 450.687C776.856 451.325 776.918 451.963 776.981 452.601Z" fill="#937B34"/>
<path d="M720.684 620.53C721.509 613.049 722.409 605.483 724.52 598.154C727.005 589.527 729.731 580.97 732.415 572.402C732.929 570.762 733.66 569.175 734.438 567.638C734.81 566.902 735.458 566.254 736.114 565.734C736.431 565.482 737.092 565.487 737.53 565.611C737.999 565.744 738.491 566.121 738.426 566.734C738.336 567.581 738.227 568.438 738.011 569.26C735.195 579.949 732.323 590.624 729.545 601.324C728.287 606.17 727.226 611.067 726.034 615.931C725.295 618.951 724.601 622 722.821 624.635C722.648 624.891 722.297 625.171 722.02 625.181C721.461 625.201 721.107 624.799 721.044 624.242C720.908 623.042 720.808 621.837 720.684 620.53Z" fill="#937B34"/>
<path d="M483.692 722.651C484.196 724.646 482.785 725.898 481.812 727.266C478.905 731.354 475.771 735.289 472.998 739.464C465.631 750.557 458.438 761.766 451.115 772.889C445.219 781.844 439.455 790.896 432.735 799.279C430.029 802.655 427.329 806.036 424.536 809.338C423.656 810.379 422.523 811.227 421.413 812.037C421.095 812.269 420.325 812.244 419.991 812.009C419.502 811.666 419.834 811.179 420.22 810.801C427.679 803.495 433.574 794.923 439.585 786.477C450.216 771.539 459.886 755.958 469.675 740.462C473.753 734.007 478.308 727.93 483.802 722.594L483.692 722.651Z" fill="#937B34"/>
<path d="M541.741 650.223C541.579 652.652 539.813 653.816 538.274 655.117C533.798 658.901 529.292 662.651 524.815 666.436C518.486 671.788 512.58 677.596 506.629 683.357C505.523 684.427 504.291 685.372 503.068 686.311C502.904 686.438 502.378 686.282 502.158 686.095C501.942 685.911 501.721 685.432 501.816 685.235C502.26 684.321 502.736 683.402 503.34 682.589C507.26 677.315 511.679 672.477 516.4 667.916C522.357 662.161 528.357 656.453 535.461 652.076C537.37 650.9 539.246 649.649 541.741 650.223Z" fill="#937B34"/>
<path d="M676.199 235.391C670.505 235.368 664.809 235.428 659.117 235.305C645.744 235.015 632.632 236.732 619.727 240.18C618.898 240.401 618.04 240.517 617.193 240.668C616.537 240.785 615.878 240.881 615.137 241C615.17 239.178 616.666 239.109 617.597 238.779C624.588 236.301 631.752 234.495 639.069 233.215C649.711 231.354 660.41 231.956 671.079 232.417C675.511 232.609 679.894 233.91 684.299 234.707C683.399 235.339 682.378 235.338 681.334 235.329C679.622 235.315 677.911 235.367 676.199 235.391Z" fill="#937B34"/>
<path d="M644.133 818.624C644.075 819.235 644.018 819.846 643.96 820.457C640.953 819.958 638.453 818.368 636.302 816.39C632.086 812.512 628.447 808.172 625.796 802.991C622.547 796.642 620.395 789.896 618.184 783.177C616.297 777.444 614.772 771.592 613.134 765.779C612.487 763.482 611.673 761.21 611.846 758.974C615.559 767.26 618.146 776.203 621.069 785.03C622.426 789.126 623.853 793.206 625.452 797.212C626.732 800.419 628.36 803.469 630.397 806.298C634.084 811.418 638.353 815.853 644.133 818.624Z" fill="#937B34"/>
<path d="M604.998 741.06C602.985 737.53 600.922 734.322 599.678 730.722C598.822 728.244 597.612 725.987 596.213 723.798C593.98 720.302 591.859 716.732 589.536 713.297C587.016 709.571 584.304 705.976 580.999 702.881C578.213 700.271 575.702 697.412 573.422 694.356C572.808 693.532 572.352 692.591 571.819 691.706C571.601 691.345 571.665 691.007 572.09 690.878C572.382 690.789 572.832 690.766 573.038 690.931C573.842 691.575 574.631 692.255 575.329 693.012C578.263 696.189 581.145 699.414 584.078 702.592C586.903 705.652 589.471 708.899 591.59 712.493C592.38 713.833 593.083 715.249 594.036 716.465C599.687 723.68 602.452 732.165 604.998 741.06Z" fill="#937B34"/>
<path d="M548.183 289.307C547.949 289.076 547.728 288.657 547.481 288.641C539.169 288.108 531.086 286.22 522.97 284.531C520.775 284.074 518.578 283.621 516.401 283.087C515.971 282.981 515.631 282.508 514.58 281.671C516.374 281.826 517.43 281.89 518.479 282.016C519.68 282.161 520.878 282.34 522.071 282.542C529.726 283.844 537.39 285.102 545.031 286.486C549.312 287.261 553.63 287.348 557.948 287.549C560.489 287.667 563.031 287.765 565.612 287.873C565.598 287.903 565.629 287.837 565.66 287.771C565.605 287.841 565.559 287.963 565.496 287.973C560.364 288.734 555.225 289.278 550.023 288.708C549.408 288.641 548.74 289.049 548.097 289.236L548.183 289.307Z" fill="#937B34"/>
<path d="M321.743 352.674C320.3 349.487 321.339 346.276 322.161 343.242C325.404 331.268 329.249 319.482 335.425 308.613C335.935 307.715 336.466 306.825 337.037 305.964C337.703 304.959 338.761 304.479 339.02 305.005C339.411 305.798 338.821 306.304 338.509 306.843C332.333 317.499 328.25 329.02 324.627 340.713C323.415 344.622 322.69 348.683 321.743 352.674Z" fill="#937B34"/>
<path d="M320.893 465.974C320.153 466.275 319.894 466.816 320.066 467.59C320.587 469.939 321.15 472.28 321.6 474.642C321.854 475.978 322.175 477.337 321.756 478.719C321.633 479.125 321.441 479.356 321.034 479.293C320.716 479.244 320.292 479.232 320.118 479.029C319.799 478.656 319.511 478.179 319.417 477.704C317.806 469.62 315.597 461.643 315.021 453.374C314.987 452.881 315.132 452.371 315.24 451.878C315.262 451.778 315.482 451.685 315.624 451.656C315.768 451.627 316.043 451.642 316.066 451.707C316.64 453.314 317.291 454.902 317.717 456.549C318.49 459.536 319.137 462.557 319.814 465.568C319.979 466.3 320.407 466.137 320.874 465.968C320.875 465.968 320.893 465.974 320.893 465.974Z" fill="#937B34"/>
<path d="M709.415 366.79C711.699 369.129 712.482 371.206 713.028 373.323C714.368 378.511 715.877 383.595 719.529 387.73C719.635 387.85 719.725 388.054 719.704 388.202C719.66 388.507 719.623 388.921 719.421 389.067C719.207 389.221 718.696 389.255 718.504 389.103C716.898 387.831 715.082 386.674 714.113 384.845C711.279 379.493 709.234 373.891 709.415 366.79Z" fill="#937B34"/>
<path d="M716.897 602.905C715.94 597.001 717.043 592.007 718.767 587.093C718.931 586.625 719.252 586.198 719.561 585.798C720.231 584.932 721.705 585.129 722.123 586.133C722.319 586.605 722.626 587.114 722.591 587.584C722.187 592.944 721.503 598.22 716.897 602.905Z" fill="#937B34"/>
<path d="M518.053 657.749C516.07 660.794 513.878 663.121 511.445 665.264C508.213 668.109 505.102 671.09 501.93 674.002C501.562 674.341 501.091 674.741 500.601 674.346C499.989 673.854 500.017 673.152 500.354 672.486C500.586 672.028 500.808 671.541 501.142 671.162C505.491 666.225 510.279 661.795 516.002 658.469C516.538 658.157 517.189 658.045 518.053 657.749Z" fill="#937B34"/>
<path d="M762.098 465.35C756.554 464.304 751.129 462.514 747.137 458.137C744.861 455.642 743.279 452.514 741.399 449.661C741.335 449.563 741.392 449.25 741.471 449.216C741.742 449.097 742.177 448.899 742.319 449.014C742.984 449.555 743.623 450.147 744.176 450.802C745.291 452.121 746.413 453.444 747.41 454.853C751.565 460.726 757.357 463.099 764.376 462.946C764.889 462.935 765.423 462.997 765.91 463.147C766.138 463.217 766.449 463.602 766.418 463.796C766.373 464.081 766.098 464.487 765.845 464.554C764.685 464.859 763.499 465.064 762.098 465.35Z" fill="#937B34"/>
<path d="M728.777 421.523C730.546 425.487 731.93 429.528 732.123 433.945C732.281 437.565 734.336 440.399 736.55 443.093C736.259 444.129 735.389 444.113 734.567 444.185C731.039 441.099 729.139 437.225 729.005 432.53C728.951 430.642 728.708 428.799 728.327 426.944C727.954 425.133 727.448 423.248 728.437 421.434L728.777 421.523Z" fill="#937B34"/>
<path d="M545.832 645.521C545.009 645.602 544.365 644.765 544.525 644.453C544.68 644.152 544.8 643.789 545.044 643.583C548.612 640.575 552.642 638.331 556.914 636.502C557.217 636.373 557.601 636.342 557.929 636.39C558.219 636.432 558.645 636.591 558.718 636.8C558.805 637.047 558.661 637.474 558.472 637.703C557.016 639.469 554.962 640.443 553.078 641.62C551.042 642.893 548.916 644.023 546.811 645.183C546.383 645.418 545.875 645.507 545.832 645.521Z" fill="#937B34"/>
<path d="M672.343 239.659C667.05 239.958 662.619 240.135 658.257 238.884C657.859 238.77 657.755 238.517 657.75 238.101C657.746 237.733 657.86 237.53 658.315 237.486C662.883 237.038 667.32 237.439 672.343 239.659Z" fill="#937B34"/>
<path d="M653.179 302.532C653.132 302.782 652.964 303.972 652.67 305.129C652.392 306.228 651.355 306.984 650.894 306.575C650.218 305.974 650.708 305.359 650.795 304.766C651.047 303.036 650.952 301.336 650.619 299.623C650.389 298.444 650.268 297.237 650.195 296.037C650.168 295.607 650.116 295.036 650.821 294.86C651.486 294.694 651.863 295.096 652.041 295.523C652.848 297.452 653.239 299.478 653.179 302.532Z" fill="#937B34"/>
<path d="M548.097 289.237C548.273 289.696 548.369 290.184 549.03 290.241C550.908 290.403 552.784 290.59 554.653 290.828C554.851 290.853 555.168 291.31 555.129 291.505C555.076 291.762 554.759 292.094 554.497 292.16C551.787 292.842 549.046 292.742 546.317 292.32C544.407 292.025 543.223 291.135 543.748 290.537C544.585 289.586 545.647 290.163 546.607 290.129C547.299 290.104 547.959 290.167 548.189 289.312C548.183 289.308 548.097 289.237 548.097 289.237Z" fill="#937B34"/>
<path d="M341.328 586.357C339.429 583.289 337.607 577.873 336.588 572.259C339.185 576.168 341.235 582.265 341.328 586.357Z" fill="#937B34"/>
<path d="M728.778 421.523L728.438 421.434C728.12 421.058 727.617 420.727 727.514 420.299C726.59 416.452 725.457 412.726 722.571 409.797C722.224 409.445 722.165 408.812 722.704 408.511C722.878 408.414 723.4 408.68 723.592 408.917C725.879 411.756 727.146 415.092 728.149 418.541C728.433 419.514 728.572 420.528 728.778 421.523Z" fill="#937B34"/>
<path d="M716.754 639.155C716.834 637.702 717.337 635.704 718.204 633.829C718.463 633.268 719.093 632.78 719.916 633.09C720.675 633.376 721.015 633.971 720.874 634.691C720.442 636.882 719.889 639.047 718.616 640.933C718.338 641.344 717.92 641.733 717.326 641.524C716.744 641.32 716.806 640.771 716.757 640.298C716.739 640.128 716.754 639.955 716.754 639.155Z" fill="#937B34"/>
<path d="M357.183 674.128L356.767 674.212L356.356 674.017C356.28 669.703 356.504 665.453 358.97 661.675C359.061 661.535 359.114 661.354 359.136 661.185C359.203 660.679 359.3 660.146 358.754 659.819C358.676 659.772 358.445 659.831 358.398 659.909C358.229 660.188 357.951 660.523 357.994 660.791C358.609 664.603 358.004 668.386 357.748 672.174C357.703 672.835 357.378 673.477 357.183 674.128Z" fill="#937B34"/>
<path d="M710.441 397.531C710.808 397.161 711.175 396.791 711.543 396.422C712.983 397.172 713.695 398.568 714.439 399.876C715.037 400.928 715.815 401.779 716.581 402.685C717.32 403.559 719.141 403.898 718.365 405.69C717.057 405.49 716.121 404.562 715.769 403.51C714.828 400.701 711.691 399.975 710.441 397.531Z" fill="#937B34"/>
<path d="M402.893 815.254C403.885 814.898 405.187 815.586 405.92 814.357C408.497 814.034 410.811 815.212 413.289 815.596C409.733 817.342 406.286 817.02 402.893 815.254Z" fill="#937B34"/>
<path d="M712.291 709.34C711.744 709.337 711.197 709.333 710.65 709.33C710.831 706.273 711.312 703.299 713.189 700.213C713.89 703.653 713.249 706.51 712.291 709.34Z" fill="#937B34"/>
<path d="M595.896 773.609C596.224 773.657 596.691 773.583 596.856 773.773C598.216 775.339 599.455 776.994 599.511 779.194C599.518 779.466 599.255 779.77 599.055 780.009C598.98 780.099 598.653 780.122 598.572 780.043C596.95 778.456 595.774 776.599 595.337 774.347C595.298 774.145 595.699 773.857 595.896 773.609Z" fill="#937B34"/>
<path d="M317.658 373.061C317.911 369.565 317.357 366.404 319.019 362.845C320.184 368.293 319.955 370.013 317.658 373.061Z" fill="#937B34"/>
<path d="M311.833 435.87C312.458 438.326 312.887 439.773 313.175 441.246C313.313 441.951 312.949 442.645 312.148 442.655C311.807 442.659 311.266 442.178 311.147 441.81C310.618 440.171 310.781 438.55 311.833 435.87Z" fill="#937B34"/>
<path d="M482.827 732.025C482.975 732.291 483.319 732.66 483.242 732.807C482.058 735.057 480.367 736.878 478.281 738.896C478.693 735.615 479.161 734.974 482.904 732.157L482.827 732.025Z" fill="#937B34"/>
<path d="M776.981 452.601C776.918 451.963 776.856 451.325 776.793 450.687C778.051 449.533 779.521 448.859 781.303 448.546C780.365 450.988 780.376 451.003 776.981 452.601Z" fill="#937B34"/>
<path d="M346.485 292.219C346.758 292.884 347.123 293.459 347.88 293.655C346.053 296.557 344.611 297.727 344.365 296.763C343.915 294.995 345.077 293.732 346.052 292.456C346.143 292.336 346.338 292.296 346.485 292.219Z" fill="#937B34"/>
<path d="M676.197 235.39C677.909 235.366 679.62 235.314 681.332 235.328C682.376 235.337 683.397 235.338 684.297 234.706C685.301 234.74 686.164 235.017 686.644 236.034C685.553 236.908 684.342 236.479 683.231 236.406C680.866 236.251 678.461 236.277 676.197 235.39Z" fill="#937B34"/>
<path d="M734.568 444.185C735.39 444.113 736.26 444.129 736.551 443.093C737.388 443.645 738.278 444.136 739.037 444.78C739.324 445.024 739.31 445.623 739.433 446.06C739.12 446.134 738.716 446.371 738.507 446.256C737.208 445.538 735.428 445.723 734.568 444.185Z" fill="#937B34"/>
<path d="M717.737 683.904C717.661 684.229 717.628 684.747 717.404 685.163C717.293 685.369 716.836 685.418 716.524 685.472C716.395 685.494 716.179 685.381 716.098 685.264C715.497 684.394 716.002 682.524 716.886 682.262C717.225 682.161 717.446 682.307 717.536 682.74C717.605 683.07 717.652 683.404 717.737 683.904Z" fill="#937B34"/>
<path d="M549.354 283.095C549.359 282.463 549.364 281.831 549.37 281.199C551.322 280.921 553.05 281.89 554.891 282.226C555.127 282.269 555.452 282.669 555.467 282.919C555.506 283.572 554.886 283.661 554.465 283.629C552.758 283.498 551.057 283.281 549.354 283.095Z" fill="#937B34"/>
<path d="M313.384 402.75C312.929 402.789 312.473 402.828 312.018 402.866C311.919 402.564 311.741 402.263 311.737 401.96C311.728 401.306 311.791 400.509 312.576 400.423C313.491 400.322 313.366 401.221 313.476 401.79C313.534 402.093 313.42 402.429 313.384 402.75Z" fill="#937B34"/>
<path d="M542.129 282.162C543.947 281.909 545.753 281.73 547.341 282.965C545.486 283.457 543.815 282.761 542.129 282.162Z" fill="#937B34"/>
<path d="M535.848 281.151C537.353 280.893 538.858 280.639 540.066 281.951C538.564 282.191 537.204 281.681 535.848 281.151Z" fill="#937B34"/>
<path d="M341.112 303.575C340.807 303.705 340.478 303.978 340.202 303.932C339.757 303.859 339.693 303.475 340.041 303.175C340.288 302.961 340.611 302.835 340.901 302.669C340.971 302.971 341.042 303.273 341.112 303.575Z" fill="#937B34"/>
<path d="M482.906 732.157C482.92 731.304 483.526 731.103 484.203 730.981C484.206 731.145 484.28 731.379 484.199 731.461C483.831 731.834 483.741 732.971 482.828 732.026C482.829 732.025 482.906 732.157 482.906 732.157Z" fill="#937B34"/>
<path d="M529.664 280.081C530.809 279.829 531.928 279.698 532.791 280.756C531.652 280.979 530.638 280.622 529.664 280.081Z" fill="#937B34"/>
<path d="M329.959 577.555C330.117 577.765 330.276 577.975 330.434 578.185C330.619 577.742 330.566 577.447 330 577.466C330.005 577.46 329.959 577.555 329.959 577.555Z" fill="#937B34"/>
<path d="M328.877 575.42C330.379 575.542 329.415 576.931 329.964 577.548C329.96 577.555 330.007 577.46 330.001 577.466C329.655 576.759 329.315 576.046 328.975 575.333L328.877 575.42Z" fill="#937B34"/>
<path d="M328.975 575.333C328.737 574.902 328.484 574.479 328.274 574.035C328.223 573.927 328.264 573.685 328.35 573.619C328.763 573.298 329.006 573.415 328.989 573.915C328.971 574.415 328.921 574.913 328.881 575.417C328.877 575.42 328.975 575.333 328.975 575.333Z" fill="#937B34"/>
<path d="M360.37 629.215C360.62 629.125 360.873 629.119 361.127 629.197C361.387 629.838 361.255 630.742 360.749 630.757C360.269 630.77 360.071 629.862 360.37 629.215Z" fill="#937B34"/>
<path d="M606.163 743.447L605.881 743.442L606.019 743.907L606.163 743.447Z" fill="#937B34"/>
<path d="M483.8 722.594L483.946 722.649C483.946 722.649 483.687 722.652 483.689 722.652C483.69 722.651 483.8 722.594 483.8 722.594Z" fill="#937B34"/>
</svg>
