<svg width="1080" height="1080" viewBox="0 0 1080 1080" fill="none" xmlns="http://www.w3.org/2000/svg">
<path d="M647.016 363.999C647.11 363.906 647.187 363.83 647.265 363.754C647.115 363.673 646.972 363.567 646.812 363.526C646.758 363.513 646.662 363.666 646.585 363.743C646.731 363.83 646.877 363.917 647.016 363.999ZM577.482 454.207C576.517 451.432 576.517 451.432 570.769 452.557C572.922 453.611 574.81 454.731 577.482 454.207ZM640.635 408.244C637.954 413.187 636.761 416.936 636.822 420.12C637.906 418.591 638.465 416.931 639.164 415.341C640.123 413.157 640.156 410.78 640.635 408.244ZM600.513 418.899C599.46 420.428 598.045 421.283 598.896 422.979C600.445 426.062 602.074 429.088 602.006 432.704C601.986 433.776 603.006 433.415 603.651 433.472C604.466 433.545 604.691 433.053 604.562 432.378C604.386 431.451 604.295 430.46 603.887 429.634C602.295 426.407 601.52 422.936 600.513 418.899ZM614.012 374.37C615.493 377.57 625.093 383.838 630.847 385.33C629.935 383.996 628.618 383.502 627.433 382.855C626.293 382.233 625.036 381.801 623.966 381.084C622.792 380.297 621.77 379.283 620.689 378.36C619.697 377.513 618.759 376.595 617.715 375.819C616.642 375.022 615.728 373.66 614.012 374.37ZM648.367 356.53C649.602 366.785 650.642 369.974 652.887 371.235C654.016 365.527 651.182 361.017 648.367 356.53ZM602.484 454.64C603.584 455.225 604.544 455.932 606.107 455.364C605.439 449.737 606.777 443.981 605.269 438.312C603.954 443.72 603.937 449.28 602.484 454.64ZM642.508 395.329C641.765 393.622 640.797 392.746 639.384 392.187C633.072 389.694 626.528 387.772 620.064 384.075C622.92 387.192 638.862 395.128 642.508 395.329ZM594.293 434.831C596.674 434.171 598.585 433.64 600.459 433.12C600.155 428.716 599.566 426.981 597.39 424.012C595.59 427.282 594.782 430.784 594.293 434.831ZM629.834 444.837C625.811 448.222 625.523 453.314 623.026 457.415C625.067 458.169 626.694 458.798 628.678 458.986C629.638 454.297 629.564 449.56 629.834 444.837ZM601.165 435.005C599.194 435.51 597.534 436.058 595.829 436.332C594.551 436.537 593.936 436.981 593.947 438.345C593.957 439.557 594.484 439.991 595.621 440.133C596.459 440.237 597.374 440.385 598.15 441.309C596.895 441.417 595.849 441.506 594.668 441.607C594.668 442.443 594.778 443.248 594.65 444.014C594.027 447.729 594.14 448.003 597.869 450.255C599.935 445.395 600.403 440.28 601.165 435.005ZM666.53 370.501C664.991 371.073 664.583 372.098 664.078 373.003C662.745 375.393 661.59 377.893 660.107 380.184C655.933 386.633 651.336 392.758 645.728 398.069C645.454 398.328 645.289 398.582 645.038 398.325C643.251 396.49 641 397.894 638.294 396.892C639.507 397.946 640.02 398.433 640.577 398.864C641.235 399.373 641.99 399.768 642.599 400.325C644.682 402.232 644.909 403.422 643.706 406.001C643.102 407.296 642.378 408.544 642.211 409.994C641.558 415.664 638.935 420.646 636.749 425.786C635.788 428.047 634.241 429.752 632.313 431.234C629.519 433.381 627.416 436.071 626.455 439.54C626.036 441.049 625.282 442.389 624.413 443.684C621.887 447.449 620.09 451.623 617.817 455.532C617.359 456.321 617.072 457.035 618.121 457.594C619.185 458.16 619.894 457.901 620.379 456.78C620.804 455.798 621.468 454.906 621.797 453.899C623.933 447.374 628.213 442.321 632.771 437.391C636.736 433.104 638.876 427.816 640.351 422.222C642.208 415.181 644.375 408.303 649.239 402.571C652.628 398.579 654.881 393.688 658.511 389.897C663.64 384.542 665.819 378.096 666.53 370.501ZM619.034 812.131C622.529 808.733 625.216 805.507 626.59 801.341C627.522 798.516 628.342 795.651 629.385 792.868C634.023 780.486 637.847 767.851 641.338 755.106C645.173 741.106 649.506 727.256 652.855 713.108C657.945 691.608 661.193 669.84 663.136 647.885C664.29 634.841 665.753 621.813 666.446 608.736C666.832 601.446 666.515 594.12 666.515 586.81C666.054 587.733 665.966 588.67 665.88 589.608C665.214 596.844 664.77 604.097 664.215 611.339C663.352 622.615 661.964 633.851 660.798 645.103C660 652.804 659.029 660.476 657.66 668.105C654.819 683.942 650.167 699.35 646.706 715.033C643.471 729.689 639.959 744.265 635.431 758.566C631.157 772.062 626.876 785.563 621.873 798.818C620.329 802.908 619.46 807.166 619.034 812.131ZM628.367 622.222C629.095 621.429 629.132 620.578 629.255 619.758C630.419 611.972 630.915 604.12 631.526 596.281C632.473 584.139 632.017 571.982 631.833 559.826C631.678 549.581 631.086 539.328 631.94 529.088C632.199 525.991 632.155 522.901 632.152 519.801C632.145 510.387 632.102 500.953 633.753 491.645C634.606 486.834 635.222 481.996 635.947 477.171C636.323 474.666 635.748 472.419 634.036 470.546C633.103 469.525 631.923 469.822 631.751 471.187C631.249 475.184 629.329 478.63 627.7 482.19C626.265 485.327 624.344 488.301 623.336 491.562C620.843 499.637 619.226 507.942 618.015 516.307C616.306 528.121 616.15 540.058 615.445 551.948C614.83 562.33 615.559 572.672 617.167 582.948C617.976 588.124 618.723 593.311 619.651 598.465C619.976 600.27 619.506 602.067 620.44 603.924C623.415 609.839 626.257 615.834 628.367 622.222ZM537.05 570.457C529.945 575.558 522.558 580.149 516.765 586.804C508.458 596.347 500.126 605.938 494.204 617.136C488.76 627.432 483.681 637.956 479.06 648.673C475.008 658.07 471.342 667.582 468.238 677.368C464.419 689.409 460.959 701.514 458.417 713.87C457.051 720.512 456.242 727.267 455.1 733.958C453.357 744.169 451.597 754.378 449.746 764.57C447.156 778.838 446.192 793.376 442.079 807.404C439.72 815.452 436.094 822.615 430.612 828.898C429.542 830.125 428.285 830.762 426.623 830.959C423.422 831.339 423.429 831.436 423.401 834.522C423.301 845.502 424.637 856.406 425.159 867.354C425.172 867.637 425.489 867.907 425.655 868.168C427.235 867.928 428.355 866.996 429.438 866.094C431.999 863.959 434.506 861.757 437 859.544C446.77 850.872 453.272 840.049 457.686 827.886C464.727 808.488 469.508 788.447 474.218 768.406C476.832 757.287 478.54 745.956 481.08 734.818C485.185 716.818 490.862 699.256 496.561 681.708C501.259 667.244 507.375 653.533 516.548 641.244C519.88 636.78 523.582 633.413 528.97 631.662C535.698 629.476 540.245 631.732 541.8 638.62C542.821 643.148 543.892 647.668 544.77 652.224C546.128 659.263 546.732 666.36 546.337 673.552C545.656 685.938 543.866 698.203 542.533 710.517C541.431 720.699 539.664 730.801 539.123 741.051C538.193 758.68 537.989 776.299 539.501 793.903C540.328 803.532 541.74 813.07 545.07 822.213C547.477 828.823 550.813 835.019 553.755 841.391C554.092 842.121 554.716 842.757 555.315 843.321C559.581 847.339 563.323 851.807 566.832 856.487C568.438 858.629 574.985 862.786 577.783 863.474C578.084 861.352 578.393 859.242 578.683 857.129C579.717 849.579 580.39 841.981 582.047 834.517C582.82 831.036 583.209 827.471 583.784 823.945C583.947 822.948 583.843 822.21 582.858 821.53C576.943 817.443 572.644 812.11 569.973 805.345C567.908 800.113 566.696 794.657 565.011 789.33C562.296 780.741 561.365 771.9 560.722 762.968C560.19 755.579 560.616 748.207 560.515 740.83C560.351 728.786 560.648 716.758 561.293 704.735C561.849 694.385 562.208 684.021 562.997 673.69C563.577 666.091 563.922 658.478 564.798 650.89C565.863 641.668 566.785 632.417 566.57 623.085C566.422 616.623 565.139 610.305 564.649 603.889C564.056 596.134 561.087 589.102 557.155 582.511C552.391 574.525 545.458 569.837 535.94 569.46C535.626 569.447 535.465 569.51 535.451 569.861C535.945 570.045 536.451 570.233 537.05 570.457ZM582.897 620.265C582.886 621.216 582.818 622.17 582.872 623.117C584.153 645.308 582.668 667.449 581.277 689.564C580.327 704.656 578.443 719.68 577.68 734.808C576.732 753.629 575.88 772.432 577.274 791.251C577.774 798.009 578.487 804.769 580.757 811.252C581.231 812.608 583.11 814.002 581.052 815.615C580.713 815.88 581.131 816.259 581.331 816.504C582.138 817.497 582.72 818.747 584.363 819.178C585.799 815.119 586.294 810.869 587.206 806.717C589.149 797.882 589.959 788.835 592.272 780.069C592.848 777.887 593.382 775.648 593.532 773.407C594.53 758.489 598.814 744.137 601.15 729.443C603.016 717.708 605.878 706.125 606.954 694.235C607.684 686.173 609.093 678.173 608.7 670.022C608.311 661.933 608.256 653.84 607.305 645.767C606.093 635.467 604.701 625.214 602.336 615.11C600.299 606.406 597.238 598.008 594.67 589.463C592.581 582.515 591.041 575.406 588.32 568.643C584.273 558.586 582.664 547.987 582.078 537.269C581.54 527.4 581.682 517.495 581.317 507.614C581.15 503.105 580.759 498.587 579.487 494.193C577.966 488.937 576.297 483.698 575.218 478.345C574.165 473.118 571.536 468.856 568.432 464.749C568.012 464.194 567.594 463.573 566.792 463.482C563.845 463.15 560.951 462.66 558.037 464.025C555.076 465.413 552.398 467.088 550.215 469.533C547.042 473.086 543.924 476.69 540.667 480.165C534.91 486.307 530.945 493.675 526.454 500.683C524.336 503.989 521.97 507.193 520.303 510.72C515.665 520.537 510.008 529.778 504.654 539.189C499.885 547.572 494.642 555.695 490.103 564.198C479.955 583.207 470.139 602.394 461.111 621.967C457.073 630.722 452.766 639.397 449.432 648.422C440.766 671.883 433.296 695.728 428.381 720.305C425.502 734.7 423.972 749.263 422.678 763.866C421.739 774.462 421.866 785.081 422.179 795.667C422.483 805.902 423.369 816.125 423.525 826.375C423.53 826.732 423.539 827.091 423.582 827.445C423.646 827.973 423.975 828.265 424.483 828.391C426.255 828.831 430.033 826.572 430.517 824.813C430.634 824.388 430.48 824.155 430.183 823.957C428.753 823.006 429.255 821.68 429.478 820.404C430.256 815.942 430.888 811.459 431.236 806.942C432.536 790.075 433.876 773.217 436.296 756.458C437.929 745.152 438.855 733.771 441.175 722.529C443.772 709.945 445.405 697.163 449.118 684.81C453.537 670.105 457.892 655.373 464.889 641.612C470.845 629.9 477.979 618.964 486.651 609.069C487.422 608.189 487.882 606.669 489.569 607.006L489.55 606.965C489.061 607.102 488.76 607.448 488.501 607.864C485.5 612.673 482.318 617.365 479.279 622.151C467.811 640.209 460.121 659.819 453.953 680.207C448.653 697.727 446.332 715.807 442.718 733.643C441.344 740.425 441.229 747.385 440.13 754.199C437.947 767.741 436.992 781.411 435.485 795.023C434.607 802.95 434.395 810.956 432.683 818.786C432.619 819.075 432.542 819.437 433.129 819.669C434.322 818.42 435.388 816.978 435.97 815.305C438.514 807.994 440.994 800.596 441.781 792.899C442.812 782.818 444.627 772.86 445.883 762.818C447.212 752.19 448.837 741.592 450.562 731.01C452.88 716.788 455.307 702.627 459.434 688.775C463.448 675.307 467.713 661.961 473.615 649.173C479.002 637.5 485.142 626.191 490.283 614.399C491.275 612.126 492.67 609.998 494.089 607.948C500.675 598.438 507.628 589.234 515.81 580.985C520.077 576.683 524.898 573.336 530.343 570.8C531.207 570.398 532.183 570.164 532.941 569.62C540.5 564.195 551.439 567.868 556.448 573.763C561.38 579.566 563.897 586.402 566.406 593.362C568.341 598.73 568.277 604.372 569.151 609.884C570.255 616.854 570.688 623.886 570.239 630.911C569.471 642.917 568.459 654.909 567.479 666.9C566.276 681.627 565.185 696.364 564.559 711.124C563.79 729.232 564.183 747.341 565.376 765.426C566.156 777.252 568.759 788.731 572.254 800.02C573.275 803.317 574.608 806.51 576.138 809.609C576.733 810.814 577.272 812.111 579.369 813.104C578.059 810.117 577.195 807.709 576.59 805.222C574.213 795.445 573.293 785.459 572.998 775.466C572.455 757.108 573.716 738.778 574.586 720.446C574.988 711.986 576.311 703.622 577.144 695.209C578.881 677.656 579.853 660.041 580.64 642.423C580.981 634.811 581.863 627.215 581.531 619.576C582.371 619.043 582.544 619.832 582.897 620.265ZM819.751 412.73C820.701 413.763 822.144 413.266 823.2 413.982C822.277 413.325 821.505 412.46 820.366 412.25C820.27 412.18 820.179 412.1 820.076 412.042C798.918 399.982 776.12 393.005 752.024 389.993C750.15 389.759 749.553 390.673 748.922 392.075C745.796 399.024 742.351 405.817 738.757 412.535C738.502 413.011 737.96 413.444 738.455 414.339C739.138 413.988 739.841 413.655 740.517 413.273C744.584 410.972 748.901 409.327 753.479 408.412C770.054 405.097 786.613 405.673 803.118 408.866C808.702 409.947 814.209 411.43 819.751 412.73ZM609.404 579.418C609.337 579.87 609.342 580.296 609.824 580.543C609.874 580.436 609.979 580.32 609.964 580.223C609.911 579.861 610.181 579.194 609.344 579.484C609.997 579.084 609.795 578.5 609.714 577.914C608.175 566.795 608 555.613 608.424 544.428C608.857 533.018 609.308 521.598 610.23 510.222C610.753 503.757 609.504 497.663 608.317 491.324C607.955 491.654 607.716 491.775 607.634 491.964C607.254 492.834 606.859 493.705 606.576 494.608C601.851 509.701 599.152 525.08 599.883 540.969C600.251 548.955 601.457 556.81 602.897 564.662C603.905 570.16 606.503 574.824 609.404 579.418ZM612.07 481.976C610.217 484.184 609.494 486.599 610.016 489.552C610.576 492.715 611.111 495.875 611.897 498.991C612.481 501.308 612.958 503.659 612.727 506.053C612.211 511.395 612.287 516.756 612.114 522.109C611.852 530.202 610.816 538.246 610.651 546.349C610.477 554.926 610.324 563.515 610.937 572.063C611.574 580.935 612.097 589.928 617.139 597.784C617.511 598.364 617.069 599.594 618.698 599.289C618.33 597.086 618.044 594.871 617.582 592.695C615.625 583.482 614.227 574.187 613.777 564.782C613.178 552.269 614.328 539.793 614.871 527.306C615.285 517.767 617.077 508.408 619.038 499.099C620.088 494.115 621.434 489.199 624.01 484.663C626.588 480.123 628.836 475.387 630.587 470.384C629.553 469.872 628.67 469.064 627.33 469.021C626.345 472.503 625.381 475.933 624.404 479.359C623.148 483.765 620.999 487.678 618.169 491.293C617.131 492.618 616.379 492.484 615.256 491.726C614.323 491.095 613.804 490.165 613.344 489.197C612.344 487.092 612.184 484.863 612.437 482.58C614.255 485.126 614.161 488.75 616.8 490.733C617.709 490.587 617.888 489.974 618.214 489.493C621.541 484.587 623.086 478.993 624.451 473.331C624.865 471.616 625.818 469.78 625.5 468.206C625.149 466.468 622.731 466.238 621.345 465.163C620.892 464.812 620.465 464.355 619.698 464.486C616.595 470.027 614.438 476.048 612.07 481.976ZM606.519 461.496L602.483 459.855C602.761 458.837 603.576 459.126 604.22 459.213C606.456 459.518 608.686 459.869 610.913 460.234C613.274 460.62 613.271 460.636 613.718 457.826C612.641 457.826 611.523 457.612 610.528 457.87C608.303 458.446 606.313 457.909 604.309 457.064C601.938 456.065 601.924 456.084 601.496 458.53C601.415 458.992 601.398 459.466 601.351 459.934C600.674 461.021 600.923 462.239 600.872 463.41C600.65 468.527 601.397 473.6 601.571 478.699C601.607 479.767 601.635 480.84 601.755 481.901C601.871 482.932 601.411 484.076 602.272 485.462C603.91 481.422 605.353 477.805 606.853 474.211C607.199 473.381 607.163 472.614 606.949 471.788C606.254 469.103 606.345 466.378 606.571 463.648C607.77 465.611 607.611 467.999 608.387 470.637C610.135 467.701 611.265 465.189 611.985 462.353C610.011 462.043 608.265 461.77 606.519 461.496ZM619.418 387.711C619.366 388.351 619.534 388.827 620.177 389.15C622.407 390.272 624.579 391.515 626.839 392.568C628.557 393.368 630.375 393.949 632.982 393.996C628.339 391.469 623.704 390.444 619.98 387.593C619.881 387.516 619.569 387.717 619.355 387.788C617.997 383.718 614.376 382.423 610.866 381.992C606.729 381.484 602.472 381.664 598.264 381.253C598.257 382.018 598.578 382.387 599.04 382.525C601.072 383.132 603.079 383.948 605.221 383.986C609.224 384.059 612.96 385.017 616.371 387.102C617.355 387.703 618.336 387.838 619.418 387.711ZM648.719 390.582C649.274 390.631 648.074 392.462 649.583 391.471C650.623 390.789 650.787 389.658 650.679 388.501C650.266 389.464 649.572 390.176 648.64 390.667C647.67 390.154 648.818 389.419 648.422 388.814C648.006 389.018 647.521 389.154 647.164 389.447C645.792 390.575 644.834 390.699 643.282 389.271C641.419 387.557 638.904 386.622 635.946 387.077C637.59 388.709 639.559 389.177 641.383 389.929C643.343 390.738 643.716 392.949 644.959 394.435C646.204 393.414 646.652 392.137 647.462 391.133C647.751 390.775 647.931 389.907 648.719 390.582ZM611.859 683.133C611.45 686.339 610.807 689.526 611.057 692.799C611.711 689.581 612.896 686.477 612.896 683.147C613.081 682.114 613.806 681.06 612.718 679.657C611.83 680.903 611.815 682.009 611.859 683.133ZM597.48 410.381C597.033 411.112 597.122 411.745 597.821 412.269C598.254 414.03 598.978 415.349 601.196 414.893C602.012 414.725 602.888 415.584 602.572 416.079C600.867 418.749 602.984 420.585 603.902 422.562C607.386 430.066 608.856 437.874 608.065 446.12C607.792 448.964 607.679 451.824 607.498 454.677C607.436 455.642 607.774 456.562 608.848 456.16C610.951 455.372 613.472 456.733 615.003 455.714C616.589 454.658 617.247 452.187 618.27 450.312C620.315 446.563 622.539 442.891 624.28 439.003C625.31 436.705 626.193 434.366 627.933 432.543C629.196 431.22 629.425 429.81 629.476 428.052C629.719 419.694 632.247 411.939 636.171 404.614C636.708 403.612 637.306 402.557 638.845 402.028C638.791 404.794 636.716 406.384 636.052 408.554C635.392 410.712 634.565 412.821 633.934 414.987C633.269 417.268 632.718 419.584 632.173 421.898C631.632 424.195 631.365 426.53 631.256 429.175C633.447 427.934 634.3 426.283 634.393 424.123C634.48 422.107 634.486 420.104 634.909 418.09C635.976 413 638.293 408.483 640.889 404.066C641.574 404.697 640.694 405.647 641.641 406.628C641.72 405.101 643.92 404.149 641.812 402.641C639.743 400.341 637.394 398.287 634.494 397.262C629.693 395.565 624.697 394.397 620.266 391.761C619.009 391.012 618.396 391.423 617.827 392.661C616.634 395.258 615.231 397.745 613.275 399.874C609.495 403.989 604.689 407.075 601.41 411.694C601.345 411.787 601.234 411.878 601.127 411.906C599.888 412.232 600.16 411.323 600.123 410.666C602.48 407.67 605.227 405.026 607.724 402.128C604.479 404.219 601.632 406.721 599.414 409.904C599.023 409.982 598.758 410.2 598.648 410.591C598.23 410.612 597.789 410.807 597.421 410.435C597.39 409.315 596.925 408.599 595.534 408.475C596.122 409.358 595.978 410.695 597.48 410.381ZM561.485 412.755C563.96 410.319 566.057 407.571 567.709 404.54C571.412 397.746 575.799 391.34 579.097 384.32C579.35 383.783 579.7 383.291 579.949 382.753C580.48 381.606 581.394 381.167 582.552 381.499C583.765 381.846 584.218 382.856 584.028 384.024C583.858 385.071 583.536 386.11 583.159 387.106C579.858 395.815 575.714 404.107 570.757 411.992C569.345 414.239 567.369 415.978 565.494 417.805C564.896 418.386 564.18 418.839 565.172 419.761C566.284 420.793 565.735 421.976 565.117 423.018C563.044 426.51 560.876 429.936 557.424 432.289C557.326 432.356 557.235 432.434 557.134 432.497C550.177 436.797 547.168 443.391 546.253 451.205C546.129 452.27 545.95 453.329 545.852 454.396C545.366 459.698 545.253 465.069 542.879 470.011C542.002 471.105 541.331 472.284 541.048 474.075C542.155 472.803 543.281 472.068 543.465 470.672C544.814 469.181 546.144 467.673 547.517 466.204C551.403 462.046 555.948 459.98 561.865 459.427C566.478 458.996 568.935 460.82 571.537 463.67C575.473 467.982 578.402 472.771 579.167 478.707C579.503 481.312 580.524 483.756 581.361 486.236C583.812 493.496 585.4 500.905 585.532 508.613C585.695 518.143 585.816 527.68 586.307 537.196C586.868 548.051 588.713 558.667 592.68 568.905C594.952 574.769 596.341 580.968 598.363 586.937C603.338 601.619 607.489 616.509 609.706 631.871C610.727 638.94 611.32 646.071 612.116 653.172C612.18 653.747 612.091 654.371 612.685 655.038C613.57 650.675 613.434 646.282 614.867 642.176C614.846 641.7 615.67 642.224 615.203 642.128C615.122 642.112 614.931 642.221 614.933 642.264C615.376 650.638 613.986 658.891 613.293 667.188C613.036 670.266 612.653 673.334 612.396 676.411C612.336 677.124 611.898 678.266 613.193 678.316C614.107 678.351 614.148 677.336 614.187 676.7C614.49 671.808 615.894 667.093 616.417 662.231C617.272 654.276 617.441 646.307 617.298 638.323C617.204 633.071 616.671 627.881 615.165 622.805C614.015 618.928 613.032 614.999 612.056 611.073C610.092 603.169 606.461 595.91 603.308 588.473C601.679 584.629 600.062 580.804 599.066 576.745C596.968 568.193 593.75 559.939 592.048 551.295C589.648 539.107 588.622 526.802 589.846 514.376C590.3 509.758 590.669 505.132 591.044 500.508C591.247 498.013 591.42 495.521 592.011 493.075C593.115 488.509 593.012 483.858 592.908 479.212C592.873 477.653 592.737 475.992 591.683 474.816C587.04 469.634 583.926 463.414 579.968 457.771C578.892 456.237 577.838 455.736 575.913 455.705C571.652 455.636 567.969 453.529 564.352 451.458C563.672 451.068 563.233 450.425 563.471 449.682C563.717 448.917 564.484 448.711 565.241 448.841C566.529 449.062 567.813 449.316 569.086 449.613C570.935 450.044 572.75 450.676 574.696 450.433C575.428 450.628 576.135 450.796 575.634 449.601C574.824 444.845 572.227 440.843 570.165 436.306C568.144 437.628 566.609 439.233 565.069 440.817C563.971 441.949 562.738 442.868 561.245 443.354C559.389 443.957 558.42 443.17 558.61 441.312C559.349 434.092 567.653 428.586 574.475 431.108C577.56 432.249 580.584 432.91 583.823 432.825C585.648 432.778 587.264 433.577 589.21 434.242C589.443 432.484 589.679 430.798 589.889 429.11C590.42 424.818 592.122 421.162 595.429 418.256C597.314 416.6 597.168 416.546 595.748 414.274C593.467 410.625 591.036 407.135 587.564 404.474C585.959 403.244 584.493 401.847 582.453 401.321C581.64 401.112 581.319 400.454 581.49 399.667C581.659 398.887 582.288 398.372 583.039 398.476C585.951 398.881 588.968 398.96 591.247 401.322C593.144 403.289 595.182 405.122 597.142 407.03C597.881 407.75 598.587 408.365 599.448 407.197C601.943 403.813 605.168 401.201 608.349 398.501C610.789 396.432 612.687 393.786 614.374 391.037C615.84 391.453 614.954 392.453 614.931 393.249C615.128 393.562 614.197 393.893 614.961 394.184C614.93 393.847 614.899 393.509 614.868 393.171C616.497 393.067 616.82 391.675 616.946 390.572C617.048 389.675 615.799 389.615 615.067 389.31C612.085 387.034 608.564 386.515 604.981 386.292C601.631 386.084 598.719 384.957 596.363 382.537C595.183 381.325 594.204 380.004 594.629 378.06C596.964 379.846 599.617 380.083 602.299 380.066C605.634 380.045 608.969 379.911 612.303 379.826C614.359 380.79 616.414 381.755 618.469 382.72C617.286 380.825 615.374 380.168 613.664 379.2C613.037 378.336 612.334 377.516 611.801 376.598C611.039 375.286 610.846 373.894 611.842 372.582C612.815 371.3 614.173 371.044 615.68 371.249C616.654 371.381 617.498 371.825 618.261 372.397C619.404 373.252 620.612 374.062 621.6 375.079C625.079 378.662 629.826 380.253 633.853 382.972C634.786 383.602 636.082 383.865 637.239 383.962C639.959 384.188 642.26 385.278 644.416 386.854C646.342 388.262 646.775 388.209 648.114 386.392C648.669 385.637 649.033 384.742 649.484 383.911C650.006 383.945 650.389 384.21 650.187 384.737C649.604 386.261 650.693 386.24 651.622 386.385C651.615 386.379 651.699 386.347 651.699 386.347L651.574 386.319C651.008 385.373 651.985 384.348 651.423 383.403C651.107 378.561 649.25 374.575 645.604 371.203C642.3 368.148 639.107 364.85 637.619 360.383C637.281 359.368 636.894 358.361 636.672 357.32C636.487 356.453 636.823 355.653 637.586 355.14C638.461 354.552 639.194 355.072 639.837 355.6C641.696 357.125 643.144 359.01 644.501 360.983C645.006 361.717 645.234 362.741 646.181 363.048C647.401 362.714 646.886 361.946 646.754 361.317C646.312 359.221 645.819 357.135 645.405 355.033C645.234 354.164 645.464 353.319 646.289 352.867C647.1 352.423 647.924 352.664 648.618 353.216C649.078 353.582 649.58 353.97 649.875 354.461C653.152 359.93 656.17 365.492 654.712 372.238C654.012 375.48 655.451 378.611 655.092 381.825C653.511 381.915 653.907 380.67 653.862 379.865C653.664 376.348 652.376 373.378 649.682 371.06C646.456 366.838 643.23 362.615 640.005 358.392C641.133 364.193 645.45 367.664 649.03 371.667C652.717 375.446 652.611 380.524 653.443 385.556C654.545 384.487 655.482 383.823 655.939 382.72C657.868 380.451 659.441 377.952 660.838 375.324C661.73 373.646 662.719 372.015 663.729 370.403C664.33 369.445 665.199 368.758 666.414 369.143C667.612 369.522 667.935 370.566 667.97 371.699C667.996 372.53 667.997 373.369 667.923 374.197C667.428 379.808 665.535 384.869 661.803 389.142C659.054 392.291 656.687 395.719 654.241 399.094C653.207 400.521 652.816 402.002 652.925 403.763C653.508 413.119 652.059 422.278 650.252 431.417C647.46 445.542 644.04 459.541 641.643 473.743C640.632 479.733 640.375 485.817 639.97 491.874C638.809 509.236 638.468 526.633 637.824 544.017C637.554 551.291 637.956 558.543 638.427 565.794C637.953 571.074 638.031 576.359 638.33 581.653C638.839 576.387 639.799 571.155 639.346 565.827C640.536 554.683 640.759 543.475 641.593 532.31C642.081 525.771 642.364 519.229 642.639 512.684C642.85 507.664 644.077 502.789 644.586 497.808C645.481 489.041 646.398 480.272 647.871 471.573C649.125 464.172 651.06 456.927 652.811 449.644C655.267 439.423 659.059 429.704 663.836 420.31C667.229 413.637 670.253 406.739 672.9 399.737C675.505 392.849 677.57 385.745 679.087 378.51C679.161 378.16 679.272 377.807 679.274 377.455C679.313 369.486 679.413 361.509 677.028 353.768C676.426 351.815 675.418 350.067 674.352 348.34C672.265 344.958 669.601 342.782 665.28 343.411C662.656 343.792 660.083 342.805 657.479 342.713C647.822 342.374 638.209 342.675 628.647 344.389C620.56 345.839 612.384 346.781 604.196 347.451C597.707 347.981 591.697 346.268 586.245 342.661C585.422 342.116 584.913 341.355 584.355 340.575C579.947 334.416 576.432 327.869 575.285 320.259C575.673 320.357 576.061 320.455 576.449 320.552C576.975 324.166 578.845 327.234 580.495 330.381C582.704 334.595 585.523 338.39 588.553 342.05C589.285 342.935 590.231 343.015 591.062 343.073C595.927 343.412 600.791 343.909 605.665 342.951C616.661 340.788 627.782 339.339 638.932 338.505C646.849 337.912 654.891 337.605 662.776 339.517C663.911 339.792 665.157 339.79 666.333 339.689C670.773 339.305 673.825 341.428 676.222 344.898C678.984 348.895 680.935 353.363 681.411 358.083C682.16 365.516 683.377 373.052 681.617 380.502C679.21 390.695 676.644 400.828 672.064 410.366C668.512 417.764 664.487 424.944 661.558 432.64C657.907 442.235 655.387 452.145 653.101 462.133C650.57 473.188 649.316 484.415 647.947 495.654C645.377 516.747 645.512 538.009 643.564 559.127C641.472 581.803 640.679 604.57 638.586 627.24C637.556 638.391 636.014 649.493 634.902 660.637C633.919 670.5 631.774 680.141 629.967 689.859C626.565 708.149 621.686 726.05 616.6 743.911C614.248 752.171 612.877 760.631 611.234 769.046C609.182 779.56 606.769 790.007 604.851 800.551C603.893 805.822 603.187 811.135 601.897 816.348C601.164 819.312 604.13 822.238 607.181 821.634C610.47 820.983 612.937 818.878 615.327 816.699C616.017 816.07 615.951 815.16 615.993 814.356C616.533 804.105 620.082 794.63 623.147 784.97C629.553 764.781 636.596 744.75 641.024 723.997C645.596 702.571 650.737 681.258 654.544 659.677C656.613 647.945 657.681 636.066 658.731 624.191C660.327 606.152 661.213 588.059 663.334 570.056C664.728 558.229 665.306 546.306 666.256 534.426C667.453 519.45 669.594 504.596 671.896 489.758C673.467 479.636 674.571 469.442 676.612 459.393C677.695 454.063 678.943 448.785 681.226 443.964C680.944 447.901 680.837 451.943 680.335 455.934C678.152 473.309 676.356 490.733 673.414 508.011C672.416 513.868 671.688 519.792 671.517 525.756C670.79 527.068 671.041 528.523 670.958 529.918C670.874 531.333 671.186 532.805 670.901 534.164C670.651 535.361 671.604 536.74 670.467 538.204C669.667 536.457 670.256 535.137 670.689 534.05C671.763 531.36 671.927 528.562 672.23 525.764C673.059 521.925 673.928 518.093 674.711 514.244C677.821 498.959 683.245 484.562 690.693 470.844C697.896 457.576 706.794 445.528 716.181 433.792C716.852 432.954 717.509 432.103 718.23 431.31C728.788 419.698 735.82 405.881 742.628 391.96C745.018 387.072 747.222 382.073 749.907 377.352C758.352 362.501 763.763 346.563 767.398 329.956C769.257 321.464 771.188 312.988 772.683 304.419C774.199 295.733 773.657 287.141 772.304 278.466C770.53 267.098 767.176 256.142 763.42 245.39C754.132 218.802 736.413 199.803 710.243 188.937C698.069 183.882 685.294 181.141 672.369 178.904C658.017 176.419 643.493 175.758 629.011 174.653C627.425 174.532 625.802 174.847 624.193 175.542C625.216 176.498 626.116 176.084 627.018 175.793C629.883 174.866 632.847 174.634 635.831 174.6C646.914 174.473 658.014 173.986 669.058 175.259C685.904 177.201 702.564 180.186 718.103 187.28C744.236 199.21 761.043 219.41 769.504 246.701C771.196 252.157 772.579 257.709 774.143 263.205C775.226 267.011 775.674 270.915 776.004 274.833C776.345 278.868 776.387 282.935 776.878 286.949C778.183 297.635 776.805 308.082 774.719 318.543C771.712 333.629 768.336 348.585 762.582 362.922C759.737 370.013 755.936 376.631 752.805 383.574C752.186 384.948 751.344 386.26 751.081 388.167C754.003 388.556 756.83 388.618 759.607 388.978C780.453 391.684 800.234 397.73 818.846 407.541C827.583 412.146 836.548 416.368 844.166 422.829C853.815 431.012 862.021 440.301 867.14 452.067C870.511 459.813 874.332 467.361 877.245 475.311C879.469 481.38 881.153 487.553 881.547 494.038C881.677 496.176 882.006 498.294 881.016 500.35C880.803 500.792 880.776 501.45 881.46 502.304C881.648 498.937 880.735 496.092 880.006 493.279C877.849 484.948 874.132 477.194 870.726 469.34C867.887 462.79 864.928 456.277 861.681 449.922C855.532 437.887 846.488 428.367 835.364 420.792C834.106 419.935 832.617 419.364 831.168 418.847C812.521 412.196 793.395 408.165 773.496 408.701C766.117 408.9 758.74 409.396 751.56 411.354C746.23 412.808 741.3 415.104 736.842 418.392C735.394 419.46 734.063 420.634 732.947 422.053C724.109 433.295 714.592 443.998 706.292 455.667C696.36 469.63 688.186 484.461 683.195 500.969C679.428 513.429 676.711 526.107 674.866 538.961C673.92 545.557 673.823 552.269 673.069 558.898C671.18 575.518 671.404 592.219 670.895 608.894C670.607 618.306 669.147 627.652 668.719 637.044C667.956 653.755 665.514 670.248 663.078 686.748C661.511 697.361 658.626 707.711 656.258 718.16C653.152 731.872 648.674 745.207 644.837 758.718C640.54 773.849 635.747 788.839 629.357 803.194C625.702 811.405 619.513 818.076 612.108 823.306C608.478 825.869 604.528 825.854 600.974 822.593C599.958 825.03 599.745 827.435 599.55 829.784C599.205 833.947 598.641 838.069 598.016 842.194C597.016 848.794 597.823 855.494 597.022 862.112C596.838 863.638 597.639 864.254 599.131 864.249C602.001 864.24 604.835 863.968 607.656 863.437C613.624 862.315 619.559 861.131 625.219 858.802C642.664 851.623 655.311 839.051 665.164 823.355C673.595 809.925 679.144 795.196 683.629 780.115C687.157 768.254 691.238 756.552 694.009 744.456C697.849 727.701 700.202 710.722 702.408 693.705C703.714 683.633 703.547 673.476 704.44 663.385C704.882 658.4 705.65 653.438 705.933 648.446C706.723 634.524 707.818 620.595 707.907 606.663C708.045 585.236 711.91 564.521 717.796 544.037C720.959 533.029 725.558 522.814 732.388 513.606C734.836 510.306 737.728 507.525 741.234 505.385C744.143 503.61 747.263 502.537 750.711 502.643C757.513 502.854 764.161 503.628 770.761 505.676C782.186 509.222 792.968 514.257 803.918 518.923C816.192 524.154 828.468 529.38 841.519 532.454C843.956 533.028 846.418 533.42 848.897 533.78C853.27 534.416 856.736 532.849 859.188 529.418C862.637 524.591 866.415 519.939 868.628 514.325C868.834 513.802 869.146 513.32 869.637 512.382C869.321 518.841 869.33 524.808 866.367 530.378C861.794 538.971 856.047 542.025 846.457 540.489C838.788 539.26 831.348 537.154 824.023 534.603C811.636 530.289 799.647 524.994 787.657 519.724C779.885 516.308 771.831 513.78 763.767 511.246C759.293 509.841 754.58 510.001 749.972 509.493C748.162 509.293 746.459 510.101 744.893 510.982C742.592 512.276 740.467 513.845 738.849 515.946C733.373 523.059 728.555 530.53 725.873 539.226C721.092 554.728 716.78 570.326 714.975 586.513C714.512 590.664 714.114 594.824 714.102 598.992C714.061 613.904 712.85 628.767 712.295 643.658C712.021 651.027 710.543 658.352 710.272 665.721C709.556 685.183 707.326 704.469 703.803 723.587C701.128 738.102 697.896 752.499 693.308 766.591C689.439 778.473 686.111 790.527 681.63 802.214C675.635 817.85 667.665 832.227 655.402 843.906C646.602 852.285 636.94 859.289 625.213 863.11C617.688 865.562 609.923 866.644 602.116 867.519C600.496 867.701 598.818 867.359 596.869 867.24C596.057 872.066 597.009 876.982 596.469 881.813C594.836 878.282 594.682 874.586 594.683 870.923C594.684 866.278 595.061 861.635 595.176 856.988C595.592 840.17 598.162 823.636 601.037 807.087C603.502 792.895 605.869 778.68 608.314 764.481C608.831 761.479 608.687 758.39 609.555 755.44C610.609 751.559 611.455 747.607 612.753 743.809C617.342 730.379 620.479 716.541 623.646 702.765C626.84 688.874 629.687 674.865 631.189 660.608C632.575 647.464 634.338 634.356 635.519 621.186C636.189 613.706 636.729 606.243 636.134 598.706C635.581 591.704 635.44 584.674 635.74 577.631C636.004 571.445 636.143 565.23 635.597 559.051C635.176 554.286 635.047 549.535 635.332 544.769C635.687 538.822 636.042 532.875 636.446 526.932C636.696 523.252 637.374 519.567 637.259 515.903C637.095 510.659 637.039 505.433 637.208 500.187C637.47 492.087 637.85 483.952 638.997 475.976C641.147 461.019 645.026 446.371 648.24 431.606C650.067 423.213 651.643 414.8 651.598 406.17C651.594 405.424 651.999 404.526 651.161 403.906C646.87 407.866 644.326 415.535 642.485 422.407C640.706 429.05 638.183 435.252 633.334 440.298C632.678 440.981 631.918 441.627 631.883 442.678C631.71 447.911 631.969 453.17 630.878 458.347C630.728 459.06 631.17 459.428 631.83 459.584C632.587 459.764 632.932 459.342 633.089 458.702C633.315 457.78 633.589 456.858 633.69 455.919C634.009 452.959 634.233 449.988 634.539 447.026C634.772 444.769 635.073 442.519 635.344 440.266C635.623 440.294 635.901 440.322 636.179 440.35C636.593 446.882 635.998 453.373 634.804 459.782C636.422 460.574 637.545 460.65 637.978 458.571C638.899 454.146 640.283 449.821 640.817 445.311C641.308 441.164 642.051 437.078 643.68 433.194C644.608 430.983 645.045 428.654 645.282 426.263C645.647 422.59 646.037 418.911 646.639 415.272C646.973 413.251 647.464 411.119 650.266 409.773C648.45 415.414 647.897 420.719 647.567 426.052C647.357 429.424 646.483 432.62 645.099 435.683C644.161 437.76 643.564 439.941 643.172 442.167C642.139 448.034 640.634 453.783 639.211 459.559C638.676 461.728 637.84 461.902 636.174 461.693C635.583 461.618 634.989 461.567 634.398 461.492C632.128 461.204 629.859 460.911 628.339 463.83C627.954 462.257 629.044 460.777 627.101 460.427C625.829 460.198 624.623 459.304 623.378 459.282C620.9 459.238 621.269 461.586 620.393 463.241C623.032 463.822 625.38 464.624 627.568 465.788C629.451 466.791 631.181 468.047 633.522 467.8C634.695 467.676 635.382 468.66 636.062 469.525C638.507 472.638 638.227 476.164 637.78 479.771C636.696 488.506 634.974 497.146 634.646 505.999C634.363 513.624 634.709 521.263 634.112 528.865C633.392 538.042 633.676 547.218 633.964 556.38C634.665 578.709 633.748 600.924 630.307 623.019C629.944 625.346 629.245 627.653 629.631 630.096C631.622 642.709 630.995 655.33 628.949 667.83C627.181 678.631 624.961 689.376 622.459 700.032C619.278 713.583 615.341 726.956 612.642 740.625C611.651 745.642 609.513 750.344 608.775 755.418C607.429 758.353 607.236 761.587 606.398 764.657C603.986 773.495 601.453 782.312 599.427 791.242C596.636 803.548 594.517 815.996 592.236 828.41C590.1 840.033 588.86 851.729 587.821 863.486C587.108 871.549 587.223 879.659 586.224 887.802C584.522 887.636 584.728 886.378 584.783 885.419C585.139 879.113 585.395 872.794 586.019 866.513C586.467 862.003 586.848 857.491 587.03 852.971C587.333 845.458 588.131 838.012 589.345 830.594C590.882 821.195 592.026 811.743 593.911 802.387C596.5 789.534 600.418 777.025 603.274 764.256C605.795 752.981 609.85 742.097 611.727 730.679C613.393 720.545 616.861 710.861 618.904 700.829C621.349 688.816 623.927 676.828 626.16 664.776C628.017 654.75 627.702 644.565 627.047 634.462C626.632 628.061 624.861 621.887 622.009 615.975C615.6 602.692 610.17 588.99 604.867 575.219C601.803 567.262 599.965 559.152 598.574 550.855C596.785 540.183 596.982 529.519 598.629 518.825C600.356 507.611 602.553 496.539 607.099 486.075C610.177 478.988 613.392 471.961 616.542 464.906C617.41 462.96 618.265 461.008 619.219 458.846C617.697 458.406 616.554 458.187 615.859 459.78C611.444 469.909 606.331 479.726 602.115 490.189C600.883 489.782 600.197 488.853 600.184 487.42C600.109 479.553 598.373 471.813 598.502 463.916C598.572 459.701 599.548 455.725 600.61 451.726C600.765 451.143 600.909 450.586 600.488 449.959C598.893 451.54 598.6 453.749 597.663 455.621C596.657 457.631 596.046 460.083 593.199 460.115C590.385 460.146 588.408 458.836 586.835 456.337C584.956 453.35 582.592 450.648 579.883 448.32C579.469 447.964 579.454 447.51 579.237 447.111C579.522 446.339 580.009 446.318 580.582 446.781C583.724 449.324 587.035 451.717 589.166 455.261C589.744 456.223 590.377 456.968 591.385 457.456C592.669 458.078 593.973 458.481 594.767 456.92C595.682 455.121 593.791 455.108 592.947 454.557C591.598 453.677 589.831 453.412 588.38 451.752C591.457 451.957 593.427 453.341 595.478 454.492C596.864 452.261 596.864 452.261 595.315 451.343C592.136 449.461 591.383 447.766 592.137 444.053C592.362 442.946 592.115 441.959 591.725 440.931C591.057 439.172 590.559 437.206 591.13 435.473C592.467 431.412 592.949 427.081 594.965 423.234C595.136 422.908 595.404 422.386 594.728 422.166C591.892 425.876 590.744 430.66 591.146 435.226C591.454 438.726 591.18 442.267 590.254 445.68C589.555 448.257 589.296 448.379 586.497 449.444C590.743 445.151 589.391 440.101 589.473 435.075C586.758 435.075 584.389 434.996 582.028 435.096C579.485 435.205 577.15 434.83 574.769 433.745C569.001 431.119 563.562 434.028 561.644 440.833C563.508 439.283 565.069 437.868 566.752 436.615C568.823 435.074 569.761 435.246 571.802 436.811C573.023 437.748 573.589 439.316 575.049 439.975L574.969 439.897C576.163 442.829 577.357 445.761 578.55 448.693C579.053 451.059 580.119 453.236 581.498 455.133C585.632 460.82 588.648 467.227 593.002 472.758C594.508 474.67 594.645 476.973 594.779 479.197C595.044 483.602 594.645 487.983 594.049 492.37C592.028 507.25 590.231 522.182 592.203 537.199C594.161 552.108 598.1 566.578 603.084 580.742C604.737 585.442 606.818 590.017 609.011 594.498C612.917 602.477 614.992 611.021 617.31 619.515C619.405 627.191 619.873 635.022 619.863 642.883C619.849 652.775 618.846 662.564 617.094 672.347C614.326 687.814 610.804 703.119 607.823 718.537C607.124 722.153 605.908 725.671 605.232 729.291C602.28 745.075 598.561 760.697 595.634 776.496C593.187 789.701 590.741 802.926 588.133 816.111C585.528 829.278 583.243 842.535 582.123 855.948C581.955 857.965 581.819 860.008 581.377 861.972C580.802 864.523 580.575 866.87 582.822 868.774C582.86 868.807 582.636 869.15 582.534 869.348L582.567 869.389C580.443 868.351 580.374 868.342 580.141 870.254C579.708 873.802 579.285 877.354 579.001 880.915C578.307 889.642 578.07 898.417 576.183 905.879C575.629 894.382 575.668 881.764 577.024 869.189C577.241 867.179 576.667 866.208 574.981 865.254C567.581 861.071 560.923 856.062 555.514 849.303C552.763 845.865 550.049 842.584 547.938 838.641C539.736 823.324 535.574 806.95 534.774 789.726C533.945 771.876 533.048 753.988 535.045 736.16C536.582 722.43 538.538 708.747 540.31 695.043C541.64 684.759 542.865 674.469 542.867 664.072C542.869 654.589 540.285 645.743 536.408 637.209C535.3 634.769 534.247 634.431 531.597 635.049C526.734 636.183 523.136 638.801 520.246 642.991C511.382 655.838 504.818 669.741 499.887 684.507C494.264 701.343 489.34 718.382 485.377 735.668C482.905 746.451 481.483 757.471 479.242 768.312C475.889 784.525 471.551 800.505 466.457 816.251C464.228 823.144 462.232 830.136 459.369 836.827C455.218 846.528 449.074 854.77 441.271 861.786C438.086 864.651 434.77 867.384 431.211 869.798C430.122 870.536 429.06 871.525 427.784 871.646C425.421 871.869 425.4 873.267 425.534 875.049C426.108 882.655 426.649 890.263 427.156 897.873C427.566 904.03 428.188 910.194 426.957 916.338C426.929 916.477 427.21 916.679 427.352 916.857C427.953 916.395 427.753 915.817 427.593 915.244C424.242 903.253 423.119 890.909 422.028 878.588C420.493 861.253 419.503 843.89 419.854 826.46C420.089 814.786 419.341 803.116 419.018 791.444C418.75 781.798 419.278 772.136 419.943 762.51C421.34 742.282 423.877 722.184 428.334 702.392C431.734 687.29 436.305 672.514 441.441 657.895C449.315 635.485 459.253 614.03 470.45 593.12C476.855 581.159 482.453 568.756 489.452 557.128C496.513 545.396 503.318 533.516 510.363 521.777C511.587 519.737 512.767 517.655 513.758 515.496C517.298 507.781 522.068 500.798 526.516 493.616C529.526 488.755 532.653 483.99 535.945 479.311C537.54 477.043 538.127 474.071 539.205 471.432C540.885 467.319 541.885 463.121 541.908 458.606C541.938 452.774 542.379 446.938 544.681 441.44C545.254 439.956 546.193 438.622 546.477 437.021L546.396 437.118C549.797 434.369 553.012 431.415 556.764 429.078C559.616 427.301 561.722 424.624 563.653 421.631C560.876 421.716 560.332 425.477 557.21 424.596C558.719 421.039 561.121 418.301 563.739 415.707C565.425 414.035 567.295 412.539 568.577 410.478C573.296 402.886 577.453 395.005 580.844 386.729C581.158 385.963 581.877 385.204 581.08 384.026C580.549 384.87 580.084 385.547 579.681 386.26C576.28 392.266 572.903 398.285 569.494 404.286C567.371 408.022 564.934 411.52 561.596 414.303C561.419 414.128 561.241 413.954 561.063 413.78C561.204 413.438 561.344 413.097 561.485 412.755Z" fill="#937B34"/>
<path d="M517.984 388.912C517.595 389.347 517.269 389.659 517.006 390.017C516.656 390.493 516.377 391.093 517.091 391.41C517.508 391.595 517.9 391.157 518.125 390.739C518.396 390.235 518.667 389.727 517.984 388.912ZM563.034 372.787C561.335 377.195 560.23 390.657 561.118 394.276C562.602 387.011 563.148 379.926 563.034 372.787ZM548.972 406.959C550.18 406.319 551.448 406.073 550.763 404.574C548.772 400.22 548.207 395.44 546.649 390.958C546.4 390.243 546.591 389.189 545.292 389.075C545.012 395.269 547.621 400.848 548.972 406.959ZM535.477 423.796C526.969 431.423 523.294 435.831 517.825 444.682C516.977 446.053 516.357 447.317 517.738 449.057C520.191 444.61 522.606 440.285 525.707 436.41C528.902 432.419 532.236 428.538 535.477 423.796ZM495.646 419.679C496.471 422.035 497.644 423.407 498.662 424.863C500.399 427.347 501.505 430.097 502.031 433.044C502.659 436.555 503.131 440.094 503.601 443.63C504.041 446.934 504.389 450.249 504.778 453.559C504.878 454.411 505.391 454.779 506.217 454.795C507.263 454.815 507.286 454.131 507.224 453.369C506.768 447.796 506.65 442.17 505.776 436.663C504.751 430.195 503.538 423.771 503.406 417.201C503.4 416.923 503.268 416.774 502.716 416.736C501.366 419.255 499.605 421.432 495.646 419.679ZM518.353 453.15C529.476 441.725 540.336 430.085 547.237 415.417C536.262 426.948 524.95 438.218 518.353 453.15ZM321.041 419.936C320.994 419.848 320.895 419.749 320.911 419.676C320.948 419.509 321.042 419.355 321.113 419.196C321.47 419.206 321.839 419.282 322.181 419.215C333.113 417.065 344.19 416.834 355.272 416.762C359.796 416.733 364.311 416.943 368.817 417.588C373.048 418.195 377.081 419.458 381.056 420.864C381.467 420.164 381.232 419.699 380.964 419.387C377.339 415.161 375.381 410.056 373.048 405.099C371.255 401.289 367.96 398.911 363.376 398.944C357.63 398.986 351.977 399.754 346.372 400.945C328.899 404.659 311.628 409.145 294.656 414.726C285.034 417.89 275.652 421.703 266.883 426.796C249.412 436.944 234.732 450.13 223.93 467.358C220.264 473.203 216.369 478.945 213.769 485.38C209.432 496.111 206.08 507.151 203.869 518.519C203.279 521.556 202.709 524.621 202.482 527.698C201.68 538.55 204.969 548.383 210.34 557.63C211.423 559.495 212.918 561.074 214.698 562.306C218.412 564.877 221.874 566.223 226.729 563.905C234.887 560.01 243.918 558.422 252.637 556.051C271.002 551.055 289.395 546.196 308.223 543.173C314.628 542.145 321.053 542.188 327.474 542.354C330.903 542.442 334.339 543.038 337.645 544.149C338.441 544.417 339.216 544.616 339.85 545.21C346.609 551.532 350.947 559.067 351.918 568.437C353 578.876 351.335 589.12 349.988 599.388C348.883 607.813 345.77 615.75 343.755 623.957C341.173 634.475 338.294 644.927 335.989 655.505C334.444 662.592 333.758 669.862 332.532 677.024C331.181 684.922 331.333 692.947 330.332 700.867C329.672 706.1 329.581 711.339 330.032 716.572C331.558 734.261 333.322 751.921 337.657 769.206C339.915 778.212 341.956 787.306 345.769 795.811C349.032 803.086 352.719 810.17 356.196 817.349C361.668 828.65 369.167 838.46 378.502 846.779C385.26 852.801 392.376 858.422 399.388 864.154C401.154 865.598 403.02 867.002 405.681 867.567C404.656 854.827 404.1 842.369 404.227 829.725C402.399 830.013 400.946 830.052 399.628 830.494C397.637 831.162 396.139 830.623 394.825 829.159C391.133 825.046 388.031 820.68 386.715 815.102C384.501 805.718 382.919 796.186 380.17 786.928C376.982 776.191 374.163 765.422 373.327 754.148C372.632 744.777 370.995 735.486 370.159 726.102C369.021 713.321 369.59 700.614 370.846 687.918C371.678 679.505 373.422 671.191 374 662.743C374.879 649.894 376.528 637.174 378.94 624.502C381.171 612.786 383.984 601.238 387.195 589.779C391.206 575.462 396.386 561.481 399.513 546.906C401.237 538.87 403.139 530.875 403.526 522.613C403.983 512.853 403.964 503.073 404.742 493.324C404.921 491.077 404.741 488.795 404.633 486.534C404.119 475.789 402.036 465.298 399.838 454.789C398.061 446.288 393.771 439.104 389.439 431.861C388.965 431.069 388.202 430.416 387.478 429.813C383.019 426.098 377.992 423.473 372.341 422.091C367.352 420.871 362.283 420.128 357.156 419.947C345.119 419.52 333.079 419.827 321.041 419.936ZM555.04 408.478C552.34 409.837 550.122 411.561 549.527 414.814C549.318 415.953 548.715 417.042 548.175 418.094C544.311 425.633 539.804 432.764 534.182 439.118C529.537 444.368 525.183 449.888 519.95 454.608C518.215 456.173 518.3 456.266 519.129 459.11C519.426 458.901 519.748 458.746 519.98 458.504C531.007 446.95 540.573 434.204 550.108 421.44C552.968 417.613 554.391 413.131 554.984 408.398C555.159 408.634 555.318 408.625 555.419 408.356C555.447 408.281 555.382 408.171 555.361 408.077C555.254 408.211 555.147 408.345 555.04 408.478ZM410.363 753.277C410.508 751.933 411.161 750.571 410.303 749.267C410.204 749.116 409.512 749.099 409.423 749.235C408.606 750.479 408.781 751.865 408.975 753.242C408.896 753.708 408.75 754.174 408.746 754.641C408.681 763.321 408.634 772.002 408.577 780.682C408.574 781.182 408.651 781.617 409.642 782.064C409.876 772.344 409.761 762.795 410.363 753.277ZM543.48 434.122C545.594 433.279 545.943 431.193 546.879 429.521C545.477 430.874 544.265 432.359 543.56 434.189C542.333 435.161 541.478 436.413 540.828 437.819C540.445 438.27 540.049 438.71 539.683 439.174C533.856 446.557 527.847 453.788 520.916 460.169C519.524 461.451 519.154 462.62 519.201 464.429C519.392 471.68 520.617 478.87 520.415 486.142C520.174 486.37 519.989 486.725 520.273 486.912C520.662 487.167 520.683 486.745 520.732 486.479C522.893 485.09 523.945 482.758 525.402 480.802C529.554 475.23 532.283 468.959 534.342 462.323C536.793 454.424 537.375 445.964 541.461 438.559C542.404 437.203 543.434 435.886 543.48 434.122ZM555.747 404.176C554.197 404.567 553.434 405.707 552.954 407.115C548.818 408.976 546.309 412.708 543.017 415.541C546.521 412.955 549.711 410.012 552.867 407.03C553.927 406.77 554.805 406.153 555.625 405.488C556.044 405.148 556.476 404.597 555.696 404.098C555.876 404.373 556.049 404.373 556.174 404.077C556.21 403.992 556.156 403.869 556.144 403.763C556.012 403.9 555.88 404.038 555.747 404.176ZM512.16 472.848C510.251 478.478 508.722 484.273 506.351 489.701C502.021 499.617 499.082 510.08 494.247 519.786C492.699 522.893 490.797 525.764 488.827 528.602C478.552 543.402 469.733 559.089 461.419 575.022C451.628 593.785 445.263 613.884 439.95 634.322C437.495 643.767 434.632 653.116 432.466 662.625C427.891 682.709 423.276 702.802 420.102 723.166C417.369 740.697 413.993 758.156 412.957 775.916C412.381 785.794 412.196 795.688 412.219 805.583C412.234 811.762 412.319 817.938 411.31 824.067C411.176 824.877 411.289 825.734 411.344 826.566C412.124 838.337 412.41 850.136 413.542 861.891C414.123 867.929 413.654 874.047 414.534 880.087C414.616 880.649 414.491 881.253 414.383 881.822C414.347 882.012 414.048 882.305 413.9 882.287C413.595 882.251 413.184 882.112 413.047 881.88C412.817 881.491 412.733 881.002 412.651 880.544C412.058 877.259 411.58 873.956 411.449 870.617C411.256 865.738 410.942 860.872 410.585 856C409.476 840.912 408.835 825.809 409.642 810.656C410.059 802.813 409.67 794.927 409.639 787.06C409.637 786.712 409.61 786.339 408.84 786.192C408.024 786.811 408.346 787.93 408.321 788.845C408.046 798.616 407.712 808.386 407.601 818.159C407.415 834.485 407.692 850.81 408.669 867.107C408.916 871.229 408.574 875.301 408.654 879.396C408.678 880.639 408.771 882.018 407.641 883.032C406.502 882.729 406.485 881.856 406.438 881.07C406.276 878.334 406.151 875.596 406.025 872.858C405.974 871.767 405.961 870.636 404.706 870.185C397.877 867.732 393.12 862.346 387.594 858.065C379.761 851.998 372.555 845.234 365.783 837.999C364.062 836.16 362.496 834.222 361.172 832.095C348.514 811.758 338.393 790.398 333.122 766.812C328.977 748.265 326.389 729.56 324.979 710.651C324.775 707.912 324.886 705.176 325.101 702.436C325.679 695.07 325.891 687.661 326.811 680.339C327.954 671.242 328.437 662.013 330.547 653.087C333.86 639.075 336.538 624.887 341.063 611.186C344.043 602.162 344.984 592.823 346.142 583.478C346.895 577.395 346.645 571.327 346.49 565.272C346.331 559.044 343.489 553.83 338.757 549.739C337.581 548.722 336.167 548.149 334.579 547.864C327.937 546.674 321.158 546.607 314.618 547.506C285.631 551.492 257.152 557.942 229.102 566.29C223.421 567.981 217.656 569.389 212.327 570.819C213.919 569.871 215.856 568.718 217.798 567.562C217.543 567.168 217.453 566.857 217.307 566.828C211.926 565.782 208.616 562.325 206.179 557.641C199.313 544.444 197.336 530.617 200.404 516.045C201.999 508.471 203.634 500.941 206.388 493.654C209.347 485.823 213.172 478.51 217.27 471.217C223.019 460.99 230.532 452.331 238.84 444.3C252.057 431.525 267.086 421.584 284.166 414.415C306.256 405.143 329.263 399.349 352.575 394.507C357.885 393.404 363.398 392.761 369.011 394.359C369.335 392.896 368.528 391.93 368.063 390.965C358.556 371.22 352.532 350.29 347.309 329.127C342.789 310.811 340.095 292.147 339.283 273.311C338.036 244.355 344.144 217.206 360.752 192.94C364.127 188.009 367.953 183.434 372.04 179.099C377.57 173.233 384.185 169.27 392.278 167.843C397.074 166.998 401.765 165.573 406.541 164.595C413.749 163.118 420.77 164.661 427.738 166.3C439.105 168.973 450.054 173.01 461.113 176.69C470.812 179.918 480.566 182.984 490.243 186.276C491.851 186.823 493.194 186.881 494.677 186.252C505.622 181.617 517.053 178.216 527.853 173.212C532.458 171.078 537.389 170.157 542.36 169.726C550.31 169.037 558.287 168.397 566.26 168.284C577.055 168.132 587.62 170.052 597.736 173.808C607.568 177.459 617.752 179.894 627.709 183.096C635.523 185.609 643.219 188.433 650.821 191.544C659.59 195.133 667.675 199.828 675.147 205.632C676.036 206.322 676.774 207.278 677.954 207.556C677.538 207.228 677.099 207.189 676.636 207.441C666.663 201.557 655.93 197.335 645.173 193.195C633.285 188.618 621.002 185.262 608.772 181.749C605.575 180.831 602.369 179.87 599.289 178.625C589.694 174.745 579.69 172.801 569.422 172.152C561.914 171.677 554.419 172.474 546.921 172.777C544.423 172.877 541.925 173.104 539.442 173.4C535.045 173.926 530.922 175.399 526.759 176.889C510.433 182.735 494.522 189.773 477.681 194.143C473.887 195.128 470.031 195.879 466.197 196.703C465.382 196.878 464.533 196.903 463.823 197.404C463.254 197.804 462.618 198.447 462.178 197.371C461.832 196.527 462.528 195.994 463.178 195.741C464.389 195.271 465.645 194.885 466.911 194.592C473.86 192.982 480.781 191.273 487.513 188.886C488.497 188.538 489.46 188.129 490.594 187.685C489.411 186.107 487.802 186.619 486.539 186.407C475.583 184.571 465.071 181.127 454.527 177.781C446.142 175.121 437.896 172.025 429.293 170.045C418.546 167.572 408.023 167.447 397.186 170.37C388.642 172.674 381.012 175.959 374.883 182.334C368.341 189.14 362.401 196.408 358.002 204.849C349.219 221.701 344.461 239.521 343.81 258.589C343.339 272.383 344.904 285.962 346.545 299.56C349.929 327.613 357.643 354.599 367.147 381.111C368.992 386.256 371.343 391.22 373.466 396.266C373.604 396.595 373.715 396.97 373.951 397.217C378.126 401.583 379.138 407.583 381.943 412.656C384.068 416.502 386.095 420.401 388.194 424.262C388.59 424.991 388.998 425.778 389.598 426.322C393.847 430.176 395.887 435.52 398.994 440.14C399.924 441.524 400.793 442.978 401.208 444.605C403.705 454.406 406.802 464.067 407.998 474.171C409.135 483.782 409.642 493.403 408.877 503.07C408.303 510.319 408.589 517.602 407.944 524.856C407.285 532.261 405.352 539.375 403.517 546.525C402.099 552.054 400.388 557.537 398.507 562.877C392.409 580.192 388.444 598.039 384.62 615.909C382.506 625.79 380.519 635.749 379.507 645.833C378.865 652.233 378.633 658.673 378.135 665.088C377.545 672.695 376.196 680.217 375.406 687.797C374.083 700.486 373.658 713.175 374.54 725.97C375.353 737.75 377.011 749.427 377.925 761.185C378.445 767.855 380.135 774.34 381.893 780.772C384.877 791.684 387.448 802.691 389.946 813.72C390.376 815.618 390.679 817.676 392.319 819.29C393.239 818.558 392.84 817.731 392.811 817.012C392.276 803.898 390.663 790.895 388.79 777.916C384.972 751.45 383.441 724.794 383.273 698.101C383.165 680.961 384.221 663.83 386.577 646.771C388.928 629.75 392.431 612.976 396.287 596.283C399.203 583.655 402.993 571.22 406.628 558.768C410.098 546.877 412.732 534.784 415.761 522.786C416.399 520.26 417.176 517.768 419.041 514.865C418.874 517.105 418.835 518.669 418.63 520.211C416.71 534.641 413.47 548.788 409.484 562.776C406.289 573.991 402.581 585.065 400.234 596.515C397.509 609.813 394.427 623.048 392.086 636.412C389.701 650.025 388.431 663.787 387.743 677.621C386.849 695.619 386.581 713.594 387.614 731.585C388.325 743.955 389.052 756.328 390.527 768.633C391.633 777.856 393.196 787.024 394.288 796.249C395.325 805.003 395.809 813.81 395.847 822.632C395.856 824.856 397.18 826.284 399.643 826.653C399.751 826.669 399.917 826.552 399.975 826.599C400.951 827.385 401.912 828.434 403.236 827.29C404.435 826.254 403.7 824.815 403.778 823.567C403.955 820.718 403.875 817.854 404.768 815.079C405.207 813.713 405.289 812.262 405.189 810.827C404.338 798.673 405.135 786.519 405.173 774.365C405.218 760.3 404.94 746.215 405.583 732.174C406.487 712.408 406.365 692.606 407.741 672.865C408.47 662.402 410.044 652.022 412.079 641.735C414.273 630.641 416.558 619.56 419.091 608.539C423.782 588.124 429.197 567.882 434.806 547.709C438.723 533.619 443.065 519.626 448.022 505.84C451.41 496.417 453.815 486.711 455.818 476.897C458.627 463.132 461.669 449.414 464.42 435.638C465.328 431.094 465.852 426.446 466.186 421.819C466.901 411.914 469.136 402.277 471.074 392.592C472.404 385.942 473.392 379.193 475.434 372.715C478.059 364.385 481.628 356.441 487.322 349.713C492.899 343.123 500.399 339.377 508.537 337.164C512.802 336.005 517.299 337.22 521.658 337.883C526.024 338.547 530.318 339.478 534.394 341.244C536.827 342.299 539.473 342.462 542.015 343.06C546.978 344.229 552.169 343.744 557.749 345.891C555.331 339.971 553.241 334.853 551.15 329.735C551.248 329.158 551.346 328.582 551.443 328.005C553.543 332.392 555.664 336.77 557.727 341.175C558.225 342.239 559.138 343.386 558.787 344.51C558.212 346.354 559.657 346.235 560.675 346.723C559.342 348.417 557.744 349.244 555.706 349.207C547.708 349.063 539.789 348.478 532.187 345.636C525.441 343.115 518.393 342.031 511.233 341.608C510.412 341.559 509.536 341.548 508.76 341.775C499.39 344.514 491.188 348.712 486.059 357.739C481.582 365.619 478.536 373.866 477.099 382.78C475.356 393.592 473.361 404.365 471.753 415.196C470.565 423.202 470.286 431.352 468.52 439.265C464.268 458.31 461.348 477.671 455.463 496.327C450.846 510.965 445.993 525.533 440.969 540.036C433.744 560.891 428.507 582.249 424.175 603.855C421.695 616.226 419.198 628.593 416.738 640.968C414.227 653.599 412.553 666.34 411.842 679.203C411.81 679.781 411.931 680.368 411.98 680.951C410.996 683.216 411.488 685.588 411.584 687.942C411.606 685.584 412.691 683.379 412.449 680.987C414.522 665.398 417.84 650.057 421.486 634.771C424.002 624.225 427.371 613.936 430.577 603.603C434.56 590.771 438.81 578.006 444.173 565.669C448.061 556.726 452.296 547.934 456.365 539.07C457.903 535.718 459.391 532.344 460.929 528.993C465.133 519.831 471.211 511.861 477.096 503.783C482.772 495.992 488.544 488.267 494.464 480.661C497.14 477.223 497.478 472.959 499.2 469.199C499.792 467.905 499.036 466.354 498.305 465.121C496.066 461.344 494.154 457.351 491.084 454.108C490.356 453.339 489.802 452.397 489.222 451.5C487.6 448.988 485.22 448.746 483.11 450.924C481.929 452.144 481.184 453.632 480.606 455.208C479.755 457.527 478.916 459.852 478.065 462.191C477.547 459.827 478.354 457.578 478.51 455.302C477.622 454.549 477.468 456.09 476.737 455.807C476.143 455.155 476.495 454.487 476.764 453.837C477.218 452.738 477.571 451.573 478.187 450.571C482.141 444.141 481.513 437.362 479.654 430.558C478.015 424.563 476.372 418.554 477.054 412.296C477.697 406.392 478.374 400.457 479.805 394.684C481.618 387.373 483.286 380.091 482.198 372.481C482.127 371.98 481.966 371.364 482.578 370.746C484.717 373.943 484.844 377.467 484.625 381.007C484.404 384.582 483.523 388.042 482.508 391.479C481.567 394.664 480.603 397.87 480.741 401.26C478.385 411.373 478.789 421.307 482.481 431.085C483.233 433.077 483.367 435.256 483.491 437.412C483.717 441.361 483.391 445.186 481.366 448.787C482.02 448.641 482.428 448.452 482.706 448.145C483.964 446.759 485.766 448.037 487.158 447.178C488.271 446.492 488.41 446.658 490.739 449.731C491.744 451.057 492.857 452.303 493.85 453.638C496.703 457.48 498.881 461.698 500.595 466.152C500.881 466.896 501.197 467.679 501.06 468.569C500.355 473.161 499.78 477.791 497.036 481.752C495.274 484.294 493.43 486.78 491.683 489.332C488.056 494.63 483.732 499.421 480.374 504.913C479.528 505.705 478.764 506.556 478.368 507.674C477.948 507.823 477.758 508.131 477.749 508.566C477.392 508.771 476.963 508.939 477.278 509.487L477.277 509.483C473.021 514.776 469.413 520.491 466.264 526.497C461.783 535.041 457.988 543.912 453.892 552.64C449.24 562.552 444.711 572.507 441.098 582.879C439.062 588.724 437.234 594.634 435.209 600.481C428.23 620.634 422.165 641.06 418.126 662.019C415.331 676.517 413.137 691.124 411.192 705.765C410.843 708.388 410.747 710.984 411.102 713.6C410.551 713.75 409.936 713.84 410.081 714.661C409.489 723.696 408.876 732.73 408.92 741.793C408.923 742.388 408.955 742.985 409.004 743.578C409.055 744.187 409.182 744.79 409.945 744.855C410.892 744.935 411.106 744.288 411.168 743.526C411.196 743.169 411.214 742.811 411.258 742.457C412.696 730.872 414.363 719.311 415.517 707.699C416.755 695.232 418.824 682.895 421.319 670.66C423.288 661 425.827 651.433 428.089 641.825C431.345 627.996 435.662 614.526 440.768 601.323C447.468 583.998 453.864 566.58 459.24 548.798C461.493 541.345 464.756 534.37 468.532 527.585C472.01 521.336 475.996 515.402 479.572 509.218L479.708 509.017C480.628 507.91 481.498 506.771 482.069 505.435C483.129 504.749 483.439 503.531 484.102 502.565C487.999 496.879 491.465 490.863 496.535 486.067C499.719 483.056 502.025 479.459 503.406 475.353C505.114 470.27 507.241 465.364 509.253 460.407C511.307 455.345 510.838 449.442 508.032 444.493C508.216 447.526 508.443 450.495 508.564 453.468C508.669 456.07 507.232 457.61 504.634 457.949C501.991 458.295 500.048 457.115 498.369 455.249C494.439 450.88 491.045 446.185 489.118 440.548C488.581 438.978 487.822 437.484 487.175 435.951C482.484 424.843 479.239 413.519 482.01 401.299C483.641 394.235 485.264 387.173 486.588 380.039C487.268 376.373 487.228 372.974 485.444 369.661C485.127 369.071 484.548 368.496 485.023 367.666C486.041 367.299 486.555 368.03 486.919 368.731C488.421 371.629 489.336 374.631 488.885 377.993C488.028 384.368 486.781 390.671 485.454 396.953C483.391 406.711 483.531 416.352 486.671 425.837C488.238 430.571 490.093 435.215 491.977 439.835C493.795 444.292 499.383 451.388 502.515 453.509C503.254 452.838 502.882 451.972 502.815 451.236C502.321 445.785 501.816 440.334 501.214 434.895C500.88 431.886 499.842 428.964 497.926 426.711C492.9 420.803 491.321 413.661 489.941 406.383C489.708 405.153 489.828 403.847 489.187 402.699L489.178 402.627C491.236 406.1 492.349 409.935 493.374 413.792C493.822 415.478 494.615 416.899 496.003 417.921C497.63 419.12 499.132 418.793 500.163 417.086C501.842 414.309 502.623 411.644 500.741 408.428C499.014 405.477 497.346 402.452 496.17 399.163C494.491 394.471 494.144 389.603 493.824 384.751C493.409 378.48 493.4 372.182 493.203 365.442C495.464 370.726 496.04 375.827 496.233 380.94C496.466 387.103 499.038 392.431 501.627 397.792C501.694 397.931 501.991 397.96 502.613 398.224C502.916 395.312 503.213 392.536 503.493 389.758C503.994 384.786 504.408 379.803 505.003 374.842C505.644 369.491 506.849 364.294 509.935 359.719C510.727 358.543 511.325 357.223 512.838 356.231C512.813 357.611 512.108 358.505 511.525 359.38C507.488 365.439 506.165 372.304 505.729 379.37C505.325 385.91 505.204 392.476 504.223 398.96C503.754 402.056 506.438 402.053 507.929 403.803C508.682 401.911 509.323 400.422 509.872 398.9C512.151 392.585 516.206 387.473 520.95 382.901C522.729 381.186 525.326 380.791 528.408 379.507C524.6 384.176 522.115 388.687 519.638 393.197C514.582 402.401 512.132 412.135 513.318 422.735C514.019 429.005 514.41 435.308 515.721 441.499C515.843 442.072 515.871 442.693 516.532 443.015C517.612 442.381 517.988 441.196 518.527 440.18C521.354 434.86 525.147 430.297 529.422 426.112C535.125 420.529 540.24 414.349 546.459 409.296C547.788 408.216 547.906 407.071 547.374 405.518C546.068 401.705 544.195 398.068 543.796 393.961C543.601 391.946 543.229 389.95 543.515 387.914C543.671 386.802 543.968 385.722 545.217 385.47C546.59 385.193 547.118 386.325 547.5 387.299C549.457 392.286 551.143 397.363 552.278 402.61C552.375 403.06 552.441 403.517 552.544 404.098C555.339 403.83 556.772 402.444 557.035 399.675C557.758 392.085 558.567 384.504 559.327 376.918C559.554 374.66 559.761 372.394 560.773 370.323C561.24 369.364 561.823 368.312 563.107 368.417C564.4 368.523 564.751 369.675 565.065 370.691C565.851 373.242 565.731 375.858 565.612 378.49C565.149 388.754 562.736 398.739 561.324 408.866C561.144 410.158 560.731 411.416 560.426 412.69C560.077 413.149 559.795 413.641 560.271 414.145C560.335 414.213 560.789 413.911 561.063 413.78C561.241 413.955 561.419 414.129 561.597 414.303C561.063 416.023 559.522 415.918 558.275 416.13C557.469 414.602 558.456 412.912 557.878 411.32C558.705 411.145 558.485 410.496 558.458 409.964C558.453 409.859 558.213 409.767 558.081 409.669C558.012 410.125 557.936 410.579 557.88 411.036C557.867 411.146 557.921 411.263 557.944 411.377C556.751 412.196 556.861 413.61 556.45 414.768C555.823 416.538 555.368 418.37 554.822 420.17C552.965 426.292 549.624 431.677 546.397 437.118L546.478 437.021C545.182 438.242 544.235 439.688 543.668 441.378C540.877 445.014 540.323 449.441 539.282 453.702C537.561 460.753 535.66 467.729 532.546 474.348C530.228 479.274 526.959 483.462 523.45 487.521C523.139 487.881 522.812 488.245 522.429 488.518C521.393 489.258 520.425 490.344 518.944 489.585C517.439 488.815 518.219 487.539 518.296 486.422C518.703 480.573 517.897 474.766 517.633 468.943C517.406 463.951 516.922 458.965 516.41 453.991C515.934 449.372 514.455 444.942 513.605 440.39C511.745 430.424 510.404 420.419 511.075 410.235C511.395 405.378 513.41 401.048 515.061 396.596C515.403 395.671 516.563 394.401 515.548 393.798C514.099 392.937 513.605 394.755 513.145 395.653C512.011 397.87 511.056 400.188 510.175 402.52C509.67 403.856 509.107 405.091 507.943 406.103C506.417 405.009 504.906 403.846 503.149 403.089C503.045 402.864 502.87 402.763 502.623 402.787C501.725 401.593 500.828 400.4 499.929 399.207C499.634 399.048 500.133 398.297 499.464 398.519C499.327 398.565 499.627 399.076 500.01 399.128C500.033 400.918 500.879 402.334 502.048 403.602L502.152 403.761C503.809 408.312 506.199 412.594 506.445 417.636C506.67 422.267 507.3 426.882 507.835 431.494C508.04 433.262 508.265 435.077 508.843 436.745C511.94 445.692 513.139 454.992 514.326 464.317C514.779 467.875 515.314 471.436 514.957 474.988C513.974 484.775 512.453 494.449 509.179 503.815C506.273 512.13 503.26 520.402 499.525 528.367C495.385 537.193 490.673 545.74 486.158 554.383C475.912 573.997 464.499 592.994 455.033 613.015C449.391 624.951 444.364 637.149 440.259 649.714C438.727 654.402 437.096 659.058 435.511 663.729C435.27 663.774 435.03 663.818 434.79 663.862C436.909 649.551 441.544 635.943 446.491 622.437C450.018 612.807 454.642 603.64 459.535 594.666C468.252 578.677 477.409 562.929 486.392 547.085C496.405 529.427 504.794 511.078 510.28 491.47C511.829 485.93 512.32 480.237 513.127 474.586C513.207 474.026 512.962 473.42 512.868 472.835C513.075 471.948 513.193 471.098 512.009 470.797C513.423 468.313 512.393 465.958 511.73 463.545C509.771 467.566 507.942 471.565 506.393 475.67C504.238 481.379 500.435 485.952 496.441 490.355C495.075 491.861 493.781 493.353 492.709 495.066C488.162 502.336 483.617 509.607 479.044 516.861C472.102 527.871 465.759 539.139 462.241 551.822C460.572 557.836 458.089 563.614 456.589 569.693C458.37 566.192 459.945 562.599 461.771 559.138C470.835 541.958 481.405 525.664 491.381 509.02C493.704 505.144 496.491 501.464 497.707 497.058C499.14 491.866 501.132 486.968 504.008 482.423L504.009 482.374C505.021 483.373 504.396 484.473 503.962 485.342C501.93 489.416 500.749 493.786 499.346 498.079C498.789 499.785 498.06 501.411 497.141 502.948C493.232 509.487 489.286 516.005 485.401 522.559C479.208 533.003 473.188 543.553 466.835 553.899C462.331 561.234 459.177 569.231 455.002 576.707C453.549 579.31 451.741 581.662 450.698 584.547C446.288 596.745 441.685 608.873 437.201 621.044C436.421 623.162 435.735 625.334 435.24 627.533C432.86 638.098 429.959 648.532 427.501 659.08C424.284 672.885 421.296 686.713 419.377 700.763C418.185 709.494 416.944 718.219 415.757 726.951C415.519 728.696 415.311 730.458 415.602 732.537C415.887 731.953 416.126 731.664 416.167 731.349C418.075 716.936 420.978 702.701 423.839 688.461C427.476 670.365 432.029 652.491 436.767 634.653C441.143 618.173 446.235 601.983 452.906 586.27C458.976 571.972 467.021 558.742 474.499 545.203C477.839 539.156 481.553 533.331 485.739 527.811C488.766 523.82 491.309 519.526 493.6 515.056C499.038 504.444 503.527 493.448 507.357 482.17C508.314 479.355 509.122 476.484 510.199 473.716C510.614 472.647 510.382 471.008 512.1 470.709C512.12 471.422 512.14 472.135 512.16 472.848Z" fill="#937B34"/>
<path d="M498.48 230.016C493.921 231.615 489.425 232.976 485.098 234.749C469.179 241.273 452.85 246.893 437.987 255.784C433.368 258.547 429.071 261.738 425.326 265.627C420.082 271.073 416.363 277.315 415.258 284.927C413.701 295.659 410.668 306.1 408.988 316.809C406.613 331.948 406.027 347.151 407.17 362.429C407.748 370.152 408.059 377.903 408.902 385.597C410.198 397.431 411.52 409.263 413.641 421.001C415.059 428.848 416.38 436.724 417.572 444.608C418.835 452.966 419.561 461.405 420.498 469.81C421.093 475.139 421.711 480.465 422.198 485.804C422.657 490.831 421.957 495.791 420.928 500.701C420.795 501.337 420.779 502.145 420.101 502.594C418.996 502.63 419.074 501.805 419.08 501.136C419.089 500.065 419.131 498.986 419.27 497.925C420.162 491.122 419.635 484.406 418.458 477.663C416.982 469.214 415.844 460.708 415.17 452.149C414.551 444.294 412.601 436.638 411.677 428.831C409.535 410.742 406.253 392.786 405.398 374.544C405.17 369.667 404.587 364.807 404.197 359.937C403.088 346.096 403.802 332.306 405.477 318.555C406.372 311.206 408.138 304.039 410.544 297.04C411.096 295.435 411.334 293.858 411.376 292.162C411.706 278.926 416.642 267.895 427.112 259.51C432.545 255.16 438.589 251.864 444.804 248.824C461.515 240.649 479.101 234.871 496.926 229.743C497.339 229.624 497.829 229.451 498.48 230.016Z" fill="#937B34"/>
<path d="M685.817 437.824C687.239 434.22 688.666 430.618 690.081 427.011C692.16 421.713 694.302 416.439 696.289 411.107C700.74 399.166 706.638 387.849 711.32 376.004C713.334 370.907 715.262 365.805 716.747 360.525C717.938 356.289 719.23 352.076 720.651 347.911C722.049 343.816 722.804 339.633 723.103 335.333C723.342 331.891 723.897 328.46 723.958 325.017C724.031 320.893 724.174 316.686 721.939 312.917C720.381 303.412 715.186 295.394 711.26 286.863C705.117 273.516 695.176 263.685 682.611 256.369C671.542 249.925 659.614 245.511 647.385 241.899C637.107 238.863 626.691 236.463 615.946 235.704C613.422 235.526 610.931 234.87 608.322 234.416C608.4 235.888 609.295 235.588 609.833 235.608C611.735 235.678 613.648 235.745 615.545 235.621C627.838 234.819 639.729 237.099 651.46 240.39C660.742 242.993 669.799 246.273 678.531 250.386C688.693 255.172 697.526 261.708 704.722 270.395C708.085 274.455 710.906 278.834 713.131 283.619C716.44 290.734 719.646 297.888 723.296 304.854C727.587 313.043 729.255 321.882 727.715 331.164C727.501 332.452 727.474 333.772 727.394 335.079C727.117 339.62 726.357 344.042 724.706 348.322C723.379 351.759 722.108 355.244 721.169 358.801C718.114 370.377 713.288 381.259 708.056 391.94C703.812 400.604 699.898 409.405 696.202 418.297C693.977 423.65 691.204 428.725 688.935 434.045C688.303 435.528 687.546 437.007 685.817 437.824Z" fill="#937B34"/>
<path d="M436.778 240.257C426.171 250.766 416.044 261.707 411.538 276.37C407.834 288.423 405.391 300.814 403.43 313.278C402.598 318.566 401.958 323.884 401.243 329.19C400.27 336.413 400.608 343.693 400.292 350.945C400.125 354.787 400.173 358.673 398.901 362.372C398.183 362.234 398.24 361.803 398.253 361.483C398.556 354.215 398.023 346.961 397.897 339.7C397.76 331.812 399.043 324.042 399.971 316.246C401.424 304.05 404.389 292.158 407.268 280.251C410.671 266.173 418.996 255.187 429.34 245.531C431.656 243.369 433.893 241.019 436.934 239.775C436.806 239.911 436.754 240.072 436.778 240.257Z" fill="#937B34"/>
<path d="M410.298 256.579C409.865 256.961 409.329 257.405 410.166 257.833C410.882 258.198 411.163 257.651 411.286 257.029C411.553 256.62 411.705 256.187 411.144 255.928C410.525 255.643 410.402 256.128 410.298 256.579ZM417.832 246.78C413.376 258.434 407.405 269.475 403.85 281.495C401.893 288.112 400.04 294.753 398.763 301.541C398.631 302.243 398.65 302.997 398.392 303.644C398.066 304.462 399.172 305.905 397.983 306.019C396.353 306.175 396.893 304.511 396.897 303.593C396.903 302.055 397.056 300.499 397.325 298.982C399.577 286.276 403.022 273.947 408.937 262.395C409.421 261.449 410.74 259.969 409.62 259.323C407.996 258.384 407.795 260.589 407.073 261.473C406.254 262.477 405.664 263.672 405.007 264.803C402.158 269.705 398.742 274.289 396.665 279.658C396.095 277.65 397.179 276.081 398.028 274.513C401.369 268.334 405.256 262.497 409.317 256.772C409.771 256.133 410.482 255.651 410.566 254.779C411.28 255.73 412.06 255.83 412.656 254.744C413.245 253.673 414.141 252.7 414.053 251.342C414.856 248.995 416.955 247.394 417.694 245.01C417.74 245.6 417.786 246.19 417.832 246.78Z" fill="#937B34"/>
<path d="M522.588 291.912C531.03 296.632 537.145 303.63 542.105 311.777C542.719 312.787 543.493 313.714 544.28 314.602C545.546 316.028 545.83 317.496 544.681 319.177C543.796 318.527 544.265 317.199 543.264 316.544C540.586 314.793 539.191 311.942 537.418 309.418C533.233 303.461 528.567 297.933 522.922 293.286C522.811 292.828 522.699 292.37 522.588 291.912Z" fill="#937B34"/>
<path d="M585.219 301.388C590.901 292.667 592.692 282.622 595.434 274.784C595.552 278.247 594.398 283.289 592.641 288.172C590.905 292.998 589.836 298.247 585.219 301.388Z" fill="#937B34"/>
<path d="M592.988 340.134C602.449 339.571 611.495 336.723 619.094 335.609C611.868 338.779 602.71 341.01 592.988 340.134Z" fill="#937B34"/>
<path d="M549.011 341.799C544.404 341.384 540.029 339.908 535.591 338.718C531.28 337.561 527.108 335.999 523 334.214C531.74 336.448 540.48 338.681 549.219 340.915C549.15 341.21 549.081 341.504 549.011 341.799Z" fill="#937B34"/>
<path d="M593.992 302.553C589.634 306.702 583.665 308.703 579.755 313.758C578.682 311.806 579.844 310.926 580.74 310.101C584.554 306.588 589.139 304.398 593.992 302.553Z" fill="#937B34"/>
<path d="M524.227 328.961C530.349 331.508 536.437 334.149 543.479 335.535C542.117 336.583 541.079 336.136 540.177 335.944C535.501 334.95 531.109 333.174 526.883 330.958C526.062 330.527 525.399 329.763 524.384 329.723C524.331 329.469 524.279 329.215 524.227 328.961Z" fill="#937B34"/>
<path d="M607.902 335.719C604.046 336.595 600.054 336.129 596.078 336.067C595.712 334.607 596.792 334.619 597.525 334.62C600.253 334.623 602.991 334.624 605.676 335.245C606.431 335.42 607.192 335.569 607.902 335.719Z" fill="#937B34"/>
<path d="M525.539 324.2C528.694 325.089 531.847 325.985 535.005 326.864C536.109 327.172 537.28 327.334 538.424 328.73C533.588 327.992 529.506 326.302 525.241 325.374C525.188 324.944 525.212 324.534 525.539 324.2Z" fill="#937B34"/>
<path d="M688.999 460.602C689.907 460.565 690.441 460.977 690.508 461.787C690.575 462.598 690.076 463.166 689.298 463.236C688.523 463.306 687.965 462.85 687.89 462.021C687.813 461.184 688.246 460.712 688.999 460.602Z" fill="#937B34"/>
<path d="M582.533 869.348C582.836 869.38 583.378 869.499 583.403 869.43C583.563 868.988 583.629 869.53 583.196 869.336C583.029 869.261 582.781 869.366 582.568 869.389C582.566 869.389 582.533 869.348 582.533 869.348Z" fill="#937B34"/>
<path d="M489.186 402.699L489.088 402.658C489.088 402.658 489.186 402.644 489.181 402.635C489.177 402.627 489.186 402.699 489.186 402.699Z" fill="#937B34"/>
<path d="M575.05 439.976C575.129 439.639 575.111 439.083 575.302 438.998C578.555 437.554 581.877 436.376 585.533 437.012C585.999 437.093 586.434 437.322 586.557 438.239C582.6 438.094 578.886 439.57 574.971 439.899C574.97 439.898 575.05 439.976 575.05 439.976Z" fill="#937B34"/>
<path d="M489.568 607.006C488.991 605.795 490.233 605.348 490.607 604.536C490.579 604.751 490.552 604.966 490.524 605.18C489.759 605.524 489.547 606.179 489.541 606.955C489.55 606.965 489.568 607.006 489.568 607.006Z" fill="#937B34"/>
<path d="M504.008 482.422C504.218 482.484 504.427 482.546 504.637 482.608C504.554 482.703 504.472 482.797 504.389 482.892C504.263 482.724 504.137 482.555 504.01 482.38C504.009 482.373 504.008 482.422 504.008 482.422Z" fill="#937B34"/>
</svg>
