<svg width="144" height="100" viewBox="0 0 144 100" fill="none" xmlns="http://www.w3.org/2000/svg">
<g clip-path="url(#clip0_300_927)">
<path d="M72.3015 22.7561C72.3015 23.1765 72.3015 23.5917 72.4641 23.9913C72.5861 24.2791 72.7901 24.5245 73.0507 24.6971C73.3113 24.8697 73.617 24.9617 73.9295 24.9617C74.242 24.9617 74.5477 24.8697 74.8083 24.6971C75.0689 24.5245 75.2729 24.2791 75.3949 23.9913C75.5359 23.5962 75.5948 23.1765 75.5679 22.7578C75.5679 15.917 75.5541 9.07612 75.58 2.23702C75.58 1.29585 75.324 0.555363 74.5662 0H73.3032C72.542 0.555363 72.2842 1.29412 72.2876 2.23529C72.3136 9.07612 72.3032 15.917 72.3015 22.7561Z" fill="#937B34"/>
<path d="M57.2737 25.5589C57.7737 26.5555 58.6439 26.9015 59.5038 26.5105C60.3636 26.1195 60.6335 25.1939 60.1405 24.1956C57.9721 19.8127 55.7904 15.4332 53.5955 11.0572C53.2979 10.4655 52.8342 10.0641 52.1232 10.0572C50.8602 10.0468 50.1439 11.2821 50.7546 12.5174C52.9103 16.8738 55.0834 21.221 57.2737 25.5589Z" fill="#937B34"/>
<path d="M88.2772 26.4584C89.1561 26.929 90.0678 26.5933 90.5921 25.5501C92.7616 21.2352 94.9214 16.9157 97.0713 12.5916C97.2743 12.2583 97.3742 11.8725 97.3585 11.4826C97.3286 11.1506 97.193 10.837 96.9715 10.5879C96.7501 10.3387 96.4546 10.1672 96.1284 10.0985C95.2166 9.89438 94.6232 10.358 94.2253 11.1747C92.0782 15.4895 89.9 19.7923 87.7599 24.1072C87.2408 25.1452 87.4606 26.0189 88.2789 26.4584" fill="#937B34"/>
<path fill-rule="evenodd" clip-rule="evenodd" d="M16.3322 34.5035C16.1551 34.5053 15.98 34.5423 15.8172 34.6122C15.6544 34.6821 15.5071 34.7837 15.3838 34.911C15.2605 35.0383 15.1637 35.1888 15.0991 35.3538C15.0344 35.5187 15.0031 35.6949 15.007 35.872C15.007 36.8063 14.6073 37.2302 13.68 37.2302C11.8599 37.1973 11.8599 39.9482 13.68 39.9222C14.5727 39.9222 15.007 40.1714 15.007 41.2215C14.981 43.0433 17.725 43.0433 17.699 41.2215C17.699 40.2665 18.1471 39.9222 19.0312 39.9222C20.853 39.9534 20.853 37.2025 19.0312 37.2302C17.8305 37.2302 17.699 36.5381 17.699 35.872C17.7016 35.6918 17.668 35.5128 17.6002 35.3457C17.5325 35.1786 17.4319 35.0268 17.3045 34.8993C17.1771 34.7717 17.0254 34.671 16.8584 34.603C16.6914 34.535 16.5125 34.5012 16.3322 34.5035Z" fill="#937B34"/>
<path fill-rule="evenodd" clip-rule="evenodd" d="M23.528 56.4117C23.4307 56.4126 23.3346 56.4328 23.2451 56.4711C23.1557 56.5094 23.0748 56.5651 23.007 56.635C22.9393 56.7048 22.886 56.7874 22.8505 56.878C22.8149 56.9686 22.7976 57.0653 22.7997 57.1626C22.7997 57.6816 22.5799 57.9082 22.0713 57.9082C21.0713 57.9082 21.0713 59.3996 22.0713 59.3857C22.5626 59.3857 22.7997 59.5207 22.7997 60.0985C22.7841 61.0985 24.2927 61.0985 24.2789 60.0985C24.2789 59.5795 24.5246 59.3857 25.009 59.3857C26.009 59.3857 26.009 57.8927 25.009 57.9082C24.3498 57.9082 24.2789 57.5311 24.2789 57.1626C24.2803 57.0636 24.2618 56.9653 24.2246 56.8736C24.1874 56.7818 24.1321 56.6985 24.0621 56.6285C23.9921 56.5585 23.9088 56.5032 23.817 56.466C23.7253 56.4288 23.627 56.4103 23.528 56.4117Z" fill="#937B34"/>
<path fill-rule="evenodd" clip-rule="evenodd" d="M34.6231 15.4168C34.4941 15.4182 34.3666 15.4451 34.2481 15.4961C34.1295 15.547 34.0222 15.621 33.9325 15.7136C33.8427 15.8063 33.7722 15.9159 33.725 16.036C33.6778 16.1561 33.655 16.2844 33.6577 16.4134C33.6577 17.095 33.3671 17.403 32.6923 17.403C31.3636 17.3719 31.3636 19.384 32.6923 19.3649C33.3411 19.3649 33.6577 19.538 33.6577 20.313C33.6387 21.6383 35.6387 21.6383 35.6197 20.313C35.6197 19.621 35.9449 19.3649 36.5903 19.3649C37.9173 19.3978 37.9173 17.384 36.5903 17.403C35.7148 17.403 35.6197 16.903 35.6197 16.4134C35.6215 16.282 35.597 16.1516 35.5476 16.0298C35.4982 15.9081 35.4249 15.7975 35.3319 15.7046C35.239 15.6117 35.1284 15.5383 35.0067 15.4889C34.8849 15.4395 34.7545 15.415 34.6231 15.4168Z" fill="#937B34"/>
<path fill-rule="evenodd" clip-rule="evenodd" d="M105.438 5.49668C105.341 5.49758 105.245 5.51777 105.155 5.55611C105.066 5.59444 104.985 5.65014 104.917 5.71998C104.849 5.78982 104.796 5.87242 104.761 5.96298C104.725 6.05354 104.708 6.15027 104.71 6.24755C104.71 6.76658 104.49 6.99149 103.981 6.99149C102.981 6.99149 102.981 8.48457 103.981 8.47073C104.471 8.47073 104.71 8.60568 104.71 9.18353C104.694 10.1835 106.203 10.1835 106.189 9.18353C106.189 8.6645 106.435 8.47073 106.919 8.47073C107.919 8.47073 107.919 6.97765 106.919 6.99149C106.26 6.99149 106.189 6.61433 106.189 6.24755C106.191 6.14849 106.172 6.05012 106.135 5.95828C106.098 5.86644 106.043 5.78301 105.973 5.71296C105.903 5.6429 105.819 5.58766 105.727 5.5505C105.636 5.51335 105.537 5.49505 105.438 5.49668Z" fill="#937B34"/>
<path fill-rule="evenodd" clip-rule="evenodd" d="M125.286 66.3842C125.108 66.3862 124.933 66.4233 124.771 66.4933C124.608 66.5633 124.461 66.6648 124.337 66.792C124.214 66.9193 124.117 67.0696 124.052 67.2345C123.987 67.3994 123.955 67.5755 123.959 67.7527C123.959 68.6852 123.561 69.1091 122.633 69.1091C120.812 69.0779 120.812 71.8288 122.633 71.8029C123.526 71.8029 123.959 72.0503 123.959 73.1022C123.934 74.924 126.678 74.924 126.652 73.1022C126.652 72.1471 127.101 71.8029 127.983 71.8029C129.805 71.834 129.805 69.0831 127.983 69.1091C126.782 69.1091 126.652 68.417 126.652 67.7527C126.655 67.5723 126.622 67.3933 126.554 67.2261C126.486 67.0589 126.386 66.907 126.258 66.7794C126.131 66.6518 125.979 66.551 125.812 66.4831C125.645 66.4153 125.466 66.3816 125.286 66.3842Z" fill="#937B34"/>
<path fill-rule="evenodd" clip-rule="evenodd" d="M113.237 24.962C113.108 24.9634 112.981 24.9903 112.862 25.0412C112.744 25.0922 112.636 25.1661 112.547 25.2588C112.457 25.3515 112.386 25.461 112.339 25.5812C112.292 25.7013 112.269 25.8295 112.272 25.9586C112.272 26.6385 111.981 26.9464 111.307 26.9464C109.978 26.9153 109.978 28.9291 111.307 28.9101C111.955 28.9101 112.272 29.0831 112.272 29.8565C112.253 31.1835 114.253 31.1835 114.234 29.8565C114.234 29.1644 114.559 28.9101 115.205 28.9101C116.532 28.9413 116.532 26.9291 115.205 26.9464C114.329 26.9464 114.234 26.4464 114.234 25.9586C114.236 25.8272 114.211 25.6967 114.162 25.575C114.112 25.4533 114.039 25.3426 113.946 25.2497C113.853 25.1568 113.743 25.0835 113.621 25.0341C113.499 24.9847 113.369 24.9601 113.237 24.962Z" fill="#937B34"/>
<path d="M53.4932 70.3114L52.1092 68.692C51.9774 68.5268 51.8136 68.3898 51.6277 68.2893C51.4418 68.1888 51.2375 68.1268 51.0271 68.107C50.8167 68.0872 50.6044 68.11 50.403 68.1741C50.2016 68.2382 50.0152 68.3422 49.8549 68.4799C49.6946 68.6177 49.5637 68.7863 49.47 68.9758C49.3764 69.1652 49.3218 69.3716 49.3097 69.5826C49.2976 69.7936 49.3281 70.0049 49.3995 70.2038C49.4709 70.4027 49.5816 70.5852 49.7251 70.7404L51.1092 72.3529C51.2706 72.5427 51.4748 72.6914 51.705 72.7869C51.9351 72.8823 52.1847 72.9216 52.433 72.9017C52.6814 72.8818 52.9215 72.8031 53.1335 72.6722C53.3455 72.5413 53.5233 72.3619 53.6524 72.1487C53.8251 71.8655 53.9027 71.5345 53.8741 71.2039C53.8455 70.8734 53.712 70.5607 53.4932 70.3114Z" fill="#937B34"/>
<path d="M112.992 51.3702L100.433 32.5363C100.21 32.2037 99.8682 31.9686 99.4778 31.8789C99.3238 31.835 99.1639 31.8152 99.0038 31.8201C98.9377 31.8215 98.8718 31.8273 98.8065 31.8374H48.8065C48.5454 31.8371 48.2882 31.9015 48.0579 32.0246C47.8276 32.1478 47.6313 32.3259 47.4865 32.5432L35.047 51.1886C34.9057 51.3425 34.7967 51.5232 34.7267 51.7201C34.6567 51.917 34.627 52.1259 34.6395 52.3345C34.6519 52.5431 34.7062 52.747 34.7991 52.9342C34.892 53.1213 35.0216 53.2879 35.1802 53.4239L46.4 66.4983C46.5615 66.6875 46.7655 66.8357 46.9954 66.9308C47.2252 67.0259 47.4744 67.0652 47.7224 67.0455C47.9703 67.0257 48.2101 66.9475 48.422 66.8172C48.6339 66.6869 48.8119 66.5082 48.9415 66.2958C49.1152 66.0129 49.194 65.6819 49.1663 65.351C49.1386 65.0202 49.0059 64.7068 48.7875 64.4567L39.6698 53.8356C39.6676 53.8337 39.6661 53.8311 39.6654 53.8283C39.6648 53.8254 39.6651 53.8224 39.6662 53.8197C39.6674 53.817 39.6693 53.8148 39.6719 53.8133C39.6744 53.8118 39.6773 53.8111 39.6802 53.8114H46.5522C46.9606 53.805 47.3505 53.6398 47.6392 53.3508C47.9279 53.0617 48.0926 52.6716 48.0984 52.2632C48.1043 51.8547 47.9508 51.46 47.6705 51.1629C47.3903 50.8657 47.0053 50.6894 46.5972 50.6713H39.1975C39.1948 50.6715 39.1921 50.671 39.1897 50.6697C39.1872 50.6684 39.1853 50.6665 39.184 50.6641C39.1827 50.6617 39.1821 50.6589 39.1824 50.6562C39.1826 50.6535 39.1837 50.6509 39.1854 50.6488L48.8048 36.2145C48.806 36.2124 48.8077 36.2106 48.8099 36.2093C48.812 36.2081 48.8144 36.2074 48.8169 36.2074C48.8194 36.2074 48.8218 36.2081 48.8239 36.2093C48.8261 36.2106 48.8278 36.2124 48.829 36.2145L58.4761 50.6713H51.9484C51.5313 50.6651 51.1288 50.8248 50.8295 51.1154C50.5302 51.4059 50.3586 51.8035 50.3524 52.2206C50.3462 52.6377 50.5059 53.0401 50.7965 53.3395C51.087 53.6388 51.4846 53.8104 51.9017 53.8166H60.1525C60.1557 53.8165 60.1588 53.8175 60.1613 53.8194C60.1638 53.8213 60.1656 53.8239 60.1664 53.827L70.374 89.5813C70.3745 89.5845 70.374 89.5878 70.3725 89.5907C70.3711 89.5936 70.3688 89.5959 70.3659 89.5975C70.3631 89.599 70.3598 89.5996 70.3566 89.5992C70.3534 89.5988 70.3504 89.5973 70.348 89.5951L57.3134 74.4048C57.1934 74.2285 57.0386 74.0785 56.8586 73.9641C56.6787 73.8496 56.4772 73.773 56.2666 73.739C56.0561 73.705 55.8408 73.7142 55.6339 73.7662C55.427 73.8182 55.2329 73.9119 55.0634 74.0414C54.894 74.171 54.7527 74.3337 54.6482 74.5197C54.5438 74.7057 54.4783 74.911 54.4559 75.1231C54.4335 75.3353 54.4545 75.5497 54.5178 75.7534C54.5811 75.9572 54.6852 76.1458 54.8238 76.308C54.8584 76.3512 54.8965 76.3945 54.9345 76.436L72.7667 97.218C72.9006 97.3747 73.0641 97.5034 73.2478 97.5969C73.4315 97.6904 73.6318 97.7468 73.8373 97.7629C74.0428 97.779 74.2494 97.7544 74.4454 97.6906C74.6414 97.6268 74.8229 97.525 74.9795 97.391C75.0419 97.3382 75.0998 97.2804 75.1525 97.218L112.869 53.2733C113.093 53.0139 113.226 52.6881 113.247 52.346C113.268 52.0038 113.177 51.6641 112.986 51.3789L112.992 51.3702ZM76.8723 34.974H96.0764C96.0791 34.9738 96.0819 34.9743 96.0843 34.9756C96.0867 34.9769 96.0887 34.9788 96.09 34.9813C96.0913 34.9837 96.0918 34.9864 96.0916 34.9891C96.0913 34.9918 96.0903 34.9944 96.0885 34.9965L86.4865 49.3996C86.4853 49.4018 86.4835 49.4036 86.4814 49.4049C86.4792 49.4061 86.4768 49.4068 86.4743 49.4068C86.4719 49.4068 86.4694 49.4061 86.4673 49.4049C86.4652 49.4036 86.4634 49.4018 86.4622 49.3996L76.8619 34.9965C76.8602 34.9944 76.8591 34.9918 76.8589 34.9891C76.8586 34.9864 76.8592 34.9837 76.8605 34.9813C76.8618 34.9788 76.8637 34.9769 76.8661 34.9756C76.8685 34.9743 76.8713 34.9738 76.874 34.974H76.8723ZM83.5107 50.6713H64.3152C64.3125 50.6715 64.3097 50.671 64.3073 50.6697C64.3049 50.6684 64.3029 50.6665 64.3016 50.6641C64.3003 50.6617 64.2998 50.6589 64.3 50.6562C64.3003 50.6535 64.3013 50.6509 64.3031 50.6488L73.9 36.2543C73.9011 36.2522 73.9029 36.2504 73.905 36.2491C73.9072 36.2478 73.9096 36.2472 73.9121 36.2472C73.9145 36.2472 73.917 36.2478 73.9191 36.2491C73.9212 36.2504 73.923 36.2522 73.9242 36.2543L83.5211 50.6488C83.5228 50.6509 83.5238 50.6535 83.5241 50.6562C83.5243 50.6589 83.5238 50.6617 83.5225 50.6641C83.5212 50.6665 83.5192 50.6684 83.5168 50.6697C83.5144 50.671 83.5117 50.6715 83.5089 50.6713H83.5107ZM61.3636 49.3599L51.7892 35C51.7875 34.9979 51.7864 34.9953 51.7862 34.9926C51.7859 34.9899 51.7865 34.9871 51.7878 34.9847C51.7891 34.9823 51.7911 34.9803 51.7935 34.9791C51.7959 34.9778 51.7986 34.9772 51.8013 34.9775H70.9519C70.9546 34.9772 70.9573 34.9778 70.9597 34.9791C70.9621 34.9803 70.9641 34.9823 70.9654 34.9847C70.9667 34.9871 70.9672 34.9899 70.967 34.9926C70.9667 34.9953 70.9657 34.9979 70.964 35L61.3896 49.3599C61.3884 49.362 61.3866 49.3638 61.3845 49.3651C61.3824 49.3663 61.3799 49.367 61.3775 49.367C61.375 49.367 61.3726 49.3663 61.3704 49.3651C61.3683 49.3638 61.3665 49.362 61.3653 49.3599H61.3636ZM84.3757 53.8304L73.9207 90.436C73.9207 90.4396 73.9193 90.4432 73.9167 90.4458C73.9141 90.4484 73.9105 90.4498 73.9069 90.4498C73.9032 90.4498 73.8997 90.4484 73.8971 90.4458C73.8945 90.4432 73.893 90.4396 73.893 90.436L63.4346 53.8304C63.4337 53.8283 63.4333 53.8259 63.4336 53.8236C63.4339 53.8212 63.4348 53.819 63.4362 53.8171C63.4376 53.8152 63.4394 53.8137 63.4415 53.8127C63.4437 53.8117 63.446 53.8112 63.4484 53.8114H84.3653C84.3677 53.8112 84.3701 53.8117 84.3722 53.8127C84.3743 53.8137 84.3762 53.8152 84.3776 53.8171C84.379 53.819 84.3798 53.8212 84.3801 53.8236C84.3804 53.8259 84.3801 53.8283 84.3792 53.8304H84.3757ZM87.6577 53.8114H108.246C108.249 53.8111 108.252 53.8118 108.254 53.8133C108.257 53.8148 108.259 53.817 108.26 53.8197C108.261 53.8224 108.261 53.8254 108.261 53.8283C108.26 53.8311 108.259 53.8337 108.256 53.8356L77.4051 89.7595C77.4033 89.7627 77.4003 89.7651 77.3967 89.766C77.3931 89.767 77.3893 89.7665 77.3861 89.7647C77.3829 89.7629 77.3805 89.7598 77.3796 89.7563C77.3786 89.7527 77.3791 89.7489 77.3809 89.7457L87.6439 53.8166C87.6447 53.8136 87.6465 53.8109 87.649 53.809C87.6515 53.8071 87.6546 53.8061 87.6577 53.8062V53.8114ZM89.4259 50.6436L99.0678 36.1782C99.0692 36.1761 99.0711 36.1743 99.0734 36.1731C99.0757 36.1719 99.0782 36.1712 99.0807 36.1712C99.0833 36.1712 99.0858 36.1719 99.0881 36.1731C99.0904 36.1743 99.0923 36.1761 99.0937 36.1782L108.734 50.6436C108.735 50.646 108.736 50.6486 108.735 50.6512C108.735 50.6539 108.735 50.6564 108.733 50.6587C108.732 50.6609 108.73 50.6628 108.728 50.6641C108.725 50.6654 108.723 50.6661 108.72 50.6661H89.4449C89.4422 50.6664 89.4395 50.6658 89.4371 50.6645C89.4347 50.6632 89.4327 50.6613 89.4314 50.6589C89.4301 50.6565 89.4295 50.6537 89.4298 50.651C89.43 50.6483 89.4311 50.6457 89.4328 50.6436" fill="#937B34"/>
</g>
<defs>
<clipPath id="clip0_300_927">
<rect width="143.253" height="100" fill="white" transform="translate(0.373535)"/>
</clipPath>
</defs>
</svg>
