<svg width="300" height="300" viewBox="0 0 300 300" fill="none" xmlns="http://www.w3.org/2000/svg">
<g clip-path="url(#clip0_208_1108)">
<path d="M117.992 87.7287C119.955 88.2813 121.274 87.2506 122.589 85.9895C124.83 83.8435 126.881 81.5348 128.939 79.0565C126.83 78.1683 124.671 77.5614 122.521 76.9105C113.883 74.2899 105.079 72.8151 96.0405 72.3778C89.8195 72.0761 83.6731 72.3609 77.5097 73.0219C77.2012 73.0558 77.0045 73.2254 76.7503 73.3169C75.7942 72.7406 74.967 73.283 74.1161 73.622C70.5123 73.7271 67.0373 74.6221 63.5725 75.4765C59.3144 76.5274 55.1343 77.8394 51.2016 80.1177C51.1237 78.965 51.9983 78.609 52.6289 78.1446C56.7446 75.1273 61.4502 73.4762 66.3593 72.3168C75.784 70.0894 85.3241 68.9639 95.0201 69.0113C108.167 69.0757 120.701 71.9439 132.801 76.9376C138.205 79.1684 142.907 82.6128 147.833 85.6674C150.016 87.0235 152.094 88.5084 154.003 90.2374C154.457 90.6476 154.908 91.0511 155.064 91.6783C154.742 91.8478 154.484 91.7766 154.159 91.5867C152.362 90.5425 150.603 89.4102 148.711 88.5661C146.531 87.5931 144.683 86.0641 142.493 85.1148C140.259 84.1486 138.12 82.9756 135.909 81.9518C134.048 81.0906 132.143 80.3211 130.265 79.4972C129.797 79.2904 129.414 79.1481 129.098 79.7549C127.427 83.0027 124.881 85.5386 122.162 88.0745C123.654 88.6915 124.925 88.9797 126.183 87.7321C127.586 86.3387 129.102 85.0606 130.566 83.7316C130.675 83.735 130.787 83.7418 130.899 83.7452C130.997 83.8096 131.095 83.8706 131.197 83.935C129.787 85.8573 128.078 87.4981 126.044 89.1322C127.783 89.6543 129.292 90.3018 130.861 90.5256C132.306 90.7324 133.536 89.6407 134.77 89.0407C136.794 88.0575 138.618 86.6641 140.513 85.4233C140.761 85.2606 140.971 85.1046 141.496 85.2538C139.028 88.1016 135.611 89.356 132.716 91.1663C134.848 92.9733 137.065 92.241 139.269 91.3426C141.469 90.4442 143.663 89.5221 145.843 88.5694C146.144 88.4372 146.378 88.2033 146.734 88.3626C145.761 90.0238 142.246 91.6647 137.564 93.292C138.937 94.7261 139.456 94.8379 141.14 93.9972C142.202 93.4683 143.246 92.8987 144.297 92.3495C144.327 92.5699 144.361 92.7902 144.392 93.0072C143.093 93.7259 141.791 94.4413 140.523 95.1431C141.995 96.7771 143.734 96.4246 145.544 96.0177C149.487 95.1363 153.352 94.0073 157.156 92.6479C157.4 92.5597 157.603 92.5563 158.102 92.7258C153.993 95.733 149.328 96.8144 144.683 97.9773C146.178 100.069 146.68 100.239 149.002 99.7571C151.545 99.2283 153.993 98.3638 156.491 97.6891C156.708 97.7637 156.996 97.7094 157.098 98.0078C154.43 99.8181 151.342 100.52 148.287 101.317C148.996 103.195 149.08 103.259 150.877 102.608C152.874 101.886 154.837 101.083 156.837 100.371C157.38 100.178 157.942 99.8724 158.756 100.106C156.071 101.598 153.338 102.602 150.633 103.656C149.284 104.181 147.89 104.598 146.409 104.547C145.988 104.534 145.426 104.571 145.426 104.002C145.426 103.398 146.005 103.693 146.317 103.673C147.067 103.625 147.778 103.469 148.633 103.198C147.626 102.147 146.677 101.456 145.246 101.744C144.32 101.93 143.375 102.056 142.429 101.849C142.198 101.798 141.964 101.723 141.829 102.012C141.69 102.3 141.927 102.435 142.083 102.595C142.914 103.436 143.751 104.269 144.578 105.114C145.595 106.148 146.158 107.416 146.494 108.843C143.449 106.612 141.018 103.717 137.71 101.883C134.53 100.12 131.461 98.1468 127.892 97.2314C127.193 97.0517 126.481 96.767 125.546 96.9263C126.644 97.6383 127.631 98.2756 128.617 98.9164C130.665 100.245 131.506 102.154 131.929 104.558C132.963 110.416 131.394 115.647 128.532 120.82C129.97 120.57 131.092 120.119 131.889 119.007C132.112 118.695 132.417 117.878 132.746 119.037C132.865 119.461 133.404 119.017 133.689 118.898C136.726 117.634 139.378 115.762 141.846 113.61C142.022 113.454 142.181 113.277 142.358 113.118C142.673 112.826 143.08 112.335 143.453 112.694C143.89 113.121 143.253 113.406 142.998 113.684C140.181 116.813 136.865 119.241 133.028 121.014C127.02 123.787 120.708 125.146 114.154 125.919C107.781 126.672 101.516 126.184 95.2133 125.492C89.6669 124.882 84.1985 123.872 78.7234 122.804C76.3434 122.336 73.9737 121.658 71.5259 121.522C71.292 121.509 71.0649 121.427 70.8343 121.376C67.8069 120.705 66.9763 118.23 69.0172 115.854C70.2072 114.467 71.8243 113.626 73.3533 112.698C74.2585 112.148 74.9772 111.447 75.7027 110.687C79.4184 106.792 82.7408 102.503 86.8938 99.0486C91.8062 94.9634 97.5695 92.7292 103.852 91.7122C108.757 90.9189 113.642 90.946 118.528 91.7664C120.287 92.0614 121.921 92.9564 123.776 92.8614C124.295 92.8343 124.874 93.3768 125.169 92.3834C125.254 92.102 126.186 92.0715 127.02 91.8512C125.335 91.4274 123.986 90.6002 122.491 91.6986C122.111 91.9766 121.481 92.4309 121.094 91.9325C120.657 91.3664 121.576 91.163 121.745 90.668C120.592 90.3154 119.491 90.0815 118.351 90.8138C117.819 91.1562 117.002 91.8715 116.951 90.2612C116.931 89.6136 116.002 89.8136 115.412 89.9967C115.087 90.0984 114.548 90.9121 114.463 89.7797C114.46 89.7323 114.029 89.695 113.795 89.6882C109.252 89.5187 104.736 89.5967 100.397 91.2172C98.5459 91.9088 96.6711 92.5563 94.8065 93.1971C88.1922 95.4787 83.29 100.222 78.1809 104.598C72.7634 109.24 67.4882 114.074 62.8199 119.512C62.3147 120.102 61.7689 120.688 60.8909 121.037C60.8298 120.207 61.3791 119.844 61.735 119.39C64.9015 115.352 68.6917 111.921 72.4142 108.422C72.8312 108.033 73.6991 107.751 73.4753 107.11C73.2855 106.575 72.4549 106.968 71.9226 106.832C71.7395 106.785 71.5497 106.785 71.3598 106.761C71.5463 106.602 71.7327 106.439 71.9192 106.28C74.0788 106.551 75.6044 105.293 77.0859 104.046C78.2318 103.083 79.276 101.998 80.5168 101.144C80.6524 101.039 80.788 100.93 80.9236 100.825C81.9813 99.9097 83.0933 99.0486 84.0765 98.062C84.9071 97.228 85.7513 96.4618 86.8463 96.0042C86.9514 95.4719 87.5142 95.5228 87.8159 95.238C88.3753 94.6786 89.6127 94.6583 89.2872 93.3937L89.2432 93.37C90.0772 94.2243 90.623 93.3361 91.1756 92.9835C92.1621 92.3597 91.1959 91.6376 91.1213 90.7188C92.2503 93.1666 93.5657 91.7054 94.7692 91.1324C99.3189 88.9763 104.075 87.627 109.1 87.2405L109.069 87.21C108.93 87.4846 109.039 87.6982 109.313 87.6812C111.995 87.5456 114.68 87.3829 117.362 87.2303C117.595 87.3659 117.558 87.8473 117.992 87.7287ZM92.6266 115.04C92.7181 115.21 92.8029 115.379 92.891 115.549C92.8131 115.657 92.6469 115.827 92.6707 115.861C93.4403 116.942 93.6843 118.264 94.3149 119.407C95.9693 122.4 99.8681 124.37 102.594 123.577L102.567 123.55C102.458 124.255 102.997 124.146 103.38 124.167C104.953 124.255 106.526 124.414 108.096 124.367C110.927 124.275 113.751 124.031 116.582 123.889C118.911 123.773 121.155 123.231 123.393 122.648C124.474 122.366 125.495 121.922 124.667 120.227C126.464 121.353 126.759 119.864 127.42 119.095C128.112 118.291 127.024 118.339 126.813 117.946C127.308 117.735 127.997 118.152 128.241 117.312C128.675 115.82 129.329 114.382 129.661 112.87C129.919 111.697 129.973 110.423 129.79 109.243C129.749 108.978 128.339 108.931 127.563 108.772C127.539 108.768 127.539 108.639 127.525 108.558C128.01 108.558 128.509 108.456 128.946 108.578C130.041 108.887 130.149 108.416 129.97 107.514C129.773 106.544 129.658 105.561 129.509 104.585C129.593 104.354 129.6 104.141 129.393 103.964C129.346 103.876 129.295 103.788 129.248 103.7C129.302 103.385 129.407 103.059 129.068 102.825C128.685 102.12 128.22 101.479 127.637 100.923C126.454 99.7876 125.013 98.9028 124.074 97.5399C123.023 96.0143 121.525 95.6448 119.85 95.4516C119.023 95.3566 118.277 95.7262 117.477 95.6618L117.521 95.6787C116.833 95.1024 115.904 95.2482 115.219 95.316C111.91 95.655 108.591 95.5058 105.279 95.6957C101.482 95.9092 98.7764 97.584 96.7999 100.696C96.2168 101.612 95.5727 102.49 95.0336 103.429C93.3928 106.28 92.4706 109.338 92.552 112.657L92.5351 112.62C92.4876 113.308 92.4401 113.993 92.3927 114.681C92.3452 114.877 92.4028 115.01 92.6266 115.04ZM73.6821 115.339C73.8415 115.335 74.0008 115.328 74.1601 115.325C74.2076 115.4 74.2212 115.481 74.1974 115.566C74.1195 115.813 74.15 116.027 74.3839 116.179C74.5161 117.132 74.5704 118.105 74.8077 119.034C75.0179 119.854 75.0009 120.922 76.3468 120.943C79.9947 120.997 83.5375 121.943 87.1548 122.285C89.0228 122.461 90.8637 123 92.7656 122.966C90.6433 119.298 88.677 115.827 89.3618 111.44C90.4535 104.408 94.1013 99.1977 100.18 95.5126C99.5901 95.4753 99.0917 95.438 98.5391 95.6279C92.4876 97.7061 87.3243 101.195 82.8018 105.636C79.9099 108.477 77.5232 111.816 74.3263 114.369C74.2279 114.447 74.2008 114.616 74.1398 114.742C73.9194 114.783 73.6787 114.796 73.594 115.067C73.2177 115.094 73.116 115.505 72.6854 115.596C71.4209 115.864 70.1936 116.417 70.0173 117.898C69.8512 119.302 71.1632 119.529 72.0684 120.034C72.1497 120.078 72.2413 120.109 72.3328 120.122C73.0278 120.237 73.6516 121.241 74.1839 120.834C74.7534 120.404 73.9093 119.62 73.872 118.952C73.855 118.624 73.8347 118.298 73.8143 117.969C73.8923 117.813 73.872 117.681 73.7194 117.579C73.5635 116.837 73.6177 116.088 73.6821 115.339ZM144.68 100.239C144.493 100.076 144.27 99.9165 144.09 99.7198C142.683 98.2146 140.74 98.4349 138.967 98.0925C138.472 97.9976 137.771 98.0281 137.604 97.523C137.425 96.9772 138.327 96.967 138.537 96.5161C137.679 95.5906 136.706 96.7229 135.72 96.194C136.872 95.5363 136.411 95.2142 135.57 94.8413C134.77 94.4887 134.021 94.1768 133.133 94.4718C132.74 94.604 132.061 94.682 132.109 94.1497C132.194 93.1598 131.455 93.2852 130.966 93.0377C129.339 92.2139 127.81 92.8886 126.22 93.3869C132.316 94.6583 136.74 98.8757 141.761 102.073C141.812 99.8995 143.798 101.235 144.68 100.239ZM73.7703 107.077C73.8076 107.046 73.8415 107.016 73.8787 106.985C73.8448 106.951 73.8143 106.917 73.7804 106.883C73.7431 106.931 73.7058 106.978 73.6686 107.026C73.7025 107.039 73.7364 107.056 73.7703 107.077Z" fill="#C1B28A"/>
<path d="M272.67 182.302C270.948 177.769 269.521 173.142 268.073 168.521C266.944 164.92 265.764 161.334 264.574 157.753C264.425 157.306 264.395 156.726 263.717 156.377C263.276 157.414 263.849 158.282 263.971 159.12C265.269 167.805 266.361 176.515 267.307 185.241C268.422 195.524 269.267 205.833 270.009 216.15C270.121 217.699 270.29 219.259 270.077 220.815C269.863 222.374 270.46 223.869 270.395 225.415C270.301 226.202 270.158 226.995 270.524 227.754C270.541 229.26 270.558 230.768 270.575 232.274C270.419 232.277 270.263 232.277 270.111 232.28C270.09 231.823 270.07 231.365 270.05 230.907C270.148 230.589 270.189 230.277 269.914 230.016C269.487 224.652 269.046 219.289 268.636 213.926C268.043 206.2 267.276 198.49 266.442 190.788C265.571 182.756 264.564 174.745 263.5 166.741C262.754 161.123 261.998 155.509 261.184 149.902C261.025 148.803 260.679 147.701 260.238 146.678C253.082 129.961 245.46 113.457 237.622 97.0484C237.402 96.5839 237.344 95.5567 236.327 96.2686C236.29 96.2958 236.063 96.1669 236.029 96.072C235.897 95.7093 236.073 95.3601 236.358 95.2177C237.846 94.4684 236.798 94.0141 236.178 93.5158C219.244 79.8465 202.686 65.7534 187.115 50.5178C180.219 43.7713 173.137 37.2146 166.136 30.5732C165.621 30.085 165.062 29.6477 164.543 29.1629C164.306 28.9391 163.692 28.8238 164.038 28.3526C164.312 27.9763 164.75 28.3085 165.068 28.4645C166.011 28.9222 166.811 29.6002 167.594 30.2816C176.114 37.713 184.42 45.3782 192.702 53.074C199.56 59.4476 206.643 65.5703 213.796 71.6184C231.812 86.8574 250.498 101.31 267.71 117.488C269.395 119.071 271.012 120.732 272.664 122.353C272.65 122.6 272.643 122.851 272.365 122.973C265.832 118.281 259.801 112.955 253.553 107.89C253.621 109.379 254.739 110.297 255.055 111.575C255.014 111.748 255.079 111.864 255.245 111.928C255.329 112.257 255.801 112.637 255.34 112.904C254.824 113.203 254.777 112.606 254.634 112.318C254.048 111.118 253.421 109.931 252.933 108.687C252.119 106.605 250.776 105.002 248.908 103.808C248.712 103.697 248.512 103.615 248.288 103.741C248.376 103.873 248.461 104.005 248.549 104.137C251.231 109.433 253.919 114.728 256.262 120.187C257.079 122.088 257.719 124.065 258.672 125.916C258.791 126.15 259.099 126.486 258.614 126.869C257.689 126.038 257.469 124.821 257.014 123.767C253.811 116.318 250.312 109.019 246.328 101.957C246.145 101.635 245.905 101.317 245.62 101.083C243.437 99.2791 241.301 97.4213 238.972 95.8008C238.761 95.7194 238.548 95.6618 238.344 95.8245C238.466 95.933 238.589 96.0415 238.711 96.15C248.149 113.711 256.411 131.829 263.927 150.281C267.778 159.744 270.45 169.579 272.579 179.563C272.714 180.19 272.436 180.888 272.908 181.454C272.799 181.729 272.982 182.085 272.67 182.302Z" fill="#C1B28A"/>
<path d="M248.41 257.846C247.725 253.608 247.634 249.32 247.352 245.045C246.674 234.759 246.664 224.442 246.125 214.153C245.8 207.939 244.823 201.755 244.054 195.568C242.915 186.421 241.725 177.278 241.362 168.063C240.694 151.078 238.758 134.253 235.331 117.6C235.273 117.322 235.195 117.051 235.127 116.776C235.137 115.878 235.124 114.986 234.673 114.169C233.358 108.284 232.018 102.405 230.747 96.5127C230.473 95.238 230.181 93.9396 230.323 92.6072C230.412 92.275 230.395 91.9699 230.086 91.7427C230.035 91.6614 230.018 91.5766 230.032 91.4851C230.1 91.2579 230.059 90.9765 230.357 90.8714L230.354 90.868C230.422 90.9765 230.493 91.085 230.561 91.1935C232.846 100.496 235.466 109.718 237.341 119.122C239.443 129.686 241.586 140.243 242.477 150.997C243.013 157.452 243.318 163.924 243.708 170.389C244.193 178.41 244.959 186.407 245.854 194.395C247.054 205.094 248.39 215.784 248.515 226.571C248.454 227.537 248.268 228.507 248.654 229.45C248.668 230.1 248.681 230.755 248.692 231.409C247.797 230.968 248.644 229.968 247.919 229.304C247.952 230.846 247.661 232.267 248.095 233.677C248.241 238.586 248.386 243.495 248.529 248.404C248.437 249.099 248.302 249.798 248.671 250.462C248.712 252.72 248.756 254.974 248.797 257.232C248.637 257.52 248.807 257.927 248.464 258.148C248.481 258.114 248.525 258.07 248.515 258.043C248.491 257.971 248.447 257.91 248.41 257.846Z" fill="#C1B28A"/>
<path d="M233.449 114.179C225.614 102.988 216.952 92.4274 208.687 81.5618C196.136 65.0583 181.572 50.5414 165.919 37.045C161.478 33.2141 156.942 29.5018 152.07 26.2234C151.826 26.0607 151.341 25.9963 151.562 25.5488C151.748 25.1725 152.162 25.0708 152.548 25.2166C153.074 25.4132 153.606 25.6302 154.084 25.9217C156.305 27.2744 158.471 28.7153 160.502 30.3426C161.163 30.8714 161.804 31.3054 162.902 30.8646C161.81 31.5868 162.458 31.8885 162.936 32.2851C166.136 34.9465 169.415 37.5196 172.496 40.3132C187.417 53.8367 201.466 68.1502 213.321 84.5249C218.556 91.7562 224.59 98.401 229.303 106.026C230.849 108.524 232.245 111.114 233.713 113.66C233.625 113.833 233.537 114.006 233.449 114.179Z" fill="#C1B28A"/>
<path d="M151.382 119.871C151.01 119.841 150.64 119.807 150.267 119.776C150.111 119.532 149.887 119.529 149.643 119.61C147.965 119.366 146.28 119.156 144.609 118.861C143.86 118.729 143.28 118.82 142.656 119.322C141.195 120.509 139.659 121.6 138.028 122.824C139.168 123.183 140.205 123.512 141.246 123.841C141.534 123.933 141.792 124.085 141.724 124.431C141.663 124.75 141.415 124.709 141.181 124.607C138.086 123.241 135.269 123.878 132.618 125.78C132.407 125.933 132.123 125.98 131.851 126.089C132.136 126.733 132.774 126.747 133.204 127.055C133.364 127.17 133.675 127.255 133.557 127.577C133.445 127.875 133.201 127.865 132.984 127.743C129.702 125.936 127.061 128.455 123.966 128.916C124.881 130.252 126.292 131.123 126.115 132.846C125.166 131.92 124.268 131.062 123.386 130.184C122.888 129.689 122.328 129.408 121.613 129.527C120.925 129.476 120.226 129.343 119.603 129.788C119.426 129.798 119.247 129.808 119.067 129.815C117.708 129.682 116.392 130.011 115.063 130.198C114.68 130.235 114.297 130.276 113.914 130.316C113.71 130.049 113.527 130.12 113.358 130.35C112.907 130.367 112.456 130.388 112.009 130.405C109.886 130.276 107.764 130.259 105.638 130.391C105.276 130.377 104.916 130.367 104.554 130.354C104.194 130.042 103.825 129.977 103.431 130.289C103.242 130.276 103.048 130.259 102.858 130.245C102.73 130.099 102.587 130.093 102.431 130.201C102.34 130.194 102.245 130.191 102.153 130.184C101.624 130.15 101.096 130.116 100.57 130.083C99.9089 130.028 99.2512 129.974 98.5901 129.92C98.2206 129.666 97.824 129.727 97.4239 129.811C96.1492 129.659 95.4474 130.625 94.6846 131.333C93.0472 132.846 91.4978 134.459 90.118 136.222C90.0265 136.009 89.9383 135.792 89.8468 135.578C91.2673 133.418 92.9827 131.496 95.027 129.472C92.9522 129.16 91.1452 128.92 89.3552 128.608C86.0532 128.035 82.7104 127.608 79.4762 126.763C76.425 125.967 73.4246 125.943 70.3599 126.279C69.0411 126.424 67.7732 126.241 66.5459 125.685C70.8684 124.733 75.1096 123.539 79.6287 124.631C85.3683 126.018 91.2266 126.889 97.0815 127.564C106.767 128.676 116.463 129.13 126.058 126.424C133.038 124.455 138.9 120.729 143.985 115.728C145.823 113.921 147.277 111.725 149.091 109.792C149.104 111.925 147.663 113.399 146.558 115.02C146.477 115.132 146.399 115.247 146.317 115.359C146.314 115.457 146.27 115.532 146.185 115.583C145.873 115.732 145.687 115.966 145.69 116.325C145.294 116.769 144.897 117.213 144.355 117.82C146.935 118.386 149.44 118.464 151.671 119.593C151.576 119.692 151.477 119.783 151.382 119.871Z" fill="#C1B28A"/>
<path d="M241.955 70.9845C233.558 65.9534 225.645 60.2443 218.288 53.7826C210.762 47.1649 203.297 40.476 195.791 33.838C194.635 32.8141 193.38 31.8988 192.228 30.8071C194.194 31.2309 196.299 30.8953 198.008 32.4344C204.473 38.2554 210.969 44.0391 217.495 49.7889C224.59 56.0404 231.9 62.0343 239.253 67.9808C240.26 68.7944 241.25 69.6386 242.247 70.4658C242.148 70.6421 242.05 70.8116 241.955 70.9845Z" fill="#C1B28A"/>
<path d="M24.375 151.671C24.4055 151.854 24.436 152.038 24.4665 152.221C24.2597 152.241 24.0495 152.261 23.8393 152.278C22.4087 148.173 21.6221 143.921 21.3984 139.609C20.7678 127.479 22.3375 115.657 26.7413 104.276C29.1992 97.9197 33.0132 92.4445 37.6782 87.5321C38.2036 86.9795 38.8173 86.159 39.814 87.0201C39.4139 87.3795 38.9834 87.627 38.6579 88.0304C31.8402 96.5331 27.6296 106.222 25.3615 116.834C23.2494 126.713 22.6358 136.66 23.6325 146.715C23.7851 148.257 23.663 149.834 24.2428 151.319C24.2902 151.434 24.3343 151.553 24.375 151.671Z" fill="#C1B28A"/>
<path d="M266.222 222.215C266.259 222.642 266.297 223.069 266.334 223.493C266.171 223.486 266.012 223.479 265.849 223.469C264.544 216.594 263.802 209.64 262.957 202.704C262.201 196.514 261.486 190.32 260.862 184.116C260.252 178.051 259.774 171.972 259.238 165.897C259.065 163.968 258.869 162.042 258.72 160.11C258.686 159.682 258.415 159.001 259.028 158.889C259.72 158.764 259.75 159.496 259.849 159.981C260.591 163.646 260.964 167.358 261.31 171.074C262.239 180.956 262.964 190.852 264.046 200.721C264.802 207.623 265.737 214.512 266.117 221.452C266.042 221.727 266.063 221.981 266.222 222.215Z" fill="#C1B28A"/>
<path d="M198.516 169.551C211.064 181.993 220.705 196.107 224.14 213.787C222.946 212.319 222.153 210.641 221.492 208.891C218.058 199.816 213.796 191.164 208.494 183.014C205.548 178.484 202.015 174.46 198.449 170.45C198.36 170.351 198.316 170.216 198.252 170.097C198.32 169.904 198.252 169.646 198.516 169.551Z" fill="#C1B28A"/>
<path d="M269.528 79.687C268.955 80.1176 268.545 79.6938 268.172 79.5073C254.838 72.8693 242.566 64.6243 231.151 55.0775C231.005 54.9554 230.846 54.847 230.724 54.7046C230.412 54.3486 229.635 54.0672 230.11 53.501C230.517 53.0196 231.069 53.5282 231.48 53.8163C237.341 57.9558 243.033 62.3393 249.034 66.2787C254.991 70.191 261.001 74.0254 266.982 77.9038C267.843 78.4665 268.667 79.0836 269.528 79.687Z" fill="#C1B28A"/>
<path d="M82.0731 138.918C81.7137 138.873 81.3577 138.829 80.9984 138.785C80.8492 138.551 80.6356 138.541 80.3983 138.616C80.1712 138.592 79.944 138.568 79.7169 138.545C79.4999 138.348 79.2456 138.284 78.9609 138.345C78.5981 138.29 78.2388 138.236 77.876 138.182C77.8048 138.026 77.6895 137.995 77.537 138.06C77.2692 138.022 77.0047 137.989 76.7369 137.951C76.5979 137.714 76.3877 137.69 76.1504 137.758H76.1538C76.1538 137.568 76.1538 137.378 76.1538 137.192C76.2962 137.209 76.4419 137.229 76.5843 137.246C76.7911 137.453 77.0352 137.511 77.3166 137.453C77.5438 137.48 77.7743 137.504 78.0014 137.531C78.2116 137.734 78.4625 137.792 78.7473 137.731C79.1134 137.782 79.483 137.833 79.8525 137.88C80.0017 138.1 80.2085 138.104 80.4322 138.026C80.6628 138.05 80.8967 138.07 81.1272 138.094C81.4256 138.351 81.768 138.392 82.1375 138.311C82.5104 138.351 82.8833 138.392 83.2563 138.433C83.4156 138.66 83.6326 138.66 83.8631 138.578C85.0395 138.965 86.2634 139.067 87.4906 139.151C87.7144 139.141 87.9348 139.134 88.1585 139.124C89.4434 139.748 90.9012 139.568 92.2098 139.633C101.543 140.087 110.853 141.145 120.216 140.853C123.403 140.752 126.59 140.657 129.777 140.555C129.994 140.653 130.2 140.66 130.384 140.484C130.763 140.44 131.14 140.399 131.519 140.355C131.614 140.518 131.709 140.68 131.804 140.847C125.078 142.003 118.294 142.05 111.497 141.891C104.404 141.725 97.3595 140.958 90.3079 140.287C87.7585 140.043 85.209 139.687 82.7037 139.094C82.5443 138.853 82.324 138.833 82.0731 138.918Z" fill="#C1B28A"/>
<path d="M178.708 38.1605C179.48 37.7808 179.969 38.3436 180.521 38.6555C183.288 40.215 185.624 42.3406 187.953 44.4493C195.553 51.3281 203.117 58.2475 210.694 65.1567C211.481 65.872 212.23 66.6281 213.013 67.3468C213.166 67.4858 213.301 67.618 213.206 67.8045C213.047 68.1096 212.813 67.9706 212.63 67.8248C211.938 67.2688 211.25 66.7094 210.569 66.1365C200.974 58.0847 191.889 49.4668 182.501 41.1846C181.298 40.12 179.989 39.1742 178.708 38.1605Z" fill="#C1B28A"/>
<path d="M218.2 69.3096C215.081 67.0924 212.257 64.5193 209.358 62.0376C203.761 57.2405 198.178 52.423 192.841 47.3309C192.343 46.8529 191.241 46.2426 191.865 45.5782C192.594 44.8018 193.092 46.0189 193.587 46.4562C200.286 52.3654 206.941 58.3253 213.654 64.2141C215.42 65.7635 216.834 67.6925 218.848 68.974C219.193 69.1943 219.926 69.5808 219.617 69.9639C219.146 70.5436 218.81 69.7164 218.414 69.4927C218.343 69.4317 218.271 69.3706 218.2 69.3096Z" fill="#C1B28A"/>
<path d="M36.6476 198.253C32.1217 189.696 28.918 180.681 27.4297 171.101C27.1483 169.297 26.7821 167.409 27.7382 165.588C29.1926 176.857 33.2812 187.346 36.9799 197.948C36.99 198.046 37.0002 198.144 37.0104 198.246V198.243C36.8917 198.243 36.7697 198.246 36.6476 198.253Z" fill="#C1B28A"/>
<path d="M229.13 72.988C224 68.7231 219.288 63.9972 214.25 59.6306C210.568 56.4404 206.86 53.2807 203.185 50.0838C202.723 49.6837 201.737 49.2226 202.201 48.6158C202.707 47.9581 203.344 48.8734 203.795 49.2159C210.518 54.3113 216.617 60.1255 222.736 65.9059C224.956 68.0044 227.082 70.2012 229.248 72.3506C229.208 72.5642 229.167 72.7744 229.13 72.988Z" fill="#C1B28A"/>
<path d="M211.864 125.994C213.844 125.879 215.824 125.767 217.803 125.651C217.807 125.784 217.814 125.916 217.817 126.048C217.447 126.068 217.078 126.092 216.708 126.113C216.481 126.021 216.274 126.024 216.125 126.255C209.664 127.035 203.195 126.909 196.743 126.269C190.448 125.645 184.166 124.885 177.887 124.102C174.965 123.736 172.025 123.356 169.293 122.122C169.496 122.021 169.7 121.922 169.903 121.821C170.168 121.868 170.432 121.912 170.7 121.96C170.836 122.193 171.039 122.207 171.269 122.139C174.046 122.912 176.911 123.183 179.755 123.526C185.41 124.204 191.072 124.831 196.74 125.387C199.69 125.675 202.663 125.767 205.622 125.946C207.697 126.299 209.779 126.255 211.864 125.994Z" fill="#C1B28A"/>
<path d="M258.31 191.127C258.405 192.069 258.5 193.015 258.594 193.957C258.466 193.951 258.34 193.944 258.211 193.937C258.174 193.584 258.14 193.235 258.103 192.883C258.171 192.723 258.133 192.601 257.974 192.523C256.313 182.363 255.431 172.107 254.387 161.889C255.113 162.51 255.153 163.469 255.289 164.347C256.187 170.09 256.615 175.888 257.279 181.658C257.608 184.519 257.862 187.387 258.147 190.255C258.059 190.574 258.015 190.882 258.31 191.127Z" fill="#C1B28A"/>
<path d="M191.146 114.318C192.848 114.267 194.546 114.213 196.248 114.162C196.211 114.24 196.208 114.325 196.238 114.406C195.974 114.433 195.709 114.464 195.445 114.491C195.292 114.416 195.18 114.447 195.113 114.61C185.647 115.457 176.222 115.647 166.991 112.884C173.198 113.901 179.473 114.084 185.749 114.294C187.546 114.633 189.346 114.627 191.146 114.318Z" fill="#C1B28A"/>
<path d="M75.3061 81.3788C70.5225 85.803 66.3695 90.8443 61.6436 95.3295C60.7892 96.1432 59.9824 97.0246 58.8093 97.4145L58.7822 97.4484C63.8167 91.6681 68.8681 85.9081 74.8891 81.0974C75.0281 81.1889 75.1671 81.2839 75.3061 81.3788Z" fill="#C1B28A"/>
<path d="M41.5431 222.056C39.7937 218.001 38.997 213.688 38.1122 209.4C37.8545 208.152 37.6816 206.888 37.4714 205.633C37.3969 205.186 37.085 204.498 37.641 204.389C38.3326 204.254 38.2444 205.111 38.3393 205.525C39.0615 208.746 39.7022 211.983 40.404 215.211C40.8413 217.218 41.3397 219.215 41.8109 221.215C41.699 221.489 41.9024 221.862 41.5431 222.056Z" fill="#C1B28A"/>
<path d="M73.0349 68.6587C73.3163 68.6282 73.5976 68.5977 73.8824 68.5671C73.9706 68.6994 74.0587 68.8316 74.1469 68.9638C67.8682 69.9503 61.5285 70.6555 55.5244 72.9405C55.182 73.0727 54.5921 73.4728 54.4057 72.9575C54.1887 72.3506 54.9312 72.3031 55.3142 72.137C58.8502 70.6148 62.5862 69.8554 66.3799 69.3367C68.3869 69.0621 70.3871 68.696 72.428 68.7333C72.645 68.835 72.8518 68.8451 73.0349 68.6587Z" fill="#C1B28A"/>
<path d="M255.452 191.693C255.499 192.259 255.543 192.825 255.591 193.388C255.513 193.666 255.435 193.944 255.357 194.222C255.333 193.957 255.309 193.696 255.282 193.432C255.231 193.273 255.18 193.113 255.13 192.954C253.885 185.814 253.167 178.613 252.4 171.345C253.258 171.565 253.207 172.24 253.265 172.735C253.906 178.356 254.913 183.939 255.011 189.615C255.021 190.143 255.502 190.54 255.323 191.089C255.235 191.323 255.231 191.533 255.452 191.693Z" fill="#C1B28A"/>
<path d="M55.487 104.005C51.7883 109.009 47.8353 113.81 43.8281 118.563C43.2246 119.278 42.5533 119.946 42.2042 121.166C41.5024 120.071 42.1635 119.485 42.5974 118.939C45.3265 115.508 48.0726 112.087 50.839 108.687C52.2358 106.971 53.5885 105.209 55.27 103.744C55.3412 103.832 55.4124 103.92 55.487 104.005Z" fill="#C1B28A"/>
<path d="M178.118 136.595C178.203 136.581 178.281 136.598 178.355 136.646C178.165 136.734 177.976 136.819 177.786 136.907C177.603 136.883 177.423 136.863 177.24 136.839C177.091 136.602 176.877 136.558 176.623 136.639C175.426 136.639 174.348 136.131 173.233 135.812C169.978 134.886 166.734 133.92 163.499 132.917C162.648 132.652 161.662 132.405 161.516 131.252C164.855 132.279 168.147 133.273 171.429 134.313C173.467 134.958 175.484 135.673 177.508 136.354C177.657 136.571 177.85 136.68 178.118 136.595Z" fill="#C1B28A"/>
<path d="M40.1936 136.117C39.8444 137.378 40.1394 138.507 40.6208 139.667C41.6005 142.03 43.1431 143.976 44.8992 145.779C47.7368 148.698 50.8321 151.332 54.0121 153.868C54.4155 154.19 54.8122 154.516 55.2665 154.882C54.7342 155.099 54.5206 154.709 54.2596 154.526C50.3032 151.749 46.574 148.708 43.3228 145.115C41.648 143.267 40.3869 141.185 39.6851 138.785C39.4105 137.849 39.2511 136.876 40.1936 136.117Z" fill="#C1B28A"/>
<path d="M214.586 183.021C210.785 178 207.104 172.864 202.422 168.528C203.056 168.185 203.439 168.426 203.795 168.775C207.456 172.396 210.935 176.169 213.518 180.664C213.945 181.41 214.233 182.234 214.586 183.021Z" fill="#C1B28A"/>
<path d="M60.8468 130.174C59.0331 131.361 55.653 130.371 54.9512 128.52C54.68 127.808 54.8122 127.123 55.2733 126.513C55.7412 125.899 56.3548 125.455 57.0125 125.079C57.4498 124.828 58.0296 124.353 58.416 124.828C58.8873 125.404 58.1041 125.692 57.7821 126.018C56.1853 127.625 56.2226 127.984 58.1821 129.12C58.9958 129.588 59.8603 129.94 60.8468 130.174Z" fill="#C1B28A"/>
<path d="M278 274.848C276.145 270.817 274.376 259.032 275.318 256.381C276.023 262.796 276.901 268.837 278 274.848Z" fill="#C1B28A"/>
<path d="M67.0745 66.0925C67.2542 66.0687 67.4372 66.0484 67.6169 66.0247C67.6203 66.1569 67.6237 66.2857 67.6237 66.4179C63.586 67.1333 59.5448 67.8113 55.602 68.9843C55.2901 69.0758 54.7307 69.5844 54.5443 68.9131C54.4019 68.3978 54.9884 68.2758 55.385 68.1537C58.9176 67.0824 62.5113 66.3535 66.2066 66.1942C66.5117 66.2959 66.8134 66.3467 67.0745 66.0925Z" fill="#C1B28A"/>
<path d="M197.754 95.1294C195.455 96.9499 192.895 98.1263 190.115 98.862C189.349 99.0654 188.556 99.1705 187.79 99.3739C187.536 99.4417 187.329 99.5299 187.237 99.2451C187.19 99.0993 187.258 98.8654 187.356 98.7366C187.698 98.2857 188.247 98.184 188.742 98.1094C191.587 97.6721 194.153 96.5194 196.638 95.1396C196.937 94.9734 197.232 94.6073 197.754 95.1294Z" fill="#C1B28A"/>
<path d="M30.4163 116.827C28.9381 119.644 28.2567 122.675 27.7956 125.787C27.3413 128.855 27.2668 131.927 27.4905 135.019C25.9819 130.94 27.86 119.234 30.4163 116.827Z" fill="#C1B28A"/>
<path d="M155.546 105.388C153.566 106.3 151.464 106.27 149.386 106.385C149.155 106.398 148.884 106.331 148.843 106.053C148.796 105.734 148.999 105.524 149.277 105.405C150.077 105.066 150.928 105.046 151.772 105.097C153.03 105.168 154.288 105.286 155.546 105.388Z" fill="#C1B28A"/>
<path d="M255.659 112.948C257.337 116.325 258.591 119.868 260.032 123.336L259.693 123.475L255.286 113.626C255.614 113.515 255.587 113.203 255.659 112.948Z" fill="#C1B28A"/>
<path d="M87.8127 95.2413C87.511 95.5261 86.9448 95.4752 86.8431 96.0075C85.704 95.2277 84.3174 95.1396 83.0664 94.6548C81.1035 93.8954 79.1134 93.2173 77.4014 91.9392L77.6149 91.7189C80.8967 93.2309 84.2089 94.6616 87.8127 95.2413Z" fill="#C1B28A"/>
<path d="M80.9204 100.828C80.7848 100.933 80.6492 101.042 80.5136 101.147C80.561 100.303 79.9745 100.761 79.6626 100.761C76.6284 100.771 73.6891 100.262 70.8549 99.1773C70.7498 99.1367 70.5396 99.1841 70.6176 98.8315C72.1669 99.1265 73.723 99.4214 75.2825 99.713C76.9098 100.022 78.554 100.245 80.2085 100.032C80.9475 99.9367 80.9814 100.296 80.9204 100.828Z" fill="#C1B28A"/>
<path d="M90.5861 50.277C88.2604 49.7312 85.928 49.3515 83.5413 49.46C83.3277 49.4701 83.0395 49.5006 83.0124 49.1684C82.9887 48.9006 83.165 48.6836 83.4057 48.6734C85.8907 48.5785 88.3384 48.7446 90.6031 49.9244C90.6336 49.938 90.5963 50.0905 90.5861 50.277Z" fill="#C1B28A"/>
<path d="M29.4842 128.299C30.0741 131.859 30.7183 135.412 30.5284 139.063C30.0538 135.486 29.5825 131.913 29.1079 128.336C29.2333 128.326 29.3588 128.313 29.4842 128.299Z" fill="#C1B28A"/>
<path d="M183.942 102.052C186.851 101.764 189.793 101.771 192.668 101.164C189.868 102.463 186.949 102.659 183.942 102.052Z" fill="#C1B28A"/>
<path d="M219.437 73.4965C217.583 71.9709 215.725 70.4453 213.874 68.913C213.586 68.6723 213.308 68.4146 213.054 68.14C212.908 67.984 212.945 67.7738 213.125 67.6586C213.216 67.6009 213.42 67.5942 213.488 67.6552C215.576 69.4961 217.658 71.3471 219.736 73.1982C219.641 73.3033 219.539 73.4016 219.437 73.4965Z" fill="#C1B28A"/>
<path d="M259.015 126.923C260.371 130.079 261.659 133.263 262.371 136.643L262.398 136.615C261.174 133.585 259.954 130.55 258.73 127.52C258.825 127.32 258.92 127.119 259.015 126.923Z" fill="#C1B28A"/>
<path d="M84.6328 53.4333C83.1072 53.7418 81.568 53.9486 80.0933 54.4029C79.7339 54.5148 78.7914 54.3758 79.2355 55.3589C79.3135 55.5318 79.083 55.7183 78.8762 55.6573C78.7202 55.6098 78.527 55.4708 78.4761 55.325C78.2117 54.5622 78.51 54.0029 79.2525 53.7655C81.0052 53.2062 82.7986 53.0163 84.6328 53.4333Z" fill="#C1B28A"/>
<path d="M74.1195 73.6186C74.9705 73.2796 75.7977 72.7372 76.7537 73.3135C74.6823 74.4933 72.6279 75.7002 70.353 76.463C71.3803 75.1849 73.0347 74.7916 74.1195 73.6186Z" fill="#C1B28A"/>
<path d="M178.46 104.995C175.646 105.164 172.852 105.215 170.51 103.28C173.086 104.198 175.782 104.554 178.46 104.995Z" fill="#C1B28A"/>
<path d="M87.6772 44.7002C88.44 44.2426 89.2435 44.3985 90.0572 44.4934C91.5048 44.6629 92.9321 44.9274 94.3322 45.3206C94.5695 45.3884 94.9831 45.4359 94.8645 45.8224C94.7357 46.2394 94.4509 45.9411 94.1966 45.8834C92.0574 45.3817 89.908 44.924 87.6772 44.7002Z" fill="#C1B28A"/>
<path d="M105.638 130.398C107.76 130.262 109.883 130.279 112.005 130.411C110.754 130.798 109.476 130.466 108.215 130.523C107.584 130.554 106.957 130.472 107.082 131.428C107.103 131.588 106.96 131.781 106.865 131.94C106.632 132.33 106.465 133.09 106.021 132.927C105.36 132.686 105.97 132.069 106.062 131.662C106.198 131.093 106.679 130.533 105.638 130.398Z" fill="#C1B28A"/>
<path d="M100.567 130.089C101.095 130.123 101.621 130.157 102.15 130.191C101.099 131.31 100.861 132.981 99.5291 134.086C99.2138 132.964 99.9664 132.262 100.207 131.432C100.339 130.991 101.011 130.679 100.567 130.089Z" fill="#C1B28A"/>
<path d="M198.516 169.551C198.252 169.646 198.32 169.904 198.252 170.094C196.97 168.694 195.855 167.134 194.323 165.954C196.021 166.816 197.442 167.978 198.516 169.551Z" fill="#C1B28A"/>
<path d="M73.8956 137.175C72.0514 137.029 70.3291 136.229 68.4849 136.029C70.363 135.765 72.1734 135.998 73.9092 136.832C73.9058 136.948 73.899 137.06 73.8956 137.175Z" fill="#C1B28A"/>
<path d="M248.094 233.68C247.661 232.27 247.952 230.85 247.918 229.307C248.644 229.971 247.796 230.972 248.691 231.412C248.857 233.474 248.789 235.531 248.488 237.586C248.488 236.501 248.508 235.416 248.471 234.335C248.464 234.101 248.722 233.599 248.094 233.68Z" fill="#C1B28A"/>
<path d="M241.956 70.9846C242.05 70.8117 242.149 70.6421 242.244 70.4692C243.963 71.3168 245.346 72.6458 246.915 73.7069C246.868 73.7645 246.824 73.8255 246.776 73.8866C245.064 73.0933 243.498 72.0592 241.956 70.9846Z" fill="#C1B28A"/>
<path d="M83.4599 65.1261C82.0089 65.7499 80.8766 66.2448 79.7341 66.7195C79.4934 66.8178 79.1578 66.9703 79.0154 66.5906C78.8831 66.2414 79.195 66.055 79.4391 65.9601C80.6088 65.5024 81.7513 64.9193 83.4599 65.1261Z" fill="#C1B28A"/>
<path d="M255.357 194.222C255.435 193.944 255.513 193.666 255.591 193.388C255.988 195.927 256.384 198.463 256.784 201.002C256.696 201.016 256.611 201.029 256.523 201.043C256.133 198.771 255.743 196.497 255.357 194.222Z" fill="#C1B28A"/>
<path d="M160.41 111.274C159.98 110.504 159.464 109.85 158.803 109.304C158.529 109.077 158.085 108.857 158.478 108.416C158.82 108.036 159.2 108.301 159.478 108.531C160.339 109.243 160.6 110.189 160.41 111.274Z" fill="#C1B28A"/>
<path d="M28.528 142.653C27.9008 140.636 27.5312 138.66 27.7516 136.609C28.0093 138.622 28.2703 140.636 28.528 142.653Z" fill="#C1B28A"/>
<path d="M80.5273 64.0819C81.6665 63.3022 82.8835 62.7598 84.321 62.9225C83.1751 63.6751 81.9648 64.2413 80.5273 64.0819Z" fill="#C1B28A"/>
<path d="M156.746 110.972C155.803 110.619 155.102 109.982 154.478 109.243C154.264 108.992 153.976 108.721 154.318 108.416C154.576 108.189 154.847 108.422 155.037 108.616C155.719 109.304 156.383 110.006 156.746 110.972Z" fill="#C1B28A"/>
<path d="M62.2604 125.245C61.5213 124.865 61.0738 124.221 60.8162 123.468C60.6907 123.106 60.5551 122.577 61.1247 122.411C61.6264 122.265 61.762 122.729 61.8502 123.075C62.0299 123.794 62.1451 124.529 62.2841 125.258L62.2604 125.245Z" fill="#C1B28A"/>
<path d="M272.369 122.966C272.647 122.844 272.653 122.594 272.667 122.346C273.718 123.139 274.582 124.119 275.45 125.096C275.379 125.19 275.308 125.289 275.237 125.384C274.281 124.58 273.325 123.773 272.369 122.966Z" fill="#C1B28A"/>
<path d="M23.8428 152.278C24.0496 152.258 24.2598 152.241 24.47 152.221L25.7074 156.631C24.931 155.635 24.4666 154.539 24.2259 153.353C24.4089 153.268 24.5412 153.166 24.3411 152.966C24.3038 153.092 24.2632 153.217 24.2259 153.343C23.9513 153.041 23.8801 152.665 23.8428 152.278Z" fill="#C1B28A"/>
<path d="M145.69 116.335C145.687 115.976 145.87 115.742 146.185 115.593C147.094 116.135 148.345 115.84 149.355 116.932C147.934 116.806 146.788 116.745 145.69 116.335Z" fill="#C1B28A"/>
<path d="M229.13 72.9881C229.171 72.7745 229.212 72.5643 229.249 72.3507C230.154 73.2322 231.059 74.1136 231.965 74.9951C231.856 75.1002 231.748 75.2053 231.639 75.3104C230.802 74.5374 229.964 73.761 229.13 72.9881Z" fill="#C1B28A"/>
<path d="M217.813 126.048C217.81 125.916 217.803 125.784 217.8 125.651C219.705 125.418 221.614 125.184 223.519 124.95C221.641 125.479 219.756 125.916 217.813 126.048Z" fill="#C1B28A"/>
<path d="M47.3066 118.339C47.4897 116.901 48.5678 116.118 49.9239 115.027C49.2018 116.573 48.1169 117.335 47.3066 118.339Z" fill="#C1B28A"/>
<path d="M222.868 73.093C221.905 72.3302 220.939 71.5708 219.976 70.808C219.827 70.6894 219.698 70.5267 219.827 70.347C220 70.1029 220.227 70.1605 220.417 70.3436C221.292 71.1877 222.346 71.859 222.868 73.093Z" fill="#C1B28A"/>
<path d="M248.468 258.148C248.814 257.927 248.641 257.52 248.8 257.232C249.153 258.955 249.037 260.694 248.959 262.436C248.749 261.012 248.349 259.612 248.468 258.148Z" fill="#C1B28A"/>
<path d="M273.437 81.7992C272.135 81.5788 271.06 80.8127 270.291 80.3346C271.267 80.2906 272.369 80.9822 273.437 81.7992Z" fill="#C1B28A"/>
<path d="M95.3252 41.3302C96.7423 41.8082 98.156 42.2896 99.5731 42.7676C98.0204 42.7168 96.6033 42.2422 95.3252 41.3302Z" fill="#C1B28A"/>
<path d="M177.785 136.904C177.975 136.815 178.165 136.731 178.355 136.643C179.64 137.036 180.924 137.429 182.209 137.822C180.687 137.694 179.195 137.48 177.785 136.904Z" fill="#C1B28A"/>
<path d="M117.992 87.7286C117.558 87.8507 117.599 87.3659 117.362 87.2336C118.047 86.1861 118.728 85.1385 119.508 83.9384C119.464 85.5351 117.982 86.3217 117.992 87.7286Z" fill="#C1B28A"/>
<path d="M233.449 114.179C233.537 114.006 233.622 113.833 233.71 113.66C233.883 113.915 234.046 114.176 234.232 114.42C234.317 114.532 234.344 114.816 234.558 114.664C234.66 114.593 234.636 114.345 234.67 114.176C235.121 114.993 235.134 115.884 235.124 116.783C234.565 115.915 234.009 115.047 233.449 114.179Z" fill="#C1B28A"/>
<path d="M100.709 40.5267C99.5765 40.6216 98.5425 40.3368 97.2373 39.6113C98.79 39.3909 99.7054 40.1198 100.709 40.5267Z" fill="#C1B28A"/>
<path d="M89.8435 135.585C89.935 135.798 90.0232 136.015 90.1147 136.229C90.1316 136.334 90.0876 136.388 89.9859 136.398C89.9791 136.463 89.9452 136.504 89.8842 136.527C89.2841 137.216 88.6806 137.907 88.0806 138.595L88.1043 138.629C88.2535 137.365 89.1587 136.537 89.8435 135.585Z" fill="#C1B28A"/>
<path d="M133.218 140.267C134.37 139.907 135.557 139.843 136.754 139.812C135.618 140.253 134.465 140.592 133.241 140.602C133.204 140.562 133.167 140.518 133.129 140.473C133.157 140.406 133.184 140.334 133.218 140.267Z" fill="#C1B28A"/>
<path d="M270.108 232.277C270.264 232.274 270.416 232.274 270.572 232.27V235.257C270.148 234.287 269.992 233.297 270.108 232.277Z" fill="#C1B28A"/>
<path d="M272.67 182.302C272.982 182.088 272.799 181.729 272.915 181.458C273.233 182.604 273.552 183.746 273.871 184.892C273.196 184.119 272.867 183.238 272.67 182.302Z" fill="#C1B28A"/>
<path d="M211.864 125.994C209.782 126.255 207.701 126.299 205.623 125.943C207.701 125.96 209.782 125.977 211.864 125.994Z" fill="#C1B28A"/>
<path d="M76.3945 79.8023C77.0285 79.0056 77.7642 78.3649 79.1169 78.0665C78.1507 78.8734 77.4319 79.4769 76.7132 80.0769C76.6081 79.9854 76.4996 79.8938 76.3945 79.8023Z" fill="#C1B28A"/>
<path d="M157.088 98.0214C156.987 97.723 156.702 97.7773 156.481 97.7027C157.437 97.2687 158.316 96.6178 159.434 96.6416L159.4 96.6212C158.644 97.1094 157.973 97.7434 157.088 98.0214Z" fill="#C1B28A"/>
<path d="M41.543 222.055C41.9023 221.859 41.6989 221.489 41.8108 221.215C42.2447 222.178 42.5329 223.174 42.7431 224.622C42.021 223.615 41.726 222.862 41.543 222.055Z" fill="#C1B28A"/>
<path d="M196.238 114.41C196.208 114.328 196.211 114.243 196.249 114.166C197.381 113.962 198.513 113.755 199.649 113.552C198.544 114.02 197.432 114.413 196.238 114.41Z" fill="#C1B28A"/>
<path d="M191.146 114.318C189.346 114.627 187.546 114.633 185.746 114.294C187.549 114.182 189.346 114.203 191.146 114.318Z" fill="#C1B28A"/>
<path d="M71.9121 106.287C71.7257 106.446 71.5392 106.609 71.3528 106.768C70.3662 106.799 69.478 106.483 68.6372 105.917C69.7289 106.039 70.8205 106.161 71.9121 106.287Z" fill="#C1B28A"/>
<path d="M67.6274 66.4144C67.624 66.2822 67.6206 66.1533 67.6206 66.0211C68.6817 65.7872 69.7395 66.0076 70.804 66.0754C69.7429 66.1906 68.6851 66.3025 67.6274 66.4144Z" fill="#C1B28A"/>
<path d="M115.063 130.205C116.392 130.015 117.707 129.689 119.067 129.822C117.751 130.144 116.419 130.289 115.063 130.205Z" fill="#C1B28A"/>
<path d="M230.354 90.8747C230.059 90.9798 230.096 91.2646 230.028 91.4883C229.693 91.0713 229.36 90.6543 228.957 90.1526C229.767 89.9186 230.116 90.2916 230.354 90.8747Z" fill="#C1B28A"/>
<path d="M199.371 93.4548C199.371 94.1939 198.679 94.2075 198.052 94.7804C198.53 94.0447 198.787 93.5735 199.377 93.4616L199.371 93.4548Z" fill="#C1B28A"/>
<path d="M74.1433 68.9605C74.0552 68.8283 73.9671 68.696 73.8789 68.5638C74.6654 68.3672 75.4554 68.4994 76.2622 68.635C75.5571 68.7469 74.8519 68.8554 74.1433 68.9605Z" fill="#C1B28A"/>
<path d="M169.9 121.821C169.696 121.922 169.493 122.021 169.289 122.122C168.822 122.129 168.438 121.919 168.072 121.607C168.689 121.665 169.337 121.298 169.9 121.821Z" fill="#C1B28A"/>
<path d="M258.214 193.941C258.343 193.947 258.469 193.954 258.597 193.961C258.818 194.547 258.719 195.147 258.492 195.792C258.397 195.175 258.306 194.558 258.214 193.941Z" fill="#C1B28A"/>
<path d="M265.853 223.473C266.012 223.479 266.175 223.486 266.337 223.496C266.368 224.093 266.398 224.69 266.429 225.286C266.331 225.303 266.232 225.32 266.134 225.337C266.039 224.713 265.947 224.093 265.853 223.473Z" fill="#C1B28A"/>
<path d="M224.367 74.1475C223.865 73.9306 223.414 73.656 223.231 73.083C223.699 73.3441 224.282 73.4864 224.346 74.178L224.367 74.1475Z" fill="#C1B28A"/>
<path d="M248.654 229.453C248.264 228.511 248.454 227.538 248.515 226.575C248.695 227.527 248.79 228.483 248.654 229.453Z" fill="#C1B28A"/>
<path d="M119.603 129.791C120.226 129.347 120.925 129.482 121.613 129.53C120.959 129.733 120.301 129.913 119.603 129.791Z" fill="#C1B28A"/>
<path d="M103.431 130.296C103.824 129.984 104.197 130.049 104.553 130.361C104.174 130.462 103.797 130.472 103.431 130.296Z" fill="#C1B28A"/>
<path d="M131.8 140.85C131.705 140.687 131.611 140.524 131.516 140.362C131.807 140.355 132.099 140.345 132.39 140.338C132.594 140.616 132.868 140.504 133.129 140.48C133.167 140.521 133.204 140.565 133.245 140.609C132.794 140.874 132.309 140.938 131.8 140.85Z" fill="#C1B28A"/>
<path d="M270.525 227.751C270.155 226.988 270.297 226.198 270.396 225.408C270.575 226.181 270.647 226.961 270.525 227.751Z" fill="#C1B28A"/>
<path d="M73.896 137.175C73.8994 137.06 73.9028 136.948 73.9062 136.833L75.5843 137.033C75.5335 137.365 75.2555 137.399 75.008 137.473C74.8283 137.443 74.6486 137.412 74.4656 137.382C74.3401 137.148 74.1401 137.111 73.896 137.175Z" fill="#C1B28A"/>
<path d="M151.382 119.871C151.477 119.783 151.572 119.695 151.667 119.603C152.071 119.536 152.349 119.797 152.996 120.122C152.22 120.142 151.782 120.234 151.382 119.871Z" fill="#C1B28A"/>
<path d="M131.245 82.9824C131.299 82.7891 131.407 82.64 131.628 82.6773C131.875 82.7179 131.899 82.9349 131.811 83.0909C131.658 83.3621 131.448 83.6028 131.265 83.857C131.258 83.5655 131.251 83.2739 131.245 82.9824Z" fill="#C1B28A"/>
<path d="M75.0112 137.473C75.2587 137.399 75.5367 137.365 75.5876 137.032C75.7774 137.087 75.9673 137.138 76.1537 137.192C76.1537 137.382 76.1537 137.572 76.1537 137.758C75.7367 137.812 75.3401 137.775 75.0112 137.473Z" fill="#C1B28A"/>
<path d="M248.675 250.465C248.305 249.804 248.437 249.106 248.532 248.411C248.702 249.086 248.786 249.767 248.675 250.465Z" fill="#C1B28A"/>
<path d="M144.612 92.1427C144.948 91.9732 145.321 91.4308 145.64 91.8715C145.877 92.2004 145.311 92.4038 145.026 92.5936C144.887 92.4445 144.751 92.2919 144.612 92.1427Z" fill="#C1B28A"/>
<path d="M246.915 73.7067C247.074 73.8423 247.501 73.8965 247.362 74.0931C247.162 74.3847 246.911 74.1508 246.776 73.8863C246.82 73.8253 246.867 73.7643 246.915 73.7067Z" fill="#C1B28A"/>
<path d="M232.578 75.7882L232.646 75.8594L232.564 75.8865L232.578 75.7882Z" fill="#C1B28A"/>
<path d="M144.385 93.0206C144.354 92.8003 144.321 92.5799 144.29 92.3629C144.399 92.2884 144.507 92.2172 144.615 92.1426C144.751 92.2951 144.89 92.4443 145.029 92.5969C144.812 92.7359 144.599 92.8783 144.385 93.0206Z" fill="#C1B28A"/>
<path d="M113.358 130.354C113.531 130.127 113.714 130.052 113.914 130.32C113.738 130.462 113.551 130.469 113.358 130.354Z" fill="#C1B28A"/>
<path d="M88.1586 139.124C87.9348 139.134 87.7145 139.141 87.4907 139.151C87.7213 139.006 87.6399 138.497 88.1043 138.626L88.0806 138.592C88.1044 138.768 88.1315 138.948 88.1586 139.124Z" fill="#C1B28A"/>
<path d="M55.9957 155.648C55.7448 155.577 55.5041 155.496 55.4668 155.14C55.7651 155.224 56.0736 155.248 55.9719 155.679C55.9719 155.675 55.9957 155.648 55.9957 155.648Z" fill="#C1B28A"/>
<path d="M97.4204 129.822C97.8205 129.733 98.2171 129.672 98.5866 129.927C98.1798 130.079 97.8001 129.961 97.4204 129.822Z" fill="#C1B28A"/>
<path d="M82.1377 138.311C81.7682 138.395 81.4224 138.351 81.1274 138.094C81.5004 137.992 81.8224 138.134 82.1377 138.311Z" fill="#C1B28A"/>
<path d="M67.0749 66.0923C66.8105 66.3466 66.5121 66.2958 66.207 66.194C66.4816 66.0178 66.7664 65.9398 67.0749 66.0923Z" fill="#C1B28A"/>
<path d="M230.083 91.7494C230.391 91.9731 230.408 92.2783 230.32 92.6139L230.083 91.7494Z" fill="#C1B28A"/>
<path d="M182.972 138.08C183.057 138.111 183.142 138.144 183.226 138.175C183.142 138.206 183.06 138.26 182.976 138.26C182.894 138.26 182.809 138.206 182.728 138.175C182.806 138.144 182.887 138.111 182.972 138.08Z" fill="#C1B28A"/>
<path d="M258.31 191.127C258.015 190.883 258.059 190.574 258.15 190.259C258.309 190.53 258.404 190.811 258.31 191.127Z" fill="#C1B28A"/>
<path d="M269.911 230.009C270.186 230.27 270.145 230.582 270.047 230.901C269.867 230.626 269.802 230.331 269.911 230.009Z" fill="#C1B28A"/>
<path d="M133.13 140.477C132.869 140.504 132.594 140.613 132.391 140.335C132.665 140.311 132.94 140.29 133.218 140.267C133.184 140.335 133.157 140.406 133.13 140.477Z" fill="#C1B28A"/>
<path d="M109.1 87.2439C109.205 87.1761 109.313 87.1049 109.422 87.0371C109.52 87.2337 109.347 87.088 109.31 87.1151C109.242 87.1659 109.151 87.1829 109.069 87.2134C109.069 87.21 109.1 87.2439 109.1 87.2439Z" fill="#C1B28A"/>
<path d="M131.245 82.9824C131.251 83.274 131.258 83.5655 131.265 83.8571L131.197 83.9351C131.099 83.874 131 83.8096 130.902 83.7486C130.892 83.6333 130.885 83.5181 130.875 83.4028C130.997 83.2638 131.119 83.1248 131.245 82.9824Z" fill="#C1B28A"/>
<path d="M77.4015 91.9427C77.2456 91.7563 76.737 91.8139 76.8625 91.5766C76.9879 91.3359 77.4049 91.4071 77.6151 91.7224L77.4015 91.9427Z" fill="#C1B28A"/>
<path d="M82.0732 138.917C82.3241 138.833 82.5445 138.853 82.7038 139.094C82.4529 139.172 82.2461 139.1 82.0732 138.917Z" fill="#C1B28A"/>
<path d="M259.015 126.923C258.92 127.123 258.825 127.319 258.733 127.519C258.615 127.218 258.245 126.801 259.015 126.923Z" fill="#C1B28A"/>
<path d="M130.38 140.487C130.194 140.663 129.99 140.653 129.773 140.558C129.963 140.419 130.163 140.358 130.38 140.487Z" fill="#C1B28A"/>
<path d="M100.265 43.0287L100.262 43.1067L100.391 43.0694L100.265 43.0287Z" fill="#C1B28A"/>
<path d="M73.0346 68.6586C72.8515 68.8451 72.6447 68.8383 72.4277 68.7298C72.6142 68.5739 72.8142 68.5196 73.0346 68.6586Z" fill="#C1B28A"/>
<path d="M119.721 83.4197C119.765 83.4773 119.836 83.5316 119.833 83.579C119.83 83.64 119.765 83.6977 119.728 83.7587C119.697 83.7282 119.64 83.6943 119.643 83.6706C119.657 83.5858 119.691 83.5078 119.721 83.4197Z" fill="#C1B28A"/>
<path d="M56.6599 155.855C56.3785 155.98 56.148 155.933 55.9954 155.648C55.9954 155.648 55.9751 155.679 55.9717 155.679C56.2565 155.519 56.4361 155.716 56.626 155.879L56.6599 155.855Z" fill="#C1B28A"/>
<path d="M216.122 126.255C216.271 126.028 216.478 126.021 216.705 126.113C216.542 126.285 216.349 126.343 216.122 126.255Z" fill="#C1B28A"/>
<path d="M55.8972 103.551L55.4836 104.005C55.4124 103.92 55.3378 103.832 55.2666 103.747C55.4124 103.625 55.5616 103.503 55.7073 103.381C55.765 103.442 55.8294 103.5 55.8972 103.551Z" fill="#C1B28A"/>
<path d="M178.118 136.595C177.85 136.68 177.656 136.571 177.507 136.358C177.765 136.3 177.968 136.371 178.118 136.595Z" fill="#C1B28A"/>
<path d="M176.623 136.639C176.877 136.554 177.09 136.602 177.24 136.839C176.992 136.907 176.789 136.829 176.623 136.639Z" fill="#C1B28A"/>
<path d="M262.371 136.639C262.659 136.588 262.642 136.792 262.642 136.975C262.642 137.012 262.588 137.049 262.561 137.087C262.507 136.927 262.456 136.771 262.402 136.612C262.398 136.612 262.371 136.639 262.371 136.639Z" fill="#C1B28A"/>
<path d="M255.658 112.948C255.587 113.203 255.618 113.515 255.285 113.626C255.156 113.433 255.011 113.233 255.167 112.999C255.295 112.803 255.482 112.867 255.658 112.948Z" fill="#C1B28A"/>
<path d="M255.452 191.693C255.231 191.53 255.235 191.32 255.323 191.093C255.479 191.269 255.547 191.466 255.452 191.693Z" fill="#C1B28A"/>
<path d="M73.8994 137.175C74.1367 137.11 74.3401 137.148 74.469 137.385C74.2791 137.314 74.0893 137.246 73.8994 137.175Z" fill="#C1B28A"/>
<path d="M77.3197 137.453C77.0383 137.51 76.7942 137.453 76.5874 137.246C76.8722 137.168 77.1027 137.28 77.3197 137.453Z" fill="#C1B28A"/>
<path d="M36.6479 198.253C36.77 198.249 36.892 198.243 37.0107 198.239C37.0582 198.416 37.1192 198.67 36.9192 198.707C36.5666 198.772 36.7225 198.419 36.6479 198.253Z" fill="#C1B28A"/>
<path d="M78.7473 137.731C78.4659 137.792 78.215 137.734 78.0015 137.531C78.293 137.449 78.5303 137.548 78.7473 137.731Z" fill="#C1B28A"/>
<path d="M262.927 137.782C262.873 137.805 262.825 137.829 262.778 137.853C262.764 137.812 262.734 137.765 262.744 137.734C262.767 137.666 262.812 137.609 262.849 137.548C262.873 137.626 262.9 137.704 262.927 137.782Z" fill="#C1B28A"/>
<path d="M266.222 222.215C266.06 221.981 266.039 221.723 266.117 221.459C266.273 221.696 266.358 221.94 266.222 222.215Z" fill="#C1B28A"/>
<path d="M80.4323 138.026C80.2085 138.104 80.0017 138.1 79.8525 137.88C80.0458 137.931 80.239 137.978 80.4323 138.026Z" fill="#C1B28A"/>
<path d="M76.1504 137.761C76.3911 137.69 76.5979 137.714 76.7369 137.955C76.4996 138.026 76.3165 137.921 76.1504 137.761Z" fill="#C1B28A"/>
<path d="M78.9609 138.341C79.2457 138.28 79.5 138.344 79.717 138.541C79.4254 138.626 79.1745 138.551 78.9609 138.341Z" fill="#C1B28A"/>
<path d="M149.646 119.61C149.891 119.529 150.111 119.532 150.27 119.776C150.026 119.854 149.826 119.769 149.646 119.61Z" fill="#C1B28A"/>
<path d="M83.8661 138.578C83.6322 138.66 83.4186 138.66 83.2559 138.433C83.4898 138.348 83.683 138.439 83.8661 138.578Z" fill="#C1B28A"/>
<path d="M80.3984 138.612C80.6358 138.538 80.8493 138.548 80.9985 138.782C80.7612 138.86 80.5713 138.762 80.3984 138.612Z" fill="#C1B28A"/>
<path d="M171.266 122.136C171.035 122.204 170.832 122.19 170.696 121.956C170.886 122.017 171.076 122.075 171.266 122.136Z" fill="#C1B28A"/>
<path d="M102.431 130.208C102.587 130.099 102.729 130.106 102.858 130.252C102.702 130.347 102.56 130.337 102.431 130.208Z" fill="#C1B28A"/>
<path d="M218.2 69.3097C218.271 69.3707 218.343 69.4317 218.417 69.4928C218.343 69.4317 218.271 69.3707 218.2 69.3097Z" fill="#C1B28A"/>
<path d="M56.0158 103.12C56.0565 103.056 56.1006 102.988 56.1413 102.924C56.1616 102.981 56.182 103.039 56.1989 103.093C56.1277 103.093 56.0565 103.093 55.9819 103.096L56.0158 103.12Z" fill="#C1B28A"/>
<path d="M24.3749 151.671C24.3308 151.553 24.2902 151.437 24.2461 151.319C24.2902 151.434 24.3342 151.553 24.3749 151.671Z" fill="#C1B28A"/>
<path d="M58.8126 97.4111L58.8295 97.4755C58.8295 97.4755 58.7889 97.4382 58.7889 97.4416C58.7855 97.445 58.8126 97.4111 58.8126 97.4111Z" fill="#C1B28A"/>
<path d="M159.434 96.6414C159.404 96.5736 159.37 96.5092 159.339 96.4414C159.404 96.4312 159.468 96.4211 159.533 96.4109C159.489 96.4821 159.441 96.5499 159.397 96.6211C159.4 96.6211 159.434 96.6414 159.434 96.6414Z" fill="#C1B28A"/>
<path d="M56.6262 155.879C56.6737 155.946 56.7178 156.011 56.7652 156.079C56.7076 156.075 56.6533 156.072 56.5957 156.068C56.616 155.997 56.6364 155.929 56.6567 155.858C56.6601 155.855 56.6262 155.879 56.6262 155.879Z" fill="#C1B28A"/>
<path d="M89.8838 136.524C89.9448 136.504 89.9787 136.46 89.9855 136.395C89.9753 136.46 89.9414 136.504 89.8838 136.524Z" fill="#C1B28A"/>
<path d="M55.9855 103.097C56.1415 103.283 56.0025 103.412 55.8974 103.547C55.8296 103.497 55.7652 103.442 55.7109 103.378C55.7381 103.205 55.8296 103.103 56.0194 103.12L55.9855 103.097Z" fill="#C1B28A"/>
<path d="M199.594 93.0682C199.75 93.3293 199.696 93.4683 199.374 93.4547L199.381 93.4615C199.459 93.3428 199.533 93.2208 199.611 93.1021L199.594 93.0682Z" fill="#C1B28A"/>
<path d="M255.245 111.925C255.079 111.86 255.014 111.745 255.055 111.572C255.119 111.687 255.184 111.806 255.245 111.925Z" fill="#C1B28A"/>
<path d="M89.2841 93.397L89.2163 93.4445C89.2163 93.4445 89.2468 93.3767 89.2434 93.3767C89.24 93.3733 89.2841 93.397 89.2841 93.397Z" fill="#C1B28A"/>
<path d="M199.612 93.1021C199.693 93.075 199.778 93.0513 199.859 93.0242C199.835 93.0818 199.815 93.1394 199.791 93.1937C199.727 93.153 199.659 93.1123 199.595 93.0716C199.595 93.0682 199.612 93.1021 199.612 93.1021Z" fill="#C1B28A"/>
<path d="M257.977 192.53C258.137 192.608 258.174 192.727 258.106 192.89C257.943 192.812 257.909 192.689 257.977 192.53Z" fill="#C1B28A"/>
<path d="M255.129 192.957C255.18 193.117 255.231 193.276 255.282 193.435C255.085 193.32 255.044 193.161 255.129 192.957Z" fill="#C1B28A"/>
<path d="M200.459 92.2986L200.449 92.3596L200.479 92.3088L200.459 92.2986Z" fill="#C1B28A"/>
<path d="M200.479 92.3088C200.588 92.2105 200.693 92.1122 200.801 92.0105L200.788 92.0342C200.679 92.1224 200.567 92.2105 200.459 92.2987C200.459 92.2987 200.479 92.3088 200.479 92.3088Z" fill="#C1B28A"/>
<path d="M37.0105 198.243C37.0003 198.144 36.9902 198.046 36.98 197.948C37.0207 198.019 37.0647 198.083 37.0952 198.158C37.102 198.172 37.041 198.212 37.0105 198.243Z" fill="#C1B28A"/>
<path d="M200.802 92.014L200.836 92.0038L200.785 92.0377C200.788 92.0343 200.802 92.014 200.802 92.014Z" fill="#C1B28A"/>
<path d="M62.2811 125.258L62.2912 125.292L62.2573 125.245L62.2811 125.258Z" fill="#C1B28A"/>
<path d="M230.557 91.1968C230.49 91.0883 230.418 90.9798 230.351 90.8713C230.513 90.9222 230.591 91.0239 230.557 91.1968Z" fill="#C1B28A"/>
<path d="M77.5371 138.06C77.6863 137.995 77.8049 138.022 77.8761 138.182C77.7643 138.141 77.6524 138.1 77.5371 138.06Z" fill="#C1B28A"/>
<path d="M130.872 83.4061C130.882 83.5214 130.889 83.6367 130.899 83.7519C130.787 83.7452 130.679 83.7418 130.567 83.7384C130.669 83.6265 130.77 83.5146 130.872 83.4061Z" fill="#C1B28A"/>
<path d="M195.109 114.613C195.177 114.45 195.292 114.42 195.442 114.494C195.377 114.654 195.265 114.694 195.109 114.613Z" fill="#C1B28A"/>
<path d="M146.317 115.369C146.399 115.257 146.477 115.142 146.558 115.03C146.477 115.142 146.395 115.257 146.317 115.369Z" fill="#C1B28A"/>
<path d="M74.8892 81.094C75.0146 80.9889 75.1129 80.7753 75.3231 80.9312C75.5163 81.0736 75.435 81.233 75.3062 81.3754C75.1672 81.2838 75.0282 81.1889 74.8892 81.094Z" fill="#C1B28A"/>
<path d="M76.5198 80.1956C76.4351 80.3482 76.2995 80.5279 76.1435 80.3889C75.9028 80.1753 76.1333 80.0261 76.2995 79.8939C76.374 79.9956 76.4486 80.0939 76.5198 80.1956Z" fill="#C1B28A"/>
<path d="M76.3947 79.8024C76.4998 79.8939 76.6083 79.9854 76.7134 80.077C76.6829 80.1719 76.6219 80.2126 76.5202 80.199C76.4456 80.0973 76.3744 79.9956 76.2998 79.8939L76.3947 79.8024Z" fill="#C1B28A"/>
<path d="M225.258 74.6661L225.384 74.8729C225.33 74.8662 225.272 74.8628 225.218 74.8594C225.238 74.7848 225.258 74.7102 225.282 74.6356L225.258 74.6661Z" fill="#C1B28A"/>
<path d="M225.279 74.6357C225.177 74.6526 225.075 74.6696 224.974 74.6899C224.974 74.6492 224.974 74.6086 224.974 74.5679C225.069 74.6018 225.16 74.6391 225.258 74.673C225.258 74.6662 225.279 74.6357 225.279 74.6357Z" fill="#C1B28A"/>
<path d="M224.343 74.1779C224.441 74.1915 224.539 74.2017 224.638 74.2152C224.628 74.2559 224.614 74.3 224.6 74.3407C224.522 74.2763 224.444 74.2118 224.363 74.144C224.363 74.1474 224.343 74.1779 224.343 74.1779Z" fill="#C1B28A"/>
<path d="M248.41 257.846C248.447 257.91 248.491 257.971 248.518 258.043C248.529 258.07 248.485 258.11 248.468 258.148C248.424 258.083 248.376 258.019 248.346 257.948C248.335 257.924 248.386 257.88 248.41 257.846Z" fill="#C1B28A"/>
<path d="M129.244 103.697H126.695C127.315 102.747 128.512 103.72 129.065 102.822C129.404 103.056 129.299 103.381 129.244 103.697Z" fill="#C1B28A"/>
<path d="M92.6304 115.04C93.4745 114.84 94.1797 114.216 95.3358 114.182C94.4441 114.813 93.722 115.274 92.8948 115.545C92.8033 115.376 92.7151 115.21 92.6304 115.04Z" fill="#C1B28A"/>
<path d="M73.6824 115.339C73.6553 115.247 73.6282 115.159 73.5977 115.067C73.6824 114.796 73.9197 114.783 74.1435 114.742C74.1503 114.935 74.157 115.132 74.1604 115.325C74.0011 115.328 73.8418 115.335 73.6824 115.339Z" fill="#C1B28A"/>
<path d="M129.509 104.581C129.472 104.375 129.434 104.168 129.394 103.961C129.6 104.137 129.594 104.351 129.509 104.581Z" fill="#C1B28A"/>
<path d="M74.2008 115.566C74.3873 115.732 74.4584 115.935 74.3872 116.179C74.1499 116.03 74.1194 115.813 74.2008 115.566Z" fill="#C1B28A"/>
<path d="M73.8244 117.973C73.7939 117.844 73.76 117.712 73.7295 117.583C73.8821 117.681 73.9024 117.813 73.8244 117.973Z" fill="#C1B28A"/>
<path d="M92.3961 114.677C92.4741 114.8 92.5521 114.918 92.6266 115.04C92.4029 115.01 92.3453 114.878 92.3961 114.677Z" fill="#C1B28A"/>
<path d="M24.2222 153.343C24.2595 153.217 24.3001 153.092 24.3374 152.966C24.5375 153.166 24.4052 153.265 24.2222 153.353V153.343Z" fill="#C1B28A"/>
<path d="M102.821 112.755C102.296 109.592 102.618 106.578 104.445 103.819C103.852 103.547 103.279 103.283 102.581 102.961C103.794 102.476 105.072 103.822 106.045 102.574C106.357 102.561 106.534 102.405 106.534 102.083C108.402 101.113 108.402 101.113 110.48 102.835C106.405 103.805 105.262 106.816 105.154 110.46C105.079 112.928 106.618 114.115 109.08 113.633C109.263 113.599 109.453 113.606 109.639 113.593C109.673 113.637 109.707 113.681 109.737 113.725C109.676 114.196 109.914 114.111 110.222 114.016C113.955 112.85 116.206 109.494 115.806 105.598C115.68 104.392 115.555 103.191 115.66 101.903C120.172 108.592 116.704 113.993 110.415 116.186C108.029 117.02 104.845 115.603 103.143 113.274C103.147 113.037 103.082 112.833 102.821 112.755Z" fill="#C1B28A"/>
<path d="M106.537 102.083C106.534 102.408 106.361 102.561 106.049 102.574C106.117 101.771 105.296 101.754 104.933 101.33C104.604 100.95 104.164 100.662 103.947 99.9062C105.062 100.527 105.889 101.188 106.537 102.083Z" fill="#C1B28A"/>
<path d="M102.821 112.755C103.082 112.833 103.147 113.037 103.154 113.274C102.32 113.094 101.76 113.637 101.133 114.023C100.648 114.325 100.282 114.932 99.3599 114.667C100.574 113.935 101.34 112.748 102.821 112.755Z" fill="#C1B28A"/>
<path d="M119.508 100.388C118.908 101.561 118.07 102.239 118.04 103.473C117.29 102.103 117.623 101.381 119.508 100.388Z" fill="#C1B28A"/>
<path d="M121.335 107.477C120.64 107.897 119.942 107.948 119.247 108.026C119.013 108.053 118.765 108.121 118.704 107.785C118.653 107.5 118.84 107.351 119.07 107.27C119.833 107.002 120.586 106.856 121.335 107.477Z" fill="#C1B28A"/>
<path d="M109.646 113.596C109.686 113.345 109.937 113.301 110.018 113.426C110.14 113.616 109.879 113.654 109.744 113.728C109.713 113.681 109.679 113.637 109.646 113.596Z" fill="#C1B28A"/>
<path d="M92.5521 112.65C92.6335 112.643 92.7148 112.637 92.7928 112.63C92.7928 112.66 92.7928 112.687 92.7894 112.715C92.7047 112.684 92.6233 112.654 92.5352 112.62C92.5352 112.613 92.5521 112.65 92.5521 112.65Z" fill="#C1B28A"/>
<path d="M117.477 95.6549C117.623 95.6956 117.694 95.7803 117.626 95.9295C117.613 95.9566 117.545 95.96 117.504 95.9736C117.514 95.8753 117.521 95.777 117.525 95.6752C117.521 95.6719 117.477 95.6549 117.477 95.6549Z" fill="#C1B28A"/>
<path d="M102.98 123.461C102.957 123.36 102.936 123.258 102.913 123.156C102.933 123.167 102.97 123.177 102.97 123.19C102.977 123.275 102.977 123.363 102.977 123.445C102.977 123.438 102.98 123.461 102.98 123.461Z" fill="#C1B28A"/>
<path d="M102.594 123.577C102.621 123.472 102.448 123.333 102.686 123.261C102.899 123.197 102.886 123.387 102.981 123.458C102.981 123.461 102.977 123.441 102.981 123.444C102.845 123.482 102.706 123.516 102.567 123.553L102.594 123.577Z" fill="#C1B28A"/>
</g>
<defs>
<clipPath id="clip0_208_1108">
<rect width="256.73" height="249.696" fill="white" transform="translate(21.2695 25.1522)"/>
</clipPath>
</defs>
</svg>
