<svg width="300" height="300" viewBox="0 0 300 300" fill="none" xmlns="http://www.w3.org/2000/svg">
<g clip-path="url(#clip0_208_980)">
<g clip-path="url(#clip1_208_980)">
<path d="M209.762 81.0044C210.77 82.9568 212.127 84.6957 213.206 86.5994C215.492 90.6354 217.898 94.6377 219.307 99.0784C221.012 104.456 222.013 109.991 222.511 115.627C222.822 119.172 223.474 122.676 224.482 126.206C225.648 125.119 226.386 123.534 228.125 123.291C229.939 123.04 230.906 124.377 232.004 125.487C232.243 125.251 232.165 124.985 232.153 124.752C232.041 121.657 232.108 118.565 232.603 115.5C232.959 113.296 232.637 111.1 232.506 108.912C232.165 103.246 231.232 97.6469 230.28 92.0594C229.616 88.1695 228.563 84.3659 227.668 80.5285C226.128 73.933 223.272 67.8396 220.398 61.735C215.638 51.6319 209.403 42.5105 202.331 33.9364C198.842 29.7055 194.705 26.1566 190.096 23.1624C187.72 21.6185 185.336 20.1232 182.713 18.9952C179.063 17.4251 175.499 15.6638 171.868 14.0486C165.557 11.2418 159.033 9.51044 152.033 9.45423C148.383 9.42425 144.793 9.90392 141.169 10.0276C138.486 10.1213 135.81 10.0351 133.131 10.0763C123.949 10.2187 115.293 12.4222 106.985 16.3083C95.9109 21.4873 86.7709 29.0834 78.9574 38.3471C71.4737 47.2173 64.7471 56.6534 58.7062 66.5692C57.3608 68.7802 56.2253 71.1074 55.0749 73.4233C54.9587 73.6557 54.9512 73.9704 54.5577 74.0904C54.4191 73.4346 54.8126 72.9624 55.0224 72.449C58.6762 63.4851 64.1062 55.5742 69.615 47.7008C74.3406 40.9479 79.2909 34.3823 85.3169 28.7124C95.1127 19.4937 106.336 12.8344 119.531 9.70531C125.197 8.36372 130.923 8.03769 136.713 8.32249C140.607 8.51736 144.515 8.58107 148.387 8.3075C151.636 8.07891 154.855 7.85031 158.096 8.13887C162.574 8.53235 166.843 9.80274 170.95 11.5416C175.953 13.6589 180.997 15.7312 185.82 18.2158C190.515 20.6366 194.934 23.6009 198.76 27.3109C207.761 36.0462 214.803 46.228 220.709 57.2455C224.063 63.5038 227.203 69.882 229.174 76.6986C230.909 82.7058 232.195 88.8441 233.206 95.0386C234.02 100.015 234.544 105.014 234.964 110.028C235.174 112.521 235.133 114.986 234.582 117.445C234.008 120.004 234.046 122.635 233.769 125.232C233.667 126.18 233.574 127.128 233.424 128.069C233.371 128.41 233.446 128.695 233.529 128.998C234.181 131.4 234.593 133.855 234.882 136.321C235.211 139.142 234.046 141.773 233.694 144.513C233.416 146.679 233.105 148.856 233.326 151.059C233.394 151.723 233.371 152.401 233.349 153.068C233.263 155.759 233.742 158.397 234.042 161.05C234.492 165.007 234.78 168.961 233.33 172.776C232.333 175.399 230.669 177.614 228.597 179.506C228.204 179.866 228.267 180.308 228.226 180.713C228.061 182.264 227.93 183.823 227.833 185.382C227.54 190.093 226.596 194.699 225.633 199.304C225.015 202.257 224.722 205.285 223.95 208.193C221.556 217.239 218.827 226.2 214.795 234.673C212.056 240.425 208.728 245.904 204.617 250.76C200.795 255.276 196.148 258.945 190.283 260.624C186.397 261.737 182.586 263.157 178.565 263.772C176.166 264.139 173.761 264.229 171.343 263.903C170.242 263.753 169.117 263.85 168.008 263.685C163.867 263.06 159.715 262.587 155.705 261.22C152.527 260.137 149.233 259.353 146.194 257.903C140.468 255.167 134.491 252.983 128.889 250C126.179 248.553 123.616 246.814 121.053 245.109C117.916 243.018 115.12 240.492 112.302 238.004C110.38 236.303 108.84 234.26 107.18 232.327C106.696 231.765 106.231 231.255 105.553 230.918C104.609 230.449 103.979 229.584 103.061 228.654C103.398 230.224 102.604 231.146 101.903 232.117C100.524 234.024 99.1375 235.928 97.5973 237.712C94.6705 241.096 90.938 243.217 86.8608 244.914C79.0211 248.175 70.8554 250.517 62.9295 253.526C57.2447 255.688 51.3799 257.382 45.8749 260.017C45.8224 260.043 45.7512 260.02 45.6875 260.024V258.3C54.7676 254.703 63.9901 251.525 73.2688 248.478C78.2454 246.844 83.2408 245.207 88.0637 243.093C92.823 241.006 96.458 237.648 99.5347 233.575C100.378 232.458 101.3 231.401 102.143 230.284C102.761 229.464 102.701 228.066 102.038 227.301C99.842 224.768 98.4105 221.811 97.1775 218.731C95.1352 213.627 94.2171 208.212 92.838 202.928C92.7031 202.415 92.7668 201.849 92.5494 201.425C89.8663 201.939 87.4641 201.283 85.2681 199.825C82.6824 198.105 80.6588 195.804 78.8975 193.282C78.3841 192.544 78.0243 192.075 77.316 193.02C77.2448 193.113 77.1174 193.162 76.8364 193.353C77.4772 192.131 78.1854 191.27 79.1598 190.58C80.1379 189.891 81.0373 189.085 82.0753 188.245C81.5132 188.215 81.0185 188.204 80.6026 187.931C80.7862 187.511 81.1459 187.473 81.5844 187.428C83.3007 187.256 84.5374 186.184 85.6466 185.004C86.0588 184.565 86.1638 183.835 86.0926 183.201C85.6504 179.334 85.2681 175.455 84.4774 171.633C84.2638 170.61 84.1289 169.576 83.9865 168.538C83.8966 167.867 83.6455 167.26 83.3382 166.671C79.3771 159.06 75.4161 151.453 71.455 143.842C71.2676 143.482 71.0278 143.13 71.2564 142.504C72.1745 144.055 73.0814 145.472 73.8759 146.952C77.2861 153.323 80.6325 159.727 84.0727 166.083C84.8559 167.529 84.9946 169.092 85.2831 170.629C85.7815 173.301 86.1488 175.995 86.561 178.633C88.0487 177.115 89.825 175.841 91.2566 174.174C92.7705 172.412 93.64 170.363 94.277 168.208C94.6218 167.042 94.0559 165.892 93.5463 164.835C91.1816 159.945 88.9369 154.994 86.3099 150.239C84.3275 146.649 82.2364 143.122 80.2316 139.547C79.8531 138.876 79.5158 138.835 78.8188 139.116C74.6516 140.784 70.4657 142.41 66.2685 143.992C65.4628 144.295 64.6834 144.797 63.6378 144.734C64.0201 144.142 64.5747 143.992 65.0581 143.767C69.3902 141.758 73.8496 140.057 78.2716 138.262C78.5902 138.134 79.2797 138.221 78.815 137.445C78.7213 137.287 79.5308 137.126 79.6057 137.224C80.0554 137.805 80.4789 137.407 80.8724 137.242C84.6873 135.631 88.5097 134.046 92.5907 133.21C99.797 131.737 106.752 129.275 113.955 127.784C116.706 127.214 119.542 127.012 122.214 126.139C128.57 124.063 135.229 123.066 141.48 120.623C143.14 119.974 144.575 119.086 145.482 117.366C144.096 117.531 142.792 117.632 141.469 117.595C139.887 117.55 138.643 116.916 137.654 115.788C136.121 114.046 135.611 111.996 136.099 109.721C136.196 109.275 136.623 109.107 136.987 108.93C139.123 107.892 141.368 107.184 143.747 106.757C143.609 106.435 143.342 106.487 143.125 106.476C138.636 106.244 134.146 106.225 129.668 106.656C127.371 106.877 125.092 107.312 122.806 107.653C121.386 107.866 119.955 107.975 118.523 107.96C116.376 107.934 114.296 108.421 112.179 108.619C110.504 108.777 108.832 109.013 107.153 109.122C104.268 109.309 101.401 109.695 98.5304 110.017C96.5105 110.246 94.4906 110.523 92.4595 110.636C89.9487 110.774 87.4904 111.329 84.9871 111.449C81.813 111.602 78.6614 112.052 75.4873 112.239C72.0771 112.442 68.6744 112.865 65.3092 113.495C64.5672 113.634 63.8102 113.69 63.0645 113.813C61.6667 114.049 60.6136 114.926 59.5718 115.811C59.3507 115.518 59.5081 115.342 59.6805 115.14C60.5087 114.188 61.4643 113.427 62.7309 113.15C63.1544 113.056 63.383 112.858 63.4692 112.412C64.6571 106.251 67.3628 100.701 70.5032 95.3609C76.7239 84.7781 84.8784 75.9004 94.6518 68.4954C94.9516 68.2706 95.3001 68.1132 95.6261 67.922C95.8322 67.9333 96.0383 67.9445 96.2444 67.952C89.5552 73.6781 83.0347 79.5654 77.7995 86.7268C72.7179 93.6783 68.1947 100.93 65.3616 109.122C64.9569 110.291 64.6384 111.49 64.2561 112.749C65.4816 112.779 66.5946 112.483 67.7113 112.314C69.8136 112 71.9309 111.838 74.0408 111.599C76.9151 111.269 79.8156 111.288 82.6861 110.89C83.1096 110.83 83.2782 110.632 83.4056 110.313C86.2237 103.336 90.3872 97.1859 95.064 91.3474C100.771 84.2235 107.198 77.9277 115.334 73.5844C119.756 71.2236 124.519 70.163 129.492 69.8445C133.562 69.5859 137.56 69.8482 141.48 71.0399C143.256 71.5796 144.815 72.7563 146.704 72.9024C148.533 73.0448 150.313 73.3746 152.063 73.8917C152.295 73.9592 152.509 74.0754 152.936 74.2552C151.988 74.5251 151.328 74.0904 150.643 74.0079C149.612 73.888 148.596 73.6407 147.566 73.517C146.831 73.4308 146.828 73.4795 146.94 74.2028C144.392 72.7675 141.592 73.3259 138.883 73.2172C137.871 73.1797 136.852 73.3146 135.623 73.3821C138.954 73.8018 142.248 73.3259 145.134 75.0872C144.973 75.5369 144.695 75.4582 144.53 75.387C142.672 74.5888 140.674 74.63 138.729 74.5138C133.082 74.1766 127.502 74.675 122.031 76.1777C117.864 77.3207 114.345 79.6666 110.968 82.2598C107.94 84.587 105.437 87.4201 103.136 90.448C102.945 90.6991 102.75 90.9539 102.518 91.2612C102.345 90.894 102.353 90.7253 102.48 90.5454C105.95 85.655 109.949 81.3342 115.162 78.2088C118.722 76.0728 122.567 74.926 126.614 74.2627C129.387 73.8093 132.175 73.4383 134.948 72.9886C137.324 72.6064 139.752 72.4977 142.192 72.5089C140.888 71.8531 139.46 71.6095 138.047 71.4334C132.325 70.7251 126.67 71.0737 121.135 72.7525C116.26 74.2328 111.961 76.826 108.019 79.9664C97.5898 88.2707 89.5402 98.4938 83.7954 110.527C83.7579 110.609 83.7204 110.696 83.653 110.845C88.6746 110.058 93.6849 109.538 98.6878 108.968C101.716 108.623 104.744 108.245 107.802 108.117C110.013 108.024 112.216 107.626 114.412 107.319C115.769 107.132 117.125 106.963 118.497 107.004C120.929 107.075 123.282 106.465 125.673 106.165C128 105.876 130.29 105.337 132.67 105.423C134.705 105.498 136.739 105.059 138.782 105.292C141.113 105.558 143.459 105.655 145.786 106C147.322 106.225 148.9 106.086 150.455 105.944C151.609 105.835 152.824 105.569 153.704 106.712C154.42 107.645 154.338 108.679 154.071 109.706C153.625 111.438 152.719 112.951 151.733 114.42C151.699 114.469 151.572 114.454 151.343 114.495C151.737 113.626 152.108 112.858 152.434 112.071C152.917 110.905 153.359 109.725 153.314 108.428C153.277 107.319 152.786 106.851 151.669 106.824C147.011 106.716 142.556 107.668 138.235 109.343C136.635 109.965 136.222 110.647 136.694 112.329C137.092 113.738 137.583 115.125 138.883 116.092C139.794 116.77 140.73 117.119 141.836 117.167C143.421 117.235 144.988 117.074 146.55 116.714C145.842 119.075 144.186 120.42 142.065 121.263C140.285 121.972 138.467 122.582 136.623 123.118C132.61 124.288 128.476 124.955 124.459 126.139C115.117 128.897 105.587 130.954 96.1695 133.443C94.648 133.844 93.1265 134.26 91.5938 134.608C90.7544 134.799 90.4509 135.436 90.1736 136.1C89.3491 138.071 88.8207 140.139 88.2099 142.182C87.4754 144.629 87.2618 147.117 87.2543 149.647C87.2543 149.976 87.3105 150.254 87.4604 150.546C89.7501 154.949 92.0285 159.36 94.1534 163.846C95.1352 165.914 95.3376 167.878 94.6705 170.213C93.9023 172.888 92.793 175.182 90.8219 177.1C90.2672 177.64 89.6676 178.101 89.0081 178.502C87.5279 179.398 86.7709 180.586 87.0219 182.433C87.273 184.251 86.8233 185.821 85.0545 186.911C82.9822 188.189 81.1497 189.823 79.2535 191.356C79.0061 191.554 78.6426 191.704 79.0361 192.161C80.8274 194.245 82.6824 196.257 84.8297 197.989C86.8983 199.653 89.3191 200.32 91.8936 200.619C92.422 200.679 92.4745 200.458 92.4183 200.031C92.1822 198.24 91.9573 196.445 91.7362 194.65C91.4477 192.323 91.1666 189.995 90.8781 187.668C90.6645 185.948 90.4396 184.228 90.3309 182.482C90.8893 183.179 90.9081 184.052 91.0617 184.858C92.1635 190.539 92.6694 196.325 93.8386 201.984C94.9853 207.549 96.4168 213.057 98.4592 218.397C99.7558 221.793 101.416 224.948 103.799 227.654C104.313 228.238 105.216 228.662 105.864 229.258C108.956 232.117 111.744 235.28 114.839 238.147C118.178 241.238 121.806 243.876 125.617 246.32C131.118 249.842 136.987 252.645 142.863 255.467C148.956 258.394 155.342 260.354 161.851 261.958C164.501 262.61 167.214 263.213 170.002 263.093C170.725 263.063 171.456 263.236 172.187 263.266C177.433 263.472 182.413 262.19 187.319 260.519C189.125 259.904 190.83 259.027 192.577 258.289C197.741 256.104 201.54 252.379 204.894 248.122C207.51 244.798 209.612 241.107 211.707 237.431C214.896 231.828 217.014 225.78 218.974 219.675C220.3 215.542 221.822 211.457 222.702 207.196C223.812 201.852 224.853 196.49 225.786 191.112C226.469 187.189 226.72 183.205 227.023 179.236C227.342 175.077 227.484 170.902 227.656 166.731C227.795 163.351 227.919 159.967 227.743 156.594C227.574 153.372 227.69 150.152 227.627 146.933C227.619 146.649 227.495 146.308 227.896 146C229.332 156.714 228.781 167.372 228.365 177.974C228.758 178.138 228.818 177.891 228.897 177.756C229.74 176.295 230.654 174.863 231.389 173.349C232.91 170.209 233.398 166.862 233.06 163.396C232.727 159.971 232.292 156.549 232.034 153.12C231.756 149.41 232.131 145.742 233.012 142.118C234.297 136.845 233.637 131.899 230.505 127.345C230.032 126.66 229.414 126.03 229.182 125.149C229.081 124.763 228.556 124.838 228.174 124.962C227.274 125.251 226.772 126.03 226.101 126.607C225.093 127.477 224.955 128.391 225.296 129.691C226.116 132.806 226.723 135.972 227.409 139.124C227.439 139.266 227.495 139.465 227.304 139.54C227.109 139.615 227.023 139.442 226.963 139.3C226.708 138.693 226.431 138.093 226.217 137.467C224.34 131.944 222.507 126.397 221.413 120.656C220.821 117.531 220.57 114.342 220.124 111.19C219.435 106.33 218.528 101.496 216.601 96.9686C214.788 92.704 212.667 88.5668 210.253 84.5907C209.182 82.8294 208.218 81.0007 207.203 79.2056C207.049 78.9321 206.933 78.5686 206.603 78.5086C206.165 78.4299 205.651 78.5199 206.266 77.879C206.468 77.6692 206.142 77.5717 206.022 77.4893C205.419 77.0733 204.846 76.5824 204.182 76.2976C199.255 74.1728 194.566 71.5009 189.489 69.7321C186.794 68.7915 184.647 67.0152 182.249 65.5949C182.545 65.1227 182.871 65.2314 183.204 65.3663C183.639 65.5462 184.111 65.6698 184.508 65.9134C186.858 67.3562 189.481 68.0982 192.059 68.9751C196.369 70.4366 200.315 72.7488 204.572 74.3527C206.157 74.9485 207.484 76.0578 208.728 77.2082C212.288 80.4985 216.156 83.444 219.457 87.0228C222.953 90.8153 225.801 95.0199 227.799 99.7867C227.911 100.056 228.147 100.315 227.911 100.997C223.384 92.7564 217.1 86.3745 209.905 80.8245C209.83 80.7946 209.714 80.7234 209.691 80.7421C209.575 80.8508 209.646 80.9407 209.762 81.0044ZM230.025 125.876C230.149 125.865 230.201 125.925 230.197 126.045C230.508 126.202 230.748 126.412 230.741 126.798C231.37 127.162 231.453 127.953 232.007 128.384C231.734 127.799 231.404 127.252 231.048 126.72C230.921 126.529 230.801 126.607 230.733 126.795C231.243 126.57 230.778 126.36 230.692 126.191C230.613 126.03 230.467 125.7 230.194 126.045C230.227 125.978 230.31 125.88 230.287 125.843C230.186 125.67 230.104 125.802 230.025 125.88C230.04 125.805 230.186 125.772 230.066 125.652C229.957 125.543 229.897 125.655 229.819 125.663C229.763 125.603 229.987 125.513 229.796 125.468C229.808 125.532 229.819 125.592 229.834 125.652C229.939 125.689 230.051 125.727 230.025 125.876ZM89.7988 135.178C86.6547 136.073 83.5593 137.115 80.5463 138.457C82.4313 141.762 84.2938 145.026 86.1563 148.294C86.1863 143.564 88.0975 139.45 89.7988 135.178Z" fill="#C1B28A"/>
<path d="M294.065 368.981C293.443 367.333 292.296 366.014 291.273 364.623C288.406 360.73 284.648 357.769 280.87 354.831C273.169 348.843 265.509 342.802 257.767 336.87C254.458 334.333 250.969 332.032 247.582 329.596C242.463 325.916 237.137 322.521 232.378 318.342C229.242 315.588 225.955 313.002 222.71 310.371C217.921 306.493 213.334 302.404 209.181 297.836C204.149 292.301 200.056 286.159 197.04 279.087C196.609 281.456 196.391 283.663 196.204 285.874C196.009 288.16 195.811 290.446 195.844 292.743C195.878 295.007 195.927 297.274 196.05 299.534C196.174 301.786 196.451 304.031 196.399 306.302C196.069 306.249 196.043 306.024 196.024 305.799C195.563 300.129 194.896 294.471 195.065 288.763C195.173 285.106 195.514 281.475 196.155 277.866C196.747 274.531 197.103 271.15 197.77 267.83C198.486 264.266 198.767 260.628 199.659 257.097C199.768 256.674 199.858 256.224 200.21 255.917C200.334 255.808 200.435 255.55 200.663 255.707C200.847 255.835 200.75 256.011 200.712 256.206C199.76 261.208 199.037 266.249 198.306 271.285C198.07 272.912 197.759 274.531 197.456 276.149C197.347 276.727 197.31 277.27 197.553 277.821C200.105 283.558 203.369 288.842 207.282 293.766C211.419 298.979 216.29 303.423 221.469 307.504C227.454 312.215 233.158 317.293 239.42 321.644C245.123 325.605 250.804 329.603 256.396 333.722C260.859 337.012 265.221 340.445 269.632 343.81C275.714 348.453 281.725 353.19 287.406 358.32C290.471 361.086 292.806 364.432 294.301 368.318C294.316 368.359 294.399 368.374 294.451 368.404C294.399 368.648 294.657 369.098 294.065 368.981Z" fill="#C1B28A"/>
<path d="M69.5625 109.893C69.2664 109.609 69.5587 109.436 69.6337 109.271C73.7671 100.03 79.853 92.2316 87.3142 85.4636C92.7293 80.5507 98.5116 76.1062 104.755 72.2988C109.735 69.2596 115.236 67.8281 121.045 67.5358C123.687 67.4047 126.333 67.2473 128.975 67.1873C133.528 67.0861 137.927 68.1392 142.327 69.1135C143.845 69.4508 144.913 70.6724 146.325 71.2308C146.419 71.2683 146.543 71.3732 146.472 71.5231C146.408 71.6505 146.307 71.7067 146.16 71.6693C145.767 71.5643 145.306 71.5606 144.988 71.347C143.436 70.3089 141.664 70.0204 139.887 69.6981C135.615 68.9186 131.324 68.5027 126.974 68.705C121.21 68.9748 115.48 69.3571 110.039 71.5643C106.677 72.9284 103.691 74.9033 100.711 76.9194C93.3738 81.8848 86.531 87.4273 80.5763 94.0266C76.544 98.4936 73.1488 103.388 70.3794 108.728C70.1621 109.144 70.0459 109.661 69.5625 109.893Z" fill="#C1B28A"/>
<path d="M209.414 136.287C208.751 136.744 208.039 137.107 207.184 137.415C208.623 138.599 210.088 137.688 211.621 137.568C211.078 138.355 210.242 138.112 209.699 138.636C210.617 139.285 211.569 139.881 212.524 140.949C210.583 140.754 209.17 139.817 207.563 139.375C207.683 140.679 207.814 141.957 207.907 143.235C208.005 144.535 208.02 145.832 207.09 147.031C207.967 146.885 208.571 146.277 209.436 146.266C209.227 146.941 208.732 147.301 208.275 147.657C206.169 149.29 203.752 150.055 201.11 150.085C199.015 150.111 196.905 150.265 194.844 149.721C194.634 149.665 194.413 149.616 194.222 149.512C194.008 149.395 193.768 149.253 193.858 148.938C193.974 148.533 194.237 148.676 194.529 148.725C197.283 149.197 200.042 148.923 202.788 148.728C202.8 148.612 202.833 148.522 202.807 148.503C200.131 146.36 199.813 143.358 199.805 140.248C199.805 139.738 199.805 139.221 199.903 138.723C200.109 137.658 200.042 137.598 198.944 137.658C194.252 137.924 190.362 139.873 187.12 143.22C186.633 143.722 186.097 144.179 185.573 144.64C185.318 144.865 184.999 145.213 184.696 144.793C184.448 144.449 184.801 144.179 185.037 143.932C186.446 142.448 188.057 141.2 189.65 139.926C191.471 138.468 193.581 137.662 195.788 137.062C197.568 136.579 199.165 135.762 200.6 134.619C200.78 134.477 201.106 134.346 200.948 134.031C200.776 133.694 200.487 133.948 200.278 133.997C195.552 135.114 191.119 136.879 187.263 139.914C187.132 140.019 187.034 140.24 186.712 140.135C186.727 139.719 187.079 139.54 187.338 139.311C191.4 135.717 196.287 134.057 201.537 133.259C201.762 133.225 201.971 133.191 202.151 133.041C202.26 133.041 202.369 133.038 202.477 133.038C202.492 133.113 202.507 133.188 202.519 133.259C202.485 133.293 202.481 133.33 202.519 133.364C201.338 134.289 200.536 135.631 198.899 136.362C200.941 136.703 202.436 136.058 203.856 135.129C203.935 135.211 204.018 135.294 204.096 135.376C203.793 135.882 203.073 135.905 202.755 136.564C204.816 136.95 206.214 135.721 207.713 134.784C207.881 134.9 208.057 134.941 208.248 134.848C207.319 135.59 206.375 136.313 205.172 136.928C206.772 137.497 207.847 136.553 209.032 136.088C209.152 136.163 209.283 136.227 209.414 136.287ZM200.87 139.798C201.102 142.279 201.492 144.711 203.002 146.806C203.381 147.331 203.826 147.529 204.467 147.402C205.498 147.196 206.547 146.24 206.731 145.202C207.068 143.324 206.697 141.466 206.521 139.603C206.476 139.131 206.064 138.813 205.547 138.704C204.523 138.487 203.504 138.25 202.481 138.029C201.166 137.748 200.881 137.973 200.843 139.318C200.84 139.48 200.862 139.637 200.87 139.798ZM201.125 133.986C201.147 133.96 201.166 133.941 201.185 133.918C201.143 133.896 201.102 133.87 201.057 133.858C201.042 133.855 201.016 133.896 200.993 133.915C201.038 133.937 201.08 133.96 201.125 133.986Z" fill="#C1B28A"/>
<path d="M134.952 144.142C135.922 144.404 136.893 144.666 137.86 144.925C137.882 144.869 137.901 144.812 137.923 144.756C137.241 144.246 136.556 143.733 135.874 143.223C135.877 143.085 135.881 142.942 135.889 142.804C135.949 142.834 136.008 142.86 136.068 142.89C136.132 142.931 136.192 142.972 136.252 143.01C137.725 144.194 139.452 144.726 141.259 145.183C144.006 145.877 146.16 147.623 148.203 149.497C148.742 149.991 149.274 150.497 149.788 151.022C149.942 151.179 150.238 151.367 149.945 151.655C149.679 151.918 149.571 151.584 149.409 151.49C148.023 150.688 147.018 149.407 145.696 148.526C145.591 148.459 145.49 148.387 145.313 148.264C145.328 148.927 145.411 149.534 145.201 150.085C145.137 150.257 145.227 150.823 144.744 150.587C144.463 150.449 143.934 150.366 144.148 149.808C144.313 149.377 144.294 148.968 144.193 148.511C143.946 147.387 143.275 146.847 142.214 146.42C139.643 145.386 137.114 145.824 134.562 146.319C134.345 146.36 134.109 146.439 133.944 146.784C133.475 147.777 133.31 148.897 132.621 149.804C132.336 150.179 133.213 151.393 133.73 151.397C135.068 151.412 136.406 151.404 137.747 151.322C140.742 151.146 143.739 151.097 146.719 151.588C146.876 151.614 147.045 151.621 147.183 151.685C147.427 151.794 147.835 151.82 147.764 152.199C147.682 152.626 147.277 152.427 147.045 152.382C145.31 152.056 143.552 152.086 141.806 152.079C139.254 152.071 136.706 152.184 134.153 152.247C131.493 152.315 128.836 152.393 126.22 152.952C126.081 152.982 125.924 152.929 125.774 152.914C125.759 152.442 126.13 152.472 126.363 152.393C128.124 151.798 129.953 151.55 131.8 151.404C132.021 151.385 132.523 151.539 132.295 151.026C131.616 149.493 131.961 148.17 133.295 146.851C126.31 148.144 120.198 151.198 113.704 153.075C117.028 150.872 120.599 149.219 124.564 147.878C123.619 147.735 122.922 147.63 122.222 147.522C124.511 147.589 126.677 146.828 128.982 146.555C127.176 146.173 125.392 145.944 123.466 145.157C125.28 144.988 126.715 145.588 128.206 145.745C129.735 145.903 131.245 146.038 132.797 145.633C132.445 145.082 131.721 145.528 131.388 144.944C132.797 144.872 134.236 145.307 135.919 144.962C135.049 144.632 134.423 144.393 133.794 144.153C133.921 143.902 134.18 144.044 134.363 143.965L134.742 144.04C134.768 144.157 134.847 144.183 134.952 144.142Z" fill="#C1B28A"/>
<path d="M125.294 41.1014C125.95 40.4981 126.726 40.558 127.389 40.4306C131.054 39.7298 134.731 39.6286 138.456 40.1196C147.483 41.3038 155.784 44.4928 163.642 48.9598C164.688 49.5557 165.729 50.1777 166.501 51.1333C167.112 51.8866 166.992 52.1414 165.928 52.3025C167.517 53.4642 168.99 54.6672 170.283 56.0762C170.672 56.4997 170.998 56.9606 171.253 57.474C171.362 57.6951 171.343 57.905 171.122 58.0624C170.875 58.2423 170.785 58.0062 170.684 57.8788C167.112 53.3931 162.218 50.7698 157.17 48.4164C151.332 45.6958 145.242 43.6684 138.935 42.3605C136.151 41.7834 133.321 41.2963 130.466 42.0832C129.938 42.2294 129.447 42.5404 128.787 42.4954C129.106 41.8884 129.72 41.8846 130.196 41.7197C132.37 40.9515 134.607 40.9852 136.855 41.2925C145.321 42.4467 153.228 45.3135 160.794 49.1884C162.282 49.9491 163.672 50.9085 165.122 51.7479C165.287 51.8416 165.441 52.295 165.741 51.8941C166.026 51.5193 165.703 51.3357 165.478 51.1483C164.377 50.2377 163.155 49.5032 161.911 48.8137C155.128 45.04 147.914 42.4355 140.292 40.9815C137.099 40.3706 133.85 40.202 130.608 40.4119C129.117 40.5093 127.607 40.6967 126.141 41.1051C125.917 41.1576 125.654 41.1014 125.294 41.1014Z" fill="#C1B28A"/>
<path d="M116.923 48.2216C117.451 47.7906 118.141 47.9517 118.703 47.888C123.102 47.3821 127.509 47.236 131.939 47.5957C139.475 48.2141 146.771 49.9192 153.944 52.2351C159.625 54.0713 165.014 56.4959 169.74 60.2284C171.194 61.3789 172.558 62.6193 173.798 63.9983C174.814 65.1263 175.147 66.5091 175.402 67.9707C174.874 67.9931 174.799 67.6521 174.716 67.3711C173.948 64.7816 171.958 63.1439 170.032 61.5025C164.804 57.0506 158.542 54.641 152.1 52.6211C146.764 50.946 141.323 49.713 135.806 48.8212C131.208 48.0754 126.569 47.8768 121.914 48.0454C120.393 48.1016 118.879 48.2853 117.361 48.4014C117.226 48.4164 117.05 48.4614 116.923 48.2216Z" fill="#C1B28A"/>
<path d="M196.44 218.049C196.268 218.536 195.9 218.3 195.661 218.199C191.606 216.527 187.304 216.078 183.002 215.632C182.211 215.549 181.413 215.504 180.618 215.452C179.183 215.362 177.808 215.512 176.384 215.898C173.101 216.79 169.713 217.164 166.363 216.34C164.167 215.8 162.095 216.081 159.944 216.456C154.885 217.341 150.163 219.196 145.516 221.302C145.269 220.777 145.598 220.56 145.939 220.365C146.382 220.114 146.835 219.878 147.292 219.656C152.115 217.322 157.223 215.913 162.488 215.006C164.249 214.702 165.906 215.261 167.581 215.617C170.508 216.243 173.378 215.778 176.181 215.066C177.572 214.714 178.909 214.451 180.315 214.597C184.711 215.055 189.163 215.163 193.39 216.689C194.439 217.067 195.424 217.58 196.425 218.06L196.44 218.049Z" fill="#C1B28A"/>
<path d="M191.662 86.5129C190.868 86.5129 190.163 86.5916 189.485 86.4979C186.712 86.1156 183.943 86.4791 181.177 86.5503C179.416 86.5953 177.666 87.0188 175.904 87.1574C171.834 87.476 167.877 88.5103 163.834 88.9787C162.099 89.1811 160.352 89.256 158.61 89.3872C154.008 89.7357 149.425 90.1666 144.931 91.3471C140.959 92.3926 136.968 93.3857 132.921 94.1052C130.822 94.4762 128.724 94.8435 126.648 95.3194C126.539 95.3456 126.393 95.3494 126.307 95.1208C126.955 94.5474 127.824 94.5174 128.611 94.3825C134.581 93.3445 140.446 91.8567 146.299 90.3278C149.316 89.5408 152.389 89.2523 155.477 88.9974C157.976 88.7913 160.465 88.4653 162.968 88.2929C166.509 88.0493 169.946 87.0825 173.457 86.7677C177.591 86.3967 181.702 85.6097 185.872 85.7671C187.645 85.8346 189.429 85.8346 191.19 86.1306C191.347 86.1531 191.49 86.1793 191.662 86.5129Z" fill="#C1B28A"/>
<path d="M148.225 222.834C149.612 223.029 151.002 223.228 152.392 223.423C154.641 223.737 156.908 223.775 159.168 223.782C162.398 223.794 165.576 224.022 168.731 224.798C171.86 225.566 174.993 225.21 178.07 224.318C180.052 223.741 181.993 222.894 184.058 222.774C185.82 222.673 187.532 222.415 189.256 222.096C190.774 221.815 192.303 221.579 193.828 221.335C194.071 221.298 194.33 221.332 194.652 221.332C193.997 222.01 193.18 222.126 192.408 222.253C189.653 222.718 186.951 223.453 184.118 223.543C182.282 223.599 180.536 224.378 178.789 224.963C174.933 226.256 171.055 226.391 167.135 225.319C165.561 224.888 163.976 224.648 162.338 224.592C158.302 224.449 154.236 224.588 150.26 223.644C149.555 223.475 148.836 223.378 148.225 222.834Z" fill="#C1B28A"/>
<path d="M130.354 51.5007C131.909 51.6806 133.471 51.808 135.012 52.0554C138.456 52.61 141.896 53.2058 145.265 54.1389C152.868 56.245 160.03 59.2879 166.415 63.9948C168.045 65.1977 169.721 66.3856 170.639 68.2968C170.8 68.6341 170.931 68.9826 171.07 69.3311C171.141 69.5073 171.201 69.7209 170.998 69.8295C170.83 69.9195 170.687 69.7546 170.616 69.6234C168.443 65.6361 164.56 63.6425 160.877 61.5289C153.726 57.4255 146.022 54.746 137.923 53.1796C135.701 52.7486 133.483 52.3177 131.238 52.0366C130.919 51.9954 130.62 51.8418 130.309 51.7406C130.324 51.6619 130.339 51.5794 130.354 51.5007Z" fill="#C1B28A"/>
<path d="M78.4067 58.0925C79.1487 57.1369 79.7408 56.3424 80.3667 55.5742C86.3888 48.173 93.7301 42.3119 101.791 37.3016C105.445 35.0306 109.275 33.1457 113.513 32.2275C115.893 31.7104 118.295 31.3132 120.746 31.3544C121.405 31.3656 121.96 31.5305 122.319 32.1001C115.087 31.6354 108.716 33.9739 102.705 37.6239C96.2784 41.525 90.2974 46.0107 84.9198 51.2684C82.9187 53.2245 81.0674 55.3269 79.3399 57.5341C79.1712 57.7515 79.0138 58.0175 78.4067 58.0925Z" fill="#C1B28A"/>
<path d="M167.933 345.56C167.817 343.161 168.24 340.827 168.776 338.507C171.066 328.632 174.094 318.983 177.83 309.565C180.551 302.711 183.732 296.071 187.581 289.768C188.15 288.838 188.409 288.688 189.192 288.681C187.165 290.776 186.097 293.541 184.74 296.101C178.943 307.062 174.693 318.634 171.309 330.544C170.234 334.329 169.188 338.117 168.476 341.988C168.259 343.169 168.3 344.394 167.933 345.56Z" fill="#C1B28A"/>
<path d="M152.542 228.249C152.734 228.377 152.925 228.504 153.112 228.632C153.183 228.684 153.254 228.733 153.329 228.785L153.322 228.782C153.382 228.943 153.494 229.025 153.67 229.003C153.745 229.055 153.817 229.108 153.888 229.156C153.948 229.317 154.056 229.404 154.233 229.392C155.038 230.071 155.799 230.801 156.773 231.266C159.385 232.518 161.634 234.429 164.396 235.407C168.166 236.745 171.977 237.213 176.024 236.955C179.801 236.715 183.129 235.377 186.543 234.103C187.664 233.683 188.556 232.889 189.485 232.165C189.496 232.33 189.507 232.495 189.519 232.66C188.66 233.593 187.6 234.219 186.449 234.718C183.047 236.187 179.55 237.206 175.833 237.659C170.043 238.368 164.819 237.112 159.876 234.088C157.283 232.503 154.9 230.674 152.542 228.793C152.546 228.609 152.546 228.429 152.542 228.249Z" fill="#C1B28A"/>
<path d="M131.302 27.948C138.913 27.6145 146.299 28.4951 153.232 31.9353C156.428 33.5205 159.138 35.6903 161.383 38.4446C161.727 38.8681 162.151 39.3028 161.731 40.0298C156.204 33.3519 148.949 30.1665 140.622 29.046C137.586 28.6376 134.54 28.4052 131.485 28.2628C131.425 28.1616 131.362 28.0529 131.302 27.948Z" fill="#C1B28A"/>
<path d="M114.704 210.453C114.142 209.43 113.569 208.414 113.022 207.384C108.435 198.693 104.091 189.887 100.558 180.702C99.6581 178.359 98.8637 175.98 98.2753 173.537C98.1441 172.993 98.1629 172.468 98.1404 171.933C98.1329 171.697 98.0654 171.389 98.384 171.281C98.6126 171.202 98.8074 171.326 98.9648 171.502C99.1897 171.749 99.2234 172.109 99.0061 172.251C98.5039 172.581 98.7625 172.926 98.8599 173.297C100.464 179.416 102.982 185.187 105.568 190.932C108.397 197.232 111.373 203.46 114.618 209.557C114.745 209.797 114.824 210.063 114.925 210.314C114.854 210.359 114.779 210.404 114.704 210.453Z" fill="#C1B28A"/>
<path d="M100.55 48.8435C98.9346 49.5705 97.4056 50.2488 95.9554 51.0845C92.9424 52.8233 90.3379 55.0943 87.7672 57.3952C84.372 60.4344 81.1004 63.6085 77.9788 66.9325C74.1114 71.0509 70.4951 75.3755 67.0775 79.8724C66.9201 80.0823 66.8451 80.4158 66.3242 80.3446C67.2236 79.1155 68.0518 77.9238 68.9362 76.7808C73.0059 71.5231 77.3717 66.5203 82.1347 61.8809C85.9159 58.2009 89.7233 54.5321 94.1304 51.5829C95.9029 50.3987 97.7766 49.3906 99.804 48.6974C100.033 48.6187 100.216 48.5437 100.55 48.8435Z" fill="#C1B28A"/>
<path d="M141.42 99.1532C144.77 99.2244 147.809 97.969 150.98 97.3582C154.416 96.6986 157.841 96.0053 161.36 95.8704C163.215 95.7992 165.029 95.2858 166.88 95.0797C168.75 94.8699 170.628 94.9486 172.498 94.7724C175.267 94.5101 178.036 94.2478 180.791 93.8393C181.424 93.7456 182.076 93.7606 182.717 93.7231C182.724 93.8018 182.736 93.8805 182.743 93.963C181.139 94.2253 179.539 94.5513 177.928 94.7387C175.346 95.0385 172.76 95.3158 170.17 95.4732C168.398 95.5819 166.629 95.6831 164.86 95.8817C158.606 96.5899 152.359 97.302 146.277 99.052C144.943 99.438 143.552 99.6179 142.147 99.5354C141.907 99.5242 141.622 99.6291 141.42 99.1532Z" fill="#C1B28A"/>
<path d="M132.448 24.7025C136.867 24.4514 141.124 25.4033 145.362 26.4601C147.708 27.0447 150.005 27.8092 152.201 28.8435C153.565 29.4843 154.821 30.29 155.964 31.2718C156.376 31.6278 156.751 32.0101 156.511 32.6734C153.985 30.2263 150.871 28.9934 147.663 27.9403C142.896 26.3739 137.987 25.497 133.014 24.9349C132.954 24.8299 132.872 24.8224 132.774 24.8861C132.662 24.8712 132.549 24.8562 132.437 24.8412C132.467 24.7925 132.471 24.7475 132.448 24.7025Z" fill="#C1B28A"/>
<path d="M134.349 36.8856C136.597 36.7432 138.804 37.1254 140.985 37.5451C146.768 38.6544 152.396 40.3332 157.815 42.6566C160.476 43.7996 163.137 44.9576 165.246 47.0337C165.453 47.2398 165.805 47.3822 165.737 47.7869C165.483 47.9705 165.295 47.7719 165.153 47.6408C162.357 45.1262 158.947 43.7247 155.529 42.3643C150.32 40.2883 144.943 38.763 139.438 37.71C137.991 37.4327 136.511 37.3128 135.049 37.1029C134.806 37.0692 134.581 36.9605 134.349 36.8856Z" fill="#C1B28A"/>
<path d="M175.379 155.047C174.937 153.128 175.027 151.202 175.199 149.324C175.439 146.72 175.81 144.111 176.672 141.616C177.171 140.173 177.856 138.82 178.789 137.602C179.041 137.276 179.288 136.95 179.719 136.819C179.97 136.74 180.165 136.804 180.311 136.98C180.48 137.179 180.431 137.426 180.258 137.583C178.553 139.184 177.815 141.301 177.272 143.459C176.376 147.02 175.668 150.621 175.713 154.323C175.72 154.578 175.769 154.852 175.379 155.047Z" fill="#C1B28A"/>
<path d="M169.323 200.204C170.429 200.402 171.354 200.695 172.347 200.665C174.573 200.605 176.402 199.829 177.77 198.023C179.082 196.288 180.682 194.871 182.567 193.773C183.234 193.387 183.942 193.301 184.673 193.353C185.389 193.402 185.505 193.945 185.479 194.519C185.43 195.669 183.631 196.805 182.361 196.396C182.968 196.089 183.511 195.823 184.047 195.546C184.47 195.328 184.853 194.98 184.673 194.5C184.47 193.968 183.856 194.264 183.601 194.376C182.203 194.983 180.839 195.677 180.157 197.187C179.944 197.655 179.936 197.648 179.52 197.333C179.273 197.149 179.22 197.438 179.13 197.532C178.501 198.206 177.954 198.967 177.268 199.578C175.297 201.332 173.014 201.804 170.492 201.021C170.121 200.904 169.72 200.758 169.323 200.204Z" fill="#C1B28A"/>
<path d="M164.587 44.639C162.117 42.3268 159.198 41.0564 156.282 39.8085C151.575 37.7999 146.606 36.6344 141.663 35.394C141.446 35.3378 141.236 35.3303 141.06 35.0118C142.278 34.9144 143.354 35.3453 144.448 35.5814C149.387 36.6382 154.236 37.9948 158.808 40.1945C160.599 41.0564 162.391 41.9483 163.867 43.3236C164.201 43.6347 164.733 43.912 164.587 44.639Z" fill="#C1B28A"/>
<path d="M106.036 41.3637C105.83 41.5399 105.751 41.656 105.65 41.686C101.843 42.7503 98.7286 45.0287 95.6482 47.3709C90.5928 51.2158 85.9947 55.5666 81.5652 60.1048C81.3329 60.3408 81.1642 60.6781 80.6846 60.7493C80.7783 60.3633 81.0106 60.1198 81.2354 59.8874C86.5418 54.3824 92.0693 49.121 98.3426 44.7065C100.37 43.2787 102.525 42.072 104.946 41.4087C105.264 41.3225 105.556 41.3075 106.036 41.3637Z" fill="#C1B28A"/>
<path d="M165.385 136.898C165.003 136.635 165.01 136.366 165.006 136.126C164.98 132.596 164.834 129.066 165.13 125.535C165.351 122.909 165.437 120.267 165.557 117.632C165.591 116.856 165.771 116.163 166.415 115.59C166.236 122.676 165.389 129.721 165.385 136.898Z" fill="#C1B28A"/>
<path d="M173.802 99.2169C172.973 99.5691 172.066 99.5953 171.197 99.7153C168.63 100.064 166.056 100.382 163.474 100.63C161.292 100.839 159.1 100.933 156.912 101.061C156.732 101.072 156.402 101.207 156.395 100.851C156.391 100.607 156.631 100.54 156.867 100.476C157.954 100.184 159.078 100.229 160.176 100.142C163.301 99.8951 166.412 99.5204 169.529 99.1831C170.935 99.0332 172.359 99.037 173.775 98.9733C173.787 99.0557 173.794 99.1382 173.802 99.2169Z" fill="#C1B28A"/>
<path d="M90.027 69.6833C86.2383 73.7044 82.4047 77.6467 79.0769 82.0762C78.6984 81.6715 78.9458 81.3492 79.1331 81.0906C82.1761 76.841 85.7174 73.0561 89.7759 69.7583C89.8396 69.7058 89.9408 69.7058 90.027 69.6833Z" fill="#C1B28A"/>
<path d="M163.653 179.169C163.069 178.94 163.267 178.525 163.275 178.221C163.38 174.623 162.922 171.06 162.656 167.484C162.484 165.154 162.169 162.834 161.926 160.51C161.903 160.301 161.618 159.975 162.027 159.907C162.379 159.847 162.461 160.199 162.503 160.484C162.698 161.826 162.941 163.164 163.065 164.509C163.488 169.066 163.814 173.63 163.653 178.213C163.646 178.517 163.653 178.821 163.653 179.169Z" fill="#C1B28A"/>
<path d="M180.041 24.8753C174.45 26.8427 168.967 28.9226 164.388 32.7824C164.163 32.3028 164.171 32.3103 164.594 31.8268C165.49 30.8075 166.655 30.1555 167.802 29.4922C171.433 27.3898 175.319 25.9133 179.382 24.8828C179.588 24.8266 179.82 24.8753 180.041 24.8753Z" fill="#C1B28A"/>
<path d="M161.75 241.894C168.293 239.586 175.016 238.649 181.93 239.181C175.109 239.383 168.368 240.204 161.75 241.894Z" fill="#C1B28A"/>
<path d="M189.417 49.1584C187.427 49.2409 185.666 48.8699 183.882 48.9785C181.169 49.1397 178.482 49.4545 175.915 50.3763C175.289 50.6012 174.27 50.6499 174.604 51.8566C173.719 51.3807 173.701 50.8523 174.506 50.3126C175.567 49.6006 176.803 49.3083 178.018 49.0273C181.645 48.1953 185.303 48.3302 188.96 48.8137C189.065 48.8249 189.151 48.9486 189.417 49.1584Z" fill="#C1B28A"/>
<path d="M164.736 70.2827C161.139 67.2698 156.792 65.4635 152.696 62.9227C153.348 62.7054 153.636 63.0277 153.94 63.1663C157.028 64.5604 160.071 66.0481 162.885 67.9556C163.717 68.5177 164.448 69.2035 164.736 70.2827Z" fill="#C1B28A"/>
<path d="M195.279 126.993C195.226 126.498 195.398 126.259 195.627 126.086C197.846 124.426 199.348 122.084 201.282 120.154C202.091 119.348 202.856 118.486 203.875 117.935C204.081 117.823 204.336 117.531 204.685 117.924C202.151 119.925 200.27 122.526 198.142 124.898C197.358 125.771 196.418 126.438 195.279 126.993Z" fill="#C1B28A"/>
<path d="M195.027 67.0488C193.307 67.1125 191.744 66.5654 190.163 66.1494C188.136 65.6173 186.146 64.924 184.051 64.6692C183.864 64.6467 183.62 64.6392 183.601 64.4106C183.582 64.1857 183.807 64.1445 183.998 64.0883C184.898 63.8297 185.76 64.1445 186.595 64.3394C189.365 64.9914 192.07 65.8796 194.757 66.8202C194.862 66.8577 194.937 66.9701 195.027 67.0488Z" fill="#C1B28A"/>
<path d="M75.3447 194.638C71.5223 197.962 67.9772 201.616 63.6526 204.325C63.3528 203.988 63.6114 203.85 63.7725 203.752C66.2796 202.264 68.2133 200.091 70.398 198.217C71.7509 197.059 73.0775 195.864 74.3628 194.631C74.6739 194.331 74.9025 194.552 75.161 194.503C75.221 194.545 75.281 194.593 75.3447 194.638Z" fill="#C1B28A"/>
<path d="M171.613 48.7838C171.493 47.7195 172.085 47.0375 172.835 46.4679C174.203 45.4261 175.758 44.7815 177.418 44.3393C179.906 43.6723 182.428 43.3875 185.078 43.4324C184.797 43.9571 184.355 43.781 183.995 43.8147C180.731 44.0957 177.519 44.5904 174.559 46.1156C173.344 46.7377 172.374 47.6296 171.613 48.7838Z" fill="#C1B28A"/>
<path d="M167.607 38.347C167.285 37.7137 167.749 37.4439 168.034 37.1853C169.312 36.0161 170.935 35.4577 172.497 34.8094C175.357 33.629 178.37 33.0744 181.424 32.7109C181.619 32.6884 181.866 32.6022 182.117 32.9769C181.072 33.1493 180.09 33.2917 179.112 33.4753C175.522 34.1499 172.119 35.3603 168.922 37.1329C168.413 37.4177 168.027 37.8711 167.607 38.347Z" fill="#C1B28A"/>
<path d="M165.557 23.1063C163.271 24.8714 160.817 26.4153 158.643 28.3303C158.467 28.4877 158.25 28.7425 157.998 28.4689C157.807 28.2666 157.983 28.038 158.107 27.8656C158.272 27.6333 158.456 27.4084 158.673 27.2285C160.753 25.501 162.934 23.927 165.381 22.7466C165.523 22.7878 165.692 22.7728 165.767 22.9452L165.771 22.9414C165.651 22.9377 165.583 22.9939 165.557 23.1063Z" fill="#C1B28A"/>
<path d="M209.908 117.242C207.521 118.531 205.453 119.971 203.377 121.387C202.451 122.017 201.672 122.811 201.001 123.71C200.832 123.935 200.645 124.396 200.307 124.156C200.023 123.958 200.382 123.677 200.521 123.437C201.473 121.751 202.927 120.604 204.557 119.648C205.835 118.902 207.12 118.172 208.406 117.441C208.818 117.205 209.253 117.055 209.908 117.242Z" fill="#C1B28A"/>
<path d="M142.896 155.991C139.883 156.182 136.889 155.661 133.895 155.864C130.976 156.062 128.034 156.088 125.178 156.83C130.994 154.826 136.96 155.478 142.896 155.991Z" fill="#C1B28A"/>
<path d="M176.211 55.4128C176.383 54.6783 176.859 54.4647 177.331 54.3598C179.917 53.7864 182.533 53.6065 185.175 53.8838C186.408 54.015 187.656 54.0263 188.847 54.4947C186.753 54.5022 184.665 54.2286 182.57 54.3485C180.468 54.4685 178.339 54.446 176.211 55.4128Z" fill="#C1B28A"/>
<path d="M151.441 66.9402C152.996 67.2775 154.364 67.9295 155.683 68.7015C157.111 69.5372 158.419 70.534 159.535 71.7669C159.768 72.0217 159.996 72.2953 160.157 72.5988C160.251 72.7787 160.547 73.0261 160.206 73.2434C159.888 73.4458 159.745 73.1497 159.607 72.9586C158.61 71.6058 157.291 70.6202 155.953 69.6496C154.727 68.7577 153.408 68.0419 152.011 67.4611C151.823 67.3824 151.55 67.3899 151.441 66.9402Z" fill="#C1B28A"/>
<path d="M193.217 123.077C189.773 124.227 187.566 126.588 185.284 128.931C184.868 127.087 190.785 122.597 193.217 123.077Z" fill="#C1B28A"/>
<path d="M183.197 39.4226C178.778 40.4344 174.375 41.4237 170.508 44.4254C171.647 41.8359 180.442 39.2015 183.197 39.4226Z" fill="#C1B28A"/>
<path d="M64.8818 140.608C66.6694 136.83 67.7374 132.742 69.9147 129.133C69.9821 129.02 70.1208 128.99 70.2519 129.088C68.5543 132.974 66.853 136.868 65.1517 140.757C65.0617 140.705 64.9718 140.656 64.8818 140.608Z" fill="#C1B28A"/>
<path d="M189.811 127.642C192.291 125.206 195.158 123.283 198.224 121.631C198.28 121.706 198.336 121.781 198.388 121.852C195.597 123.872 192.805 125.891 190.013 127.911C189.949 127.821 189.882 127.731 189.811 127.642Z" fill="#C1B28A"/>
<path d="M161.78 200.267C161.251 200.788 160.88 200.998 160.386 201.043C159.314 201.144 158.321 200.856 157.373 200.44C156.713 200.147 156.151 199.634 156.211 198.858C156.282 197.974 156.537 197.108 157.538 196.475C157.429 197.318 157.14 197.914 157.125 198.577C157.11 199.229 157.384 199.63 157.931 199.814C158.909 200.143 159.88 200.597 160.966 200.275C161.135 200.222 161.337 200.267 161.78 200.267Z" fill="#C1B28A"/>
<path d="M160.382 151.498C159.22 148.286 157.684 145.292 155.323 142.729C155.96 142.47 156.23 142.875 156.503 143.13C158.118 144.621 160.258 149.141 160.382 151.498Z" fill="#C1B28A"/>
<path d="M135.664 133.075C136.706 132.828 137.62 133.21 138.535 133.585C140.161 134.252 141.735 135.013 143.099 136.145C143.316 136.324 143.537 136.527 143.687 136.763C143.777 136.905 144.036 137.085 143.774 137.325C143.504 137.569 143.35 137.31 143.223 137.183C141.716 135.695 139.827 134.822 137.958 133.934C137.227 133.585 136.432 133.356 135.664 133.075Z" fill="#C1B28A"/>
<path d="M72.3803 139.633C72.1705 139.349 72.3391 139.094 72.4478 138.835C73.6507 135.998 74.8911 133.18 76.3526 130.463C76.5962 130.01 76.8286 129.511 77.5368 129.197C75.5244 132.671 74.0967 136.223 72.3616 139.63L72.3803 139.633Z" fill="#C1B28A"/>
<path d="M72.5871 129.684L68.0564 139.899C67.9777 139.866 67.899 139.828 67.8203 139.794C69.2219 136.336 70.5297 132.832 72.2985 129.534C72.396 129.583 72.4896 129.631 72.5871 129.684Z" fill="#C1B28A"/>
<path d="M190.598 192.191C189.635 194.815 188.627 197.228 186.296 198.802C186.086 198.944 185.902 199.128 185.625 199.12C185.505 199.117 185.351 199.135 185.321 198.974C185.306 198.899 185.348 198.761 185.408 198.731C187.986 197.303 188.837 194.567 190.298 192.296C190.313 192.274 190.354 192.274 190.598 192.191Z" fill="#C1B28A"/>
<path d="M165.7 35.4093C165.348 34.8959 165.659 34.5811 165.977 34.2775C167.776 32.5762 169.964 31.6206 172.314 30.9835C172.61 30.9048 172.887 30.695 173.225 30.7811C173.33 30.8074 173.442 30.8074 173.577 30.8973C170.706 31.9803 167.836 33.0221 165.7 35.4093Z" fill="#C1B28A"/>
<path d="M145.764 69.8856C147.761 70.5227 149.507 71.2572 151.22 72.0666C152.067 72.4676 152.884 72.9323 153.69 73.412C153.937 73.5581 154.312 73.8204 154.034 74.1652C153.794 74.4613 153.618 74.049 153.431 73.9329C151.291 72.6288 148.979 71.6657 146.708 70.6239C146.408 70.4852 146.037 70.4627 145.764 69.8856Z" fill="#C1B28A"/>
<path d="M168.184 197.947C167.24 197.599 166.356 197.108 165.404 196.756C164.669 196.482 164.122 196.748 163.537 197.052C163.174 197.239 163.238 197.599 163.283 197.899C163.358 198.423 163.845 198.543 164.238 198.704C164.519 198.821 164.868 198.637 165.239 198.858C164.804 199.259 164.396 199.435 163.837 199.188C163.2 198.907 162.676 198.57 162.664 197.768C162.657 197.183 162.848 196.846 163.399 196.505C164.609 195.755 167.251 196.677 168.184 197.947Z" fill="#C1B28A"/>
<path d="M123.795 133.649C126.756 133.424 131.631 135.496 131.571 136.92C129.327 134.99 126.464 134.544 123.795 133.649Z" fill="#C1B28A"/>
<path d="M184.081 233.616C181.788 235.029 179.341 235.898 176.62 235.819C179.116 235.111 181.664 234.579 184.081 233.616Z" fill="#C1B28A"/>
<path d="M188.952 62.3607C187.903 62.2933 186.858 62.2783 185.823 62.1471C184.493 61.9785 183.174 61.9185 181.855 62.2033C181.652 62.2483 181.431 62.4244 181.319 62.1171C181.195 61.7836 181.45 61.6824 181.701 61.6037C182.852 61.2552 184.036 61.3901 185.194 61.4651C186.344 61.5363 187.483 61.8173 188.626 61.9972C188.795 62.0235 188.945 62.0272 188.952 62.3607Z" fill="#C1B28A"/>
<path d="M206.577 121.29C207.506 119.839 209.005 119.465 210.545 119.285C211.437 119.18 212.423 119.105 213.183 120.237C210.654 119.408 208.615 120.293 206.577 121.29Z" fill="#C1B28A"/>
<path d="M146.618 23.7955C149.009 24.2827 151.317 24.9835 153.479 26.1077C153.738 26.2426 153.978 26.415 154.041 26.7148C154.06 26.816 153.993 26.9621 153.914 27.0446C153.817 27.1495 153.693 27.1158 153.599 26.9959C152.883 26.0965 151.77 25.9128 150.804 25.4819C149.428 24.8711 148.015 24.3539 146.618 23.7955Z" fill="#C1B28A"/>
<path d="M131.478 133.39C133.745 133.93 135.615 134.732 137.369 135.803C137.635 135.968 137.901 136.163 138.104 136.399C138.272 136.598 138.583 136.894 138.336 137.141C138.047 137.43 137.864 137.018 137.676 136.857C136.132 135.515 134.262 134.777 132.404 134.027C132.13 133.915 131.838 133.866 131.478 133.39Z" fill="#C1B28A"/>
<path d="M185.048 58.1599C183.931 58.381 182.795 58.5421 181.697 58.8381C180.794 59.078 179.932 59.464 179.059 59.8087C178.827 59.8987 178.595 60.1123 178.43 59.7788C178.302 59.5202 178.535 59.3778 178.714 59.2504C179.588 58.647 180.618 58.4484 181.611 58.1973C182.717 57.9088 183.863 57.9313 185.048 58.1599Z" fill="#C1B28A"/>
<path d="M147.592 132.577C148.757 132.768 149.634 133.446 150.402 134.271C151.137 135.054 151.789 135.897 152.201 136.913C152.302 137.164 152.467 137.396 152.16 137.561C151.819 137.745 151.729 137.37 151.624 137.197C151.186 136.474 150.751 135.755 150.26 135.061C149.544 134.042 148.604 133.3 147.592 132.577Z" fill="#C1B28A"/>
<path d="M77.8706 136.677C78.725 134.241 79.8343 131.921 81.1459 129.699C80.2652 132.124 79.1822 134.454 77.8706 136.677Z" fill="#C1B28A"/>
<path d="M118.834 137.325C116.023 136.691 113.314 137.336 110.601 137.936C113.254 136.654 115.982 136.246 118.834 137.325Z" fill="#C1B28A"/>
<path d="M125.467 136.504C122.342 135.683 119.186 135.159 115.945 135.271C117.579 134.51 123.541 135.387 125.467 136.504Z" fill="#C1B28A"/>
<path d="M218.044 121.529C216.448 121.646 214.889 121.428 213.356 121.736C213.158 121.777 212.779 121.919 212.708 121.582C212.618 121.151 213.064 121.083 213.33 121.016C214.646 120.683 215.968 120.731 217.265 121.11C217.505 121.181 217.868 121.027 218.044 121.529Z" fill="#C1B28A"/>
<path d="M169.02 41.3038C168.727 40.9516 168.731 40.618 168.997 40.2733C170.346 38.527 172.201 37.6351 174.281 37.1179C174.307 37.1104 174.356 37.1929 174.45 37.2903C172.407 38.2909 170.166 39.0029 169.02 41.3038Z" fill="#C1B28A"/>
<path d="M85.8902 129.403C84.9084 131.198 83.9378 132.993 82.9072 134.758C83.2932 132.637 84.4249 130.924 85.8902 129.403Z" fill="#C1B28A"/>
<path d="M100.662 117.373C100.872 115.627 100.973 113.896 101.412 112.209C101.457 112.03 101.453 111.771 101.712 111.853C101.94 111.925 101.944 112.116 101.88 112.389C101.509 114.016 101.236 115.661 101.142 117.332C101.134 117.49 101.146 117.662 101.086 117.801C100.97 118.074 101.637 118.411 101.138 118.52C100.681 118.621 100.887 117.984 100.704 117.718C100.64 117.628 100.67 117.471 100.662 117.373Z" fill="#C1B28A"/>
<path d="M155.84 27.8468C155.952 26.8612 158.287 25.2536 160.554 24.609C159.025 25.6583 157.5 26.7076 155.84 27.8468Z" fill="#C1B28A"/>
<path d="M186.989 124.355C185.434 125.981 183.841 127.24 182.698 129.069C182.709 127.686 185.089 125.044 186.989 124.355Z" fill="#C1B28A"/>
<path d="M181.053 217.723C179.303 218.206 177.711 218.416 176.125 218.645C175.923 218.675 175.545 218.843 175.518 218.453C175.5 218.15 175.837 218.105 176.092 218.075C177.669 217.884 179.251 217.685 181.053 217.723Z" fill="#C1B28A"/>
<path d="M143.875 133.769C145.433 134.244 146.872 134.623 148.004 135.691C148.218 135.89 148.499 136.197 148.338 136.396C148.053 136.74 147.862 136.298 147.674 136.137C146.76 135.339 145.692 134.822 144.579 134.379C144.354 134.286 144.002 134.319 143.875 133.769Z" fill="#C1B28A"/>
<path d="M204.089 135.391C204.01 135.309 203.928 135.226 203.849 135.144C205.022 134.222 206.195 133.3 207.372 132.375C206.457 133.607 205.554 134.825 204.089 135.391Z" fill="#C1B28A"/>
<path d="M162.529 128.263C162.556 130.043 162.972 131.794 162.99 133.577C162.32 131.853 162.177 130.081 162.529 128.263Z" fill="#C1B28A"/>
<path d="M168.053 213.897H172.359C170.928 214.23 169.5 214.725 168.057 214.2C168.057 214.095 168.053 213.994 168.053 213.897Z" fill="#C1B28A"/>
<path d="M162.645 31.4555C162.57 30.3462 164.283 28.5699 166.003 28.0341C164.662 29.177 163.384 30.0464 162.645 31.4555Z" fill="#C1B28A"/>
<path d="M88.1761 132.266C88.742 131.081 89.3903 129.95 90.3009 128.728C90.3721 129.56 89.9712 129.998 89.6714 130.422C89.2179 131.07 88.9668 131.902 88.1499 132.251L88.1761 132.266Z" fill="#C1B28A"/>
<path d="M184.493 232.33C183.182 232.877 181.825 233.346 180.345 233.646C180.794 232.997 182.35 232.525 184.493 232.33Z" fill="#C1B28A"/>
<path d="M177.928 145.251C177.909 143.984 177.875 142.714 178.898 141.732C178.576 142.905 178.254 144.078 177.928 145.251Z" fill="#C1B28A"/>
<path d="M106.097 139.719C107.019 138.948 108.083 138.599 109.286 138.704C108.233 139.067 107.187 139.446 106.097 139.719Z" fill="#C1B28A"/>
<path d="M134.348 143.969C134.165 144.048 133.906 143.905 133.779 144.156C132.988 144.036 132.314 143.628 131.613 143.261C132.557 143.388 133.479 143.568 134.348 143.969Z" fill="#C1B28A"/>
<path d="M188.083 147.93C188.885 147.732 189.548 148.125 190.242 148.387C189.455 148.518 188.75 148.312 188.083 147.93Z" fill="#C1B28A"/>
<path d="M202.47 133.045C202.361 133.045 202.253 133.049 202.144 133.049C202.541 132.382 202.942 131.715 203.339 131.048C203.324 131.842 202.968 132.476 202.47 133.045Z" fill="#C1B28A"/>
<path d="M132.449 24.7024C132.468 24.7474 132.464 24.7961 132.438 24.8373C131.448 24.946 130.448 24.7062 129.698 24.961C130.474 25.0397 131.422 24.4326 132.449 24.7024Z" fill="#C1B28A"/>
<path d="M179.014 144.764C178.977 143.999 178.879 143.463 179.052 142.939C179.112 142.759 179.228 142.571 179.464 142.661C179.647 142.732 179.617 142.92 179.572 143.07C179.419 143.568 179.25 144.059 179.014 144.764Z" fill="#C1B28A"/>
<path d="M131.302 27.9481C131.362 28.053 131.425 28.1579 131.485 28.2628H128.926C129.724 28.2179 130.481 27.8206 131.302 27.9481Z" fill="#C1B28A"/>
<path d="M209.414 136.287C209.283 136.227 209.152 136.167 209.021 136.103C209.553 135.785 210.081 135.463 210.613 135.14C210.317 135.657 210.017 136.145 209.414 136.287Z" fill="#C1B28A"/>
<path d="M103.349 115.912C103.241 115.751 103.147 115.676 103.155 115.616C103.211 115.166 102.948 114.683 103.278 114.263C103.293 114.24 103.499 114.312 103.499 114.342C103.507 114.833 103.623 115.342 103.349 115.912Z" fill="#C1B28A"/>
<path d="M96.2331 67.9406C96.027 67.9294 95.8209 67.9181 95.6147 67.9069C96.0457 67.4797 96.5216 67.1237 97.2636 66.9138C96.9976 67.4872 96.6078 67.7045 96.2331 67.9406Z" fill="#C1B28A"/>
<path d="M165.767 22.9448C165.692 22.7762 165.523 22.7874 165.381 22.7462C165.887 22.3827 166.426 22.1054 167.097 22.0941C166.655 22.3789 166.213 22.6637 165.767 22.9448Z" fill="#C1B28A"/>
<path d="M135.889 142.807C135.885 142.946 135.881 143.088 135.874 143.227C135.342 142.998 135.004 142.534 134.367 142.054C135.102 142.215 135.506 142.489 135.889 142.807Z" fill="#C1B28A"/>
<path d="M79.9502 61.5811C79.7103 62.072 79.4742 62.5666 78.7622 62.8402C79.002 62.1357 79.4555 61.8396 79.9502 61.5811Z" fill="#C1B28A"/>
<path d="M208.241 134.863C208.05 134.953 207.874 134.911 207.705 134.799C207.994 134.462 208.357 134.229 208.837 133.963C208.781 134.432 208.526 134.657 208.241 134.863Z" fill="#C1B28A"/>
<path d="M189.709 231.941C190.021 231.637 190.29 231.285 190.83 231.202C190.553 231.54 190.275 231.873 189.998 232.207C189.904 232.12 189.807 232.03 189.709 231.941Z" fill="#C1B28A"/>
<path d="M152.542 228.249C152.542 228.429 152.546 228.613 152.546 228.793C152.437 228.74 152.303 228.71 152.224 228.628C152.033 228.429 151.486 228.343 151.733 227.998C152.037 227.579 152.295 228.066 152.542 228.249Z" fill="#C1B28A"/>
<path d="M150.807 226.893C150.938 227.005 151.073 227.118 151.205 227.23C151.077 227.309 150.95 227.384 150.822 227.462C150.627 227.275 150.204 227.32 150.256 226.889C150.44 226.889 150.624 226.893 150.807 226.893Z" fill="#C1B28A"/>
<path d="M151.257 227.83C151.197 227.822 151.163 227.792 151.148 227.736C151.245 227.635 151.347 227.534 151.444 227.432C151.631 227.564 151.942 227.635 151.912 227.901C151.89 228.107 151.646 228.092 151.466 228.002C151.392 227.946 151.324 227.886 151.257 227.83Z" fill="#C1B28A"/>
<path d="M189.522 232.66C189.511 232.495 189.5 232.33 189.488 232.166C189.563 232.091 189.634 232.016 189.709 231.941C189.807 232.031 189.904 232.121 189.998 232.207C189.874 232.394 189.754 232.589 189.522 232.66Z" fill="#C1B28A"/>
<path d="M151.441 227.429C151.343 227.53 151.242 227.631 151.145 227.736C150.987 227.702 150.871 227.62 150.819 227.463C150.946 227.384 151.074 227.309 151.201 227.23C151.336 227.234 151.426 227.29 151.441 227.429Z" fill="#C1B28A"/>
<path d="M78.4552 58.1225C78.5788 58.0513 78.6463 58.1862 78.6313 58.2237C78.5826 58.3248 78.5039 58.4223 78.4102 58.4935C78.2716 58.5984 78.2678 58.4335 78.2566 58.3773C78.2341 58.2349 78.3353 58.1637 78.4552 58.1225Z" fill="#C1B28A"/>
<path d="M202.511 133.375C202.477 133.341 202.477 133.304 202.511 133.27C202.694 133.281 202.874 133.289 203.058 133.3C203.058 133.326 203.058 133.352 203.054 133.375H202.511Z" fill="#C1B28A"/>
<path d="M75.1572 194.5C75.2397 194.275 75.3858 194.29 75.5545 194.399C75.4833 194.477 75.4121 194.556 75.3409 194.638C75.2809 194.593 75.2209 194.548 75.1572 194.5Z" fill="#C1B28A"/>
<path d="M150.807 226.893C150.624 226.893 150.44 226.889 150.256 226.889C150.44 226.447 150.624 226.69 150.807 226.893Z" fill="#C1B28A"/>
<path d="M153.674 229.003C153.498 229.025 153.385 228.943 153.325 228.782C153.49 228.774 153.595 228.868 153.674 229.003Z" fill="#C1B28A"/>
<path d="M88.1499 132.255C88.296 132.333 88.236 132.442 88.1798 132.536C88.1611 132.566 88.0899 132.562 88.0449 132.573C88.0899 132.472 88.1311 132.371 88.1761 132.266L88.1499 132.255Z" fill="#C1B28A"/>
<path d="M154.236 229.389C154.056 229.404 153.948 229.317 153.892 229.152C154.06 229.156 154.158 229.257 154.236 229.389Z" fill="#C1B28A"/>
<path d="M196.418 218.064L196.41 218.045C196.41 218.045 196.432 218.056 196.432 218.053C196.44 218.049 196.418 218.064 196.418 218.064Z" fill="#C1B28A"/>
<path d="M151.257 227.83C151.324 227.886 151.395 227.946 151.463 228.002C151.339 228.01 151.279 227.938 151.257 227.83Z" fill="#C1B28A"/>
<path d="M165.558 23.1062C165.584 22.9938 165.651 22.9338 165.767 22.9451C165.7 22.9975 165.629 23.0537 165.558 23.1062Z" fill="#C1B28A"/>
<path d="M153.333 228.785C153.262 228.733 153.191 228.684 153.116 228.632C153.187 228.68 153.258 228.733 153.333 228.785Z" fill="#C1B28A"/>
<path d="M134.952 144.142C134.847 144.183 134.768 144.157 134.727 144.044C134.802 144.078 134.877 144.112 134.952 144.142Z" fill="#C1B28A"/>
<path d="M132.774 24.8828C132.872 24.8191 132.951 24.8266 133.014 24.9315C132.917 24.999 132.838 24.9877 132.774 24.8828Z" fill="#C1B28A"/>
<path d="M72.3646 139.633C72.3423 139.625 72.3201 139.614 72.2979 139.607C72.3238 139.614 72.3497 139.622 72.3757 139.633C72.3794 139.633 72.3646 139.633 72.3646 139.633Z" fill="#C1B28A"/>
<path d="M136.252 143.013C136.189 142.972 136.129 142.931 136.069 142.893C136.129 142.931 136.193 142.972 136.252 143.013Z" fill="#C1B28A"/>
<path d="M230.733 126.791C230.8 126.603 230.924 126.525 231.051 126.716C231.404 127.248 231.737 127.795 232.011 128.38C231.456 127.949 231.374 127.158 230.744 126.794L230.733 126.791Z" fill="#C1B28A"/>
<path d="M230.74 126.794C230.744 126.408 230.508 126.199 230.197 126.041H230.193C230.471 125.693 230.613 126.026 230.692 126.184C230.778 126.356 231.243 126.562 230.733 126.787C230.733 126.791 230.74 126.794 230.74 126.794Z" fill="#C1B28A"/>
<path d="M229.83 125.655C229.818 125.591 229.807 125.531 229.796 125.468C229.991 125.509 229.762 125.603 229.818 125.663L229.83 125.655Z" fill="#C1B28A"/>
<path d="M229.822 125.663C229.901 125.652 229.965 125.543 230.07 125.652C230.19 125.772 230.043 125.805 230.028 125.88V125.876C230.051 125.727 229.942 125.693 229.834 125.655C229.83 125.655 229.822 125.663 229.822 125.663Z" fill="#C1B28A"/>
<path d="M209.762 81.0042C209.646 80.9405 209.575 80.8506 209.684 80.7382C209.702 80.7157 209.822 80.7906 209.897 80.8206C209.852 80.8806 209.807 80.9405 209.762 81.0042Z" fill="#C1B28A"/>
<path d="M230.028 125.88C230.111 125.801 230.193 125.67 230.291 125.843C230.313 125.88 230.231 125.974 230.197 126.041H230.201C230.201 125.925 230.148 125.865 230.028 125.88C230.028 125.876 230.028 125.88 230.028 125.88Z" fill="#C1B28A"/>
<path d="M201.124 133.986C201.08 133.96 201.038 133.937 200.997 133.915C201.02 133.896 201.042 133.855 201.061 133.859C201.106 133.87 201.147 133.896 201.188 133.918C201.166 133.937 201.147 133.96 201.124 133.986Z" fill="#C1B28A"/>
</g>
</g>
<defs>
<clipPath id="clip0_208_980">
<rect width="300" height="300" rx="15.7895" fill="white"/>
</clipPath>
<clipPath id="clip1_208_980">
<rect width="248.775" height="361" fill="white" transform="translate(45.6875 8)"/>
</clipPath>
</defs>
</svg>
