<svg width="300" height="300" viewBox="0 0 300 300" fill="none" xmlns="http://www.w3.org/2000/svg">
<g clip-path="url(#clip0_244_10509)">
<g clip-path="url(#clip1_244_10509)">
<path d="M49.8755 158.685C49.4173 156.504 49.0185 154.327 48.9676 152.079C48.9336 150.407 48.9464 148.706 48.5645 147.051C48.5264 146.89 48.5009 146.708 48.5348 146.551C49.1373 143.606 48.6324 140.696 48.3397 137.773C48.1572 135.927 48.1276 134.069 47.7712 132.245C47.2705 129.682 46.7487 127.133 45.9978 124.625C43.9104 117.693 42.0564 110.693 40.7752 103.561C40.3085 100.952 40.0242 98.3043 39.9182 95.6484C39.6891 89.9973 39.1121 84.3801 38.0854 78.8223C37.3811 74.9998 35.8453 71.5209 33.3676 68.4705C32.0821 66.8922 30.5039 66.0437 28.4717 66.0352C27.4832 66.031 26.4904 66.0352 25.294 66.0352C27.2541 64.3552 29.2905 64.283 31.433 64.9534C33.6264 65.6407 34.721 67.5583 35.9811 69.2766C36.3841 69.0177 36.278 68.6996 36.2993 68.4323C36.4605 66.3195 36.2823 64.2194 36.0744 62.1193C35.7986 59.3913 35.6247 56.6676 35.595 53.9227C35.5738 51.7717 34.9289 49.6843 34.0634 47.7073C33.2234 45.7769 32.1967 43.9356 31.0597 42.1622C30.47 41.2416 29.8124 40.3761 28.5862 40.0452C28.2299 42.3871 28.2596 44.6866 28.3317 46.9861C28.3826 48.5855 28.459 50.185 28.5226 51.7887C28.5481 52.4717 28.442 53.142 28.2214 53.7784C27.7632 55.0851 26.8171 55.5561 25.451 55.2718C24.7043 55.1148 24 54.9027 23.3255 54.1984C23.1133 56.2264 22.9182 58.0846 22.723 59.9471C22.6806 60.3671 22.6594 60.7872 22.5872 61.2029C22.4727 61.8605 22.4388 62.3951 23.3297 62.5606C23.8643 62.6581 24.0764 63.18 24.1909 63.7018C24.9419 67.1595 25.8752 70.5663 27.0759 73.8967C27.3304 74.601 27.3559 75.3095 27.182 76.0095C26.6304 78.2326 25.731 80.3115 24.4158 82.1952C24.2334 82.4582 23.9915 82.6237 24.1485 83.0649C24.9504 85.3135 24.9928 87.6936 25.2346 90.0355C25.5655 93.2641 25.854 96.4927 25.9177 99.7425C25.9813 103.154 26.2528 106.552 26.1765 109.976C26.0959 113.505 26.3419 117.048 26.5965 120.582C26.7238 122.338 27.4747 123.475 28.7772 124.434C29.0826 124.659 29.3839 124.892 29.702 125.092C30.6566 125.69 31.6239 126.178 32.8203 125.122C32.184 126.237 31.713 126.445 30.7372 126.178C29.9099 125.953 29.2057 125.491 28.5481 124.96C28.0687 124.574 27.5977 124.175 26.9189 123.62C27.3389 129.33 27.9456 134.812 27.7038 140.31C27.4577 145.868 27.0589 151.421 26.8426 156.975C26.6262 162.503 25.4043 167.866 24.6873 173.313C24.4413 172.812 24.5516 172.32 24.6152 171.824C24.6831 171.281 24.6916 170.734 24.7001 170.186C24.7255 168.243 25.0479 166.33 25.2855 164.408C25.5274 162.482 25.5825 160.543 25.6674 158.608C25.9304 152.588 26.1468 146.564 26.3928 140.539C26.5371 137.035 26.3037 133.539 26.0662 130.051C25.7819 125.889 25.3789 121.736 25.1073 117.574C24.9164 114.642 24.7637 111.694 24.8867 108.737C24.997 106.132 24.8061 103.514 24.7128 100.905C24.5685 96.9042 24.3055 92.9077 23.9703 88.9197C23.7285 86.0517 23.16 83.2686 21.9042 80.6466C21.4333 79.6709 21.0684 78.6442 20.5635 77.6344C20.4405 78.9751 20.3684 80.3157 20.2156 81.6479C19.8168 85.1226 19.6259 88.6227 19.1508 92.0846C18.4932 96.8872 18.1198 101.724 17.4028 106.514C16.4907 112.585 16.6476 118.703 16.3676 124.803C16.1343 129.937 16.3082 135.092 15.6337 140.204C15.0142 144.879 14.7045 149.589 14.0554 154.264C13.6736 157.017 13.1475 159.749 12.8208 162.507C12.4857 165.311 12.2438 168.124 11.8408 170.916C11.4632 173.538 10.9286 176.139 10.4535 178.743C10.4323 178.858 10.3432 178.956 10.2286 179.155C9.99953 178.612 9.97831 178.15 10.042 177.657C10.322 175.489 10.6189 173.321 10.8523 171.145C11.1026 168.799 11.3614 166.449 11.4844 164.098C11.6159 161.603 12.2566 159.185 12.4348 156.708C12.7402 152.503 13.5845 148.358 13.6566 144.133C13.6778 142.877 13.9833 141.629 14.0979 140.369C14.4203 136.844 14.7852 133.318 14.6239 129.771C14.5645 128.456 14.8148 127.166 14.8573 125.864C14.9633 122.831 15.0991 119.793 15.0482 116.759C15.0015 113.917 15.3791 111.125 15.6676 108.321C15.9985 105.139 16.5034 101.974 16.8216 98.7879C17.1186 95.8096 17.6701 92.8695 17.9841 89.8955C18.5016 84.9529 19.1253 80.023 19.8338 75.1058C19.8932 74.6986 19.7405 74.3549 19.6302 74.0028C18.8198 71.419 18.6586 68.7971 19.0702 66.1328C19.1974 65.3013 19.1083 64.4485 19.3968 63.6339C19.5962 63.0697 19.7702 62.6793 20.5381 62.8066C21.2975 62.9339 21.6666 62.5351 21.7218 61.7842C21.9763 58.1271 22.2097 54.47 22.4727 50.8129C22.6933 47.7455 22.9394 44.6781 23.1812 41.6107C23.2024 41.3646 23.1982 41.1186 23.3467 40.8852C24.7552 38.7045 23.16 36.5239 21.5139 35.6584C20.6823 35.2214 19.715 34.9838 18.701 34.9117C18.5441 36.8081 18.7307 38.6536 19.032 40.4737C19.5199 43.4138 19.469 46.3539 19.2568 49.2983C19.1211 51.1904 17.5089 53.8208 16.0325 54.7712C15.6931 54.313 16.0579 53.9778 16.2616 53.6469C16.6519 52.9978 17.0974 52.3826 17.5046 51.7462C18.1071 50.7959 18.3319 49.7565 18.3744 48.6322C18.4932 45.2508 18.2768 41.8992 17.7931 38.5518C17.6192 37.3469 17.6489 36.1123 17.5768 34.8947C17.5343 34.1395 17.4495 33.3886 17.2586 32.6504C17.1101 32.0946 16.8089 31.8867 16.2616 31.9419C15.7143 31.997 15.3621 32.2813 15.4343 32.8413C15.7525 35.2723 15.0524 37.716 15.57 40.1555C15.7482 41.004 15.6718 41.9247 15.5828 42.8029C15.3282 45.2466 15.3452 47.6861 15.447 50.1298C15.4979 51.3941 15.4724 52.6584 15.2349 53.9099C15.1797 54.1984 15.1415 54.4869 15.2179 54.7882C15.5912 56.3112 15.6634 57.8683 15.6591 59.4295C15.6506 61.5805 15.7355 63.7273 15.8755 65.874C16.1979 70.7657 15.8034 75.6531 15.604 80.5363C15.5149 82.7637 15.0779 84.9783 14.5306 87.1378C13.6778 90.5234 13.4912 93.9683 13.3893 97.4176C13.3002 100.583 13.0245 103.726 12.7657 106.879C12.4645 110.531 12.176 114.188 11.8408 117.841C11.2765 123.925 11.145 130.056 10.2753 136.106C9.28677 142.979 8.36613 149.869 6.68607 156.631C5.35815 161.981 4.14901 167.361 2.94837 172.744C1.88348 177.513 1.76469 182.345 2.09561 187.207C2.49441 193.054 3.27504 198.862 4.03871 204.661C4.75146 210.058 4.99753 215.488 5.55331 220.889C6.04545 225.666 6.36364 230.46 6.94063 235.229C7.40307 239.031 7.66611 242.862 7.8146 246.697C8.00127 251.415 8.33644 256.124 8.59523 260.837C8.63342 261.508 8.6122 262.186 8.60372 262.857C8.59948 263.022 8.52311 263.179 8.31098 263.2C8.09461 263.222 8.014 263.077 7.9843 262.903C7.91218 262.488 7.8443 262.072 7.79763 261.656C7.02972 255 6.51213 248.322 5.99453 241.64C5.74847 238.449 5.31572 235.272 4.90419 232.094C4.59873 229.752 4.56054 227.385 4.25084 225.047C3.52536 219.57 3.50414 214.025 2.71502 208.56C2.015 203.724 1.45074 198.87 0.873746 194.021C0.241602 188.709 -0.301447 183.376 0.194934 178.005C0.53434 174.302 1.26831 170.678 2.09561 167.064C3.4999 160.908 4.90419 154.752 6.14302 148.562C6.76244 145.46 6.99578 142.3 7.53883 139.19C8.57402 133.284 8.871 127.302 9.32496 121.337C9.56254 118.185 9.89346 115.041 10.1523 111.893C10.568 106.853 11.2384 101.843 11.3868 96.7769C11.5014 92.9035 12.0487 89.0639 12.9227 85.2753C13.576 82.4413 13.8433 79.5563 13.9154 76.6289C13.9918 73.3028 14.276 69.9681 14.0979 66.6461C13.8688 62.3442 14.3397 58.0464 14.0512 53.7487C14.0342 53.4814 13.9112 53.1463 14.4245 53.142C14.7088 53.1378 14.6197 52.8281 14.6239 52.6457C14.6367 51.9711 14.6876 51.2923 14.6197 50.6219C14.3312 47.8006 14.4839 44.9793 14.6367 42.158C14.7003 41.021 14.6451 39.884 14.4585 38.7555C14.3694 38.2209 14.3397 37.6566 14.3906 37.1178C14.5306 35.6499 14.6451 34.1904 14.5561 32.7098C14.4924 31.6449 15.01 31.2206 16.2022 31.0594C17.2416 30.9194 17.8313 31.2546 18.175 32.188C18.2471 32.3831 18.3659 32.591 18.3532 32.7904C18.2853 33.9486 18.8665 34.2711 19.9569 34.4153C22.6594 34.7717 22.5321 35.0135 24.1655 37.033C24.3819 36.9312 24.5982 36.8124 24.8273 36.719C25.8158 36.316 26.4904 36.3796 27.0377 37.2578C27.7674 38.4288 28.6159 39.2603 29.9693 39.727C30.9578 40.0664 31.5688 41.0592 32.1712 41.9331C34.6234 45.5054 36.1211 49.4255 36.6387 53.736C36.8932 55.87 37.1605 58.0083 37.2029 60.1508C37.2708 63.5957 37.6696 67.045 37.292 70.4942C37.2411 70.9566 37.2623 71.4275 37.4702 71.856C38.1745 73.2985 38.6581 74.8216 39.0824 76.3659C39.1206 76.5059 39.1121 76.718 39.5279 76.7605C39.6891 75.7974 39.4345 74.8386 39.443 73.8882C39.4515 72.8785 39.4769 71.8645 39.5109 70.8548C39.5448 69.8875 39.6382 68.9159 39.6424 67.9486C39.6466 66.9389 39.5915 65.9249 39.5236 64.9194C39.4515 63.9097 39.3242 62.9084 39.2266 61.8987C39.129 60.8932 39.0272 59.8877 38.9466 58.878C38.8703 57.9064 38.6199 56.9731 38.4333 56.0227C38.2423 55.0427 38.0302 54.0584 38.2254 53.0487C38.6412 52.9384 38.6072 53.2736 38.7006 53.4814C40.1091 56.6591 40.4824 60.0405 40.6818 63.4557C40.8303 66.0267 40.7709 68.5935 40.5333 71.1603C40.3255 73.43 40.3933 75.7083 40.4782 77.9866C40.4952 78.4829 40.6352 78.9963 39.9224 79.1999C39.5321 79.3145 39.7909 79.7006 39.8206 79.9551C40.143 82.6322 40.6139 85.288 40.8134 87.9821C41.0128 90.6719 41.2037 93.3616 41.3861 96.0557C41.7213 100.947 42.6758 105.725 43.8383 110.48C45.2256 116.161 46.9396 121.757 48.3439 127.434C49.167 130.76 49.5276 134.146 49.7949 137.552C50.0537 140.794 50.1555 144.035 49.9434 147.281C49.8967 147.993 50.1767 148.587 50.4737 149.194C52.3744 153.072 54.8266 156.593 57.5121 159.957C62.705 166.457 68.3477 172.541 74.3509 178.298C76.3577 180.224 78.3771 182.138 80.3839 184.064C80.6469 184.314 80.9651 184.53 81.1051 184.912C80.7105 185.103 80.5917 184.726 80.3881 184.564C73.7485 179.397 67.7961 173.5 62.1153 167.314C59.6334 164.611 57.2576 161.82 55.026 158.905C53.2271 156.559 51.6277 154.09 50.2616 151.472C49.8119 151.536 50.0494 151.867 50.0367 152.062C49.8416 154.425 50.4822 156.648 51.1822 158.863C52.3107 162.435 53.3289 166.037 54.2369 169.673C55.3611 174.187 55.5351 178.748 55.0175 183.351C54.7799 185.485 54.5678 187.623 54.3684 189.761C54.3005 190.47 54.3429 191.162 54.589 191.87C55.8787 195.561 56.2436 199.422 56.6212 203.278C56.6679 203.749 56.7527 204.182 57.0073 204.589C58.8358 207.525 60.7747 210.38 62.9893 213.036C68.1525 219.23 73.6806 225.077 79.739 230.405C80.6554 231.211 81.5421 232.056 82.4712 232.849C82.7936 233.125 83.0609 233.587 83.6337 233.392C83.8076 233.333 83.9773 233.485 84.007 233.655C84.1343 234.432 84.8131 234.69 85.3265 235.093C89.0217 238.017 92.857 240.753 96.8153 243.307C100.413 245.632 104.151 247.702 108.194 249.238C112.729 250.961 117.396 252.132 122.105 253.175C122.967 253.366 123.849 253.493 124.727 253.532C126.496 253.608 128.244 253.888 130.005 254.024C133.03 254.257 136.038 254.219 139.02 253.379C140.9 252.849 142.868 252.611 144.786 252.17C146.717 251.724 148.583 251.113 150.437 250.435C158.558 247.46 166.258 243.621 173.648 239.158C176.096 237.681 178.616 236.319 181.026 234.775C188.544 229.947 195.723 224.635 202.744 219.12C207.737 215.196 212.086 210.609 215.845 205.476C216.142 205.069 216.435 204.653 216.685 204.216C220.007 198.391 222.905 192.379 224.967 185.981C226.655 180.754 227.55 175.362 228.462 169.966C229.162 165.812 229.583 161.62 230.283 157.467C230.58 155.685 230.63 153.861 230.868 152.066C231.148 149.936 231.509 147.819 231.831 145.694C231.912 145.155 232.052 144.62 231.924 144.056C231.547 144.205 231.543 144.578 231.411 144.871C229.795 148.456 227.665 151.735 225.45 154.972C219.786 163.25 212.863 170.343 205.256 176.826C201.598 179.944 197.895 183.003 194.153 186.011C194.089 186.015 194.042 186.049 194.021 186.109C194.009 186.202 193.958 186.244 193.864 186.244C193.712 186.24 193.576 186.202 193.516 186.036C196.605 183.173 199.838 180.479 203.066 177.776C212.939 169.507 221.369 160 228.042 148.965C229.37 146.767 230.609 144.523 231.458 142.083C231.513 141.931 231.564 141.668 231.657 141.646C232.574 141.447 232.378 140.692 232.51 140.077C233.545 135.185 233.473 130.187 234.008 125.249C234.394 121.681 234.432 118.092 234.487 114.515C234.546 110.85 234.72 107.184 234.75 103.518C234.78 99.6407 234.924 95.7672 235.195 91.8937C235.441 88.3597 235.526 84.8171 235.789 81.2873C235.989 78.5975 236.235 75.9035 236.188 73.2094C236.112 68.8693 236.439 64.5291 236.078 60.1932C235.815 57.0707 236.146 53.9651 236.337 50.851C236.646 45.849 236.994 40.8386 236.625 35.8196C236.583 35.2341 236.638 34.6444 236.68 34.0547C236.702 33.7789 236.901 33.5668 237.168 33.5498C237.444 33.5328 237.614 33.7619 237.707 34.008C237.749 34.1226 237.779 34.2541 237.771 34.3771C237.631 36.4008 238.08 38.4033 237.928 40.4398C237.694 43.5496 237.839 46.6806 237.542 49.7904C237.452 50.711 237.346 51.6359 237.312 52.5608C237.296 53.0572 237.011 53.6384 237.694 54.016C237.919 54.139 237.796 54.5675 237.788 54.8603C237.66 60.6344 237.529 66.4086 237.402 72.1827C237.389 72.6749 237.287 73.1797 237.452 73.6676C237.885 73.7228 237.817 73.3749 237.868 73.184C238.114 72.293 238.348 71.3978 238.551 70.4942C239.582 65.891 241.275 61.572 243.922 57.6434C244.614 56.6167 245.382 55.6918 246.553 55.1742C247.215 54.8815 247.889 54.5803 248.615 54.7245C249.327 54.8645 249.451 54.4742 249.582 53.9481C249.709 53.422 249.646 52.7517 250.388 52.5396C250.621 53.0699 250.261 53.473 250.206 53.9184C249.671 58.2501 249.675 62.5775 250.435 66.8795C250.778 68.8396 251.657 70.6299 252.531 72.4076C252.632 72.6155 252.717 72.9294 253.031 72.8997C253.315 72.87 253.388 72.59 253.485 72.3609C253.791 71.6481 253.786 70.876 253.876 70.1293C254.194 67.4565 254.643 64.8006 254.834 62.1066C255.046 59.0689 255.038 56.044 254.987 53.0105C254.97 52.0347 254.847 51.9753 253.837 51.6529C252.849 51.3389 251.873 51.2414 250.825 51.5935C250.469 50.3631 250.341 49.1243 250.333 47.8643C250.312 44.4702 250.702 41.1525 251.954 37.9579C252.488 36.596 253.299 35.5523 254.588 34.865C255.293 34.4917 255.971 34.0844 256.523 33.4777C256.93 33.0322 257.533 32.8752 258.105 32.7522C259.23 32.5061 259.709 32.7777 260.197 33.851C260.918 35.4378 261.275 37.1051 261.542 38.8233C262.42 44.5423 262.751 50.3037 262.866 56.0779C262.942 59.9556 263.583 63.7782 263.913 67.6304C264.109 69.9384 263.956 72.2676 264.38 74.5628C264.758 76.5992 264.927 78.6611 264.855 80.7315C264.703 85.1947 265.373 89.5518 266.391 93.8708C267.991 100.672 269.598 107.468 271.185 114.269C272.025 117.875 273.323 121.371 274.032 124.999C274.804 128.944 276.077 132.724 277.35 136.5C278.902 141.099 281.244 145.346 283.692 149.525C284.787 151.396 285.924 153.246 287.035 155.108C287.205 155.388 287.328 155.621 286.781 155.647C286.505 155.66 286.675 155.974 286.755 156.148C286.997 156.686 287.222 157.229 287.489 157.751C289.174 161.048 289.797 164.59 289.887 168.247C289.925 169.766 289.802 171.281 289.768 172.795C289.7 175.702 289.691 178.616 289.84 181.518C290.099 186.652 290.642 191.76 291.278 196.868C292.016 202.82 293.573 208.594 294.799 214.445C295.308 216.876 295.885 219.29 296.272 221.746C296.556 223.532 297.188 225.242 297.549 227.02C298.143 229.956 298.308 232.951 298.826 235.891C299.241 238.258 299.683 240.604 299.835 243.01C300.035 246.12 299.729 249.153 298.753 252.11C297.935 254.588 297.12 257.061 296.543 259.611C296.509 259.764 296.433 259.912 296.276 260.315C295.979 258.72 296.085 257.392 296.365 256.081C296.789 254.109 297.324 252.153 297.727 250.176C298.601 245.891 298.304 241.623 297.409 237.376C297.209 236.426 297.001 235.484 296.938 234.512C296.67 230.634 295.775 226.867 294.999 223.07C293.828 217.338 292.648 211.602 291.397 205.887C290.374 201.225 289.721 196.511 289.246 191.785C288.66 185.96 288.143 180.114 288.457 174.242C288.592 171.714 288.716 169.189 288.648 166.661C288.576 163.945 287.969 161.345 287.002 158.795C285.389 154.535 283.349 150.509 281.036 146.581C279.119 143.326 277.316 139.979 276.149 136.347C275.521 134.387 274.961 132.402 274.219 130.476C273.642 128.97 273.578 127.345 273.23 125.788C273.103 125.215 273.005 124.625 272.819 124.069C270.167 116.153 268.432 107.999 266.616 99.8698C265.827 96.3357 264.995 92.8144 264.261 89.2718C263.782 86.9596 263.54 84.6092 263.583 82.2376C263.638 79.2805 263.379 76.3447 262.908 73.4258C262.819 72.887 262.772 72.3354 262.768 71.7882C262.713 67.6516 262.17 63.5491 261.775 59.4423C261.618 57.7877 261.453 56.1924 261.928 54.5718C262.093 54.0118 261.919 53.5578 261.347 53.2057C260.46 52.6669 259.972 51.7505 259.471 50.868C258.211 48.6407 257.605 46.1885 257.032 43.7278C256.408 41.0677 255.717 38.4161 255.386 35.6966C255.377 35.6244 255.297 35.565 255.22 35.459C254.172 35.9172 253.489 36.7148 253.04 37.7542C251.674 40.9277 251.029 44.2581 250.94 47.6988C250.91 48.7425 250.851 49.7989 251.063 50.9401C252.026 50.6262 252.972 50.4989 253.922 50.6601C255.462 50.9232 255.878 50.9401 255.976 52.7984C256.158 56.2052 256.018 59.6204 255.946 63.0357C255.891 65.577 256.349 68.148 256.862 70.6596C257.04 71.5378 257.762 72.2591 257.876 73.2179C258.122 75.2628 258.67 77.2696 258.517 79.3611C258.466 80.0781 258.559 80.7867 258.75 81.4867C258.89 82.0128 259.034 82.5685 259.005 83.1031C258.848 85.9923 259.556 88.7966 259.76 91.6519C259.917 93.8792 260.515 96.0472 260.71 98.2746C261.02 101.847 261.813 105.334 262.598 108.826C263.218 111.579 263.536 114.392 263.829 117.192C264.465 123.31 265.246 129.415 266.658 135.401C267.363 138.375 268.597 141.218 269.548 144.137C270.744 147.824 272.309 151.366 273.82 154.926C274.359 156.194 274.617 157.586 275.453 158.727C275.53 158.833 275.487 158.994 275.373 159.041C275.275 159.079 275.127 159.062 275.029 159.011C274.673 158.829 274.486 158.485 274.333 158.142C272.063 153.08 269.344 148.214 267.783 142.847C267.464 141.757 267.078 140.688 266.667 139.627C265.729 137.226 265.101 134.752 264.728 132.194C264.164 128.32 263.315 124.485 262.946 120.582C262.636 117.307 262.225 114.053 261.847 110.786C261.656 109.144 261.088 107.595 260.795 105.979C260.171 102.538 259.828 99.0552 259.247 95.6145C258.742 92.6234 258.644 89.5773 257.999 86.6117C257.927 86.285 257.893 85.9371 257.914 85.6062C258.016 83.9516 257.906 82.3267 257.431 80.7315C257.325 80.3751 257.253 79.9678 257.308 79.6072C257.605 77.6471 257.091 75.755 256.867 73.8373C256.782 73.1203 256.595 72.4415 256.209 71.8179C255.734 71.0499 255.53 70.1929 255.517 69.2935C255.509 68.9584 255.585 68.602 255.39 68.2244C255.157 68.5299 255.212 68.7802 255.216 69.0262C255.063 69.9384 254.906 70.8505 254.754 71.7669C254.609 72.6239 254.325 73.4215 253.532 73.8755C253.214 74.0579 253.171 74.3252 253.099 74.5883C253.01 74.9107 252.976 75.2543 252.976 75.5895C252.993 81.3212 252.73 87.0529 253.167 92.7804C253.332 94.9187 253.273 97.0781 253.294 99.2291C253.328 102.78 253.926 106.251 254.614 109.721C255.356 113.476 256.196 117.209 256.994 120.951C257.346 122.597 258.025 124.175 258.135 125.864C258.309 128.571 259.085 131.159 259.535 133.806C259.628 134.349 259.768 134.871 259.976 135.38C261.321 138.685 262.102 142.109 262.161 145.685C262.174 146.326 262.331 146.928 262.488 147.544C263.264 150.658 264.473 153.615 265.733 156.555C266.344 157.985 266.892 159.44 267.481 160.882C267.579 161.12 267.66 161.345 267.634 161.616C267.218 161.633 267.172 161.29 267.036 161.073C264.287 156.725 262.386 152.028 261.355 146.992C261.092 145.715 261.368 144.383 261.079 143.089C260.553 140.751 260.121 138.392 259.149 136.178C259.064 135.987 258.962 135.792 258.924 135.588C258.466 133.025 257.753 130.505 257.537 127.905C257.422 126.556 257.265 125.228 256.913 123.921C255.802 119.776 254.86 115.593 254.219 111.342C253.969 109.679 253.468 108.066 253.29 106.382C252.985 103.493 252.632 100.621 252.692 97.6976C252.755 94.5835 252.446 91.4695 252.251 88.3597C252.03 84.868 252.111 81.3636 252.178 77.8635C252.2 76.7308 252.14 75.5768 252.522 74.4864C252.628 74.181 252.565 74.0579 252.335 73.8713C252.081 73.6634 251.848 73.3961 251.695 73.1034C250.464 70.7827 249.429 68.3814 249.213 65.7382C249.06 63.8503 248.827 61.9581 248.929 60.0574C249.009 58.5513 249.132 57.0494 249.243 55.433C247.643 55.59 246.468 56.3324 245.607 57.5161C244.342 59.2513 243.176 61.0587 242.331 63.0484C240.057 68.4195 238.67 74.041 237.474 79.7345C236.723 83.3067 236.829 86.9129 236.545 90.5022C236.027 97.0188 236.129 103.561 235.963 110.09C235.849 114.553 235.768 119.021 235.497 123.475C235.348 125.915 235.115 128.35 234.907 130.785C234.843 131.502 234.835 132.202 235 132.915C235.738 136.11 236.481 139.309 236.935 142.559C237.105 143.78 237.639 144.892 237.86 146.097C238.174 147.79 238.64 149.461 238.237 151.336C239.2 151.184 240.079 150.993 240.982 151.124C240.902 151.527 240.622 151.523 240.384 151.54C239.922 151.574 239.48 151.701 239.026 151.79C238.22 151.947 237.813 152.397 237.614 153.169C236.795 156.389 235.785 159.567 235.433 162.893C235.161 165.46 235.238 168.035 235.378 170.598C235.497 172.825 235.297 175.074 235.747 177.28C235.84 177.734 235.883 178.2 236.01 178.642C237.351 183.304 237.058 188.06 236.863 192.82C236.744 195.773 236.392 198.701 236.146 201.636C235.845 205.289 235.598 208.951 235.73 212.625C235.891 217.092 235.84 221.564 235.73 226.031C235.709 226.825 235.874 227.516 236.265 228.191C237.732 230.732 239.544 232.981 241.839 234.83C244.135 236.684 246.79 237.63 249.701 237.91C250.77 238.012 251.843 238.11 252.908 238.258C248.39 239.298 241.801 238.767 235.811 229.493C235.811 230.66 235.755 231.729 235.819 232.79C236.023 236.163 236.137 239.527 235.772 242.895C235.679 243.736 235.565 244.571 235.285 245.369C234.669 247.125 234.385 248.958 234.008 250.774C233.439 253.506 233.778 256.238 234.148 258.949C234.313 260.171 234.292 261.486 235.132 262.539C235.251 262.691 235.208 262.848 235.072 262.98C234.945 263.107 234.788 263.166 234.614 263.116C234.08 262.954 233.804 262.543 233.609 262.059C233.265 261.198 233.053 260.299 232.866 259.391C232.518 257.694 232.31 255.98 232.221 254.253C232.077 251.355 232.692 248.559 233.418 245.785C233.469 245.581 233.532 245.377 233.609 245.182C234.075 244.02 234.063 243.027 233.134 241.975C231.852 240.52 231.038 238.729 230.189 236.986C227.648 231.763 225.433 226.392 223.163 221.05C221.653 217.487 221.076 213.698 220.559 209.892C220.223 207.44 219.999 204.975 219.85 202.383C219.354 202.68 219.222 203.092 219.061 203.435C217.945 205.824 216.358 207.907 214.725 209.939C211.064 214.5 206.77 218.403 202.146 221.971C197.207 225.781 192.074 229.323 187.012 232.955C184.895 234.474 182.672 235.861 180.424 237.176C174.327 240.744 168.26 244.372 161.85 247.376C157.128 249.59 152.279 251.512 147.234 252.832C143.462 253.82 139.602 254.482 135.779 255.267C135.083 255.411 134.354 255.407 133.654 255.53C132.877 255.666 132.203 255.275 131.473 255.195C130.09 255.042 128.698 254.923 127.319 254.868C120.773 254.605 114.566 252.921 108.432 250.761C102.539 248.687 97.2948 245.45 92.1188 242.064C91.3848 241.585 90.6466 241.101 89.6666 240.464C90.5575 244.346 91.7921 247.83 93.451 251.173C95.1183 254.537 97.176 257.66 99.433 260.668C99.0512 260.977 98.9282 260.629 98.7881 260.506C96.9044 258.797 95.305 256.854 93.9686 254.681C91.2236 250.227 89.2848 245.458 88.326 240.312C88.186 239.565 87.8593 239.107 87.2865 238.7C86.3956 238.063 85.5386 237.376 84.6561 236.731C84.4355 236.57 84.2488 236.286 83.7864 236.426C82.3906 247.359 82.5476 258.266 84.7961 269C84.3634 268.707 84.2913 268.627 84.0028 267.863C83.5021 266.561 83.2094 265.203 82.9591 263.837C81.8051 257.469 81.3596 251.045 81.7033 244.58C81.8475 241.848 82.0639 239.111 82.6239 236.421C82.7809 235.67 82.6027 235.229 81.996 234.716C79.4505 232.573 76.9771 230.342 74.4782 228.148C74.3848 228.034 74.2661 227.813 74.1261 227.974C73.9564 228.165 74.0836 228.416 74.2194 228.619C74.6097 230.511 75.1697 232.37 75.3734 234.304C75.7849 238.263 75.5855 242.212 75.3352 246.171C75.1443 249.196 75.0806 252.229 74.86 255.258C74.7243 257.112 74.4061 258.932 74.0836 260.757C74.0497 260.96 73.9521 261.151 73.88 261.351C73.7739 261.635 73.5491 261.724 73.2733 261.652C73.0272 261.584 72.9763 261.359 72.9975 261.147C73.0866 260.269 73.1672 259.386 73.2988 258.512C73.6933 255.878 73.7697 253.213 73.7739 250.57C73.7824 246.985 74.037 243.413 74.1261 239.837C74.2194 236.222 73.8927 232.692 72.9806 229.205C72.8533 228.717 72.6624 228.212 72.6878 227.724C72.7472 226.498 72.0557 225.764 71.2623 224.962C66.99 220.652 62.8196 216.244 59.294 211.28C58.6916 210.436 58.1146 209.57 57.5333 208.726C57.177 208.819 57.2873 209.057 57.3 209.239C57.563 213.528 58.1909 217.784 58.6364 222.052C59.031 225.832 60.0662 229.48 60.9995 233.15C62.739 240.006 65.1912 246.637 67.3082 253.375C68.1398 256.022 69.3616 258.525 70.5071 261.054C70.6811 261.44 71.2114 261.957 70.6514 262.259C70.0914 262.556 69.7986 261.881 69.578 261.469C68.4071 259.28 67.3082 257.049 66.4894 254.707C65.0172 250.502 63.6214 246.273 62.2087 242.043C61.5723 240.138 60.9783 238.224 60.3334 236.213C59.2516 237.121 58.2122 237.974 56.8079 238.101C56.5024 238.029 56.146 238.203 55.8872 237.915C56.9309 237.724 57.9067 237.372 58.7722 236.74C59.9559 235.878 60.151 235.378 59.7395 233.948C58.6407 230.151 57.5079 226.354 57.0454 222.417C56.5872 218.53 55.9042 214.674 55.5987 210.771C55.4333 208.675 55.1405 206.588 54.8478 204.504C54.5254 202.213 54.3429 199.91 53.9823 197.619C53.558 194.942 52.8877 192.358 51.8483 189.863C51.5471 189.138 51.4028 188.429 51.9247 187.712C52.2344 187.288 52.5059 187.263 52.7944 187.683C53.0235 188.018 53.2144 188.378 53.5496 188.947C53.6217 188.395 53.6896 188.047 53.7108 187.695C53.8508 185.175 54.0247 182.655 54.1053 180.131C54.2411 175.837 53.4308 171.675 52.2344 167.577C51.4919 165.036 50.707 162.507 50.0961 159.928C50.427 159.448 50.024 159.088 49.8755 158.685ZM234.886 135.342C234.801 135.338 234.716 135.338 234.631 135.333C234.585 135.563 234.529 135.792 234.495 136.021C234.029 139.271 233.651 142.542 233.1 145.77C232.217 150.921 231.844 156.131 230.97 161.281C230.367 164.845 229.829 168.43 229.307 172.011C228.365 178.485 226.562 184.751 224.534 190.949C223.88 192.943 223.113 194.903 222.319 196.855C221.615 198.586 220.881 200.351 221.305 202.311C221.322 202.392 221.314 202.481 221.318 202.561C221.657 207.058 222.277 211.522 223.244 215.925C223.974 219.23 225.391 222.294 226.63 225.42C228.692 230.622 230.868 235.772 233.214 240.846C233.439 241.33 233.541 241.932 234.181 242.335C234.22 240.036 234.364 237.898 234.3 235.751C234.211 232.633 233.999 229.519 234.139 226.4C234.351 221.683 234.338 216.965 234.194 212.243C234.075 208.446 234.3 204.657 234.64 200.881C235.123 195.51 235.594 190.143 235.255 184.742C235.217 184.157 235.174 183.546 235.285 182.978C235.425 182.273 235.276 181.662 235.055 181.013C234.428 179.172 234.012 177.284 233.935 175.332C233.872 173.691 233.791 172.049 233.753 170.407C233.694 167.878 233.532 165.337 233.812 162.825C234.232 159.011 235.17 155.295 236.502 151.689C236.782 150.933 237.041 150.165 236.922 149.351C236.723 148.019 236.57 146.665 236.133 145.393C235.662 144.022 235.42 142.622 235.289 141.197C235.128 139.449 234.585 137.726 234.979 135.94C235.03 135.758 234.924 135.541 234.886 135.342ZM23.7709 82.0594C24.8358 80.146 25.5316 78.3599 26.028 76.4847C26.2953 75.4707 26.2528 74.5161 25.8795 73.5276C25.4255 72.31 25.0479 71.0627 24.6916 69.8111C24.14 67.8723 23.6352 65.9207 23.0964 63.9818C23.0115 63.6763 23.0624 63.2775 22.6636 63.1291C21.9339 62.866 20.5848 63.6382 20.5423 64.4527C20.4405 66.2983 20.1647 68.1395 20.3726 69.9978C20.6696 72.6452 21.586 75.1398 22.2266 77.7065C22.5703 79.1108 23.1897 80.4557 23.7709 82.0594ZM261.818 53.0063C261.665 50.9189 261.559 49.1158 261.393 47.317C261.13 44.4702 260.804 41.6362 260.35 38.8106C260.133 37.4742 259.921 36.176 259.34 34.9414C258.776 33.745 258.623 33.6432 257.35 34.0547C257.27 34.0801 257.202 34.1311 257.121 34.1607C255.963 34.5977 255.878 34.7293 256.09 35.9044C256.306 37.1009 256.506 38.3015 256.769 39.4894C257.431 42.4762 257.957 45.5012 259.034 48.3819C259.637 49.9983 260.392 51.5256 261.818 53.0063ZM23.3764 53.8972C24.3012 54.0118 25.0904 54.1433 25.8795 54.1942C26.7832 54.2536 27.0759 54.0033 27.288 53.1293C27.5086 52.2129 27.3983 51.288 27.3644 50.3631C27.2541 47.2491 26.9062 44.135 27.2074 41.021C27.3262 39.7906 26.8001 38.9252 26.1722 38.0257C25.9898 37.7627 25.7352 37.6481 25.4043 37.716C25.0225 37.7924 24.9716 38.0936 24.9801 38.3906C25.0225 39.4937 24.7467 40.5586 24.6067 41.6362C24.0764 45.6793 23.6946 49.7352 23.3764 53.8972ZM39.5703 77.6047C39.6254 77.3968 39.7824 77.1677 39.5236 76.9768C39.4897 76.9514 39.3454 76.998 39.3369 77.0362C39.2818 77.2441 39.3709 77.4265 39.5703 77.6047Z" fill="#C1B28A"/>
<path d="M181.892 90.3494C182.477 90.4894 183.058 90.3494 183.707 90.3239C183.461 89.5263 183.126 88.7542 183.309 87.8038C183.767 88.1645 183.652 88.6778 183.814 89.0554C184.327 90.2348 185.129 90.6124 186.274 90.1585C186.571 90.0397 186.563 89.7894 186.656 89.5645C186.877 89.0257 187.123 88.4954 187.356 87.9566C187.471 87.6978 187.568 87.4347 187.916 87.1972C187.946 88.0329 187.505 88.6651 187.339 89.3566C187.275 89.6282 187.025 89.9294 187.331 90.1457C187.64 90.3621 188.039 90.447 188.383 90.1712C188.905 89.7554 189.418 89.3227 189.919 88.8815C190.199 88.6354 190.449 88.3511 190.712 88.0839C190.899 88.1602 190.928 88.3257 190.941 88.4996C190.602 89.2463 189.851 89.6494 189.38 90.3451C190.109 90.8797 190.763 90.5064 191.391 90.2306C193.101 89.4797 194.437 88.1008 194.891 86.6796C190.771 85.3389 186.614 84.2189 182.235 84.2019C177.539 84.1807 173.182 85.3771 169.206 87.8887C168.468 88.3554 167.704 88.8263 167.263 89.6494C167.127 89.9082 166.856 89.9463 166.618 89.7682C166.41 89.6112 166.483 89.4075 166.584 89.2081C166.898 88.5887 167.391 88.1178 167.925 87.7147C170.191 86.0007 172.647 84.711 175.426 83.9855C178.345 83.2219 181.276 82.8061 184.284 83.0946C187.814 83.4298 191.217 84.2995 194.568 85.4365C198.349 86.722 202.226 87.6341 206.159 88.2917C207.194 88.4657 208.251 88.4911 209.294 88.5887C209.49 88.6057 209.727 88.5081 209.85 88.8093C205.956 89.1403 202.18 88.3342 198.378 87.5281C198.713 89.2336 197.462 90.3197 194.98 91.7707C195.782 92.3943 196.588 92.5046 197.534 92.1652C198.993 91.6434 200.712 90.6082 201.819 89.4627C201.577 90.693 201.089 91.13 197.878 92.9713C198.739 93.5907 199.087 93.6586 200.101 93.2598C200.763 93.001 201.391 92.6658 202.035 92.3646C202.137 92.4622 202.243 92.5555 202.345 92.6531C201.704 93.3362 200.83 93.6374 199.965 94.0744C201.064 94.9186 202.099 95.3047 203.401 94.4859C204.538 93.7689 205.612 92.9883 206.651 92.144C206.842 92.2161 206.868 92.3731 206.876 92.547C205.888 93.8495 204.492 94.6386 203.096 95.4532C206.571 97.9521 209.961 97.5406 213.376 95.1138C213.058 96.0217 212.591 96.3866 210.537 97.3369C212.307 97.6721 215.633 96.3738 219.578 93.8028C219.901 94.0532 219.608 94.261 219.506 94.4392C218.929 95.449 218.081 96.2084 217.122 96.832C214.861 98.2957 212.391 99.2121 209.697 99.4115C208.391 99.5091 207.101 99.2333 205.858 98.8218C203.618 98.0878 201.497 97.1205 199.409 96.0047C196.821 94.6259 194.373 92.9671 191.582 91.9658C190.143 91.4482 188.671 91.1555 187.157 91.1003C185.264 91.0324 183.372 91.0918 181.493 91.3973C180.988 91.4822 180.526 91.6476 180.11 91.9573C177.785 93.6798 176.652 96.0175 176.537 98.877C176.504 99.7425 176.728 100.54 177.225 101.257C178.145 102.589 179.253 103.641 180.755 104.38C182.15 105.063 183.542 105.487 185.078 105.568C186.665 105.652 188.099 105.211 189.342 104.299C191.111 103.001 192.519 101.41 192.748 99.0764C192.778 98.7836 192.846 98.4951 192.901 98.2066C193.342 95.9835 192.519 94.5411 190.653 93.2937C190.453 93.1622 190.139 93.1919 190.046 92.8483C190.487 92.4919 190.907 92.8568 191.255 92.9968C193.113 93.735 194.318 95.6866 194.246 97.6975C194.102 101.673 192.15 104.46 188.582 106.089C186.1 107.222 183.584 106.972 181.145 105.873C179.842 105.287 178.616 104.63 177.581 103.557C175.825 101.736 175.108 99.7382 175.753 97.2351C176.151 95.6908 176.762 94.3035 177.844 93.1283C178.12 92.8271 178.383 92.5089 178.748 92.0846C178.171 92.0125 177.768 92.1525 177.361 92.2925C173.865 93.5016 170.483 94.9865 167.259 96.7981C166.826 97.0399 166.453 97.3963 166.054 97.7018C165.931 97.7103 165.804 97.7145 165.681 97.723L165.664 97.706C165.655 97.6042 165.651 97.5024 165.643 97.4005C165.846 97.146 166.054 96.8872 166.313 96.5605C164.578 96.1151 163.233 95.2156 162.55 93.544C162.147 92.5598 162.299 91.6646 163.106 90.1967C163.25 91.2191 162.669 92.0634 163.029 92.9713C163.394 93.8835 163.975 94.558 164.769 95.0629C165.545 95.555 166.398 95.835 167.374 95.6017C165.01 93.7689 164.675 92.9162 165.969 91.2743C165.689 92.301 165.677 93.0519 166.232 93.6841C166.75 94.2738 167.429 94.5792 168.154 94.8253C168.621 94.9823 169.037 94.978 169.469 94.7023C170.5 94.0532 171.629 93.5907 172.796 93.0604C172.414 92.0634 171.603 91.2276 171.676 89.8021C172.18 90.6846 172.49 91.3931 172.906 92.0422C173.254 92.5852 173.546 92.7889 174.217 92.4919C175.32 92.004 176.478 91.6603 177.755 91.2021C176.436 89.8318 175.167 88.4784 176.109 86.268C176.389 86.7644 176.134 87.1038 176.147 87.439C176.198 88.6184 177.543 90.4724 178.659 90.8543C179.113 91.007 179.575 90.867 180.033 90.8161C180.407 90.7737 180.78 90.6973 181.149 90.6379C181.399 90.5403 181.646 90.4427 181.892 90.3494ZM198.145 87.4687C197.394 87.2778 196.698 87.125 196.019 86.9214C195.608 86.7941 195.421 86.8832 195.285 87.3075C194.84 88.699 193.805 89.6197 192.676 90.4639C192.507 90.5912 192.133 90.6167 192.311 90.9815C193.822 91.69 195.099 91.0367 196.304 90.2476C197.246 89.6281 198.17 88.9154 198.145 87.4687Z" fill="#C1B28A"/>
<path d="M82.0046 86.828C81.9368 86.0983 81.7713 85.3559 82.2804 84.431C82.4713 85.5765 82.4671 86.5311 82.8701 87.3881C83.0101 87.6808 83.0356 88.1135 83.4514 88.1178C83.9944 88.1263 84.5629 88.1432 85.0466 87.825C85.3096 87.6553 85.1145 87.3626 85.106 87.1335C85.0763 86.3953 84.9957 85.6571 85.5642 85.0292C85.4963 85.7547 85.4708 86.4717 85.5727 87.1802C85.6193 87.4941 85.7466 87.7402 86.1496 87.6384C86.2727 87.6087 86.4 87.6044 86.5272 87.6002C87.0745 87.579 87.66 87.6765 88.1564 87.5068C88.657 87.3371 88.2921 86.548 88.7716 86.2468C88.831 86.2723 88.954 86.3104 88.9497 86.3316C88.8097 87.5662 88.8097 87.5662 90.0146 87.5578C90.9819 87.5535 91.9577 87.4984 92.9165 87.6723C93.3026 87.7402 93.5529 87.6638 93.782 87.3541C94.1554 86.8535 94.5542 86.3698 95.0251 85.7759C95.1439 86.6753 94.3633 87.0699 94.2233 87.8081C95.6106 88.2026 97.0361 88.5081 98.3767 89.0893C98.8095 89.276 99.1956 89.0427 99.5477 88.7923C100.273 88.2875 100.893 87.6596 101.711 86.8874C101.461 88.2663 100.596 88.9366 99.8574 89.679C100.43 90.43 101.084 90.4512 101.885 90.1881C102.802 89.8869 103.485 89.2887 104.185 88.6905C104.575 88.3596 104.787 87.8123 105.373 87.7147C104.766 89.3439 103.425 90.2518 101.941 91.0664C102.339 91.4609 102.887 91.3167 103.188 91.864C103.489 92.4155 104.21 92.4664 104.893 92.3222C106.153 92.0549 107.384 91.6858 108.809 91.2446C107.893 92.6616 106.391 92.6531 105.296 93.404C107.341 93.841 109.2 93.2725 111.228 92.407C109.335 90.85 107.744 89.2421 106.077 87.7232C105.929 87.5874 105.78 87.4305 105.53 87.4771C105.339 87.5111 105.407 87.6638 105.36 87.7614C105.555 87.7317 105.678 87.6044 105.606 87.4262C105.547 87.2777 105.411 87.1505 105.284 87.0486C102.496 84.8595 99.5944 82.8739 96.09 81.9957C94.4396 81.5842 92.7553 81.6606 91.0753 81.6733C85.9757 81.72 80.9864 82.6236 75.9887 83.5146C75.7723 83.4764 75.5135 83.5655 75.3523 83.3321C77.0323 82.6491 78.7973 82.3012 80.5664 81.9448C84.4908 81.1557 88.4576 80.7569 92.4541 80.5745C95.6827 80.4302 98.5931 81.3678 101.313 83.0182C103.082 84.0916 104.77 85.288 106.251 86.7347C108.483 88.9154 110.701 91.1003 113.014 93.1961C113.412 93.5568 113.862 93.9259 113.837 94.5495C113.832 94.6938 113.82 94.9101 113.574 94.8974C113.446 94.8889 113.357 94.838 113.319 94.6853C113.06 93.701 112.118 93.3319 111.461 92.6064C110.807 93.1452 110.192 93.6968 109.382 93.9556C108.618 94.2016 107.846 94.3841 107.006 94.4859C107.252 95.0883 107.715 95.2368 108.283 95.2326C109.306 95.2198 110.269 94.9229 111.236 94.6344C111.469 94.5665 111.664 94.3501 111.944 94.4477C111.368 95.3005 111.011 95.4829 108.576 96.115C109.98 96.9211 110.897 98.109 112.157 98.8812C111.995 99.56 111.635 99.3564 111.283 99.0636C110.557 98.4612 109.849 97.8418 109.132 97.2308L109.183 97.2223C109.085 97.2223 109.026 97.1757 109 97.0823C108.987 97.0187 108.953 96.9848 108.89 96.9763C107.579 96.0047 106.268 95.0289 104.957 94.0574C104.418 93.6586 103.909 93.2216 103.188 93.1537C102.857 93.124 102.505 92.9501 102.361 92.6361C102.042 91.9488 101.393 91.673 100.787 91.4609C99.6622 91.0706 98.678 90.2815 97.3967 90.2985C96.7646 90.3069 96.2852 89.7384 95.6445 89.6324C93.396 89.2675 91.1347 89.0978 88.8564 89.1699C88.3261 89.1869 87.8849 89.3524 87.4733 89.6833C84.9872 91.6731 83.8841 94.2016 84.1344 97.4217C84.2914 99.4073 85.3096 100.621 86.8709 101.664C89.1449 103.183 91.5886 103.514 94.2105 103.056C94.8003 102.954 95.3518 102.755 95.8482 102.432C98.207 100.892 99.675 98.8175 99.7386 95.8987C99.7556 95.0247 99.4968 94.2356 99.0725 93.4974C98.6186 92.7167 98.1349 91.9531 97.6046 91.0876C99.9635 91.97 101.313 94.3416 101.143 96.692C100.803 101.393 96.0051 105.041 91.0329 104.252C88.9752 103.926 87.1679 103.145 85.5599 101.876C84.2914 100.875 83.532 99.6109 83.3962 97.9181C83.1459 94.821 84.0114 92.1949 86.2557 90.0269C86.3703 89.9166 86.523 89.8106 86.4933 89.4796C85.2375 89.6536 84.0114 89.9506 82.8022 90.29C80.9737 90.8033 79.2724 91.6306 77.6093 92.5343C76.4257 93.1792 75.208 93.7434 73.9565 94.2313C72.0261 94.9823 70.0279 95.1986 68.0126 94.6726C65.098 93.9131 62.5143 92.5852 60.7069 90.0524C60.5415 89.819 60.3208 89.5984 60.393 89.1699C60.7875 89.1402 61.0293 89.4542 61.3094 89.6366C63.0997 90.8203 64.8943 92.004 67.0241 92.4919C68.5005 92.8313 69.9897 93.124 71.6315 92.564C69.6121 91.9276 68.1526 90.8373 67.5162 88.8984C70.257 91.6137 70.8042 91.8597 73.8716 91.5373C72.9128 90.5827 71.5212 89.9972 71.6188 88.419C72.4122 89.5857 73.3922 90.4597 74.7286 90.9603C75.5008 91.2488 76.099 91.1385 76.6802 90.5827C74.8686 89.4287 74.7668 89.3099 74.7456 88.1263C75.8317 89.4754 76.9178 90.6591 78.8694 89.6451C78.2245 88.8857 77.079 88.5929 77.0493 87.248C78.8057 89.3142 79.8961 89.6409 81.958 88.3426C82.3016 88.3384 82.5265 88.1772 82.395 87.825C82.2634 87.4856 82.2762 87.0996 82.0046 86.828Z" fill="#C1B28A"/>
<path d="M266.633 164.357C267.189 165.846 267.503 167.403 267.876 168.943C269.268 174.679 270.324 180.496 270.774 186.367C271.232 192.311 272.556 198.102 273.311 203.987C273.603 206.282 273.726 208.598 273.909 210.906C274.138 213.813 274.681 216.659 275.101 219.532C275.754 223.995 277.248 228.259 278.105 232.671C278.44 234.406 278.652 236.158 278.902 237.906C279.25 240.363 279.759 242.794 280.116 245.246C280.837 250.244 281.579 255.241 282.012 260.277C282.101 261.291 282.012 262.297 281.821 263.298C281.77 263.574 281.643 263.82 281.35 263.765C281.045 263.71 281.075 263.421 281.087 263.149C281.261 259.548 280.638 256.013 280.175 252.467C280.014 251.258 279.785 250.057 279.742 248.831C279.653 246.298 279.17 243.82 278.754 241.326C278.27 238.424 278.266 235.454 277.464 232.599C276.883 230.533 276.285 228.471 275.839 226.371C275.534 224.932 275.194 223.494 275.177 222.013C275.173 221.793 275.118 221.623 275.059 221.424C274.312 219.052 273.799 216.63 273.374 214.182C272.988 211.933 272.92 209.655 272.746 207.389C272.539 204.691 271.996 202.056 271.55 199.401C271.083 196.617 270.388 193.881 270.023 191.081C269.802 189.363 269.955 187.632 269.688 185.913C268.869 180.674 268.288 175.4 267.257 170.19C266.879 168.269 266.637 166.321 266.336 164.382C266.434 164.374 266.531 164.365 266.633 164.357Z" fill="#C1B28A"/>
<path d="M103.332 198.921C103.391 198.811 103.434 198.684 103.519 198.59C107.112 194.619 110.693 190.635 115.631 188.234C119.191 186.503 122.95 185.722 126.883 186.049C128.597 186.193 130.34 186.66 131.655 187.81C132.406 188.467 133.187 188.887 134.074 188.994C136.047 189.227 138.032 189.159 139.924 188.442C140.9 188.073 141.918 187.742 142.707 187.016C143.009 186.741 143.323 186.804 143.645 186.813C146.916 186.906 150.081 187.577 153.076 188.854C156.64 190.368 160.055 192.184 163.203 194.471C164.205 195.196 165.087 196.023 165.74 197.076C166.182 197.784 166.377 198.522 166.075 199.354C165.952 199.303 165.842 199.299 165.808 199.239C164.616 197.262 162.8 195.985 160.883 194.806C157.446 192.689 153.976 190.644 150.17 189.235C148.151 188.489 146.059 188.069 143.95 187.678C143.518 187.598 143.242 187.644 142.958 187.971C142.003 189.07 140.756 189.464 139.339 189.723C137.913 189.982 136.509 190.109 135.075 190.063C133.692 190.02 132.368 189.647 131.354 188.714C129.941 187.411 128.215 187.08 126.467 187.072C123.119 187.055 119.887 187.759 116.781 189.066C113.141 190.597 110.175 193.062 107.333 195.71C106.196 196.77 105.071 197.848 103.939 198.917C103.739 198.913 103.536 198.917 103.332 198.921Z" fill="#C1B28A"/>
<path d="M167.09 200.291C165.796 201.403 164.239 201.666 162.669 201.942C159.389 202.519 156.229 201.768 153.055 201.119C151.328 200.767 149.614 200.355 147.884 200.024C146.479 199.753 145.113 200.058 143.802 200.538C139.661 202.056 135.376 202.642 131.024 202.15C127.171 201.713 123.311 201.496 119.446 201.272C118.593 201.221 117.77 201.399 116.951 201.573C114.55 202.082 112.148 202.358 109.688 202.014C108.529 201.853 107.333 201.997 106.179 201.687C105.865 201.602 105.551 201.543 105.11 201.225C105.619 201.225 105.933 201.182 106.234 201.233C108.288 201.556 110.354 201.399 112.411 201.428C113.599 201.445 114.766 201.182 115.882 200.856C118.729 200.024 121.622 200.122 124.524 200.249C127.218 200.368 129.895 200.665 132.585 200.856C134.77 201.008 136.946 200.622 139.114 200.317C140.663 200.101 142.139 199.651 143.607 199.137C145.533 198.463 147.485 198.544 149.453 198.972C152.364 199.608 155.257 200.325 158.21 200.779C159.937 201.047 161.646 201.021 163.365 200.818C164.616 200.669 165.859 200.491 167.09 200.291Z" fill="#C1B28A"/>
<path d="M101.945 203.376C103.035 203.355 103.672 203.753 104.308 204.089C106.264 205.111 107.91 206.566 109.573 207.983C112.717 210.669 116.03 213.117 119.747 214.962C123.37 216.761 127.154 217.911 131.265 217.618C133.951 217.427 136.573 216.859 139.195 216.29C140.998 215.9 142.801 215.505 144.612 215.145C145.979 214.873 147.268 214.39 148.579 213.931C149.394 213.647 149.933 213.134 150.34 212.408C151.116 211.034 151.574 209.566 151.668 207.988C151.681 207.746 151.587 207.478 151.795 207.266C152.296 208.717 152.118 209.994 151.027 212.718C151.401 212.951 151.672 212.629 151.935 212.502C154.362 211.339 156.67 209.952 158.991 208.598C160.845 207.512 162.779 206.609 164.79 205.858C165.074 205.752 165.342 205.658 165.634 205.79C165.715 206.057 165.558 206.163 165.35 206.248C161.167 207.975 157.548 210.703 153.607 212.858C149.971 214.848 146.148 216.29 142.02 216.897C139.61 217.249 137.209 217.699 134.778 217.839C133.433 217.915 132.11 218.047 130.786 218.284C129.403 218.53 127.998 218.255 126.649 218.017C122.212 217.236 118.143 215.522 114.371 213.04C110.977 210.809 107.982 208.094 104.885 205.501C104.028 204.793 103.107 204.173 101.945 203.376Z" fill="#C1B28A"/>
<path d="M102.42 110.332C103.044 109.165 102.666 108.113 102.479 107.069C102.395 106.598 102.055 106.467 101.627 106.641C100.931 106.921 100.214 107.167 99.5945 107.612C99.6666 108.206 100.32 108.567 100.176 109.386C99.8108 108.932 99.4927 108.588 99.2296 108.206C99.0005 107.871 98.7757 107.825 98.3853 107.956C97.6344 108.211 96.858 108.419 96.0816 108.563C95.1864 108.728 95.178 108.694 95.021 109.861C94.6773 108.279 93.6082 108.665 92.7088 108.605C92.1191 108.567 92.1742 109.008 92.0978 109.36C92.0215 109.717 92.0809 110.12 91.7415 110.417C91.3427 110.103 91.6184 109.738 91.6736 109.433C91.7924 108.788 91.5081 108.512 90.9269 108.393C90.1463 108.232 89.3699 108.054 88.5977 107.85C88.0547 107.706 87.6177 107.748 87.414 108.368C86.9728 108.122 87.4522 107.795 87.2486 107.579C87.028 107.349 86.6886 107.396 86.4467 107.252C85.3182 106.586 85.2121 107.901 84.5545 108.215C84.3933 107.668 84.877 107.375 85.0467 106.874C84.5842 106.624 84.16 106.268 83.6 106.539C83.1333 106.768 82.9211 107.362 82.1193 107.629C82.3781 107.205 82.5223 106.985 82.6581 106.755C82.7854 106.543 83.006 106.382 83.023 106.106C81.0629 105.08 81.6187 105.003 79.9301 106.382C79.1665 107.006 78.4537 107.697 77.6604 108.3C78.318 106.925 79.5738 106.077 80.6471 104.999C79.141 103.735 78.0846 105.071 76.727 105.593C77.2828 104.749 78.0295 104.498 78.7592 104.066C77.9998 103.417 77.0367 103.149 76.3027 102.462C76.7567 102.178 77.024 102.534 77.304 102.657C80.872 104.227 84.4188 105.848 88.1904 106.883C90.0147 107.383 91.8348 107.833 93.7567 107.867C95.6871 107.901 97.5326 107.587 99.2763 106.815C100.782 106.149 102.335 105.682 103.939 105.351C104.147 105.309 104.435 105.355 104.546 105.232C104.753 104.999 104.223 105.024 104.316 104.884C104.418 104.732 104.647 104.621 104.843 104.575C106.226 104.24 107.617 103.926 109.005 103.612C109.166 103.574 109.403 103.51 109.492 103.591C109.845 103.904 110.175 104.134 110.693 103.981C111.817 103.65 112.997 103.51 114.04 102.933C114.482 102.691 114.448 102.407 114.18 102.012C113.777 101.414 113.315 100.88 112.797 100.379C112.696 100.281 112.713 100.158 112.793 100.044C112.882 99.9164 113.014 99.9249 113.124 99.9758C113.994 100.358 114.702 101.834 114.656 102.734C114.617 103.442 114.13 103.557 113.701 103.735C112.42 104.265 111.054 104.498 109.7 104.787C108.839 104.969 107.978 105.143 107.121 105.343C106.408 105.512 106.383 105.635 106.599 106.425C106.752 106.985 106.955 107.205 107.554 106.891C108.143 106.582 108.784 106.361 109.42 106.14C109.76 106.026 110.154 105.869 110.485 106.412C107.587 107.26 105.012 108.686 102.42 110.332ZM102.751 106.391C103.26 107.349 103.209 108.253 103.069 109.318C104.316 108.601 105.411 107.965 106.531 107.32C106.336 106.963 106.103 106.692 106.039 106.386C105.89 105.665 105.42 105.703 104.902 105.826C104.215 105.992 103.532 106.183 102.751 106.391ZM105.237 104.931C105.572 105.058 105.789 105.037 106.005 104.906C105.776 104.778 105.551 104.77 105.237 104.931Z" fill="#C1B28A"/>
<path d="M145.507 165.905C144.035 167.047 142.792 168.078 141.888 169.473C141.341 170.318 140.824 171.179 140.17 171.96C137.871 174.722 134.197 174.391 131.957 172.078C131.227 171.323 130.535 170.509 129.958 169.639C128.015 166.712 125.317 164.688 122.305 163.008C122.012 162.842 121.719 162.681 121.431 162.507C121.367 162.469 121.333 162.38 121.282 162.312C121.571 162.108 121.817 162.291 122.076 162.393C125.402 163.699 128.176 165.74 130.323 168.608C131.104 169.652 131.859 170.708 132.831 171.607C134.782 173.415 137.879 173.347 139.585 171.319C140.174 170.615 140.722 169.915 141.214 169.134C143.284 165.842 146.229 163.64 149.92 162.435C150.369 162.287 150.798 162.206 151.269 162.41C152.486 162.944 152.813 164.48 151.765 165.278C150.2 166.47 148.405 167.182 146.411 167.238C145.567 167.263 145.49 167.119 145.507 165.905ZM145.516 166.181C147.463 166.079 149.258 165.528 150.866 164.437C151.061 164.306 151.252 164.102 151.116 163.805C150.963 163.474 150.671 163.436 150.374 163.517C148.558 164.013 146.92 164.849 145.516 166.181Z" fill="#C1B28A"/>
<path d="M272.093 57.0791C273.12 57.7791 273.345 58.6234 273.447 59.5143C273.65 61.2835 273.459 63.0484 273.374 64.8133C273.192 68.7716 272.008 72.5009 270.837 76.2386C270.447 77.4816 270.031 78.7162 269.641 79.9636C268.856 82.4836 267.252 84.571 266.043 87.002C265.56 86.408 265.84 85.9456 266.005 85.5256C266.438 84.431 266.96 83.3746 267.367 82.2715C268.385 79.5054 268.949 76.6034 269.849 73.8033C271.147 69.7644 271.652 65.594 272.11 61.4108C272.263 60.0404 272.25 58.6616 272.093 57.0791Z" fill="#C1B28A"/>
<path d="M190.037 108.737C190.241 109.462 190.725 109.95 190.699 110.735C190.118 110.514 190.025 109.98 189.77 109.619C189.405 109.106 189.045 108.766 188.332 108.839C187.543 108.919 186.737 108.856 185.905 108.856C185.778 109.708 186.406 110.383 186.376 111.299C185.689 110.794 185.417 110.107 185.188 109.454C184.976 108.847 184.658 108.597 184.021 108.554C183.398 108.512 182.787 108.329 182.172 108.194C181.332 108.011 181.336 108.007 181.073 108.86C181.005 109.085 180.92 109.309 180.784 109.713C180.534 109.292 180.581 109.012 180.581 108.749C180.598 107.731 180.589 107.761 179.668 107.519C179.282 107.417 179.066 107.443 178.833 107.786C178.638 108.075 178.616 108.529 178.158 108.614C177.988 108.334 178.222 108.126 178.273 107.892C178.315 107.693 178.404 107.506 178.502 107.222C177.114 106.951 175.859 106.034 174.437 106.925C174.251 106.518 174.722 106.488 174.645 106.191C172.834 105.169 171.302 105.534 170.046 107.311C170.161 106.42 170.886 106.068 171.404 105.419C169.86 105.114 168.345 105.02 166.813 104.995C167.917 104.384 169.1 104.579 170.263 104.66C173.805 104.901 177.191 105.945 180.572 106.891C185.701 108.329 190.678 108.194 195.604 106.17C195.99 106.013 196.393 105.898 196.792 105.78C196.842 105.767 196.919 105.843 197.093 105.937C196.346 106.378 195.65 106.785 194.916 107.218C195.506 107.999 196.206 108.682 196.418 109.971C195.718 109.199 195.209 108.639 194.696 108.079C194.331 107.68 193.987 107.502 193.385 107.769C192.371 108.228 191.272 108.52 190.037 108.737Z" fill="#C1B28A"/>
<path d="M17.6235 209.443C17.6701 210.66 17.6659 211.674 17.6235 212.693C17.4707 216.477 17.3095 220.261 17.1525 224.046C16.9998 227.703 16.8428 231.364 16.6901 235.021C16.478 240.108 16.0113 245.186 16.1258 250.286C16.1301 250.536 16.1258 250.791 16.1089 251.041C16.0961 251.215 16.0367 251.351 15.8034 251.338C15.6125 251.325 15.6295 251.185 15.621 251.079C15.5998 250.829 15.5998 250.574 15.5955 250.324C15.4979 245.229 15.744 240.142 16.0198 235.055C16.1725 232.238 16.2786 229.421 16.4016 226.604C16.5586 223.032 16.7028 219.455 16.864 215.883C16.9489 214.033 17.055 212.188 17.161 210.338C17.1737 210.096 17.0974 209.825 17.6235 209.443Z" fill="#C1B28A"/>
<path d="M154.408 90.8246C154.841 92.2798 153.904 93.1453 153.255 94.1041C151.294 96.9848 150.382 100.243 149.784 103.616C149.356 106.017 149.063 108.436 148.817 110.862C148.745 111.596 148.579 112.343 148.978 113.2C148.197 112.886 148.248 112.339 148.172 111.872C147.875 110.065 148.062 108.262 148.227 106.463C148.533 103.103 149.059 99.7891 150.522 96.7048C151.524 94.575 152.75 92.5853 154.408 90.8246Z" fill="#C1B28A"/>
<path d="M120.442 90.9136C121.545 91.4779 122.305 92.3688 122.984 93.3277C125.83 97.3454 127.243 101.809 126.938 106.743C126.806 108.843 126.2 110.879 125.763 112.937C125.729 113.098 125.678 113.264 125.601 113.412C125.521 113.569 125.372 113.658 125.186 113.62C124.956 113.573 124.978 113.374 124.99 113.225C125.105 112.097 125.135 110.947 125.376 109.84C126.072 106.632 125.784 103.463 125.096 100.315C124.405 97.1502 122.937 94.3162 121.036 91.7028C120.841 91.4312 120.642 91.1724 120.442 90.9136Z" fill="#C1B28A"/>
<path d="M157.064 156.631C158.392 157.344 159.122 158.46 159.355 159.894C159.724 162.155 159.415 164.344 158.46 166.415C157.204 169.143 154.883 170.551 152.096 171.323C151.574 171.467 151.048 171.646 150.488 171.586C150.234 171.561 149.954 171.518 149.962 171.192C149.971 170.946 150.195 170.89 150.412 170.835C151.099 170.657 151.799 170.5 152.465 170.258C155.982 168.977 157.586 166.27 158.078 162.715C158.375 160.585 158.316 158.54 157.064 156.631Z" fill="#C1B28A"/>
<path d="M146.869 221.453C141.973 224.033 126.577 224.538 123.259 222.264C124.137 222.086 124.859 222.17 125.567 222.277C128.193 222.671 130.828 222.977 133.484 222.909C136.594 222.832 139.695 222.506 142.771 222.039C144.137 221.831 145.503 221.649 146.869 221.453Z" fill="#C1B28A"/>
<path d="M66.604 54.61C67.3677 54.5845 67.9447 55.013 68.5386 55.3736C70.9823 56.8713 73.2224 58.6447 75.3946 60.5029C77.0577 61.9242 78.7081 63.3582 80.2184 64.9449C80.7997 65.5558 81.3385 66.1964 81.6736 66.9856C81.75 67.168 81.8688 67.4098 81.6397 67.5541C81.4318 67.6898 81.2748 67.5583 81.1263 67.3674C77.5541 62.7557 72.9297 59.3235 68.2544 55.9506C67.6901 55.5391 67.0495 55.2209 66.604 54.61Z" fill="#C1B28A"/>
<path d="M205.078 62.7472C202.167 64.5036 199.473 66.1031 197.14 68.2074C194.811 70.3075 192.422 72.3354 190.246 74.9616C190.547 71.8984 201.671 62.7642 205.078 62.7472Z" fill="#C1B28A"/>
<path d="M97.5665 75.5852C94.2021 70.0275 89.6965 65.5643 84.6987 61.5253C85.5091 61.7078 86.1327 62.1787 86.7437 62.6411C90.4602 65.4497 93.7609 68.6826 96.4676 72.4924C96.807 72.9718 97.0955 73.4894 97.3755 74.007C97.6386 74.4779 97.804 74.987 97.5665 75.5852Z" fill="#C1B28A"/>
<path d="M186.639 76.0222C188.06 71.7075 196.134 64.1685 200.3 63.1799C197.678 64.9321 195.095 66.7225 192.838 68.9498C190.602 71.156 188.582 73.5445 186.639 76.0222Z" fill="#C1B28A"/>
<path d="M160.556 85.0844C161.035 82.017 169.287 73.0355 172.189 72.3354C167.552 75.9332 164.315 80.5618 160.556 85.0844Z" fill="#C1B28A"/>
<path d="M170.098 81.0327C170.132 80.0441 170.679 79.3144 171.239 78.6101C173.021 76.3658 174.926 74.2276 176.941 72.1869C178.065 71.0499 179.151 69.8704 180.416 68.8777C180.831 68.551 181.226 68.1777 181.867 68.114C179.864 70.2183 177.853 72.3099 175.863 74.4227C173.865 76.5525 171.981 78.7841 170.098 81.0327Z" fill="#C1B28A"/>
<path d="M103.625 79.1193C100.341 73.676 96.3869 69.1619 91.9619 64.9872C94.5796 65.5261 103.621 76.2979 103.625 79.1193Z" fill="#C1B28A"/>
<path d="M121.995 169.13C121.889 169.639 121.562 169.719 121.295 169.703C119.823 169.609 118.401 169.312 117.107 168.54C114.681 167.081 112.733 165.32 112.946 162.121C114.027 163.759 114.838 165.574 116.48 166.805C118.13 168.039 119.937 168.799 121.995 169.13Z" fill="#C1B28A"/>
<path d="M188.197 66.9771C185.566 68.6401 183.245 70.6214 181.154 72.8742C179.071 75.1186 176.911 77.2865 175.011 79.726C174.642 79.2848 174.926 79.0472 175.062 78.8266C175.545 78.0375 176.067 77.2611 176.725 76.6077C179.028 74.3252 181.162 71.8772 183.598 69.7262C184.764 68.6953 185.995 67.745 187.416 67.0746C187.628 66.9771 187.827 66.7395 188.197 66.9771Z" fill="#C1B28A"/>
<path d="M192.935 65.9037C191.981 67.0407 190.856 67.9062 189.77 68.7971C187.326 70.7996 185.027 72.9464 183.024 75.3944C182.358 76.2047 181.688 77.0108 181.209 77.9569C181.137 78.1011 181.009 78.2454 180.81 78.1393C180.644 78.0502 180.577 77.889 180.627 77.7193C180.806 77.1508 181.145 76.6671 181.497 76.2004C183.508 73.5361 185.825 71.173 188.434 69.0899C189.681 68.0971 190.95 67.1298 192.21 66.154C192.396 66.0055 192.57 65.7976 192.935 65.9037Z" fill="#C1B28A"/>
<path d="M196.283 71.4572C197.488 68.4874 204.607 63.6169 207.92 63.4642C207.988 63.7654 207.75 63.7866 207.564 63.8672C203.813 65.5685 200.44 67.8213 197.53 70.7487C197.199 71.0881 196.881 71.5081 196.283 71.4572Z" fill="#C1B28A"/>
<path d="M87.3504 70.5536C83.9394 65.8401 79.5653 62.1787 75.416 58.2841C75.9421 58.3435 76.3112 58.6913 76.6803 58.9883C80.1295 61.8139 83.4642 64.7625 86.4 68.1311C86.731 68.5087 87.0364 68.9117 87.3249 69.3232C87.5752 69.6796 87.7237 70.0657 87.3504 70.5536Z" fill="#C1B28A"/>
<path d="M101.015 68.4068C101.758 68.551 102.25 69.0814 102.755 69.5481C105.699 72.2845 108.296 75.318 110.493 78.6866C110.812 79.1787 111.147 79.6751 111.295 80.2521C111.342 80.4345 111.469 80.6933 111.151 80.7612C110.977 80.7994 110.85 80.6763 110.769 80.5109C110.294 79.5648 109.662 78.7247 109.068 77.855C106.802 74.5416 104.286 71.4402 101.223 68.8183C101.105 68.7292 100.952 68.6444 101.015 68.4068Z" fill="#C1B28A"/>
<path d="M74.2702 181.344C74.0708 181.497 73.9478 181.365 73.8162 181.268C70.5579 178.858 67.5797 176.134 64.7796 173.215C64.4614 172.884 64.1177 172.562 63.948 172.117C63.8844 171.943 63.9438 171.76 64.0753 171.663C64.2153 171.557 64.3892 171.59 64.5208 171.73C64.6056 171.824 64.699 171.909 64.788 171.998C67.6475 174.972 70.6004 177.848 73.6678 180.614C73.9011 180.822 74.1896 181.009 74.2702 181.344Z" fill="#C1B28A"/>
<path d="M19.7192 222.718C19.2356 217.427 19.7319 212.222 19.7404 207.012C20.4023 212.052 20.1095 217.118 20.1732 222.17C20.1774 222.387 20.0883 222.578 19.7192 222.718Z" fill="#C1B28A"/>
<path d="M156.929 87.999C157.069 85.6019 162.105 78.6441 165.125 76.5822C162.287 80.3072 159.165 83.8328 156.929 87.999Z" fill="#C1B28A"/>
<path d="M92.6875 72.9591C89.6328 68.9668 85.98 65.6194 82.7217 61.9284C82.8787 61.7629 83.0059 61.8054 83.095 61.8902C86.0139 64.737 88.9668 67.5498 91.6735 70.6045C92.119 71.1093 92.522 71.6481 92.7808 72.276C92.8572 72.4542 92.9336 72.6664 92.6875 72.9591Z" fill="#C1B28A"/>
<path d="M107.766 79.4247C106.752 78.7714 106.45 77.8592 105.895 77.1677C105.292 76.4168 104.749 75.6149 104.151 74.8597C103.578 74.1385 102.984 73.43 102.36 72.7469C101.711 72.0342 100.999 71.3766 100.345 70.6681C99.7216 69.9892 99.1361 69.2723 98.7373 68.8098C100.32 69.1492 106.807 76.404 107.766 79.4247Z" fill="#C1B28A"/>
<path d="M74.173 63.1715C72.7814 61.7757 71.148 60.749 69.5656 59.6629C67.9788 58.5725 66.303 57.6307 64.5933 56.761C64.6908 56.3197 65.0048 56.43 65.1957 56.4852C65.5945 56.5997 65.9848 56.7652 66.3624 56.9519C68.8613 58.1907 71.1353 59.7774 73.316 61.5042C73.8293 61.9114 74.3257 62.3696 74.173 63.1715Z" fill="#C1B28A"/>
<path d="M183.937 111.503C179.312 111.842 174.947 110.909 170.827 108.783C170.848 108.389 171.103 108.368 171.349 108.423C171.591 108.474 171.824 108.584 172.057 108.677C176.966 110.676 178.833 111.104 183.937 111.503Z" fill="#C1B28A"/>
<path d="M278.627 176.232C278.152 175.511 278.165 174.658 278.033 173.869C277.638 171.501 277.015 169.193 276.468 166.864C276.357 166.389 276.128 165.944 275.929 165.422C276.442 165.434 276.637 165.761 276.752 166.088C277.846 169.227 278.784 172.401 278.86 175.765C278.865 175.931 278.843 176.1 278.627 176.232Z" fill="#C1B28A"/>
<path d="M172.465 74.8258C170.738 76.6586 169.024 78.4957 167.289 80.3115C166.478 81.1558 165.694 82.0212 165.032 82.9801C164.646 82.8655 164.747 82.6237 164.832 82.3819C165.083 81.6946 165.537 81.1388 166.012 80.6169C167.9 78.5423 169.898 76.5695 171.951 74.6561C172.13 74.6731 172.32 74.6731 172.465 74.8258Z" fill="#C1B28A"/>
<path d="M280.859 189.554C280.078 185.761 278.89 182.116 278.682 178.175C278.877 178.396 278.716 178.213 278.886 178.23C278.92 178.234 278.962 178.256 278.975 178.281C279.072 178.514 279.204 178.739 279.251 178.981C279.862 182.328 280.634 185.646 281.109 189.019C281.126 189.172 281.168 189.346 280.859 189.554Z" fill="#C1B28A"/>
<path d="M106.972 71.402C110.269 74.4609 112.534 78.1435 113.782 82.4455C112.021 78.4447 109.874 74.6858 106.972 71.402Z" fill="#C1B28A"/>
<path d="M60.5289 57.8937C63.8254 58.6573 66.8504 59.8368 69.328 62.2211C69.1838 62.3866 69.1626 62.4205 69.1329 62.4417C69.0989 62.4629 69.0438 62.5011 69.0268 62.4884C66.3582 60.7107 63.4096 59.4931 60.5077 58.1864C60.4907 58.1864 60.5119 58.11 60.5289 57.8937Z" fill="#C1B28A"/>
<path d="M202.46 69.2087C202.137 68.5511 202.528 68.3432 202.816 68.1395C205.264 66.4001 207.954 65.3649 211.013 65.3988C208.039 66.3873 205.026 67.2698 202.46 69.2087Z" fill="#C1B28A"/>
<path d="M124.588 210.083C124.125 209.829 124.036 209.409 124.044 208.993C124.091 206.702 124.808 204.623 126.132 202.761C126.492 202.252 126.607 202.26 127.443 202.277C125.487 204.504 124.481 207.054 124.588 210.083Z" fill="#C1B28A"/>
<path d="M243.371 238.411C244.436 239.438 245.569 240.023 246.82 240.38C248.055 240.732 249.315 240.694 250.554 240.634C250.664 240.893 250.503 240.969 250.346 241.003C248.216 241.419 246.154 241.292 244.279 240.1C243.783 239.786 243.197 239.438 243.371 238.411Z" fill="#C1B28A"/>
<path d="M164.425 99.2418C164.149 99.9121 163.598 100.392 163.216 100.99C162.944 101.414 162.63 101.817 162.401 102.258C161.595 103.798 161.828 104.486 163.352 105.203C162.668 105.601 161.871 105.296 161.54 104.507C161.243 103.794 161.358 103.094 161.659 102.428C162.215 101.193 162.995 100.112 163.95 99.1527C164.111 99.1824 164.268 99.2121 164.425 99.2418Z" fill="#C1B28A"/>
<path d="M75.5307 100.837C75.1531 101.142 74.9113 100.935 74.7416 100.693C74.1646 99.8655 73.6427 99 73.507 97.9775C73.3076 96.5096 73.9779 95.3768 75.4925 94.7447C74.7076 95.589 73.9312 96.4629 74.1052 97.7018C74.2706 98.8685 75.0131 99.8146 75.5307 100.837Z" fill="#C1B28A"/>
<path d="M217.691 69.3444C215.4 69.4335 213.372 70.0826 211.009 70.0572C212.655 68.9286 215.93 68.5977 217.691 69.3444Z" fill="#C1B28A"/>
<path d="M201.102 97.8588C202.014 99.1146 202.095 100.536 202.243 101.936C202.256 102.05 202.299 102.14 202.176 102.263C201.747 102.695 201.357 103.158 200.932 103.633C200.618 103.217 200.852 102.975 201.047 102.797C201.539 102.339 201.543 101.813 201.454 101.193C201.289 100.09 201.212 98.9703 201.102 97.8588Z" fill="#C1B28A"/>
<path d="M57.6904 60.401C59.1032 59.9259 62.8749 61.1902 63.7403 62.4841C62.913 62.6835 62.4464 61.9835 61.81 61.7926C61.0887 61.5805 60.4014 61.2708 59.6887 61.0247C59.0268 60.8041 58.3565 60.6089 57.6904 60.401Z" fill="#C1B28A"/>
<path d="M123.23 164.293C121.838 164.858 120.107 164.565 119.289 163.661C118.762 163.08 118.792 162.52 119.378 162.214C119.475 162.163 119.628 162.155 119.738 162.185C119.904 162.231 119.857 162.363 119.781 162.473C119.403 162.999 119.823 163.233 120.167 163.449C120.782 163.831 121.482 163.95 122.195 164.022C122.53 164.056 122.937 163.928 123.23 164.293Z" fill="#C1B28A"/>
<path d="M49.8755 158.685C50.0197 159.088 50.4228 159.448 50.0749 159.932C48.9888 160.076 48.0257 159.626 47.0584 159.266C46.3075 158.986 45.4717 158.871 44.6953 158.184C46.5663 158.439 48.153 159.096 49.8246 159.372C50.0452 159.151 49.7991 158.905 49.8755 158.685Z" fill="#C1B28A"/>
<path d="M135.584 185.056C135.321 185.523 134.914 185.51 134.553 185.447C133.442 185.252 132.347 184.976 131.388 184.331C131.214 184.212 131.04 184.093 130.9 183.941C130.744 183.779 130.688 183.576 130.862 183.385C131.011 183.224 131.159 183.317 131.308 183.402C131.741 183.656 132.152 183.953 132.606 184.157C133.548 184.585 134.528 184.925 135.584 185.056Z" fill="#C1B28A"/>
<path d="M136.742 186.635C134.965 187.683 131.689 186.749 130.994 184.938C131.982 185.413 132.75 186.032 133.705 186.299C134.68 186.567 135.669 186.503 136.742 186.635Z" fill="#C1B28A"/>
<path d="M172.465 74.8258C172.325 74.6731 172.134 74.6731 171.947 74.6561C173.411 72.9888 175.061 71.5124 176.792 70.1123C175.528 71.8518 173.95 73.2985 172.465 74.8258Z" fill="#C1B28A"/>
<path d="M202.46 183.359C203.915 181.913 205.26 180.322 207.114 179.006C206.635 180.131 203.966 182.642 202.46 183.359Z" fill="#C1B28A"/>
<path d="M145.851 207.194C145.715 205.658 145.469 204.178 144.913 202.761C144.833 202.557 144.769 202.349 145.024 202.235C145.206 202.15 145.372 202.26 145.435 202.417C146.08 203.974 146.373 205.561 145.851 207.194Z" fill="#C1B28A"/>
<path d="M181.892 90.3494C181.646 90.4427 181.4 90.5403 181.149 90.6336C180.297 89.0215 179.834 87.3117 180.055 85.4407C180.322 86.4208 180.598 87.4008 180.852 88.3851C181.048 89.1233 181.34 89.8021 181.892 90.3494Z" fill="#C1B28A"/>
<path d="M193.504 186.015C193.559 186.181 193.695 186.219 193.852 186.223C192.46 187.521 190.984 188.718 189.401 189.783C190.678 188.425 192.04 187.165 193.504 186.015Z" fill="#C1B28A"/>
<path d="M173.161 198.739C172.223 199.85 170.938 200.304 169.605 200.661C169.389 200.72 169.058 200.813 168.956 200.504C168.846 200.168 169.19 200.079 169.398 200.016C170.666 199.647 171.892 199.163 173.161 198.739Z" fill="#C1B28A"/>
<path d="M212.701 67.0152C211.679 67.3419 210.656 67.6601 209.638 67.9952C209.392 68.0758 209.146 68.1352 208.909 68.0546C208.688 67.9782 208.548 67.6643 208.739 67.5879C210.012 67.1085 211.301 66.6249 212.68 66.7012L212.701 67.0152Z" fill="#C1B28A"/>
<path d="M146.993 207.589C147.357 206.121 146.721 204.623 147.065 202.964C147.752 204.254 147.71 206.494 146.993 207.589Z" fill="#C1B28A"/>
<path d="M115.733 205.506C115.372 206.88 115.203 208.251 115.886 209.744C114.524 208.883 114.494 207.152 115.733 205.506Z" fill="#C1B28A"/>
<path d="M28.3188 126.598C29.5789 127.311 30.5971 128.376 31.9887 128.923C30.8559 129.105 28.8831 127.892 28.3188 126.598Z" fill="#C1B28A"/>
<path d="M59.3747 63.4557C58.0171 63.5872 56.9013 62.832 55.6455 62.5987C56.6849 62.1575 58.2547 62.5181 59.3747 63.4557Z" fill="#C1B28A"/>
<path d="M30.886 106.9C29.5071 107.086 28.298 106.645 27.1567 105.992C26.9276 105.86 26.8173 105.593 27.0252 105.355C27.2119 105.143 27.3604 105.3 27.5343 105.453C28.2004 106.051 29.0701 106.234 29.8762 106.548C30.2071 106.675 30.5465 106.781 30.886 106.9Z" fill="#C1B28A"/>
<path d="M57.5969 64.8982C56.269 65.0339 55.0599 64.5757 53.7192 64.1642C54.6187 63.8587 56.4684 64.1769 57.5969 64.8982Z" fill="#C1B28A"/>
<path d="M120.604 207.941C120.069 206.744 120.218 205.59 120.964 204.526C121.066 204.377 121.261 204.182 121.486 204.364C121.669 204.513 121.512 204.649 121.423 204.789C120.816 205.735 120.646 206.795 120.604 207.941Z" fill="#C1B28A"/>
<path d="M124.447 203.435C123.87 204.827 123.378 206.01 122.843 207.304C122.636 205.972 123.289 204.33 124.447 203.435Z" fill="#C1B28A"/>
<path d="M159.517 97.9733C160.255 96.7684 160.9 95.4956 162.181 94.6853C161.358 95.835 160.535 96.9848 159.708 98.1388C159.644 98.0794 159.58 98.0285 159.517 97.9733Z" fill="#C1B28A"/>
<path d="M17.4536 205.234C17.2669 203.618 17.7039 202.035 17.5384 200.423C17.653 200.419 17.7675 200.41 17.8863 200.406C17.8948 200.894 17.9075 201.386 17.9118 201.874C17.916 202.459 17.9203 203.041 17.9075 203.622C17.8948 204.161 17.9754 204.704 17.8227 205.238C17.6997 205.234 17.5766 205.234 17.4536 205.234Z" fill="#C1B28A"/>
<path d="M97.7319 200.321C98.7502 200.092 99.5435 200.202 100.311 200.508C100.57 200.61 100.842 200.852 100.672 201.199C100.507 201.535 100.248 201.322 100.036 201.216C99.3568 200.877 98.5211 200.932 97.7319 200.321Z" fill="#C1B28A"/>
<path d="M109.564 102.886C109.543 101.851 109.904 101.138 110.392 100.481C110.583 100.226 110.858 100.078 111.143 100.298C111.397 100.498 111.244 100.752 111.092 100.952C110.629 101.554 110.286 102.263 109.564 102.886Z" fill="#C1B28A"/>
<path d="M118.062 104.503C118.359 103.616 118.368 102.89 118.207 102.161C118.169 101.983 118.219 101.817 118.41 101.77C118.58 101.732 118.733 101.796 118.83 101.961C119.242 102.661 118.983 103.722 118.062 104.503Z" fill="#C1B28A"/>
<path d="M81.8563 61.0332C80.7702 60.2483 79.5993 59.5907 78.5811 58.6191C79.5356 58.7676 80.346 59.3489 81.8563 61.0332Z" fill="#C1B28A"/>
<path d="M217.105 71.453C218.25 71.3512 219.082 71.5591 219.85 72.0554C218.967 72.1233 218.034 72.4967 217.105 71.453Z" fill="#C1B28A"/>
<path d="M139.432 208.688C139.033 207.826 138.898 207.198 138.885 206.541C138.881 206.431 138.94 206.299 139.101 206.286C139.25 206.274 139.356 206.341 139.381 206.46C139.513 207.097 139.742 207.733 139.432 208.688Z" fill="#C1B28A"/>
<path d="M17.4537 205.234C17.5767 205.234 17.6998 205.234 17.8228 205.238C17.7889 206.486 17.7634 207.737 17.721 208.985C17.7167 209.171 17.738 209.438 17.4367 209.43C17.1482 209.422 17.161 209.163 17.1737 208.972C17.2628 207.724 17.3604 206.477 17.4537 205.234Z" fill="#C1B28A"/>
<path d="M82.0045 86.8281C82.2803 87.0996 82.2676 87.4857 82.3906 87.8166C82.5221 88.1687 82.2973 88.3257 81.9536 88.3342C81.6227 87.8548 81.3724 87.3372 81.1899 86.7687C81.5421 86.5778 81.5463 86.9596 81.7118 87.0529C81.9791 87.2014 81.9324 86.9384 82.0045 86.8281Z" fill="#C1B28A"/>
<path d="M202.358 92.6488C202.256 92.5513 202.15 92.4579 202.048 92.3604C202.49 91.8131 203.211 91.5797 203.571 90.9306C203.525 91.7834 202.99 92.2543 202.358 92.6488Z" fill="#C1B28A"/>
<path d="M103.332 198.921C103.536 198.917 103.739 198.917 103.943 198.913C103.553 199.413 103.158 199.914 102.598 200.631C102.615 199.74 102.95 199.32 103.332 198.921Z" fill="#C1B28A"/>
<path d="M190.945 88.5039C190.933 88.3299 190.907 88.1645 190.716 88.0881C190.979 87.596 191.242 87.1038 191.505 86.6117C191.671 87.3838 191.429 87.9863 190.945 88.5039Z" fill="#C1B28A"/>
<path d="M206.885 92.5386C206.877 92.3689 206.851 92.2076 206.66 92.1355C206.97 91.6688 207.292 91.2149 207.946 90.7694C207.691 91.5797 207.356 92.0973 206.885 92.5386Z" fill="#C1B28A"/>
<path d="M55.8703 237.906C56.1333 238.195 56.4854 238.021 56.7909 238.093C56.2224 238.135 55.6751 238.492 55.043 238.254C55.2254 237.775 55.5818 237.927 55.8703 237.906Z" fill="#C1B28A"/>
<path d="M15.6719 255.067C15.6167 254.461 15.5573 253.858 15.7398 253.107C16.3465 253.816 16.0028 254.461 15.9137 255.08C15.8331 255.067 15.7525 255.063 15.6719 255.067Z" fill="#C1B28A"/>
<path d="M75.3524 83.3194C75.5137 83.557 75.7682 83.4636 75.9888 83.5061C75.5518 83.6079 75.153 83.9049 74.5591 83.7437C74.7797 83.4382 75.03 83.3236 75.3524 83.3194Z" fill="#C1B28A"/>
<path d="M15.6721 255.067C15.7527 255.063 15.8333 255.067 15.9139 255.08C16.0285 255.784 16.037 256.48 15.8249 257.443C15.5491 256.489 15.6212 255.776 15.6721 255.067Z" fill="#C1B28A"/>
<path d="M255.208 69.0304C255.204 68.7886 255.148 68.5383 255.382 68.2286C255.577 68.6062 255.496 68.9625 255.509 69.2977C255.458 69.1535 255.356 69.0644 255.208 69.0304Z" fill="#C1B28A"/>
<path d="M164.425 99.2418C164.268 99.2121 164.111 99.1824 163.954 99.1527C164.124 98.9321 164.272 98.6903 164.467 98.5036C164.59 98.3848 164.798 98.4527 164.866 98.6054C164.938 98.7667 164.811 98.8939 164.663 98.9745C164.523 99.017 164.442 99.1061 164.425 99.2418Z" fill="#C1B28A"/>
<path d="M164.569 98.4782C164.633 98.2194 164.76 98.003 165.04 97.9563C165.214 97.9266 165.392 98.0157 165.35 98.2151C165.299 98.4697 165.117 98.6436 164.841 98.6818C164.68 98.6988 164.641 98.5673 164.569 98.4782Z" fill="#C1B28A"/>
<path d="M165.681 97.7145C165.804 97.706 165.931 97.7017 166.054 97.6932C165.969 97.8672 165.846 97.9987 165.643 98.0242C165.655 97.9223 165.668 97.8163 165.681 97.7145Z" fill="#C1B28A"/>
<path d="M165.681 97.7145C165.668 97.8163 165.655 97.9223 165.643 98.0242C165.312 98.1175 165.21 98.0072 165.341 97.6848C165.447 97.689 165.553 97.6932 165.664 97.6932L165.681 97.7145Z" fill="#C1B28A"/>
<path d="M194.004 186.087C194.026 186.028 194.072 185.994 194.136 185.99C194.127 186.066 194.081 186.1 194.004 186.087Z" fill="#C1B28A"/>
<path d="M112.386 99.0891C112.364 99.2037 112.339 99.3182 112.318 99.4328C112.267 99.3903 112.178 99.3522 112.174 99.3012C112.157 99.1612 112.271 99.1188 112.386 99.0891Z" fill="#C1B28A"/>
<path d="M164.421 99.246C164.442 99.106 164.523 99.0169 164.654 98.9703C164.637 99.1103 164.557 99.2036 164.421 99.246Z" fill="#C1B28A"/>
<path d="M112.39 99.0891C112.279 99.1866 112.173 99.3563 112.029 99.1357C111.936 98.9915 112.118 98.9575 112.161 98.8642C112.118 99.0551 112.203 99.1272 112.39 99.0891Z" fill="#C1B28A"/>
<path d="M108.894 96.9551C108.957 96.9635 108.991 97.0014 109.003 97.0603C108.928 97.0645 108.89 97.0308 108.894 96.9551Z" fill="#C1B28A"/>
<path d="M165.664 97.6975C165.558 97.6933 165.452 97.6933 165.341 97.689C165.388 97.5363 165.486 97.4345 165.638 97.3963C165.647 97.4939 165.655 97.5957 165.664 97.6975Z" fill="#C1B28A"/>
<path d="M109.187 97.2012L109.132 97.2138L109.187 97.2012Z" fill="#C1B28A"/>
</g>
</g>
<defs>
<clipPath id="clip0_244_10509">
<rect width="300" height="300" rx="15.7895" fill="white"/>
</clipPath>
<clipPath id="clip1_244_10509">
<rect width="299.882" height="238" fill="white" transform="translate(0 31)"/>
</clipPath>
</defs>
</svg>
