<svg width="300" height="300" viewBox="0 0 300 300" fill="none" xmlns="http://www.w3.org/2000/svg">
<g clip-path="url(#clip0_208_1149)">
<path d="M113.318 207.417C115.897 208.097 118.483 208.747 121.05 209.471C122.879 209.987 124.772 210.077 126.62 210.464C127.766 210.705 128.946 210.773 130.092 211.014C131.201 211.245 132.284 211.236 133.396 211.076C135.216 210.817 136.981 210.424 138.52 209.34C138.714 209.203 138.917 208.997 139.263 209.14C139.407 209.893 139.029 210.489 138.545 211.008C137.78 211.829 136.909 212.485 135.719 212.6C135.207 212.65 134.704 212.822 134.198 212.95C132.519 213.381 130.87 213.312 129.174 212.909C127.151 212.428 125.084 212.138 123.039 211.748C122.146 211.576 121.249 211.398 120.375 211.148C117.434 210.305 114.486 209.487 111.576 208.544C108.906 207.679 106.155 207.142 103.464 206.361C102.152 205.98 100.825 205.649 99.5012 205.318C98.2959 205.015 97.0812 204.744 95.8354 205.075C95.4607 205.175 95.0766 205.275 94.7331 205.446C93.7464 205.943 93.6777 206.136 94.0399 207.289C94.3147 208.157 94.6176 209.019 94.9173 209.88C96.1882 213.537 96.6878 217.352 97.2936 221.153C97.6152 223.167 97.6527 225.156 97.4403 227.192C97.203 229.458 97.1874 231.744 96.8876 234.014C96.5848 236.312 95.7604 238.42 94.9548 240.546C94.908 240.665 94.8486 240.793 94.755 240.881C94.6675 240.962 94.5364 241.021 94.4177 241.034C94.143 241.065 94.0899 240.831 94.1211 240.656C94.2804 239.76 94.3615 238.829 94.6644 237.98C95.4544 235.782 95.4513 233.493 95.5731 231.22C95.6886 229.068 95.7198 226.914 95.7635 224.762C95.776 224.178 95.7417 223.582 95.6418 223.007C95.2983 221.015 94.8892 219.039 94.5583 217.046C93.8214 212.584 92.2289 208.369 90.9081 204.072C90.0494 201.272 89.1407 198.486 88.2976 195.682C87.3203 192.435 86.1837 189.253 84.56 186.265C84.4039 185.978 84.2509 185.69 84.1197 185.394C82.877 182.627 81.2626 180.126 78.952 178.115C78.7084 177.903 78.5148 177.634 78.3119 177.378C77.5937 176.476 76.685 176.226 75.5422 176.354C74.2026 176.504 73.0067 176.925 71.9451 177.722C70.1746 179.052 68.4479 180.423 66.9053 182.043C65.6563 183.358 64.1669 184.454 62.7212 185.565C60.0202 187.639 57.4816 189.871 55.299 192.494C52.8384 195.454 50.3748 198.408 47.9205 201.375C47.4646 201.927 47.0306 202.499 46.6403 203.098C46.4217 203.435 46.6371 203.698 46.9806 203.841L47.0618 203.773C46.8901 203.448 46.5778 203.204 46.3249 203.545C45.3632 204.85 44.2359 206.052 43.727 207.654C43.4522 208.522 43.1243 209.378 42.7809 210.221C42.0065 212.113 42.5373 213.79 43.6021 215.382C43.9362 215.882 44.4077 216.232 44.9885 216.416C47.3022 217.15 49.0571 218.655 50.687 220.391C52.9196 222.77 55.1085 225.184 57.1756 227.71C57.2943 227.857 57.4691 227.96 57.619 228.081L57.6315 228.028C57.8407 228.684 58.231 229.206 58.8024 229.59C58.7618 229.764 58.8337 229.836 59.0085 229.814C59.199 230.302 59.3114 230.854 59.9578 230.97L59.9859 231.001C60.0233 231.766 60.3574 232.309 61.1225 232.534L61.0694 232.615C61.2661 233.621 62.0124 234.311 62.6025 235.051C64.195 237.043 65.647 239.126 67.0927 241.221C67.6048 241.961 67.8421 242.117 68.5166 241.736C70.3682 240.696 72.2885 241.002 74.2026 241.358C76.0574 241.702 77.8466 242.317 79.6202 242.96C81.297 243.569 83.0456 243.722 84.7973 243.881C85.8027 243.975 86.7176 243.638 87.6419 243.288C88.5443 242.948 89.3968 242.432 90.4084 242.389C90.3835 242.885 90.065 243.129 89.7309 243.313C88.0541 244.237 86.3055 244.787 84.3352 244.777C81.9527 244.765 79.692 244.19 77.4126 243.669C76.4602 243.45 75.5078 243.207 74.5898 242.879C73.2128 242.389 71.7733 242.379 70.3557 242.239C69.9873 242.201 69.5688 242.326 69.2254 242.489C68.7289 242.72 68.2199 242.742 67.7016 242.773C67.2863 242.801 66.9334 242.679 66.6711 242.336C66.5525 242.18 66.4214 242.033 66.2996 241.883C63.6486 238.573 60.932 235.313 58.3684 231.938C55.2834 227.875 51.9079 224.078 48.3358 220.447C46.9463 219.032 45.2945 218.027 43.5084 217.178C42.5092 216.703 41.7504 216.893 41.0135 217.562C40.4827 218.043 40.0081 218.586 39.4897 219.082C37.3258 221.14 35.7021 223.541 34.6842 226.361C33.9348 228.444 32.9075 230.414 32.208 232.522C30.881 236.512 30.1659 240.609 29.9192 244.793C29.6445 249.427 29.7444 254.054 30.194 258.676C30.2565 259.328 30.3377 259.965 30.5843 260.577C30.6218 260.668 30.5562 260.871 30.4813 260.911C30.3907 260.961 30.2034 260.933 30.116 260.865C29.913 260.712 29.6538 260.546 29.5789 260.328C29.3697 259.716 29.1449 259.082 29.098 258.445C28.9481 256.49 28.5703 254.56 28.4236 252.618C28.2612 250.476 28.2362 248.303 28.4017 246.164C28.6609 242.788 28.9638 239.407 29.6788 236.078C30.1597 233.839 30.8279 231.666 31.6554 229.543C32.2237 228.088 32.8669 226.661 33.4508 225.212C34.5936 222.383 36.2205 219.9 38.5717 217.921C39.1182 217.459 39.6334 216.956 40.1642 216.475C40.7512 215.938 40.9198 215.292 40.6981 214.527C40.1704 212.712 40.4421 210.989 40.9698 209.178C41.9222 205.905 43.6364 203.114 45.7753 200.544C48.6106 197.137 51.5114 193.781 54.3466 190.371C56.2857 188.035 58.7088 186.259 61.0631 184.401C63.1115 182.789 65.1723 181.222 67.0146 179.342C68.6009 177.722 70.4275 176.323 72.5602 175.392C73.8123 174.849 75.0988 174.877 76.404 174.899C76.532 174.902 76.6913 174.902 76.785 174.971C78.2338 176.067 80.0948 176.479 81.3532 177.918C82.6053 179.352 83.8106 180.804 84.6693 182.499C85.9027 184.941 87.2703 187.311 88.3101 189.853C89.0283 191.607 89.6091 193.4 90.1462 195.208C90.5177 196.457 90.8924 197.703 91.3608 198.92C91.7355 199.891 92.0103 200.9 92.3257 201.893C92.5411 202.577 92.7285 203.27 92.9751 203.941C93.2687 204.747 93.5403 204.8 94.2523 204.319C94.4989 204.154 94.6207 203.969 94.577 203.688C94.527 203.367 94.4771 203.042 94.3865 202.73C93.837 200.844 93.5434 198.914 93.2406 196.978C92.9221 194.92 92.4256 192.888 92.0353 190.839C91.57 188.404 91.0829 185.971 90.702 183.523C90.4584 181.974 90.449 180.398 90.6145 178.833C90.7488 177.572 91.4014 176.498 92.004 175.414C92.4787 174.562 92.9408 173.697 93.456 172.869C93.9369 172.098 94.4365 171.324 95.0141 170.621C97.534 167.567 100.625 165.191 103.991 163.146C104.547 162.809 105.119 162.49 105.69 162.181C107.473 161.213 109.312 160.417 111.351 160.139C112.569 159.973 113.799 159.802 114.973 159.464C116.075 159.149 117.04 159.389 117.999 159.823C119.488 160.498 120.903 161.303 122.099 162.443C122.317 162.649 122.561 162.827 122.929 163.133C123.295 161.566 123.348 160.142 123.37 158.734C123.391 157.416 123.598 156.151 123.907 154.874C124.793 151.205 127.017 148.673 130.28 146.893C133.88 144.929 137.552 143.112 141.296 141.441C143.625 140.401 146.07 139.743 148.528 139.096C151.257 138.381 153.814 138.906 156.34 139.902C157.249 140.261 158.148 140.642 159.038 141.042C161.214 142.019 163.01 143.515 164.659 145.213C166.167 146.765 167.444 148.479 168.537 150.353C169.389 151.814 170.345 153.216 170.988 154.793C171.028 154.893 171.213 155.021 171.291 154.996C171.462 154.949 171.634 154.843 171.64 154.599C171.656 153.622 171.719 152.642 171.7 151.664C171.669 150.1 172.171 148.72 173.052 147.455C174.523 145.344 176.352 143.59 178.391 142.041C179.481 141.213 180.618 140.436 181.654 139.546C183.312 138.119 185.242 137.451 187.378 137.316C188.877 137.223 190.379 137.16 191.877 137.135C195.837 137.073 199.643 137.938 203.378 139.152C205.257 139.764 206.953 140.726 208.461 142C209.557 142.924 210.644 143.864 211.708 144.826C213.257 146.225 214.765 147.671 216.32 149.063C217.494 150.112 218.534 151.268 219.471 152.532C220.199 153.516 221.02 154.434 221.897 155.499C222.628 154.674 223.255 153.956 223.896 153.251C226.949 149.872 230.612 147.533 235.124 146.596C236.267 146.359 237.388 146.003 238.503 145.647C242.855 144.251 247.018 144.898 250.993 146.927C253.26 148.086 255.345 149.544 257.213 151.302C258.112 152.148 259.114 152.888 260.114 153.619C263.336 155.973 266.334 158.581 269.116 161.438C270.268 162.621 271.036 164.011 271.657 165.563C272.416 167.458 272.832 169.413 273.291 171.374C273.587 172.635 273.344 173.859 272.869 174.996C272.216 176.56 271.414 178.053 270.165 179.267C269.085 180.32 268.351 181.631 267.539 182.896C264.922 186.964 262.003 190.808 258.409 194.084C257.45 194.958 256.623 195.998 255.377 196.525C254.958 196.703 254.574 196.988 254.143 197.1C250.562 198.049 246.98 198.992 243.383 199.879C242.375 200.126 241.322 200.235 240.283 200.304C238.003 200.45 235.721 200.575 233.438 200.613C231.805 200.641 230.187 200.366 228.598 199.998C227.699 199.788 226.906 199.333 226.181 198.758C226.091 198.455 225.885 198.318 225.572 198.333L225.46 198.237C225.413 197.859 225.054 197.493 225.401 197.094C226.693 197.965 227.989 198.82 229.588 199.042C230.422 199.158 231.24 199.401 232.077 199.482C233.366 199.607 234.671 199.688 235.905 199.13C236.089 199.123 236.273 199.117 236.457 199.114C238.365 199.339 240.214 198.877 242.072 198.592C243.221 198.418 244.389 198.265 245.416 197.643C245.922 197.478 246.549 197.871 246.965 197.3C248.454 196.844 249.922 196.276 251.442 195.963C253.772 195.486 255.617 194.39 257.135 192.538C258.409 190.98 259.954 189.65 261.153 188.01C262.652 185.962 264.266 183.985 265.615 181.84C266.558 180.341 267.52 178.896 268.779 177.65C269.821 176.616 270.443 175.32 270.942 173.978C271.189 173.313 271.33 172.588 271.186 171.864C270.746 169.634 270.181 167.442 269.331 165.325C269.06 164.645 268.722 164.029 268.235 163.495C266.309 161.372 264.288 159.346 262.078 157.507C259.623 155.464 257.025 153.616 254.605 151.527C252.495 149.703 250.134 148.18 247.374 147.39C244.545 146.581 241.766 146.403 238.955 147.505C237.809 147.955 236.595 148.236 235.393 148.526C234.631 148.71 233.894 148.945 233.163 149.223C229.413 150.659 226.419 153.094 223.921 156.186C223.718 156.439 223.543 156.717 223.374 156.991C223.196 157.279 222.903 157.541 223.065 157.953C223.618 157.744 223.871 157.275 224.189 156.866C225.07 155.736 225.91 154.574 226.974 153.603C227.152 153.441 227.343 153.204 227.627 153.541C226.843 154.565 226.106 155.636 225.257 156.61C224.02 158.034 223.199 159.586 223.33 161.528C223.024 161.759 222.984 162.059 223.096 162.403C222.725 164.585 221.872 166.655 221.61 168.869C221.466 170.093 221.251 171.314 221.001 172.526C220.829 173.359 220.726 174.193 220.695 175.043C220.486 180.276 220.92 185.447 222.191 190.536C221.847 190.646 221.591 190.618 221.469 190.199C221.419 190.031 221.257 189.896 221.145 189.75C220.142 186.761 219.683 183.679 219.53 180.541C219.459 179.046 219.296 177.553 219.212 176.057C219.106 174.156 219.346 172.279 219.736 170.421C219.893 169.672 219.936 168.929 219.943 168.201C219.365 168.095 219.249 168.46 219.049 168.688C217.882 170.006 216.742 171.352 215.555 172.651C213.944 174.412 212.842 176.463 211.958 178.658C211.552 179.667 211.602 180.71 211.624 181.747C211.655 183.261 211.459 184.741 211.162 186.215C211.125 186.405 211.037 186.586 210.981 186.774C210.169 189.381 206.397 192.472 203.727 193.013C201.701 193.422 199.849 192.966 197.979 192.404C197.095 192.138 196.358 191.598 195.674 190.967C193.66 189.109 191.606 187.295 189.598 185.431C187.3 183.292 185.142 181.053 183.659 178.218C182.538 176.079 181.061 174.153 179.622 172.217C177.598 169.497 175.556 166.79 173.52 164.079C173.411 163.933 173.299 163.764 173.061 163.795C172.662 163.845 172.74 164.164 172.761 164.385C172.821 165.035 172.889 165.687 173.021 166.324C173.442 168.398 173.367 170.462 173.067 172.548C172.677 175.261 172.387 177.987 172.093 180.713C171.962 181.953 171.747 183.161 171.347 184.344C171.119 185.019 171.041 185.746 170.804 186.418C170.404 187.561 170.148 188.863 168.584 189.028C167.466 190.262 165.87 190.802 164.587 191.795C164.175 192.113 163.747 192.416 163.325 192.722C159.912 195.205 156.381 195.008 152.855 193.053C151.494 192.297 150.236 191.336 149.002 190.377C147.294 189.05 145.358 188.091 143.557 186.921C142.873 186.477 142.092 186.368 141.315 186.337C140.153 186.293 138.988 186.324 137.93 186.324C137.511 186.733 137.752 187.033 137.824 187.33C138.97 192.02 140.031 196.725 140.4 201.553C140.49 202.727 140.493 203.907 139.941 205.003C139.853 205.175 139.716 205.34 139.494 205.228C139.404 205.181 139.326 205.056 139.301 204.95C139.257 204.763 139.238 204.563 139.244 204.366C139.338 201.737 138.973 199.155 138.361 196.61C137.508 193.063 136.656 189.5 135.132 186.171C133.424 182.437 131.569 178.774 129.562 175.186C128.125 172.619 126.517 170.178 124.803 167.789C122.664 164.81 119.829 162.656 116.731 160.795C116.269 160.517 115.816 160.485 115.251 160.667C114.015 161.063 112.728 161.307 111.464 161.619C110.252 161.919 109.119 162.399 108.038 163.018C104.235 165.194 100.616 167.623 97.484 170.718C96.413 171.776 95.4575 172.929 94.627 174.187C93.1344 176.441 92.3819 178.871 92.8409 181.597C93.1219 183.267 93.3873 184.938 93.6652 186.608C94.4209 191.177 95.3607 195.717 95.723 200.341C95.7948 201.25 95.9728 202.149 96.0914 203.051C96.1913 203.798 96.1851 203.801 97.2499 203.873C97.6089 203.988 97.7495 203.648 97.993 203.52C98.0055 203.623 98.043 203.72 98.1023 203.804C98.6519 204.369 99.3857 204.101 100.032 204.229C102.296 204.722 104.563 205.197 106.82 205.721C107.329 205.84 107.869 205.615 108.375 206.04C108.75 206.355 109.346 206.293 109.89 206.233V204.822C109.887 204.825 109.927 204.797 109.933 204.803C109.974 204.847 110.021 204.894 110.037 204.947C110.183 205.428 110.18 206.086 110.502 206.352C110.964 206.733 111.663 206.83 112.263 207.045C112.547 207.376 112.884 207.542 113.318 207.417ZM196.314 187.873C195.952 188.163 196.274 188.366 196.411 188.588C196.608 189.113 197.001 189.365 197.545 189.409C197.957 190.199 198.7 190.477 199.499 190.664C199.731 190.995 200.04 191.008 200.383 190.886C202.403 191.629 204.214 191.251 205.826 189.849C206.516 189.25 207.203 188.647 207.855 188.01C208.417 187.458 208.786 186.808 208.976 186.003C209.298 184.654 209.401 183.295 209.407 181.928C209.417 179.923 209.922 178.059 210.878 176.313C211.44 175.283 212.033 174.271 212.586 173.238C213.023 172.42 213.588 171.708 214.26 171.086C215.799 169.659 217.204 168.151 217.913 166.106C218.103 165.563 218.478 165.082 218.775 164.576C219.137 163.958 219.593 163.377 219.852 162.718C220.804 160.314 220.673 158.009 219.034 155.905C218.434 155.133 217.782 154.4 217.226 153.6C216.477 152.517 215.583 151.58 214.612 150.703C213.21 149.432 211.852 148.114 210.453 146.843C209.295 145.791 208.121 144.757 206.922 143.752C205.557 142.606 203.986 141.8 202.31 141.238C200.021 140.473 197.657 139.999 195.281 139.602C192.283 139.102 189.292 139.424 186.301 139.696C185.376 139.78 184.552 140.198 183.815 140.754C182.098 142.05 180.352 143.315 178.697 144.689C177.648 145.56 176.733 146.593 175.772 147.568C174.326 149.032 173.72 150.793 173.63 152.86C173.536 154.993 173.445 157.163 172.63 159.199C172.452 159.649 172.543 160.101 172.668 160.542C172.886 161.31 173.317 161.959 173.829 162.562C174.251 163.058 174.697 163.536 175.103 164.045C176.93 166.34 178.757 168.632 180.561 170.943C181.804 172.535 183.016 174.153 184.234 175.767C185.255 177.119 186.173 178.562 187.29 179.829C189.882 182.768 192.886 185.294 195.749 187.957C195.918 188.116 196.08 188.073 196.233 187.926L196.314 187.873ZM139.301 184.956C140.459 185.178 141.555 184.635 142.701 184.675C143.026 185.369 143.669 185.044 144.184 185.141C144.384 185.297 144.565 185.49 144.787 185.603C147.219 186.814 149.508 188.238 151.656 189.912C152.765 190.777 153.855 191.72 155.25 192.138C155.706 192.597 156.296 192.454 156.849 192.491C156.912 192.504 156.977 192.532 157.04 192.532C157.755 192.529 157.851 192.441 157.611 192.01C157.38 191.595 156.983 191.255 157.058 190.689C157.605 191.198 158.132 191.673 158.635 192.169C159.004 192.532 159.431 192.538 159.9 192.479C160.396 192.413 160.284 192.063 160.278 191.754C160.421 191.757 160.562 191.764 160.705 191.767C160.83 191.91 160.968 192.095 161.177 192.013C161.533 191.873 161.889 191.714 162.217 191.517C164.043 190.418 165.851 189.291 167.684 188.207C168.321 187.832 168.768 187.305 169.171 186.714C169.392 186.699 169.467 186.58 169.411 186.368C169.605 185.956 169.795 185.547 169.989 185.134C170.185 185.022 170.207 184.866 170.114 184.675C170.726 182.524 170.863 180.323 170.904 178.099C170.932 176.607 171.035 175.111 171.178 173.625C171.397 171.349 171.578 169.066 171.178 166.802C170.929 165.378 170.854 163.958 170.888 162.521C170.91 161.613 170.96 160.695 170.697 159.802C170.185 158.053 169.733 156.295 168.974 154.621C168.402 153.36 167.578 152.273 166.888 151.096C165.039 147.945 162.588 145.36 159.453 143.49C158.011 142.631 156.459 141.935 154.901 141.301C154.142 140.992 153.296 140.814 152.412 140.973C151.847 141.076 151.235 141.048 150.66 140.967C149.533 140.807 148.425 140.929 147.369 141.241C144.256 142.163 141.209 143.287 138.223 144.557C136.909 145.116 135.629 145.766 134.373 146.447C132.778 147.315 131.173 148.186 129.668 149.194C128.1 150.244 127.516 152.095 126.448 153.557C126.333 153.713 126.245 153.891 126.155 154.062C125.605 155.108 125.224 156.214 125.106 157.388C124.9 159.399 124.753 161.413 124.528 163.424C124.422 164.389 124.637 165.138 125.265 165.931C127.448 168.685 129.59 171.477 131.323 174.549C132.125 176.176 132.909 177.809 133.736 179.423C134.626 181.156 135.544 182.877 136.478 184.588C136.781 185.144 136.937 185.128 137.677 184.629C137.961 184.932 138.273 185.163 138.723 185.031C138.913 185.01 139.107 184.981 139.301 184.956Z" fill="#C1B28A"/>
<path d="M60.0951 107.905C59.4643 110.372 58.4245 112.699 57.594 115.097C56.7602 117.495 55.8048 119.852 54.893 122.225C54.7806 122.519 54.5995 122.784 54.4371 123.056C54.4152 123.09 54.3091 123.093 54.2497 123.075C54.2029 123.062 54.1498 123 54.1373 122.95C53.9656 122.288 54.1311 121.679 54.3715 121.057C55.1646 118.99 55.9265 116.914 56.7009 114.841C56.8383 114.475 56.9882 114.113 57.1225 113.748C57.2005 113.538 57.11 113.361 56.9289 113.273C56.6541 113.145 56.4449 113.264 56.3106 113.523C56.2513 113.638 56.1951 113.76 56.1638 113.885C55.5581 116.296 54.5214 118.556 53.7377 120.904C53.6128 121.276 53.4473 121.635 53.3661 122.016C53.0257 123.593 53.7283 124.879 55.2333 125.457C55.5799 125.591 55.9109 125.454 56.1045 125.185C56.4449 124.717 56.754 124.217 57.0163 123.702C58.9335 119.924 60.9007 116.174 62.7117 112.346C63.7078 110.244 64.835 108.215 65.8342 106.119C66.8709 103.946 67.9888 101.807 69.0692 99.6558C70.1215 97.5606 71.1737 95.4654 72.2229 93.3671C77.5593 82.7068 82.8863 72.0404 88.2382 61.3832C90.1086 57.6581 92.0321 53.9579 93.9399 50.2515C94.146 49.8487 94.4177 49.4771 94.6675 49.0993C94.6831 49.0774 94.7924 49.1024 94.8486 49.1305C94.9017 49.1586 94.986 49.2273 94.9797 49.2554C94.8548 49.6832 94.7612 50.1297 94.5738 50.5325C93.5059 52.8369 92.4411 55.1445 91.3233 57.4239C84.3819 71.5845 77.4281 85.7388 70.4743 99.8931C68.7226 103.459 66.9646 107.022 65.1754 110.569C64.757 111.393 64.7632 112.074 65.1723 112.936C66.9802 116.761 68.76 120.608 70.415 124.498C71.1238 126.166 71.5609 127.958 72.0324 129.719C72.3915 131.056 72.3447 132.427 72.1042 133.8C71.5672 136.889 70.7553 139.908 69.8841 142.909C68.9006 146.287 67.9576 149.678 66.7023 152.969C66.0497 154.681 65.1504 156.248 64.1325 157.778C62.9241 159.599 61.4409 161.125 59.786 162.509C59.3894 162.84 58.971 163.18 58.5057 163.389C57.085 164.036 55.6736 164.757 54.1873 165.197C52.32 165.75 50.3685 166.047 48.4075 165.993C43.9143 165.869 39.6864 164.854 35.7364 162.559C32.7294 160.813 30.3064 158.543 28.2799 155.77C26.7436 153.666 25.073 151.664 23.7959 149.369C22.1098 146.337 20.5922 143.249 20.0021 139.786C19.9272 139.34 19.796 138.896 19.6524 138.465C18.6813 135.549 18.0661 132.558 17.5322 129.535C16.9982 126.522 16.227 123.549 15.8866 120.499C15.793 119.655 15.7024 118.812 15.6462 117.966C15.5837 117.048 15.9709 116.314 16.6922 115.771C17.0544 115.496 17.4416 115.25 17.8476 115.04C20.5579 113.632 23.2807 112.252 25.9817 110.828C27.4243 110.069 28.9262 109.47 30.4375 108.87C32.6732 107.98 34.8715 106.994 37.0884 106.051C40.5794 104.561 44.2171 103.578 47.9548 102.95C48.7854 102.81 49.6347 102.803 50.5465 102.728C50.8681 101.735 51.1834 100.755 51.5051 99.7713C55.6642 87.0159 59.8109 74.2573 63.9857 61.5081C65.1005 58.1077 66.337 54.7448 67.2019 51.2632C67.3424 50.7012 67.6047 50.161 67.8639 49.6395C68.0169 49.3335 68.326 49.168 68.682 49.3085C69.0223 49.4428 69.1941 49.7363 69.1254 50.0891C69.0286 50.5981 68.9162 51.1133 68.7351 51.5973C65.8467 59.2849 63.4986 67.1536 60.8476 74.9193C57.9062 83.5499 55.0366 92.2086 52.1389 100.855C52.014 101.226 51.8735 101.592 51.7798 101.97C51.7111 102.241 51.4457 102.6 51.936 102.753C52.4512 102.916 52.8821 102.744 53.0726 102.335C53.1537 102.157 53.2381 101.979 53.3036 101.798C57.2161 91.0252 61.1099 80.2463 65.0443 69.483C67.4361 62.9383 69.9029 56.4216 72.3197 49.8862C72.838 48.4811 73.2689 47.0416 73.7498 45.624C73.9184 45.1306 74.087 44.6341 74.3275 44.1782C74.4805 43.891 74.8115 43.688 75.1487 43.8348C75.4422 43.9628 75.6826 44.2219 75.6296 44.6029C75.6014 44.7934 75.5484 44.9838 75.4922 45.1681C75.336 45.6926 75.7201 45.8363 76.0729 46.0018C75.973 46.3296 75.7107 46.2984 75.4547 46.2922C75.183 46.2859 74.9457 46.339 74.8677 46.6513C74.7865 46.8105 74.7053 46.9698 74.621 47.129C74.4087 47.8659 74.4118 47.8722 75.2205 47.9846C76.8005 48.734 78.3774 49.4896 79.9605 50.2234C80.56 50.5013 80.7911 50.4264 81.0471 49.8612C81.5248 48.7964 81.9714 47.716 82.421 46.6388C84.0759 42.6919 85.7121 38.7388 87.392 34.8045C87.876 33.6741 88.4974 32.6062 89.0532 31.5102C89.6434 31.7475 89.2281 32.2909 89.4029 32.6531C88.5224 36.3439 86.983 39.8005 85.6216 43.3164C84.7504 45.5646 83.8136 47.7847 82.9331 50.0267C82.6271 50.8042 82.1962 51.5474 82.3117 52.456C82.3492 52.7401 82.1431 53.068 82.012 53.3584C79.489 59.0008 76.9691 64.6494 74.4274 70.2824C71.9637 75.7405 69.4033 81.1581 67.0021 86.6443C64.2636 92.9081 61.622 99.2155 59.0147 105.535C58.1466 107.637 57.5221 109.841 56.7852 111.999C56.7634 112.062 56.7384 112.121 56.7259 112.186C56.6666 112.452 56.6666 112.727 56.9507 112.842C57.2099 112.945 57.4566 112.855 57.5752 112.577C57.7532 112.158 57.9093 111.731 58.0842 111.309C58.6088 110.048 59.1396 108.786 59.6673 107.525C59.8172 107.659 59.9546 107.781 60.0951 107.905ZM58.0061 102.853C58.1435 102.56 58.2809 102.266 58.4183 101.976C58.5588 101.682 58.69 101.386 58.8398 101.095C59.0553 100.677 58.9866 100.312 58.5494 100.137C57.4878 99.712 56.576 98.9533 55.4457 98.6691C54.9586 99.2093 54.8368 99.865 54.6088 100.465C54.5433 100.639 54.7056 100.821 54.9055 100.899C54.8742 101.023 54.8805 101.148 54.9273 101.267C54.69 101.304 54.3903 101.17 54.2373 101.454C54.028 101.842 53.722 102.204 53.8626 102.747C55.0366 102.913 56.2763 102.813 57.4066 103.381C57.7875 103.578 57.9187 103.166 58.0061 102.853ZM58.0936 92.5896C58.106 92.9174 57.8125 92.9549 57.6189 93.0861C56.9726 93.6762 56.8664 94.5162 56.5948 95.2812C56.4574 95.5966 56.32 95.9088 56.1795 96.2242C55.9984 96.7737 55.8141 97.3233 55.5924 97.9853C56.6884 98.5504 57.7657 99.1156 58.8523 99.6589C59.0928 99.7807 59.3988 99.7589 59.5299 99.4903C59.8047 98.9251 60.2137 98.3943 60.1263 97.7042C60.3293 97.4232 60.8101 97.3577 60.7664 96.883C61.0037 96.2741 61.241 95.6653 61.4784 95.0564C61.6251 94.7441 61.7719 94.4287 61.9186 94.1165C62.0935 93.6263 62.2652 93.136 62.4401 92.6427C62.7274 92.4335 62.6212 92.0775 62.7492 91.809C63.2301 91.2594 63.3175 90.5319 63.6173 89.9011C63.9451 89.6825 63.739 89.2985 63.892 89.0237C64.323 88.3804 64.6258 87.6872 64.8132 86.8098C63.4237 86.1385 62.0498 85.4734 60.6478 84.7927C60.2668 85.311 60.0201 85.8231 59.9421 86.4039C59.8952 86.7567 60.067 87.0159 60.398 87.1595C60.3074 87.4374 60.0888 87.4687 59.839 87.4593C59.5081 87.4468 59.2551 87.5436 59.2676 87.9433C59.1271 88.3242 58.9897 88.7052 58.8492 89.0893C58.2778 89.5233 58.5869 90.2883 58.2122 90.7973C58.0842 91.1407 57.9562 91.4873 57.825 91.8308C57.697 92.1587 57.7719 92.4178 58.0936 92.5896ZM66.618 83.1409C66.821 82.5008 67.3736 81.9824 67.255 81.2361C67.4423 80.9739 67.9076 80.9458 67.8764 80.4992C68.1418 79.9715 68.4103 79.4438 68.6789 78.9161C68.9849 78.7257 69.0036 78.4134 69.0192 78.1011C69.447 77.2393 69.9997 76.4275 70.1433 75.4439C70.3026 75.1722 70.4649 74.9006 70.6242 74.6289C70.7397 74.401 70.874 74.1793 70.9645 73.942C71.308 73.0489 71.3049 73.0302 70.4899 72.6211C69.0192 71.8842 67.5454 71.1598 66.0403 70.4167C65.5813 71.0849 65.4158 71.8374 65.191 72.5681C65.0848 72.8834 64.7351 73.0895 64.7788 73.4736C64.5322 74.3854 63.9639 75.1941 63.8827 76.1621C63.6235 76.1995 63.5548 76.3619 63.5923 76.5961C63.4487 76.9739 63.3081 77.3486 63.1645 77.7264C62.7336 78.3166 62.5837 79.016 62.387 79.6968C62.3527 80.2432 61.8936 80.6741 61.9717 81.2518C61.7219 81.461 61.6064 81.7326 61.6126 82.0574C61.3847 82.5882 61.1474 83.1159 60.9319 83.653C60.8195 83.9309 60.9413 84.1838 61.1848 84.3024C62.3402 84.8645 63.5049 85.4109 64.6727 85.9449C65.0162 86.101 65.3315 85.9699 65.4439 85.6108C65.6126 85.0675 66.0934 84.6241 65.9685 83.9902C66.1902 83.7092 66.6211 83.5905 66.618 83.1409ZM70.9239 56.9243C70.5742 57.1304 70.5961 57.4551 70.6429 57.7892C70.4868 58.3388 70.0809 58.8197 70.1964 59.5285C72.0387 60.3997 73.9465 61.2427 75.9512 62.0265C76.2041 61.4551 76.4071 60.9898 76.6131 60.5246C77.1003 60.2154 76.7943 59.7283 76.8817 59.3318C77.6561 58.1858 77.6623 58.1702 76.5975 57.6924C74.9457 56.9493 73.2845 56.2311 71.6452 55.5098C71.2018 55.9251 71.1019 56.4434 70.9239 56.9243ZM66.6961 68.3308C66.6211 68.5744 66.5462 68.8179 66.4681 69.0615C66.2339 69.7953 66.2433 69.8296 66.8116 70.1169C68.0731 70.7508 69.3283 71.394 70.5961 72.0123C71.5266 72.4681 71.5828 72.44 71.9731 71.4721C72.1355 71.0693 72.4415 70.6852 72.226 70.2043L72.2885 70.0732L72.1823 69.9733C73.1128 69.5986 73.2377 68.7992 73.2596 67.9436C73.5094 67.8843 73.6343 67.7126 73.6842 67.4753C74.3681 65.8953 75.1237 64.3403 75.5921 62.6572C74.5273 62.2045 73.5781 61.7861 72.6195 61.3926C71.6858 61.0085 70.824 60.4371 69.7655 60.2029C69.5032 60.8899 69.2784 61.4863 69.0348 62.1233C69.9372 62.523 70.7647 62.8633 71.5672 63.2474C72.4259 63.6596 73.2877 64.0748 74.0152 64.7337C72.098 64.7056 70.6117 63.3879 68.8038 63.0632C68.4197 63.594 68.2355 64.2185 68.0325 64.8336C67.9607 65.0522 68.0793 65.1958 68.2042 65.3426L68.2074 65.2957C67.3362 65.7922 67.3799 66.7352 67.1114 67.5283C66.7304 67.6689 66.6242 67.953 66.6961 68.3308ZM52.9352 118.038C53.1975 117.104 53.6752 116.218 53.5316 115.2C54.2747 114.494 54.3216 113.489 54.6369 112.602C54.9898 111.621 55.3052 110.625 55.6237 109.632C55.9203 108.702 56.2357 107.777 56.473 106.831C56.7009 105.92 57.341 105.126 57.3535 104.015C55.5893 104.546 53.8969 104.415 52.2232 104.352C49.26 104.246 46.3685 104.633 43.5146 105.382C40.1079 106.276 36.8511 107.581 33.6474 109.03C32.642 109.485 31.5991 109.863 30.5718 110.272C29.9098 110.535 29.2229 110.75 28.5796 111.056C26.4001 112.087 24.23 113.129 22.0692 114.2C20.6703 114.897 19.2933 115.643 17.9131 116.377C17.2106 116.748 16.8421 117.307 16.9982 118.138C17.1793 119.097 17.3386 120.061 17.5353 121.02C17.7039 121.847 18.0131 122.666 18.0693 123.496C18.1348 124.486 18.3597 125.435 18.6407 126.363C18.981 127.49 19.2496 128.626 19.4588 129.782C19.7835 131.58 20.1395 133.366 20.7702 135.09C20.9919 135.696 21.1012 136.352 21.198 136.995C21.5914 139.652 22.319 142.219 23.3463 144.689C24.8857 148.383 26.9965 151.745 29.4945 154.865C31.5429 157.422 33.8129 159.683 36.7637 161.278C40.2297 163.155 43.908 164.083 47.7768 164.267C50.5964 164.401 53.338 163.87 55.9297 162.621C58.2747 161.491 60.2543 159.967 61.7094 157.803C62.7617 156.236 63.789 154.649 64.7726 153.038C65.1067 152.492 65.3159 151.858 65.5095 151.24C66.3463 148.57 67.1613 145.891 67.9794 143.215C68.9349 140.099 69.7592 136.948 70.4962 133.775C70.8459 132.274 70.8271 130.787 70.4275 129.323C69.9997 127.755 69.55 126.185 68.9786 124.664C68.0419 122.166 67.0021 119.702 65.9997 117.229C65.5595 116.143 65.1223 115.056 64.6602 113.979C64.5447 113.71 64.4603 113.376 64.0326 113.286C63.5111 113.698 63.3456 114.347 63.0615 114.916C62.6493 115.228 62.3964 115.624 62.3964 116.158C62.2278 116.53 62.0591 116.898 61.8905 117.27C61.6064 117.985 60.9631 118.522 60.8663 119.331C60.7008 119.693 60.5354 120.055 60.3699 120.42C60.1357 120.527 59.992 120.655 60.2543 120.883C60.298 121.129 60.3449 121.376 60.3886 121.62C60.0607 121.604 59.6767 121.476 59.6392 122.013C59.0834 122.737 59.2333 123.552 59.3269 124.364C59.1739 124.361 59.0178 124.358 58.8648 124.355C58.8211 124.308 58.7868 124.239 58.7337 124.217C58.6931 124.202 58.6056 124.227 58.5807 124.264C58.4651 124.417 58.359 124.577 58.2622 124.739C57.2317 126.481 55.4394 126.865 53.669 125.844C52.1077 124.942 51.5019 122.828 51.9047 121.295C52.1171 120.486 52.3544 119.684 52.5823 118.878C52.9258 118.687 53.0164 118.4 52.9352 118.038ZM74.3743 48.3062C74.2088 48.5154 74.0558 48.6465 73.9777 48.8152C73.5749 49.6582 73.6218 49.83 74.3431 50.214C75.1424 50.6418 75.9418 51.0602 76.7474 51.4724C77.7091 51.9658 78.5866 52.634 79.5795 52.9431C80.0729 52.5903 80.0698 52.0875 80.2852 51.6972C80.4788 51.3413 80.3352 51.0602 80.0073 50.9041C78.1338 50.0298 76.2572 49.1711 74.3743 48.3062ZM78.4304 55.8658C76.6631 54.8884 74.774 54.0422 72.9348 53.0961C72.5945 52.9213 72.3135 53.068 72.1823 53.4458C72.1386 53.5676 72.1011 53.6925 72.0574 53.8143C71.792 54.5699 71.8482 54.6761 72.5414 54.979C74.0277 55.6253 75.514 56.2748 76.9878 56.9462C77.9152 57.3708 77.909 57.3896 78.343 56.3872C78.393 56.2748 78.3867 56.1374 78.4304 55.8658ZM79.2329 54.1765C79.286 53.755 79.1861 53.5551 78.9207 53.4209C77.2501 52.5715 75.5827 51.7097 73.9091 50.8666C73.7529 50.7886 73.525 50.7449 73.372 50.7979C73.0129 50.9197 73.0066 51.2913 72.9317 51.5973C72.8661 51.8721 72.913 52.1219 73.1784 52.2624C74.8926 53.1711 76.6069 54.0735 78.3274 54.9665C78.5834 55.1008 78.8395 55.0133 78.9831 54.7573C79.1018 54.5325 79.1861 54.2858 79.2329 54.1765Z" fill="#C1B28A"/>
<path d="M262.312 257.917C259.68 256.965 257.044 256.025 254.421 255.054C253.506 254.716 252.616 254.31 251.72 253.92C249.931 253.143 248.126 252.39 246.359 251.563C243.002 249.989 239.63 248.434 236.329 246.745C232.323 244.693 228.286 242.732 223.989 241.352C221.697 240.615 219.474 239.672 217.135 239.066C213.463 238.117 209.751 237.474 205.951 237.396C205.688 237.39 205.429 237.399 205.167 237.383C203.209 237.258 201.264 237.324 199.315 237.614C196.93 237.97 194.5 238.067 192.137 238.517C188.677 239.176 185.33 240.219 182.157 241.836C178.029 243.941 174.007 246.201 170.095 248.69C166.688 250.857 163.188 252.887 159.666 254.863C156.137 256.843 152.759 259.054 149.399 261.299C145.493 263.909 141.777 266.776 138.011 269.58C137.49 269.967 136.94 270.313 136.394 270.666C136.256 270.754 136.122 270.701 136.081 270.563C136.047 270.444 136.003 270.298 136.041 270.192C136.103 270.014 136.206 269.839 136.331 269.695C136.631 269.352 136.946 269.021 137.274 268.702C140.94 265.161 144.899 261.992 149.046 259.022C154.785 254.91 160.961 251.535 166.966 247.866C168.299 247.051 169.611 246.195 170.941 245.368C174.763 242.988 178.769 240.946 182.822 238.995C186.257 237.34 189.851 236.269 193.667 235.928C196.068 235.716 198.46 235.351 200.855 235.076C201.501 235.001 202.157 234.963 202.806 234.979C204.308 235.01 205.807 235.073 207.306 235.148C211.559 235.357 215.715 236.078 219.755 237.455C223.946 238.882 228.167 240.215 232.139 242.211C232.838 242.56 233.563 242.866 234.228 243.269C237.632 245.333 241.266 246.96 244.766 248.84C247.168 250.129 249.703 251.175 252.186 252.312C256.922 254.479 261.784 256.328 266.78 257.789C268.463 258.282 270.218 258.523 271.923 258.954C274.696 259.656 277.456 260.421 280.219 261.158C280.413 261.458 280.685 261.552 281.025 261.464L281.05 261.47C280.959 261.764 280.738 261.82 280.463 261.82C280.148 261.817 279.829 261.836 279.514 261.848L279.451 261.839C278.905 261.377 278.262 261.361 277.596 261.43L277.5 261.411C277.084 260.915 276.538 260.983 275.992 261.058L275.929 261.049C275.508 260.605 274.98 260.574 274.421 260.671L274.355 260.659C273.806 260.131 273.138 260.2 272.466 260.274L272.398 260.262C270.405 259.478 268.31 259.247 266.199 259.097C266.199 259.097 266.128 259.085 266.131 259.085C265.715 258.626 265.185 258.61 264.629 258.707L264.563 258.694C264.276 258.326 263.892 258.235 263.452 258.32L263.386 258.301C263.133 257.901 262.74 257.864 262.312 257.917Z" fill="#C1B28A"/>
<path d="M148.225 207.457C147.369 211.342 145.705 214.845 143.067 217.818C141.371 219.729 139.26 221.171 136.978 222.314C135.348 223.129 133.605 223.657 131.841 224.119C131.001 224.338 130.164 224.3 129.321 224.25C129.215 224.244 129.115 224.119 129.012 224.05C129.125 223.9 129.206 223.676 129.353 223.619C129.833 223.432 130.336 223.288 130.839 223.163C134.567 222.23 137.88 220.487 140.753 217.955C142.823 216.132 144.459 213.94 145.677 211.463C146.451 209.893 147.117 208.266 147.832 206.667C148.209 206.805 148.081 207.198 148.225 207.457Z" fill="#C1B28A"/>
<path d="M184.202 197.234C184.162 196.6 184.599 196.463 185.077 196.46C186.438 196.447 187.815 196.363 189.161 196.51C192.059 196.825 194.966 197.153 197.823 197.703C199.921 198.105 202.029 198.427 204.14 198.714C207.175 199.13 209.782 198.299 211.787 195.888C212.158 195.439 212.53 194.989 212.901 194.539C213.21 194.674 213.089 194.992 213.189 195.217C212.214 197.297 210.716 198.814 208.524 199.592C208.189 199.517 207.88 199.507 207.73 199.904L207.687 199.951C206.044 199.773 204.402 199.882 202.759 199.916C202.11 199.607 201.401 199.623 200.708 199.551C200.133 199.123 199.478 199.092 198.8 199.158C198.257 199.02 197.713 198.886 197.17 198.749C196.811 198.424 196.499 198.368 196.336 198.923C196.268 199.158 196.324 199.442 196.024 199.56L196.021 199.551C196.046 198.83 196.046 198.827 195.393 198.73C195.35 198.642 195.287 198.571 195.203 198.521C194.753 198.205 194.257 198.246 193.754 198.343L193.642 198.324C193.073 197.862 192.418 197.884 191.746 197.977L191.678 197.971C191.568 197.902 191.465 197.787 191.35 197.771C188.983 197.453 186.619 196.969 184.202 197.234Z" fill="#C1B28A"/>
<path d="M257.528 202.714C257.381 202.911 257.138 203.095 257.11 203.307C257.013 204.051 256.919 204.809 257.256 205.69C257.578 205.05 257.238 204.663 257.038 204.247C256.601 203.339 256.604 203.339 255.567 203.785C255.402 203.723 255.286 203.76 255.236 203.941C252.179 205.443 249.013 206.642 245.678 207.37C245.216 207.211 244.673 207.523 244.254 207.123C247.393 206.077 250.412 204.731 253.416 203.357C255.361 202.467 257.207 201.375 258.774 199.879C259.102 199.567 259.464 199.27 259.726 198.908C260.719 197.528 262.034 196.447 263.171 195.205C263.377 194.98 263.592 194.942 263.829 195.155C264.042 195.342 264.145 195.585 264.035 195.848C263.811 196.394 263.47 196.866 263.024 197.259C262.793 197.29 262.662 197.415 262.652 197.656L262.64 197.671C262.346 197.771 262.156 197.952 262.153 198.283L262.075 198.371C261.491 198.833 260.95 199.326 260.757 200.085C260.747 200.31 260.735 200.538 260.726 200.763C260.41 200.772 260.029 200.535 259.839 201.003L259.726 201.103C259.536 201.065 259.43 201.131 259.433 201.337C259.405 201.403 259.358 201.45 259.296 201.478C258.73 201.924 257.962 202.08 257.528 202.714Z" fill="#C1B28A"/>
<path d="M176.861 186.718C176.602 187.451 176.296 188.173 176.087 188.922C175.034 192.694 172.518 195.339 169.458 197.562C168.04 198.592 166.635 199.651 165.017 200.363C164.683 200.294 164.418 200.379 164.246 200.688L164.165 200.71C163.662 200.738 163.16 200.766 162.657 200.8C162.323 200.822 162.029 200.775 161.92 200.394C163.728 200.169 165.205 199.245 166.607 198.168C168.721 196.544 170.713 194.789 172.518 192.822C173.551 191.698 174.191 190.368 174.828 189.019C175.381 187.848 175.809 186.615 176.558 185.544C176.674 185.69 176.789 185.837 176.902 185.981C176.892 186.224 176.877 186.471 176.861 186.718Z" fill="#C1B28A"/>
<path d="M75.6954 225.452C71.8578 220.759 68.573 215.698 65.7096 210.361C65.3443 209.68 65.0664 208.947 64.7885 208.222C64.7354 208.082 64.826 207.788 64.9446 207.707C65.107 207.601 65.3224 207.745 65.388 207.941C66.05 209.93 67.2428 211.648 68.2763 213.437C70.5245 217.324 73.1006 220.99 75.7891 224.581C75.8047 224.803 75.9358 224.928 76.1357 224.996L76.1513 225.021C76.067 225.237 75.9421 225.409 75.6954 225.452Z" fill="#C1B28A"/>
<path d="M102.97 218.149C102.783 218.255 102.595 218.274 102.43 218.117C101.955 217.671 101.481 217.224 101.015 216.769C100.472 216.235 100.478 216.228 101.003 215.373C101.153 215.129 101.168 214.87 101 214.648C100.25 213.665 99.4886 212.687 98.7235 211.71C98.6049 211.557 98.4425 211.432 98.3426 211.27C98.2926 211.182 98.2989 211.014 98.3488 210.923C98.4675 210.72 98.6642 210.736 98.8578 210.82C99.3605 211.042 99.6478 211.482 99.9663 211.894C100.881 213.084 101.812 214.261 102.717 215.457C104.45 217.755 106.43 219.835 108.394 221.927C109.221 222.808 109.977 223.732 110.458 224.734C107.844 222.739 105.752 220.091 103.395 217.705C103.282 217.555 103.186 217.384 103.045 217.259C102.97 217.193 102.798 217.162 102.708 217.203C102.467 217.306 102.545 217.524 102.627 217.683C102.714 217.855 102.855 217.996 102.97 218.149Z" fill="#C1B28A"/>
<path d="M167.128 227.476C167.128 227.316 167.1 227.213 167.131 227.191C169.501 225.384 171.259 223.048 172.802 220.547C174.582 217.665 176.277 214.733 178.01 211.823C178.273 211.385 178.416 210.848 178.95 210.617C179.234 210.929 178.997 211.201 178.875 211.467C176.98 215.632 174.672 219.56 171.99 223.263C171.069 224.531 170.042 225.718 168.814 226.708C168.334 227.098 167.856 227.551 167.128 227.476Z" fill="#C1B28A"/>
<path d="M148.225 207.457C148.081 207.198 148.209 206.805 147.828 206.664C148.044 205.222 148.818 204.001 149.511 202.78C149.78 202.305 149.836 201.962 149.646 201.546C149.293 200.781 148.89 200.038 148.509 199.282C147.135 196.557 145.774 193.821 144.625 190.989C144.553 190.811 144.468 190.627 144.443 190.44C144.428 190.34 144.503 190.159 144.578 190.13C144.675 190.096 144.878 190.143 144.921 190.221C145.205 190.727 145.474 191.245 145.724 191.773C147.835 196.235 149.942 200.7 152.044 205.168C152.428 205.983 152.768 206.817 153.149 207.695C152.453 207.507 152.459 206.851 152.15 206.442C151.841 206.03 151.616 205.553 151.382 205.09C151.026 204.397 150.717 203.679 150.342 202.998C150.201 202.742 150.014 202.405 149.596 202.542C149.221 202.664 149.143 203.008 149.143 203.323C149.143 204.51 148.827 205.637 148.571 206.777C148.515 207.014 148.343 207.229 148.225 207.457Z" fill="#C1B28A"/>
<path d="M202.759 199.913C204.402 199.879 206.047 199.77 207.687 199.948C207.73 202.861 208.236 205.762 207.874 208.956C207.49 207.42 207.396 206.093 207.296 204.769C207.196 203.47 207.118 202.168 206.997 200.872C206.937 200.232 206.8 200.132 206.119 200.11C205.47 200.088 204.817 200.107 204.192 200.107C203.73 200.569 203.927 201.112 203.915 201.606C203.852 204.341 203.821 207.076 203.749 209.812C203.73 210.499 203.618 211.179 203.509 212.228C203.121 210.736 203.125 209.59 203.121 208.447C203.115 206.427 203.159 204.407 203.131 202.386C203.125 201.556 203.243 200.685 202.759 199.913Z" fill="#C1B28A"/>
<path d="M73.3535 180.523C71.3364 181.793 69.6846 183.355 68.0609 184.944C64.7978 188.138 61.5411 191.342 58.2812 194.543C58.0501 194.771 57.8097 194.992 57.5349 195.251C57.282 194.783 57.6941 194.571 57.8846 194.321C59.0087 192.872 60.3889 191.664 61.6816 190.371C63.7112 188.341 65.7408 186.312 67.8048 184.319C68.7416 183.414 69.7533 182.583 70.7525 181.747C71.4831 181.135 72.3137 180.704 73.3535 180.523Z" fill="#C1B28A"/>
<path d="M99.5916 246.592C97.9429 248.802 95.7759 250.301 93.1967 251.213C90.9828 251.997 88.694 252.465 86.3553 252.69C85.9213 252.73 85.4248 252.849 85.1562 252.234C87.8322 251.728 90.5644 251.653 93.1343 250.604C95.6791 249.564 97.7118 247.909 99.576 245.97C99.5791 246.179 99.5853 246.386 99.5916 246.592Z" fill="#C1B28A"/>
<path d="M83.867 205.549C82.899 203.863 81.9216 202.18 80.963 200.488C79.2675 197.49 77.5095 194.53 75.5267 191.71C75.38 191.501 75.2582 191.27 75.1708 191.033C75.1396 190.945 75.2082 190.767 75.2894 190.708C75.3675 190.652 75.5611 190.643 75.6267 190.702C75.8702 190.914 76.1138 191.139 76.2949 191.401C76.96 192.363 77.6188 193.328 78.2433 194.315C80.3729 197.662 82.2433 201.147 83.8264 204.788C83.9263 205.019 83.9825 205.265 84.0574 205.506C83.995 205.521 83.9294 205.537 83.867 205.549Z" fill="#C1B28A"/>
<path d="M75.0582 255.55C74.6367 254.532 74.1902 253.524 73.803 252.49C73.0411 250.457 71.917 248.643 70.5368 246.982C70.3276 246.732 70.1153 246.485 69.9154 246.229C69.1536 245.261 68.9162 244.609 69.2847 244.603C69.9748 244.596 70.2152 245.23 70.6149 245.617C72.9287 247.85 74.2932 250.617 75.1238 253.683C75.2986 254.323 75.4111 254.947 75.2299 255.6L75.1613 255.506L75.0582 255.55Z" fill="#C1B28A"/>
<path d="M59.0146 229.808C58.8398 229.83 58.7679 229.758 58.8085 229.583C59.2956 229.352 59.2082 228.99 58.9771 228.653C58.6618 228.194 58.3776 227.604 57.6376 228.022L57.6251 228.075C57.7594 227.953 57.9561 227.885 57.9092 227.629C57.7906 226.97 57.4378 226.43 57.0787 225.883C56.9413 225.674 56.8695 225.421 56.7851 225.181C56.7695 225.14 56.8195 225.037 56.8632 225.018C56.9694 224.974 57.1193 224.909 57.1942 224.953C57.3566 225.053 57.5064 225.193 57.6157 225.349C59.8858 228.525 62.1559 231.7 64.4134 234.885C64.9286 235.613 65.3939 236.378 65.9809 237.052C64.632 235.541 63.2893 234.027 61.931 232.525C61.8124 232.394 61.6157 232.319 61.4377 232.269C61.166 232.194 61.1629 232.456 61.0786 232.609L61.1317 232.531C61.2472 232.475 61.4627 232.409 61.4595 232.365C61.3752 231.56 60.9787 230.967 60.1949 230.689C60.1668 230.679 60.0638 230.889 59.9951 230.995C59.9951 230.995 59.967 230.963 59.9701 230.963C60.0825 230.835 60.3292 230.81 60.2761 230.551C60.1762 230.07 59.8671 229.771 59.4486 229.565C59.1895 229.44 59.1551 229.721 59.0146 229.808Z" fill="#C1B28A"/>
<path d="M101.009 183.077C104.6 187.186 108.794 189.893 113.493 192.447C112.397 192.554 111.794 192.176 111.192 191.863C107.876 190.149 104.747 188.163 102.193 185.394C101.687 184.847 101.037 184.341 101.009 183.077Z" fill="#C1B28A"/>
<path d="M133.689 254.064C129.177 251.163 125.106 247.7 121.065 244.197C120.84 244.003 120.528 243.822 120.619 243.304C121.29 243.472 121.699 243.991 122.174 244.375C124.497 246.273 126.801 248.2 129.118 250.104C129.924 250.766 130.773 251.378 131.563 252.059C132.297 252.693 132.981 253.386 133.686 254.054L133.689 254.064Z" fill="#C1B28A"/>
<path d="M54.0002 258.857C52.7075 258.535 51.8831 257.683 50.9901 256.952C48.3703 254.81 45.8099 252.599 43.2307 250.414C43.0808 250.289 42.9372 250.154 42.7967 250.02C42.2565 249.496 42.0597 248.98 42.372 248.918C42.8653 248.818 43.0184 249.261 43.2869 249.496C46.3813 252.181 49.4663 254.879 52.5514 257.577C53.0354 257.998 53.5162 258.429 54.0002 258.857Z" fill="#C1B28A"/>
<path d="M46.7091 256.799C46.8558 256.39 46.5249 256.228 46.3 256.022C45.4819 255.278 44.642 254.557 43.8364 253.805C43.4648 253.458 43.1494 253.052 42.7935 252.659C43.265 252.29 43.4429 252.681 43.649 252.84C45.9066 254.592 48.1361 256.384 50.4155 258.111C51.5771 258.991 52.8916 259.662 53.8471 260.724C52.7667 260.481 51.7363 259.9 50.7496 259.253C49.663 258.541 48.6138 257.773 47.5428 257.04C47.2961 256.871 47.0744 256.565 46.7028 256.793L46.7091 256.799Z" fill="#C1B28A"/>
<path d="M75.6953 225.452C75.942 225.409 76.0669 225.237 76.1543 225.021C76.2605 225.09 76.3948 225.134 76.4697 225.227C78.9989 228.266 81.525 231.304 84.0449 234.348C84.2479 234.592 84.4165 234.863 84.6569 235.198C84.123 235.263 83.92 234.892 83.6889 234.67C80.8225 231.935 78.2464 228.943 75.8296 225.808C75.7578 225.711 75.739 225.571 75.6953 225.452Z" fill="#C1B28A"/>
<path d="M63.7517 225.846C62.3248 224.762 61.2163 223.423 60.1515 222.052C58.9899 220.559 57.8846 219.02 56.801 217.471C56.392 216.89 56.0954 216.228 55.7862 215.582C55.7175 215.442 55.7519 215.129 55.8549 215.051C56.1172 214.858 56.3295 215.076 56.4513 215.298C58.1843 218.461 60.5605 221.174 62.5964 224.125C62.9867 224.697 63.3646 225.271 63.7517 225.846Z" fill="#C1B28A"/>
<path d="M154.969 204.438C152.209 201.165 150.367 197.281 148.275 193.543C148.103 193.234 147.912 192.85 148.175 192.463C148.287 192.516 148.456 192.535 148.499 192.619C150.663 196.56 152.818 200.5 154.969 204.438Z" fill="#C1B28A"/>
<path d="M123.838 170.69C126.18 173.122 127.963 175.979 129.33 179.089C129.668 179.854 129.867 180.682 130.108 181.484C130.136 181.578 130.055 181.781 129.977 181.812C129.889 181.846 129.699 181.775 129.64 181.687C129.496 181.478 129.368 181.247 129.287 181.006C128.269 178.031 126.695 175.342 125.043 172.691C124.634 172.032 124.241 171.358 123.838 170.69Z" fill="#C1B28A"/>
<path d="M83.0676 230.323C82.8709 230.195 82.7335 230.152 82.6617 230.058C80.5228 227.201 78.3526 224.366 76.5822 221.256C76.3917 220.921 76.2387 220.562 76.1044 220.2C76.067 220.103 76.1107 219.91 76.1887 219.844C76.3761 219.685 76.5353 219.835 76.6228 219.991C78.4151 223.16 80.6352 226.046 82.6648 229.059C82.8709 229.362 83.1394 229.677 83.0676 230.323Z" fill="#C1B28A"/>
<path d="M227.205 216.868C226.512 216.497 226.306 215.847 226.138 215.235C225.435 212.706 225.098 210.127 225.273 207.498C225.288 207.245 225.369 206.986 225.469 206.752C225.544 206.58 225.71 206.424 225.931 206.511C226.022 206.549 226.091 206.67 226.147 206.764C226.175 206.814 226.166 206.892 226.163 206.955C225.997 209.905 226.278 212.809 227.024 215.673C227.124 216.05 227.143 216.447 227.205 216.868Z" fill="#C1B28A"/>
<path d="M260.757 200.082C260.95 199.32 261.494 198.83 262.075 198.368C262.034 199.445 262.608 200.338 262.98 201.281C263.583 202.798 264.401 204.207 265.256 205.596C265.765 206.421 266.38 207.204 266.512 208.213L266.521 208.225C264.41 206.486 263.299 204.085 262.187 201.684C261.971 201.218 261.843 200.713 261.669 200.229C261.456 199.623 261.088 199.963 260.757 200.082Z" fill="#C1B28A"/>
<path d="M124.847 243.622C128.103 246.158 131.388 248.646 134.72 251.65C133.815 251.581 133.443 251.216 133.059 250.923C127.869 246.994 125.665 245.08 124.847 243.622Z" fill="#C1B28A"/>
<path d="M64.7355 230.907C62.3624 228.743 60.3889 226.23 58.4186 223.713C58.0596 223.254 57.791 222.729 57.4913 222.227C57.4163 222.102 57.4881 221.989 57.6443 221.949C57.7036 221.933 57.7879 221.933 57.8347 221.964C57.994 222.077 58.1688 222.18 58.2844 222.33C60.2859 224.903 62.2843 227.479 64.2671 230.067C64.4607 230.32 64.5731 230.639 64.723 230.926L64.7355 230.907Z" fill="#C1B28A"/>
<path d="M225.391 197.1C225.042 197.5 225.404 197.865 225.451 198.243C223.971 197.147 222.768 195.879 222.506 193.934C222.441 193.44 222.106 192.991 221.953 192.504C221.663 191.595 221.145 190.755 221.142 189.759C221.254 189.909 221.419 190.043 221.466 190.212C221.585 190.627 221.844 190.658 222.188 190.549C222.747 191.929 223.359 193.294 223.849 194.699C224.18 195.639 224.701 196.413 225.391 197.1Z" fill="#C1B28A"/>
<path d="M108.616 219.573C106.246 216.931 103.873 214.289 101.503 211.645C101.287 211.404 101.066 211.164 100.878 210.901C100.832 210.836 100.869 210.636 100.935 210.583C100.997 210.533 101.178 210.555 101.259 210.614C101.518 210.805 101.775 211.011 102.002 211.239C104.516 213.768 106.83 216.463 108.616 219.573Z" fill="#C1B28A"/>
<path d="M51.8018 250.829C49.0259 248.187 46.2531 245.546 43.4585 242.885C43.6177 242.776 43.6646 242.717 43.7177 242.71C43.7739 242.704 43.8488 242.735 43.8956 242.776C44.4796 243.297 45.0697 243.809 45.6349 244.35C47.7863 246.417 49.9283 248.496 52.0735 250.57C51.9829 250.657 51.8924 250.745 51.8018 250.829Z" fill="#C1B28A"/>
<path d="M198.803 199.158C199.478 199.092 200.137 199.123 200.711 199.551C200.243 199.629 199.852 199.717 199.924 200.375C200.155 202.439 200.339 204.507 200.539 206.574C200.583 207.023 200.608 207.473 200.477 207.988C200.346 207.638 200.183 207.295 200.093 206.933C199.528 204.725 199.34 202.461 199.14 200.201C199.106 199.823 199.219 199.404 198.803 199.158Z" fill="#C1B28A"/>
<path d="M110.942 218.608C109.668 217.075 108.388 215.551 107.124 214.015C106.508 213.265 105.915 212.5 105.325 211.729C105.269 211.654 105.269 211.454 105.328 211.392C105.481 211.223 105.7 211.267 105.831 211.42C107.648 213.527 109.459 215.641 110.933 218.014C111.024 218.152 111.239 218.302 110.942 218.608Z" fill="#C1B28A"/>
<path d="M57.2785 236.044C55.0802 234.308 53.0194 232.419 51.0022 230.48C50.8243 230.308 50.7056 230.074 50.5713 229.861C50.5464 229.821 50.5807 229.736 50.5963 229.674C50.6431 229.521 50.768 229.433 50.9023 229.508C51.1802 229.665 51.4675 229.827 51.6986 230.042C53.7126 231.891 55.711 233.758 57.266 236.031L57.2785 236.044Z" fill="#C1B28A"/>
<path d="M265.038 191.361C265.309 191.504 265.493 191.539 265.518 191.623C266.405 194.524 267.273 197.428 268.057 200.372C267.289 199.592 267.058 198.549 266.705 197.578C266.349 196.603 266.034 195.61 265.79 194.602C265.537 193.562 265.15 192.541 265.038 191.361Z" fill="#C1B28A"/>
<path d="M50.3406 252.415C50.1283 252.293 49.891 252.2 49.7036 252.044C47.9051 250.551 46.1096 249.058 44.3298 247.541C43.7896 247.079 43.2869 246.567 42.9372 245.93C42.8591 245.789 42.8716 245.646 43.009 245.599C43.1058 245.567 43.2775 245.589 43.3431 245.658C45.4633 247.862 47.9144 249.699 50.1314 251.794C50.2719 251.928 50.3875 252.087 50.5155 252.234C50.4562 252.296 50.4 252.356 50.3406 252.415Z" fill="#C1B28A"/>
<path d="M56.3732 211.154C56.6667 211.157 56.8291 211.348 56.9758 211.557C58.7338 214.077 60.5293 216.575 62.0999 219.223C60.0047 217.103 58.3404 214.655 56.7073 212.188C56.5075 211.882 56.2452 211.576 56.3732 211.154Z" fill="#C1B28A"/>
<path d="M190.803 207.014C190.166 206.243 189.82 205.478 189.526 204.688C189.011 203.289 188.533 201.874 188.021 200.475C187.865 200.044 187.7 199.626 187.731 199.158C187.743 198.973 187.746 198.758 187.984 198.742C188.077 198.736 188.187 198.855 188.277 198.933C188.321 198.973 188.343 199.042 188.365 199.105C189.067 201.259 189.773 203.414 190.463 205.571C190.597 205.999 190.669 206.446 190.803 207.014Z" fill="#C1B28A"/>
<path d="M77.4345 199.023C75.6797 197.062 74.1091 194.927 72.8007 192.6C72.7102 192.438 72.6852 192.235 72.6508 192.045C72.6415 191.998 72.7039 191.904 72.7539 191.892C72.8663 191.857 73.0006 191.82 73.1005 191.857C73.2129 191.898 73.3191 192.001 73.3909 192.104C74.8647 194.311 76.3292 196.528 77.4345 199.023Z" fill="#C1B28A"/>
<path d="M50.9149 245.967C48.4138 244.05 46.0719 241.952 43.5396 239.566C45.4099 240.553 47.4427 242.348 50.9149 245.967Z" fill="#C1B28A"/>
<path d="M229.116 215.504C228.164 212.759 228.161 209.946 228.095 206.717C228.913 208.7 229.279 211.869 229.116 215.504Z" fill="#C1B28A"/>
<path d="M100.023 204.25C99.3766 204.119 98.6428 204.391 98.0932 203.826C98.3992 203.801 98.8083 203.882 98.7646 203.382C98.6428 201.962 98.4898 200.544 98.3493 199.126C98.265 198.29 98.1807 197.453 98.062 196.288C98.827 197.959 98.9457 199.454 99.2236 200.906C99.3828 201.734 99.4703 202.574 99.5858 203.41C99.6358 203.745 99.7669 204.029 100.023 204.25Z" fill="#C1B28A"/>
<path d="M99.6982 196.204C100.557 198.283 100.816 200.466 101.231 202.611C101.275 202.836 101.297 203.158 100.941 203.198C100.607 203.232 100.491 202.936 100.454 202.702C100.126 200.538 99.4453 198.421 99.6982 196.204Z" fill="#C1B28A"/>
<path d="M146.251 200.719C145.289 199.532 144.862 198.077 144.278 196.706C143.847 195.692 143.528 194.627 143.182 193.578C143.113 193.365 143.01 193.034 143.391 193C143.513 192.991 143.731 193.206 143.778 193.359C144.506 195.648 145.533 197.837 146.079 200.185C146.123 200.372 146.189 200.553 146.245 200.738L146.251 200.719Z" fill="#C1B28A"/>
<path d="M192.87 206.218C192.327 205.718 192.049 205.059 191.818 204.385C191.256 202.733 190.713 201.075 190.185 199.411C190.138 199.261 190.207 198.948 190.31 198.898C190.553 198.78 190.8 198.892 190.928 199.164C191.012 199.339 191.115 199.51 191.172 199.695C191.709 201.487 192.246 203.282 192.755 205.084C192.858 205.449 192.833 205.852 192.867 206.236L192.87 206.218Z" fill="#C1B28A"/>
<path d="M43.6801 212.828C42.9901 210.296 43.9268 208.154 45.307 206.13C45.741 205.493 46.2687 204.925 46.7527 204.322C46.8776 204.453 47.0025 204.585 47.1274 204.713C46.6965 205.337 46.2624 205.958 45.8378 206.589C45.4849 207.111 45.054 207.598 45.0072 208.269L45.079 208.375C44.264 209.037 44.2235 209.996 44.1048 210.926C43.83 211.045 43.8206 211.289 43.8019 211.538C43.7738 211.969 43.7207 212.397 43.6801 212.828Z" fill="#C1B28A"/>
<path d="M91.3672 226.645C91.4546 227.582 92.1041 228.287 92.3851 229.146C92.9284 230.81 93.478 232.475 94.0182 234.142C94.0963 234.38 94.1493 234.636 93.9214 234.845C93.5654 234.739 93.4312 234.429 93.3375 234.123C92.6193 231.769 91.7138 229.462 91.5514 226.967C91.5452 226.851 91.4328 226.742 91.3672 226.629V226.645Z" fill="#C1B28A"/>
<path d="M43.68 212.828C43.7237 212.4 43.7737 211.969 43.8049 211.541C43.8236 211.292 43.833 211.048 44.1078 210.929C44.2296 210.942 44.4294 211.004 44.4669 210.954C44.9509 210.261 45.1882 209.465 45.3443 208.644C45.3568 208.575 45.1757 208.469 45.0851 208.378C45.0851 208.378 45.0164 208.272 45.0133 208.272C45.1351 208.3 45.2662 208.372 45.3787 208.347C45.7534 208.263 46.05 208.266 45.897 208.772C45.5785 209.824 45.3849 210.954 44.8572 211.891C44.4107 212.684 44.42 213.309 44.7323 214.058C44.7666 214.146 44.7136 214.336 44.6355 214.389C44.4513 214.52 44.2546 214.408 44.1578 214.255C43.8892 213.821 43.602 213.381 43.68 212.828Z" fill="#C1B28A"/>
<path d="M115.064 217.543C113.331 216.363 111.879 215.132 110.736 213.571C110.583 213.362 110.445 213.14 110.314 212.915C110.208 212.731 110.214 212.525 110.389 212.397C110.561 212.272 110.761 212.316 110.886 212.491C111.264 213.018 111.585 213.587 112.004 214.08C112.959 215.207 113.961 216.3 115.064 217.543Z" fill="#C1B28A"/>
<path d="M62.275 212.722C60.9729 211.095 59.6739 209.465 58.3749 207.838C58.25 207.679 58.147 207.457 58.3562 207.348C58.4655 207.289 58.7465 207.382 58.8464 207.498C60.2297 209.056 61.385 210.783 62.275 212.722Z" fill="#C1B28A"/>
<path d="M44.667 236.334C46.5061 237.38 47.9862 238.801 49.5131 240.365C48.6388 240.237 48.6263 240.253 46.859 238.695C46.0503 237.983 45.126 237.377 44.667 236.334Z" fill="#C1B28A"/>
<path d="M112.013 189.99C109.743 188.96 108.125 187.698 106.53 185.974C107.916 186.568 110.161 188.216 112.013 189.99Z" fill="#C1B28A"/>
<path d="M182.594 177.697C183.65 179.442 184.818 181.128 185.726 182.961C185.411 183.127 185.22 183.042 185.102 182.905C183.859 181.475 182.922 179.851 182.182 178.112C182.32 177.975 182.457 177.834 182.594 177.697Z" fill="#C1B28A"/>
<path d="M99.514 172.413C98.2806 173.697 96.9598 174.902 96.0074 176.429C95.87 176.445 95.7326 176.46 95.5952 176.476C96.2603 174.59 97.6842 173.325 99.158 172.098C99.2767 172.201 99.3953 172.307 99.514 172.413Z" fill="#C1B28A"/>
<path d="M259.836 201.003C260.026 200.532 260.407 200.772 260.723 200.763C261.297 201.487 261.416 202.399 261.731 203.229C262.446 205.112 262.556 205.968 262.353 205.83C261.481 205.24 261.444 204.175 261.01 203.336C260.776 202.883 260.698 202.355 260.52 201.874C260.389 201.515 260.276 201.125 259.836 201.003Z" fill="#C1B28A"/>
<path d="M231.936 214.43C231.283 214.021 231.302 213.474 231.259 212.975C231.19 212.2 231.193 211.417 231.105 210.645C230.928 209.1 230.99 208.741 231.268 208.95C231.874 209.406 231.646 210.121 231.705 210.727C231.817 211.922 231.858 213.125 231.936 214.43Z" fill="#C1B28A"/>
<path d="M101.577 169.822C102.686 168.438 104.135 167.47 105.599 166.515C105.996 166.256 106.411 166.109 106.898 166.184C105.112 167.389 103.329 168.591 101.549 169.794L101.577 169.822Z" fill="#C1B28A"/>
<path d="M279.517 261.858C279.832 261.848 280.151 261.826 280.466 261.829C280.741 261.833 280.963 261.773 281.053 261.48C282.521 261.683 283.867 262.273 285 262.776C283.298 262.632 281.372 262.463 279.517 261.858Z" fill="#C1B28A"/>
<path d="M92.5161 225.896C92.5817 225.908 92.6785 225.896 92.7035 225.933C93.6933 227.332 94.1773 228.928 94.5114 230.579C94.5301 230.667 94.4115 230.857 94.3365 230.87C94.2397 230.885 94.0555 230.795 94.0243 230.707C93.7433 229.914 93.4778 229.115 93.2312 228.309C92.9814 227.501 92.7565 226.686 92.5224 225.871L92.5161 225.896Z" fill="#C1B28A"/>
<path d="M46.7029 256.79C46.603 256.858 46.5093 256.974 46.4032 256.983C46.1159 257.015 46.8965 257.929 46.0441 257.424C45.2697 256.965 44.5172 256.462 43.7678 255.959C43.4524 255.75 42.6281 255.831 42.9996 255.21C43.2182 254.844 43.7928 255.316 44.1331 255.572C44.7514 256.037 45.3353 256.549 45.9566 257.005C46.2408 257.214 46.5562 257.221 46.7092 256.799L46.7029 256.79Z" fill="#C1B28A"/>
<path d="M234.185 208.491C234.185 209.246 234.194 209.765 234.175 210.28C234.172 210.371 234.047 210.483 233.953 210.539C233.829 210.611 233.707 210.536 233.694 210.367C233.604 209.15 233.516 207.932 233.451 206.711C233.448 206.633 233.61 206.533 233.71 206.467C233.832 206.389 233.96 206.449 233.982 206.614C234.066 207.32 234.135 208.026 234.185 208.491Z" fill="#C1B28A"/>
<path d="M151.987 223.997C151.11 223.267 150.613 222.324 150.257 221.29C150.167 221.025 150.27 220.781 150.557 220.678C150.795 220.591 150.885 220.756 150.969 220.94C151.313 221.699 151.672 222.448 152.009 223.207C152.106 223.426 152.256 223.663 151.987 223.997Z" fill="#C1B28A"/>
<path d="M50.228 237.193C48.6324 236.088 47.324 234.695 46.1094 233.193C46.4653 232.89 46.6433 233.168 46.8026 233.327C47.7674 234.283 48.7198 235.251 49.669 236.222C49.9407 236.5 50.2061 236.79 50.203 237.218L50.228 237.193Z" fill="#C1B28A"/>
<path d="M135.329 248.849C134.492 248.781 134.086 248.356 133.649 248.044C132.977 247.563 132.344 247.026 131.71 246.495C131.647 246.442 131.641 246.239 131.691 246.158C131.738 246.083 131.947 246.011 132 246.051C132.768 246.623 133.53 247.201 134.273 247.803C134.601 248.069 134.876 248.393 135.329 248.849Z" fill="#C1B28A"/>
<path d="M148.356 224.572C149.149 225.927 149.886 227.185 150.67 228.522C149.577 227.944 149.568 227.95 148.747 226.467C148.453 225.933 147.963 225.418 148.356 224.572Z" fill="#C1B28A"/>
<path d="M74.874 46.6544C74.9521 46.3421 75.1894 46.2891 75.4611 46.2984C75.7171 46.3047 75.9794 46.3359 76.0793 46.008C77.3033 46.2797 78.3119 46.9198 79.0988 47.791C78.0465 47.6598 77.0098 47.204 75.9669 46.7855C75.6078 46.6419 75.2706 46.4233 74.874 46.6544Z" fill="#C1B28A"/>
<path d="M196.027 199.56C196.327 199.442 196.271 199.158 196.34 198.923C196.502 198.368 196.814 198.424 197.173 198.749C196.699 198.952 196.764 199.342 196.839 199.726C197.048 200.788 197.376 201.84 197.011 203.101C196.34 201.927 196.093 200.769 196.027 199.56Z" fill="#C1B28A"/>
<path d="M244.254 207.123C244.676 207.523 245.216 207.211 245.678 207.37C244.092 208.004 242.409 207.991 240.754 208.141C240.938 208.072 241.116 207.991 241.303 207.938C242.287 207.663 243.271 207.395 244.254 207.123Z" fill="#C1B28A"/>
<path d="M109.037 165.129C109.927 164.048 111.067 163.536 112.472 163.62C111.329 164.123 110.183 164.626 109.037 165.129Z" fill="#C1B28A"/>
<path d="M114.492 189.2C113.98 189.394 113.774 189.209 113.565 189.078C111.807 187.979 110.905 187.002 111.307 187.033C112.4 187.117 113.018 188.066 113.862 188.613C114.068 188.747 114.233 188.956 114.492 189.2Z" fill="#C1B28A"/>
<path d="M163.656 203.311C163.94 204.887 164.343 206.049 164.227 207.279C164.212 207.439 164.243 207.698 163.959 207.648C163.865 207.632 163.731 207.485 163.728 207.395C163.687 206.189 163.441 204.987 163.656 203.311Z" fill="#C1B28A"/>
<path d="M257.528 202.714C257.959 202.08 258.73 201.927 259.293 201.478C259.086 201.918 259.146 202.352 259.286 202.798C259.474 203.389 259.633 203.991 259.864 204.787C259.04 204.307 258.868 203.654 258.637 203.076C258.387 202.455 257.959 202.636 257.528 202.714Z" fill="#C1B28A"/>
<path d="M99.592 246.592C99.5857 246.386 99.5795 246.179 99.5732 245.97C100.023 244.809 101.022 244.075 101.85 242.876C101.334 244.703 101.016 245.202 99.592 246.592Z" fill="#C1B28A"/>
<path d="M108.344 231.335C107.354 231.095 106.38 230.686 105.493 230.067C105.409 230.008 105.331 229.824 105.359 229.733C105.428 229.515 105.637 229.502 105.809 229.593C106.711 230.077 107.582 230.604 108.344 231.335Z" fill="#C1B28A"/>
<path d="M194.56 203.763C193.913 202.386 193.47 201.4 193.551 200.272C193.567 200.079 193.66 199.879 193.907 199.916C194.01 199.932 194.135 200.041 194.185 200.141C194.457 200.681 194.413 201.278 194.429 201.859C194.441 202.355 194.232 202.852 194.56 203.763Z" fill="#C1B28A"/>
<path d="M211.206 204.097C210.828 203.086 210.7 202.037 210.669 200.972C210.665 200.897 210.821 200.766 210.915 200.756C210.996 200.747 211.156 200.856 211.174 200.937C211.399 201.983 211.334 203.036 211.206 204.097Z" fill="#C1B28A"/>
<path d="M255.236 203.941C255.286 203.763 255.402 203.723 255.567 203.785C256.151 204.997 256.086 206.302 256.136 207.592C255.698 207.423 255.639 207.029 255.586 206.639C255.467 205.743 255.355 204.841 255.236 203.941Z" fill="#C1B28A"/>
<path d="M151.322 226.049C149.92 225.256 149.118 224.244 148.958 223.207C148.943 223.095 149.011 222.951 149.083 222.854C149.105 222.823 149.324 222.873 149.364 222.939C149.982 223.903 150.585 224.875 151.322 226.049Z" fill="#C1B28A"/>
<path d="M236.779 211.111C236.782 211.079 236.776 211.404 236.732 211.726C236.71 211.882 236.726 212.175 236.442 212.069C236.305 212.016 236.167 211.794 236.148 211.632C236.067 210.92 236.027 210.205 235.977 209.493C235.958 209.234 235.942 208.972 235.961 208.716C235.967 208.628 236.098 208.481 236.161 208.488C236.273 208.497 236.395 208.588 236.476 208.675C236.707 208.928 236.773 209.25 236.776 209.581C236.782 209.971 236.779 210.361 236.779 211.111Z" fill="#C1B28A"/>
<path d="M184.202 197.234C186.619 196.972 188.983 197.453 191.359 197.774C191.475 197.79 191.578 197.906 191.687 197.974C190.332 198.165 189.039 197.662 187.7 197.603C186.629 197.556 185.573 197.231 184.496 197.612C184.33 197.668 184.177 197.459 184.202 197.234Z" fill="#C1B28A"/>
<path d="M176.774 185.066C177.061 184.042 177.792 183.286 178.351 182.421C178.01 183.592 177.87 184.822 177.183 185.865C177.064 185.593 177.261 185.156 176.774 185.066Z" fill="#C1B28A"/>
<path d="M51.196 234.326C49.9719 233.611 48.8822 232.728 47.9829 231.622C48.3888 231.301 48.6168 231.644 48.8041 231.832C49.6191 232.647 50.4029 233.493 51.196 234.326Z" fill="#C1B28A"/>
<path d="M165.418 203.585C165.546 204.079 165.692 204.569 165.795 205.069C165.989 206.027 165.883 206.605 165.642 206.421C165.208 206.086 165.211 205.537 165.149 205.065C165.087 204.591 165.18 204.097 165.208 203.61C165.277 203.601 165.346 203.595 165.418 203.585Z" fill="#C1B28A"/>
<path d="M80.8037 223.07C80.1542 221.883 79.4954 220.697 78.8615 219.501C78.7491 219.288 78.5242 219.092 78.6991 218.67C79.6327 220.088 80.2947 221.546 80.7912 223.085L80.8037 223.07Z" fill="#C1B28A"/>
<path d="M238.031 212.725C237.928 211.41 237.669 210.199 238.353 208.9C238.712 210.271 238.693 210.458 238.031 212.725Z" fill="#C1B28A"/>
<path d="M101.821 198.055C102.465 198.849 102.621 199.745 102.724 200.66C102.749 200.872 102.621 201.05 102.44 201.087C102.137 201.15 101.974 200.95 101.956 200.663C101.906 199.848 101.871 199.03 101.821 198.055Z" fill="#C1B28A"/>
<path d="M266.206 259.107C268.316 259.257 270.412 259.488 272.404 260.271C270.327 259.937 268.216 259.79 266.206 259.107Z" fill="#C1B28A"/>
<path d="M60.0952 107.906C59.9547 107.781 59.8173 107.659 59.6768 107.534C59.8266 106.341 60.6853 105.498 61.3098 104.183C61.11 105.055 61.0226 105.629 60.8446 106.173C60.651 106.772 60.6135 107.446 60.0952 107.906Z" fill="#C1B28A"/>
<path d="M63.5113 98.5567C63.352 99.2374 63.3302 99.634 63.1678 99.9618C62.9555 100.39 62.9617 100.97 62.4059 101.186C62.3591 101.205 62.256 101.18 62.2342 101.142C61.9 100.518 62.3684 100.074 62.6245 99.6058C62.79 99.303 63.071 99.0657 63.5113 98.5567Z" fill="#C1B28A"/>
<path d="M89.4122 32.6593C89.2374 32.2971 89.6495 31.7507 89.0625 31.5165C89.2686 30.6671 89.8587 30.0489 90.4177 29.2839C90.1085 30.4892 90.0523 31.657 89.4122 32.6593Z" fill="#C1B28A"/>
<path d="M116.341 165.825C117.571 166.228 118.252 167.158 119.004 168.145C118.514 168.164 118.339 167.783 118.08 167.589C117.721 167.321 117.406 166.99 117.09 166.668C116.825 166.399 116.587 166.106 116.341 165.825Z" fill="#C1B28A"/>
<path d="M114.48 167.455C114.445 168.285 115.376 168.491 115.572 169.178C115.32 169.456 115.126 169.203 114.967 169.057C114.445 168.582 113.943 168.089 113.449 167.583C113.396 167.53 113.462 167.364 113.474 167.249C113.58 167.264 113.699 167.258 113.793 167.302C114.017 167.408 114.217 167.598 114.495 167.464L114.48 167.455Z" fill="#C1B28A"/>
<path d="M99.5137 172.413C99.395 172.307 99.2764 172.201 99.1577 172.098C99.8572 171.227 100.469 170.259 101.578 169.822L101.546 169.794C101.184 170.908 100.404 171.705 99.5137 172.413Z" fill="#C1B28A"/>
<path d="M114.492 167.467C114.552 167.442 114.652 167.43 114.664 167.386C115.039 166.284 115.048 166.271 115.785 166.93C116.147 167.255 116.644 167.492 116.728 168.132C116.001 168.089 115.626 167.477 115.067 167.218C114.789 167.089 114.586 167.155 114.48 167.458L114.492 167.467Z" fill="#C1B28A"/>
<path d="M161.917 200.394C162.026 200.775 162.32 200.822 162.654 200.8C163.156 200.766 163.659 200.741 164.162 200.71C163.35 201.128 162.479 201.262 161.583 201.243C161.286 201.237 160.852 201.287 160.852 200.881C160.852 200.572 161.186 200.363 161.542 200.347C161.667 200.344 161.792 200.379 161.917 200.394Z" fill="#C1B28A"/>
<path d="M75.0581 255.55L75.1643 255.51L75.233 255.603C75.4391 255.603 75.6233 255.678 75.6483 255.89C75.7232 256.515 75.7701 257.143 75.8512 258.061C75.489 257.04 75.055 256.362 75.0581 255.55Z" fill="#C1B28A"/>
<path d="M168.496 204.884C167.756 203.894 167.678 203.058 167.853 201.949C168.596 202.858 168.671 203.695 168.496 204.884Z" fill="#C1B28A"/>
<path d="M97.9869 203.539C97.7434 203.667 97.6029 204.007 97.2438 203.891C97.4592 203.03 97.0033 202.14 97.3281 201.218C97.9526 202.258 97.9526 202.258 97.9869 203.539Z" fill="#C1B28A"/>
<path d="M107.08 228.075C106.324 228.381 105.887 228.247 105.453 228.116C104.963 227.966 104.588 227.547 104.781 227.385C105.106 227.11 105.393 227.357 105.671 227.457C106.08 227.601 106.468 227.8 107.08 228.075Z" fill="#C1B28A"/>
<path d="M47.1276 204.713C47.0027 204.581 46.8778 204.453 46.7529 204.322C46.8591 204.138 46.9621 203.954 47.0683 203.77C47.0683 203.77 46.9871 203.838 46.9902 203.838C47.3056 203.532 47.5585 203.111 48.0581 203.092C48.3673 203.08 48.2049 203.576 47.5804 204.363C47.4649 204.506 47.2806 204.597 47.1276 204.713Z" fill="#C1B28A"/>
<path d="M113.318 207.417C112.884 207.542 112.547 207.376 112.256 207.067C112.466 206.858 112.375 206.62 112.338 206.383C112.309 206.211 112.234 205.977 112.481 205.921C112.84 205.84 112.921 206.14 112.843 206.358C112.653 206.892 112.928 207.167 113.318 207.417Z" fill="#C1B28A"/>
<path d="M95.5949 176.473C95.7323 176.457 95.8697 176.441 96.004 176.426C95.8291 177.01 95.7261 177.637 95.0016 177.975C94.9017 177.306 95.1078 176.838 95.5949 176.473Z" fill="#C1B28A"/>
<path d="M213.192 195.214C213.092 194.989 213.21 194.671 212.901 194.536C213.157 194.015 213.267 193.353 214.06 193.368L214.038 193.344C213.96 194.059 213.682 194.686 213.192 195.214Z" fill="#C1B28A"/>
<path d="M182.594 177.697C182.457 177.834 182.319 177.975 182.185 178.112C181.779 177.843 181.651 177.412 181.545 176.978C181.52 176.879 181.595 176.697 181.679 176.647C181.751 176.607 181.916 176.679 182.016 176.744C182.357 176.966 182.522 177.306 182.594 177.697Z" fill="#C1B28A"/>
<path d="M104.735 224.522C104.962 224.5 105.565 224.815 105.493 224.903C105.428 224.984 105.275 225.015 105.159 225.024C104.891 225.043 104.666 224.959 104.619 224.653C104.613 224.612 104.694 224.565 104.735 224.522Z" fill="#C1B28A"/>
<path d="M191.752 197.977C192.424 197.884 193.08 197.862 193.648 198.324C192.97 198.455 192.371 198.177 191.752 197.977Z" fill="#C1B28A"/>
<path d="M272.473 260.287C273.144 260.212 273.812 260.143 274.362 260.671C273.703 260.684 273.088 260.474 272.473 260.287Z" fill="#C1B28A"/>
<path d="M277.6 261.439C278.262 261.37 278.908 261.386 279.454 261.848C278.774 261.995 278.196 261.67 277.6 261.439Z" fill="#C1B28A"/>
<path d="M193.76 198.343C194.263 198.246 194.756 198.205 195.206 198.521C194.719 198.521 194.216 198.621 193.76 198.343Z" fill="#C1B28A"/>
<path d="M264.635 258.716C265.191 258.62 265.718 258.635 266.137 259.094C265.581 259.188 265.131 258.851 264.635 258.716Z" fill="#C1B28A"/>
<path d="M195.397 198.73C196.049 198.827 196.049 198.827 196.024 199.551C195.893 199.445 195.775 199.32 195.631 199.242C195.409 199.123 195.278 198.989 195.397 198.73Z" fill="#C1B28A"/>
<path d="M274.424 260.68C274.983 260.58 275.507 260.615 275.932 261.058C275.367 261.177 274.927 260.815 274.424 260.68Z" fill="#C1B28A"/>
<path d="M275.995 261.068C276.544 260.993 277.091 260.921 277.503 261.42C277 261.302 276.497 261.186 275.995 261.068Z" fill="#C1B28A"/>
<path d="M262.312 257.917C262.739 257.864 263.133 257.901 263.392 258.31C262.961 258.37 262.636 258.145 262.312 257.917Z" fill="#C1B28A"/>
<path d="M146.248 200.741C146.251 200.853 146.248 200.969 146.267 201.081C146.276 201.131 146.329 201.218 146.36 201.215C146.498 201.209 146.545 201.112 146.47 200.984C146.414 200.888 146.326 200.809 146.254 200.719C146.251 200.719 146.248 200.741 146.248 200.741Z" fill="#C1B28A"/>
<path d="M75.2266 47.9908C74.4178 47.8753 74.4178 47.869 74.6271 47.1352C74.8269 47.4194 75.0267 47.7035 75.2266 47.9908Z" fill="#C1B28A"/>
<path d="M263.458 258.329C263.898 258.245 264.282 258.332 264.57 258.704C264.123 258.807 263.801 258.535 263.458 258.329Z" fill="#C1B28A"/>
<path d="M214.435 192.557C214.3 192.819 214.169 193.081 214.038 193.344L214.06 193.369C214.166 193.097 214.057 192.725 214.432 192.579L214.435 192.557Z" fill="#C1B28A"/>
<path d="M176.774 185.066C177.258 185.156 177.064 185.59 177.183 185.868V185.871C177.083 185.887 176.99 185.924 176.905 185.978C176.79 185.831 176.674 185.684 176.559 185.54C176.634 185.384 176.705 185.225 176.774 185.066Z" fill="#C1B28A"/>
<path d="M80.7881 223.089C80.838 223.154 80.8911 223.223 80.9411 223.291C80.8943 223.22 80.8505 223.145 80.8037 223.07C80.8037 223.07 80.7881 223.089 80.7881 223.089Z" fill="#C1B28A"/>
<path d="M192.868 206.233C192.83 206.399 192.877 206.486 193.002 206.461C193.024 206.455 193.058 206.339 193.036 206.305C193.008 206.258 192.93 206.243 192.874 206.214C192.871 206.218 192.868 206.233 192.868 206.233Z" fill="#C1B28A"/>
<path d="M164.247 200.688C164.418 200.379 164.687 200.291 165.018 200.363C164.809 200.578 164.59 200.784 164.247 200.688Z" fill="#C1B28A"/>
<path d="M207.733 199.901C207.883 199.504 208.192 199.514 208.527 199.588C208.261 199.692 207.996 199.798 207.733 199.901Z" fill="#C1B28A"/>
<path d="M225.563 198.34C225.875 198.324 226.081 198.461 226.172 198.764C225.866 198.77 225.691 198.589 225.563 198.34Z" fill="#C1B28A"/>
<path d="M176.908 185.981C176.992 185.924 177.086 185.89 177.186 185.874C177.258 186.224 177.164 186.511 176.864 186.718C176.877 186.471 176.892 186.224 176.908 185.981Z" fill="#C1B28A"/>
<path d="M214.432 192.579L214.588 192.369C214.313 192.244 214.422 192.441 214.432 192.557C214.435 192.557 214.432 192.579 214.432 192.579Z" fill="#C1B28A"/>
<path d="M262.153 198.283C262.153 197.952 262.343 197.771 262.64 197.671C262.64 198.002 262.412 198.152 262.153 198.283Z" fill="#C1B28A"/>
<path d="M92.5222 225.871C92.5285 225.814 92.5441 225.755 92.5347 225.699C92.5316 225.674 92.4567 225.633 92.4473 225.64C92.3474 225.727 92.3723 225.811 92.5129 225.893C92.516 225.896 92.5222 225.871 92.5222 225.871Z" fill="#C1B28A"/>
<path d="M281.028 261.477C280.688 261.564 280.416 261.467 280.223 261.171C280.566 261.077 280.81 261.246 281.028 261.477Z" fill="#C1B28A"/>
<path d="M91.3669 226.633C91.3357 226.536 91.3045 226.442 91.2764 226.345C91.1046 226.505 91.1546 226.598 91.3669 226.645V226.633Z" fill="#C1B28A"/>
<path d="M64.7227 230.923C64.7695 230.988 64.8163 231.054 64.86 231.12C64.8663 231.076 64.8913 231.017 64.8694 230.988C64.8413 230.948 64.782 230.932 64.7351 230.904L64.7227 230.923Z" fill="#C1B28A"/>
<path d="M266.515 208.21L266.578 208.26L266.524 208.222L266.515 208.21Z" fill="#C1B28A"/>
<path d="M57.269 236.031L57.332 236.082L57.2785 236.044L57.269 236.031Z" fill="#C1B28A"/>
<path d="M50.6123 237.624L50.6784 237.662L50.6375 237.596L50.6123 237.624Z" fill="#C1B28A"/>
<path d="M50.1997 237.218C50.3371 237.352 50.4745 237.486 50.6088 237.621C50.6088 237.621 50.6369 237.593 50.6369 237.596C50.4995 237.461 50.3621 237.327 50.2278 237.193C50.2278 237.193 50.1997 237.218 50.1997 237.218Z" fill="#C1B28A"/>
<path d="M259.43 201.334C259.424 201.128 259.533 201.062 259.723 201.1C259.695 201.268 259.595 201.343 259.43 201.334Z" fill="#C1B28A"/>
<path d="M262.652 197.656C262.662 197.418 262.793 197.29 263.024 197.259C262.996 197.484 262.877 197.618 262.652 197.656Z" fill="#C1B28A"/>
<path d="M76.1386 224.996C75.9388 224.928 75.8076 224.803 75.792 224.581C76.0293 224.619 76.1448 224.756 76.1386 224.996Z" fill="#C1B28A"/>
<path d="M133.687 254.054L133.74 254.105L133.69 254.061L133.687 254.054Z" fill="#C1B28A"/>
<path d="M235.898 199.133C235.739 197.353 236.214 195.635 236.423 193.896C236.748 191.177 236.982 188.451 237.057 185.715C237.138 182.849 237.088 179.979 237.416 177.125C237.435 176.954 237.397 176.776 237.335 176.604C237.207 177.644 237.4 178.671 237.541 179.689C237.778 181.437 237.909 183.195 237.837 184.953C237.684 188.657 237.687 192.376 236.929 196.032C236.72 197.047 236.791 198.115 236.451 199.114C236.264 199.123 236.083 199.13 235.898 199.133Z" fill="#C1B28A"/>
<path d="M131.319 174.552C131.538 174.577 131.688 174.48 131.732 174.274C131.816 173.884 131.332 173.597 131.535 173.16C131.888 173.21 131.975 173.516 132.103 173.765C133.287 176.07 134.467 178.374 135.647 180.679C136.322 181.996 136.996 183.314 137.674 184.632C136.93 185.131 136.777 185.147 136.475 184.591C135.541 182.88 134.623 181.16 133.733 179.427C132.906 177.815 132.122 176.179 131.319 174.552Z" fill="#C1B28A"/>
<path d="M245.407 197.649C245.881 193.659 246.353 189.665 246.787 186.021C246.787 185.918 246.771 186.156 246.79 186.393C246.965 188.597 247.084 190.789 246.699 192.997C246.487 194.205 246.531 195.454 246.259 196.666C246.131 197.24 246.575 197.256 246.955 197.309C246.54 197.877 245.913 197.484 245.407 197.649Z" fill="#C1B28A"/>
<path d="M138.72 185.035C137.162 182.596 135.875 180.035 134.954 177.028C135.819 177.818 136.212 178.621 136.628 179.402C137.505 181.053 138.351 182.721 139.198 184.388C139.282 184.551 139.269 184.763 139.301 184.953C139.107 184.981 138.913 185.01 138.72 185.035Z" fill="#C1B28A"/>
<path d="M199.5 190.664C199.859 190.496 199.906 190.252 199.787 189.874C199.337 188.451 198.913 187.017 198.501 185.581C198.432 185.347 198.463 185.081 198.463 184.828C198.463 184.785 198.535 184.713 198.585 184.7C198.641 184.685 198.722 184.707 198.772 184.744C198.872 184.819 199.013 184.903 199.035 185.006C199.465 186.97 200.305 188.841 200.383 190.886C200.04 191.005 199.728 190.992 199.5 190.664Z" fill="#C1B28A"/>
<path d="M196.233 187.913C196.67 187.289 196.283 186.696 196.152 186.096C195.974 185.278 195.968 185.278 196.18 184.335C196.433 184.36 196.461 184.579 196.502 184.753C196.855 186.302 197.195 187.857 197.541 189.406C196.995 189.365 196.602 189.113 196.408 188.585C196.683 188.494 196.758 188.285 196.698 188.032C196.652 187.842 196.508 187.77 196.314 187.867L196.233 187.913Z" fill="#C1B28A"/>
<path d="M155.247 192.135C155.478 191.976 155.357 191.81 155.244 191.657C154.791 191.033 154.339 190.412 153.88 189.79C153.755 189.622 153.695 189.425 153.823 189.269C154.008 189.044 154.167 189.294 154.251 189.394C155.126 190.418 155.981 191.454 156.843 192.491C156.296 192.454 155.706 192.594 155.247 192.135Z" fill="#C1B28A"/>
<path d="M142.701 184.675C142.929 184.694 143.313 184.803 143.36 184.719C143.703 184.12 143.878 184.566 144.075 184.81C144.144 184.894 144.15 185.028 144.184 185.141C143.669 185.044 143.026 185.369 142.701 184.675Z" fill="#C1B28A"/>
<path d="M160.274 191.751C159.972 191.654 159.922 191.423 160.071 191.201C160.231 190.97 160.412 191.198 160.509 191.301C160.615 191.414 160.643 191.607 160.702 191.764C160.562 191.76 160.418 191.757 160.274 191.751Z" fill="#C1B28A"/>
<path d="M223.324 161.538C223.449 161.884 223.334 162.165 223.09 162.412C222.978 162.072 223.018 161.769 223.324 161.538Z" fill="#C1B28A"/>
<path d="M169.986 185.134C169.858 184.935 169.954 184.797 170.11 184.675C170.204 184.866 170.179 185.022 169.986 185.134Z" fill="#C1B28A"/>
<path d="M169.167 186.711C169.13 186.515 169.208 186.399 169.408 186.368C169.464 186.577 169.389 186.696 169.167 186.711Z" fill="#C1B28A"/>
<path d="M61.8875 117.261C62.5026 120.058 63.049 122.875 63.7547 125.654C64.7633 129.626 65.8874 133.569 66.9584 137.526C67.0583 137.9 67.1895 138.281 66.9803 138.672C66.5494 138.4 66.5088 137.922 66.387 137.51C65.0599 132.948 63.7297 128.386 62.4433 123.812C62.0561 122.431 61.7907 121.02 61.4753 119.621C61.3941 119.253 61.11 119.334 60.8633 119.321C60.9632 118.513 61.6033 117.976 61.8875 117.261Z" fill="#C1B28A"/>
<path d="M60.3886 121.61C61.1536 122.722 61.1942 124.071 61.5252 125.31C62.3901 128.573 63.1145 131.877 63.9201 135.284C63.3612 134.974 63.2956 134.519 63.152 134.103C62.159 131.209 61.5127 128.217 60.7102 125.27C60.4104 124.167 60.3792 122.965 59.6392 122.004C59.6766 121.467 60.0607 121.595 60.3886 121.61Z" fill="#C1B28A"/>
<path d="M63.0585 114.906C63.9734 118.069 64.8446 121.245 65.5065 124.473C65.5253 124.567 65.4253 124.686 65.3348 124.895C64.6603 123.415 64.2856 121.919 63.8735 120.439C63.5425 119.253 63.2833 118.047 62.9742 116.855C62.893 116.545 62.7712 116.233 62.3965 116.149C62.3934 115.615 62.6463 115.218 63.0585 114.906Z" fill="#C1B28A"/>
<path d="M59.3239 124.355C59.377 124.392 59.4613 124.424 59.477 124.474C59.9141 126.094 60.3669 127.708 60.7634 129.341C60.9476 130.091 61.0195 130.868 61.0757 131.646C59.9422 129.329 59.2271 126.89 58.8618 124.349C59.0179 124.349 59.1709 124.352 59.3239 124.355Z" fill="#C1B28A"/>
<path d="M70.9242 56.9243C71.1271 57.3958 71.5737 57.4926 71.9983 57.6362C73.6283 58.1952 75.2551 58.7635 76.885 59.3286C76.7976 59.7283 77.1005 60.2154 76.6134 60.5214C76.5509 60.0905 76.3105 59.872 75.8765 59.7533C74.0717 59.26 72.3356 58.5824 70.6432 57.7861C70.5932 57.4551 70.5745 57.1304 70.9242 56.9243Z" fill="#C1B28A"/>
<path d="M67.2581 81.2331C65.9841 80.6772 64.7008 80.1339 63.4393 79.5563C63.0303 79.3689 62.7149 79.4532 62.3901 79.6968C62.5869 79.0161 62.7367 78.3135 63.1676 77.7265C63.227 78.0262 63.0802 78.4415 63.458 78.5852C64.9568 79.166 66.2496 80.2245 67.8795 80.4961C67.9107 80.9458 67.4455 80.9708 67.2581 81.2331Z" fill="#C1B28A"/>
<path d="M65.1908 72.5681C66.6334 73.1863 68.0698 73.8171 69.5218 74.4104C69.8621 74.5509 70.2555 74.5603 70.624 74.6289C70.4647 74.9006 70.3024 75.1723 70.1431 75.4439C68.7224 74.8631 67.2954 74.298 65.8872 73.6891C65.5187 73.5298 65.1752 73.4143 64.7787 73.4736C64.7349 73.0864 65.0847 72.8835 65.1908 72.5681Z" fill="#C1B28A"/>
<path d="M72.2262 70.2043C70.7087 69.8796 69.3629 69.1302 67.964 68.5088C67.5581 68.3277 67.1646 68.0592 66.6963 68.3277C66.6245 67.9499 66.7306 67.6657 67.1147 67.5283C67.3676 67.5564 67.6486 67.5221 67.8703 67.622C69.2161 68.234 70.5494 68.8679 71.8765 69.5205C72.0201 69.5892 72.0826 69.8171 72.1825 69.9733L72.2887 70.0732L72.2262 70.2043Z" fill="#C1B28A"/>
<path d="M62.4401 92.6396C61.1068 91.8527 59.7516 91.1189 58.2153 90.7942C58.59 90.2852 58.2809 89.5202 58.8523 89.0862C58.8804 89.464 58.8211 89.8699 59.2676 90.0854C60.4323 90.6505 61.5876 91.2313 62.7492 91.8027C62.6212 92.0744 62.7274 92.4272 62.4401 92.6396Z" fill="#C1B28A"/>
<path d="M61.9751 81.2517C63.1522 81.8044 64.345 82.3321 65.5004 82.9223C65.8751 83.1128 66.2217 83.1877 66.6182 83.1409C66.6213 83.5905 66.1904 83.7092 65.9719 83.9902C64.5199 83.3469 63.0679 82.7006 61.616 82.0573C61.6097 81.7326 61.7221 81.4609 61.9751 81.2517Z" fill="#C1B28A"/>
<path d="M63.6141 89.8949C62.4057 89.2079 61.1941 88.521 59.9826 87.8371C59.7265 87.6935 59.4955 87.8372 59.2675 87.9402C59.255 87.5374 59.508 87.4437 59.839 87.4562C60.0919 87.4656 60.3073 87.4343 60.3979 87.1564C61.6812 87.5499 62.6867 88.4679 63.8888 89.0206C63.7358 89.2922 63.9419 89.6794 63.6141 89.8949Z" fill="#C1B28A"/>
<path d="M68.6791 78.9161C68.5354 78.5883 68.2107 78.5164 67.9297 78.3822C66.7306 77.8108 65.5347 77.2393 64.3263 76.6929C64.1108 76.5961 63.8392 76.6242 63.5925 76.5961C63.555 76.3619 63.6237 76.1995 63.8829 76.1621C65.2349 76.7054 66.5932 77.2331 67.9328 77.7983C68.2888 77.9481 68.6197 78.1292 69.0194 78.1011C69.0038 78.4134 68.9851 78.7256 68.6791 78.9161Z" fill="#C1B28A"/>
<path d="M73.2566 67.9436C71.5049 67.1942 69.7969 66.3636 68.2106 65.2989L68.2075 65.3426C68.5291 64.9741 68.9132 65.0928 69.2504 65.2645C70.3308 65.811 71.3956 66.3949 72.4729 66.9507C72.8632 67.1536 73.1973 67.4971 73.6844 67.4753C73.6313 67.7126 73.5064 67.8843 73.2566 67.9436Z" fill="#C1B28A"/>
<path d="M60.1295 97.7011C59.1209 97.2827 58.1154 96.8549 57.1006 96.4521C56.8102 96.3366 56.4886 96.296 56.1826 96.2211C56.32 95.9057 56.4574 95.5934 56.5979 95.2781C57.7376 95.8058 58.8742 96.346 60.0264 96.8487C60.2388 96.9424 60.5198 96.8737 60.7696 96.8799C60.8133 97.3545 60.3324 97.4201 60.1295 97.7011Z" fill="#C1B28A"/>
<path d="M58.0938 92.5896C58.9243 92.702 59.6175 93.1516 60.3513 93.5076C60.8541 93.7543 61.3037 94.1477 61.9188 94.1103C61.7721 94.4256 61.6253 94.7379 61.4786 95.0501C60.801 94.716 60.1171 94.3944 59.4521 94.0416C58.8432 93.7168 58.1344 93.5857 57.6191 93.083C57.8159 92.9549 58.1063 92.9175 58.0938 92.5896Z" fill="#C1B28A"/>
<path d="M52.5822 118.869C52.2138 118.263 51.8609 117.641 51.7517 116.93C51.633 116.18 50.9148 115.471 51.5643 114.659C52.1045 115.253 52.0983 116.027 52.2638 116.745C52.3762 117.232 52.3481 117.798 52.9382 118.038C53.0163 118.4 52.9257 118.688 52.5822 118.869Z" fill="#C1B28A"/>
<path d="M58.0064 102.853C57.1602 102.472 56.3171 102.082 55.4646 101.714C55.2305 101.614 55.0088 101.532 54.9245 101.267C54.8776 101.145 54.8714 101.023 54.9026 100.899C55.7675 101.048 56.545 101.442 57.3319 101.804C57.691 101.97 58.0407 102.02 58.4185 101.976C58.2811 102.269 58.1438 102.563 58.0064 102.853Z" fill="#C1B28A"/>
<path d="M60.3703 120.408C60.3328 120.561 60.2922 120.717 60.2547 120.87C59.9924 120.642 60.1361 120.514 60.3703 120.408Z" fill="#C1B28A"/>
<path d="M230.803 169.687C231.084 170.187 230.931 170.712 230.815 171.186C229.904 174.993 229.317 178.855 228.695 182.714C228.664 182.908 228.636 183.102 228.626 183.298C228.42 187.336 228.086 191.373 228.242 195.423C228.258 195.873 228.352 196.322 228.377 196.772C228.38 196.844 228.199 196.931 228.093 196.997C227.955 197.078 227.846 197.031 227.749 196.906C227.315 196.347 227.328 195.682 227.334 195.036C227.359 192.491 227.353 189.946 227.456 187.405C227.674 182.043 228.614 176.788 229.975 171.608C230.125 171.043 230.322 170.487 230.519 169.937C230.556 169.834 230.7 169.775 230.803 169.687Z" fill="#C1B28A"/>
<path d="M255.599 170.165C253.859 169.644 252.123 169.11 250.378 168.601C247.037 167.623 243.593 167.464 240.145 167.317C238.975 167.267 237.804 167.177 236.636 167.093C236.264 167.065 236.267 167.046 235.552 166.452C235.59 166.421 235.633 166.353 235.665 166.359C237.919 166.777 240.205 166.565 242.472 166.69C246.912 166.94 251.243 167.742 255.346 169.534C255.642 169.666 255.923 169.828 256.214 169.975C256.008 170.037 255.802 170.1 255.599 170.165Z" fill="#C1B28A"/>
<path d="M243.059 174.721C243.561 175.414 243.589 176.06 243.593 176.71C243.611 181.078 243.733 185.444 243.508 189.812C243.39 192.163 243.015 194.474 242.603 196.785C242.581 196.906 242.531 197.041 242.45 197.131C242.372 197.219 242.237 197.3 242.128 197.3C242.038 197.3 241.872 197.181 241.869 197.109C241.856 196.722 241.835 196.326 241.903 195.948C242.206 194.283 242.381 192.603 242.621 190.933C243.002 188.269 242.94 185.6 242.981 182.93C243.021 180.195 243.034 177.459 243.059 174.721Z" fill="#C1B28A"/>
<path d="M240.551 177.622C240.551 179.486 240.611 181.113 240.539 182.736C240.355 186.899 240.133 191.061 239.871 195.22C239.808 196.188 240.136 197.281 239.224 198.071C238.687 197.165 238.965 196.176 239.012 195.242C239.202 191.339 239.471 187.442 239.727 183.542C239.858 181.609 239.861 179.661 240.551 177.622Z" fill="#C1B28A"/>
<path d="M230.731 197.634C230.284 197.553 230.297 197.187 230.269 196.888C230.097 195.07 230.122 193.25 230.272 191.436C230.465 189.109 230.628 186.777 230.906 184.46C231.112 182.733 231.477 181.028 231.78 179.258C232.248 179.523 232.042 179.91 232.008 180.201C231.783 182.202 231.433 184.195 231.296 186.199C231.074 189.437 230.718 192.675 230.849 195.932C230.871 196.497 230.987 197.081 230.731 197.634Z" fill="#C1B28A"/>
<path d="M233.37 197.19C233.051 195.776 233.148 194.352 233.288 192.941C233.532 190.483 233.838 188.032 234.125 185.581C234.141 185.459 234.209 185.344 234.278 185.159C234.494 189.253 234.05 193.228 233.37 197.19Z" fill="#C1B28A"/>
<path d="M257.594 165.447C258.281 163.986 258.965 162.521 259.667 161.066C259.748 160.894 259.967 160.816 260.142 160.951C260.223 161.013 260.292 161.2 260.26 161.294C259.692 162.871 258.949 164.345 257.594 165.447Z" fill="#C1B28A"/>
<path d="M259.489 166.393C259.792 165.182 260.401 164.401 260.838 163.536C260.978 163.255 260.991 162.584 261.531 162.905C261.956 163.158 261.559 163.623 261.393 163.926C260.928 164.779 260.451 165.631 259.489 166.393Z" fill="#C1B28A"/>
<path d="M231.605 160.382C231.38 161.862 230.753 162.868 229.935 163.777C229.888 163.826 229.679 163.798 229.604 163.736C229.529 163.67 229.473 163.489 229.51 163.411C230.044 162.387 230.678 161.435 231.605 160.382Z" fill="#C1B28A"/>
<path d="M261.294 167.458C261.753 166.521 262.146 165.731 262.521 164.935C262.655 164.651 262.758 164.242 263.155 164.485C263.505 164.701 263.264 165.069 263.13 165.347C262.74 166.159 262.181 166.833 261.294 167.458Z" fill="#C1B28A"/>
<path d="M233.501 160.423C233.457 161.41 233.045 162.19 232.62 162.958C232.533 163.115 232.345 163.23 232.158 163.111C232.08 163.061 232.011 162.868 232.049 162.793C232.442 161.984 232.633 161.047 233.501 160.423Z" fill="#C1B28A"/>
<path d="M234.4 163.002C234.5 161.659 234.75 160.67 235.59 159.402C235.199 160.798 235.349 161.903 234.4 163.002Z" fill="#C1B28A"/>
<path d="M249.11 193.031C249.125 193.287 249.175 193.546 249.147 193.796C249.057 194.614 248.935 195.426 248.797 196.447C248.407 195.073 248.432 194.664 249.11 193.031Z" fill="#C1B28A"/>
<path d="M255.599 170.165C255.802 170.103 256.008 170.037 256.211 169.975C256.776 170.228 257.341 170.48 257.906 170.733C257.082 170.737 256.286 170.662 255.599 170.165Z" fill="#C1B28A"/>
<path d="M256.66 162.062C256.723 161.812 256.763 161.488 256.885 161.2C256.947 161.054 257.157 160.869 257.291 160.873C257.616 160.885 257.634 161.2 257.6 161.431C257.553 161.741 257.456 162.053 257.325 162.337C257.253 162.493 257.054 162.712 256.935 162.699C256.613 162.668 256.707 162.349 256.66 162.062Z" fill="#C1B28A"/>
<path d="M141.827 168.954C140.191 166.968 139.288 164.673 138.361 162.396C137.946 161.378 137.59 160.332 137.274 159.28C137.128 158.79 137.121 158.256 137.081 157.741C137.071 157.641 137.162 157.472 137.252 157.435C137.493 157.325 137.583 157.525 137.637 157.706C137.877 158.515 138.092 159.33 138.348 160.133C138.992 162.178 139.847 164.139 140.684 166.109C141.081 167.049 141.446 168.004 141.827 168.954Z" fill="#C1B28A"/>
<path d="M158.436 160.367C157.405 157.766 156.203 155.249 154.773 152.841C154.642 152.623 154.545 152.379 154.476 152.133C154.454 152.055 154.57 151.927 154.645 151.842C154.667 151.817 154.782 151.842 154.826 151.877C154.973 151.995 155.151 152.105 155.241 152.261C156.771 154.834 158.105 157.494 158.879 160.404C158.735 160.395 158.586 160.379 158.436 160.367Z" fill="#C1B28A"/>
<path d="M166.248 160.464C165.511 159.855 165.439 159.258 165.249 158.727C164.662 157.091 164.059 155.461 163.188 153.947C163.054 153.713 162.954 153.419 163.253 153.297C163.484 153.204 163.741 153.388 163.894 153.616C164.037 153.828 164.196 154.034 164.315 154.262C165.183 155.927 165.783 157.694 166.235 159.508C166.298 159.745 166.248 160.008 166.248 160.464Z" fill="#C1B28A"/>
<path d="M135.366 159.215C136.138 160.195 137.043 162.531 138.258 166.646C137.593 166.271 137.515 165.569 137.202 165.044C136.843 164.435 136.603 163.755 136.334 163.093C136.091 162.493 135.822 161.897 135.666 161.272C135.501 160.617 135.007 159.989 135.366 159.215Z" fill="#C1B28A"/>
<path d="M154.523 157.616C153.764 156.111 152.999 154.609 152.253 153.094C152.143 152.87 152.118 152.604 152.068 152.351C152.059 152.304 152.115 152.211 152.159 152.198C152.265 152.17 152.403 152.136 152.493 152.176C152.602 152.226 152.709 152.336 152.762 152.445C153.533 154.012 154.42 155.527 154.91 157.219C154.782 157.354 154.651 157.485 154.523 157.616Z" fill="#C1B28A"/>
<path d="M160.524 157.247C159.659 155.592 158.794 153.937 157.942 152.279C157.898 152.192 157.917 152.023 157.976 151.942C158.123 151.736 158.31 151.858 158.476 151.939C158.532 151.967 158.588 152.011 158.626 152.061C159.703 153.619 160.449 155.302 160.524 157.247Z" fill="#C1B28A"/>
<path d="M137.665 178.852C138.536 179.152 138.648 179.639 138.848 180.029C139.476 181.244 140.072 182.474 140.678 183.701C140.8 183.945 140.812 184.188 140.712 184.454C140.65 184.625 140.581 184.682 140.422 184.588C140.312 184.522 140.153 184.485 140.1 184.388C139.188 182.677 138.373 180.925 137.665 178.852Z" fill="#C1B28A"/>
<path d="M162.991 158C162.445 157.051 162.098 156.164 161.779 155.255C161.464 154.353 160.983 153.507 160.593 152.626C160.559 152.551 160.637 152.345 160.702 152.326C160.802 152.295 160.958 152.342 161.046 152.414C161.192 152.535 161.33 152.682 161.423 152.848C162.335 154.403 162.866 156.076 162.991 158Z" fill="#C1B28A"/>
<path d="M140.578 160.311C139.76 158.818 139.413 157.197 139.182 155.549C139.16 155.399 139.294 155.096 139.376 155.087C139.657 155.058 139.841 155.261 139.91 155.536C140.019 155.973 140.141 156.411 140.209 156.857C140.384 157.994 140.731 159.115 140.578 160.311Z" fill="#C1B28A"/>
<path d="M167.928 175.27C168.993 176.292 169.701 177.497 170.051 178.905C170.07 178.986 169.954 179.155 169.861 179.195C169.764 179.239 169.576 179.224 169.508 179.155C169.377 179.024 169.289 178.843 169.211 178.671C168.711 177.562 168.174 176.473 167.928 175.27Z" fill="#C1B28A"/>
<path d="M168.365 180.304C167.35 179.28 166.566 178.112 166.051 176.772C167.135 177.747 167.968 178.886 168.365 180.304Z" fill="#C1B28A"/>
<path d="M150.551 152.832C150.66 152.87 150.841 152.879 150.873 152.954C151.307 153.953 151.722 154.959 152.128 155.97C152.165 156.067 152.128 156.254 152.053 156.32C151.866 156.492 151.731 156.32 151.638 156.173C151.063 155.246 150.492 154.312 150.229 153.238C150.179 153.029 150.351 152.898 150.551 152.832Z" fill="#C1B28A"/>
<path d="M154.523 157.616C154.651 157.485 154.782 157.353 154.91 157.222C155.663 158.3 156.05 159.486 156.009 160.807L156.037 160.782C155.3 159.833 154.838 158.762 154.523 157.616Z" fill="#C1B28A"/>
<path d="M135.148 163.408C134.355 162.271 134.355 162.271 134.436 160.613C135.048 161.606 134.895 162.556 135.148 163.408Z" fill="#C1B28A"/>
<path d="M158.436 160.367C158.585 160.379 158.732 160.395 158.882 160.407C159.472 161.581 159.472 161.581 159.429 162.749C158.726 162.056 158.617 161.197 158.436 160.367Z" fill="#C1B28A"/>
<path d="M148.75 155.177C148.35 154.927 148.041 154.618 148.072 154.109C148.078 154.009 148.175 153.888 148.262 153.822C148.39 153.728 148.531 153.778 148.575 153.928C148.7 154.337 148.968 154.721 148.75 155.177Z" fill="#C1B28A"/>
<path d="M141.352 182.374C141.814 182.908 142.217 183.445 142.398 184.291C141.674 183.586 141.677 183.586 141.352 182.374Z" fill="#C1B28A"/>
<path d="M156.006 160.807C156.1 160.876 156.219 160.926 156.281 161.016C156.365 161.141 156.29 161.335 156.175 161.307C155.925 161.247 156.194 161.394 156.113 161.147C156.075 161.029 156.063 160.904 156.038 160.782C156.034 160.779 156.006 160.807 156.006 160.807Z" fill="#C1B28A"/>
<path d="M184.527 149.051C184.752 150.209 184.583 151.196 184.455 152.198C184.312 153.294 184.262 154.406 184.202 155.511C184.146 156.551 184.115 157.594 184.102 158.64C184.09 159.683 184.109 160.726 184.134 161.769C184.159 162.877 184.215 163.983 184.243 165.091C184.268 166.084 184.408 167.086 184.202 168.098C183.743 167.964 183.778 167.673 183.756 167.43C183.35 162.877 183.194 158.325 183.684 153.766C183.843 152.226 183.778 150.653 184.527 149.051Z" fill="#C1B28A"/>
<path d="M199.884 150.022C200.03 155.552 200.18 161.082 200.321 166.615C200.324 166.79 200.227 166.971 200.162 167.205C199.974 167.061 199.749 166.98 199.696 166.837C199.587 166.537 199.531 166.206 199.518 165.887C199.393 162.05 199.275 158.209 199.162 154.372C199.119 152.882 199.425 151.443 199.884 150.022Z" fill="#C1B28A"/>
<path d="M186.853 153.138C187.01 156.804 186.613 160.501 186.641 164.207C186.654 165.834 186.654 167.461 186.65 169.091C186.65 169.269 186.613 169.472 186.363 169.481C186.113 169.491 186.004 169.281 185.976 169.113C185.879 168.538 185.782 167.958 185.773 167.377C185.729 165.032 185.754 162.69 185.935 160.351C186.02 159.249 186.092 158.143 186.107 157.038C186.12 155.667 186.266 154.337 186.853 153.138Z" fill="#C1B28A"/>
<path d="M196.998 153.229C197.157 156.576 196.842 166.056 196.592 167.386C196.146 167.096 196.118 166.624 196.105 166.187C196.08 165.341 196.093 164.495 196.124 163.648C196.208 161.438 196.361 159.227 196.386 157.016C196.399 155.699 197.014 154.512 196.998 153.229Z" fill="#C1B28A"/>
<path d="M189.307 157.941C189.145 160.598 188.995 163.255 188.817 165.909C188.755 166.815 188.627 167.714 188.508 168.613C188.496 168.698 188.333 168.76 188.24 168.832C188.171 168.744 188.043 168.654 188.046 168.566C188.09 164.997 188.33 161.447 189.307 157.941Z" fill="#C1B28A"/>
<path d="M205.392 152.151C205.392 155.102 205.395 157.756 205.382 160.414C205.382 160.595 205.273 160.779 205.201 160.954C205.189 160.985 205.092 160.985 205.033 160.988C204.97 160.991 204.861 161.004 204.852 160.979C204.78 160.801 204.68 160.617 204.68 160.432C204.677 158.228 204.667 156.023 204.711 153.819C204.72 153.335 204.699 152.779 205.392 152.151Z" fill="#C1B28A"/>
<path d="M202.478 154.09C202.978 156.426 202.747 158.793 202.716 161.147C202.709 161.503 202.819 161.95 202.222 162.209C202.238 159.467 202.166 156.779 202.478 154.09Z" fill="#C1B28A"/>
<path d="M207.034 158.481C206.9 156.011 207.04 154.662 207.599 152.969C207.924 154.84 207.877 157.016 207.481 158.453C207.331 158.462 207.181 158.471 207.034 158.481Z" fill="#C1B28A"/>
<path d="M204.717 188.332C204.508 187.13 204.295 185.924 204.089 184.722C204.011 184.273 203.58 183.832 204.03 183.361C204.542 183.667 204.533 184.229 204.698 184.707C205.107 185.884 205.195 187.089 205.132 188.31C204.995 188.316 204.854 188.326 204.717 188.332Z" fill="#C1B28A"/>
<path d="M181.664 159.986C181.886 162.053 182.498 164.064 182.164 166.577C181.648 164.117 181.311 162.069 181.664 159.986Z" fill="#C1B28A"/>
<path d="M202.197 189.39C201.301 188.323 201.542 187.086 201.18 186.027C201.164 185.981 201.208 185.906 201.242 185.853C201.264 185.815 201.32 185.768 201.354 185.775C201.414 185.784 201.486 185.815 201.523 185.862C201.601 185.962 201.701 186.068 201.72 186.184C201.879 187.202 202.026 188.223 202.197 189.39Z" fill="#C1B28A"/>
<path d="M211.737 156.592C212.202 157.522 212.118 158.103 212.121 158.668C212.124 159.04 212.183 159.442 211.812 159.855C211.281 158.852 211.665 157.916 211.737 156.592Z" fill="#C1B28A"/>
<path d="M209.516 156.435C209.872 157.419 209.957 158.203 209.526 158.983C209.516 159.002 209.407 158.999 209.395 158.977C208.961 158.172 209.21 157.403 209.516 156.435Z" fill="#C1B28A"/>
<path d="M207.034 158.481C207.184 158.471 207.331 158.462 207.481 158.453C207.437 159.015 207.396 159.577 207.34 160.304C206.744 159.639 207.056 159.037 207.034 158.481Z" fill="#C1B28A"/>
<path d="M34.0348 144.917C33.5789 144.685 33.5164 144.217 33.3884 143.808C31.5368 137.794 29.7507 131.761 28.3175 125.632C28.2613 125.385 28.2769 125.114 28.2987 124.858C28.3081 124.773 28.4486 124.642 28.5329 124.639C28.6422 124.636 28.8139 124.711 28.8545 124.801C28.9888 125.089 29.1012 125.395 29.1793 125.701C29.9068 128.595 30.5969 131.502 31.3525 134.391C32.1894 137.594 33.0824 140.782 33.9598 143.974C34.0504 144.283 34.194 144.582 34.0348 144.917Z" fill="#C1B28A"/>
<path d="M46.0781 115.534C47.4145 117.888 49.4441 127.374 49.2943 130.644C48.4918 128.979 48.3325 127.228 47.9329 125.545C47.3052 122.897 46.7557 120.227 46.1405 117.576C45.9844 116.892 45.8158 116.239 46.0781 115.534Z" fill="#C1B28A"/>
<path d="M33.7162 137.319C32.9199 136.114 32.8263 134.99 32.5296 133.947C31.6397 130.822 30.8279 127.674 29.9785 124.536C29.8599 124.093 29.7069 123.659 29.8443 123.2C29.8755 123.096 29.9973 122.984 30.1003 122.956C30.2034 122.931 30.3564 122.978 30.4438 123.047C30.5343 123.121 30.603 123.253 30.6311 123.371C31.6928 127.73 32.9637 132.036 33.7505 136.461C33.7849 136.645 33.7412 136.842 33.7162 137.319Z" fill="#C1B28A"/>
<path d="M38.0349 131.212C36.9232 128.289 36.2863 125.254 35.5556 122.247C35.3714 121.495 35.2496 120.727 35.1216 119.962C35.1028 119.858 35.1778 119.674 35.2589 119.634C35.4682 119.531 35.6055 119.674 35.6586 119.871C36.3425 122.303 36.9701 124.745 37.3323 127.253C37.5228 128.58 37.7975 129.894 38.0349 131.212Z" fill="#C1B28A"/>
<path d="M51.277 125.788C50.4183 123.431 50.0062 121.132 49.416 118.881C49.1537 117.882 48.907 116.876 48.6604 115.871C48.6135 115.684 48.5761 115.484 48.5854 115.293C48.5917 115.187 48.6885 115.031 48.779 115.003C48.8758 114.972 49.0476 115.028 49.1256 115.106C49.2568 115.243 49.391 115.412 49.4348 115.593C50.2029 118.731 50.9991 121.863 51.277 125.095C51.2895 125.288 51.277 125.482 51.277 125.788Z" fill="#C1B28A"/>
<path d="M34.9873 131.743C34.7562 131.281 34.4315 130.843 34.3066 130.356C33.6071 127.602 32.9514 124.836 32.2894 122.069C32.2613 121.947 32.2645 121.801 32.3113 121.688C32.3519 121.588 32.4643 121.47 32.5611 121.448C32.6579 121.426 32.839 121.488 32.8765 121.563C32.9858 121.791 33.0607 122.041 33.1138 122.291C33.6883 124.942 34.2441 127.596 34.8343 130.244C34.9467 130.753 34.6782 131.284 34.9748 131.765L34.9873 131.743Z" fill="#C1B28A"/>
<path d="M29.685 135.287C29.1198 134.768 29.0917 134.022 28.8887 133.357C28.2798 131.381 27.6741 129.404 27.0808 127.421C26.9933 127.125 26.8435 126.806 27.0496 126.491C27.0777 126.447 27.1432 126.419 27.1963 126.4C27.2556 126.381 27.3587 126.353 27.3837 126.381C27.4648 126.478 27.546 126.587 27.5866 126.706C28.5421 129.457 29.2915 132.261 29.763 135.134C29.7693 135.177 29.7131 135.234 29.685 135.287Z" fill="#C1B28A"/>
<path d="M36.8979 119.68C37.9596 121.185 38.7621 124.111 38.7558 125.741C38.606 125.554 38.4405 125.429 38.3905 125.267C37.8972 123.724 37.4132 122.182 36.9573 120.63C36.8698 120.333 36.9136 119.999 36.8979 119.68Z" fill="#C1B28A"/>
<path d="M42.6811 121.438C41.938 120.183 41.5882 118.837 41.3103 117.47C41.2916 117.376 41.3946 117.204 41.4852 117.157C41.6694 117.067 41.8942 117.126 41.9536 117.323C42.3626 118.663 42.806 120.002 42.6811 121.438Z" fill="#C1B28A"/>
<path d="M45.076 120.873C44.3578 119.933 44.3672 119.003 44.0831 118.175C43.6428 116.889 43.649 116.436 43.9488 116.549C44.6795 116.823 44.6482 117.532 44.8012 118.125C45.0198 118.972 45.4507 119.805 45.076 120.873Z" fill="#C1B28A"/>
<path d="M40.4046 121.679C39.5427 120.683 39.6583 119.606 39.4303 118.638C39.4116 118.553 39.5209 118.388 39.6114 118.35C39.6833 118.319 39.8925 118.406 39.905 118.469C40.0923 119.459 40.6606 120.386 40.4046 121.679Z" fill="#C1B28A"/>
<path d="M34.9683 131.768C35.012 131.939 35.0869 132.114 35.0869 132.286C35.0869 132.467 35.1306 132.523 35.2087 132.386C35.3398 132.161 35.2024 132.505 35.1213 132.258C35.0651 132.089 35.0307 131.918 34.9839 131.743C34.987 131.743 34.9683 131.768 34.9683 131.768Z" fill="#C1B28A"/>
<path d="M65.7439 125.76C65.7658 125.866 65.8157 125.979 65.8064 126.082C65.7908 126.253 65.6971 126.285 65.6534 126.16C65.619 126.063 65.6378 125.941 65.6503 125.832C65.6503 125.804 65.7096 125.782 65.7439 125.76Z" fill="#C1B28A"/>
</g>
<defs>
<clipPath id="clip0_208_1149">
<rect width="269.36" height="241.432" fill="white" transform="translate(15.6401 29.2839)"/>
</clipPath>
</defs>
</svg>
