<svg width="300" height="300" viewBox="0 0 300 300" fill="none" xmlns="http://www.w3.org/2000/svg">
<g clip-path="url(#clip0_208_1122)">
<path d="M95.4436 121.401C94.7934 117.986 94.7161 114.49 93.9468 111.088C93.7827 110.361 93.7794 109.588 93.7633 108.835C93.7344 107.628 93.5895 106.537 92.4243 105.793C91.9158 105.468 91.581 104.873 91.1593 104.406C90.86 104.078 90.6218 103.649 90.8021 103.276C90.9759 102.916 91.4812 103.077 91.8289 103.099C96.8469 103.469 101.707 102.233 106.622 101.615C113.108 100.801 119.382 100.836 125.549 103.714C130.451 105.999 135.769 106.82 141.266 106.099C147.948 105.223 154.618 105.243 161.306 106.437C168.162 107.66 174.864 109.511 181.656 110.966C191.698 113.116 201.747 115.25 212.121 115.253C217.419 115.256 222.512 114.397 227.636 113.161C231.621 112.202 235.596 111.207 239.526 110.065C240.463 109.794 240.952 110.538 241.708 110.576C241.779 110.58 242.236 111.429 241.718 111.986C238.882 115.031 236.574 118.504 233.958 121.726C230.343 126.178 226.249 130.134 221.884 133.832C216.927 138.033 211.864 142.108 206.472 145.732C199.764 150.241 192.892 154.497 185.219 157.245C184.858 157.374 184.504 157.49 184.404 158.073C191.753 157.503 198.95 157.883 205.674 161.221C204.129 161.044 202.726 160.336 201.203 160.007C196.398 158.964 191.566 158.34 186.641 158.8C185.267 158.929 183.796 159.132 182.537 158.951C181.347 158.781 180.336 159.112 179.248 159.122C178.636 159.128 178.553 159.412 178.781 159.927C181.54 166.084 181.891 172.75 182.843 179.288C183.416 183.231 184.414 187.084 185.315 190.962C186.538 196.228 187.585 201.539 188.37 206.895C188.589 208.386 189.088 209.815 189.67 211.366C190.967 209.496 191.888 207.552 192.947 205.682C192.838 208.717 190.095 210.838 190.166 213.922C193.369 209.747 195.689 205.167 196.761 199.936C197.408 200.905 196.484 204.887 194.968 208.167C193.758 210.777 192.281 213.223 190.433 215.592C191.64 215.699 192.5 215.319 193.095 214.498C196.15 210.285 199.198 206.062 200.514 200.892C200.55 200.754 200.704 200.648 200.843 200.48C201.168 202.846 200.263 204.829 194.408 214.678C195.796 214.64 196.935 214.331 197.843 213.227C199.414 211.321 200.984 209.425 202.314 207.333C202.98 206.284 203.508 205.186 203.888 203.944C204.589 205.26 203.067 208.115 199.008 213.278C201.155 213.439 205.426 211.228 207.28 209.081C209.356 206.68 211.143 204.082 212.704 201.317C211.938 204.369 210.087 206.818 208.281 209.293C208.227 209.345 208.175 209.396 208.124 209.448C208.182 209.454 208.24 209.461 208.297 209.467C208.281 209.403 208.268 209.338 208.252 209.274C208.713 209.667 209.025 209.203 209.324 209.029C215.134 205.656 221.288 202.955 227.205 199.779C236.658 194.699 246.385 190.161 256.344 186.121C263.535 183.205 270.713 180.295 278.177 178.145C278.699 177.994 279.227 177.839 279.761 177.762C280.282 177.688 280.82 177.788 280.968 178.399C281.103 178.959 280.83 179.378 280.276 179.581C279.294 179.938 278.309 180.298 277.324 180.646C271.199 182.806 265.151 185.123 259.215 187.811C252.8 190.718 246.353 193.57 240.083 196.766C235.606 199.051 231.038 201.179 226.706 203.751C224.642 204.974 222.399 205.823 220.255 206.879C215.965 208.991 211.687 211.131 207.428 213.307C205.623 214.228 203.759 214.962 201.799 215.454C199.079 216.136 196.452 217.199 193.636 217.498C193.304 217.533 192.944 217.678 192.641 217.601C191.058 217.195 191.582 218.013 191.811 218.86C192.661 221.982 194.331 224.817 195.001 227.991C196.298 234.142 197.833 240.264 198.738 246.477C199.871 254.24 200.518 262.088 199.42 269.942C199.224 271.339 198.763 272.697 198.432 274.075C198.367 274.339 198.248 274.59 197.962 274.567C197.608 274.541 197.692 274.207 197.685 273.975C197.669 273.26 197.653 272.546 197.672 271.831C197.811 266.913 197.695 261.975 197.299 257.092C196.896 252.1 196.468 247.063 194.981 242.199C193.681 237.947 193.002 233.537 192.171 229.173C191.949 228.004 191.505 226.929 191.099 225.828C189.773 222.255 188.296 218.724 187.408 215.016C185.335 206.371 184.163 197.538 182.267 188.86C181.134 183.685 180.709 178.412 179.763 173.217C178.974 168.898 178.549 164.485 176.708 160.413C175.205 157.081 173.724 153.734 170.805 151.326C170.567 151.13 170.406 150.676 170.007 150.863C169.559 151.072 169.894 151.465 169.939 151.751C170.412 154.641 171.146 157.497 171.265 160.432C171.378 163.22 170.966 165.972 169.556 168.389C169.006 169.332 167.815 169.976 166.804 170.558C163.759 172.313 160.524 173.542 156.938 173.487C154.763 173.455 152.558 173.764 150.42 173.233C149.854 173.092 149.799 174.057 149.197 173.507C147.984 172.393 146.609 171.46 146.188 169.693C145.431 166.496 144.949 163.284 145.183 159.988C145.322 158.066 145.074 156.138 145.206 154.175C144.192 155.263 143.616 156.544 143.207 157.931C142.164 161.481 142.319 165.132 142.216 168.769C141.997 176.539 142.158 184.303 142.721 192.053C143.008 196.029 143.313 200.007 143.751 203.969C144.385 209.696 145.357 215.39 145.798 221.126C146.259 227.112 146.391 233.141 145.95 239.141C145.515 245.06 145.216 250.964 145.74 256.883C146.091 260.842 146.551 264.792 147.511 268.657C147.565 268.883 147.636 269.06 147.449 269.198C147.179 269.398 146.906 269.33 146.658 269.111C146.011 268.542 145.924 267.727 145.737 266.964C144.211 260.794 143.368 254.537 143.42 248.17C143.42 248.096 143.375 248.022 143.297 247.787C142.628 248.186 142.148 248.72 141.675 249.274C139.522 251.788 136.831 253.661 134.146 255.531C133.522 255.966 133.174 256.336 133.216 257.102C133.406 260.665 132.395 263.993 131.15 267.27C130.85 268.059 130.525 268.838 129.936 269.459C129.553 269.864 129.122 270.225 128.5 269.929C127.818 269.604 127.979 269.015 128.146 268.509C128.999 265.95 129.514 263.317 129.823 260.649C130.232 257.096 130.271 253.526 130.149 249.95C130.058 247.31 129.817 244.661 130.3 242.032C130.532 240.776 130.956 239.608 131.819 238.636C131.986 238.446 132.167 238.188 132.437 238.32C132.785 238.491 132.485 238.732 132.421 238.948C131.851 240.902 132.283 242.865 132.402 244.819C132.585 247.829 133.171 250.8 133.2 253.809C133.399 253.822 133.512 253.864 133.548 253.825C136.235 251.121 139.258 248.772 141.73 245.823C143.349 243.892 143.822 241.713 143.925 239.344C144.083 235.691 144.115 232.04 143.964 228.387C143.951 228.052 143.996 227.737 143.481 227.695C140.635 227.463 138.282 225.857 135.752 224.785C130.741 222.661 125.958 220.015 120.885 218.019C116.42 216.262 109.999 216.861 106.059 221.277C105.168 222.275 104.17 223.198 103.12 224.032C99.673 226.762 96.9628 230.154 94.8127 233.907C91.6615 239.411 88.0146 244.597 84.8473 250.085C83.2926 252.779 81.9665 255.589 80.4022 258.264C78.4516 261.599 77.7145 265.271 76.9227 268.947C76.8422 269.327 76.8518 269.771 76.3529 269.755C75.9184 269.739 75.7253 269.311 75.6673 268.954C75.574 268.377 75.5193 267.772 75.5804 267.196C75.9119 264.215 76.2531 261.312 77.5374 258.454C80.2026 252.528 83.6499 247.075 86.9105 241.504C87.7346 240.094 88.7646 238.806 89.7045 237.467C90.2484 236.695 90.1776 236.276 89.1122 236.315C85.5458 236.453 81.9858 236.572 78.4355 237.013C74.5214 237.5 70.6203 238.018 66.732 238.719C62.3061 239.521 59.1549 242.141 56.3128 245.315C51.7968 250.359 48.1499 256.072 43.9945 261.393C42.6554 263.105 41.4355 264.911 40.1351 266.655C39.7618 267.154 39.4173 268.146 38.6835 267.685C37.7693 267.112 38.6255 266.34 38.9506 265.738C41.7477 260.562 45.2755 255.853 48.4203 250.899C50.2292 248.051 52.3601 245.456 54.4845 242.859C58.2344 238.269 63.2267 236.135 69.0141 235.475C74.898 234.805 80.7755 234.123 86.6981 233.917C88.0436 233.869 89.4051 233.843 90.6862 234.271C91.272 234.467 91.4683 234.355 91.7355 233.872C94.5552 228.757 98.3952 224.528 102.979 220.936C104.527 219.722 105.827 218.19 107.546 217.186C112.786 214.121 118.152 214.363 123.634 216.51C128.977 218.602 134.079 221.248 139.438 223.301C140.645 223.762 141.759 224.467 142.914 225.062C143.201 225.21 143.455 225.6 143.793 225.419C144.192 225.207 143.996 224.74 143.993 224.393C143.957 220.43 143.288 216.545 142.625 212.657C142.28 210.632 142.116 208.576 141.939 206.528C141.878 205.811 141.678 205.453 140.935 205.196C130.647 201.665 123.344 194.651 117.73 185.532C113.414 178.518 110.44 170.932 107.578 163.274C107.43 162.882 107.266 162.495 107.099 162.112C107.015 161.922 106.902 161.742 106.783 161.526C100.317 165.856 92.5853 167.13 85.6874 170.414C75.162 175.425 64.4917 180.138 54.433 186.083C50.9052 188.168 47.8473 190.872 44.5771 193.299C38.9635 197.464 34.2705 202.495 30.2631 208.244C27.1505 212.708 23.4393 216.745 20.581 221.402C20.3847 221.721 20.2044 222.307 19.6862 222.085C19.1873 221.872 19.0617 221.315 19.1132 220.791C19.2098 219.806 19.6186 218.927 20.1754 218.132C22.2966 215.119 24.3309 212.032 26.6066 209.139C29.1752 205.872 31.3575 202.328 34.1675 199.235C37.1513 195.945 40.618 193.225 43.9816 190.373C49.4696 185.719 55.6915 182.217 62.1227 179.107C72.0816 174.289 82.0309 169.438 92.4919 165.753C95.6817 164.629 99.0743 164.13 102.129 162.611C103.291 162.035 104.414 161.382 105.57 160.799C106.107 160.529 106.262 160.226 106.078 159.611C104.611 154.68 103.587 149.604 101.952 144.75C100.52 140.492 99.5153 136.143 98.2503 131.856C96.818 127.002 93.8921 122.933 91.5553 118.556C88.0661 112.009 83.8076 105.874 80.7369 99.1078C78.9215 95.1133 77.4409 90.961 76.0986 86.7702C73.5848 78.9163 71.4636 70.9241 68.3381 63.2859C65.2159 55.6541 61.7396 48.1866 56.9694 41.3627C53.9469 37.0399 51.3751 32.4048 48.6005 27.9082C48.4911 27.7312 48.4235 27.5252 48.3076 27.3578C47.7154 26.4919 47.8828 25.845 48.8774 25.4265H49.3827C49.2507 26.3986 49.6241 27.1647 50.2067 27.9339C52.4599 30.9145 54.3815 34.1108 56.2967 37.3167C58.0155 40.1943 60.0079 42.911 61.672 45.8175C67.3274 55.696 71.8112 66.0895 75.0879 76.9979C77.016 83.413 79.0953 89.7797 81.5641 96.0081C82.8002 99.1239 84.181 102.195 85.8741 105.082C89.0768 110.534 92.3503 115.942 95.2182 121.581C95.289 121.717 95.3566 121.852 95.4275 121.984C95.5916 121.794 95.5144 121.597 95.4436 121.401ZM92.7526 104.634C92.8041 104.477 92.7044 104.441 92.5853 104.441C92.5402 104.441 92.4984 104.496 92.4533 104.528C92.5595 104.557 92.669 104.586 92.7752 104.615C92.8589 104.94 93.126 105.178 93.3996 105.111C94.2429 104.902 94.6099 105.249 94.8545 106.022C94.9511 106.328 95.3631 106.553 95.6592 106.775C99.57 109.73 103.565 112.517 108.064 114.574C111.615 116.196 115.233 117.526 118.983 118.601C121.471 119.315 124.036 119.328 126.521 119.875C130.931 120.851 135.266 122.1 139.782 122.627C144.05 123.126 148.328 122.988 152.6 123.175C156.021 123.323 159.468 122.84 162.906 122.763C166.685 122.676 170.448 122.357 174.21 122.035C178.434 121.671 182.634 121.089 186.893 121.234C188.306 121.282 189.709 121.565 191.154 121.288C194.199 120.709 197.286 120.342 200.321 119.724C203.624 119.051 206.884 118.192 210.348 117.371C209.662 117.03 209.154 117.098 208.674 117.139C205.037 117.442 201.454 116.785 197.904 116.28C192.522 115.511 187.169 114.439 181.858 113.254C174.671 111.651 167.589 109.588 160.283 108.523C156.172 107.924 152.078 107.316 147.89 107.827C144.768 108.207 141.617 108.365 138.479 108.613C133.403 109.015 128.838 107.087 124.297 105.294C120.721 103.884 117.119 102.584 113.272 102.661C110.025 102.726 106.793 103.379 103.545 103.643C99.937 103.936 96.4253 105.156 92.7526 104.634ZM140.407 165.379C140.581 164.089 140.668 162.785 140.944 161.52C141.63 158.35 142.1 155.047 145.132 153.022C145.257 152.939 145.38 152.781 145.412 152.636C145.766 150.962 146.236 149.302 146.397 147.608C146.497 146.566 146.896 145.993 147.778 145.61C149.345 144.927 150.881 144.171 152.477 143.566C155.274 142.503 158.142 141.873 161.174 142.391C162.246 142.574 163.518 143.302 164.268 143.038C165.774 142.513 165.858 143.675 166.473 144.229C168.108 145.7 168.755 147.892 170.866 149.16C173.786 150.917 175.91 153.689 177.246 156.924C177.655 157.915 178.273 158.221 179.274 157.806C181.33 156.956 184.179 156.978 183.889 153.57C183.889 153.557 184.012 153.534 184.247 153.467C184.292 154.226 184.337 154.967 184.382 155.704C184.523 155.691 184.668 155.678 184.81 155.665C185.599 151.645 184.623 147.74 183.683 143.823C185.827 147.177 186.194 150.943 186.294 154.851C186.68 154.693 186.986 154.571 187.288 154.448C193.501 151.918 198.992 148.133 204.541 144.467C210.007 140.859 215.012 136.642 219.946 132.351C222.412 130.204 225.077 128.28 227.279 125.827C230.06 122.73 232.886 119.682 235.673 116.592C237.032 115.086 238.255 113.457 239.899 112.215C239.581 111.912 239.433 111.893 239.262 111.97C236.166 113.364 232.924 114.336 229.654 115.198C225.038 116.415 220.281 116.966 215.643 118.124C208.861 119.821 202.137 121.829 195.158 122.647C190.407 123.204 185.801 124.517 181.057 125.174C174.751 126.046 168.584 127.761 162.243 128.505C158.908 128.898 155.587 129.438 152.213 129.284C150.108 129.187 149.741 129.535 149.226 131.656C148.953 132.779 149.149 133.929 148.769 135.023C148.27 133.063 148.537 131.18 149.481 129.339C147.33 129.084 145.241 128.904 143.175 128.579C137.381 127.665 131.623 126.632 126.692 123.091C125.468 122.212 124.287 122.46 123.318 123.661C122.555 124.607 121.963 125.66 121.496 126.793C121.348 127.147 121.451 127.732 120.685 127.871C121.284 125.315 122.024 123.004 124.821 121.675C113.552 120.078 104.096 114.989 95.2504 108.22C95.7622 111.429 96.7214 114.381 97.2911 117.426C98.26 122.611 99.5894 127.716 101.768 132.573C104.733 139.185 108.863 144.908 114.238 149.762C118.274 153.409 122.829 156.338 127.425 159.183C130.767 161.25 134.23 163.149 138.035 164.192C138.598 163.329 138.247 162.305 138.546 161.388C138.836 160.5 138.643 159.466 139.367 158.507C139.464 159.296 139.39 159.853 139.216 160.429C139.052 160.979 139.135 161.575 139 162.161C138.527 164.208 138.83 164.819 140.407 165.379ZM103.227 141.164C102.84 142.095 102.827 142.098 103.079 142.954C105.007 149.533 107.153 156.032 109.629 162.437C112.516 169.915 115.558 177.279 119.848 184.097C124.606 191.651 130.493 197.989 138.479 202.196C139.435 202.701 140.391 203.194 141.44 203.477C141.675 203.116 141.54 202.778 141.511 202.457C140.822 194.806 140.626 187.122 140.233 179.455C140.033 175.599 140.349 171.74 140.639 167.887C140.696 167.134 140.626 166.773 139.715 166.538C137.207 165.891 134.745 165.061 132.283 164.246C129.186 163.223 126.566 161.311 123.788 159.676C118.226 156.402 113.05 152.681 108.525 148.049C106.51 145.993 105.013 143.572 103.227 141.164ZM148.904 149.916L149.278 149.887C149.02 151.349 148.595 152.804 148.541 154.275C148.338 159.856 148.679 165.415 149.435 170.954C149.564 171.888 149.931 172.213 150.733 172.171C153.787 172.017 156.874 172.161 159.884 171.55C163.135 170.89 165.961 169.223 168.719 167.455C168.935 167.317 169.112 167.15 169.173 166.886C169.637 164.848 170.123 162.817 169.955 160.699C169.682 157.191 168.945 153.769 168.191 150.338C167.638 147.824 165.784 146.076 164.696 143.884C163.244 143.83 161.796 143.775 160.344 143.723C160.218 143.72 160.093 143.717 159.967 143.714C157.952 143.646 155.941 143.662 153.99 144.248C152.348 144.741 150.855 145.613 149.255 146.192C148.338 146.524 147.945 146.994 147.797 147.93C146.774 154.484 146.857 161.05 147.578 167.62C147.694 168.688 147.688 169.844 148.467 170.9C148.122 163.793 146.709 156.801 148.904 149.916ZM135.749 124.021C136.084 125.441 136.074 125.492 137.304 125.779C143.143 127.147 149.062 127.42 155.036 127.089C162.192 126.69 169.183 125.277 176.184 123.905C162.761 125.048 149.339 125.994 135.749 124.021ZM128.282 122.431C128.262 122.544 128.243 122.653 128.22 122.763C130.116 123.796 132.202 124.343 134.256 124.955C134.513 125.032 134.925 125.344 135.089 124.9C135.247 124.475 135.057 124.005 134.59 123.889C132.492 123.377 130.383 122.914 128.282 122.431ZM169.752 150.618C169.778 150.666 169.807 150.718 169.836 150.773C169.862 150.747 169.91 150.715 169.907 150.692C169.894 150.637 169.859 150.586 169.833 150.534C169.807 150.56 169.781 150.586 169.752 150.618Z" fill="#C1B28A"/>
<path d="M95.2956 63.7559C95.0542 62.6229 94.7903 61.4931 94.5843 60.3536C94.5167 59.9867 94.2624 59.3719 94.7903 59.2882C95.3632 59.1981 95.2248 59.8322 95.2924 60.2249C95.7688 63.0606 96.5284 65.7998 98.1088 68.2493C98.2408 68.4553 98.4565 68.6066 98.6335 68.7836C98.7236 68.9188 98.7912 69.1989 99.0036 68.9864C99.1421 68.848 99.068 68.6259 98.8491 68.5261C98.2633 66.5562 97.2494 64.7312 96.934 62.6647C96.8599 62.169 96.7762 61.7795 97.4168 61.4287C97.832 64.126 98.8846 66.5562 99.847 69.0186C100.31 70.2031 100.9 71.2685 102.11 71.8479C102.277 71.9284 102.454 72.1312 102.615 71.8383L102.586 71.8222C102.564 71.9734 102.538 72.144 102.721 72.1955C102.795 72.2181 102.902 72.128 102.995 72.0893L102.96 72.0861C102.734 72.7009 103.336 72.7781 103.613 72.9584C108.094 75.8328 112.918 77.0495 118.236 76.013C121.719 75.3371 125.04 74.1139 128.259 72.7363C131.542 71.3329 135.012 70.7922 138.382 69.8136C142.164 68.716 146.075 68.5551 149.938 68.0369C154.901 67.3738 159.832 68.0208 164.763 68.4167C168.929 68.7514 173.033 68.6549 176.789 66.6399C181.253 64.2451 184.17 60.6498 184.643 55.4031C184.707 54.6692 184.475 53.9933 184.289 53.3077C183.123 49.0332 181.173 45.1738 178.234 41.8327C177.172 40.6225 177.185 40.6321 176.106 41.7651C173.38 44.6266 170.287 47.089 167.367 49.7381C167.168 49.9183 166.914 50.0374 166.624 50.1018C167.158 49.0847 168.002 48.3572 168.829 47.6491C171.256 45.5697 173.602 43.4099 175.804 41.0988C176.061 40.8285 176.831 40.571 176.322 40.0817C175.765 39.5442 175.099 38.8489 174.146 39.3478C173.898 39.4766 173.702 39.7244 173.509 39.9433C170.612 43.2265 167.374 46.1459 163.997 48.9173C163.704 49.1555 163.437 49.4098 162.697 49.4548C166.511 45.9496 170.2 42.6664 173.541 38.7459C169.07 38.0861 164.767 37.2202 160.048 37.7899C161.268 36.496 162.604 36.1516 163.939 36.0454C167.557 35.7557 171.137 36.1484 174.684 36.8951C176.258 37.2266 177.552 38.0571 178.714 39.1161C183.107 43.1138 186.02 48.09 187.182 53.8259C187.887 57.3087 186.503 60.6562 184.215 63.5274C181.211 67.2966 177.32 69.5594 172.701 70.7085C171.545 70.9949 170.396 71.0561 169.212 71.0432C164.088 70.9885 159.034 69.7782 153.919 69.907C148.718 70.039 143.597 70.9306 138.492 72.0314C132.801 73.2577 127.49 75.556 121.979 77.2812C114.579 79.5955 107.813 78.5913 101.472 74.0624C94.0467 68.7547 90.2196 61.3997 88.7132 52.6092C88.0372 48.6533 88.5941 44.7489 89.0673 40.8349C89.4567 37.6129 90.3998 34.5325 91.5683 31.5165C91.8515 30.7859 92.1541 30.0359 92.933 29.6239C93.1744 29.4983 93.4223 29.376 93.6251 29.5112C93.9534 29.7301 93.5736 29.92 93.5253 30.1292C93.0779 32.1249 92.6369 34.1205 92.2184 36.1226C91.4073 39.9851 90.8247 43.8928 90.7829 47.8358C90.7217 53.5684 92.08 58.9695 95.096 63.9007C95.154 64.1132 95.3375 64.4737 95.4147 64.4061C95.6175 64.2258 95.6143 63.9265 95.2956 63.7559Z" fill="#C1B28A"/>
<path d="M179.853 197.426C179.464 197.857 179.023 197.68 178.643 197.686C173.396 197.776 168.143 197.548 162.9 197.944C159.169 198.227 155.574 199.196 151.953 200.03C151.483 200.139 151.009 200.419 150.797 199.817C150.575 199.19 151.116 198.893 151.595 198.742C154.022 197.963 156.497 197.342 159.011 196.949C165.101 195.993 171.211 196.161 177.313 196.898C178.15 197.001 179.029 196.866 179.853 197.426Z" fill="#C1B28A"/>
<path d="M261.053 113.67C260.947 111.342 260.767 109.064 260.754 106.781C260.731 102.845 259.1 99.5746 256.666 96.6487C254.567 94.1252 252.025 92.0523 249.53 89.9343C249.202 89.6543 248.593 89.3485 248.986 88.8624C249.327 88.4376 249.81 88.8174 250.193 89.0942C252.775 90.9675 255.279 92.9374 257.5 95.2324C261.04 98.889 262.47 103.283 261.948 108.33C261.79 109.868 261.649 111.407 261.504 112.949C261.475 113.232 261.51 113.541 261.053 113.67Z" fill="#C1B28A"/>
<path d="M191.08 256.371C190.8 256.851 190.443 256.706 190.137 256.664C183.713 255.769 177.281 254.971 170.77 255.19C166.875 255.322 163.045 255.885 159.259 256.79C158.828 256.893 158.394 257.134 158.191 256.629C157.965 256.062 158.477 255.84 158.909 255.679C161.126 254.862 163.473 254.717 165.787 254.446C169.669 253.996 173.577 253.986 177.468 254.205C181.672 254.44 185.866 254.855 189.957 255.953C190.337 256.056 190.691 256.223 191.08 256.371Z" fill="#C1B28A"/>
<path d="M143.877 99.053C143.146 99.9446 141.92 100.048 140.896 100.035C134.723 99.9542 128.71 99.0948 123.299 95.7924C122.948 95.5799 122.546 95.4029 122.54 94.6561C129.264 98.3996 136.351 99.9028 143.877 99.053Z" fill="#C1B28A"/>
<path d="M132.884 42.1031C133.589 40.6256 134.896 39.7726 136.055 38.8231C140.297 35.35 144.646 32.0057 148.734 28.346C148.859 28.2333 148.972 28.0852 149.12 28.0305C149.364 27.9372 149.651 27.6217 149.883 27.9694C150.079 28.2623 149.719 28.3846 149.558 28.5262C148.083 29.8363 146.645 31.1849 145.112 32.4209C141.337 35.4627 137.416 38.3242 133.766 41.5237C133.506 41.7522 133.18 41.9099 132.884 42.1031Z" fill="#C1B28A"/>
<path d="M243.051 103.946C244.583 105.14 245.413 106.582 245.867 108.284C246.704 111.432 245.478 114.162 244.097 116.85C243.946 117.143 243.772 117.696 243.308 117.419C243.038 117.258 243.344 116.837 243.46 116.563C244.168 114.918 244.776 113.219 245.053 111.471C245.407 109.24 244.457 107.232 243.466 105.285C243.289 104.937 242.948 104.65 243.051 103.946Z" fill="#C1B28A"/>
<path d="M138.984 41.44C143.587 37.4133 147.749 32.9231 152.436 29.009C148.357 33.599 143.925 37.806 138.984 41.44Z" fill="#C1B28A"/>
<path d="M189.419 53.9675C189.674 56.0951 189.696 58.2002 189.133 60.3085C188.425 62.9673 187.215 65.3266 185.396 67.3834C185.245 67.5573 185.135 67.8952 184.829 67.6989C184.437 67.4478 184.781 67.1806 184.92 66.9779C186.165 65.1174 187.488 63.3181 188.164 61.1229C188.727 59.2882 189.175 57.4567 189.12 55.5222C189.107 55.0072 188.956 54.4568 189.419 53.9675Z" fill="#C1B28A"/>
<path d="M185.734 262.635C180.896 262.168 176.055 261.698 171.217 261.232C171.237 261.067 171.253 260.903 171.272 260.739C176.158 260.829 180.993 261.431 185.802 262.265C185.779 262.387 185.757 262.513 185.734 262.635Z" fill="#C1B28A"/>
<path d="M145.499 28.5005C141.949 32.0315 138.189 35.3243 134.24 38.395C134.156 38.2985 134.069 38.2019 133.985 38.1086C137.7 34.7546 141.414 31.4006 145.129 28.0466C145.251 28.1947 145.377 28.346 145.499 28.5005Z" fill="#C1B28A"/>
<path d="M141.727 97.434C139.47 97.8364 137.565 97.5209 135.685 97.2763C133.429 96.9834 131.201 96.4684 128.964 96.0403C128.723 95.9952 128.498 95.8729 128.256 95.8085C128.008 95.7409 127.719 95.6862 127.809 95.3579C127.899 95.0199 128.147 95.1615 128.408 95.213C130.403 95.5961 132.405 95.9308 134.401 96.3074C136.364 96.6776 138.331 97.022 140.336 97.0735C140.694 97.0799 141.044 97.2505 141.727 97.434Z" fill="#C1B28A"/>
<path d="M165.114 194.104C163.341 194.197 161.567 194.281 159.797 194.39C159.053 194.435 158.294 194.332 157.57 194.632C157.36 194.719 157.022 194.77 156.897 194.516C156.736 194.187 157.061 193.975 157.261 193.798C157.83 193.293 158.593 193.315 159.272 193.225C161.261 192.964 163.202 193.347 165.124 193.795C165.118 193.898 165.114 194.001 165.114 194.104Z" fill="#C1B28A"/>
<path d="M162.179 250.307C165.346 248.907 168.739 248.736 172.138 248.614C172.16 248.743 172.186 248.868 172.208 248.997C168.89 249.567 165.571 250.133 162.253 250.703C162.227 250.571 162.201 250.439 162.179 250.307Z" fill="#C1B28A"/>
<path d="M186.803 260.202C185.39 260.044 183.977 259.902 182.567 259.725C181.411 259.58 180.259 259.397 179.11 259.22C178.827 259.175 178.453 259.104 178.431 258.795C178.402 258.377 178.814 258.412 179.087 258.425C181.74 258.554 184.311 259.091 186.848 259.825C186.832 259.95 186.819 260.076 186.803 260.202Z" fill="#C1B28A"/>
<path d="M172.386 49.3647C174.037 47.1533 176.174 45.4699 178.228 43.6996C178.363 43.8412 178.495 43.9861 178.63 44.1277L172.598 49.6157C172.527 49.532 172.457 49.4483 172.386 49.3647Z" fill="#C1B28A"/>
<path d="M162.739 45.5633C164.477 43.7801 166.196 42.0033 167.937 40.2426C168.111 40.0688 168.32 39.7244 168.648 39.9723C168.854 40.1268 168.742 40.3746 168.594 40.5259C166.82 42.3059 165.053 44.0955 163.016 45.589C162.967 45.6244 162.858 45.5762 162.739 45.5633Z" fill="#C1B28A"/>
<path d="M136.136 33.9113C136.197 33.0712 136.657 32.8523 136.969 32.5626C138.473 31.1817 140.005 29.8298 141.527 28.4683C141.704 28.3106 141.891 28.0434 142.136 28.317C142.325 28.5295 142.255 28.7934 142.039 28.9769C140.13 30.5766 138.222 32.1699 136.136 33.9113Z" fill="#C1B28A"/>
<path d="M102.96 72.086L102.995 72.0892C102.86 71.9991 102.721 71.9122 102.586 71.8221L102.615 71.8382C102.004 69.791 101.405 67.7407 100.768 65.7032C100.668 65.3813 100.404 64.9467 100.726 64.8244C101.17 64.6571 101.263 65.1302 101.369 65.5165C101.929 67.5347 102.531 69.5432 103.104 71.5581C103.153 71.7352 103.24 71.9766 102.96 72.086Z" fill="#C1B28A"/>
<path d="M146.027 39.8982C147.765 38.2308 149.316 36.3543 151.441 35.1022C149.793 36.8468 148.267 38.7104 146.262 40.0913L146.027 39.8982Z" fill="#C1B28A"/>
<path d="M152.461 37.8768C150.932 39.5377 149.3 41.0924 147.343 42.264C148.866 40.5903 150.44 38.9809 152.461 37.8768Z" fill="#C1B28A"/>
<path d="M138.994 94.8171C137.294 95.6829 133.599 95.3836 132.839 94.3761C134.861 94.5209 136.821 94.6626 138.994 94.8171Z" fill="#C1B28A"/>
<path d="M132.64 42.1158C132.501 42.6083 132.241 42.9753 131.61 43.0847C131.677 42.3701 132.238 42.3251 132.64 42.1158Z" fill="#C1B28A"/>
<path d="M166.444 50.1887C166.376 50.6136 166.151 50.8808 165.629 51.0159C165.645 50.3851 166.08 50.3239 166.444 50.1887Z" fill="#C1B28A"/>
<path d="M146.262 40.0881C146.182 40.2909 145.972 40.4776 145.828 40.3488C145.593 40.146 145.892 40.0237 146.024 39.8982C146.104 39.9626 146.185 40.0237 146.262 40.0881Z" fill="#C1B28A"/>
<path d="M133.77 38.7426C133.706 38.6525 133.619 38.5753 133.635 38.5431C133.673 38.4562 133.757 38.3918 133.821 38.3177C133.863 38.3692 133.944 38.4304 133.934 38.4658C133.905 38.5592 133.834 38.6396 133.77 38.7426Z" fill="#C1B28A"/>
<path d="M125.037 149.739C123.669 147.084 126.186 137.295 129.003 134.45C126.833 139.304 124.976 144.235 125.037 149.739Z" fill="#C1B28A"/>
<path d="M123.402 148.783C122.53 147.045 123.724 142.162 125.372 140.55C124.429 143.305 123.898 145.89 123.402 148.783Z" fill="#C1B28A"/>
<path d="M122.266 128.305C122.353 126.091 123.292 124.488 124.625 124.073C123.798 125.56 123.032 126.934 122.266 128.305Z" fill="#C1B28A"/>
<path d="M121.522 147.161C121.29 146.26 121.979 143.694 122.948 141.47C123.251 142.156 122.922 143.495 121.522 147.161Z" fill="#C1B28A"/>
<path d="M150.034 135.081C149.616 133.896 149.767 132.757 150.266 131.643C150.72 132.818 150.424 133.951 150.034 135.081Z" fill="#C1B28A"/>
<path d="M138.527 157.68C138.46 158.736 138.173 159.737 137.6 160.645C137.549 159.553 137.903 158.581 138.527 157.68Z" fill="#C1B28A"/>
<path d="M131.266 109.121C134.755 109.794 138.135 110.557 141.723 109.955C140.111 111.709 132.395 111.107 131.266 109.121Z" fill="#C1B28A"/>
<path d="M138.601 112.965C137.217 113.705 135.781 113.531 134.339 113.164C134.114 113.106 134.011 112.916 134.04 112.691C134.066 112.482 134.262 112.408 134.41 112.466C135.768 112.977 137.217 112.462 138.601 112.965Z" fill="#C1B28A"/>
<path d="M138.331 111.774C137.468 112.356 134.549 112.344 133.825 111.745C133.67 111.616 133.496 111.471 133.564 111.227C133.641 110.95 133.802 110.985 134.031 111.075C134.739 111.352 135.476 111.433 136.235 111.465C136.937 111.494 137.632 111.664 138.331 111.774Z" fill="#C1B28A"/>
<path d="M138.543 115.192C137.265 116.087 134.954 115.846 134.05 114.767C135.559 114.973 136.934 115.327 138.543 115.192Z" fill="#C1B28A"/>
<path d="M149.603 161.507C150.179 163.538 150.24 165.65 150.524 167.729C150.627 168.473 150.694 169.223 150.775 169.969C150.807 170.253 150.694 170.517 150.421 170.539C150.144 170.562 150.041 170.323 150.005 170.034C149.671 167.204 149.423 164.375 149.603 161.507Z" fill="#C1B28A"/>
<path d="M151.782 165.225C151.782 166.516 151.785 167.806 151.779 169.094C151.779 169.326 151.83 169.673 151.466 169.644C151.215 169.625 151.025 169.361 151.045 169.091C151.138 167.797 151.26 166.503 151.37 165.209C151.508 165.215 151.647 165.219 151.782 165.225Z" fill="#C1B28A"/>
</g>
<defs>
<clipPath id="clip0_208_1122">
<rect width="261.887" height="249.147" fill="white" transform="translate(19.1133 25.4265)"/>
</clipPath>
</defs>
</svg>
