<svg width="300" height="300" viewBox="0 0 300 300" fill="none" xmlns="http://www.w3.org/2000/svg">
<g clip-path="url(#clip0_208_1132)">
<path d="M211.145 59.1323C214.17 63.432 216.734 67.9862 217.594 73.2277C218.539 79.0021 219.838 84.722 220.117 90.6055C220.271 93.9121 220.604 97.2368 220.223 100.504C219.741 104.634 219.487 108.749 219.532 112.898C219.544 113.964 219.678 114.984 220.02 115.998C221.092 119.187 222.373 122.154 224.61 124.849C227.681 128.547 230.824 132.207 233.743 136.041C235.608 138.491 237.791 140.71 239.926 142.942C245.107 148.362 249.94 154.085 254.812 159.777C257.18 162.542 259.89 165.007 262.324 167.717C265.074 170.772 268.205 173.44 270.836 176.619C274.772 181.376 277.404 186.651 278.7 192.713C279.39 195.938 278.869 198.8 277.116 201.328C275.411 203.784 273.216 205.912 270.803 207.729C267.611 210.13 263.911 211.517 260.202 212.874C256.777 214.127 253.34 215.336 250.4 217.634C248.677 218.981 247.647 220.547 247.787 222.797C248.147 228.556 248.538 234.309 250.23 239.881C250.324 240.193 250.306 240.538 250.339 240.865H250.085C248.15 237.464 247.348 233.719 246.775 229.909C246.539 228.323 246.385 226.721 246.164 225.131C245.885 223.121 246.188 221.161 246.794 219.266C247.211 217.958 248.471 217.295 249.498 216.565C252.81 214.212 256.568 212.816 260.404 211.517C264.326 210.188 268.071 208.386 271.357 205.752C272.523 204.819 273.595 203.802 274.548 202.688C276.75 200.12 277.552 197.243 276.683 193.818C275.805 190.354 274.573 187.048 272.956 183.896C270.921 179.929 268.435 176.313 264.959 173.37C262.285 171.105 259.85 168.55 257.482 165.936C252.901 160.886 248.747 155.472 244.205 150.394C240.904 146.706 237.731 142.905 234.379 139.257C231.408 136.026 228.522 132.698 225.74 129.294C224.438 127.702 223.23 125.997 222.1 124.295C219.142 119.838 217.9 114.933 218.382 109.44C218.745 105.285 219.563 101.122 219.251 96.934C218.884 92.0619 218.703 87.1687 217.658 82.3571C216.989 79.2776 216.837 76.077 216.071 73.0278C215.075 69.049 213.785 65.1338 211.778 61.5032C211.369 60.7674 210.878 60.0285 210.887 59.1232H211.145V59.1323Z" fill="#C1B28A"/>
<path d="M46.769 138.684L48.3284 140.189C46.4147 139.826 45.3882 138.148 43.856 137.249C43.9469 138.233 44.8159 138.554 45.2126 139.375C43.5381 139.223 43.2111 136.689 41.2156 137.361C41.6395 138.512 42.7327 139.372 42.7932 140.755C42.0029 139.723 41.1884 138.702 40.4374 137.643C40.2345 137.355 40.0014 137.149 39.744 137.294C39.3655 137.509 39.744 137.794 39.8076 138.054C39.9439 138.603 40.4919 139.036 40.2648 139.756C39.6289 139.193 39.2504 138.484 38.9931 137.782C38.7205 137.043 38.2633 137.007 37.6335 137.007C37.0733 137.007 36.937 137.264 37.1066 137.703C37.367 138.391 37.3337 139.066 37.2217 139.98C36.6524 139.181 36.6887 138.424 36.5434 137.73C36.4647 137.355 36.7069 136.855 36.0226 136.78C35.3867 136.71 35.1142 136.946 34.99 137.57C34.878 138.139 34.6206 138.678 34.4147 139.257C33.6365 138.418 35.208 137.231 33.8818 136.498C33.5941 137.079 33.9151 137.679 33.5487 138.227C32.8886 137.755 33.5971 136.849 33.0158 136.562C32.5161 136.313 31.8288 136.171 31.3019 136.301C29.8 136.671 31.4321 137.83 30.8174 138.491C30.3602 138.197 30.2451 137.709 30.1785 137.213C30.012 135.983 28.9552 135.538 27.9559 136.329C27.5411 136.656 27.208 137.092 26.5661 137.252C26.6478 136.553 27.3746 136.377 27.5562 135.82C27.0384 135.674 26.6509 135.826 26.1845 136.111C24.4919 137.143 22.7417 138.085 21.0127 139.06C21.0127 138.89 21.0127 138.721 21.0127 138.551C22.554 137.516 24.1376 136.55 25.7758 135.614C24.9764 135.535 24.2466 135.381 23.5502 134.902C24.6554 135.263 25.7061 134.736 26.7599 134.842C27.9438 134.963 29.1308 134.893 30.3087 134.999C36.2164 135.532 42.1634 135.693 48.0165 136.774C48.7917 136.916 49.4821 137.025 50.0907 137.858C50.5964 138.545 51.844 138.693 52.7736 139.06C55.1657 139.995 57.5609 140.922 59.956 141.843C60.1559 141.918 60.3678 141.945 60.4496 142.43C56.5192 141.291 52.7736 139.944 49.0279 138.518C50.1967 139.562 51.7349 140.095 52.7645 141.334C50.7266 140.625 49.0006 139.281 46.9931 138.527C46.8629 138.315 46.7448 138.064 46.445 138.333C46.5661 137.706 46.4056 137.406 45.5729 137.682C45.9454 137.939 46.2028 138.118 46.4632 138.297C46.5661 138.421 46.6691 138.554 46.769 138.684Z" fill="#C1B28A"/>
<path d="M21.0098 97.8213C22.7206 97.7032 24.3981 97.2308 26.1271 97.3095C26.442 97.3247 26.76 97.3549 27.0961 97.6729C25.0673 97.8909 23.0385 98.1119 21.0098 98.33V97.8213Z" fill="#C1B28A"/>
<path d="M63.1447 60.5342C63.9714 61.1913 64.2712 62.1663 64.7768 62.9838C67.3204 67.105 68.6164 71.6864 69.6156 76.3647C70.3968 80.0164 71.4021 83.647 71.8321 87.3442C72.3257 91.5835 72.3984 95.8893 72.0592 100.165C71.7595 103.95 72.0925 107.705 72.4529 111.456C72.5679 112.665 73.1039 113.809 73.7277 114.869C76.5922 119.726 80.0744 124.135 84.4771 127.626C87.9291 130.36 91.2175 133.279 94.6119 136.074C96.9859 138.027 99.2266 140.174 100.765 142.945C101.561 144.38 102.648 145.649 103.578 147.011C105.519 149.858 106.76 153.04 108.096 156.192C109.625 159.802 111.16 163.426 112.992 166.881C114.663 170.033 117.116 172.674 119.666 175.16C123.487 178.887 126.512 183.084 127.754 188.359C128.432 191.248 128.744 194.197 128.692 197.17C128.668 198.606 127.817 199.711 127.087 200.816C124.25 205.128 120.199 207.941 115.587 210.091C112.187 211.675 108.798 213.307 105.531 215.142C103.275 216.407 101.573 218.436 99.811 220.307C98.1062 222.115 98.4363 224.32 99.0086 226.509C100.005 230.321 101.534 233.931 103.093 237.534C103.16 237.691 103.275 237.815 103.127 238.003C102.633 238.191 102.627 237.7 102.479 237.47C100.005 233.558 98.1395 229.334 96.9859 224.883C96.3076 222.264 97.216 219.659 99.0903 217.631C100.907 215.666 102.963 213.934 105.364 212.698C109.304 210.666 113.328 208.795 117.219 206.678C120.202 205.055 122.891 203.002 125.043 200.295C126.373 198.621 127.066 196.949 126.751 194.712C126.464 192.671 126.333 190.594 125.988 188.553C125.192 183.835 122.536 180.214 119.09 177.055C116.405 174.594 113.903 171.947 111.76 168.989C110.884 167.78 110.373 166.382 109.755 165.046C108.074 161.416 106.209 157.87 104.853 154.085C103.763 151.048 101.958 148.38 100.162 145.712C98.1153 142.672 95.8897 139.771 93.0192 137.503C89.7671 134.933 86.8026 132.041 83.5384 129.476C80.0169 126.711 76.898 123.429 74.3817 119.659C73.1644 117.836 71.7049 116.156 70.9782 114.033C70.6482 113.073 70.4059 112.107 70.3211 111.078C69.8942 106.042 69.9305 101.016 70.2909 95.9741C70.6391 91.1081 70.2303 86.2996 69.225 81.4881C68.4286 77.6788 67.8957 73.809 66.8298 70.0543C66.0062 67.1534 64.6315 64.4736 63.4233 61.7302C63.2719 61.3911 62.8207 61.1004 63.1447 60.5342Z" fill="#C1B28A"/>
<path d="M75.738 216.78C75.3443 216.362 75.6532 215.968 75.3262 215.826C74.2573 221.479 73.0097 227.099 71.4473 232.78C70.8386 232.12 71.3867 231.675 71.42 231.205C71.4533 230.715 71.5805 230.224 71.7016 229.743C72.9916 224.532 74.0453 219.272 74.9325 213.979C75.0506 213.277 74.9537 212.538 75.0052 211.82C75.0355 211.432 74.987 210.818 75.5563 210.89C75.9469 210.939 75.9136 211.469 75.844 211.865C75.7319 212.489 75.6744 213.119 75.8137 213.8C76.4738 212.068 76.2618 210.176 77.1097 208.547C77.3065 208.171 76.8917 208.065 76.7463 207.853C73.467 203.002 73.8152 197.982 76.0287 192.871C76.0529 192.819 76.174 192.807 76.2891 192.762C76.601 192.949 76.492 193.213 76.4284 193.498C75.5472 197.464 75.2929 201.422 76.7584 205.313C77.9575 208.498 81.1218 210.766 84.2225 210.554C86.0151 210.433 87.5351 209.44 89.0734 208.574C91.7925 207.042 94.1483 204.94 96.9583 203.551C99.5897 202.252 102.191 200.883 104.825 199.605C107.877 198.124 111.187 197.528 114.618 198.781C115.411 199.072 116.098 199.52 116.868 199.829C117.897 200.244 117.9 201.186 117.585 202.088C116.749 204.477 114.718 205.51 112.507 205.946C109.285 206.582 106.006 206.863 102.693 206.697C99.1112 206.515 95.7501 207.511 92.598 209.14C90.5329 210.206 88.3345 210.927 86.1907 211.778C83.8621 212.704 81.7516 211.769 79.6835 210.727C79.2081 211.432 79.4079 212.42 78.657 213.458C78.7236 212.395 78.7932 211.717 79.0052 211.027C79.1142 210.669 79.2384 210.037 78.7115 209.952C78.339 209.894 78.3421 210.467 78.2724 210.827C78.0907 211.778 78.0241 212.771 77.2974 213.852C77.2641 212.023 78.0272 210.527 77.8636 208.974C77.7486 208.959 77.6365 208.94 77.5215 208.925C77.2641 210.23 77.0309 211.545 76.7372 212.84C76.4496 214.118 76.0953 215.384 75.738 216.78ZM112.438 203.505C113.331 202.954 114.064 202.273 114.472 201.077C113.618 201.909 112.904 202.609 112.189 203.305C112.111 203.423 112.032 203.541 111.953 203.66C112.165 203.769 112.326 203.714 112.438 203.505ZM104.201 201.628C102.884 202.258 101.537 202.833 100.259 203.532C99.5745 203.908 98.8054 204.244 98.4057 205.004C98.2967 204.847 98.2149 204.992 98.1271 205.034C98.1211 205.037 98.1362 205.128 98.1514 205.131C98.2755 205.152 98.3815 205.137 98.3875 204.974C100.041 205.077 101.661 204.51 103.32 204.719C103.562 204.75 103.72 204.619 103.856 204.459C104.977 203.13 106.091 201.797 107.423 200.211C105.727 200.843 105.104 202.348 103.796 203.069C103.638 202.382 104.226 202.209 104.413 201.825C104.562 201.67 104.898 201.54 104.728 201.313C104.643 201.201 104.319 201.407 104.201 201.628ZM108.425 204.52C109.491 204.383 110.321 204.438 110.948 203.711C111.723 202.815 112.544 201.964 113.322 201.074C113.534 200.831 114.088 200.565 113.697 200.22C113.382 199.938 112.877 199.711 112.383 200.274C111.169 201.664 109.867 202.984 108.425 204.52ZM104.547 204.91C106.927 203.962 108.026 201.628 109.682 199.881C107.396 200.928 106.076 203.021 104.547 204.91ZM106.709 204.695C107.944 204.199 108.707 203.227 109.376 202.149C108.486 202.996 107.596 203.844 106.709 204.695ZM109.146 202C110 201.249 110.736 200.601 111.475 199.95C110.403 200.241 109.891 201.131 109.146 202ZM115.496 202.863C116.428 202.457 116.622 201.737 116.286 200.535C115.944 201.452 115.893 202.215 115.496 202.863Z" fill="#C1B28A"/>
<path d="M225.967 204.789C225.816 207.657 225.9 210.17 225.713 212.683C225.113 220.638 223.968 228.468 221.234 236.005C221.037 236.55 220.88 237.107 220.674 237.649C220.595 237.855 220.55 238.221 220.183 238.04C219.95 237.925 220.068 237.673 220.105 237.47C220.71 233.834 221.655 230.273 222.464 226.682C223.336 222.809 223.699 218.866 224.144 214.93C224.495 211.814 224.48 208.677 224.75 205.57C224.913 203.702 224.871 201.788 225.231 199.977C225.473 198.766 225.519 197.507 225.903 196.323C226.115 195.672 226.436 195.127 227.414 194.969C226.76 196.471 226.485 197.918 226.076 199.326C225.758 200.423 225.703 201.425 226.152 202.488C226.881 204.205 227.26 206.088 228.716 207.442C230.866 209.44 233.21 210.288 236.126 209.164C240.123 207.626 243.557 205.14 247.169 202.93C251.051 200.556 255.027 198.264 259.863 198.612C261.549 198.733 263.248 198.945 264.783 199.65C266.809 200.583 267.863 202.118 265.352 203.968C263.526 205.313 261.383 205.246 259.324 205.473C256.532 205.779 253.782 204.983 250.993 204.904C249.694 204.868 248.456 205.004 247.311 205.561C244.838 206.769 242.4 208.047 239.953 209.304C236.438 211.111 232.916 211.281 229.404 209.313C227.735 208.377 226.736 206.869 225.967 204.789ZM260.626 203.408C261.361 203.59 261.779 203.121 262.294 202.866C262.627 202.703 262.894 201.597 263.478 202.654C263.511 202.712 263.732 202.715 263.841 202.675C264.235 202.524 264.695 202.312 264.768 201.906C264.841 201.501 264.365 201.334 264.032 201.186C263.766 201.068 263.484 200.974 263.199 200.916C259.187 200.117 255.484 200.889 251.835 203.266C253.168 203.063 254.23 203.414 255.308 203.42C256.38 203.426 256.862 202.058 258.155 201.961C257.691 202.757 256.804 202.872 256.562 203.693C258.115 203.672 258.848 202.049 260.32 201.773C260.008 202.748 258.918 202.83 258.491 203.756C260.274 203.42 261.18 201.709 263.036 201.146C262.282 202.221 261.31 202.615 260.626 203.408Z" fill="#C1B28A"/>
<path d="M196.853 143.677C196.762 144.783 196.22 143.989 195.969 143.838C194.303 142.827 192.932 141.452 191.515 140.132C191.027 139.677 190.531 139.229 190.037 138.778L190.04 138.811C190.061 138.433 189.668 138.385 189.513 138.142L189.483 138.136C189.386 137.131 188.789 136.892 187.872 137.001C187.257 137.073 186.63 137.016 185.746 137.016C187.611 139.568 189.686 141.7 191.23 144.631C190.134 144.059 189.559 143.411 189.083 142.718C187.811 140.858 185.892 139.456 185.156 137.213C185.083 136.989 185.023 137.007 183.581 137.079C185.374 139.578 187.115 142.003 188.856 144.428C188.768 144.498 188.677 144.568 188.59 144.637C186.909 143.202 185.462 141.534 184.114 139.783C183.509 138.996 182.7 138.309 182.603 137.21C182.576 136.88 182.337 136.813 182.055 136.858C181.646 136.928 181.813 137.201 181.852 137.434C182.155 139.151 182.939 140.704 183.551 142.3C183.178 142.551 183.063 142.303 182.915 142.091C181.976 140.746 181.235 139.296 180.895 137.697C180.783 137.17 180.692 137.001 180.153 137.01C179.412 137.022 179.593 137.546 179.636 137.903C179.802 139.314 180.026 140.719 180.217 142.13C180.232 142.239 180.163 142.357 180.075 142.69C179.281 141.531 179.063 140.338 178.861 139.184C178.748 138.548 178.415 137.903 178.703 137.195C178.909 136.686 178.415 136.837 178.179 136.795C177.68 136.701 177.371 136.864 177.328 137.431C177.234 138.639 177.11 139.844 176.983 141.176C176.347 140.828 176.269 140.377 176.275 139.871C176.281 139.193 176.338 138.506 176.25 137.839C176.205 137.488 176.68 136.904 176.096 136.816C175.512 136.731 174.8 136.468 174.3 137.264C173.87 137.948 173.452 138.712 172.553 139.145C172.399 138.227 173.135 137.652 173.159 136.849C172.465 137.079 171.763 137.037 171.036 137.001C171.142 136.353 171.666 136.625 171.996 136.486C174.3 135.52 176.671 135.971 179.015 136.165C180.829 136.313 182.618 136.053 184.417 136.008C186.04 135.965 187.618 136.289 189.231 136.301C191.054 136.316 192.832 136.84 194.679 136.825C195.369 136.819 196.105 137.316 196.747 137.703C197.595 138.212 197.904 137.93 198.282 137.104C199.627 134.176 200.12 131.042 200.732 127.923C201.374 124.643 200.584 121.449 200.338 118.224C200.19 116.268 200.154 114.297 199.705 112.283C200.671 112.51 200.568 113.349 200.653 113.821C201.386 117.879 202.34 121.945 201.964 126.091C201.607 130.048 200.932 133.985 199.233 137.64C198.827 138.512 199.03 138.799 199.854 139.148C201.749 139.953 203.618 140.834 205.177 142.236C205.328 142.372 205.559 142.451 205.477 142.945C201.976 141.528 198.512 140.126 195.051 138.724C196.19 140.419 198.001 141.201 199.4 142.518C196.741 141.849 194.633 140.177 192.417 138.705C192.308 138.645 192.199 138.587 192.087 138.527C192.032 138.324 191.814 138.233 191.717 138.333C191.472 138.6 191.881 138.587 191.942 138.736C191.981 138.811 192.038 138.872 192.114 138.914C193.453 140.347 194.791 141.782 196.093 143.178C196.686 142.842 195.89 142.457 196.362 142.254C196.774 142.076 196.923 142.484 197.122 142.693C201.141 146.869 203.506 151.905 204.795 157.494C204.859 157.764 204.929 158.033 204.817 158.391C202.942 153.034 200.895 147.774 197.053 143.475C196.883 143.363 196.78 142.933 196.535 143.217C196.293 143.484 196.641 143.587 196.853 143.677ZM194.894 138.672C194.758 138.596 194.621 138.518 194.482 138.457C194.473 138.454 194.367 138.639 194.373 138.642C194.494 138.733 194.627 138.811 194.758 138.893C194.797 138.827 194.839 138.76 194.894 138.672Z" fill="#C1B28A"/>
<path d="M50.454 135.048C50.7932 132.925 51.102 130.984 51.4109 129.046C51.4502 128.798 51.5229 128.553 51.5441 128.301C51.6864 126.439 51.5683 126.318 49.7152 126.33C49.3397 126.333 48.9673 126.33 48.5676 126.209C49.3458 125.727 50.233 125.615 51.105 125.582C51.6592 125.561 51.8075 125.41 51.8136 124.861C51.8621 121.016 51.7409 117.204 50.9234 113.413C50.6236 112.017 50.3632 110.654 49.7243 109.373C49.4941 108.913 49.3034 108.758 48.6947 108.874C46.0695 109.373 43.6561 110.424 41.2489 111.62C41.2277 111.453 41.1913 111.347 41.2155 111.332C43.6834 109.637 46.3935 108.589 49.373 108.232C49.9726 108.159 50.1876 108.359 50.4237 108.943C51.9317 112.71 52.6887 116.631 52.8462 120.662C53.0188 125.128 53.0248 129.597 51.2988 133.849C51.1474 134.221 51.099 134.66 50.454 135.048Z" fill="#C1B28A"/>
<path d="M170 129.067C170.648 127.129 172.166 125.954 173.637 124.825C179.823 120.089 186.718 116.571 193.776 113.355C194.249 113.14 194.77 113.028 195.284 112.864C195.433 113.422 195.039 113.473 194.755 113.594C187.366 116.737 180.347 120.534 173.913 125.37C172.471 126.457 171.118 127.647 170 129.067Z" fill="#C1B28A"/>
<path d="M88.1379 176.874C83.0175 181.025 77.9093 184.91 72.9645 189.183C72.8555 188.565 73.231 188.232 73.5822 187.944C78.0183 184.335 82.4573 180.734 86.9146 177.149C87.1689 176.946 87.4687 176.641 88.1379 176.874Z" fill="#C1B28A"/>
<path d="M189.482 138.136L189.513 138.142C189.382 138.606 189.419 138.939 190.039 138.811L190.036 138.778C189.552 139.111 190.003 139.329 190.152 139.55C191.018 140.843 191.905 142.118 192.768 143.411C192.886 143.59 193.228 143.729 192.874 144.186C191.98 143.605 191.281 142.784 190.575 142.006C189.613 140.943 188.759 139.786 188.059 138.53C187.874 138.2 187.444 137.77 187.896 137.4C188.444 136.952 188.695 137.534 188.98 137.867C189.116 138.027 189.225 138.209 189.482 138.136Z" fill="#C1B28A"/>
<path d="M212.874 93.897C213.234 94.9689 212.426 95.6411 211.839 96.3254C210.04 98.4178 208.35 100.656 205.616 101.667C205.25 101.803 204.765 102.215 204.532 101.676C204.241 101.007 205.016 101.143 205.307 101.007C208.608 99.4473 210.785 96.7251 212.874 93.897Z" fill="#C1B28A"/>
<path d="M56.5498 157.806C55.8079 157.528 55.8382 156.901 55.6596 156.474C54.2364 153.11 52.7042 149.803 50.8692 146.642C50.7088 146.366 50.4786 146.094 50.5271 145.718C50.5513 145.519 50.6361 145.41 50.8299 145.391C51.0267 145.373 51.1387 145.352 51.272 145.634C52.7678 148.819 54.5119 151.89 55.6838 155.226C55.9715 156.038 56.4135 156.804 56.5498 157.806Z" fill="#C1B28A"/>
<path d="M204.065 100.316C207.263 97.482 208.647 93.8423 210.049 90.2814C210.418 90.6447 210.576 91.0535 210.276 91.759C209.183 94.3298 208.032 96.8794 206.33 99.1171C205.846 99.753 205.24 100.362 204.065 100.316Z" fill="#C1B28A"/>
<path d="M204.55 86.1754C205.495 87.0111 205.531 88.0043 205.664 88.8794C206.082 91.6289 206.364 94.3935 205.552 97.1338C205.495 97.3306 205.395 97.5123 205.322 97.7031C205.177 98.0876 205.004 98.6842 204.565 98.5025C203.899 98.2269 204.586 97.8302 204.692 97.5093C205.57 94.8386 205.373 92.1073 205.14 89.3851C205.052 88.3798 204.78 87.3927 204.55 86.1754Z" fill="#C1B28A"/>
<path d="M55.063 123.747C54.3848 122.775 54.5392 121.703 54.4029 120.71C53.9578 117.41 53.4824 114.13 52.3923 110.969C52.3378 110.814 52.2985 110.636 52.3136 110.478C52.3409 110.224 51.8564 109.87 52.3409 109.749C52.6951 109.661 52.7345 110.106 52.8435 110.397C53.5248 112.229 53.9427 114.136 54.2667 116.047C54.6512 118.312 54.8511 120.607 55.1145 122.893C55.1478 123.169 55.0812 123.459 55.063 123.747Z" fill="#C1B28A"/>
<path d="M200.296 86.0331C201.15 86.2178 201.477 86.6447 201.695 87.0626C203.263 90.0482 204.356 93.158 204.029 96.613C203.99 97.0369 204.017 97.6274 203.46 97.4972C203.03 97.3972 203.381 96.8885 203.427 96.5403C203.721 94.242 203.109 92.08 202.349 89.9513C201.88 88.6372 201.307 87.3654 200.296 86.0331Z" fill="#C1B28A"/>
<path d="M197.31 86.3814C198.352 86.345 198.727 86.9779 199.075 87.5048C200.393 89.4972 201.21 91.7258 201.967 93.9726C202.046 94.2058 202.028 94.4753 202.052 94.7266C202.073 94.9446 202.052 95.1717 201.816 95.2474C201.401 95.3776 201.449 94.9688 201.389 94.7872C200.838 93.0945 200.296 91.4018 199.517 89.7879C198.954 88.61 198.391 87.4472 197.31 86.3814Z" fill="#C1B28A"/>
<path d="M181.758 91.202C182.794 90.7629 183.684 90.9749 184.608 91.1838C187.115 91.7531 189.571 92.4949 191.978 93.3852C192.329 93.5154 192.992 93.5971 192.741 94.1391C192.553 94.5479 192.075 94.124 191.736 94.018C189.086 93.2065 186.497 92.2133 183.784 91.5896C183.16 91.4472 182.464 91.7137 181.758 91.202Z" fill="#C1B28A"/>
<path d="M33.7153 90.4389C35.5897 89.1883 42.8145 90.6024 44.5889 92.4404C41.1309 91.4412 37.7153 90.1906 33.7153 90.4389Z" fill="#C1B28A"/>
<path d="M40.1045 86.9689C42.857 86.0605 49.7608 89.4276 50.1515 92.2467C47.62 89.0794 44.1681 87.6502 40.1045 86.9689Z" fill="#C1B28A"/>
<path d="M85.458 181.485C85.0916 182.669 76.5042 189.149 75.2627 189.255C78.6601 186.663 82.0576 184.074 85.458 181.485Z" fill="#C1B28A"/>
<path d="M189.171 88.1195C190.421 88.3799 191.409 88.8614 192.414 89.3186C193.901 89.9969 195.351 90.7418 196.753 91.5836C197.231 91.8712 197.631 92.2376 197.934 92.6948C198.01 92.8069 198.01 93.0279 197.952 93.1581C197.861 93.364 197.674 93.3004 197.534 93.1793C195.139 91.096 192.205 89.9636 189.425 88.5586C189.362 88.5283 189.34 88.4223 189.171 88.1195Z" fill="#C1B28A"/>
<path d="M81.9004 175.629C82.7361 174.648 83.8262 174.115 84.777 173.422C87.042 171.775 89.3493 170.182 91.6324 168.562C91.914 168.362 92.2744 168.062 92.4863 168.426C92.7649 168.904 92.126 168.886 91.914 169.037C88.883 171.184 85.8247 173.295 82.7846 175.429C82.5363 175.602 82.3485 175.817 81.9004 175.629Z" fill="#C1B28A"/>
<path d="M255.406 198.382C257.329 196.559 264.39 197.516 266.113 199.605C264.493 198.899 262.818 198.312 261.08 198.151C259.306 197.988 257.498 197.94 255.406 198.382Z" fill="#C1B28A"/>
<path d="M172.35 131.814C175.384 129.876 178.733 128.571 182.009 127.117C182.07 127.235 182.131 127.357 182.191 127.475C178.991 129.046 175.793 130.618 172.592 132.189L172.35 131.814Z" fill="#C1B28A"/>
<path d="M55.1175 88.7402C56.4862 91.4927 57.0797 94.2997 56.3893 97.2671C56.3257 97.5457 56.1773 97.8152 56.0198 98.0544C55.9532 98.1543 55.8382 98.3663 55.6202 98.2391C55.4627 98.1453 55.3749 98.0272 55.4536 97.8334C56.5952 94.9628 55.9108 92.1619 55.1236 89.364C55.0691 89.1732 55.1175 88.9492 55.1175 88.7402Z" fill="#C1B28A"/>
<path d="M53.6759 94.4056C53.6305 90.666 51.9772 87.7652 49.9424 84.9552C51.193 85.2307 53.4488 88.9522 54.0544 91.8318C54.2149 92.5949 54.9356 93.5608 53.6759 94.4056Z" fill="#C1B28A"/>
<path d="M45.6821 84.8795C47.7896 85.1672 52.8525 91.5169 52.3619 93.2368C50.7086 89.9969 48.4013 87.2868 45.6821 84.8795Z" fill="#C1B28A"/>
<path d="M31.4473 92.2345C34.769 91.4472 37.9212 92.2285 41.0642 93.1066C37.8636 92.7886 34.6812 92.289 31.4473 92.2345Z" fill="#C1B28A"/>
<path d="M195.184 93.6426C193.552 92.8462 192.177 92.1164 190.754 91.4957C189.325 90.8719 187.884 90.2633 186.042 89.8818C188.341 89.4518 194.333 91.9317 195.184 93.6426Z" fill="#C1B28A"/>
<path d="M38.6147 88.7221C40.5678 88.607 42.4028 89.1248 44.1954 89.8273C45.1946 90.2179 46.212 90.5752 47.0932 91.2051C47.287 91.3444 47.5716 91.5472 47.4232 91.8137C47.293 92.0499 46.9902 92.0347 46.7541 91.8743C44.3771 90.2603 41.6518 89.5639 38.9145 88.8917C38.8085 88.8674 38.7147 88.7796 38.6147 88.7221Z" fill="#C1B28A"/>
<path d="M91.0989 171.877C88.0527 174.027 85.2791 176.368 82.2935 178.709C82.7931 177.27 89.9301 171.75 91.0989 171.877Z" fill="#C1B28A"/>
<path d="M60.2042 90.6235C61.0006 91.4017 60.7675 92.2284 60.6887 92.9127C60.4283 95.1504 59.9408 97.3427 58.6993 99.2867C58.5449 99.5289 58.3784 99.7772 58.1724 99.9771C57.9847 100.159 57.7727 100.558 57.4669 100.253C57.0975 99.8862 57.6335 99.8015 57.7788 99.6167C59.3715 97.5607 59.9105 95.1413 60.1952 92.6402C60.2648 92.0376 60.2042 91.4169 60.2042 90.6235Z" fill="#C1B28A"/>
<path d="M203.402 123.481C203.266 122.509 203.072 121.54 203.009 120.562C202.863 118.263 202.452 116.014 201.94 113.776C201.891 113.564 201.564 113.316 201.97 113.185C202.258 113.095 202.421 113.367 202.476 113.609C202.718 114.748 203.006 115.88 203.154 117.031C203.409 118.984 203.572 120.949 203.763 122.911C203.781 123.102 203.717 123.299 203.693 123.493C203.596 123.493 203.499 123.487 203.402 123.481Z" fill="#C1B28A"/>
<path d="M79.2021 175.396C81.9728 173.288 84.7404 171.184 87.511 169.076L87.7775 169.416C85.2279 171.808 82.215 173.606 79.4535 175.729C79.3717 175.617 79.2869 175.505 79.2021 175.396Z" fill="#C1B28A"/>
<path d="M54.978 111.611C56.271 114.796 56.7585 118.118 56.704 121.537C56.2347 118.209 55.5352 114.92 54.978 111.611Z" fill="#C1B28A"/>
<path d="M175.399 126.121C175.375 125.697 175.605 125.54 175.784 125.425C177.803 124.11 179.835 122.808 181.876 121.522C182.112 121.373 182.442 120.976 182.715 121.458C182.966 121.9 182.497 121.961 182.261 122.109C180.035 123.511 177.825 124.943 175.399 126.121Z" fill="#C1B28A"/>
<path d="M81.3582 200.226C80.9343 199.232 81.0251 198.512 81.1008 197.858C81.3128 196.008 81.4975 194.142 82.1001 192.359C82.203 192.056 82.3605 191.768 82.5301 191.499C82.5694 191.438 82.7632 191.432 82.8692 191.463C83.06 191.517 83.0691 191.623 82.9843 191.829C82.2454 193.609 82.0093 195.496 81.7186 197.382C81.5914 198.212 81.7791 199.06 81.3582 200.226Z" fill="#C1B28A"/>
<path d="M193.41 86.9567C196.117 88.0407 197.879 90.1603 199.602 92.3163C199.735 92.4798 199.775 92.7371 199.611 92.9007C199.408 93.1035 199.22 92.934 199.099 92.7614C197.531 90.4994 195.62 88.5767 193.41 86.9567Z" fill="#C1B28A"/>
<path d="M225.913 218.845C225.834 216.147 226.24 213.479 226.415 210.8C226.428 210.591 226.437 210.354 226.724 210.351C226.921 210.351 227.033 210.5 227.018 210.685C226.773 213.413 226.518 216.141 226.267 218.869C226.152 218.863 226.031 218.854 225.913 218.845Z" fill="#C1B28A"/>
<path d="M58.3241 91.9772C59.3264 94.8629 58.3271 98.5177 56.147 99.4291C57.9638 97.0824 58.2999 94.5782 58.3241 91.9772Z" fill="#C1B28A"/>
<path d="M181.095 92.6434C183.95 92.6525 186.636 93.3399 189.17 94.6631C186.448 94.106 183.808 93.2309 181.095 92.6434Z" fill="#C1B28A"/>
<path d="M267.454 199.232C265.131 197.846 262.839 196.898 260.075 196.671C261.885 195.753 266.488 197.385 267.454 199.232Z" fill="#C1B28A"/>
<path d="M185.113 95.7409C182.812 94.8992 180.389 94.5206 178.037 93.8848C180.559 93.8878 183 94.1967 185.113 95.7409Z" fill="#C1B28A"/>
<path d="M174.445 95.7289C176.332 94.869 180.353 95.5018 181.825 96.8735C179.317 96.2951 177.077 95.8228 174.445 95.7289Z" fill="#C1B28A"/>
<path d="M76.4316 191.196C78.1031 189.228 80.0804 187.614 82.2061 186.173C80.5346 188.144 78.5331 189.724 76.4316 191.196Z" fill="#C1B28A"/>
<path d="M36.2498 94.245C33.7305 94.2026 31.2324 93.8029 28.707 93.9664C31.2475 93.0974 33.7517 93.6545 36.2498 94.245Z" fill="#C1B28A"/>
<path d="M31.7894 96.0256C28.9218 96.0165 26.2239 95.965 23.4048 96.5464C24.6372 95.4684 30.4207 95.1051 31.7894 96.0256Z" fill="#C1B28A"/>
<path d="M45.9275 107.905C43.7958 108.71 41.9245 110.067 39.7383 110.708C41.7337 109.606 43.493 107.995 45.9275 107.905Z" fill="#C1B28A"/>
<path d="M64.0591 99.0294C62.2029 100.462 60.5345 101.467 58.5723 101.945C58.2907 102.015 58.0666 102.036 57.9697 101.739C57.9092 101.555 58.0666 101.44 58.2483 101.406C60.1257 101.061 61.7033 100.071 63.2839 99.087C63.3778 99.0324 63.5261 99.0658 64.0591 99.0294Z" fill="#C1B28A"/>
<path d="M59.6079 112.129C60.6435 114.088 61.022 116.229 61.4096 118.369C60.4891 116.38 59.8653 114.306 59.6079 112.129Z" fill="#C1B28A"/>
<path d="M176.989 98.121C174.991 97.7819 172.989 97.4427 170.991 97.1036C173.104 96.6978 175.088 97.1097 177.053 97.6396C177.035 97.8 177.01 97.9605 176.989 98.121Z" fill="#C1B28A"/>
<path d="M210.824 100.08C209.716 101.782 207.993 102.442 206.125 102.839C205.91 102.884 205.673 102.745 205.625 102.542C205.564 102.278 205.834 102.206 206.025 102.191C207.887 102.063 209.346 101.076 210.824 100.08Z" fill="#C1B28A"/>
<path d="M244.514 209.722C245.552 208.256 246.815 207.051 248.293 206.076C248.474 205.955 248.668 205.706 248.932 205.979C249.113 206.167 248.947 206.291 248.832 206.367C247.306 207.372 246.058 208.735 244.514 209.722Z" fill="#C1B28A"/>
<path d="M82.6661 199.426C82.4542 197.525 82.7842 196.056 83.1112 194.588C83.1688 194.33 83.2808 194.097 83.5776 194.155C83.8016 194.197 83.947 194.424 83.841 194.645C83.1688 196.035 83.2959 197.622 82.6661 199.426Z" fill="#C1B28A"/>
<path d="M200.42 126.984C198.627 127.426 196.874 127.859 194.924 128.341C195.962 127.317 199.617 126.472 200.42 126.984Z" fill="#C1B28A"/>
<path d="M227.378 214.155C227.508 215.996 227.502 217.834 227.03 219.66V214.142C227.145 214.145 227.263 214.149 227.378 214.155Z" fill="#C1B28A"/>
<path d="M208.614 116.94C208.48 118.69 208.862 120.465 208.199 122.188V116.928C208.338 116.931 208.477 116.937 208.614 116.94Z" fill="#C1B28A"/>
<path d="M58.5419 117.07C57.9696 115.456 57.252 113.87 57.3216 112.086C57.9181 113.697 58.4813 115.314 58.5419 117.07Z" fill="#C1B28A"/>
<path d="M206.485 116.274C207.036 117.879 206.76 119.553 206.824 121.21C206.712 121.219 206.597 121.225 206.485 121.234V116.274Z" fill="#C1B28A"/>
<path d="M246.733 210.351C247.727 209.08 248.717 207.799 250.064 206.918C248.956 208.062 247.845 209.207 246.733 210.351Z" fill="#C1B28A"/>
<path d="M168.674 98.8447C170.161 98.9234 171.66 98.5934 173.125 99.2838H168.662C168.665 99.1384 168.671 98.99 168.674 98.8447Z" fill="#C1B28A"/>
<path d="M76.5434 179.835C75.7834 180.934 74.7266 181.688 73.4912 182.218C74.3148 181.201 75.3534 180.438 76.5434 179.835Z" fill="#C1B28A"/>
<path d="M267.045 197.107C265.807 197.077 265.098 196.323 264.175 196.259C264.081 196.253 263.908 195.996 263.935 195.914C264.011 195.711 264.22 195.617 264.45 195.672C265.347 195.893 266.134 196.314 267.045 197.107Z" fill="#C1B28A"/>
<path d="M205.013 117.446C205.001 118.678 205.198 119.917 204.62 121.137V117.443C204.75 117.443 204.88 117.443 205.013 117.446Z" fill="#C1B28A"/>
<path d="M179.896 130.133C179.069 130.857 177.943 131.011 177.019 131.547C176.817 131.665 176.68 131.523 176.626 131.396C176.52 131.142 176.759 131.02 176.926 130.954C177.855 130.572 178.797 130.218 179.736 129.855C179.787 129.946 179.842 130.039 179.896 130.133Z" fill="#C1B28A"/>
<path d="M84.6947 198.669C84.1891 197.428 84.4464 196.447 84.4707 195.493C84.4707 195.441 84.6645 195.329 84.7371 195.354C85.0066 195.432 85.2095 195.678 85.1065 195.92C84.7795 196.701 85.052 197.561 84.6947 198.669Z" fill="#C1B28A"/>
<path d="M247.611 212.289C247.769 210.954 248.692 210.239 249.734 209.616C249.259 210.694 248.229 211.323 247.611 212.289Z" fill="#C1B28A"/>
<path d="M86.4147 196.38C86.1997 197.461 85.9847 198.542 85.7728 199.623C85.6577 199.602 85.5426 199.581 85.4276 199.56C85.3367 198.424 85.6728 197.364 86.0695 196.317C86.1876 196.341 86.3027 196.362 86.4147 196.38Z" fill="#C1B28A"/>
<path d="M249.307 212.444C249.798 211.566 250.549 210.981 251.439 210.551C251.521 210.636 251.602 210.721 251.684 210.806C250.976 211.438 250.27 212.068 249.565 212.701C249.477 212.616 249.392 212.529 249.307 212.444Z" fill="#C1B28A"/>
<path d="M82.2911 178.382C81.6794 179.39 81.6794 179.39 80.8013 179.744C81.201 178.927 81.201 178.927 82.2911 178.382Z" fill="#C1B28A"/>
<path d="M82.006 175.756C81.685 176.332 81.1884 176.525 80.5586 176.84C81.1521 175.941 81.1521 175.941 82.006 175.756Z" fill="#C1B28A"/>
<path d="M79.8805 180.877C79.7382 180.74 79.6655 180.671 79.5898 180.601C79.7019 180.492 79.7988 180.353 79.932 180.28C80.0562 180.214 80.1742 180.332 80.144 180.45C80.1076 180.589 79.9926 180.704 79.8805 180.877Z" fill="#C1B28A"/>
<path d="M77.022 179.229C77.0825 179.342 77.1219 179.414 77.1613 179.487C77.0614 179.538 76.9614 179.602 76.8554 179.635C76.8403 179.641 76.7374 179.484 76.7525 179.46C76.8131 179.381 76.9069 179.323 77.022 179.229Z" fill="#C1B28A"/>
<path d="M246.261 210.572C246.324 210.491 246.391 210.403 246.458 210.318C246.512 210.37 246.618 210.436 246.609 210.466C246.573 210.579 246.497 210.678 246.436 210.781C246.388 210.721 246.336 210.66 246.261 210.572Z" fill="#C1B28A"/>
</g>
<defs>
<clipPath id="clip0_208_1132">
<rect width="257.99" height="181.735" fill="white" transform="translate(21.0098 59.1323)"/>
</clipPath>
</defs>
</svg>
