<svg width="300" height="300" viewBox="0 0 300 300" fill="none" xmlns="http://www.w3.org/2000/svg">
<g clip-path="url(#clip0_244_10717)">
<path d="M274.465 273.789C274.027 274.011 273.988 273.78 273.926 273.401C273.365 269.914 272.754 266.437 272.202 262.948C271.226 256.807 270.169 250.682 268.961 244.584C268.092 240.19 267.485 235.756 266.855 231.326C266.068 225.799 264.922 220.34 263.799 214.875C262.585 208.957 261.638 202.986 260.309 197.09C259.516 193.577 258.377 190.126 257.978 186.545C257.453 181.801 256.088 177.221 255.53 172.487C254.893 167.11 254.508 161.714 254.015 156.324C253.685 152.733 253.248 149.151 252.752 145.58C252.082 140.735 251.7 135.861 251.25 130.996C250.819 126.361 250.274 121.738 249.898 117.099C249.19 108.297 247.544 99.6525 245.625 91.0534C243.819 82.9472 241.792 74.89 239.239 66.983C237.512 61.6355 234.953 56.6308 232.432 51.6195C231.636 50.0362 230.81 48.4659 229.971 46.9086C229.843 46.6736 229.768 46.1643 229.233 46.5267C229.083 46.6311 228.907 46.1904 229.164 45.988C229.716 45.5538 229.426 45.2796 229.109 44.9074C224.607 39.6089 219.103 35.5215 213.19 31.9793C208.346 29.0771 203.308 26.4849 197.912 24.8069C188.085 21.7544 178.043 19.8087 167.688 20.2135C162.33 20.4224 157.084 21.441 151.847 22.6163C147.411 23.612 143.457 25.6263 139.432 27.5492C138.808 27.8463 138.648 28.1466 138.985 28.8714C142.187 35.8447 145.87 42.5438 150.111 48.9393C150.218 49.1025 150.617 49.3408 150.261 49.5628C150.016 49.7162 149.921 49.3473 149.787 49.1841C144.907 43.1706 141.022 36.5531 137.891 29.4851C137.64 28.9236 137.486 28.7963 136.954 29.1946C135.048 30.6278 133.17 32.1001 131.244 33.5007C129.684 34.6368 128.949 36.0536 128.734 37.9112C128.613 38.9592 128.655 40.0006 128.593 41.042C128.544 41.8549 128.561 42.6613 127.467 42.9192C127.124 43.0008 126.905 43.5526 126.605 43.8627C121.453 49.2331 117.373 55.3413 114.216 62.0632C112.717 65.256 111.333 68.5011 110.719 72.0171C110.595 72.7256 110.768 73.4014 110.811 74.0837C110.951 76.2906 110.06 77.9817 108.535 79.4997C106.514 81.5108 104.565 83.5904 102.443 85.5034C99.6717 88.0009 96.6127 90.0936 93.4558 92.0524C92.447 92.6792 91.4251 93.2864 90.4555 93.9687C89.0974 94.922 88.8101 96.5315 89.5414 98.0006C90.6939 100.315 92.5449 102.042 94.3307 103.812C95.568 105.036 95.9304 106.482 95.741 108.082C95.5582 109.633 95.2056 111.151 94.3372 112.522C94.0565 112.966 93.3317 113.021 93.3905 113.7C93.3121 113.7 93.2338 113.707 93.1554 113.697C92.8877 113.661 92.6396 113.194 92.349 113.635C92.0911 114.03 92.0552 114.474 92.2935 114.872C92.904 115.888 93.5374 116.887 94.1838 117.879C95.3297 119.645 96.7139 121.203 98.5029 122.567C97.8794 122.711 97.5268 122.41 97.2623 122.153C95.1338 120.083 93.0216 118 91.4839 115.414C91.1313 114.82 91.0138 114.203 91.2619 113.586C91.51 112.966 91.8136 112.29 92.7245 112.714C92.9432 112.816 93.0052 112.688 93.0999 112.512C94.0303 110.808 94.5364 108.96 94.742 107.057C94.8465 106.11 94.1936 105.349 93.5504 104.687C92.3001 103.394 90.7428 102.408 89.7079 100.909C88.8852 99.7178 88.056 98.4707 88.0527 96.9722C88.0495 95.379 88.7416 94.0438 90.1846 93.2537C96.6812 89.7051 102.28 85.0725 107.086 79.454C107.539 78.9252 108.029 78.4224 108.476 77.8903C109.267 76.9533 109.727 76.0294 109.622 74.6321C109.456 72.4187 109.991 70.202 110.768 68.0995C112.779 62.6508 115.195 57.3947 118.515 52.6022C120.82 49.2722 123.314 46.0664 126.324 43.3632C127.62 42.201 127.718 40.9898 127.686 39.5207C127.624 36.6609 128.123 34.0328 130.823 32.3515C131.884 31.6921 132.89 30.9444 133.905 30.2197C134.117 30.0695 134.542 30.0401 134.215 29.5113C134.035 29.2207 134.551 28.8844 134.842 28.6624C135.72 27.9965 136.654 27.4056 137.633 26.8995C140.163 25.5937 142.759 24.4184 145.23 22.995C147.558 21.6532 150.199 21.2223 152.729 20.4845C158.063 18.9305 163.532 18.2253 169.075 18.0392C176.848 17.7781 184.416 19.0284 191.954 20.8403C200.448 22.884 208.293 26.3707 215.685 30.902C220.944 34.1275 225.848 37.9276 229.302 43.1184C232.318 47.6562 235.149 52.3443 237.414 57.3327C238.746 60.2644 240.372 63.0622 241.345 66.1603C244.92 77.5312 247.936 89.0423 250.127 100.759C251.325 107.161 252.249 113.606 252.83 120.102C253.284 125.172 254.064 130.21 254.466 135.286C254.975 141.727 256.023 148.107 256.731 154.525C257.182 158.602 257.325 162.709 257.671 166.8C258.05 171.292 258.432 175.784 258.984 180.26C259.088 181.096 259.154 181.945 259.147 182.784C259.127 186.303 260.254 189.587 261.184 192.911C262.999 199.381 264.227 205.979 265.543 212.558C266.564 217.657 267.74 222.724 268.608 227.852C269.326 232.096 269.809 236.373 270.44 240.63C271.161 245.518 271.902 250.405 272.617 255.295C273.224 259.438 273.73 263.591 273.946 267.779C274.04 269.637 274.174 271.491 274.298 273.345C274.305 273.44 274.4 273.532 274.452 273.626V273.789H274.465Z" fill="#C1B28A"/>
<path d="M25.1655 246.187C25.6879 245.589 25.5638 244.806 25.5867 244.143C25.7238 239.889 27.6075 236.301 29.6316 232.71C33.4349 225.965 37.8683 219.645 42.4421 213.423C44.7143 210.334 47.0355 207.272 49.5493 204.37C52.3699 201.115 55.233 197.902 58.0798 194.67C60.3684 192.072 62.4055 189.29 64.2664 186.368C66.075 183.528 67.5245 180.485 69.3266 177.652C70.8055 175.327 72.49 173.133 74.1615 170.936C75.709 168.902 77.2891 166.885 78.9769 164.965C82.5126 160.95 85.627 156.598 89.0647 152.504C89.9756 151.42 90.9517 150.362 92.2641 149.726C92.5938 149.566 92.5546 149.399 92.4077 149.125C90.2531 145.074 90.8309 141.189 93.0868 137.379C93.7169 136.315 94.4939 135.329 94.755 134.052C95.0913 132.404 94.6995 130.908 94.0466 129.423C93.916 129.126 93.7495 129.155 93.5145 129.145C92.016 129.093 91.0823 127.774 91.461 126.325C91.7515 125.211 92.4241 124.441 93.3773 123.85C94.1445 123.373 94.8432 122.776 95.8324 122.639C95.1403 123.276 94.4384 123.902 93.7593 124.549C93.423 124.869 93.077 125.192 92.8191 125.571C92.1727 126.521 92.3326 127.386 93.2239 128.097C94.7518 129.318 94.7518 129.318 95.2251 130.389C95.7116 131.486 96.0609 132.599 95.9368 133.833C95.8095 135.084 95.2774 136.181 94.6799 137.238C93.6875 138.988 93.1096 140.849 92.8909 142.841C92.6428 145.08 93.3349 147.104 94.4057 148.995C94.8823 149.834 95.7377 150.294 96.753 150.473C98.591 150.8 100.439 150.921 102.3 150.976C103.72 151.019 105.101 151.42 106.531 151.492C108.591 151.6 110.641 151.835 112.701 151.982C115.727 152.197 118.646 152.977 121.61 153.536C125.139 154.198 128.143 155.893 130.95 157.959C131.94 158.687 132.612 159.856 133.412 160.835C136.324 164.414 138.515 168.419 140.372 172.618C144.619 182.206 147.532 192.245 150.329 202.313C151.067 204.967 151.286 207.729 151.495 210.478C151.573 211.513 151.707 212.541 151.658 213.615C151.332 213.426 151.351 213.139 151.296 212.864C150.545 209.214 150.297 205.463 149.2 201.889C146.8 194.076 144.887 186.107 142.024 178.448C139.376 171.367 135.913 164.698 130.97 158.886C130.552 158.397 130.095 157.992 129.481 157.731C127.699 156.973 126.063 155.87 124.17 155.383C120.967 154.558 117.732 153.856 114.447 153.448C110.272 152.928 106.077 152.615 101.914 151.939C99.9034 151.613 97.8369 151.417 95.7769 151.41C95.5516 151.41 95.3231 151.312 95.0586 151.25C95.7736 155.69 93.632 159.337 91.6862 162.948C88.7056 168.478 85.5258 173.901 83.159 179.741C83.1035 179.875 83.0447 180.012 82.9598 180.126C82.826 180.312 82.6791 180.541 82.4016 180.391C82.1698 180.267 82.1208 180.068 82.2024 179.797C82.5713 178.576 83.0512 177.397 83.616 176.254C85.7805 171.863 88.0821 167.544 90.3804 163.225C91.7352 160.682 93.2957 158.234 93.8964 155.318C94.409 152.821 94.4253 152.315 92.8909 149.915C91.3794 151.332 89.9756 152.814 88.7676 154.479C88.6697 154.616 88.5293 154.76 88.686 154.939C88.8721 155.152 88.6371 155.586 89.0321 155.664C89.339 155.726 89.4761 155.423 89.6426 155.237C90.3445 154.46 91.0268 153.666 91.7189 152.883C91.9539 152.615 92.1204 152.259 92.7113 152.132C91.8201 153.725 90.955 155.142 89.6556 156.219C89.0517 156.719 88.451 156.396 88.0951 155.39C87.3932 156.311 86.7109 157.163 86.071 158.047C84.4354 160.31 82.6072 162.422 80.8704 164.603C78.2489 167.89 75.3727 170.966 73.0157 174.485C71.4715 176.793 69.5355 178.847 68.2852 181.357C67.2633 183.411 66.1468 185.412 64.8769 187.312C63.1662 189.868 61.3869 192.388 59.3922 194.745C57.12 197.432 54.9294 200.191 52.5071 202.75C46.7351 208.852 41.9459 215.705 37.1893 222.6C34.5612 226.406 32.0213 230.236 29.9319 234.365C28.7109 236.778 27.4573 239.197 27.17 241.92C26.8632 244.832 26.3212 247.731 26.3996 250.676C26.4714 253.411 26.0894 256.147 26.2722 258.867C26.5595 263.153 26.6379 267.453 27.046 271.733C27.2255 273.61 27.5128 275.481 27.4638 277.381C27.4377 278.422 27.4018 279.476 27.5781 280.518C27.6271 280.815 27.6173 281.197 27.3006 281.252C26.9023 281.321 26.7881 280.913 26.7522 280.606C26.664 279.796 26.5759 278.984 26.5726 278.174C26.5563 274.707 25.9915 271.276 25.936 267.818C25.8903 264.994 25.5867 262.19 25.4724 259.376C25.3843 257.254 25.3712 255.135 25.3353 253.013C25.332 252.827 25.4136 252.595 25.1688 252.474V246.187H25.1655Z" fill="#C1B28A"/>
<path d="M183.469 123.801C183.159 126.543 182.897 129.289 182.529 132.022C182.013 135.851 182.258 139.687 182.28 143.526C182.333 152.305 184.899 160.489 188.278 168.436C190.116 172.758 192.365 176.917 195.352 180.616C196.044 181.471 196.645 182.412 197.2 183.365C200.229 188.569 204.079 193.162 207.849 197.818C213.223 204.451 219.262 210.494 225.126 216.671C231.704 223.599 237.407 231.173 243.13 238.766C245.582 242.021 247.969 245.318 250.309 248.648C254.935 255.23 258.595 262.285 260.75 270.081C261.36 272.288 262.118 274.452 262.833 276.63C263.237 277.87 263.293 279.134 263.188 280.42C263.136 281.053 262.891 281.582 262.415 282.003H262.065C262.016 281.785 261.847 281.621 261.873 281.363C262.183 278.51 261.155 275.918 260.201 273.339C259.114 270.397 258.458 267.329 257.283 264.41C254.354 257.133 250.009 250.731 245.262 244.564C240.724 238.665 236.219 232.736 231.587 226.906C228.857 223.471 225.815 220.301 222.811 217.095C218.316 212.3 213.797 207.52 209.384 202.649C207.121 200.152 204.813 197.684 202.959 194.84C202.276 193.795 201.434 192.859 200.657 191.879C198.933 189.715 197.37 187.446 195.917 185.089C193.782 181.631 191.261 178.419 189.407 174.776C185.238 166.588 182.111 158.031 181.102 148.884C180.517 143.582 180.478 138.202 181.118 132.854C181.412 130.402 181.667 127.947 182.215 125.538C182.408 124.689 182.764 123.912 183.351 123.253C183.358 123.243 183.403 123.256 183.42 123.269C183.439 123.289 183.446 123.321 183.459 123.347C183.459 123.501 183.465 123.651 183.469 123.801Z" fill="#C1B28A"/>
<path d="M183.756 123.449C183.243 121.539 183.139 119.56 182.744 117.631C182.623 117.037 182.519 116.436 182.404 115.839C182.395 115.646 182.421 115.44 182.205 115.326C180.906 109.469 179.629 103.606 178.111 97.7981C177.795 96.5935 177.56 95.366 177.328 94.1417C177.259 93.7728 177.112 93.5802 176.75 93.4953C176.019 93.3256 175.294 93.133 174.54 93.1036C174.367 92.6824 174.191 92.6824 174.014 93.1003C171.954 93.0546 170.038 93.8675 168.03 94.0993C166.199 94.3082 164.38 94.7947 162.497 94.2593C159.908 93.5247 158.011 91.8859 156.362 89.8683C154.381 87.4459 153.698 84.5632 153.388 81.5369C153.179 79.5063 153.094 77.4756 153.215 75.4385C153.241 74.9945 153.058 74.668 152.863 74.3089C151.305 71.4491 149.875 68.5305 148.984 65.3866C148.514 63.7314 148.475 61.9979 148.348 60.2937C148.246 58.9389 147.946 57.7702 147.084 56.6275C144.414 53.0854 142.38 49.1482 140.457 45.1653C139.167 42.5013 137.842 39.8504 136.761 37.082C136.138 35.4791 135.814 33.7978 135.26 32.1817C135.165 31.9108 135.201 31.6235 135.495 31.5256C135.766 31.4341 135.899 31.692 136.01 31.8977C136.229 32.3058 136.467 32.7041 136.647 33.1318C138.776 38.2377 141.417 43.0857 144.009 47.9598C146.395 52.4488 149.5 56.4447 152.621 60.4374C156.104 64.8936 159.751 69.1932 163.864 73.0814C166.992 76.0359 170.214 78.8729 173.668 81.4455C173.825 81.563 174.053 81.625 173.959 82.0756C163.992 76.3755 156.385 68.2007 149.249 59.3535C149.572 63.6531 150.705 67.4499 153.626 70.5905C155.167 72.2489 156.545 74.0608 158.246 75.5723C158.357 75.6703 158.468 75.7617 158.409 76.0882C156.124 74.5538 154.384 72.5427 152.461 70.6394C152.866 71.4752 153.199 72.3534 153.685 73.1369C154.909 75.112 155.964 77.1981 157.492 78.9741C158.393 80.0221 159.421 80.9035 160.704 81.4585C161.187 81.6675 161.622 81.9646 161.994 82.3367C162.196 82.5391 162.454 82.8036 162.232 83.0843C162.049 83.3096 161.775 83.1268 161.52 83.0386C158.151 81.8731 155.794 79.5879 154.191 76.4603C154.155 76.3885 154.087 76.333 154.022 76.2547C153.786 76.6595 154.012 77.0153 154.077 77.381C154.149 77.7793 154.201 78.1841 154.27 78.5824C154.625 80.6424 154.896 82.7122 155.487 84.7297C156.434 87.9781 158.514 90.3188 161.321 92.0589C162.49 92.7836 163.822 92.8718 165.19 92.875C167.988 92.8848 170.724 92.1601 173.521 92.2645C173.809 92.2743 174.096 92.3135 174.383 92.3364C174.393 92.4506 174.386 92.591 174.537 92.4082C175.154 92.3462 175.761 92.4865 176.329 92.6661C176.943 92.8587 177.129 92.8652 177.031 92.1046C176.832 90.5506 176.577 88.9966 176.626 87.4165C176.646 86.8322 176.724 86.2608 176.926 85.7156C176.979 85.572 176.894 85.3141 177.135 85.301C177.37 85.2912 177.442 85.4936 177.517 85.6993C177.743 86.3163 177.671 86.966 177.746 87.5994C178.284 92.147 179.528 96.5282 180.733 100.929C182.189 106.25 183.619 111.582 184.876 116.952C185.806 120.938 186.371 125.006 187.22 129.012C188.682 135.91 191.177 142.475 193.87 148.968C196.374 155.002 198.937 161.008 202.054 166.761C202.136 166.914 202.391 167.153 202.165 167.28C201.849 167.456 201.767 167.077 201.643 166.888C198.362 161.9 195.603 156.631 193.162 151.188C190.253 144.705 187.308 138.241 185.463 131.346C184.788 128.819 184.19 126.279 183.798 123.693C183.785 123.615 183.772 123.533 183.756 123.449Z" fill="#C1B28A"/>
<path d="M258.311 223.39C257.508 220.278 256.705 217.272 255.954 214.249C252.85 201.751 249.716 189.264 246.431 176.813C243.728 166.565 241.041 156.314 239.053 145.896C237.897 139.844 236.908 133.768 236.18 127.647C235.642 123.116 235.041 118.594 234.505 114.063C234.218 111.64 234.029 109.208 233.751 106.782C233.582 105.29 233.33 103.805 233.118 102.316C233.079 102.049 232.873 101.654 233.213 101.559C233.604 101.448 233.706 101.876 233.761 102.183C234.117 104.086 234.505 105.983 234.796 107.896C235.429 112.055 236.017 116.224 236.608 120.39C237.176 124.389 237.744 128.385 238.289 132.387C239.004 137.656 239.931 142.89 240.839 148.126C243.17 161.576 246.973 174.678 250.274 187.899C252.628 197.331 254.981 206.763 257.015 216.273C257.482 218.457 258.027 220.624 258.537 222.802C258.576 222.972 258.625 223.148 258.311 223.39Z" fill="#C1B28A"/>
<path d="M112.489 216.038C111.607 215.907 110.984 216.077 110.363 216.08C109.743 216.083 109.11 215.9 108.509 215.708C107.934 215.522 107.327 215.352 106.903 214.79C109.39 215.786 111.872 215.985 114.402 214.911C113.243 216.723 111.552 217.386 109.547 217.745C106.155 218.355 102.731 218.163 99.3288 218.408C94.8235 218.731 90.2922 218.757 85.8555 219.785C85.2287 219.929 84.752 220.278 84.2591 220.608C82.6496 221.692 80.9357 222.645 79.3915 223.791C76.4761 225.952 73.4759 228.019 70.812 230.51C67.9423 233.2 65.7648 236.491 63.0812 239.341C60.5479 242.031 58.2136 244.904 55.5888 247.512C55.2167 247.884 55.1742 248.397 55.0926 248.867C54.9979 249.409 54.9686 249.967 54.9686 250.519C54.9849 257.672 55.6378 264.75 57.3877 271.707C57.8806 273.669 58.2822 275.65 58.7164 277.625C58.7588 277.821 59.0494 278.095 58.7033 278.21C58.4356 278.298 58.4226 277.962 58.3377 277.772C56.2712 273.319 55.1024 268.599 54.1752 263.809C53.4472 260.055 53.2905 256.242 53.1077 252.435C53.0489 251.24 53.2448 250.068 53.4962 248.824C52.3797 249.317 51.3448 249.781 50.2348 250.023C50.0618 249.699 50.3164 249.634 50.4666 249.543C50.7604 249.363 51.0706 249.206 51.3774 249.053C53.4701 247.995 55.1677 246.5 56.7968 244.796C59.8982 241.554 62.8331 238.175 65.7648 234.79C66.6593 233.758 67.4461 232.638 68.1349 231.457C68.4647 230.892 68.8695 230.402 69.382 230.014C71.6771 228.277 73.7861 226.305 76.1986 224.718C78.4284 223.252 80.7169 221.885 83.1001 220.677C83.2536 220.598 83.4429 220.559 83.5604 220.445C85.1373 218.897 87.2299 218.894 89.2018 218.594C93.8898 217.882 98.6236 217.83 103.351 217.663C104.826 217.611 106.312 217.631 107.784 217.513C109.368 217.389 110.892 216.991 112.489 216.038Z" fill="#C1B28A"/>
<path d="M149.464 205.512C147.963 204.934 146.791 205.734 145.556 206.015C143.19 206.55 140.862 207.246 138.616 208.17C134.858 209.717 131.864 212.179 129.259 215.336C123.902 221.829 118.946 228.574 114.999 236.021C109.733 245.955 104.735 256.02 100.494 266.447C99.022 270.064 97.3799 273.616 95.3852 276.989C95.2611 277.201 95.2187 277.694 94.8824 277.534C94.5886 277.394 94.8857 277.034 94.9804 276.793C99.9524 263.819 105.493 251.113 111.979 238.802C115.61 231.914 119.736 225.414 124.643 219.39C126.37 217.272 128.211 215.251 129.948 213.135C132.854 209.596 136.801 207.7 141.064 206.351C143.323 205.636 145.612 205.045 147.927 204.533C148.798 204.34 149.105 204.732 149.464 205.512Z" fill="#C1B28A"/>
<path d="M106.952 211.709C101.624 210.684 96.3028 210.001 90.9912 209.244C88.2881 208.859 85.709 208.979 83.0646 209.443C82.095 209.613 81.1646 209.867 80.1982 210.102C81.0666 209.423 82.2452 209.254 82.9079 208.32C82.7806 208.029 82.3594 208.362 82.3366 208.049C82.3105 207.696 82.7055 207.716 82.9177 207.638C85.6959 206.599 88.5329 205.822 91.5005 205.552C94.8239 205.248 98.0755 204.311 101.441 204.409C105.14 204.517 108.829 204.223 112.512 204.037C116.126 203.854 119.684 203.136 123.024 201.588C124.833 200.749 126.243 198.849 126.605 196.417C127.2 197.217 127.134 197.948 126.85 198.666C126.227 200.253 125.015 201.324 123.589 202.16C120.895 203.74 117.921 204.471 114.875 204.954C109.887 205.744 104.863 205.77 99.8286 205.725C98.4869 205.711 97.1451 206.162 95.7968 206.361C92.6105 206.838 89.4176 207.292 86.2281 207.758C86.1497 207.768 86.0746 207.811 85.9897 207.84C86.0159 207.905 86.0355 207.98 86.0485 207.98C89.4601 207.781 92.8194 208.32 96.2016 208.61C100.785 209.002 105.297 209.766 109.753 210.892C111.19 211.255 112.587 211.712 113.912 212.384C114.65 212.76 115.071 213.315 115.137 214.144C115.156 214.399 115.084 214.653 114.846 214.719C114.5 214.81 114.673 214.441 114.562 214.307C113.909 213.53 113.096 212.936 112.117 212.747C110.837 212.495 109.623 211.993 108.32 211.829C107.354 211.709 107.132 211.82 106.929 212.809C106.808 213.403 106.737 213.534 106.59 213.439C106.276 213.243 106.355 212.894 106.427 212.646C106.518 212.332 106.75 212.055 106.952 211.709ZM84.4945 207.967C84.5076 208.016 84.5207 208.065 84.5337 208.114C84.9189 208.088 85.3074 208.065 85.6927 208.039L85.6731 207.892C85.2813 207.915 84.8863 207.941 84.4945 207.967ZM82.9275 208.245C83.2213 208.369 83.3976 208.261 83.6229 208.202C83.3911 208.082 83.2083 208.069 82.9275 208.245Z" fill="#C1B28A"/>
<path d="M185.33 113.641C184.217 109.704 183.27 105.973 182.395 102.222C180.58 94.4257 179.033 86.5741 177.743 78.6769C177.057 74.459 176.607 70.2084 176.258 65.948C175.853 61.0217 175.614 56.0822 175.105 51.1624C174.847 48.678 174.857 46.1838 175.484 43.6896C175.938 43.8528 175.938 44.1989 175.931 44.5417C175.85 48.9228 176.731 53.2191 177.08 57.5611C177.341 60.7801 177.596 63.9958 177.854 67.2147C178.249 72.1705 178.824 77.1066 179.682 82.0036C180.844 88.6276 182.056 95.2418 183.293 101.853C183.972 105.477 184.742 109.084 185.48 112.698C185.533 112.953 185.581 113.181 185.33 113.641Z" fill="#C1B28A"/>
<path d="M254.498 177.746C254.054 176.8 254.022 175.82 253.875 174.893C253.212 170.731 252.347 166.614 251.501 162.487C250.235 156.294 249.164 150.072 248.23 143.82C247.12 136.39 246.705 128.9 246.134 121.424C246.043 120.236 245.912 119.051 245.814 117.863C245.788 117.546 245.762 117.171 246.196 117.112C246.578 117.06 246.767 117.347 246.869 117.67C247.241 118.868 247.381 120.112 247.541 121.346C248.289 127.115 248.648 132.919 249.16 138.711C249.673 144.496 250.372 150.258 251.361 155.984C252.206 160.888 253.039 165.791 253.822 170.704C254.182 172.954 254.404 175.223 254.678 177.482C254.688 177.541 254.596 177.609 254.498 177.746Z" fill="#C1B28A"/>
<path d="M235.847 172.102C235.282 170.959 235.1 169.859 234.832 168.804C232.778 160.617 231.175 152.337 229.71 144.026C228.704 138.332 227.695 132.638 226.83 126.922C226.54 124.999 226.252 123.07 226.154 121.124C226.151 121.036 226.132 120.948 226.145 120.863C226.2 120.54 226.089 120.083 226.592 120.056C227.02 120.034 227.046 120.458 227.108 120.749C227.421 122.254 227.705 123.762 228.005 125.27C229.719 133.876 231.185 142.524 232.654 151.172C233.484 156.062 234.202 160.972 234.995 165.873C235.289 167.694 235.651 169.503 235.988 171.318C236.027 171.517 236.066 171.713 235.847 172.102Z" fill="#C1B28A"/>
<path d="M112.554 167.714C108.695 169.268 105.124 171.1 101.5 172.823C96.2506 175.314 91.3829 178.491 86.1921 181.096C81.7163 183.342 77.3841 185.908 73.189 188.667C72.585 189.065 71.9484 189.411 71.3347 189.796C71.1747 189.897 71.0409 189.989 70.8776 189.826C70.6883 189.633 70.7568 189.454 70.9233 189.3C71.0931 189.143 71.2628 188.98 71.4555 188.856C76.0619 185.879 80.639 182.859 85.2911 179.953C87.9028 178.324 90.7757 177.172 93.5148 175.768C99.4369 172.735 105.414 169.823 111.523 167.179C112.975 166.549 114.334 165.703 115.806 165.089C116.779 164.685 117.801 164.485 118.813 164.283C120.246 163.999 121.176 164.766 121.245 166.268C121.362 168.752 120.239 170.78 118.532 172.441C116.619 174.305 114.399 175.801 112.1 177.165C111.934 177.263 111.771 177.417 111.389 177.263C112.388 176.503 113.276 175.742 114.245 175.109C115.923 174.015 117.379 172.65 118.587 171.106C119.73 169.644 120.677 167.959 120.223 165.909C120.092 165.324 119.812 165.063 119.195 165.135C117.301 165.354 115.502 165.919 113.909 166.937C113.207 167.388 113.037 168.354 112.904 169.16C112.773 169.944 112.721 170.789 113.24 171.511C113.328 171.632 113.439 171.746 113.269 171.867C113.116 171.975 112.988 171.837 112.887 171.762C112.283 171.318 112.28 170.616 112.176 169.977C112.055 169.249 112.247 168.547 112.554 167.714Z" fill="#C1B28A"/>
<path d="M86.0059 195.176C86.9331 195.287 87.5044 194.954 88.1018 194.556C92.15 191.856 96.2341 189.209 100.498 186.852C100.85 186.656 101.216 186.479 101.595 186.339C103.403 185.67 105.14 186.884 105.186 188.83C105.231 190.658 104.836 192.382 103.942 194.132C105.963 193.952 107.889 194.145 109.815 194.109C112.172 194.066 114.516 194.256 116.86 194.468C117.072 194.488 117.343 194.517 117.35 194.736C117.36 195.078 117.03 194.997 116.821 194.997C115.306 195 113.795 194.961 112.28 194.994C108.908 195.065 105.532 195.265 102.159 195.225C99.453 195.193 96.7401 195.147 94.05 195.379C90.6776 195.669 87.2759 195.735 83.959 196.554C83.3093 196.714 82.7217 197.005 82.1112 197.253C81.8076 197.377 81.504 197.576 81.1514 197.377C81.1938 197.129 81.393 197.031 81.5692 196.956C84.3409 195.761 86.5838 193.782 88.98 192.019C91.2685 190.338 93.495 188.556 95.8652 187.008C99.2931 184.769 102.698 182.474 106.309 180.521C106.456 180.44 106.626 180.234 106.926 180.41C106.642 180.959 106.093 181.22 105.659 181.586C104.21 182.807 102.437 183.518 100.87 184.553C97.4192 186.829 93.9652 189.101 90.6744 191.608C89.1596 192.767 87.6448 193.926 86.0059 195.176ZM89.1988 194.693C89.2249 194.749 89.251 194.808 89.2804 194.863C89.7439 194.83 90.2108 194.834 90.6646 194.762C92.9303 194.406 95.2057 194.171 97.4975 194.125C99.2702 194.089 101.043 194.112 102.816 194.132C103.25 194.138 103.465 194.014 103.635 193.577C104.246 191.977 104.419 190.322 104.281 188.641C104.184 187.442 102.956 186.737 101.807 187.139C100.625 187.55 99.5967 188.262 98.5422 188.908C95.4212 190.828 92.3132 192.764 89.1988 194.693Z" fill="#C1B28A"/>
<path d="M153.192 177.348C153.666 178.265 153.839 179.245 154.087 180.192C155.723 186.427 156.764 192.783 157.946 199.11C158.452 201.817 158.941 204.53 159.265 207.265C159.372 208.163 159.385 209.064 159.34 209.965C159.323 210.275 159.291 210.661 158.919 210.71C158.471 210.768 158.471 210.37 158.422 210.05C157.737 205.434 157.084 200.811 156.346 196.205C155.664 191.951 154.9 187.713 154.146 183.473C153.813 181.608 153.411 179.754 153.052 177.893C153.026 177.74 152.987 177.554 153.192 177.348Z" fill="#C1B28A"/>
<path d="M192.584 256.121C192.479 255.798 192.669 255.517 192.799 255.259C195.486 249.97 198.405 244.835 202.881 240.803C206.109 237.894 209.821 235.864 214.131 235.103C216.253 234.728 218.414 234.545 220.595 234.764C219.723 235.201 218.773 235.338 217.846 235.524C216.426 235.808 214.98 235.965 213.569 236.295C210.011 237.127 206.788 238.717 204.027 241.097C199.277 245.191 195.894 250.349 192.933 255.808C192.861 255.945 192.884 256.18 192.584 256.121Z" fill="#C1B28A"/>
<path d="M240.633 166.098C240.225 165.713 240.205 165.174 240.058 164.711C238.462 159.637 237.505 154.414 236.565 149.194C235.824 145.09 235.175 140.973 234.492 136.86C234.394 136.259 234.342 135.652 234.287 135.048C234.267 134.829 234.211 134.535 234.541 134.499C234.809 134.47 234.943 134.669 234.998 134.927C235.282 136.256 235.615 137.572 235.85 138.907C236.905 144.891 237.946 150.882 238.962 156.872C239.455 159.768 239.98 162.657 240.721 165.501C240.77 165.68 240.809 165.886 240.633 166.098Z" fill="#C1B28A"/>
<path d="M182.206 115.326C182.421 115.44 182.395 115.646 182.405 115.839C182.248 115.728 182.14 115.79 182.062 115.94C180.599 118.793 177.988 119.91 175.069 120.569C172.47 121.157 169.869 121.722 167.41 122.812C165.908 123.478 164.528 123.076 163.31 122.032C163.111 121.862 162.944 121.643 162.722 121.516C160.927 120.491 161.044 118.062 162.588 116.687C162.637 117.298 162.21 117.696 162.089 118.196C161.782 119.469 162.03 120.23 163.124 120.909C163.444 121.108 163.728 121.379 164.067 121.526C164.9 121.895 165.778 122.159 166.663 121.744C169.284 120.51 172.079 119.854 174.909 119.387C177.749 118.917 180.146 117.771 181.892 115.421C181.944 115.355 182.098 115.359 182.206 115.326Z" fill="#C1B28A"/>
<path d="M106.547 148.413C106.727 148.113 106.923 148.182 107.08 148.182C115.107 148.247 122.828 146.442 130.471 144.254C136.664 142.482 142.808 140.539 148.714 137.927C148.867 137.859 148.988 137.882 149.22 137.98C147.94 138.747 146.615 139.263 145.302 139.785C137.32 142.958 129.152 145.56 120.762 147.401C116.723 148.289 112.626 148.913 108.464 148.88C107.801 148.877 107.164 148.776 106.547 148.413Z" fill="#C1B28A"/>
<path d="M121.271 65.7424C122.25 65.6118 122.805 65.9285 123.327 66.3105C124.483 67.156 125.286 68.2758 125.789 69.6078C125.87 69.8233 126.161 70.0942 125.838 70.2966C125.593 70.4501 125.436 70.1497 125.266 70.0126C124.881 69.7025 124.463 69.425 124.13 69.0659C122.629 67.4531 120.869 67.4205 118.953 68.1256C117.947 68.4978 116.919 68.8112 115.858 68.9842C115.345 69.0691 114.823 69.1279 114.317 68.8928C114.059 68.772 113.883 68.6186 113.87 68.315C113.86 68.0375 114.026 67.8612 114.252 67.7926C116.68 67.0777 118.894 65.589 121.271 65.7424Z" fill="#C1B28A"/>
<path d="M181.703 70.153C181.203 70.4762 181.246 70.7928 181.301 71.1748C182.039 76.3362 182.747 81.5009 183.462 86.6624C183.861 89.5255 184.265 92.3886 184.654 95.2549C184.69 95.5194 184.755 95.8165 184.51 96.1723C184.083 95.2517 183.994 94.318 183.808 93.4235C182.705 88.0955 181.967 82.7023 181.21 77.3189C180.916 75.2262 180.593 73.1238 180.642 70.992C180.655 70.4533 180.72 69.9897 181.703 70.153Z" fill="#C1B28A"/>
<path d="M196.45 233.722C194.853 233.889 193.283 233.97 191.7 233.866C189.209 233.699 186.711 233.631 184.223 233.425C180.179 233.092 176.127 232.831 172.112 232.221C171.592 232.142 171.1 231.985 170.691 231.626C170.469 231.43 170.385 231.163 170.545 230.924C170.718 230.667 170.923 230.869 171.139 230.96C172.441 231.525 173.855 231.492 175.226 231.659C178.533 232.054 181.85 232.416 185.17 232.691C188.663 232.981 192.147 233.471 195.663 233.441C195.921 233.438 196.26 233.291 196.45 233.722Z" fill="#C1B28A"/>
<path d="M237.372 159.076C237.172 158.488 236.993 157.943 236.807 157.398C234.858 151.694 233.307 145.887 232.23 139.958C231.939 138.365 231.737 136.755 231.498 135.152C231.472 134.979 231.489 134.803 231.482 134.63C231.472 134.392 231.476 134.111 231.756 134.069C232.04 134.026 232.135 134.297 232.181 134.526C232.416 135.655 232.68 136.781 232.86 137.921C233.888 144.447 235.331 150.878 237.185 157.218C237.345 157.767 237.453 158.328 237.577 158.886C237.587 158.913 237.505 158.955 237.372 159.076Z" fill="#C1B28A"/>
<path d="M96.789 102.568C97.2167 102.796 97.5268 103.146 97.7978 103.501C98.7184 104.713 99.9524 105.512 101.297 106.123C103.253 107.014 105.026 105.989 105.355 103.861C105.378 103.707 105.431 103.583 105.574 103.511C106.015 104.337 106.465 107.05 106.292 108.098C105.803 107.399 105.783 106.671 105.639 105.917C105.124 106.299 104.631 106.678 104.128 107.037C103.354 107.589 102.492 107.706 101.66 107.285C99.7337 106.309 97.9414 105.153 96.8902 103.155C96.7988 102.989 96.6682 102.826 96.789 102.568Z" fill="#C1B28A"/>
<path d="M129.021 41.5611C128.698 41.3097 128.682 40.9572 128.819 40.6372C129.991 37.9145 131.437 35.4007 134.166 33.9251C134.431 33.7814 134.767 33.3734 135.051 33.7292C135.289 34.0296 134.907 34.3462 134.754 34.6368C134.702 34.738 134.627 34.8392 134.538 34.9078C132.207 36.7164 130.827 39.3052 129.021 41.5611Z" fill="#C1B28A"/>
<path d="M157.492 218.365C157.913 218.852 157.633 219.309 157.606 219.776C157.469 222.466 157.136 225.133 156.715 227.79C156.467 229.357 156.196 230.921 155.7 232.436C155.602 232.743 155.54 233.144 155.125 233.043C154.678 232.935 154.893 232.553 154.965 232.266C155.941 228.371 156.519 224.405 157.074 220.435C157.172 219.74 157.352 219.057 157.492 218.365Z" fill="#C1B28A"/>
<path d="M95.8716 115.875C97.8336 117.886 99.7924 119.9 101.761 121.904C101.996 122.143 102.159 122.466 102.571 122.512C102.825 122.541 102.969 122.769 102.884 123.031C102.796 123.305 102.642 123.56 102.339 123.667C102.097 123.752 101.865 123.736 101.722 123.507C100.566 121.679 98.8555 120.328 97.5431 118.636C96.8869 117.784 96.1817 116.958 95.8716 115.875Z" fill="#C1B28A"/>
<path d="M125.541 198.656C124.82 199.225 124.144 199.166 123.527 199.257C122.381 199.43 121.235 199.46 120.083 199.231C119.289 199.074 118.715 198.656 118.245 198.036C117.454 196.995 117.768 196.107 119.022 195.784C119.475 195.666 119.906 195.702 120.393 195.904C120.011 196.104 119.639 196.332 119.24 196.489C118.659 196.721 118.698 197.047 118.979 197.498C119.583 198.464 120.566 198.601 121.552 198.64C122.809 198.696 124.072 198.656 125.541 198.656Z" fill="#C1B28A"/>
<path d="M119.426 82.0363C117.866 82.6436 116.55 83.6915 114.915 84.0408C115.519 83.3585 116.315 82.957 117.033 82.4477C117.268 82.2812 117.572 82.1767 117.748 81.9645C118.94 80.5281 120.229 81.2234 121.529 81.7392C121.79 81.8437 121.849 82.0363 121.734 82.2061C121.506 82.5424 121.313 82.9602 120.807 83.0157C120.644 82.6109 121.297 82.2224 120.935 82.0265C120.553 81.8209 120.54 82.4771 120.256 82.6664C119.75 83.0027 119.266 83.365 118.698 83.5968C118.551 83.6556 118.434 83.7274 118.333 83.5707C118.251 83.4434 118.375 83.365 118.444 83.2802C118.773 82.8688 119.1 82.4509 119.426 82.0363ZM119.795 81.7654C119.763 81.7131 119.727 81.638 119.71 81.6413C119.635 81.6576 119.567 81.6968 119.498 81.7295C119.521 81.7752 119.554 81.8633 119.563 81.86C119.642 81.8372 119.717 81.8013 119.795 81.7654Z" fill="#C1B28A"/>
<path d="M175.49 109.371C174.961 108.186 174.883 106.906 174.746 105.663C174.589 104.252 174.452 102.829 174.531 101.399C174.56 100.9 174.645 100.423 174.916 99.9985C175.082 99.7373 175.356 99.6851 175.608 99.7993C175.97 99.9658 175.68 100.194 175.592 100.367C175.451 100.638 175.419 100.919 175.415 101.21C175.383 103.825 175.445 106.436 175.745 109.038C175.758 109.156 175.719 109.267 175.49 109.371Z" fill="#C1B28A"/>
<path d="M185.725 88.9509C185.271 87.534 185.17 86.2673 185.049 85.03C184.83 82.7742 184.67 80.5117 184.696 78.2428C184.7 77.8935 184.595 77.3124 185.039 77.3124C185.539 77.3124 185.362 77.8968 185.366 78.2395C185.395 81.3801 185.549 84.5142 185.878 87.6385C185.911 87.9943 185.966 88.373 185.725 88.9509Z" fill="#C1B28A"/>
<path d="M121.506 75.0499C120.764 76.5157 120.291 78.0599 119.991 79.8881C119.713 79.1699 119.984 78.6639 119.687 78.0566C119.687 78.8206 119.69 79.4245 119.684 80.0318C119.681 80.2407 119.811 80.5476 119.436 80.5574C119.106 80.5672 118.995 80.319 118.975 80.035C118.92 79.1927 118.933 78.3537 119.233 77.5539C119.485 76.8879 119.769 76.2284 120.085 75.5918C120.138 75.4873 120.2 74.7691 120.64 75.4188C120.722 75.5298 120.957 74.8997 121.506 75.0499Z" fill="#C1B28A"/>
<path d="M103.988 129.691C103.403 129.286 103.603 128.816 103.55 128.466C103.11 125.515 102.835 122.554 103.25 119.57C103.257 119.511 103.24 119.446 103.263 119.397C103.426 119.09 103.371 118.476 103.831 118.568C104.438 118.685 103.975 119.214 103.926 119.495C103.534 121.624 103.537 123.755 103.71 125.897C103.805 127.102 103.887 128.31 103.988 129.691Z" fill="#C1B28A"/>
<path d="M147.225 41.1889C146.395 40.2944 145.821 39.2334 145.181 38.2181C144.655 37.3889 144.123 36.5629 143.607 35.7239C143.418 35.417 143.085 35.0546 143.558 34.7576C144.015 34.4703 144.25 34.911 144.443 35.2016C145.256 36.4323 145.844 37.7806 146.454 39.1192C146.758 39.7851 147.208 40.3956 147.225 41.1889Z" fill="#C1B28A"/>
<path d="M227.369 139.729C226.788 138.518 226.537 137.212 226.256 135.92C225.988 134.685 225.789 133.432 225.583 132.185C225.541 131.927 225.368 131.512 225.698 131.427C226.096 131.323 226.187 131.777 226.236 132.064C226.546 133.879 226.847 135.694 227.114 137.516C227.222 138.247 227.519 138.949 227.369 139.729Z" fill="#C1B28A"/>
<path d="M99.2082 124.336C98.6663 124.885 97.9807 125.153 97.331 125.479C96.5083 125.89 95.6073 126.155 94.8662 126.733C94.6736 126.883 94.4385 126.994 94.2492 126.759C94.0925 126.56 94.2785 126.377 94.3895 126.214C94.4516 126.119 94.5365 126.024 94.6311 125.966C96.0447 125.12 97.5595 124.552 99.2082 124.336Z" fill="#C1B28A"/>
<path d="M120.259 72.2227C122.156 73.9301 123.739 75.693 125.417 77.5767C124.216 77.2339 120.269 73.1792 120.259 72.2227Z" fill="#C1B28A"/>
<path d="M117.973 170.097C117.157 171.184 116.008 171.69 114.793 172.072C114.513 172.16 114.189 172.108 114.095 171.749C114.003 171.403 114.238 171.201 114.516 171.077C115.619 170.597 116.788 170.329 117.973 170.097Z" fill="#C1B28A"/>
<path d="M30.5717 252.243C30.4216 249.654 30.2355 247.062 31.4956 244.646C30.8525 247.14 30.7807 249.699 30.5717 252.243Z" fill="#C1B28A"/>
<path d="M219.602 238.077C218.309 238.247 217.255 238.485 216.223 238.825C215.985 238.903 215.587 239.024 215.446 238.694C215.267 238.267 215.691 238.175 215.965 238.054C217.101 237.558 218.241 237.336 219.602 238.077Z" fill="#C1B28A"/>
<path d="M168.866 106.43C168.406 107.546 168.128 108.722 167.394 109.688C167.27 109.855 167.139 110.063 166.933 109.988C166.741 109.92 166.689 109.721 166.787 109.482C167.257 108.31 167.89 107.253 168.866 106.43Z" fill="#C1B28A"/>
<path d="M120.712 80.7175C120.412 79.7413 120.552 78.948 120.784 78.1612C120.823 78.0306 120.957 77.9066 121.124 77.9686C121.297 78.0306 121.28 78.2135 121.248 78.3375C121.055 79.0655 121.143 79.8588 120.712 80.7175Z" fill="#C1B28A"/>
<path d="M119.201 194.83C120.043 194.987 120.921 194.648 121.731 195.036C120.869 195.121 119.997 195.398 119.201 194.83Z" fill="#C1B28A"/>
<path d="M122.678 83.2802C122.642 82.66 122.563 82.1866 123.063 81.9189C123.122 81.8862 123.327 81.9744 123.35 82.0429C123.53 82.5979 123.076 82.8265 122.678 83.2802Z" fill="#C1B28A"/>
<path d="M190.325 82.8002C189.93 82.6272 189.643 82.3203 189.248 81.9612C189.812 82.0526 190.155 82.3072 190.449 82.65C190.407 82.699 190.367 82.7512 190.325 82.8002Z" fill="#C1B28A"/>
<path d="M190.942 83.2083C190.7 83.1267 190.478 83.0157 190.325 82.8002C190.367 82.7512 190.41 82.699 190.449 82.65C190.72 82.7121 190.929 82.8688 191.095 83.0842C191.043 83.1267 190.994 83.1658 190.942 83.2083Z" fill="#C1B28A"/>
<path d="M174.011 93.1035C174.188 92.6857 174.364 92.6857 174.537 93.1068C174.361 93.1068 174.188 93.1068 174.011 93.1035Z" fill="#C1B28A"/>
<path d="M183.756 123.449C183.773 123.533 183.786 123.618 183.802 123.7C183.645 123.586 183.57 123.736 183.469 123.798C183.462 123.648 183.459 123.498 183.453 123.347C183.554 123.383 183.655 123.416 183.756 123.449Z" fill="#C1B28A"/>
<path d="M191.095 83.0842C191.174 83.1724 191.337 83.1985 191.298 83.3683L191.304 83.3813C191.161 83.3683 190.997 83.3976 190.942 83.2083C190.994 83.1658 191.043 83.1267 191.095 83.0842Z" fill="#C1B28A"/>
<path d="M174.54 92.4212C174.39 92.604 174.397 92.4604 174.387 92.3494C174.439 92.3722 174.491 92.3951 174.54 92.4212Z" fill="#C1B28A"/>
</g>
<defs>
<clipPath id="clip0_244_10717">
<rect width="249.299" height="264" fill="white" transform="translate(25.1655 18)"/>
</clipPath>
</defs>
</svg>
